<?xml version="1.0" standalone="no"?>
 <!DOCTYPE svg PUBLIC "-//W3C//DTD SVG 1.1//EN" 
 "http://www.w3.org/Graphics/SVG/1.1/DTD/svg11.dtd"> 
<svg xmlns="http://www.w3.org/2000/svg" version="1.1" 
    width="29.7002cm" height="21.0007cm" viewBox="0 0 116930 82680 ">
<title>SVG Picture created as MAX1932-brd.svg date 2017/06/19 08:45:37 </title>
  <desc>Picture generated by PCBNEW </desc>
<g style="fill:#000000; fill-opacity:1;stroke:#000000; stroke-opacity:1;
stroke-linecap:round; stroke-linejoin:round; "
 transform="translate(0 0) scale(1 1)">
</g>
<g style="fill:#000000; fill-opacity:0.0; 
stroke:#000000; stroke-width:-0.000393701; stroke-opacity:1; 
stroke-linecap:round; stroke-linejoin:round;">
</g>
<g style="fill:#000000; fill-opacity:0.0; 
stroke:#000000; stroke-width:39.3701; stroke-opacity:1; 
stroke-linecap:round; stroke-linejoin:round;">
</g>
<g style="fill:#000000; fill-opacity:0.0; 
stroke:#000000; stroke-width:59.0551; stroke-opacity:1; 
stroke-linecap:round; stroke-linejoin:round;">
<rect x="69685.9" y="65357.2" width="42519.7" height="12598.4" rx="0" />
</g>
<g style="fill:#000000; fill-opacity:0.0; 
stroke:#000000; stroke-width:39.3701; stroke-opacity:1; 
stroke-linecap:round; stroke-linejoin:round;">
</g>
<g style="fill:#000000; fill-opacity:0.0; 
stroke:#000000; stroke-width:59.0551; stroke-opacity:1; 
stroke-linecap:round; stroke-linejoin:round;">
<rect x="3937.01" y="3937.01" width="109056" height="74806" rx="0" />
</g>
<g style="fill:#000000; fill-opacity:0.0; 
stroke:#000000; stroke-width:39.3701; stroke-opacity:1; 
stroke-linecap:round; stroke-linejoin:round;">
</g>
<g style="fill:#000000; fill-opacity:0.0; 
stroke:#000000; stroke-width:59.0551; stroke-opacity:1; 
stroke-linecap:round; stroke-linejoin:round;">
<rect x="4724.41" y="4724.41" width="107481" height="73231.2" rx="0" />
</g>
<g style="fill:#000000; fill-opacity:0.0; 
stroke:#000000; stroke-width:39.3701; stroke-opacity:1; 
stroke-linecap:round; stroke-linejoin:round;">
</g>
<g style="fill:#000000; fill-opacity:0.0; 
stroke:#000000; stroke-width:59.0551; stroke-opacity:1; 
stroke-linecap:round; stroke-linejoin:round;">
<path d="M23622 4724
L23622 3937
" />
</g>
<g style="fill:#000000; fill-opacity:0.0; 
stroke:#000000; stroke-width:39.3701; stroke-opacity:1; 
stroke-linecap:round; stroke-linejoin:round;">
</g>
<g style="fill:#000000; fill-opacity:0.0; 
stroke:#000000; stroke-width:59.0551; stroke-opacity:1; 
stroke-linecap:round; stroke-linejoin:round;">
<path d="M43307 4724
L43307 3937
" />
</g>
<g style="fill:#000000; fill-opacity:0.0; 
stroke:#000000; stroke-width:39.3701; stroke-opacity:1; 
stroke-linecap:round; stroke-linejoin:round;">
</g>
<g style="fill:#000000; fill-opacity:0.0; 
stroke:#000000; stroke-width:59.0551; stroke-opacity:1; 
stroke-linecap:round; stroke-linejoin:round;">
<path d="M62992 4724
L62992 3937
" />
</g>
<g style="fill:#000000; fill-opacity:0.0; 
stroke:#000000; stroke-width:39.3701; stroke-opacity:1; 
stroke-linecap:round; stroke-linejoin:round;">
</g>
<g style="fill:#000000; fill-opacity:0.0; 
stroke:#000000; stroke-width:59.0551; stroke-opacity:1; 
stroke-linecap:round; stroke-linejoin:round;">
<path d="M82677 4724
L82677 3937
" />
</g>
<g style="fill:#000000; fill-opacity:0.0; 
stroke:#000000; stroke-width:39.3701; stroke-opacity:1; 
stroke-linecap:round; stroke-linejoin:round;">
</g>
<g style="fill:#000000; fill-opacity:0.0; 
stroke:#000000; stroke-width:59.0551; stroke-opacity:1; 
stroke-linecap:round; stroke-linejoin:round;">
<path d="M102362 4724
L102362 3937
" />
</g>
<g style="fill:#000000; fill-opacity:0.0; 
stroke:#000000; stroke-width:39.3701; stroke-opacity:1; 
stroke-linecap:round; stroke-linejoin:round;">
</g>
<g style="fill:#000000; fill-opacity:0.0; 
stroke:#000000; stroke-width:59.0551; stroke-opacity:1; 
stroke-linecap:round; stroke-linejoin:round;">
<path d="M14199 4562
L13906 4562
" />
<path d="M14052 4562
L14052 4050
L14004 4123
L13955 4172
L13906 4196
" />
</g>
<g style="fill:#000000; fill-opacity:0.0; 
stroke:#000000; stroke-width:39.3701; stroke-opacity:1; 
stroke-linecap:round; stroke-linejoin:round;">
</g>
<g style="fill:#000000; fill-opacity:0.0; 
stroke:#000000; stroke-width:59.0551; stroke-opacity:1; 
stroke-linecap:round; stroke-linejoin:round;">
<path d="M33591 4099
L33615 4074
L33664 4050
L33786 4050
L33835 4074
L33859 4099
L33884 4147
L33884 4196
L33859 4269
L33567 4562
L33884 4562
" />
</g>
<g style="fill:#000000; fill-opacity:0.0; 
stroke:#000000; stroke-width:39.3701; stroke-opacity:1; 
stroke-linecap:round; stroke-linejoin:round;">
</g>
<g style="fill:#000000; fill-opacity:0.0; 
stroke:#000000; stroke-width:59.0551; stroke-opacity:1; 
stroke-linecap:round; stroke-linejoin:round;">
<path d="M53252 4050
L53569 4050
L53398 4245
L53471 4245
L53520 4269
L53544 4294
L53569 4342
L53569 4464
L53544 4513
L53520 4537
L53471 4562
L53325 4562
L53276 4537
L53252 4513
" />
</g>
<g style="fill:#000000; fill-opacity:0.0; 
stroke:#000000; stroke-width:39.3701; stroke-opacity:1; 
stroke-linecap:round; stroke-linejoin:round;">
</g>
<g style="fill:#000000; fill-opacity:0.0; 
stroke:#000000; stroke-width:59.0551; stroke-opacity:1; 
stroke-linecap:round; stroke-linejoin:round;">
<path d="M73205 4221
L73205 4562
" />
<path d="M73083 4026
L72961 4391
L73278 4391
" />
</g>
<g style="fill:#000000; fill-opacity:0.0; 
stroke:#000000; stroke-width:39.3701; stroke-opacity:1; 
stroke-linecap:round; stroke-linejoin:round;">
</g>
<g style="fill:#000000; fill-opacity:0.0; 
stroke:#000000; stroke-width:59.0551; stroke-opacity:1; 
stroke-linecap:round; stroke-linejoin:round;">
<path d="M92914 4050
L92671 4050
L92646 4294
L92671 4269
L92719 4245
L92841 4245
L92890 4269
L92914 4294
L92939 4342
L92939 4464
L92914 4513
L92890 4537
L92841 4562
L92719 4562
L92671 4537
L92646 4513
" />
</g>
<g style="fill:#000000; fill-opacity:0.0; 
stroke:#000000; stroke-width:39.3701; stroke-opacity:1; 
stroke-linecap:round; stroke-linejoin:round;">
</g>
<g style="fill:#000000; fill-opacity:0.0; 
stroke:#000000; stroke-width:59.0551; stroke-opacity:1; 
stroke-linecap:round; stroke-linejoin:round;">
<path d="M112575 4050
L112477 4050
L112429 4074
L112404 4099
L112356 4172
L112331 4269
L112331 4464
L112356 4513
L112380 4537
L112429 4562
L112526 4562
L112575 4537
L112599 4513
L112624 4464
L112624 4342
L112599 4294
L112575 4269
L112526 4245
L112429 4245
L112380 4269
L112356 4294
L112331 4342
" />
</g>
<g style="fill:#000000; fill-opacity:0.0; 
stroke:#000000; stroke-width:39.3701; stroke-opacity:1; 
stroke-linecap:round; stroke-linejoin:round;">
</g>
<g style="fill:#000000; fill-opacity:0.0; 
stroke:#000000; stroke-width:59.0551; stroke-opacity:1; 
stroke-linecap:round; stroke-linejoin:round;">
<path d="M23622 77955
L23622 78742
" />
</g>
<g style="fill:#000000; fill-opacity:0.0; 
stroke:#000000; stroke-width:39.3701; stroke-opacity:1; 
stroke-linecap:round; stroke-linejoin:round;">
</g>
<g style="fill:#000000; fill-opacity:0.0; 
stroke:#000000; stroke-width:59.0551; stroke-opacity:1; 
stroke-linecap:round; stroke-linejoin:round;">
<path d="M43307 77955
L43307 78742
" />
</g>
<g style="fill:#000000; fill-opacity:0.0; 
stroke:#000000; stroke-width:39.3701; stroke-opacity:1; 
stroke-linecap:round; stroke-linejoin:round;">
</g>
<g style="fill:#000000; fill-opacity:0.0; 
stroke:#000000; stroke-width:59.0551; stroke-opacity:1; 
stroke-linecap:round; stroke-linejoin:round;">
<path d="M62992 77955
L62992 78742
" />
</g>
<g style="fill:#000000; fill-opacity:0.0; 
stroke:#000000; stroke-width:39.3701; stroke-opacity:1; 
stroke-linecap:round; stroke-linejoin:round;">
</g>
<g style="fill:#000000; fill-opacity:0.0; 
stroke:#000000; stroke-width:59.0551; stroke-opacity:1; 
stroke-linecap:round; stroke-linejoin:round;">
<path d="M82677 77955
L82677 78742
" />
</g>
<g style="fill:#000000; fill-opacity:0.0; 
stroke:#000000; stroke-width:39.3701; stroke-opacity:1; 
stroke-linecap:round; stroke-linejoin:round;">
</g>
<g style="fill:#000000; fill-opacity:0.0; 
stroke:#000000; stroke-width:59.0551; stroke-opacity:1; 
stroke-linecap:round; stroke-linejoin:round;">
<path d="M102362 77955
L102362 78742
" />
</g>
<g style="fill:#000000; fill-opacity:0.0; 
stroke:#000000; stroke-width:39.3701; stroke-opacity:1; 
stroke-linecap:round; stroke-linejoin:round;">
</g>
<g style="fill:#000000; fill-opacity:0.0; 
stroke:#000000; stroke-width:59.0551; stroke-opacity:1; 
stroke-linecap:round; stroke-linejoin:round;">
<path d="M14199 78580
L13906 78580
" />
<path d="M14052 78580
L14052 78069
L14004 78142
L13955 78190
L13906 78215
" />
</g>
<g style="fill:#000000; fill-opacity:0.0; 
stroke:#000000; stroke-width:39.3701; stroke-opacity:1; 
stroke-linecap:round; stroke-linejoin:round;">
</g>
<g style="fill:#000000; fill-opacity:0.0; 
stroke:#000000; stroke-width:59.0551; stroke-opacity:1; 
stroke-linecap:round; stroke-linejoin:round;">
<path d="M33591 78117
L33615 78093
L33664 78069
L33786 78069
L33835 78093
L33859 78117
L33884 78166
L33884 78215
L33859 78288
L33567 78580
L33884 78580
" />
</g>
<g style="fill:#000000; fill-opacity:0.0; 
stroke:#000000; stroke-width:39.3701; stroke-opacity:1; 
stroke-linecap:round; stroke-linejoin:round;">
</g>
<g style="fill:#000000; fill-opacity:0.0; 
stroke:#000000; stroke-width:59.0551; stroke-opacity:1; 
stroke-linecap:round; stroke-linejoin:round;">
<path d="M53252 78069
L53569 78069
L53398 78263
L53471 78263
L53520 78288
L53544 78312
L53569 78361
L53569 78483
L53544 78532
L53520 78556
L53471 78580
L53325 78580
L53276 78556
L53252 78532
" />
</g>
<g style="fill:#000000; fill-opacity:0.0; 
stroke:#000000; stroke-width:39.3701; stroke-opacity:1; 
stroke-linecap:round; stroke-linejoin:round;">
</g>
<g style="fill:#000000; fill-opacity:0.0; 
stroke:#000000; stroke-width:59.0551; stroke-opacity:1; 
stroke-linecap:round; stroke-linejoin:round;">
<path d="M73205 78239
L73205 78580
" />
<path d="M73083 78044
L72961 78410
L73278 78410
" />
</g>
<g style="fill:#000000; fill-opacity:0.0; 
stroke:#000000; stroke-width:39.3701; stroke-opacity:1; 
stroke-linecap:round; stroke-linejoin:round;">
</g>
<g style="fill:#000000; fill-opacity:0.0; 
stroke:#000000; stroke-width:59.0551; stroke-opacity:1; 
stroke-linecap:round; stroke-linejoin:round;">
<path d="M92914 78069
L92671 78069
L92646 78312
L92671 78288
L92719 78263
L92841 78263
L92890 78288
L92914 78312
L92939 78361
L92939 78483
L92914 78532
L92890 78556
L92841 78580
L92719 78580
L92671 78556
L92646 78532
" />
</g>
<g style="fill:#000000; fill-opacity:0.0; 
stroke:#000000; stroke-width:39.3701; stroke-opacity:1; 
stroke-linecap:round; stroke-linejoin:round;">
</g>
<g style="fill:#000000; fill-opacity:0.0; 
stroke:#000000; stroke-width:59.0551; stroke-opacity:1; 
stroke-linecap:round; stroke-linejoin:round;">
<path d="M112575 78069
L112477 78069
L112429 78093
L112404 78117
L112356 78190
L112331 78288
L112331 78483
L112356 78532
L112380 78556
L112429 78580
L112526 78580
L112575 78556
L112599 78532
L112624 78483
L112624 78361
L112599 78312
L112575 78288
L112526 78263
L112429 78263
L112380 78288
L112356 78312
L112331 78361
" />
</g>
<g style="fill:#000000; fill-opacity:0.0; 
stroke:#000000; stroke-width:39.3701; stroke-opacity:1; 
stroke-linecap:round; stroke-linejoin:round;">
</g>
<g style="fill:#000000; fill-opacity:0.0; 
stroke:#000000; stroke-width:59.0551; stroke-opacity:1; 
stroke-linecap:round; stroke-linejoin:round;">
<path d="M3937 23622
L4724 23622
" />
</g>
<g style="fill:#000000; fill-opacity:0.0; 
stroke:#000000; stroke-width:39.3701; stroke-opacity:1; 
stroke-linecap:round; stroke-linejoin:round;">
</g>
<g style="fill:#000000; fill-opacity:0.0; 
stroke:#000000; stroke-width:59.0551; stroke-opacity:1; 
stroke-linecap:round; stroke-linejoin:round;">
<path d="M3937 43307
L4724 43307
" />
</g>
<g style="fill:#000000; fill-opacity:0.0; 
stroke:#000000; stroke-width:39.3701; stroke-opacity:1; 
stroke-linecap:round; stroke-linejoin:round;">
</g>
<g style="fill:#000000; fill-opacity:0.0; 
stroke:#000000; stroke-width:59.0551; stroke-opacity:1; 
stroke-linecap:round; stroke-linejoin:round;">
<path d="M3937 62992
L4724 62992
" />
</g>
<g style="fill:#000000; fill-opacity:0.0; 
stroke:#000000; stroke-width:39.3701; stroke-opacity:1; 
stroke-linecap:round; stroke-linejoin:round;">
</g>
<g style="fill:#000000; fill-opacity:0.0; 
stroke:#000000; stroke-width:59.0551; stroke-opacity:1; 
stroke-linecap:round; stroke-linejoin:round;">
<path d="M4208 13864
L4452 13864
" />
<path d="M4160 14011
L4330 13499
L4501 14011
" />
</g>
<g style="fill:#000000; fill-opacity:0.0; 
stroke:#000000; stroke-width:39.3701; stroke-opacity:1; 
stroke-linecap:round; stroke-linejoin:round;">
</g>
<g style="fill:#000000; fill-opacity:0.0; 
stroke:#000000; stroke-width:59.0551; stroke-opacity:1; 
stroke-linecap:round; stroke-linejoin:round;">
<path d="M4367 33428
L4440 33452
L4464 33476
L4489 33525
L4489 33598
L4464 33647
L4440 33671
L4391 33696
L4196 33696
L4196 33184
L4367 33184
L4416 33208
L4440 33233
L4464 33281
L4464 33330
L4440 33379
L4416 33403
L4367 33428
L4196 33428
" />
</g>
<g style="fill:#000000; fill-opacity:0.0; 
stroke:#000000; stroke-width:39.3701; stroke-opacity:1; 
stroke-linecap:round; stroke-linejoin:round;">
</g>
<g style="fill:#000000; fill-opacity:0.0; 
stroke:#000000; stroke-width:59.0551; stroke-opacity:1; 
stroke-linecap:round; stroke-linejoin:round;">
<path d="M4489 53332
L4464 53356
L4391 53381
L4342 53381
L4269 53356
L4221 53308
L4196 53259
L4172 53161
L4172 53088
L4196 52991
L4221 52942
L4269 52893
L4342 52869
L4391 52869
L4464 52893
L4489 52918
" />
</g>
<g style="fill:#000000; fill-opacity:0.0; 
stroke:#000000; stroke-width:39.3701; stroke-opacity:1; 
stroke-linecap:round; stroke-linejoin:round;">
</g>
<g style="fill:#000000; fill-opacity:0.0; 
stroke:#000000; stroke-width:59.0551; stroke-opacity:1; 
stroke-linecap:round; stroke-linejoin:round;">
<path d="M4196 73066
L4196 72554
L4318 72554
L4391 72578
L4440 72627
L4464 72676
L4489 72773
L4489 72846
L4464 72944
L4440 72993
L4391 73041
L4318 73066
L4196 73066
" />
</g>
<g style="fill:#000000; fill-opacity:0.0; 
stroke:#000000; stroke-width:39.3701; stroke-opacity:1; 
stroke-linecap:round; stroke-linejoin:round;">
</g>
<g style="fill:#000000; fill-opacity:0.0; 
stroke:#000000; stroke-width:59.0551; stroke-opacity:1; 
stroke-linecap:round; stroke-linejoin:round;">
<path d="M112992 23622
L112205 23622
" />
</g>
<g style="fill:#000000; fill-opacity:0.0; 
stroke:#000000; stroke-width:39.3701; stroke-opacity:1; 
stroke-linecap:round; stroke-linejoin:round;">
</g>
<g style="fill:#000000; fill-opacity:0.0; 
stroke:#000000; stroke-width:59.0551; stroke-opacity:1; 
stroke-linecap:round; stroke-linejoin:round;">
<path d="M112992 43307
L112205 43307
" />
</g>
<g style="fill:#000000; fill-opacity:0.0; 
stroke:#000000; stroke-width:39.3701; stroke-opacity:1; 
stroke-linecap:round; stroke-linejoin:round;">
</g>
<g style="fill:#000000; fill-opacity:0.0; 
stroke:#000000; stroke-width:59.0551; stroke-opacity:1; 
stroke-linecap:round; stroke-linejoin:round;">
<path d="M112992 62992
L112205 62992
" />
</g>
<g style="fill:#000000; fill-opacity:0.0; 
stroke:#000000; stroke-width:39.3701; stroke-opacity:1; 
stroke-linecap:round; stroke-linejoin:round;">
</g>
<g style="fill:#000000; fill-opacity:0.0; 
stroke:#000000; stroke-width:59.0551; stroke-opacity:1; 
stroke-linecap:round; stroke-linejoin:round;">
<path d="M112477 13864
L112721 13864
" />
<path d="M112428 14011
L112599 13499
L112769 14011
" />
</g>
<g style="fill:#000000; fill-opacity:0.0; 
stroke:#000000; stroke-width:39.3701; stroke-opacity:1; 
stroke-linecap:round; stroke-linejoin:round;">
</g>
<g style="fill:#000000; fill-opacity:0.0; 
stroke:#000000; stroke-width:59.0551; stroke-opacity:1; 
stroke-linecap:round; stroke-linejoin:round;">
<path d="M112635 33428
L112708 33452
L112733 33476
L112757 33525
L112757 33598
L112733 33647
L112708 33671
L112660 33696
L112465 33696
L112465 33184
L112635 33184
L112684 33208
L112708 33233
L112733 33281
L112733 33330
L112708 33379
L112684 33403
L112635 33428
L112465 33428
" />
</g>
<g style="fill:#000000; fill-opacity:0.0; 
stroke:#000000; stroke-width:39.3701; stroke-opacity:1; 
stroke-linecap:round; stroke-linejoin:round;">
</g>
<g style="fill:#000000; fill-opacity:0.0; 
stroke:#000000; stroke-width:59.0551; stroke-opacity:1; 
stroke-linecap:round; stroke-linejoin:round;">
<path d="M112757 53332
L112733 53356
L112660 53381
L112611 53381
L112538 53356
L112489 53308
L112465 53259
L112440 53161
L112440 53088
L112465 52991
L112489 52942
L112538 52893
L112611 52869
L112660 52869
L112733 52893
L112757 52918
" />
</g>
<g style="fill:#000000; fill-opacity:0.0; 
stroke:#000000; stroke-width:39.3701; stroke-opacity:1; 
stroke-linecap:round; stroke-linejoin:round;">
</g>
<g style="fill:#000000; fill-opacity:0.0; 
stroke:#000000; stroke-width:59.0551; stroke-opacity:1; 
stroke-linecap:round; stroke-linejoin:round;">
<path d="M112465 73066
L112465 72554
L112587 72554
L112660 72578
L112708 72627
L112733 72676
L112757 72773
L112757 72846
L112733 72944
L112708 72993
L112660 73041
L112587 73066
L112465 73066
" />
</g>
<g style="fill:#000000; fill-opacity:0.0; 
stroke:#000000; stroke-width:39.3701; stroke-opacity:1; 
stroke-linecap:round; stroke-linejoin:round;">
</g>
<g style="fill:#000000; fill-opacity:0.0; 
stroke:#000000; stroke-width:59.0551; stroke-opacity:1; 
stroke-linecap:round; stroke-linejoin:round;">
<path d="M78911 76293
L78911 75703
L79051 75703
L79136 75731
L79192 75787
L79220 75843
L79248 75956
L79248 76040
L79220 76153
L79192 76209
L79136 76265
L79051 76293
L78911 76293
" />
<path d="M79754 76293
L79754 75984
L79726 75928
L79670 75899
L79557 75899
L79501 75928
" />
<path d="M79754 76265
L79698 76293
L79557 76293
L79501 76265
L79473 76209
L79473 76153
L79501 76096
L79557 76068
L79698 76068
L79754 76040
" />
<path d="M79951 75899
L80176 75899
" />
<path d="M80036 75703
L80036 76209
L80064 76265
L80120 76293
L80176 76293
" />
<path d="M80598 76265
L80542 76293
L80429 76293
L80373 76265
L80345 76209
L80345 75984
L80373 75928
L80429 75899
L80542 75899
L80598 75928
L80626 75984
L80626 76040
L80345 76096
" />
<path d="M80879 76237
L80907 76265
L80879 76293
L80851 76265
L80879 76237
L80879 76293
" />
<path d="M80879 75928
L80907 75956
L80879 75984
L80851 75956
L80879 75928
L80879 75984
" />
</g>
<g style="fill:#000000; fill-opacity:0.0; 
stroke:#000000; stroke-width:39.3701; stroke-opacity:1; 
stroke-linecap:round; stroke-linejoin:round;">
</g>
<g style="fill:#000000; fill-opacity:0.0; 
stroke:#000000; stroke-width:59.0551; stroke-opacity:1; 
stroke-linecap:round; stroke-linejoin:round;">
<path d="M69685 76577
L112205 76577
" />
</g>
<g style="fill:#000000; fill-opacity:0.0; 
stroke:#000000; stroke-width:39.3701; stroke-opacity:1; 
stroke-linecap:round; stroke-linejoin:round;">
</g>
<g style="fill:#000000; fill-opacity:0.0; 
stroke:#000000; stroke-width:59.0551; stroke-opacity:1; 
stroke-linecap:round; stroke-linejoin:round;">
<path d="M70249 77395
L70249 76805
" />
<path d="M70587 77395
L70334 77058
" />
<path d="M70587 76805
L70249 77142
" />
<path d="M70840 77395
L70840 77002
" />
<path d="M70840 76805
L70812 76833
L70840 76861
L70868 76833
L70840 76805
L70840 76861
" />
<path d="M71458 77339
L71430 77367
L71346 77395
L71290 77395
L71205 77367
L71149 77311
L71121 77255
L71093 77142
L71093 77058
L71121 76946
L71149 76889
L71205 76833
L71290 76805
L71346 76805
L71430 76833
L71458 76861
" />
<path d="M71965 77395
L71965 77086
L71937 77030
L71880 77002
L71768 77002
L71712 77030
" />
<path d="M71965 77367
L71908 77395
L71768 77395
L71712 77367
L71683 77311
L71683 77255
L71712 77199
L71768 77171
L71908 77171
L71965 77142
" />
<path d="M72499 77395
L72499 76805
" />
<path d="M72499 77367
L72443 77395
L72330 77395
L72274 77367
L72246 77339
L72218 77283
L72218 77114
L72246 77058
L72274 77030
L72330 77002
L72443 77002
L72499 77030
" />
<path d="M73230 77086
L73427 77086
" />
<path d="M73511 77395
L73230 77395
L73230 76805
L73511 76805
" />
<path d="M73764 77339
L73793 77367
L73764 77395
L73736 77367
L73764 77339
L73764 77395
" />
<path d="M74046 77395
L74046 76805
L74186 76805
L74271 76833
L74327 76889
L74355 76946
L74383 77058
L74383 77142
L74355 77255
L74327 77311
L74271 77367
L74186 77395
L74046 77395
" />
<path d="M74636 77339
L74664 77367
L74636 77395
L74608 77367
L74636 77339
L74636 77395
" />
<path d="M74889 77227
L75171 77227
" />
<path d="M74833 77395
L75030 76805
L75227 77395
" />
<path d="M75424 77339
L75452 77367
L75424 77395
L75395 77367
L75424 77339
L75424 77395
" />
<path d="M76605 77395
L76605 76805
" />
<path d="M76661 77171
L76830 77395
" />
<path d="M76830 77002
L76605 77227
" />
<path d="M77083 77395
L77083 77002
" />
<path d="M77083 76805
L77055 76833
L77083 76861
L77111 76833
L77083 76805
L77083 76861
" />
<path d="M77617 77367
L77561 77395
L77448 77395
L77392 77367
L77364 77339
L77336 77283
L77336 77114
L77364 77058
L77392 77030
L77448 77002
L77561 77002
L77617 77030
" />
<path d="M78123 77395
L78123 77086
L78095 77030
L78039 77002
L77926 77002
L77870 77030
" />
<path d="M78123 77367
L78067 77395
L77926 77395
L77870 77367
L77842 77311
L77842 77255
L77870 77199
L77926 77171
L78067 77171
L78123 77142
" />
<path d="M78658 77395
L78658 76805
" />
<path d="M78658 77367
L78601 77395
L78489 77395
L78433 77367
L78404 77339
L78376 77283
L78376 77114
L78404 77058
L78433 77030
L78489 77002
L78601 77002
L78658 77030
" />
<path d="M79389 77002
L79389 77395
" />
<path d="M79389 77058
L79417 77030
L79473 77002
L79557 77002
L79614 77030
L79642 77086
L79642 77395
" />
<path d="M80007 77395
L79951 77367
L79923 77339
L79895 77283
L79895 77114
L79923 77058
L79951 77030
L80007 77002
L80092 77002
L80148 77030
L80176 77058
L80204 77114
L80204 77283
L80176 77339
L80148 77367
L80092 77395
L80007 77395
" />
<path d="M80457 77171
L80907 77171
" />
<path d="M81132 77002
L81273 77395
L81413 77002
" />
<path d="M81892 77367
L81835 77395
L81723 77395
L81667 77367
L81638 77339
L81610 77283
L81610 77114
L81638 77058
L81667 77030
L81723 77002
L81835 77002
L81892 77030
" />
<path d="M82117 77367
L82173 77395
L82285 77395
L82341 77367
L82370 77311
L82370 77283
L82341 77227
L82285 77199
L82201 77199
L82145 77171
L82117 77114
L82117 77086
L82145 77030
L82201 77002
L82285 77002
L82341 77030
" />
<path d="M82623 77171
L83073 77171
" />
<path d="M83269 77002
L83494 77002
" />
<path d="M83354 77395
L83354 76889
L83382 76833
L83438 76805
L83494 76805
" />
<path d="M83776 77395
L83719 77367
L83691 77339
L83663 77283
L83663 77114
L83691 77058
L83719 77030
L83776 77002
L83860 77002
L83916 77030
L83944 77058
L83973 77114
L83973 77283
L83944 77339
L83916 77367
L83860 77395
L83776 77395
" />
<path d="M84479 77002
L84479 77395
" />
<path d="M84226 77002
L84226 77311
L84254 77367
L84310 77395
L84394 77395
L84451 77367
L84479 77339
" />
<path d="M84760 77002
L84760 77395
" />
<path d="M84760 77058
L84788 77030
L84844 77002
L84929 77002
L84985 77030
L85013 77086
L85013 77395
" />
<path d="M85547 77395
L85547 76805
" />
<path d="M85547 77367
L85491 77395
L85379 77395
L85322 77367
L85294 77339
L85266 77283
L85266 77114
L85294 77058
L85322 77030
L85379 77002
L85491 77002
L85547 77030
" />
<path d="M85829 77171
L86278 77171
" />
<path d="M86813 77367
L86757 77395
L86644 77395
L86588 77367
L86560 77339
L86532 77283
L86532 77114
L86560 77058
L86588 77030
L86644 77002
L86757 77002
L86813 77030
" />
<path d="M86982 77002
L87206 77002
" />
<path d="M87066 77395
L87066 76889
L87094 76833
L87150 76805
L87206 76805
" />
<path d="M87685 76805
L87403 76805
L87375 77086
L87403 77058
L87460 77030
L87600 77030
L87656 77058
L87685 77086
L87713 77142
L87713 77283
L87685 77339
L87656 77367
L87600 77395
L87460 77395
L87403 77367
L87375 77339
" />
<path d="M87966 77395
L87966 76805
" />
<path d="M87966 77030
L88022 77002
L88135 77002
L88191 77030
L88219 77058
L88247 77114
L88247 77283
L88219 77339
L88191 77367
L88135 77395
L88022 77395
L87966 77367
" />
<path d="M88753 77395
L88753 77086
L88725 77030
L88669 77002
L88556 77002
L88500 77030
" />
<path d="M88753 77367
L88697 77395
L88556 77395
L88500 77367
L88472 77311
L88472 77255
L88500 77199
L88556 77171
L88697 77171
L88753 77142
" />
<path d="M89259 77367
L89203 77395
L89091 77395
L89034 77367
L89006 77311
L89006 77086
L89034 77030
L89091 77002
L89203 77002
L89259 77030
L89287 77086
L89287 77142
L89006 77199
" />
<path d="M89484 76805
L89878 76805
L89625 77395
" />
<path d="M90060 76644
L90525 76644
" />
<path d="M90384 76805
L90103 76805
L90075 77086
L90103 77058
L90159 77030
L90300 77030
L90356 77058
L90384 77086
L90412 77142
L90412 77283
L90384 77339
L90356 77367
L90300 77395
L90159 77395
L90103 77367
L90075 77339
" />
<path d="M90525 76644
L91087 76644
" />
<path d="M90750 77058
L90694 77030
L90665 77002
L90637 76946
L90637 76917
L90665 76861
L90694 76833
L90750 76805
L90862 76805
L90919 76833
L90947 76861
L90975 76917
L90975 76946
L90947 77002
L90919 77030
L90862 77058
L90750 77058
L90694 77086
L90665 77114
L90637 77171
L90637 77283
L90665 77339
L90694 77367
L90750 77395
L90862 77395
L90919 77367
L90947 77339
L90975 77283
L90975 77171
L90947 77114
L90919 77086
L90862 77058
" />
<path d="M91481 77002
L91481 77395
" />
<path d="M91228 77002
L91228 77311
L91256 77367
L91312 77395
L91397 77395
L91453 77367
L91481 77339
" />
<path d="M91762 77395
L91762 76805
" />
<path d="M91762 77030
L91818 77002
L91931 77002
L91987 77030
L92015 77058
L92043 77114
L92043 77283
L92015 77339
L91987 77367
L91931 77395
L91818 77395
L91762 77367
" />
<path d="M92550 77002
L92550 77395
" />
<path d="M92296 77002
L92296 77311
L92325 77367
L92381 77395
L92465 77395
L92521 77367
L92550 77339
" />
<path d="M92831 77002
L92831 77395
" />
<path d="M92831 77058
L92859 77030
L92915 77002
L93000 77002
L93056 77030
L93084 77086
L93084 77395
" />
<path d="M93281 77002
L93506 77002
" />
<path d="M93365 76805
L93365 77311
L93393 77367
L93449 77395
L93506 77395
" />
<path d="M93956 77002
L93956 77395
" />
<path d="M93703 77002
L93703 77311
L93731 77367
L93787 77395
L93871 77395
L93928 77367
L93956 77339
" />
<path d="M94546 77395
L94209 77395
" />
<path d="M94377 77395
L94377 76805
L94321 76889
L94265 76946
L94209 76974
" />
<path d="M95052 77002
L95052 77395
" />
<path d="M94912 76777
L94771 77199
L95137 77199
" />
<path d="M95362 77339
L95390 77367
L95362 77395
L95334 77367
L95362 77339
L95362 77395
" />
<path d="M95755 76805
L95812 76805
L95868 76833
L95896 76861
L95924 76917
L95952 77030
L95952 77171
L95924 77283
L95896 77339
L95868 77367
L95812 77395
L95755 77395
L95699 77367
L95671 77339
L95643 77283
L95615 77171
L95615 77030
L95643 76917
L95671 76861
L95699 76833
L95755 76805
" />
<path d="M96458 77002
L96458 77395
" />
<path d="M96318 76777
L96177 77199
L96543 77199
" />
<path d="M96768 77339
L96796 77367
L96768 77395
L96740 77367
L96768 77339
L96768 77395
" />
<path d="M97358 77395
L97021 77395
" />
<path d="M97190 77395
L97190 76805
L97133 76889
L97077 76946
L97021 76974
" />
</g>
<g style="fill:#000000; fill-opacity:0.0; 
stroke:#000000; stroke-width:39.3701; stroke-opacity:1; 
stroke-linecap:round; stroke-linejoin:round;">
</g>
<g style="fill:#000000; fill-opacity:0.0; 
stroke:#000000; stroke-width:59.0551; stroke-opacity:1; 
stroke-linecap:round; stroke-linejoin:round;">
<path d="M69685 75396
L112205 75396
" />
</g>
<g style="fill:#000000; fill-opacity:0.0; 
stroke:#000000; stroke-width:39.3701; stroke-opacity:1; 
stroke-linecap:round; stroke-linejoin:round;">
</g>
<g style="fill:#000000; fill-opacity:0.0; 
stroke:#000000; stroke-width:118.11; stroke-opacity:1; 
stroke-linecap:round; stroke-linejoin:round;">
<path d="M104099 76293
L103902 76012
" />
<path d="M103761 76293
L103761 75703
L103986 75703
L104042 75731
L104070 75759
L104099 75815
L104099 75899
L104070 75956
L104042 75984
L103986 76012
L103761 76012
" />
<path d="M104577 76265
L104520 76293
L104408 76293
L104352 76265
L104323 76209
L104323 75984
L104352 75928
L104408 75899
L104520 75899
L104577 75928
L104605 75984
L104605 76040
L104323 76096
" />
<path d="M104802 75899
L104942 76293
L105083 75899
" />
<path d="M105308 76237
L105336 76265
L105308 76293
L105280 76265
L105308 76237
L105308 76293
" />
<path d="M105308 75928
L105336 75956
L105308 75984
L105280 75956
L105308 75928
L105308 75984
" />
</g>
<g style="fill:#000000; fill-opacity:0.0; 
stroke:#000000; stroke-width:39.3701; stroke-opacity:1; 
stroke-linecap:round; stroke-linejoin:round;">
</g>
<g style="fill:#000000; fill-opacity:0.0; 
stroke:#000000; stroke-width:59.0551; stroke-opacity:1; 
stroke-linecap:round; stroke-linejoin:round;">
<path d="M70221 76265
L70305 76293
L70446 76293
L70502 76265
L70530 76237
L70559 76181
L70559 76124
L70530 76068
L70502 76040
L70446 76012
L70334 75984
L70277 75956
L70249 75928
L70221 75871
L70221 75815
L70249 75759
L70277 75731
L70334 75703
L70474 75703
L70559 75731
" />
<path d="M70812 76293
L70812 75899
" />
<path d="M70812 75703
L70784 75731
L70812 75759
L70840 75731
L70812 75703
L70812 75759
" />
<path d="M71037 75899
L71346 75899
L71037 76293
L71346 76293
" />
<path d="M71796 76265
L71740 76293
L71627 76293
L71571 76265
L71543 76209
L71543 75984
L71571 75928
L71627 75899
L71740 75899
L71796 75928
L71824 75984
L71824 76040
L71543 76096
" />
<path d="M72077 76237
L72105 76265
L72077 76293
L72049 76265
L72077 76237
L72077 76293
" />
<path d="M72077 75928
L72105 75956
L72077 75984
L72049 75956
L72077 75928
L72077 75984
" />
<path d="M72780 76124
L73061 76124
" />
<path d="M72724 76293
L72921 75703
L73118 76293
" />
<path d="M73568 75899
L73568 76293
" />
<path d="M73427 75674
L73286 76096
L73652 76096
" />
</g>
<g style="fill:#000000; fill-opacity:0.0; 
stroke:#000000; stroke-width:39.3701; stroke-opacity:1; 
stroke-linecap:round; stroke-linejoin:round;">
</g>
<g style="fill:#000000; fill-opacity:0.0; 
stroke:#000000; stroke-width:59.0551; stroke-opacity:1; 
stroke-linecap:round; stroke-linejoin:round;">
<path d="M103714 77395
L103714 76805
" />
<path d="M104248 77395
L104248 76805
" />
<path d="M104248 77367
L104192 77395
L104079 77395
L104023 77367
L103995 77339
L103967 77283
L103967 77114
L103995 77058
L104023 77030
L104079 77002
L104192 77002
L104248 77030
" />
<path d="M104529 77339
L104557 77367
L104529 77395
L104501 77367
L104529 77339
L104529 77395
" />
<path d="M104529 77030
L104557 77058
L104529 77086
L104501 77058
L104529 77030
L104529 77086
" />
<path d="M105570 77395
L105232 77395
" />
<path d="M105401 77395
L105401 76805
L105345 76889
L105289 76946
L105232 76974
" />
<path d="M106245 76777
L105739 77536
" />
<path d="M106751 77395
L106413 77395
" />
<path d="M106582 77395
L106582 76805
L106526 76889
L106470 76946
L106413 76974
" />
</g>
<g style="fill:#000000; fill-opacity:0.0; 
stroke:#000000; stroke-width:39.3701; stroke-opacity:1; 
stroke-linecap:round; stroke-linejoin:round;">
</g>
<g style="fill:#000000; fill-opacity:0.0; 
stroke:#000000; stroke-width:59.0551; stroke-opacity:1; 
stroke-linecap:round; stroke-linejoin:round;">
<path d="M69685 73821
L112205 73821
" />
</g>
<g style="fill:#000000; fill-opacity:0.0; 
stroke:#000000; stroke-width:39.3701; stroke-opacity:1; 
stroke-linecap:round; stroke-linejoin:round;">
</g>
<g style="fill:#000000; fill-opacity:0.0; 
stroke:#000000; stroke-width:157.48; stroke-opacity:1; 
stroke-linecap:round; stroke-linejoin:round;">
<path d="M70360 74099
L70810 74099
" />
<path d="M70486 74886
L70585 74099
" />
<path d="M70974 74886
L71039 74361
" />
<path d="M71072 74099
L71030 74136
L71063 74174
L71105 74136
L71072 74099
L71063 74174
" />
<path d="M71302 74361
L71602 74361
" />
<path d="M71447 74099
L71363 74774
L71391 74849
L71461 74886
L71536 74886
" />
<path d="M71911 74886
L71841 74849
L71813 74774
L71897 74099
" />
<path d="M72516 74849
L72436 74886
L72286 74886
L72216 74849
L72187 74774
L72225 74474
L72272 74399
L72352 74361
L72501 74361
L72572 74399
L72600 74474
L72591 74549
L72206 74624
" />
<path d="M72895 74811
L72928 74849
L72886 74886
L72853 74849
L72895 74811
L72886 74886
" />
<path d="M72947 74399
L72980 74436
L72937 74474
L72905 74436
L72947 74399
L72937 74474
" />
</g>
<g style="fill:#000000; fill-opacity:0.0; 
stroke:#000000; stroke-width:39.3701; stroke-opacity:1; 
stroke-linecap:round; stroke-linejoin:round;">
</g>
<g style="fill:#000000; fill-opacity:0.0; 
stroke:#000000; stroke-width:59.0551; stroke-opacity:1; 
stroke-linecap:round; stroke-linejoin:round;">
<path d="M70446 73070
L70249 73070
" />
<path d="M70249 73380
L70249 72789
L70530 72789
" />
<path d="M70755 73380
L70755 72986
" />
<path d="M70755 72789
L70727 72817
L70755 72845
L70784 72817
L70755 72789
L70755 72845
" />
<path d="M71121 73380
L71065 73352
L71037 73295
L71037 72789
" />
<path d="M71571 73352
L71515 73380
L71402 73380
L71346 73352
L71318 73295
L71318 73070
L71346 73014
L71402 72986
L71515 72986
L71571 73014
L71599 73070
L71599 73127
L71318 73183
" />
<path d="M71852 73323
L71880 73352
L71852 73380
L71824 73352
L71852 73323
L71852 73380
" />
<path d="M71852 73014
L71880 73042
L71852 73070
L71824 73042
L71852 73014
L71852 73070
" />
<path d="M72583 73380
L72583 72789
L72780 73211
L72977 72789
L72977 73380
" />
<path d="M73230 73211
L73511 73211
" />
<path d="M73174 73380
L73371 72789
L73568 73380
" />
<path d="M73708 72789
L74102 73380
" />
<path d="M74102 72789
L73708 73380
" />
<path d="M74636 73380
L74299 73380
" />
<path d="M74467 73380
L74467 72789
L74411 72874
L74355 72930
L74299 72958
" />
<path d="M74917 73380
L75030 73380
L75086 73352
L75114 73323
L75171 73239
L75199 73127
L75199 72902
L75171 72845
L75142 72817
L75086 72789
L74974 72789
L74917 72817
L74889 72845
L74861 72902
L74861 73042
L74889 73099
L74917 73127
L74974 73155
L75086 73155
L75142 73127
L75171 73099
L75199 73042
" />
<path d="M75395 72789
L75761 72789
L75564 73014
L75649 73014
L75705 73042
L75733 73070
L75761 73127
L75761 73267
L75733 73323
L75705 73352
L75649 73380
L75480 73380
L75424 73352
L75395 73323
" />
<path d="M75986 72845
L76014 72817
L76070 72789
L76211 72789
L76267 72817
L76295 72845
L76323 72902
L76323 72958
L76295 73042
L75958 73380
L76323 73380
" />
<path d="M76577 73323
L76605 73352
L76577 73380
L76548 73352
L76577 73323
L76577 73380
" />
<path d="M76858 73380
L76858 72789
" />
<path d="M76914 73155
L77083 73380
" />
<path d="M77083 72986
L76858 73211
" />
<path d="M77336 73380
L77336 72986
" />
<path d="M77336 72789
L77308 72817
L77336 72845
L77364 72817
L77336 72789
L77336 72845
" />
<path d="M77870 73352
L77814 73380
L77701 73380
L77645 73352
L77617 73323
L77589 73267
L77589 73099
L77617 73042
L77645 73014
L77701 72986
L77814 72986
L77870 73014
" />
<path d="M78376 73380
L78376 73070
L78348 73014
L78292 72986
L78180 72986
L78123 73014
" />
<path d="M78376 73352
L78320 73380
L78180 73380
L78123 73352
L78095 73295
L78095 73239
L78123 73183
L78180 73155
L78320 73155
L78376 73127
" />
<path d="M78911 73380
L78911 72789
" />
<path d="M78911 73352
L78854 73380
L78742 73380
L78686 73352
L78658 73323
L78629 73267
L78629 73099
L78658 73042
L78686 73014
L78742 72986
L78854 72986
L78911 73014
" />
<path d="M79051 73436
L79501 73436
" />
<path d="M79642 72986
L79642 73577
" />
<path d="M79642 73014
L79698 72986
L79811 72986
L79867 73014
L79895 73042
L79923 73099
L79923 73267
L79895 73323
L79867 73352
L79811 73380
L79698 73380
L79642 73352
" />
<path d="M80429 73352
L80373 73380
L80260 73380
L80204 73352
L80176 73323
L80148 73267
L80148 73099
L80176 73042
L80204 73014
L80260 72986
L80373 72986
L80429 73014
" />
<path d="M80682 73380
L80682 72789
" />
<path d="M80682 73014
L80739 72986
L80851 72986
L80907 73014
L80935 73042
L80964 73099
L80964 73267
L80935 73323
L80907 73352
L80851 73380
L80739 73380
L80682 73352
" />
</g>
<g style="fill:#000000; fill-opacity:0.0; 
stroke:#000000; stroke-width:39.3701; stroke-opacity:1; 
stroke-linecap:round; stroke-linejoin:round;">
</g>
<g style="fill:#000000; fill-opacity:0.0; 
stroke:#000000; stroke-width:59.0551; stroke-opacity:1; 
stroke-linecap:round; stroke-linejoin:round;">
<path d="M69685 71459
L112205 71459
" />
</g>
<g style="fill:#000000; fill-opacity:0.0; 
stroke:#000000; stroke-width:39.3701; stroke-opacity:1; 
stroke-linecap:round; stroke-linejoin:round;">
</g>
<g style="fill:#000000; fill-opacity:0.0; 
stroke:#000000; stroke-width:59.0551; stroke-opacity:1; 
stroke-linecap:round; stroke-linejoin:round;">
<path d="M70221 72289
L70305 72317
L70446 72317
L70502 72289
L70530 72260
L70559 72204
L70559 72148
L70530 72092
L70502 72064
L70446 72036
L70334 72007
L70277 71979
L70249 71951
L70221 71895
L70221 71839
L70249 71782
L70277 71754
L70334 71726
L70474 71726
L70559 71754
" />
<path d="M70812 72317
L70812 71726
" />
<path d="M71065 72317
L71065 72007
L71037 71951
L70980 71923
L70896 71923
L70840 71951
L70812 71979
" />
<path d="M71571 72289
L71515 72317
L71402 72317
L71346 72289
L71318 72232
L71318 72007
L71346 71951
L71402 71923
L71515 71923
L71571 71951
L71599 72007
L71599 72064
L71318 72120
" />
<path d="M72077 72289
L72021 72317
L71908 72317
L71852 72289
L71824 72232
L71824 72007
L71852 71951
L71908 71923
L72021 71923
L72077 71951
L72105 72007
L72105 72064
L71824 72120
" />
<path d="M72274 71923
L72499 71923
" />
<path d="M72358 71726
L72358 72232
L72386 72289
L72443 72317
L72499 72317
" />
<path d="M72696 72260
L72724 72289
L72696 72317
L72668 72289
L72696 72260
L72696 72317
" />
<path d="M72696 71951
L72724 71979
L72696 72007
L72668 71979
L72696 71951
L72696 72007
" />
</g>
<g style="fill:#000000; fill-opacity:0.0; 
stroke:#000000; stroke-width:39.3701; stroke-opacity:1; 
stroke-linecap:round; stroke-linejoin:round;">
</g>
<g style="fill:#000000; fill-opacity:0.0; 
stroke:#000000; stroke-width:59.0551; stroke-opacity:1; 
stroke-linecap:round; stroke-linejoin:round;">
<path d="M77559 75396
L77559 76577
" />
</g>
<g style="fill:#000000; fill-opacity:0.0; 
stroke:#000000; stroke-width:39.3701; stroke-opacity:1; 
stroke-linecap:round; stroke-linejoin:round;">
</g>
<g style="fill:#000000; fill-opacity:0.0; 
stroke:#000000; stroke-width:59.0551; stroke-opacity:1; 
stroke-linecap:round; stroke-linejoin:round;">
<path d="M102756 75396
L102756 77955
" />
</g>
<g style="fill:#000000; fill-opacity:0.0; 
stroke:#000000; stroke-width:0; stroke-opacity:1; 
stroke-linecap:round; stroke-linejoin:round;">
</g>
<g style="fill:#000000; fill-opacity:1.0; 
stroke:#000000; stroke-width:0; stroke-opacity:1; 
stroke-linecap:round; stroke-linejoin:round;">
<polyline style="fill-rule:evenodd;"
points="42675,22986
41887,22986
41887,22513
42675,22513
42675,22986
" /> 
<polyline style="fill-rule:evenodd;"
points="44112,23486
43324,23486
43324,23013
44112,23013
44112,23486
" /> 
<polyline style="fill-rule:evenodd;"
points="44112,22486
43324,22486
43324,22013
44112,22013
44112,22486
" /> 
<polyline style="fill-rule:evenodd;"
points="26346,22387
25853,22387
25853,21796
26346,21796
26346,22387
" /> 
<polyline style="fill-rule:evenodd;"
points="26346,21403
25853,21403
25853,20812
26346,20812
26346,21403
" /> 
<polyline style="fill-rule:evenodd;"
points="22196,16646
22196,16153
22787,16153
22787,16646
22196,16646
" /> 
<polyline style="fill-rule:evenodd;"
points="21212,16646
21212,16153
21803,16153
21803,16646
21212,16646
" /> 
<polyline style="fill-rule:evenodd;"
points="18987,21753
18987,22246
18396,22246
18396,21753
18987,21753
" /> 
<polyline style="fill-rule:evenodd;"
points="18003,21753
18003,22246
17412,22246
17412,21753
18003,21753
" /> 
<polyline style="fill-rule:evenodd;"
points="25853,19696
26346,19696
26346,20287
25853,20287
25853,19696
" /> 
<polyline style="fill-rule:evenodd;"
points="25853,18712
26346,18712
26346,19303
25853,19303
25853,18712
" /> 
<polyline style="fill-rule:evenodd;"
points="32303,18096
32796,18096
32796,18687
32303,18687
32303,18096
" /> 
<polyline style="fill-rule:evenodd;"
points="32303,17112
32796,17112
32796,17703
32303,17703
32303,17112
" /> 
<polyline style="fill-rule:evenodd;"
points="32037,23503
32037,23996
31446,23996
31446,23503
32037,23503
" /> 
<polyline style="fill-rule:evenodd;"
points="31053,23503
31053,23996
30462,23996
30462,23503
31053,23503
" /> 
<polyline style="fill-rule:evenodd;"
points="21477,24340
21477,23859
21835,23859
21835,24340
21477,24340
" /> 
<polyline style="fill-rule:evenodd;"
points="22764,24340
22764,23859
23122,23859
23122,24340
22764,24340
" /> 
<polyline style="fill-rule:evenodd;"
points="18156,17787
18156,16212
18943,16212
18943,17787
18156,17787
" /> 
<polyline style="fill-rule:evenodd;"
points="19856,17787
19856,16212
20643,16212
20643,17787
19856,17787
" /> 
<polyline style="fill-rule:evenodd;"
points="21468,18251
21468,17936
21783,17936
21783,18251
21468,18251
" /> 
<polyline style="fill-rule:evenodd;"
points="22216,18251
22216,17936
22531,17936
22531,18251
22216,18251
" /> 
<polyline style="fill-rule:evenodd;"
points="21842,17464
21842,17149
22157,17149
22157,17464
21842,17464
" /> 
<polyline style="fill-rule:evenodd;"
points="25326,21844
25326,22355
24736,22355
24736,21844
25326,21844
" /> 
<polyline style="fill-rule:evenodd;"
points="24263,21844
24263,22355
23673,22355
23673,21844
24263,21844
" /> 
<polyline style="fill-rule:evenodd;"
points="22155,21863
21644,21863
21644,21273
22155,21273
22155,21863
" /> 
<polyline style="fill-rule:evenodd;"
points="22155,22926
21644,22926
21644,22336
22155,22336
22155,22926
" /> 
<polyline style="fill-rule:evenodd;"
points="20144,23836
20655,23836
20655,24426
20144,24426
20144,23836
" /> 
<polyline style="fill-rule:evenodd;"
points="20144,22773
20655,22773
20655,23363
20144,23363
20144,22773
" /> 
<polyline style="fill-rule:evenodd;"
points="22644,21273
23155,21273
23155,21863
22644,21863
22644,21273
" /> 
<polyline style="fill-rule:evenodd;"
points="22644,22336
23155,22336
23155,22926
22644,22926
22644,22336
" /> 
<polyline style="fill-rule:evenodd;"
points="22644,19273
23155,19273
23155,19863
22644,19863
22644,19273
" /> 
<polyline style="fill-rule:evenodd;"
points="22644,20336
23155,20336
23155,20926
22644,20926
22644,20336
" /> 
<polyline style="fill-rule:evenodd;"
points="31705,18726
31194,18726
31194,18136
31705,18136
31705,18726
" /> 
<polyline style="fill-rule:evenodd;"
points="31705,17663
31194,17663
31194,17073
31705,17073
31705,17663
" /> 
<polyline style="fill-rule:evenodd;"
points="30005,24263
29494,24263
29494,23673
30005,23673
30005,24263
" /> 
<polyline style="fill-rule:evenodd;"
points="30005,25326
29494,25326
29494,24736
30005,24736
30005,25326
" /> 
<polyline style="fill-rule:evenodd;"
points="33005,24263
32494,24263
32494,23673
33005,23673
33005,24263
" /> 
<polyline style="fill-rule:evenodd;"
points="33005,25326
32494,25326
32494,24736
33005,24736
33005,25326
" /> 
<polyline style="fill-rule:evenodd;"
points="34673,24055
34673,23544
35263,23544
35263,24055
34673,24055
" /> 
<polyline style="fill-rule:evenodd;"
points="35736,24055
35736,23544
36326,23544
36326,24055
35736,24055
" /> 
<polyline style="fill-rule:evenodd;"
points="35263,24744
35263,25255
34673,25255
34673,24744
35263,24744
" /> 
<polyline style="fill-rule:evenodd;"
points="36326,24744
36326,25255
35736,25255
35736,24744
36326,24744
" /> 
<polyline style="fill-rule:evenodd;"
points="19906,20593
19906,19806
20693,19806
20693,20593
19906,20593
" /> 
<polyline style="fill-rule:evenodd;"
points="20837,20583
20837,20446
21211,20446
21211,20583
20837,20583
" /> 
<polyline style="fill-rule:evenodd;"
points="20837,20268
20837,20131
21211,20131
21211,20268
20837,20268
" /> 
<polyline style="fill-rule:evenodd;"
points="20837,19953
20837,19816
21211,19816
21211,19953
20837,19953
" /> 
<polyline style="fill-rule:evenodd;"
points="20546,21111
20546,20737
20683,20737
20683,21111
20546,21111
" /> 
<polyline style="fill-rule:evenodd;"
points="20231,21111
20231,20737
20368,20737
20368,21111
20231,21111
" /> 
<polyline style="fill-rule:evenodd;"
points="19916,21111
19916,20737
20053,20737
20053,21111
19916,21111
" /> 
<polyline style="fill-rule:evenodd;"
points="19916,19662
19916,19288
20053,19288
20053,19662
19916,19662
" /> 
<polyline style="fill-rule:evenodd;"
points="20546,19662
20546,19288
20683,19288
20683,19662
20546,19662
" /> 
<polyline style="fill-rule:evenodd;"
points="20231,19662
20231,19288
20368,19288
20368,19662
20231,19662
" /> 
<polyline style="fill-rule:evenodd;"
points="19388,20583
19388,20446
19762,20446
19762,20583
19388,20583
" /> 
<polyline style="fill-rule:evenodd;"
points="19388,19953
19388,19816
19762,19816
19762,19953
19388,19953
" /> 
<polyline style="fill-rule:evenodd;"
points="19388,20268
19388,20131
19762,20131
19762,20268
19388,20268
" /> 
<polyline style="fill-rule:evenodd;"
points="33909,17340
33909,16159
35090,16159
35090,17340
33909,17340
" /> 
<polyline style="fill-rule:evenodd;"
points="29159,19590
29159,18409
30340,18409
30340,19590
29159,19590
" /> 
<polyline style="fill-rule:evenodd;"
points="29159,22090
29159,20909
30340,20909
30340,22090
29159,22090
" /> 
<polyline style="fill-rule:evenodd;"
points="14909,17340
14909,16159
16090,16159
16090,17340
14909,17340
" /> 
<polyline style="fill-rule:evenodd;"
points="37659,19590
37659,18409
38840,18409
38840,19590
37659,19590
" /> 
<polyline style="fill-rule:evenodd;"
points="37659,21590
37659,20409
38840,20409
38840,21590
37659,21590
" /> 
<polyline style="fill-rule:evenodd;"
points="37659,25090
37659,23909
38840,23909
38840,25090
37659,25090
" /> 
<polyline style="fill-rule:evenodd;"
points="14909,23590
14909,22409
16090,22409
16090,23590
14909,23590
" /> 
<polyline style="fill-rule:evenodd;"
points="27659,19590
27659,18409
28840,18409
28840,19590
27659,19590
" /> 
<polyline style="fill-rule:evenodd;"
points="34260,22320
35060,22320
35060,22580
34260,22580
34260,22320
" /> 
<polyline style="fill-rule:evenodd;"
points="34260,21820
35060,21820
35060,22080
34260,22080
34260,21820
" /> 
<polyline style="fill-rule:evenodd;"
points="34260,21320
35060,21320
35060,21580
34260,21580
34260,21320
" /> 
<polyline style="fill-rule:evenodd;"
points="34260,20820
35060,20820
35060,21080
34260,21080
34260,20820
" /> 
<polyline style="fill-rule:evenodd;"
points="31840,20820
32640,20820
32640,21080
31840,21080
31840,20820
" /> 
<polyline style="fill-rule:evenodd;"
points="31840,21320
32640,21320
32640,21580
31840,21580
31840,21320
" /> 
<polyline style="fill-rule:evenodd;"
points="31840,21820
32640,21820
32640,22080
31840,22080
31840,21820
" /> 
<polyline style="fill-rule:evenodd;"
points="31840,22320
32640,22320
32640,22580
31840,22580
31840,22320
" /> 
<polyline style="fill-rule:evenodd;"
points="14909,18840
14909,17659
16090,17659
16090,18840
14909,18840
" /> 
<polyline style="fill-rule:evenodd;"
points="14909,20590
14909,19409
16090,19409
16090,20590
14909,20590
" /> 
<polyline style="fill-rule:evenodd;"
points="14909,22090
14909,20909
16090,20909
16090,22090
14909,22090
" /> 
<polyline style="fill-rule:evenodd;"
points="16090,23909
16090,25090
14909,25090
14909,23909
16090,23909
" /> 
<polyline style="fill-rule:evenodd;"
points="36159,17340
36159,16159
37340,16159
37340,17340
36159,17340
" /> 
<polyline style="fill-rule:evenodd;"
points="29159,18090
29159,16909
30340,16909
30340,18090
29159,18090
" /> 
<polyline style="fill-rule:evenodd;"
points="39750,18690
39750,18310
40250,18310
40250,18690
39750,18690
" /> 
<polyline style="fill-rule:evenodd;"
points="39750,19190
39750,18810
40250,18810
40250,19190
39750,19190
" /> 
<polyline style="fill-rule:evenodd;"
points="39750,19690
39750,19310
40250,19310
40250,19690
39750,19690
" /> 
<polyline style="fill-rule:evenodd;"
points="39750,22690
39750,22310
40250,22310
40250,22690
39750,22690
" /> 
<polyline style="fill-rule:evenodd;"
points="39750,22190
39750,21810
40250,21810
40250,22190
39750,22190
" /> 
<polyline style="fill-rule:evenodd;"
points="39750,21690
39750,21310
40250,21310
40250,21690
39750,21690
" /> 
</g>
<g style="fill:#000000; fill-opacity:0.0; 
stroke:#000000; stroke-width:39.3701; stroke-opacity:1; 
stroke-linecap:round; stroke-linejoin:round;">
<polyline fill="none;"
points="46065,14537
46068,14537
46070,14538
46073,14539
46075,14540
46077,14541
46079,14543
46081,14544
46083,14546
46085,14547
46086,14550
46088,14552
46089,14554
46090,14556
46091,14559
46092,14561
46092,14564
46092,14566
46092,26771
46092,26774
46092,26776
46091,26779
46090,26781
46089,26783
46088,26786
46086,26788
46085,26790
46083,26792
46081,26794
46079,26795
46077,26797
46075,26798
46073,26799
46070,26799
46068,26800
46065,26800
46062,26801
13779,26801
13776,26800
13774,26800
13771,26799
13769,26799
13767,26798
13764,26797
13762,26795
13760,26794
13758,26792
13756,26790
13755,26788
13753,26786
13753,26783
13751,26781
13751,26779
13750,26776
13750,26774
13750,26771
13750,14566
13750,14564
13750,14561
13751,14559
13751,14556
13753,14554
13753,14552
13755,14550
13756,14547
13758,14546
13760,14544
13762,14543
13764,14541
13767,14540
13769,14539
13771,14538
13774,14537
13776,14537
13779,14537
46062,14537
46065,14537
" /> 
<polyline fill="none;"
points="13809,14596
13809,26742
46033,26742
46033,14596
13809,14596
" /> 
</g> 
</svg>
