G04 #@! TF.GenerationSoftware,KiCad,Pcbnew,5.0.2-bee76a0~70~ubuntu18.04.1*
G04 #@! TF.CreationDate,2020-02-17T10:07:03+01:00*
G04 #@! TF.ProjectId,RocketPCR,526f636b-6574-4504-9352-2e6b69636164,rev?*
G04 #@! TF.SameCoordinates,Original*
G04 #@! TF.FileFunction,Legend,Top*
G04 #@! TF.FilePolarity,Positive*
%FSLAX46Y46*%
G04 Gerber Fmt 4.6, Leading zero omitted, Abs format (unit mm)*
G04 Created by KiCad (PCBNEW 5.0.2-bee76a0~70~ubuntu18.04.1) date Mo 17 Feb 2020 10:07:03 CET*
%MOMM*%
%LPD*%
G01*
G04 APERTURE LIST*
%ADD10C,0.300000*%
%ADD11C,0.200000*%
%ADD12C,0.150000*%
%ADD13C,0.120000*%
%ADD14C,0.010000*%
G04 APERTURE END LIST*
D10*
X182928571Y-101867857D02*
X184142857Y-101867857D01*
X184285714Y-101796428D01*
X184357142Y-101725000D01*
X184428571Y-101582142D01*
X184428571Y-101296428D01*
X184357142Y-101153571D01*
X184285714Y-101082142D01*
X184142857Y-101010714D01*
X182928571Y-101010714D01*
X184357142Y-100367857D02*
X184428571Y-100153571D01*
X184428571Y-99796428D01*
X184357142Y-99653571D01*
X184285714Y-99582142D01*
X184142857Y-99510714D01*
X184000000Y-99510714D01*
X183857142Y-99582142D01*
X183785714Y-99653571D01*
X183714285Y-99796428D01*
X183642857Y-100082142D01*
X183571428Y-100225000D01*
X183500000Y-100296428D01*
X183357142Y-100367857D01*
X183214285Y-100367857D01*
X183071428Y-100296428D01*
X183000000Y-100225000D01*
X182928571Y-100082142D01*
X182928571Y-99725000D01*
X183000000Y-99510714D01*
X183642857Y-98367857D02*
X183714285Y-98153571D01*
X183785714Y-98082142D01*
X183928571Y-98010714D01*
X184142857Y-98010714D01*
X184285714Y-98082142D01*
X184357142Y-98153571D01*
X184428571Y-98296428D01*
X184428571Y-98867857D01*
X182928571Y-98867857D01*
X182928571Y-98367857D01*
X183000000Y-98225000D01*
X183071428Y-98153571D01*
X183214285Y-98082142D01*
X183357142Y-98082142D01*
X183500000Y-98153571D01*
X183571428Y-98225000D01*
X183642857Y-98367857D01*
X183642857Y-98867857D01*
X38588571Y-169700000D02*
X38445714Y-169628571D01*
X38231428Y-169628571D01*
X38017142Y-169700000D01*
X37874285Y-169842857D01*
X37802857Y-169985714D01*
X37731428Y-170271428D01*
X37731428Y-170485714D01*
X37802857Y-170771428D01*
X37874285Y-170914285D01*
X38017142Y-171057142D01*
X38231428Y-171128571D01*
X38374285Y-171128571D01*
X38588571Y-171057142D01*
X38660000Y-170985714D01*
X38660000Y-170485714D01*
X38374285Y-170485714D01*
X39945714Y-171128571D02*
X39945714Y-170342857D01*
X39874285Y-170200000D01*
X39731428Y-170128571D01*
X39445714Y-170128571D01*
X39302857Y-170200000D01*
X39945714Y-171057142D02*
X39802857Y-171128571D01*
X39445714Y-171128571D01*
X39302857Y-171057142D01*
X39231428Y-170914285D01*
X39231428Y-170771428D01*
X39302857Y-170628571D01*
X39445714Y-170557142D01*
X39802857Y-170557142D01*
X39945714Y-170485714D01*
X41302857Y-170128571D02*
X41302857Y-171128571D01*
X40660000Y-170128571D02*
X40660000Y-170914285D01*
X40731428Y-171057142D01*
X40874285Y-171128571D01*
X41088571Y-171128571D01*
X41231428Y-171057142D01*
X41302857Y-170985714D01*
X42660000Y-171128571D02*
X42660000Y-169628571D01*
X42660000Y-171057142D02*
X42517142Y-171128571D01*
X42231428Y-171128571D01*
X42088571Y-171057142D01*
X42017142Y-170985714D01*
X41945714Y-170842857D01*
X41945714Y-170414285D01*
X42017142Y-170271428D01*
X42088571Y-170200000D01*
X42231428Y-170128571D01*
X42517142Y-170128571D01*
X42660000Y-170200000D01*
X43374285Y-171128571D02*
X43374285Y-170128571D01*
X43374285Y-169628571D02*
X43302857Y-169700000D01*
X43374285Y-169771428D01*
X43445714Y-169700000D01*
X43374285Y-169628571D01*
X43374285Y-169771428D01*
X44802857Y-171128571D02*
X44088571Y-171128571D01*
X44088571Y-169628571D01*
X45945714Y-171128571D02*
X45945714Y-170342857D01*
X45874285Y-170200000D01*
X45731428Y-170128571D01*
X45445714Y-170128571D01*
X45302857Y-170200000D01*
X45945714Y-171057142D02*
X45802857Y-171128571D01*
X45445714Y-171128571D01*
X45302857Y-171057142D01*
X45231428Y-170914285D01*
X45231428Y-170771428D01*
X45302857Y-170628571D01*
X45445714Y-170557142D01*
X45802857Y-170557142D01*
X45945714Y-170485714D01*
X46660000Y-171128571D02*
X46660000Y-169628571D01*
X46660000Y-170200000D02*
X46802857Y-170128571D01*
X47088571Y-170128571D01*
X47231428Y-170200000D01*
X47302857Y-170271428D01*
X47374285Y-170414285D01*
X47374285Y-170842857D01*
X47302857Y-170985714D01*
X47231428Y-171057142D01*
X47088571Y-171128571D01*
X46802857Y-171128571D01*
X46660000Y-171057142D01*
X47945714Y-171057142D02*
X48088571Y-171128571D01*
X48374285Y-171128571D01*
X48517142Y-171057142D01*
X48588571Y-170914285D01*
X48588571Y-170842857D01*
X48517142Y-170700000D01*
X48374285Y-170628571D01*
X48160000Y-170628571D01*
X48017142Y-170557142D01*
X47945714Y-170414285D01*
X47945714Y-170342857D01*
X48017142Y-170200000D01*
X48160000Y-170128571D01*
X48374285Y-170128571D01*
X48517142Y-170200000D01*
D11*
X188622380Y-42802380D02*
X188955714Y-43802380D01*
X189289047Y-42802380D01*
X189527142Y-42802380D02*
X190146190Y-42802380D01*
X189812857Y-43183333D01*
X189955714Y-43183333D01*
X190050952Y-43230952D01*
X190098571Y-43278571D01*
X190146190Y-43373809D01*
X190146190Y-43611904D01*
X190098571Y-43707142D01*
X190050952Y-43754761D01*
X189955714Y-43802380D01*
X189670000Y-43802380D01*
X189574761Y-43754761D01*
X189527142Y-43707142D01*
X190574761Y-43707142D02*
X190622380Y-43754761D01*
X190574761Y-43802380D01*
X190527142Y-43754761D01*
X190574761Y-43707142D01*
X190574761Y-43802380D01*
X191003333Y-42897619D02*
X191050952Y-42850000D01*
X191146190Y-42802380D01*
X191384285Y-42802380D01*
X191479523Y-42850000D01*
X191527142Y-42897619D01*
X191574761Y-42992857D01*
X191574761Y-43088095D01*
X191527142Y-43230952D01*
X190955714Y-43802380D01*
X191574761Y-43802380D01*
X192050952Y-43754761D02*
X192050952Y-43802380D01*
X192003333Y-43897619D01*
X191955714Y-43945238D01*
X193193809Y-42897619D02*
X193241428Y-42850000D01*
X193336666Y-42802380D01*
X193574761Y-42802380D01*
X193670000Y-42850000D01*
X193717619Y-42897619D01*
X193765238Y-42992857D01*
X193765238Y-43088095D01*
X193717619Y-43230952D01*
X193146190Y-43802380D01*
X193765238Y-43802380D01*
X194384285Y-42802380D02*
X194479523Y-42802380D01*
X194574761Y-42850000D01*
X194622380Y-42897619D01*
X194670000Y-42992857D01*
X194717619Y-43183333D01*
X194717619Y-43421428D01*
X194670000Y-43611904D01*
X194622380Y-43707142D01*
X194574761Y-43754761D01*
X194479523Y-43802380D01*
X194384285Y-43802380D01*
X194289047Y-43754761D01*
X194241428Y-43707142D01*
X194193809Y-43611904D01*
X194146190Y-43421428D01*
X194146190Y-43183333D01*
X194193809Y-42992857D01*
X194241428Y-42897619D01*
X194289047Y-42850000D01*
X194384285Y-42802380D01*
X195670000Y-43802380D02*
X195098571Y-43802380D01*
X195384285Y-43802380D02*
X195384285Y-42802380D01*
X195289047Y-42945238D01*
X195193809Y-43040476D01*
X195098571Y-43088095D01*
X196241428Y-43230952D02*
X196146190Y-43183333D01*
X196098571Y-43135714D01*
X196050952Y-43040476D01*
X196050952Y-42992857D01*
X196098571Y-42897619D01*
X196146190Y-42850000D01*
X196241428Y-42802380D01*
X196431904Y-42802380D01*
X196527142Y-42850000D01*
X196574761Y-42897619D01*
X196622380Y-42992857D01*
X196622380Y-43040476D01*
X196574761Y-43135714D01*
X196527142Y-43183333D01*
X196431904Y-43230952D01*
X196241428Y-43230952D01*
X196146190Y-43278571D01*
X196098571Y-43326190D01*
X196050952Y-43421428D01*
X196050952Y-43611904D01*
X196098571Y-43707142D01*
X196146190Y-43754761D01*
X196241428Y-43802380D01*
X196431904Y-43802380D01*
X196527142Y-43754761D01*
X196574761Y-43707142D01*
X196622380Y-43611904D01*
X196622380Y-43421428D01*
X196574761Y-43326190D01*
X196527142Y-43278571D01*
X196431904Y-43230952D01*
D12*
G04 #@! TO.C,S1*
X153137000Y-90330000D02*
X151137000Y-90330000D01*
X153137000Y-90330000D02*
X153137000Y-92330000D01*
X153137000Y-109530000D02*
X153137000Y-107630000D01*
X153137000Y-109530000D02*
X151137000Y-109530000D01*
X126337000Y-109530000D02*
X128337000Y-109530000D01*
X126337000Y-109530000D02*
X126337000Y-107430000D01*
X126337000Y-90330000D02*
X126337000Y-92330000D01*
X126337000Y-90330000D02*
X128337000Y-90330000D01*
X132574200Y-101490000D02*
X132574200Y-105308000D01*
X130074200Y-104495200D02*
X131979200Y-104495200D01*
X131979200Y-104495200D02*
X131979200Y-105308000D01*
X131979200Y-105308000D02*
X147494800Y-105308000D01*
X147494800Y-105308000D02*
X147494800Y-104495200D01*
X147494800Y-104495200D02*
X149399800Y-104495200D01*
X146899800Y-105308000D02*
X146899800Y-101490000D01*
X148942600Y-104495200D02*
X148942600Y-105866800D01*
X147494800Y-105206400D02*
X148129800Y-105206400D01*
X148129800Y-104495200D02*
X148129800Y-105866800D01*
X131979200Y-105206400D02*
X131344200Y-105206400D01*
X130531400Y-104495200D02*
X130531400Y-105866800D01*
X131344200Y-104495200D02*
X131344200Y-105866800D01*
X129185200Y-106679600D02*
X129185200Y-105866800D01*
X129185200Y-105866800D02*
X131826800Y-105866800D01*
X131826800Y-105866800D02*
X131826800Y-106679600D01*
X129185200Y-106679600D02*
X150288800Y-106679600D01*
X150288800Y-106679600D02*
X150288800Y-105866800D01*
X150288800Y-105866800D02*
X147647200Y-105866800D01*
X147647200Y-105866800D02*
X147647200Y-106679600D01*
X132574200Y-101490000D02*
X146899800Y-101490000D01*
D13*
G04 #@! TO.C,SW1*
X165457000Y-100455000D02*
X165457000Y-99455000D01*
X164957000Y-99955000D02*
X165957000Y-99955000D01*
X168957000Y-93855000D02*
X171357000Y-93855000D01*
X164157000Y-93855000D02*
X166757000Y-93855000D01*
X159557000Y-93855000D02*
X161957000Y-93855000D01*
X161357000Y-107155000D02*
X161657000Y-107455000D01*
X161357000Y-107755000D02*
X161357000Y-107155000D01*
X161657000Y-107455000D02*
X161357000Y-107755000D01*
X159557000Y-106055000D02*
X171357000Y-106055000D01*
X159557000Y-101955000D02*
X159557000Y-106055000D01*
X171357000Y-101955000D02*
X171357000Y-106055000D01*
X171357000Y-93855000D02*
X171357000Y-97955000D01*
X159557000Y-97955000D02*
X159557000Y-93855000D01*
X168457000Y-99955000D02*
G75*
G03X168457000Y-99955000I-3000000J0D01*
G01*
D14*
G04 #@! TO.C,G\002A\002A\002A*
G36*
X120600901Y-100636237D02*
X120630480Y-100654198D01*
X120654208Y-100685504D01*
X120702546Y-100761366D01*
X120771507Y-100874814D01*
X120857106Y-101018875D01*
X120955356Y-101186576D01*
X121062271Y-101370945D01*
X121173864Y-101565010D01*
X121286151Y-101761798D01*
X121395143Y-101954336D01*
X121496856Y-102135653D01*
X121587303Y-102298777D01*
X121662497Y-102436733D01*
X121718453Y-102542551D01*
X121751184Y-102609258D01*
X121757540Y-102625569D01*
X121744805Y-102659129D01*
X121704505Y-102732142D01*
X121642540Y-102835552D01*
X121564812Y-102960304D01*
X121477220Y-103097343D01*
X121385664Y-103237612D01*
X121296046Y-103372056D01*
X121214266Y-103491619D01*
X121146225Y-103587246D01*
X121097822Y-103649881D01*
X121076803Y-103670319D01*
X121036610Y-103679468D01*
X120945730Y-103696572D01*
X120811677Y-103720332D01*
X120641966Y-103749449D01*
X120444110Y-103782623D01*
X120225625Y-103818554D01*
X120129018Y-103834236D01*
X119901296Y-103871086D01*
X119688505Y-103905575D01*
X119498676Y-103936398D01*
X119339841Y-103962248D01*
X119220031Y-103981820D01*
X119147276Y-103993807D01*
X119133515Y-103996123D01*
X119059738Y-104023690D01*
X119034362Y-104066451D01*
X119051871Y-104115802D01*
X119106752Y-104163137D01*
X119193491Y-104199852D01*
X119273777Y-104215006D01*
X119427793Y-104230858D01*
X119173838Y-104377322D01*
X119066599Y-104441130D01*
X118981755Y-104495344D01*
X118930269Y-104532740D01*
X118919884Y-104544615D01*
X118942113Y-104577976D01*
X118994508Y-104623623D01*
X119055629Y-104665376D01*
X119104038Y-104687060D01*
X119109358Y-104687587D01*
X119145210Y-104672900D01*
X119221585Y-104632397D01*
X119328976Y-104571412D01*
X119457881Y-104495281D01*
X119533303Y-104449619D01*
X119684019Y-104360177D01*
X119805403Y-104293004D01*
X119894211Y-104248880D01*
X119947202Y-104228583D01*
X119961133Y-104232895D01*
X119932763Y-104262593D01*
X119858848Y-104318457D01*
X119737152Y-104400613D01*
X119591888Y-104501769D01*
X119479617Y-104598186D01*
X119379531Y-104709176D01*
X119316558Y-104790952D01*
X119228587Y-104917937D01*
X119181533Y-105007828D01*
X119174519Y-105065079D01*
X119206666Y-105094140D01*
X119255562Y-105100116D01*
X119341200Y-105074647D01*
X119438390Y-105004522D01*
X119535261Y-104899160D01*
X119570779Y-104849975D01*
X119626790Y-104786886D01*
X119718096Y-104715204D01*
X119851687Y-104629919D01*
X119983956Y-104553949D01*
X120115618Y-104482900D01*
X120232665Y-104423902D01*
X120323635Y-104382439D01*
X120377067Y-104363997D01*
X120381752Y-104363546D01*
X120435791Y-104369022D01*
X120527592Y-104383469D01*
X120642808Y-104404066D01*
X120767092Y-104427990D01*
X120886096Y-104452418D01*
X120985474Y-104474529D01*
X121050877Y-104491499D01*
X121068634Y-104498672D01*
X121062471Y-104529597D01*
X121033612Y-104600917D01*
X120987072Y-104701013D01*
X120944927Y-104785354D01*
X120886296Y-104905454D01*
X120839856Y-105011754D01*
X120811566Y-105089961D01*
X120805731Y-105119266D01*
X120823343Y-105189652D01*
X120866038Y-105254437D01*
X120918607Y-105295673D01*
X120958342Y-105299352D01*
X120983690Y-105271379D01*
X121036576Y-105199141D01*
X121113208Y-105088289D01*
X121209793Y-104944471D01*
X121322538Y-104773338D01*
X121447649Y-104580539D01*
X121581333Y-104371723D01*
X121584993Y-104365968D01*
X121717957Y-104157314D01*
X121841271Y-103964716D01*
X121951313Y-103793761D01*
X122044463Y-103650034D01*
X122117100Y-103539123D01*
X122165603Y-103466612D01*
X122186351Y-103438088D01*
X122186551Y-103437942D01*
X122204038Y-103460665D01*
X122247100Y-103530227D01*
X122312970Y-103641795D01*
X122398883Y-103790537D01*
X122502072Y-103971620D01*
X122619771Y-104180213D01*
X122749212Y-104411483D01*
X122887631Y-104660598D01*
X122919942Y-104718998D01*
X123090958Y-105029098D01*
X123234745Y-105291941D01*
X123353115Y-105511553D01*
X123447881Y-105691958D01*
X123520855Y-105837179D01*
X123573850Y-105951241D01*
X123608679Y-106038168D01*
X123627153Y-106101985D01*
X123631086Y-106146714D01*
X123622291Y-106176382D01*
X123602578Y-106195011D01*
X123587892Y-106201952D01*
X123552409Y-106204459D01*
X123462835Y-106206736D01*
X123323985Y-106208787D01*
X123140673Y-106210611D01*
X122917713Y-106212209D01*
X122659921Y-106213584D01*
X122372112Y-106214737D01*
X122059098Y-106215668D01*
X121725697Y-106216380D01*
X121376721Y-106216872D01*
X121016986Y-106217148D01*
X120651306Y-106217208D01*
X120284496Y-106217052D01*
X119921370Y-106216684D01*
X119566744Y-106216103D01*
X119225431Y-106215312D01*
X118902247Y-106214311D01*
X118602006Y-106213102D01*
X118329523Y-106211686D01*
X118089612Y-106210064D01*
X117887088Y-106208238D01*
X117726765Y-106206209D01*
X117613459Y-106203978D01*
X117551984Y-106201547D01*
X117542332Y-106200322D01*
X117511123Y-106158761D01*
X117510575Y-106080712D01*
X117539658Y-105979373D01*
X117563677Y-105926653D01*
X117601874Y-105854276D01*
X117664728Y-105738280D01*
X117675342Y-105718909D01*
X118772552Y-105718909D01*
X118772552Y-106043551D01*
X120356369Y-106035929D01*
X121940186Y-106028306D01*
X121949092Y-105873608D01*
X121957999Y-105718909D01*
X118772552Y-105718909D01*
X117675342Y-105718909D01*
X117749879Y-105582876D01*
X117764699Y-105555995D01*
X119187749Y-105555995D01*
X119196516Y-105591350D01*
X119228988Y-105600848D01*
X119240248Y-105601044D01*
X119288013Y-105586430D01*
X119302817Y-105532727D01*
X119302947Y-105523489D01*
X119308495Y-105496099D01*
X119478996Y-105496099D01*
X119488771Y-105564363D01*
X119524958Y-105599312D01*
X119538678Y-105601044D01*
X119583116Y-105585787D01*
X119596657Y-105533608D01*
X119744942Y-105533608D01*
X119761494Y-105588091D01*
X119803875Y-105601044D01*
X119850289Y-105583541D01*
X119851982Y-105576064D01*
X120045120Y-105576064D01*
X120072250Y-105598540D01*
X120098538Y-105601044D01*
X120144976Y-105583514D01*
X120148417Y-105568326D01*
X120339333Y-105568326D01*
X120345506Y-105594017D01*
X120369018Y-105600791D01*
X120386769Y-105601044D01*
X120429769Y-105577959D01*
X120441782Y-105554140D01*
X120634348Y-105554140D01*
X120641954Y-105590567D01*
X120672394Y-105600758D01*
X120685275Y-105601044D01*
X120723781Y-105593006D01*
X120731546Y-105578282D01*
X121194248Y-105578282D01*
X121216922Y-105599229D01*
X121242486Y-105601044D01*
X121283654Y-105589117D01*
X121308256Y-105543787D01*
X121320909Y-105480358D01*
X121453991Y-105480358D01*
X121458643Y-105558516D01*
X121477677Y-105593575D01*
X121513485Y-105601044D01*
X121555539Y-105590221D01*
X121558990Y-105546955D01*
X121555193Y-105530178D01*
X121560894Y-105441130D01*
X121604645Y-105342484D01*
X121645449Y-105261996D01*
X121656266Y-105199255D01*
X121641371Y-105124059D01*
X121637458Y-105110754D01*
X121593350Y-104992971D01*
X121547175Y-104922037D01*
X121502605Y-104902535D01*
X121480525Y-104914974D01*
X121462337Y-104950399D01*
X121471908Y-105006055D01*
X121498563Y-105071475D01*
X121530639Y-105149521D01*
X121536981Y-105200520D01*
X121518206Y-105250139D01*
X121503479Y-105275897D01*
X121470682Y-105361916D01*
X121454387Y-105464435D01*
X121453991Y-105480358D01*
X121320909Y-105480358D01*
X121321816Y-105475812D01*
X121332343Y-105361724D01*
X121331116Y-105254765D01*
X121319462Y-105170672D01*
X121298711Y-105125178D01*
X121291926Y-105121600D01*
X121272689Y-105144273D01*
X121253776Y-105209870D01*
X121242903Y-105276914D01*
X121227871Y-105384905D01*
X121211127Y-105481346D01*
X121202635Y-105520011D01*
X121194248Y-105578282D01*
X120731546Y-105578282D01*
X120741878Y-105558693D01*
X120746759Y-105482808D01*
X120746798Y-105470184D01*
X120741128Y-105387240D01*
X120726846Y-105331966D01*
X120719368Y-105322372D01*
X120692797Y-105316886D01*
X120672777Y-105345742D01*
X120654571Y-105418643D01*
X120644475Y-105475812D01*
X120634348Y-105554140D01*
X120441782Y-105554140D01*
X120466854Y-105504434D01*
X120478400Y-105468515D01*
X120500192Y-105351437D01*
X120500867Y-105239319D01*
X120498911Y-105225417D01*
X120484185Y-105124458D01*
X120473915Y-105030719D01*
X120473579Y-105026450D01*
X120454907Y-104957825D01*
X120422668Y-104938051D01*
X120391707Y-104963740D01*
X120372094Y-105026985D01*
X120366484Y-105107055D01*
X120377529Y-105183219D01*
X120387935Y-105209367D01*
X120398641Y-105284380D01*
X120377579Y-105404322D01*
X120376207Y-105409513D01*
X120349799Y-105511048D01*
X120339333Y-105568326D01*
X120148417Y-105568326D01*
X120157471Y-105528378D01*
X120170249Y-105452013D01*
X120201349Y-105363882D01*
X120204721Y-105356626D01*
X120232910Y-105275082D01*
X120237101Y-105184239D01*
X120226821Y-105099536D01*
X120208073Y-105013380D01*
X120186310Y-104958143D01*
X120172204Y-104946553D01*
X120154334Y-104976104D01*
X120136917Y-105048194D01*
X120124946Y-105136344D01*
X120109651Y-105254444D01*
X120088868Y-105365203D01*
X120073380Y-105424051D01*
X120045999Y-105521438D01*
X120045120Y-105576064D01*
X119851982Y-105576064D01*
X119862808Y-105528274D01*
X119877194Y-105455147D01*
X119912704Y-105367528D01*
X119921740Y-105350580D01*
X119973558Y-105214537D01*
X119970555Y-105091245D01*
X119949728Y-105038421D01*
X119913736Y-104997161D01*
X119884040Y-105009556D01*
X119865925Y-105070335D01*
X119862808Y-105125091D01*
X119848671Y-105224029D01*
X119813700Y-105329771D01*
X119803875Y-105350580D01*
X119766783Y-105438464D01*
X119746335Y-105516317D01*
X119744942Y-105533608D01*
X119596657Y-105533608D01*
X119597432Y-105530624D01*
X119597610Y-105519201D01*
X119612009Y-105435208D01*
X119637339Y-105379236D01*
X119678229Y-105295073D01*
X119697472Y-105205394D01*
X119692162Y-105131688D01*
X119674681Y-105102942D01*
X119629027Y-105086123D01*
X119602494Y-105122700D01*
X119597416Y-105171326D01*
X119581370Y-105237322D01*
X119542605Y-105315047D01*
X119538678Y-105321113D01*
X119495631Y-105409891D01*
X119478996Y-105496099D01*
X119308495Y-105496099D01*
X119318488Y-105446770D01*
X119356628Y-105359636D01*
X119363951Y-105347229D01*
X119402020Y-105264531D01*
X119401115Y-105208686D01*
X119362147Y-105188515D01*
X119320845Y-105214041D01*
X119273660Y-105279113D01*
X119230401Y-105366472D01*
X119200880Y-105458859D01*
X119197079Y-105478914D01*
X119187749Y-105555995D01*
X117764699Y-105555995D01*
X117854969Y-105392272D01*
X117977638Y-105170677D01*
X118115528Y-104922300D01*
X118266280Y-104651349D01*
X118427534Y-104362034D01*
X118596932Y-104058563D01*
X118772115Y-103745145D01*
X118950723Y-103425990D01*
X119130398Y-103105306D01*
X119308780Y-102787301D01*
X119483511Y-102476185D01*
X119652232Y-102176168D01*
X119812583Y-101891456D01*
X119962206Y-101626260D01*
X120098742Y-101384789D01*
X120219831Y-101171250D01*
X120323115Y-100989854D01*
X120406234Y-100844808D01*
X120466830Y-100740323D01*
X120502544Y-100680606D01*
X120511040Y-100668023D01*
X120558027Y-100630429D01*
X120600901Y-100636237D01*
X120600901Y-100636237D01*
G37*
X120600901Y-100636237D02*
X120630480Y-100654198D01*
X120654208Y-100685504D01*
X120702546Y-100761366D01*
X120771507Y-100874814D01*
X120857106Y-101018875D01*
X120955356Y-101186576D01*
X121062271Y-101370945D01*
X121173864Y-101565010D01*
X121286151Y-101761798D01*
X121395143Y-101954336D01*
X121496856Y-102135653D01*
X121587303Y-102298777D01*
X121662497Y-102436733D01*
X121718453Y-102542551D01*
X121751184Y-102609258D01*
X121757540Y-102625569D01*
X121744805Y-102659129D01*
X121704505Y-102732142D01*
X121642540Y-102835552D01*
X121564812Y-102960304D01*
X121477220Y-103097343D01*
X121385664Y-103237612D01*
X121296046Y-103372056D01*
X121214266Y-103491619D01*
X121146225Y-103587246D01*
X121097822Y-103649881D01*
X121076803Y-103670319D01*
X121036610Y-103679468D01*
X120945730Y-103696572D01*
X120811677Y-103720332D01*
X120641966Y-103749449D01*
X120444110Y-103782623D01*
X120225625Y-103818554D01*
X120129018Y-103834236D01*
X119901296Y-103871086D01*
X119688505Y-103905575D01*
X119498676Y-103936398D01*
X119339841Y-103962248D01*
X119220031Y-103981820D01*
X119147276Y-103993807D01*
X119133515Y-103996123D01*
X119059738Y-104023690D01*
X119034362Y-104066451D01*
X119051871Y-104115802D01*
X119106752Y-104163137D01*
X119193491Y-104199852D01*
X119273777Y-104215006D01*
X119427793Y-104230858D01*
X119173838Y-104377322D01*
X119066599Y-104441130D01*
X118981755Y-104495344D01*
X118930269Y-104532740D01*
X118919884Y-104544615D01*
X118942113Y-104577976D01*
X118994508Y-104623623D01*
X119055629Y-104665376D01*
X119104038Y-104687060D01*
X119109358Y-104687587D01*
X119145210Y-104672900D01*
X119221585Y-104632397D01*
X119328976Y-104571412D01*
X119457881Y-104495281D01*
X119533303Y-104449619D01*
X119684019Y-104360177D01*
X119805403Y-104293004D01*
X119894211Y-104248880D01*
X119947202Y-104228583D01*
X119961133Y-104232895D01*
X119932763Y-104262593D01*
X119858848Y-104318457D01*
X119737152Y-104400613D01*
X119591888Y-104501769D01*
X119479617Y-104598186D01*
X119379531Y-104709176D01*
X119316558Y-104790952D01*
X119228587Y-104917937D01*
X119181533Y-105007828D01*
X119174519Y-105065079D01*
X119206666Y-105094140D01*
X119255562Y-105100116D01*
X119341200Y-105074647D01*
X119438390Y-105004522D01*
X119535261Y-104899160D01*
X119570779Y-104849975D01*
X119626790Y-104786886D01*
X119718096Y-104715204D01*
X119851687Y-104629919D01*
X119983956Y-104553949D01*
X120115618Y-104482900D01*
X120232665Y-104423902D01*
X120323635Y-104382439D01*
X120377067Y-104363997D01*
X120381752Y-104363546D01*
X120435791Y-104369022D01*
X120527592Y-104383469D01*
X120642808Y-104404066D01*
X120767092Y-104427990D01*
X120886096Y-104452418D01*
X120985474Y-104474529D01*
X121050877Y-104491499D01*
X121068634Y-104498672D01*
X121062471Y-104529597D01*
X121033612Y-104600917D01*
X120987072Y-104701013D01*
X120944927Y-104785354D01*
X120886296Y-104905454D01*
X120839856Y-105011754D01*
X120811566Y-105089961D01*
X120805731Y-105119266D01*
X120823343Y-105189652D01*
X120866038Y-105254437D01*
X120918607Y-105295673D01*
X120958342Y-105299352D01*
X120983690Y-105271379D01*
X121036576Y-105199141D01*
X121113208Y-105088289D01*
X121209793Y-104944471D01*
X121322538Y-104773338D01*
X121447649Y-104580539D01*
X121581333Y-104371723D01*
X121584993Y-104365968D01*
X121717957Y-104157314D01*
X121841271Y-103964716D01*
X121951313Y-103793761D01*
X122044463Y-103650034D01*
X122117100Y-103539123D01*
X122165603Y-103466612D01*
X122186351Y-103438088D01*
X122186551Y-103437942D01*
X122204038Y-103460665D01*
X122247100Y-103530227D01*
X122312970Y-103641795D01*
X122398883Y-103790537D01*
X122502072Y-103971620D01*
X122619771Y-104180213D01*
X122749212Y-104411483D01*
X122887631Y-104660598D01*
X122919942Y-104718998D01*
X123090958Y-105029098D01*
X123234745Y-105291941D01*
X123353115Y-105511553D01*
X123447881Y-105691958D01*
X123520855Y-105837179D01*
X123573850Y-105951241D01*
X123608679Y-106038168D01*
X123627153Y-106101985D01*
X123631086Y-106146714D01*
X123622291Y-106176382D01*
X123602578Y-106195011D01*
X123587892Y-106201952D01*
X123552409Y-106204459D01*
X123462835Y-106206736D01*
X123323985Y-106208787D01*
X123140673Y-106210611D01*
X122917713Y-106212209D01*
X122659921Y-106213584D01*
X122372112Y-106214737D01*
X122059098Y-106215668D01*
X121725697Y-106216380D01*
X121376721Y-106216872D01*
X121016986Y-106217148D01*
X120651306Y-106217208D01*
X120284496Y-106217052D01*
X119921370Y-106216684D01*
X119566744Y-106216103D01*
X119225431Y-106215312D01*
X118902247Y-106214311D01*
X118602006Y-106213102D01*
X118329523Y-106211686D01*
X118089612Y-106210064D01*
X117887088Y-106208238D01*
X117726765Y-106206209D01*
X117613459Y-106203978D01*
X117551984Y-106201547D01*
X117542332Y-106200322D01*
X117511123Y-106158761D01*
X117510575Y-106080712D01*
X117539658Y-105979373D01*
X117563677Y-105926653D01*
X117601874Y-105854276D01*
X117664728Y-105738280D01*
X117675342Y-105718909D01*
X118772552Y-105718909D01*
X118772552Y-106043551D01*
X120356369Y-106035929D01*
X121940186Y-106028306D01*
X121949092Y-105873608D01*
X121957999Y-105718909D01*
X118772552Y-105718909D01*
X117675342Y-105718909D01*
X117749879Y-105582876D01*
X117764699Y-105555995D01*
X119187749Y-105555995D01*
X119196516Y-105591350D01*
X119228988Y-105600848D01*
X119240248Y-105601044D01*
X119288013Y-105586430D01*
X119302817Y-105532727D01*
X119302947Y-105523489D01*
X119308495Y-105496099D01*
X119478996Y-105496099D01*
X119488771Y-105564363D01*
X119524958Y-105599312D01*
X119538678Y-105601044D01*
X119583116Y-105585787D01*
X119596657Y-105533608D01*
X119744942Y-105533608D01*
X119761494Y-105588091D01*
X119803875Y-105601044D01*
X119850289Y-105583541D01*
X119851982Y-105576064D01*
X120045120Y-105576064D01*
X120072250Y-105598540D01*
X120098538Y-105601044D01*
X120144976Y-105583514D01*
X120148417Y-105568326D01*
X120339333Y-105568326D01*
X120345506Y-105594017D01*
X120369018Y-105600791D01*
X120386769Y-105601044D01*
X120429769Y-105577959D01*
X120441782Y-105554140D01*
X120634348Y-105554140D01*
X120641954Y-105590567D01*
X120672394Y-105600758D01*
X120685275Y-105601044D01*
X120723781Y-105593006D01*
X120731546Y-105578282D01*
X121194248Y-105578282D01*
X121216922Y-105599229D01*
X121242486Y-105601044D01*
X121283654Y-105589117D01*
X121308256Y-105543787D01*
X121320909Y-105480358D01*
X121453991Y-105480358D01*
X121458643Y-105558516D01*
X121477677Y-105593575D01*
X121513485Y-105601044D01*
X121555539Y-105590221D01*
X121558990Y-105546955D01*
X121555193Y-105530178D01*
X121560894Y-105441130D01*
X121604645Y-105342484D01*
X121645449Y-105261996D01*
X121656266Y-105199255D01*
X121641371Y-105124059D01*
X121637458Y-105110754D01*
X121593350Y-104992971D01*
X121547175Y-104922037D01*
X121502605Y-104902535D01*
X121480525Y-104914974D01*
X121462337Y-104950399D01*
X121471908Y-105006055D01*
X121498563Y-105071475D01*
X121530639Y-105149521D01*
X121536981Y-105200520D01*
X121518206Y-105250139D01*
X121503479Y-105275897D01*
X121470682Y-105361916D01*
X121454387Y-105464435D01*
X121453991Y-105480358D01*
X121320909Y-105480358D01*
X121321816Y-105475812D01*
X121332343Y-105361724D01*
X121331116Y-105254765D01*
X121319462Y-105170672D01*
X121298711Y-105125178D01*
X121291926Y-105121600D01*
X121272689Y-105144273D01*
X121253776Y-105209870D01*
X121242903Y-105276914D01*
X121227871Y-105384905D01*
X121211127Y-105481346D01*
X121202635Y-105520011D01*
X121194248Y-105578282D01*
X120731546Y-105578282D01*
X120741878Y-105558693D01*
X120746759Y-105482808D01*
X120746798Y-105470184D01*
X120741128Y-105387240D01*
X120726846Y-105331966D01*
X120719368Y-105322372D01*
X120692797Y-105316886D01*
X120672777Y-105345742D01*
X120654571Y-105418643D01*
X120644475Y-105475812D01*
X120634348Y-105554140D01*
X120441782Y-105554140D01*
X120466854Y-105504434D01*
X120478400Y-105468515D01*
X120500192Y-105351437D01*
X120500867Y-105239319D01*
X120498911Y-105225417D01*
X120484185Y-105124458D01*
X120473915Y-105030719D01*
X120473579Y-105026450D01*
X120454907Y-104957825D01*
X120422668Y-104938051D01*
X120391707Y-104963740D01*
X120372094Y-105026985D01*
X120366484Y-105107055D01*
X120377529Y-105183219D01*
X120387935Y-105209367D01*
X120398641Y-105284380D01*
X120377579Y-105404322D01*
X120376207Y-105409513D01*
X120349799Y-105511048D01*
X120339333Y-105568326D01*
X120148417Y-105568326D01*
X120157471Y-105528378D01*
X120170249Y-105452013D01*
X120201349Y-105363882D01*
X120204721Y-105356626D01*
X120232910Y-105275082D01*
X120237101Y-105184239D01*
X120226821Y-105099536D01*
X120208073Y-105013380D01*
X120186310Y-104958143D01*
X120172204Y-104946553D01*
X120154334Y-104976104D01*
X120136917Y-105048194D01*
X120124946Y-105136344D01*
X120109651Y-105254444D01*
X120088868Y-105365203D01*
X120073380Y-105424051D01*
X120045999Y-105521438D01*
X120045120Y-105576064D01*
X119851982Y-105576064D01*
X119862808Y-105528274D01*
X119877194Y-105455147D01*
X119912704Y-105367528D01*
X119921740Y-105350580D01*
X119973558Y-105214537D01*
X119970555Y-105091245D01*
X119949728Y-105038421D01*
X119913736Y-104997161D01*
X119884040Y-105009556D01*
X119865925Y-105070335D01*
X119862808Y-105125091D01*
X119848671Y-105224029D01*
X119813700Y-105329771D01*
X119803875Y-105350580D01*
X119766783Y-105438464D01*
X119746335Y-105516317D01*
X119744942Y-105533608D01*
X119596657Y-105533608D01*
X119597432Y-105530624D01*
X119597610Y-105519201D01*
X119612009Y-105435208D01*
X119637339Y-105379236D01*
X119678229Y-105295073D01*
X119697472Y-105205394D01*
X119692162Y-105131688D01*
X119674681Y-105102942D01*
X119629027Y-105086123D01*
X119602494Y-105122700D01*
X119597416Y-105171326D01*
X119581370Y-105237322D01*
X119542605Y-105315047D01*
X119538678Y-105321113D01*
X119495631Y-105409891D01*
X119478996Y-105496099D01*
X119308495Y-105496099D01*
X119318488Y-105446770D01*
X119356628Y-105359636D01*
X119363951Y-105347229D01*
X119402020Y-105264531D01*
X119401115Y-105208686D01*
X119362147Y-105188515D01*
X119320845Y-105214041D01*
X119273660Y-105279113D01*
X119230401Y-105366472D01*
X119200880Y-105458859D01*
X119197079Y-105478914D01*
X119187749Y-105555995D01*
X117764699Y-105555995D01*
X117854969Y-105392272D01*
X117977638Y-105170677D01*
X118115528Y-104922300D01*
X118266280Y-104651349D01*
X118427534Y-104362034D01*
X118596932Y-104058563D01*
X118772115Y-103745145D01*
X118950723Y-103425990D01*
X119130398Y-103105306D01*
X119308780Y-102787301D01*
X119483511Y-102476185D01*
X119652232Y-102176168D01*
X119812583Y-101891456D01*
X119962206Y-101626260D01*
X120098742Y-101384789D01*
X120219831Y-101171250D01*
X120323115Y-100989854D01*
X120406234Y-100844808D01*
X120466830Y-100740323D01*
X120502544Y-100680606D01*
X120511040Y-100668023D01*
X120558027Y-100630429D01*
X120600901Y-100636237D01*
G36*
X120722135Y-99933997D02*
X120812683Y-99954707D01*
X120860570Y-99968562D01*
X120904264Y-99982605D01*
X120945585Y-99999671D01*
X120986349Y-100022595D01*
X121028374Y-100054212D01*
X121073477Y-100097358D01*
X121123476Y-100154867D01*
X121180189Y-100229575D01*
X121245432Y-100324317D01*
X121321024Y-100441928D01*
X121408781Y-100585243D01*
X121510522Y-100757098D01*
X121628064Y-100960327D01*
X121763224Y-101197765D01*
X121917819Y-101472249D01*
X122093669Y-101786612D01*
X122292589Y-102143691D01*
X122516397Y-102546320D01*
X122766912Y-102997334D01*
X122791079Y-103040844D01*
X123076864Y-103556171D01*
X123334549Y-104022547D01*
X123564007Y-104439735D01*
X123765110Y-104807499D01*
X123937731Y-105125601D01*
X124081742Y-105393805D01*
X124197014Y-105611873D01*
X124283421Y-105779570D01*
X124340834Y-105896657D01*
X124369126Y-105962898D01*
X124371671Y-105971652D01*
X124386793Y-106161234D01*
X124352909Y-106349873D01*
X124276701Y-106527695D01*
X124164856Y-106684822D01*
X124024056Y-106811379D01*
X123860988Y-106897489D01*
X123722900Y-106930195D01*
X123679919Y-106931623D01*
X123581979Y-106932732D01*
X123433049Y-106933523D01*
X123237103Y-106934002D01*
X122998112Y-106934173D01*
X122720047Y-106934038D01*
X122406881Y-106933601D01*
X122062585Y-106932868D01*
X121691131Y-106931841D01*
X121296490Y-106930524D01*
X120882634Y-106928921D01*
X120453535Y-106927036D01*
X120452135Y-106927030D01*
X119944567Y-106924776D01*
X119492541Y-106922855D01*
X119092667Y-106921046D01*
X118741557Y-106919127D01*
X118435821Y-106916877D01*
X118172071Y-106914074D01*
X117946918Y-106910496D01*
X117756973Y-106905921D01*
X117598848Y-106900128D01*
X117469152Y-106892895D01*
X117364498Y-106884001D01*
X117281496Y-106873223D01*
X117216759Y-106860340D01*
X117166896Y-106845129D01*
X117128519Y-106827371D01*
X117098239Y-106806842D01*
X117072667Y-106783321D01*
X117048415Y-106756587D01*
X117022093Y-106726417D01*
X116998658Y-106701094D01*
X116882126Y-106545242D01*
X116802173Y-106364479D01*
X116762065Y-106173513D01*
X116762653Y-106136986D01*
X117068048Y-106136986D01*
X117099807Y-106303031D01*
X117181316Y-106446379D01*
X117310785Y-106561328D01*
X117431833Y-106622966D01*
X117462307Y-106628891D01*
X117523457Y-106634114D01*
X117617748Y-106638660D01*
X117747644Y-106642550D01*
X117915611Y-106645809D01*
X118124115Y-106648458D01*
X118375620Y-106650520D01*
X118672591Y-106652018D01*
X119017494Y-106652976D01*
X119412794Y-106653415D01*
X119860956Y-106653359D01*
X120364446Y-106652830D01*
X120616360Y-106652433D01*
X123712488Y-106647100D01*
X123837873Y-106564118D01*
X123959871Y-106449892D01*
X124040131Y-106302731D01*
X124074981Y-106134693D01*
X124060749Y-105957833D01*
X124042364Y-105892738D01*
X124023221Y-105852468D01*
X123977730Y-105764939D01*
X123908223Y-105634377D01*
X123817031Y-105465007D01*
X123706486Y-105261053D01*
X123578920Y-105026741D01*
X123436666Y-104766295D01*
X123282054Y-104483939D01*
X123117418Y-104183900D01*
X122945088Y-103870401D01*
X122767397Y-103547668D01*
X122586678Y-103219925D01*
X122405260Y-102891397D01*
X122225478Y-102566310D01*
X122049662Y-102248887D01*
X121880145Y-101943354D01*
X121719258Y-101653936D01*
X121569333Y-101384858D01*
X121432703Y-101140343D01*
X121311699Y-100924618D01*
X121208653Y-100741907D01*
X121125897Y-100596435D01*
X121065764Y-100492427D01*
X121030584Y-100434108D01*
X121024487Y-100425125D01*
X120896029Y-100298092D01*
X120747164Y-100221507D01*
X120587948Y-100195372D01*
X120428438Y-100219685D01*
X120278689Y-100294447D01*
X120148758Y-100419658D01*
X120144563Y-100425125D01*
X120122417Y-100461012D01*
X120074010Y-100544178D01*
X120001709Y-100670391D01*
X119907881Y-100835418D01*
X119794894Y-101035026D01*
X119665115Y-101264984D01*
X119520911Y-101521058D01*
X119364650Y-101799016D01*
X119198699Y-102094625D01*
X119025425Y-102403653D01*
X118847196Y-102721867D01*
X118666379Y-103045035D01*
X118485340Y-103368923D01*
X118306449Y-103689300D01*
X118132071Y-104001933D01*
X117964574Y-104302589D01*
X117806326Y-104587036D01*
X117659694Y-104851040D01*
X117527044Y-105090371D01*
X117410746Y-105300794D01*
X117313164Y-105478078D01*
X117236668Y-105617989D01*
X117183624Y-105716296D01*
X117160938Y-105759621D01*
X117087828Y-105953948D01*
X117068048Y-106136986D01*
X116762653Y-106136986D01*
X116765071Y-105987053D01*
X116806669Y-105836775D01*
X116832138Y-105785943D01*
X116883979Y-105688933D01*
X116959868Y-105549859D01*
X117057480Y-105372834D01*
X117174490Y-105161971D01*
X117308574Y-104921385D01*
X117457406Y-104655187D01*
X117618662Y-104367493D01*
X117790018Y-104062415D01*
X117969147Y-103744066D01*
X118153727Y-103416561D01*
X118341432Y-103084013D01*
X118529936Y-102750535D01*
X118716917Y-102420241D01*
X118900047Y-102097244D01*
X119077004Y-101785657D01*
X119245462Y-101489595D01*
X119403096Y-101213170D01*
X119547582Y-100960497D01*
X119676595Y-100735688D01*
X119787810Y-100542857D01*
X119878903Y-100386117D01*
X119947548Y-100269582D01*
X119991420Y-100197366D01*
X120006440Y-100175031D01*
X120149086Y-100049047D01*
X120324210Y-99964614D01*
X120519373Y-99925131D01*
X120722135Y-99933997D01*
X120722135Y-99933997D01*
G37*
X120722135Y-99933997D02*
X120812683Y-99954707D01*
X120860570Y-99968562D01*
X120904264Y-99982605D01*
X120945585Y-99999671D01*
X120986349Y-100022595D01*
X121028374Y-100054212D01*
X121073477Y-100097358D01*
X121123476Y-100154867D01*
X121180189Y-100229575D01*
X121245432Y-100324317D01*
X121321024Y-100441928D01*
X121408781Y-100585243D01*
X121510522Y-100757098D01*
X121628064Y-100960327D01*
X121763224Y-101197765D01*
X121917819Y-101472249D01*
X122093669Y-101786612D01*
X122292589Y-102143691D01*
X122516397Y-102546320D01*
X122766912Y-102997334D01*
X122791079Y-103040844D01*
X123076864Y-103556171D01*
X123334549Y-104022547D01*
X123564007Y-104439735D01*
X123765110Y-104807499D01*
X123937731Y-105125601D01*
X124081742Y-105393805D01*
X124197014Y-105611873D01*
X124283421Y-105779570D01*
X124340834Y-105896657D01*
X124369126Y-105962898D01*
X124371671Y-105971652D01*
X124386793Y-106161234D01*
X124352909Y-106349873D01*
X124276701Y-106527695D01*
X124164856Y-106684822D01*
X124024056Y-106811379D01*
X123860988Y-106897489D01*
X123722900Y-106930195D01*
X123679919Y-106931623D01*
X123581979Y-106932732D01*
X123433049Y-106933523D01*
X123237103Y-106934002D01*
X122998112Y-106934173D01*
X122720047Y-106934038D01*
X122406881Y-106933601D01*
X122062585Y-106932868D01*
X121691131Y-106931841D01*
X121296490Y-106930524D01*
X120882634Y-106928921D01*
X120453535Y-106927036D01*
X120452135Y-106927030D01*
X119944567Y-106924776D01*
X119492541Y-106922855D01*
X119092667Y-106921046D01*
X118741557Y-106919127D01*
X118435821Y-106916877D01*
X118172071Y-106914074D01*
X117946918Y-106910496D01*
X117756973Y-106905921D01*
X117598848Y-106900128D01*
X117469152Y-106892895D01*
X117364498Y-106884001D01*
X117281496Y-106873223D01*
X117216759Y-106860340D01*
X117166896Y-106845129D01*
X117128519Y-106827371D01*
X117098239Y-106806842D01*
X117072667Y-106783321D01*
X117048415Y-106756587D01*
X117022093Y-106726417D01*
X116998658Y-106701094D01*
X116882126Y-106545242D01*
X116802173Y-106364479D01*
X116762065Y-106173513D01*
X116762653Y-106136986D01*
X117068048Y-106136986D01*
X117099807Y-106303031D01*
X117181316Y-106446379D01*
X117310785Y-106561328D01*
X117431833Y-106622966D01*
X117462307Y-106628891D01*
X117523457Y-106634114D01*
X117617748Y-106638660D01*
X117747644Y-106642550D01*
X117915611Y-106645809D01*
X118124115Y-106648458D01*
X118375620Y-106650520D01*
X118672591Y-106652018D01*
X119017494Y-106652976D01*
X119412794Y-106653415D01*
X119860956Y-106653359D01*
X120364446Y-106652830D01*
X120616360Y-106652433D01*
X123712488Y-106647100D01*
X123837873Y-106564118D01*
X123959871Y-106449892D01*
X124040131Y-106302731D01*
X124074981Y-106134693D01*
X124060749Y-105957833D01*
X124042364Y-105892738D01*
X124023221Y-105852468D01*
X123977730Y-105764939D01*
X123908223Y-105634377D01*
X123817031Y-105465007D01*
X123706486Y-105261053D01*
X123578920Y-105026741D01*
X123436666Y-104766295D01*
X123282054Y-104483939D01*
X123117418Y-104183900D01*
X122945088Y-103870401D01*
X122767397Y-103547668D01*
X122586678Y-103219925D01*
X122405260Y-102891397D01*
X122225478Y-102566310D01*
X122049662Y-102248887D01*
X121880145Y-101943354D01*
X121719258Y-101653936D01*
X121569333Y-101384858D01*
X121432703Y-101140343D01*
X121311699Y-100924618D01*
X121208653Y-100741907D01*
X121125897Y-100596435D01*
X121065764Y-100492427D01*
X121030584Y-100434108D01*
X121024487Y-100425125D01*
X120896029Y-100298092D01*
X120747164Y-100221507D01*
X120587948Y-100195372D01*
X120428438Y-100219685D01*
X120278689Y-100294447D01*
X120148758Y-100419658D01*
X120144563Y-100425125D01*
X120122417Y-100461012D01*
X120074010Y-100544178D01*
X120001709Y-100670391D01*
X119907881Y-100835418D01*
X119794894Y-101035026D01*
X119665115Y-101264984D01*
X119520911Y-101521058D01*
X119364650Y-101799016D01*
X119198699Y-102094625D01*
X119025425Y-102403653D01*
X118847196Y-102721867D01*
X118666379Y-103045035D01*
X118485340Y-103368923D01*
X118306449Y-103689300D01*
X118132071Y-104001933D01*
X117964574Y-104302589D01*
X117806326Y-104587036D01*
X117659694Y-104851040D01*
X117527044Y-105090371D01*
X117410746Y-105300794D01*
X117313164Y-105478078D01*
X117236668Y-105617989D01*
X117183624Y-105716296D01*
X117160938Y-105759621D01*
X117087828Y-105953948D01*
X117068048Y-106136986D01*
X116762653Y-106136986D01*
X116765071Y-105987053D01*
X116806669Y-105836775D01*
X116832138Y-105785943D01*
X116883979Y-105688933D01*
X116959868Y-105549859D01*
X117057480Y-105372834D01*
X117174490Y-105161971D01*
X117308574Y-104921385D01*
X117457406Y-104655187D01*
X117618662Y-104367493D01*
X117790018Y-104062415D01*
X117969147Y-103744066D01*
X118153727Y-103416561D01*
X118341432Y-103084013D01*
X118529936Y-102750535D01*
X118716917Y-102420241D01*
X118900047Y-102097244D01*
X119077004Y-101785657D01*
X119245462Y-101489595D01*
X119403096Y-101213170D01*
X119547582Y-100960497D01*
X119676595Y-100735688D01*
X119787810Y-100542857D01*
X119878903Y-100386117D01*
X119947548Y-100269582D01*
X119991420Y-100197366D01*
X120006440Y-100175031D01*
X120149086Y-100049047D01*
X120324210Y-99964614D01*
X120519373Y-99925131D01*
X120722135Y-99933997D01*
G04 #@! TO.C,S1*
D12*
X138975095Y-102918761D02*
X139117952Y-102966380D01*
X139356047Y-102966380D01*
X139451285Y-102918761D01*
X139498904Y-102871142D01*
X139546523Y-102775904D01*
X139546523Y-102680666D01*
X139498904Y-102585428D01*
X139451285Y-102537809D01*
X139356047Y-102490190D01*
X139165571Y-102442571D01*
X139070333Y-102394952D01*
X139022714Y-102347333D01*
X138975095Y-102252095D01*
X138975095Y-102156857D01*
X139022714Y-102061619D01*
X139070333Y-102014000D01*
X139165571Y-101966380D01*
X139403666Y-101966380D01*
X139546523Y-102014000D01*
X140498904Y-102966380D02*
X139927476Y-102966380D01*
X140213190Y-102966380D02*
X140213190Y-101966380D01*
X140117952Y-102109238D01*
X140022714Y-102204476D01*
X139927476Y-102252095D01*
G04 #@! TO.C,SW1*
X158661761Y-105988333D02*
X158709380Y-105845476D01*
X158709380Y-105607380D01*
X158661761Y-105512142D01*
X158614142Y-105464523D01*
X158518904Y-105416904D01*
X158423666Y-105416904D01*
X158328428Y-105464523D01*
X158280809Y-105512142D01*
X158233190Y-105607380D01*
X158185571Y-105797857D01*
X158137952Y-105893095D01*
X158090333Y-105940714D01*
X157995095Y-105988333D01*
X157899857Y-105988333D01*
X157804619Y-105940714D01*
X157757000Y-105893095D01*
X157709380Y-105797857D01*
X157709380Y-105559761D01*
X157757000Y-105416904D01*
X157709380Y-105083571D02*
X158709380Y-104845476D01*
X157995095Y-104655000D01*
X158709380Y-104464523D01*
X157709380Y-104226428D01*
X158709380Y-103321666D02*
X158709380Y-103893095D01*
X158709380Y-103607380D02*
X157709380Y-103607380D01*
X157852238Y-103702619D01*
X157947476Y-103797857D01*
X157995095Y-103893095D01*
G04 #@! TD*
M02*
