M48
;DRILL file {KiCad 5.0.2-bee76a0~70~ubuntu18.04.1} date Mo 24 Jun 2019 09:05:00 CEST
;FORMAT={-:-/ absolute / inch / decimal}
FMAT,2
INCH,TZ
T1C0.0157
T2C0.0197
T3C0.0236
T4C0.0394
T5C0.0591
%
G90
G05
T1
X4.0512Y-3.8248
X4.0955Y-3.8327
X4.1299Y-3.8661
X4.1575Y-3.8947
X4.5663Y-4.2342
X4.6453Y-4.4472
X4.6543Y-4.2402
X4.6703Y-3.4422
X4.6863Y-4.4472
X4.6923Y-4.1442
X4.7243Y-4.4472
X4.7613Y-4.4472
X4.7726Y-3.8396
X4.7996Y-3.7144
X4.8143Y-3.9852
X4.8211Y-3.7904
X4.8743Y-4.1082
X4.955Y-3.7458
X5.0223Y-3.4922
X5.0523Y-3.5352
X5.0843Y-3.4142
X5.2003Y-3.4412
X5.2493Y-3.8382
X5.2743Y-3.8742
X5.3483Y-3.3802
X5.3943Y-3.8872
X5.4003Y-3.5762
X5.4263Y-3.6582
X5.4443Y-3.6022
X5.4613Y-3.6592
X5.4743Y-3.8762
X5.4963Y-3.7032
X5.5053Y-3.8762
X5.5373Y-3.7162
X5.5483Y-3.5632
X5.5513Y-3.9032
X5.5633Y-3.7392
X5.5643Y-3.7732
X5.5813Y-3.8822
X5.5883Y-3.5372
X5.6193Y-3.6672
X5.7233Y-3.4842
X6.2013Y-3.7822
X6.3253Y-3.5492
X6.5173Y-3.5772
X6.8413Y-3.6512
X6.8473Y-3.9232
X6.8743Y-3.9522
X6.8793Y-3.9062
X7.0213Y-3.9472
X7.0241Y-3.9088
X7.1403Y-3.9452
T3
X4.6303Y-3.3262
X5.5146Y-4.0649
X5.6373Y-3.4302
X6.1043Y-3.5442
X6.1043Y-3.6992
X6.8791Y-4.0588
X6.8991Y-3.8038
X6.9803Y-3.6452
X6.9991Y-4.0488
X7.0241Y-3.8138
T4
X4.8203Y-4.3492
X4.8203Y-4.4492
X6.4156Y-3.6596
X6.4156Y-4.2305
X6.5141Y-4.2305
X6.6125Y-3.6596
X6.6125Y-4.2305
T2
X7.0034Y-3.773G85X6.9798Y-3.773
G05
X7.0034Y-4.0982G85X6.9798Y-4.0982
G05
X7.2377Y-3.7589G85X7.2141Y-3.7589
G05
X7.2377Y-4.1124G85X7.2141Y-4.1124
G05
T5
X6.2936Y-3.9608G85X6.2936Y-3.9096
G05
X6.7345Y-3.9608G85X6.7345Y-3.9096
G05
T0
M30
