G04 #@! TF.GenerationSoftware,KiCad,Pcbnew,5.0.2-bee76a0~70~ubuntu18.04.1*
G04 #@! TF.CreationDate,2019-06-24T09:04:58+02:00*
G04 #@! TF.ProjectId,RocketPCR,526f636b-6574-4504-9352-2e6b69636164,rev?*
G04 #@! TF.SameCoordinates,Original*
G04 #@! TF.FileFunction,Paste,Bot*
G04 #@! TF.FilePolarity,Positive*
%FSLAX46Y46*%
G04 Gerber Fmt 4.6, Leading zero omitted, Abs format (unit mm)*
G04 Created by KiCad (PCBNEW 5.0.2-bee76a0~70~ubuntu18.04.1) date Mo 24 Jun 2019 09:04:58 CEST*
%MOMM*%
%LPD*%
G01*
G04 APERTURE LIST*
%ADD10C,0.100000*%
%ADD11C,1.250000*%
%ADD12R,1.300000X0.250000*%
%ADD13R,0.250000X1.300000*%
%ADD14R,0.300000X1.250000*%
%ADD15R,2.500000X2.500000*%
%ADD16R,1.000000X1.800000*%
%ADD17R,1.198880X1.198880*%
%ADD18R,3.657600X2.032000*%
%ADD19R,1.016000X2.032000*%
%ADD20R,0.700000X0.300000*%
%ADD21R,0.740000X2.400000*%
%ADD22R,0.900000X0.800000*%
%ADD23C,0.975000*%
%ADD24C,1.800000*%
G04 APERTURE END LIST*
D10*
G04 #@! TO.C,L1*
G36*
X164898504Y-114000204D02*
X164922773Y-114003804D01*
X164946571Y-114009765D01*
X164969671Y-114018030D01*
X164991849Y-114028520D01*
X165012893Y-114041133D01*
X165032598Y-114055747D01*
X165050777Y-114072223D01*
X165067253Y-114090402D01*
X165081867Y-114110107D01*
X165094480Y-114131151D01*
X165104970Y-114153329D01*
X165113235Y-114176429D01*
X165119196Y-114200227D01*
X165122796Y-114224496D01*
X165124000Y-114249000D01*
X165124000Y-115499000D01*
X165122796Y-115523504D01*
X165119196Y-115547773D01*
X165113235Y-115571571D01*
X165104970Y-115594671D01*
X165094480Y-115616849D01*
X165081867Y-115637893D01*
X165067253Y-115657598D01*
X165050777Y-115675777D01*
X165032598Y-115692253D01*
X165012893Y-115706867D01*
X164991849Y-115719480D01*
X164969671Y-115729970D01*
X164946571Y-115738235D01*
X164922773Y-115744196D01*
X164898504Y-115747796D01*
X164874000Y-115749000D01*
X164124000Y-115749000D01*
X164099496Y-115747796D01*
X164075227Y-115744196D01*
X164051429Y-115738235D01*
X164028329Y-115729970D01*
X164006151Y-115719480D01*
X163985107Y-115706867D01*
X163965402Y-115692253D01*
X163947223Y-115675777D01*
X163930747Y-115657598D01*
X163916133Y-115637893D01*
X163903520Y-115616849D01*
X163893030Y-115594671D01*
X163884765Y-115571571D01*
X163878804Y-115547773D01*
X163875204Y-115523504D01*
X163874000Y-115499000D01*
X163874000Y-114249000D01*
X163875204Y-114224496D01*
X163878804Y-114200227D01*
X163884765Y-114176429D01*
X163893030Y-114153329D01*
X163903520Y-114131151D01*
X163916133Y-114110107D01*
X163930747Y-114090402D01*
X163947223Y-114072223D01*
X163965402Y-114055747D01*
X163985107Y-114041133D01*
X164006151Y-114028520D01*
X164028329Y-114018030D01*
X164051429Y-114009765D01*
X164075227Y-114003804D01*
X164099496Y-114000204D01*
X164124000Y-113999000D01*
X164874000Y-113999000D01*
X164898504Y-114000204D01*
X164898504Y-114000204D01*
G37*
D11*
X164499000Y-114874000D03*
D10*
G36*
X167698504Y-114000204D02*
X167722773Y-114003804D01*
X167746571Y-114009765D01*
X167769671Y-114018030D01*
X167791849Y-114028520D01*
X167812893Y-114041133D01*
X167832598Y-114055747D01*
X167850777Y-114072223D01*
X167867253Y-114090402D01*
X167881867Y-114110107D01*
X167894480Y-114131151D01*
X167904970Y-114153329D01*
X167913235Y-114176429D01*
X167919196Y-114200227D01*
X167922796Y-114224496D01*
X167924000Y-114249000D01*
X167924000Y-115499000D01*
X167922796Y-115523504D01*
X167919196Y-115547773D01*
X167913235Y-115571571D01*
X167904970Y-115594671D01*
X167894480Y-115616849D01*
X167881867Y-115637893D01*
X167867253Y-115657598D01*
X167850777Y-115675777D01*
X167832598Y-115692253D01*
X167812893Y-115706867D01*
X167791849Y-115719480D01*
X167769671Y-115729970D01*
X167746571Y-115738235D01*
X167722773Y-115744196D01*
X167698504Y-115747796D01*
X167674000Y-115749000D01*
X166924000Y-115749000D01*
X166899496Y-115747796D01*
X166875227Y-115744196D01*
X166851429Y-115738235D01*
X166828329Y-115729970D01*
X166806151Y-115719480D01*
X166785107Y-115706867D01*
X166765402Y-115692253D01*
X166747223Y-115675777D01*
X166730747Y-115657598D01*
X166716133Y-115637893D01*
X166703520Y-115616849D01*
X166693030Y-115594671D01*
X166684765Y-115571571D01*
X166678804Y-115547773D01*
X166675204Y-115523504D01*
X166674000Y-115499000D01*
X166674000Y-114249000D01*
X166675204Y-114224496D01*
X166678804Y-114200227D01*
X166684765Y-114176429D01*
X166693030Y-114153329D01*
X166703520Y-114131151D01*
X166716133Y-114110107D01*
X166730747Y-114090402D01*
X166747223Y-114072223D01*
X166765402Y-114055747D01*
X166785107Y-114041133D01*
X166806151Y-114028520D01*
X166828329Y-114018030D01*
X166851429Y-114009765D01*
X166875227Y-114003804D01*
X166899496Y-114000204D01*
X166924000Y-113999000D01*
X167674000Y-113999000D01*
X167698504Y-114000204D01*
X167698504Y-114000204D01*
G37*
D11*
X167299000Y-114874000D03*
G04 #@! TD*
D12*
G04 #@! TO.C,U2*
X144027000Y-90061000D03*
X144027000Y-90561000D03*
X144027000Y-91061000D03*
X144027000Y-91561000D03*
X144027000Y-92061000D03*
X144027000Y-92561000D03*
X144027000Y-93061000D03*
X144027000Y-93561000D03*
X144027000Y-94061000D03*
X144027000Y-94561000D03*
X144027000Y-95061000D03*
X144027000Y-95561000D03*
D13*
X142427000Y-97161000D03*
X141927000Y-97161000D03*
X141427000Y-97161000D03*
X140927000Y-97161000D03*
X140427000Y-97161000D03*
X139927000Y-97161000D03*
X139427000Y-97161000D03*
X138927000Y-97161000D03*
X138427000Y-97161000D03*
X137927000Y-97161000D03*
X137427000Y-97161000D03*
X136927000Y-97161000D03*
D12*
X135327000Y-95561000D03*
X135327000Y-95061000D03*
X135327000Y-94561000D03*
X135327000Y-94061000D03*
X135327000Y-93561000D03*
X135327000Y-93061000D03*
X135327000Y-92561000D03*
X135327000Y-92061000D03*
X135327000Y-91561000D03*
X135327000Y-91061000D03*
X135327000Y-90561000D03*
X135327000Y-90061000D03*
D13*
X136927000Y-88461000D03*
X137427000Y-88461000D03*
X137927000Y-88461000D03*
X138427000Y-88461000D03*
X138927000Y-88461000D03*
X139427000Y-88461000D03*
X139927000Y-88461000D03*
X140427000Y-88461000D03*
X140927000Y-88461000D03*
X141427000Y-88461000D03*
X141927000Y-88461000D03*
X142427000Y-88461000D03*
G04 #@! TD*
D14*
G04 #@! TO.C,S1*
X146987000Y-100530000D03*
X144987000Y-100530000D03*
X145487000Y-100530000D03*
X146487000Y-100530000D03*
X145987000Y-100530000D03*
X143987000Y-100530000D03*
X144487000Y-100530000D03*
X143487000Y-100530000D03*
X142987000Y-100530000D03*
X139987000Y-100530000D03*
X140487000Y-100530000D03*
X141487000Y-100530000D03*
X140987000Y-100530000D03*
X142487000Y-100530000D03*
X141987000Y-100530000D03*
X134487000Y-100530000D03*
X134987000Y-100530000D03*
X133487000Y-100530000D03*
X133987000Y-100530000D03*
X132987000Y-100530000D03*
X132487000Y-100530000D03*
X135487000Y-100530000D03*
X135987000Y-100530000D03*
X136987000Y-100530000D03*
X136487000Y-100530000D03*
X138487000Y-100530000D03*
X138987000Y-100530000D03*
X137987000Y-100530000D03*
X137487000Y-100530000D03*
D15*
X129987000Y-101630000D03*
X149487000Y-101630000D03*
D14*
X139487000Y-100530000D03*
G04 #@! TD*
D16*
G04 #@! TO.C,Y1*
X149494000Y-89566400D03*
X146994000Y-89566400D03*
G04 #@! TD*
D17*
G04 #@! TO.C,LED2*
X164077000Y-87829040D03*
X164077000Y-85731000D03*
G04 #@! TD*
G04 #@! TO.C,LED1*
X166807000Y-87829040D03*
X166807000Y-85731000D03*
G04 #@! TD*
D18*
G04 #@! TO.C,U1*
X155057000Y-95329000D03*
D19*
X155057000Y-88725000D03*
X157343000Y-88725000D03*
X152771000Y-88725000D03*
G04 #@! TD*
D20*
G04 #@! TO.C,J3*
X175677000Y-97215000D03*
X175677000Y-97715000D03*
X175677000Y-98215000D03*
X175677000Y-98715000D03*
X175677000Y-99215000D03*
X175677000Y-99715000D03*
X175677000Y-100215000D03*
X175677000Y-102715000D03*
X175677000Y-101715000D03*
X175677000Y-101215000D03*
X175677000Y-100715000D03*
X175677000Y-102215000D03*
X177377000Y-102465000D03*
X177377000Y-101965000D03*
X177377000Y-101465000D03*
X177377000Y-100965000D03*
X177377000Y-100465000D03*
X177377000Y-99965000D03*
X177377000Y-99465000D03*
X177377000Y-98965000D03*
X177377000Y-98465000D03*
X177377000Y-97965000D03*
X177377000Y-97465000D03*
X177377000Y-96965000D03*
G04 #@! TD*
D21*
G04 #@! TO.C,J2*
X125026000Y-91409000D03*
X125026000Y-87509000D03*
X123756000Y-91409000D03*
X123756000Y-87509000D03*
X122486000Y-91409000D03*
X122486000Y-87509000D03*
X121216000Y-91409000D03*
X121216000Y-87509000D03*
X119946000Y-91409000D03*
X119946000Y-87509000D03*
G04 #@! TD*
D22*
G04 #@! TO.C,Q2*
X120343000Y-105223000D03*
X120343000Y-103323000D03*
X122343000Y-104273000D03*
G04 #@! TD*
G04 #@! TO.C,Q1*
X118777600Y-108723000D03*
X118777600Y-110623000D03*
X116777600Y-109673000D03*
G04 #@! TD*
G04 #@! TO.C,Q3*
X117015600Y-100651000D03*
X117015600Y-98751000D03*
X119015600Y-99701000D03*
G04 #@! TD*
D10*
G04 #@! TO.C,C2*
G36*
X159874504Y-85001204D02*
X159898773Y-85004804D01*
X159922571Y-85010765D01*
X159945671Y-85019030D01*
X159967849Y-85029520D01*
X159988893Y-85042133D01*
X160008598Y-85056747D01*
X160026777Y-85073223D01*
X160043253Y-85091402D01*
X160057867Y-85111107D01*
X160070480Y-85132151D01*
X160080970Y-85154329D01*
X160089235Y-85177429D01*
X160095196Y-85201227D01*
X160098796Y-85225496D01*
X160100000Y-85250000D01*
X160100000Y-86500000D01*
X160098796Y-86524504D01*
X160095196Y-86548773D01*
X160089235Y-86572571D01*
X160080970Y-86595671D01*
X160070480Y-86617849D01*
X160057867Y-86638893D01*
X160043253Y-86658598D01*
X160026777Y-86676777D01*
X160008598Y-86693253D01*
X159988893Y-86707867D01*
X159967849Y-86720480D01*
X159945671Y-86730970D01*
X159922571Y-86739235D01*
X159898773Y-86745196D01*
X159874504Y-86748796D01*
X159850000Y-86750000D01*
X159100000Y-86750000D01*
X159075496Y-86748796D01*
X159051227Y-86745196D01*
X159027429Y-86739235D01*
X159004329Y-86730970D01*
X158982151Y-86720480D01*
X158961107Y-86707867D01*
X158941402Y-86693253D01*
X158923223Y-86676777D01*
X158906747Y-86658598D01*
X158892133Y-86638893D01*
X158879520Y-86617849D01*
X158869030Y-86595671D01*
X158860765Y-86572571D01*
X158854804Y-86548773D01*
X158851204Y-86524504D01*
X158850000Y-86500000D01*
X158850000Y-85250000D01*
X158851204Y-85225496D01*
X158854804Y-85201227D01*
X158860765Y-85177429D01*
X158869030Y-85154329D01*
X158879520Y-85132151D01*
X158892133Y-85111107D01*
X158906747Y-85091402D01*
X158923223Y-85073223D01*
X158941402Y-85056747D01*
X158961107Y-85042133D01*
X158982151Y-85029520D01*
X159004329Y-85019030D01*
X159027429Y-85010765D01*
X159051227Y-85004804D01*
X159075496Y-85001204D01*
X159100000Y-85000000D01*
X159850000Y-85000000D01*
X159874504Y-85001204D01*
X159874504Y-85001204D01*
G37*
D11*
X159475000Y-85875000D03*
D10*
G36*
X157074504Y-85001204D02*
X157098773Y-85004804D01*
X157122571Y-85010765D01*
X157145671Y-85019030D01*
X157167849Y-85029520D01*
X157188893Y-85042133D01*
X157208598Y-85056747D01*
X157226777Y-85073223D01*
X157243253Y-85091402D01*
X157257867Y-85111107D01*
X157270480Y-85132151D01*
X157280970Y-85154329D01*
X157289235Y-85177429D01*
X157295196Y-85201227D01*
X157298796Y-85225496D01*
X157300000Y-85250000D01*
X157300000Y-86500000D01*
X157298796Y-86524504D01*
X157295196Y-86548773D01*
X157289235Y-86572571D01*
X157280970Y-86595671D01*
X157270480Y-86617849D01*
X157257867Y-86638893D01*
X157243253Y-86658598D01*
X157226777Y-86676777D01*
X157208598Y-86693253D01*
X157188893Y-86707867D01*
X157167849Y-86720480D01*
X157145671Y-86730970D01*
X157122571Y-86739235D01*
X157098773Y-86745196D01*
X157074504Y-86748796D01*
X157050000Y-86750000D01*
X156300000Y-86750000D01*
X156275496Y-86748796D01*
X156251227Y-86745196D01*
X156227429Y-86739235D01*
X156204329Y-86730970D01*
X156182151Y-86720480D01*
X156161107Y-86707867D01*
X156141402Y-86693253D01*
X156123223Y-86676777D01*
X156106747Y-86658598D01*
X156092133Y-86638893D01*
X156079520Y-86617849D01*
X156069030Y-86595671D01*
X156060765Y-86572571D01*
X156054804Y-86548773D01*
X156051204Y-86524504D01*
X156050000Y-86500000D01*
X156050000Y-85250000D01*
X156051204Y-85225496D01*
X156054804Y-85201227D01*
X156060765Y-85177429D01*
X156069030Y-85154329D01*
X156079520Y-85132151D01*
X156092133Y-85111107D01*
X156106747Y-85091402D01*
X156123223Y-85073223D01*
X156141402Y-85056747D01*
X156161107Y-85042133D01*
X156182151Y-85029520D01*
X156204329Y-85019030D01*
X156227429Y-85010765D01*
X156251227Y-85004804D01*
X156275496Y-85001204D01*
X156300000Y-85000000D01*
X157050000Y-85000000D01*
X157074504Y-85001204D01*
X157074504Y-85001204D01*
G37*
D11*
X156675000Y-85875000D03*
G04 #@! TD*
D10*
G04 #@! TO.C,C3*
G36*
X164341304Y-111552604D02*
X164365573Y-111556204D01*
X164389371Y-111562165D01*
X164412471Y-111570430D01*
X164434649Y-111580920D01*
X164455693Y-111593533D01*
X164475398Y-111608147D01*
X164493577Y-111624623D01*
X164510053Y-111642802D01*
X164524667Y-111662507D01*
X164537280Y-111683551D01*
X164547770Y-111705729D01*
X164556035Y-111728829D01*
X164561996Y-111752627D01*
X164565596Y-111776896D01*
X164566800Y-111801400D01*
X164566800Y-113051400D01*
X164565596Y-113075904D01*
X164561996Y-113100173D01*
X164556035Y-113123971D01*
X164547770Y-113147071D01*
X164537280Y-113169249D01*
X164524667Y-113190293D01*
X164510053Y-113209998D01*
X164493577Y-113228177D01*
X164475398Y-113244653D01*
X164455693Y-113259267D01*
X164434649Y-113271880D01*
X164412471Y-113282370D01*
X164389371Y-113290635D01*
X164365573Y-113296596D01*
X164341304Y-113300196D01*
X164316800Y-113301400D01*
X163566800Y-113301400D01*
X163542296Y-113300196D01*
X163518027Y-113296596D01*
X163494229Y-113290635D01*
X163471129Y-113282370D01*
X163448951Y-113271880D01*
X163427907Y-113259267D01*
X163408202Y-113244653D01*
X163390023Y-113228177D01*
X163373547Y-113209998D01*
X163358933Y-113190293D01*
X163346320Y-113169249D01*
X163335830Y-113147071D01*
X163327565Y-113123971D01*
X163321604Y-113100173D01*
X163318004Y-113075904D01*
X163316800Y-113051400D01*
X163316800Y-111801400D01*
X163318004Y-111776896D01*
X163321604Y-111752627D01*
X163327565Y-111728829D01*
X163335830Y-111705729D01*
X163346320Y-111683551D01*
X163358933Y-111662507D01*
X163373547Y-111642802D01*
X163390023Y-111624623D01*
X163408202Y-111608147D01*
X163427907Y-111593533D01*
X163448951Y-111580920D01*
X163471129Y-111570430D01*
X163494229Y-111562165D01*
X163518027Y-111556204D01*
X163542296Y-111552604D01*
X163566800Y-111551400D01*
X164316800Y-111551400D01*
X164341304Y-111552604D01*
X164341304Y-111552604D01*
G37*
D11*
X163941800Y-112426400D03*
D10*
G36*
X161541304Y-111552604D02*
X161565573Y-111556204D01*
X161589371Y-111562165D01*
X161612471Y-111570430D01*
X161634649Y-111580920D01*
X161655693Y-111593533D01*
X161675398Y-111608147D01*
X161693577Y-111624623D01*
X161710053Y-111642802D01*
X161724667Y-111662507D01*
X161737280Y-111683551D01*
X161747770Y-111705729D01*
X161756035Y-111728829D01*
X161761996Y-111752627D01*
X161765596Y-111776896D01*
X161766800Y-111801400D01*
X161766800Y-113051400D01*
X161765596Y-113075904D01*
X161761996Y-113100173D01*
X161756035Y-113123971D01*
X161747770Y-113147071D01*
X161737280Y-113169249D01*
X161724667Y-113190293D01*
X161710053Y-113209998D01*
X161693577Y-113228177D01*
X161675398Y-113244653D01*
X161655693Y-113259267D01*
X161634649Y-113271880D01*
X161612471Y-113282370D01*
X161589371Y-113290635D01*
X161565573Y-113296596D01*
X161541304Y-113300196D01*
X161516800Y-113301400D01*
X160766800Y-113301400D01*
X160742296Y-113300196D01*
X160718027Y-113296596D01*
X160694229Y-113290635D01*
X160671129Y-113282370D01*
X160648951Y-113271880D01*
X160627907Y-113259267D01*
X160608202Y-113244653D01*
X160590023Y-113228177D01*
X160573547Y-113209998D01*
X160558933Y-113190293D01*
X160546320Y-113169249D01*
X160535830Y-113147071D01*
X160527565Y-113123971D01*
X160521604Y-113100173D01*
X160518004Y-113075904D01*
X160516800Y-113051400D01*
X160516800Y-111801400D01*
X160518004Y-111776896D01*
X160521604Y-111752627D01*
X160527565Y-111728829D01*
X160535830Y-111705729D01*
X160546320Y-111683551D01*
X160558933Y-111662507D01*
X160573547Y-111642802D01*
X160590023Y-111624623D01*
X160608202Y-111608147D01*
X160627907Y-111593533D01*
X160648951Y-111580920D01*
X160671129Y-111570430D01*
X160694229Y-111562165D01*
X160718027Y-111556204D01*
X160742296Y-111552604D01*
X160766800Y-111551400D01*
X161516800Y-111551400D01*
X161541304Y-111552604D01*
X161541304Y-111552604D01*
G37*
D11*
X161141800Y-112426400D03*
G04 #@! TD*
D10*
G04 #@! TO.C,C4*
G36*
X162230142Y-86926174D02*
X162253803Y-86929684D01*
X162277007Y-86935496D01*
X162299529Y-86943554D01*
X162321153Y-86953782D01*
X162341670Y-86966079D01*
X162360883Y-86980329D01*
X162378607Y-86996393D01*
X162394671Y-87014117D01*
X162408921Y-87033330D01*
X162421218Y-87053847D01*
X162431446Y-87075471D01*
X162439504Y-87097993D01*
X162445316Y-87121197D01*
X162448826Y-87144858D01*
X162450000Y-87168750D01*
X162450000Y-87656250D01*
X162448826Y-87680142D01*
X162445316Y-87703803D01*
X162439504Y-87727007D01*
X162431446Y-87749529D01*
X162421218Y-87771153D01*
X162408921Y-87791670D01*
X162394671Y-87810883D01*
X162378607Y-87828607D01*
X162360883Y-87844671D01*
X162341670Y-87858921D01*
X162321153Y-87871218D01*
X162299529Y-87881446D01*
X162277007Y-87889504D01*
X162253803Y-87895316D01*
X162230142Y-87898826D01*
X162206250Y-87900000D01*
X161293750Y-87900000D01*
X161269858Y-87898826D01*
X161246197Y-87895316D01*
X161222993Y-87889504D01*
X161200471Y-87881446D01*
X161178847Y-87871218D01*
X161158330Y-87858921D01*
X161139117Y-87844671D01*
X161121393Y-87828607D01*
X161105329Y-87810883D01*
X161091079Y-87791670D01*
X161078782Y-87771153D01*
X161068554Y-87749529D01*
X161060496Y-87727007D01*
X161054684Y-87703803D01*
X161051174Y-87680142D01*
X161050000Y-87656250D01*
X161050000Y-87168750D01*
X161051174Y-87144858D01*
X161054684Y-87121197D01*
X161060496Y-87097993D01*
X161068554Y-87075471D01*
X161078782Y-87053847D01*
X161091079Y-87033330D01*
X161105329Y-87014117D01*
X161121393Y-86996393D01*
X161139117Y-86980329D01*
X161158330Y-86966079D01*
X161178847Y-86953782D01*
X161200471Y-86943554D01*
X161222993Y-86935496D01*
X161246197Y-86929684D01*
X161269858Y-86926174D01*
X161293750Y-86925000D01*
X162206250Y-86925000D01*
X162230142Y-86926174D01*
X162230142Y-86926174D01*
G37*
D23*
X161750000Y-87412500D03*
D10*
G36*
X162230142Y-85051174D02*
X162253803Y-85054684D01*
X162277007Y-85060496D01*
X162299529Y-85068554D01*
X162321153Y-85078782D01*
X162341670Y-85091079D01*
X162360883Y-85105329D01*
X162378607Y-85121393D01*
X162394671Y-85139117D01*
X162408921Y-85158330D01*
X162421218Y-85178847D01*
X162431446Y-85200471D01*
X162439504Y-85222993D01*
X162445316Y-85246197D01*
X162448826Y-85269858D01*
X162450000Y-85293750D01*
X162450000Y-85781250D01*
X162448826Y-85805142D01*
X162445316Y-85828803D01*
X162439504Y-85852007D01*
X162431446Y-85874529D01*
X162421218Y-85896153D01*
X162408921Y-85916670D01*
X162394671Y-85935883D01*
X162378607Y-85953607D01*
X162360883Y-85969671D01*
X162341670Y-85983921D01*
X162321153Y-85996218D01*
X162299529Y-86006446D01*
X162277007Y-86014504D01*
X162253803Y-86020316D01*
X162230142Y-86023826D01*
X162206250Y-86025000D01*
X161293750Y-86025000D01*
X161269858Y-86023826D01*
X161246197Y-86020316D01*
X161222993Y-86014504D01*
X161200471Y-86006446D01*
X161178847Y-85996218D01*
X161158330Y-85983921D01*
X161139117Y-85969671D01*
X161121393Y-85953607D01*
X161105329Y-85935883D01*
X161091079Y-85916670D01*
X161078782Y-85896153D01*
X161068554Y-85874529D01*
X161060496Y-85852007D01*
X161054684Y-85828803D01*
X161051174Y-85805142D01*
X161050000Y-85781250D01*
X161050000Y-85293750D01*
X161051174Y-85269858D01*
X161054684Y-85246197D01*
X161060496Y-85222993D01*
X161068554Y-85200471D01*
X161078782Y-85178847D01*
X161091079Y-85158330D01*
X161105329Y-85139117D01*
X161121393Y-85121393D01*
X161139117Y-85105329D01*
X161158330Y-85091079D01*
X161178847Y-85078782D01*
X161200471Y-85068554D01*
X161222993Y-85060496D01*
X161246197Y-85054684D01*
X161269858Y-85051174D01*
X161293750Y-85050000D01*
X162206250Y-85050000D01*
X162230142Y-85051174D01*
X162230142Y-85051174D01*
G37*
D23*
X161750000Y-85537500D03*
G04 #@! TD*
D10*
G04 #@! TO.C,C6*
G36*
X156848142Y-98399174D02*
X156871803Y-98402684D01*
X156895007Y-98408496D01*
X156917529Y-98416554D01*
X156939153Y-98426782D01*
X156959670Y-98439079D01*
X156978883Y-98453329D01*
X156996607Y-98469393D01*
X157012671Y-98487117D01*
X157026921Y-98506330D01*
X157039218Y-98526847D01*
X157049446Y-98548471D01*
X157057504Y-98570993D01*
X157063316Y-98594197D01*
X157066826Y-98617858D01*
X157068000Y-98641750D01*
X157068000Y-99554250D01*
X157066826Y-99578142D01*
X157063316Y-99601803D01*
X157057504Y-99625007D01*
X157049446Y-99647529D01*
X157039218Y-99669153D01*
X157026921Y-99689670D01*
X157012671Y-99708883D01*
X156996607Y-99726607D01*
X156978883Y-99742671D01*
X156959670Y-99756921D01*
X156939153Y-99769218D01*
X156917529Y-99779446D01*
X156895007Y-99787504D01*
X156871803Y-99793316D01*
X156848142Y-99796826D01*
X156824250Y-99798000D01*
X156336750Y-99798000D01*
X156312858Y-99796826D01*
X156289197Y-99793316D01*
X156265993Y-99787504D01*
X156243471Y-99779446D01*
X156221847Y-99769218D01*
X156201330Y-99756921D01*
X156182117Y-99742671D01*
X156164393Y-99726607D01*
X156148329Y-99708883D01*
X156134079Y-99689670D01*
X156121782Y-99669153D01*
X156111554Y-99647529D01*
X156103496Y-99625007D01*
X156097684Y-99601803D01*
X156094174Y-99578142D01*
X156093000Y-99554250D01*
X156093000Y-98641750D01*
X156094174Y-98617858D01*
X156097684Y-98594197D01*
X156103496Y-98570993D01*
X156111554Y-98548471D01*
X156121782Y-98526847D01*
X156134079Y-98506330D01*
X156148329Y-98487117D01*
X156164393Y-98469393D01*
X156182117Y-98453329D01*
X156201330Y-98439079D01*
X156221847Y-98426782D01*
X156243471Y-98416554D01*
X156265993Y-98408496D01*
X156289197Y-98402684D01*
X156312858Y-98399174D01*
X156336750Y-98398000D01*
X156824250Y-98398000D01*
X156848142Y-98399174D01*
X156848142Y-98399174D01*
G37*
D23*
X156580500Y-99098000D03*
D10*
G36*
X154973142Y-98399174D02*
X154996803Y-98402684D01*
X155020007Y-98408496D01*
X155042529Y-98416554D01*
X155064153Y-98426782D01*
X155084670Y-98439079D01*
X155103883Y-98453329D01*
X155121607Y-98469393D01*
X155137671Y-98487117D01*
X155151921Y-98506330D01*
X155164218Y-98526847D01*
X155174446Y-98548471D01*
X155182504Y-98570993D01*
X155188316Y-98594197D01*
X155191826Y-98617858D01*
X155193000Y-98641750D01*
X155193000Y-99554250D01*
X155191826Y-99578142D01*
X155188316Y-99601803D01*
X155182504Y-99625007D01*
X155174446Y-99647529D01*
X155164218Y-99669153D01*
X155151921Y-99689670D01*
X155137671Y-99708883D01*
X155121607Y-99726607D01*
X155103883Y-99742671D01*
X155084670Y-99756921D01*
X155064153Y-99769218D01*
X155042529Y-99779446D01*
X155020007Y-99787504D01*
X154996803Y-99793316D01*
X154973142Y-99796826D01*
X154949250Y-99798000D01*
X154461750Y-99798000D01*
X154437858Y-99796826D01*
X154414197Y-99793316D01*
X154390993Y-99787504D01*
X154368471Y-99779446D01*
X154346847Y-99769218D01*
X154326330Y-99756921D01*
X154307117Y-99742671D01*
X154289393Y-99726607D01*
X154273329Y-99708883D01*
X154259079Y-99689670D01*
X154246782Y-99669153D01*
X154236554Y-99647529D01*
X154228496Y-99625007D01*
X154222684Y-99601803D01*
X154219174Y-99578142D01*
X154218000Y-99554250D01*
X154218000Y-98641750D01*
X154219174Y-98617858D01*
X154222684Y-98594197D01*
X154228496Y-98570993D01*
X154236554Y-98548471D01*
X154246782Y-98526847D01*
X154259079Y-98506330D01*
X154273329Y-98487117D01*
X154289393Y-98469393D01*
X154307117Y-98453329D01*
X154326330Y-98439079D01*
X154346847Y-98426782D01*
X154368471Y-98416554D01*
X154390993Y-98408496D01*
X154414197Y-98402684D01*
X154437858Y-98399174D01*
X154461750Y-98398000D01*
X154949250Y-98398000D01*
X154973142Y-98399174D01*
X154973142Y-98399174D01*
G37*
D23*
X154705500Y-99098000D03*
G04 #@! TD*
D10*
G04 #@! TO.C,R4*
G36*
X121198142Y-94425174D02*
X121221803Y-94428684D01*
X121245007Y-94434496D01*
X121267529Y-94442554D01*
X121289153Y-94452782D01*
X121309670Y-94465079D01*
X121328883Y-94479329D01*
X121346607Y-94495393D01*
X121362671Y-94513117D01*
X121376921Y-94532330D01*
X121389218Y-94552847D01*
X121399446Y-94574471D01*
X121407504Y-94596993D01*
X121413316Y-94620197D01*
X121416826Y-94643858D01*
X121418000Y-94667750D01*
X121418000Y-95580250D01*
X121416826Y-95604142D01*
X121413316Y-95627803D01*
X121407504Y-95651007D01*
X121399446Y-95673529D01*
X121389218Y-95695153D01*
X121376921Y-95715670D01*
X121362671Y-95734883D01*
X121346607Y-95752607D01*
X121328883Y-95768671D01*
X121309670Y-95782921D01*
X121289153Y-95795218D01*
X121267529Y-95805446D01*
X121245007Y-95813504D01*
X121221803Y-95819316D01*
X121198142Y-95822826D01*
X121174250Y-95824000D01*
X120686750Y-95824000D01*
X120662858Y-95822826D01*
X120639197Y-95819316D01*
X120615993Y-95813504D01*
X120593471Y-95805446D01*
X120571847Y-95795218D01*
X120551330Y-95782921D01*
X120532117Y-95768671D01*
X120514393Y-95752607D01*
X120498329Y-95734883D01*
X120484079Y-95715670D01*
X120471782Y-95695153D01*
X120461554Y-95673529D01*
X120453496Y-95651007D01*
X120447684Y-95627803D01*
X120444174Y-95604142D01*
X120443000Y-95580250D01*
X120443000Y-94667750D01*
X120444174Y-94643858D01*
X120447684Y-94620197D01*
X120453496Y-94596993D01*
X120461554Y-94574471D01*
X120471782Y-94552847D01*
X120484079Y-94532330D01*
X120498329Y-94513117D01*
X120514393Y-94495393D01*
X120532117Y-94479329D01*
X120551330Y-94465079D01*
X120571847Y-94452782D01*
X120593471Y-94442554D01*
X120615993Y-94434496D01*
X120639197Y-94428684D01*
X120662858Y-94425174D01*
X120686750Y-94424000D01*
X121174250Y-94424000D01*
X121198142Y-94425174D01*
X121198142Y-94425174D01*
G37*
D23*
X120930500Y-95124000D03*
D10*
G36*
X119323142Y-94425174D02*
X119346803Y-94428684D01*
X119370007Y-94434496D01*
X119392529Y-94442554D01*
X119414153Y-94452782D01*
X119434670Y-94465079D01*
X119453883Y-94479329D01*
X119471607Y-94495393D01*
X119487671Y-94513117D01*
X119501921Y-94532330D01*
X119514218Y-94552847D01*
X119524446Y-94574471D01*
X119532504Y-94596993D01*
X119538316Y-94620197D01*
X119541826Y-94643858D01*
X119543000Y-94667750D01*
X119543000Y-95580250D01*
X119541826Y-95604142D01*
X119538316Y-95627803D01*
X119532504Y-95651007D01*
X119524446Y-95673529D01*
X119514218Y-95695153D01*
X119501921Y-95715670D01*
X119487671Y-95734883D01*
X119471607Y-95752607D01*
X119453883Y-95768671D01*
X119434670Y-95782921D01*
X119414153Y-95795218D01*
X119392529Y-95805446D01*
X119370007Y-95813504D01*
X119346803Y-95819316D01*
X119323142Y-95822826D01*
X119299250Y-95824000D01*
X118811750Y-95824000D01*
X118787858Y-95822826D01*
X118764197Y-95819316D01*
X118740993Y-95813504D01*
X118718471Y-95805446D01*
X118696847Y-95795218D01*
X118676330Y-95782921D01*
X118657117Y-95768671D01*
X118639393Y-95752607D01*
X118623329Y-95734883D01*
X118609079Y-95715670D01*
X118596782Y-95695153D01*
X118586554Y-95673529D01*
X118578496Y-95651007D01*
X118572684Y-95627803D01*
X118569174Y-95604142D01*
X118568000Y-95580250D01*
X118568000Y-94667750D01*
X118569174Y-94643858D01*
X118572684Y-94620197D01*
X118578496Y-94596993D01*
X118586554Y-94574471D01*
X118596782Y-94552847D01*
X118609079Y-94532330D01*
X118623329Y-94513117D01*
X118639393Y-94495393D01*
X118657117Y-94479329D01*
X118676330Y-94465079D01*
X118696847Y-94452782D01*
X118718471Y-94442554D01*
X118740993Y-94434496D01*
X118764197Y-94428684D01*
X118787858Y-94425174D01*
X118811750Y-94424000D01*
X119299250Y-94424000D01*
X119323142Y-94425174D01*
X119323142Y-94425174D01*
G37*
D23*
X119055500Y-95124000D03*
G04 #@! TD*
D10*
G04 #@! TO.C,C1*
G36*
X138580142Y-85184574D02*
X138603803Y-85188084D01*
X138627007Y-85193896D01*
X138649529Y-85201954D01*
X138671153Y-85212182D01*
X138691670Y-85224479D01*
X138710883Y-85238729D01*
X138728607Y-85254793D01*
X138744671Y-85272517D01*
X138758921Y-85291730D01*
X138771218Y-85312247D01*
X138781446Y-85333871D01*
X138789504Y-85356393D01*
X138795316Y-85379597D01*
X138798826Y-85403258D01*
X138800000Y-85427150D01*
X138800000Y-86339650D01*
X138798826Y-86363542D01*
X138795316Y-86387203D01*
X138789504Y-86410407D01*
X138781446Y-86432929D01*
X138771218Y-86454553D01*
X138758921Y-86475070D01*
X138744671Y-86494283D01*
X138728607Y-86512007D01*
X138710883Y-86528071D01*
X138691670Y-86542321D01*
X138671153Y-86554618D01*
X138649529Y-86564846D01*
X138627007Y-86572904D01*
X138603803Y-86578716D01*
X138580142Y-86582226D01*
X138556250Y-86583400D01*
X138068750Y-86583400D01*
X138044858Y-86582226D01*
X138021197Y-86578716D01*
X137997993Y-86572904D01*
X137975471Y-86564846D01*
X137953847Y-86554618D01*
X137933330Y-86542321D01*
X137914117Y-86528071D01*
X137896393Y-86512007D01*
X137880329Y-86494283D01*
X137866079Y-86475070D01*
X137853782Y-86454553D01*
X137843554Y-86432929D01*
X137835496Y-86410407D01*
X137829684Y-86387203D01*
X137826174Y-86363542D01*
X137825000Y-86339650D01*
X137825000Y-85427150D01*
X137826174Y-85403258D01*
X137829684Y-85379597D01*
X137835496Y-85356393D01*
X137843554Y-85333871D01*
X137853782Y-85312247D01*
X137866079Y-85291730D01*
X137880329Y-85272517D01*
X137896393Y-85254793D01*
X137914117Y-85238729D01*
X137933330Y-85224479D01*
X137953847Y-85212182D01*
X137975471Y-85201954D01*
X137997993Y-85193896D01*
X138021197Y-85188084D01*
X138044858Y-85184574D01*
X138068750Y-85183400D01*
X138556250Y-85183400D01*
X138580142Y-85184574D01*
X138580142Y-85184574D01*
G37*
D23*
X138312500Y-85883400D03*
D10*
G36*
X140455142Y-85184574D02*
X140478803Y-85188084D01*
X140502007Y-85193896D01*
X140524529Y-85201954D01*
X140546153Y-85212182D01*
X140566670Y-85224479D01*
X140585883Y-85238729D01*
X140603607Y-85254793D01*
X140619671Y-85272517D01*
X140633921Y-85291730D01*
X140646218Y-85312247D01*
X140656446Y-85333871D01*
X140664504Y-85356393D01*
X140670316Y-85379597D01*
X140673826Y-85403258D01*
X140675000Y-85427150D01*
X140675000Y-86339650D01*
X140673826Y-86363542D01*
X140670316Y-86387203D01*
X140664504Y-86410407D01*
X140656446Y-86432929D01*
X140646218Y-86454553D01*
X140633921Y-86475070D01*
X140619671Y-86494283D01*
X140603607Y-86512007D01*
X140585883Y-86528071D01*
X140566670Y-86542321D01*
X140546153Y-86554618D01*
X140524529Y-86564846D01*
X140502007Y-86572904D01*
X140478803Y-86578716D01*
X140455142Y-86582226D01*
X140431250Y-86583400D01*
X139943750Y-86583400D01*
X139919858Y-86582226D01*
X139896197Y-86578716D01*
X139872993Y-86572904D01*
X139850471Y-86564846D01*
X139828847Y-86554618D01*
X139808330Y-86542321D01*
X139789117Y-86528071D01*
X139771393Y-86512007D01*
X139755329Y-86494283D01*
X139741079Y-86475070D01*
X139728782Y-86454553D01*
X139718554Y-86432929D01*
X139710496Y-86410407D01*
X139704684Y-86387203D01*
X139701174Y-86363542D01*
X139700000Y-86339650D01*
X139700000Y-85427150D01*
X139701174Y-85403258D01*
X139704684Y-85379597D01*
X139710496Y-85356393D01*
X139718554Y-85333871D01*
X139728782Y-85312247D01*
X139741079Y-85291730D01*
X139755329Y-85272517D01*
X139771393Y-85254793D01*
X139789117Y-85238729D01*
X139808330Y-85224479D01*
X139828847Y-85212182D01*
X139850471Y-85201954D01*
X139872993Y-85193896D01*
X139896197Y-85188084D01*
X139919858Y-85184574D01*
X139943750Y-85183400D01*
X140431250Y-85183400D01*
X140455142Y-85184574D01*
X140455142Y-85184574D01*
G37*
D23*
X140187500Y-85883400D03*
G04 #@! TD*
D10*
G04 #@! TO.C,C5*
G36*
X154936504Y-84976204D02*
X154960773Y-84979804D01*
X154984571Y-84985765D01*
X155007671Y-84994030D01*
X155029849Y-85004520D01*
X155050893Y-85017133D01*
X155070598Y-85031747D01*
X155088777Y-85048223D01*
X155105253Y-85066402D01*
X155119867Y-85086107D01*
X155132480Y-85107151D01*
X155142970Y-85129329D01*
X155151235Y-85152429D01*
X155157196Y-85176227D01*
X155160796Y-85200496D01*
X155162000Y-85225000D01*
X155162000Y-86475000D01*
X155160796Y-86499504D01*
X155157196Y-86523773D01*
X155151235Y-86547571D01*
X155142970Y-86570671D01*
X155132480Y-86592849D01*
X155119867Y-86613893D01*
X155105253Y-86633598D01*
X155088777Y-86651777D01*
X155070598Y-86668253D01*
X155050893Y-86682867D01*
X155029849Y-86695480D01*
X155007671Y-86705970D01*
X154984571Y-86714235D01*
X154960773Y-86720196D01*
X154936504Y-86723796D01*
X154912000Y-86725000D01*
X154162000Y-86725000D01*
X154137496Y-86723796D01*
X154113227Y-86720196D01*
X154089429Y-86714235D01*
X154066329Y-86705970D01*
X154044151Y-86695480D01*
X154023107Y-86682867D01*
X154003402Y-86668253D01*
X153985223Y-86651777D01*
X153968747Y-86633598D01*
X153954133Y-86613893D01*
X153941520Y-86592849D01*
X153931030Y-86570671D01*
X153922765Y-86547571D01*
X153916804Y-86523773D01*
X153913204Y-86499504D01*
X153912000Y-86475000D01*
X153912000Y-85225000D01*
X153913204Y-85200496D01*
X153916804Y-85176227D01*
X153922765Y-85152429D01*
X153931030Y-85129329D01*
X153941520Y-85107151D01*
X153954133Y-85086107D01*
X153968747Y-85066402D01*
X153985223Y-85048223D01*
X154003402Y-85031747D01*
X154023107Y-85017133D01*
X154044151Y-85004520D01*
X154066329Y-84994030D01*
X154089429Y-84985765D01*
X154113227Y-84979804D01*
X154137496Y-84976204D01*
X154162000Y-84975000D01*
X154912000Y-84975000D01*
X154936504Y-84976204D01*
X154936504Y-84976204D01*
G37*
D11*
X154537000Y-85850000D03*
D10*
G36*
X152136504Y-84976204D02*
X152160773Y-84979804D01*
X152184571Y-84985765D01*
X152207671Y-84994030D01*
X152229849Y-85004520D01*
X152250893Y-85017133D01*
X152270598Y-85031747D01*
X152288777Y-85048223D01*
X152305253Y-85066402D01*
X152319867Y-85086107D01*
X152332480Y-85107151D01*
X152342970Y-85129329D01*
X152351235Y-85152429D01*
X152357196Y-85176227D01*
X152360796Y-85200496D01*
X152362000Y-85225000D01*
X152362000Y-86475000D01*
X152360796Y-86499504D01*
X152357196Y-86523773D01*
X152351235Y-86547571D01*
X152342970Y-86570671D01*
X152332480Y-86592849D01*
X152319867Y-86613893D01*
X152305253Y-86633598D01*
X152288777Y-86651777D01*
X152270598Y-86668253D01*
X152250893Y-86682867D01*
X152229849Y-86695480D01*
X152207671Y-86705970D01*
X152184571Y-86714235D01*
X152160773Y-86720196D01*
X152136504Y-86723796D01*
X152112000Y-86725000D01*
X151362000Y-86725000D01*
X151337496Y-86723796D01*
X151313227Y-86720196D01*
X151289429Y-86714235D01*
X151266329Y-86705970D01*
X151244151Y-86695480D01*
X151223107Y-86682867D01*
X151203402Y-86668253D01*
X151185223Y-86651777D01*
X151168747Y-86633598D01*
X151154133Y-86613893D01*
X151141520Y-86592849D01*
X151131030Y-86570671D01*
X151122765Y-86547571D01*
X151116804Y-86523773D01*
X151113204Y-86499504D01*
X151112000Y-86475000D01*
X151112000Y-85225000D01*
X151113204Y-85200496D01*
X151116804Y-85176227D01*
X151122765Y-85152429D01*
X151131030Y-85129329D01*
X151141520Y-85107151D01*
X151154133Y-85086107D01*
X151168747Y-85066402D01*
X151185223Y-85048223D01*
X151203402Y-85031747D01*
X151223107Y-85017133D01*
X151244151Y-85004520D01*
X151266329Y-84994030D01*
X151289429Y-84985765D01*
X151313227Y-84979804D01*
X151337496Y-84976204D01*
X151362000Y-84975000D01*
X152112000Y-84975000D01*
X152136504Y-84976204D01*
X152136504Y-84976204D01*
G37*
D11*
X151737000Y-85850000D03*
G04 #@! TD*
D10*
G04 #@! TO.C,C7*
G36*
X142501142Y-85184574D02*
X142524803Y-85188084D01*
X142548007Y-85193896D01*
X142570529Y-85201954D01*
X142592153Y-85212182D01*
X142612670Y-85224479D01*
X142631883Y-85238729D01*
X142649607Y-85254793D01*
X142665671Y-85272517D01*
X142679921Y-85291730D01*
X142692218Y-85312247D01*
X142702446Y-85333871D01*
X142710504Y-85356393D01*
X142716316Y-85379597D01*
X142719826Y-85403258D01*
X142721000Y-85427150D01*
X142721000Y-86339650D01*
X142719826Y-86363542D01*
X142716316Y-86387203D01*
X142710504Y-86410407D01*
X142702446Y-86432929D01*
X142692218Y-86454553D01*
X142679921Y-86475070D01*
X142665671Y-86494283D01*
X142649607Y-86512007D01*
X142631883Y-86528071D01*
X142612670Y-86542321D01*
X142592153Y-86554618D01*
X142570529Y-86564846D01*
X142548007Y-86572904D01*
X142524803Y-86578716D01*
X142501142Y-86582226D01*
X142477250Y-86583400D01*
X141989750Y-86583400D01*
X141965858Y-86582226D01*
X141942197Y-86578716D01*
X141918993Y-86572904D01*
X141896471Y-86564846D01*
X141874847Y-86554618D01*
X141854330Y-86542321D01*
X141835117Y-86528071D01*
X141817393Y-86512007D01*
X141801329Y-86494283D01*
X141787079Y-86475070D01*
X141774782Y-86454553D01*
X141764554Y-86432929D01*
X141756496Y-86410407D01*
X141750684Y-86387203D01*
X141747174Y-86363542D01*
X141746000Y-86339650D01*
X141746000Y-85427150D01*
X141747174Y-85403258D01*
X141750684Y-85379597D01*
X141756496Y-85356393D01*
X141764554Y-85333871D01*
X141774782Y-85312247D01*
X141787079Y-85291730D01*
X141801329Y-85272517D01*
X141817393Y-85254793D01*
X141835117Y-85238729D01*
X141854330Y-85224479D01*
X141874847Y-85212182D01*
X141896471Y-85201954D01*
X141918993Y-85193896D01*
X141942197Y-85188084D01*
X141965858Y-85184574D01*
X141989750Y-85183400D01*
X142477250Y-85183400D01*
X142501142Y-85184574D01*
X142501142Y-85184574D01*
G37*
D23*
X142233500Y-85883400D03*
D10*
G36*
X144376142Y-85184574D02*
X144399803Y-85188084D01*
X144423007Y-85193896D01*
X144445529Y-85201954D01*
X144467153Y-85212182D01*
X144487670Y-85224479D01*
X144506883Y-85238729D01*
X144524607Y-85254793D01*
X144540671Y-85272517D01*
X144554921Y-85291730D01*
X144567218Y-85312247D01*
X144577446Y-85333871D01*
X144585504Y-85356393D01*
X144591316Y-85379597D01*
X144594826Y-85403258D01*
X144596000Y-85427150D01*
X144596000Y-86339650D01*
X144594826Y-86363542D01*
X144591316Y-86387203D01*
X144585504Y-86410407D01*
X144577446Y-86432929D01*
X144567218Y-86454553D01*
X144554921Y-86475070D01*
X144540671Y-86494283D01*
X144524607Y-86512007D01*
X144506883Y-86528071D01*
X144487670Y-86542321D01*
X144467153Y-86554618D01*
X144445529Y-86564846D01*
X144423007Y-86572904D01*
X144399803Y-86578716D01*
X144376142Y-86582226D01*
X144352250Y-86583400D01*
X143864750Y-86583400D01*
X143840858Y-86582226D01*
X143817197Y-86578716D01*
X143793993Y-86572904D01*
X143771471Y-86564846D01*
X143749847Y-86554618D01*
X143729330Y-86542321D01*
X143710117Y-86528071D01*
X143692393Y-86512007D01*
X143676329Y-86494283D01*
X143662079Y-86475070D01*
X143649782Y-86454553D01*
X143639554Y-86432929D01*
X143631496Y-86410407D01*
X143625684Y-86387203D01*
X143622174Y-86363542D01*
X143621000Y-86339650D01*
X143621000Y-85427150D01*
X143622174Y-85403258D01*
X143625684Y-85379597D01*
X143631496Y-85356393D01*
X143639554Y-85333871D01*
X143649782Y-85312247D01*
X143662079Y-85291730D01*
X143676329Y-85272517D01*
X143692393Y-85254793D01*
X143710117Y-85238729D01*
X143729330Y-85224479D01*
X143749847Y-85212182D01*
X143771471Y-85201954D01*
X143793993Y-85193896D01*
X143817197Y-85188084D01*
X143840858Y-85184574D01*
X143864750Y-85183400D01*
X144352250Y-85183400D01*
X144376142Y-85184574D01*
X144376142Y-85184574D01*
G37*
D23*
X144108500Y-85883400D03*
G04 #@! TD*
D10*
G04 #@! TO.C,C8*
G36*
X132872142Y-88752174D02*
X132895803Y-88755684D01*
X132919007Y-88761496D01*
X132941529Y-88769554D01*
X132963153Y-88779782D01*
X132983670Y-88792079D01*
X133002883Y-88806329D01*
X133020607Y-88822393D01*
X133036671Y-88840117D01*
X133050921Y-88859330D01*
X133063218Y-88879847D01*
X133073446Y-88901471D01*
X133081504Y-88923993D01*
X133087316Y-88947197D01*
X133090826Y-88970858D01*
X133092000Y-88994750D01*
X133092000Y-89482250D01*
X133090826Y-89506142D01*
X133087316Y-89529803D01*
X133081504Y-89553007D01*
X133073446Y-89575529D01*
X133063218Y-89597153D01*
X133050921Y-89617670D01*
X133036671Y-89636883D01*
X133020607Y-89654607D01*
X133002883Y-89670671D01*
X132983670Y-89684921D01*
X132963153Y-89697218D01*
X132941529Y-89707446D01*
X132919007Y-89715504D01*
X132895803Y-89721316D01*
X132872142Y-89724826D01*
X132848250Y-89726000D01*
X131935750Y-89726000D01*
X131911858Y-89724826D01*
X131888197Y-89721316D01*
X131864993Y-89715504D01*
X131842471Y-89707446D01*
X131820847Y-89697218D01*
X131800330Y-89684921D01*
X131781117Y-89670671D01*
X131763393Y-89654607D01*
X131747329Y-89636883D01*
X131733079Y-89617670D01*
X131720782Y-89597153D01*
X131710554Y-89575529D01*
X131702496Y-89553007D01*
X131696684Y-89529803D01*
X131693174Y-89506142D01*
X131692000Y-89482250D01*
X131692000Y-88994750D01*
X131693174Y-88970858D01*
X131696684Y-88947197D01*
X131702496Y-88923993D01*
X131710554Y-88901471D01*
X131720782Y-88879847D01*
X131733079Y-88859330D01*
X131747329Y-88840117D01*
X131763393Y-88822393D01*
X131781117Y-88806329D01*
X131800330Y-88792079D01*
X131820847Y-88779782D01*
X131842471Y-88769554D01*
X131864993Y-88761496D01*
X131888197Y-88755684D01*
X131911858Y-88752174D01*
X131935750Y-88751000D01*
X132848250Y-88751000D01*
X132872142Y-88752174D01*
X132872142Y-88752174D01*
G37*
D23*
X132392000Y-89238500D03*
D10*
G36*
X132872142Y-90627174D02*
X132895803Y-90630684D01*
X132919007Y-90636496D01*
X132941529Y-90644554D01*
X132963153Y-90654782D01*
X132983670Y-90667079D01*
X133002883Y-90681329D01*
X133020607Y-90697393D01*
X133036671Y-90715117D01*
X133050921Y-90734330D01*
X133063218Y-90754847D01*
X133073446Y-90776471D01*
X133081504Y-90798993D01*
X133087316Y-90822197D01*
X133090826Y-90845858D01*
X133092000Y-90869750D01*
X133092000Y-91357250D01*
X133090826Y-91381142D01*
X133087316Y-91404803D01*
X133081504Y-91428007D01*
X133073446Y-91450529D01*
X133063218Y-91472153D01*
X133050921Y-91492670D01*
X133036671Y-91511883D01*
X133020607Y-91529607D01*
X133002883Y-91545671D01*
X132983670Y-91559921D01*
X132963153Y-91572218D01*
X132941529Y-91582446D01*
X132919007Y-91590504D01*
X132895803Y-91596316D01*
X132872142Y-91599826D01*
X132848250Y-91601000D01*
X131935750Y-91601000D01*
X131911858Y-91599826D01*
X131888197Y-91596316D01*
X131864993Y-91590504D01*
X131842471Y-91582446D01*
X131820847Y-91572218D01*
X131800330Y-91559921D01*
X131781117Y-91545671D01*
X131763393Y-91529607D01*
X131747329Y-91511883D01*
X131733079Y-91492670D01*
X131720782Y-91472153D01*
X131710554Y-91450529D01*
X131702496Y-91428007D01*
X131696684Y-91404803D01*
X131693174Y-91381142D01*
X131692000Y-91357250D01*
X131692000Y-90869750D01*
X131693174Y-90845858D01*
X131696684Y-90822197D01*
X131702496Y-90798993D01*
X131710554Y-90776471D01*
X131720782Y-90754847D01*
X131733079Y-90734330D01*
X131747329Y-90715117D01*
X131763393Y-90697393D01*
X131781117Y-90681329D01*
X131800330Y-90667079D01*
X131820847Y-90654782D01*
X131842471Y-90644554D01*
X131864993Y-90636496D01*
X131888197Y-90630684D01*
X131911858Y-90627174D01*
X131935750Y-90626000D01*
X132848250Y-90626000D01*
X132872142Y-90627174D01*
X132872142Y-90627174D01*
G37*
D23*
X132392000Y-91113500D03*
G04 #@! TD*
D10*
G04 #@! TO.C,C9*
G36*
X147057142Y-95791174D02*
X147080803Y-95794684D01*
X147104007Y-95800496D01*
X147126529Y-95808554D01*
X147148153Y-95818782D01*
X147168670Y-95831079D01*
X147187883Y-95845329D01*
X147205607Y-95861393D01*
X147221671Y-95879117D01*
X147235921Y-95898330D01*
X147248218Y-95918847D01*
X147258446Y-95940471D01*
X147266504Y-95962993D01*
X147272316Y-95986197D01*
X147275826Y-96009858D01*
X147277000Y-96033750D01*
X147277000Y-96521250D01*
X147275826Y-96545142D01*
X147272316Y-96568803D01*
X147266504Y-96592007D01*
X147258446Y-96614529D01*
X147248218Y-96636153D01*
X147235921Y-96656670D01*
X147221671Y-96675883D01*
X147205607Y-96693607D01*
X147187883Y-96709671D01*
X147168670Y-96723921D01*
X147148153Y-96736218D01*
X147126529Y-96746446D01*
X147104007Y-96754504D01*
X147080803Y-96760316D01*
X147057142Y-96763826D01*
X147033250Y-96765000D01*
X146120750Y-96765000D01*
X146096858Y-96763826D01*
X146073197Y-96760316D01*
X146049993Y-96754504D01*
X146027471Y-96746446D01*
X146005847Y-96736218D01*
X145985330Y-96723921D01*
X145966117Y-96709671D01*
X145948393Y-96693607D01*
X145932329Y-96675883D01*
X145918079Y-96656670D01*
X145905782Y-96636153D01*
X145895554Y-96614529D01*
X145887496Y-96592007D01*
X145881684Y-96568803D01*
X145878174Y-96545142D01*
X145877000Y-96521250D01*
X145877000Y-96033750D01*
X145878174Y-96009858D01*
X145881684Y-95986197D01*
X145887496Y-95962993D01*
X145895554Y-95940471D01*
X145905782Y-95918847D01*
X145918079Y-95898330D01*
X145932329Y-95879117D01*
X145948393Y-95861393D01*
X145966117Y-95845329D01*
X145985330Y-95831079D01*
X146005847Y-95818782D01*
X146027471Y-95808554D01*
X146049993Y-95800496D01*
X146073197Y-95794684D01*
X146096858Y-95791174D01*
X146120750Y-95790000D01*
X147033250Y-95790000D01*
X147057142Y-95791174D01*
X147057142Y-95791174D01*
G37*
D23*
X146577000Y-96277500D03*
D10*
G36*
X147057142Y-97666174D02*
X147080803Y-97669684D01*
X147104007Y-97675496D01*
X147126529Y-97683554D01*
X147148153Y-97693782D01*
X147168670Y-97706079D01*
X147187883Y-97720329D01*
X147205607Y-97736393D01*
X147221671Y-97754117D01*
X147235921Y-97773330D01*
X147248218Y-97793847D01*
X147258446Y-97815471D01*
X147266504Y-97837993D01*
X147272316Y-97861197D01*
X147275826Y-97884858D01*
X147277000Y-97908750D01*
X147277000Y-98396250D01*
X147275826Y-98420142D01*
X147272316Y-98443803D01*
X147266504Y-98467007D01*
X147258446Y-98489529D01*
X147248218Y-98511153D01*
X147235921Y-98531670D01*
X147221671Y-98550883D01*
X147205607Y-98568607D01*
X147187883Y-98584671D01*
X147168670Y-98598921D01*
X147148153Y-98611218D01*
X147126529Y-98621446D01*
X147104007Y-98629504D01*
X147080803Y-98635316D01*
X147057142Y-98638826D01*
X147033250Y-98640000D01*
X146120750Y-98640000D01*
X146096858Y-98638826D01*
X146073197Y-98635316D01*
X146049993Y-98629504D01*
X146027471Y-98621446D01*
X146005847Y-98611218D01*
X145985330Y-98598921D01*
X145966117Y-98584671D01*
X145948393Y-98568607D01*
X145932329Y-98550883D01*
X145918079Y-98531670D01*
X145905782Y-98511153D01*
X145895554Y-98489529D01*
X145887496Y-98467007D01*
X145881684Y-98443803D01*
X145878174Y-98420142D01*
X145877000Y-98396250D01*
X145877000Y-97908750D01*
X145878174Y-97884858D01*
X145881684Y-97861197D01*
X145887496Y-97837993D01*
X145895554Y-97815471D01*
X145905782Y-97793847D01*
X145918079Y-97773330D01*
X145932329Y-97754117D01*
X145948393Y-97736393D01*
X145966117Y-97720329D01*
X145985330Y-97706079D01*
X146005847Y-97693782D01*
X146027471Y-97683554D01*
X146049993Y-97675496D01*
X146073197Y-97669684D01*
X146096858Y-97666174D01*
X146120750Y-97665000D01*
X147033250Y-97665000D01*
X147057142Y-97666174D01*
X147057142Y-97666174D01*
G37*
D23*
X146577000Y-98152500D03*
G04 #@! TD*
D10*
G04 #@! TO.C,C10*
G36*
X147654942Y-86867974D02*
X147678603Y-86871484D01*
X147701807Y-86877296D01*
X147724329Y-86885354D01*
X147745953Y-86895582D01*
X147766470Y-86907879D01*
X147785683Y-86922129D01*
X147803407Y-86938193D01*
X147819471Y-86955917D01*
X147833721Y-86975130D01*
X147846018Y-86995647D01*
X147856246Y-87017271D01*
X147864304Y-87039793D01*
X147870116Y-87062997D01*
X147873626Y-87086658D01*
X147874800Y-87110550D01*
X147874800Y-87598050D01*
X147873626Y-87621942D01*
X147870116Y-87645603D01*
X147864304Y-87668807D01*
X147856246Y-87691329D01*
X147846018Y-87712953D01*
X147833721Y-87733470D01*
X147819471Y-87752683D01*
X147803407Y-87770407D01*
X147785683Y-87786471D01*
X147766470Y-87800721D01*
X147745953Y-87813018D01*
X147724329Y-87823246D01*
X147701807Y-87831304D01*
X147678603Y-87837116D01*
X147654942Y-87840626D01*
X147631050Y-87841800D01*
X146718550Y-87841800D01*
X146694658Y-87840626D01*
X146670997Y-87837116D01*
X146647793Y-87831304D01*
X146625271Y-87823246D01*
X146603647Y-87813018D01*
X146583130Y-87800721D01*
X146563917Y-87786471D01*
X146546193Y-87770407D01*
X146530129Y-87752683D01*
X146515879Y-87733470D01*
X146503582Y-87712953D01*
X146493354Y-87691329D01*
X146485296Y-87668807D01*
X146479484Y-87645603D01*
X146475974Y-87621942D01*
X146474800Y-87598050D01*
X146474800Y-87110550D01*
X146475974Y-87086658D01*
X146479484Y-87062997D01*
X146485296Y-87039793D01*
X146493354Y-87017271D01*
X146503582Y-86995647D01*
X146515879Y-86975130D01*
X146530129Y-86955917D01*
X146546193Y-86938193D01*
X146563917Y-86922129D01*
X146583130Y-86907879D01*
X146603647Y-86895582D01*
X146625271Y-86885354D01*
X146647793Y-86877296D01*
X146670997Y-86871484D01*
X146694658Y-86867974D01*
X146718550Y-86866800D01*
X147631050Y-86866800D01*
X147654942Y-86867974D01*
X147654942Y-86867974D01*
G37*
D23*
X147174800Y-87354300D03*
D10*
G36*
X147654942Y-84992974D02*
X147678603Y-84996484D01*
X147701807Y-85002296D01*
X147724329Y-85010354D01*
X147745953Y-85020582D01*
X147766470Y-85032879D01*
X147785683Y-85047129D01*
X147803407Y-85063193D01*
X147819471Y-85080917D01*
X147833721Y-85100130D01*
X147846018Y-85120647D01*
X147856246Y-85142271D01*
X147864304Y-85164793D01*
X147870116Y-85187997D01*
X147873626Y-85211658D01*
X147874800Y-85235550D01*
X147874800Y-85723050D01*
X147873626Y-85746942D01*
X147870116Y-85770603D01*
X147864304Y-85793807D01*
X147856246Y-85816329D01*
X147846018Y-85837953D01*
X147833721Y-85858470D01*
X147819471Y-85877683D01*
X147803407Y-85895407D01*
X147785683Y-85911471D01*
X147766470Y-85925721D01*
X147745953Y-85938018D01*
X147724329Y-85948246D01*
X147701807Y-85956304D01*
X147678603Y-85962116D01*
X147654942Y-85965626D01*
X147631050Y-85966800D01*
X146718550Y-85966800D01*
X146694658Y-85965626D01*
X146670997Y-85962116D01*
X146647793Y-85956304D01*
X146625271Y-85948246D01*
X146603647Y-85938018D01*
X146583130Y-85925721D01*
X146563917Y-85911471D01*
X146546193Y-85895407D01*
X146530129Y-85877683D01*
X146515879Y-85858470D01*
X146503582Y-85837953D01*
X146493354Y-85816329D01*
X146485296Y-85793807D01*
X146479484Y-85770603D01*
X146475974Y-85746942D01*
X146474800Y-85723050D01*
X146474800Y-85235550D01*
X146475974Y-85211658D01*
X146479484Y-85187997D01*
X146485296Y-85164793D01*
X146493354Y-85142271D01*
X146503582Y-85120647D01*
X146515879Y-85100130D01*
X146530129Y-85080917D01*
X146546193Y-85063193D01*
X146563917Y-85047129D01*
X146583130Y-85032879D01*
X146603647Y-85020582D01*
X146625271Y-85010354D01*
X146647793Y-85002296D01*
X146670997Y-84996484D01*
X146694658Y-84992974D01*
X146718550Y-84991800D01*
X147631050Y-84991800D01*
X147654942Y-84992974D01*
X147654942Y-84992974D01*
G37*
D23*
X147174800Y-85479300D03*
G04 #@! TD*
D10*
G04 #@! TO.C,C11*
G36*
X149737742Y-84967574D02*
X149761403Y-84971084D01*
X149784607Y-84976896D01*
X149807129Y-84984954D01*
X149828753Y-84995182D01*
X149849270Y-85007479D01*
X149868483Y-85021729D01*
X149886207Y-85037793D01*
X149902271Y-85055517D01*
X149916521Y-85074730D01*
X149928818Y-85095247D01*
X149939046Y-85116871D01*
X149947104Y-85139393D01*
X149952916Y-85162597D01*
X149956426Y-85186258D01*
X149957600Y-85210150D01*
X149957600Y-85697650D01*
X149956426Y-85721542D01*
X149952916Y-85745203D01*
X149947104Y-85768407D01*
X149939046Y-85790929D01*
X149928818Y-85812553D01*
X149916521Y-85833070D01*
X149902271Y-85852283D01*
X149886207Y-85870007D01*
X149868483Y-85886071D01*
X149849270Y-85900321D01*
X149828753Y-85912618D01*
X149807129Y-85922846D01*
X149784607Y-85930904D01*
X149761403Y-85936716D01*
X149737742Y-85940226D01*
X149713850Y-85941400D01*
X148801350Y-85941400D01*
X148777458Y-85940226D01*
X148753797Y-85936716D01*
X148730593Y-85930904D01*
X148708071Y-85922846D01*
X148686447Y-85912618D01*
X148665930Y-85900321D01*
X148646717Y-85886071D01*
X148628993Y-85870007D01*
X148612929Y-85852283D01*
X148598679Y-85833070D01*
X148586382Y-85812553D01*
X148576154Y-85790929D01*
X148568096Y-85768407D01*
X148562284Y-85745203D01*
X148558774Y-85721542D01*
X148557600Y-85697650D01*
X148557600Y-85210150D01*
X148558774Y-85186258D01*
X148562284Y-85162597D01*
X148568096Y-85139393D01*
X148576154Y-85116871D01*
X148586382Y-85095247D01*
X148598679Y-85074730D01*
X148612929Y-85055517D01*
X148628993Y-85037793D01*
X148646717Y-85021729D01*
X148665930Y-85007479D01*
X148686447Y-84995182D01*
X148708071Y-84984954D01*
X148730593Y-84976896D01*
X148753797Y-84971084D01*
X148777458Y-84967574D01*
X148801350Y-84966400D01*
X149713850Y-84966400D01*
X149737742Y-84967574D01*
X149737742Y-84967574D01*
G37*
D23*
X149257600Y-85453900D03*
D10*
G36*
X149737742Y-86842574D02*
X149761403Y-86846084D01*
X149784607Y-86851896D01*
X149807129Y-86859954D01*
X149828753Y-86870182D01*
X149849270Y-86882479D01*
X149868483Y-86896729D01*
X149886207Y-86912793D01*
X149902271Y-86930517D01*
X149916521Y-86949730D01*
X149928818Y-86970247D01*
X149939046Y-86991871D01*
X149947104Y-87014393D01*
X149952916Y-87037597D01*
X149956426Y-87061258D01*
X149957600Y-87085150D01*
X149957600Y-87572650D01*
X149956426Y-87596542D01*
X149952916Y-87620203D01*
X149947104Y-87643407D01*
X149939046Y-87665929D01*
X149928818Y-87687553D01*
X149916521Y-87708070D01*
X149902271Y-87727283D01*
X149886207Y-87745007D01*
X149868483Y-87761071D01*
X149849270Y-87775321D01*
X149828753Y-87787618D01*
X149807129Y-87797846D01*
X149784607Y-87805904D01*
X149761403Y-87811716D01*
X149737742Y-87815226D01*
X149713850Y-87816400D01*
X148801350Y-87816400D01*
X148777458Y-87815226D01*
X148753797Y-87811716D01*
X148730593Y-87805904D01*
X148708071Y-87797846D01*
X148686447Y-87787618D01*
X148665930Y-87775321D01*
X148646717Y-87761071D01*
X148628993Y-87745007D01*
X148612929Y-87727283D01*
X148598679Y-87708070D01*
X148586382Y-87687553D01*
X148576154Y-87665929D01*
X148568096Y-87643407D01*
X148562284Y-87620203D01*
X148558774Y-87596542D01*
X148557600Y-87572650D01*
X148557600Y-87085150D01*
X148558774Y-87061258D01*
X148562284Y-87037597D01*
X148568096Y-87014393D01*
X148576154Y-86991871D01*
X148586382Y-86970247D01*
X148598679Y-86949730D01*
X148612929Y-86930517D01*
X148628993Y-86912793D01*
X148646717Y-86896729D01*
X148665930Y-86882479D01*
X148686447Y-86870182D01*
X148708071Y-86859954D01*
X148730593Y-86851896D01*
X148753797Y-86846084D01*
X148777458Y-86842574D01*
X148801350Y-86841400D01*
X149713850Y-86841400D01*
X149737742Y-86842574D01*
X149737742Y-86842574D01*
G37*
D23*
X149257600Y-87328900D03*
G04 #@! TD*
D10*
G04 #@! TO.C,C12*
G36*
X147731142Y-93243374D02*
X147754803Y-93246884D01*
X147778007Y-93252696D01*
X147800529Y-93260754D01*
X147822153Y-93270982D01*
X147842670Y-93283279D01*
X147861883Y-93297529D01*
X147879607Y-93313593D01*
X147895671Y-93331317D01*
X147909921Y-93350530D01*
X147922218Y-93371047D01*
X147932446Y-93392671D01*
X147940504Y-93415193D01*
X147946316Y-93438397D01*
X147949826Y-93462058D01*
X147951000Y-93485950D01*
X147951000Y-93973450D01*
X147949826Y-93997342D01*
X147946316Y-94021003D01*
X147940504Y-94044207D01*
X147932446Y-94066729D01*
X147922218Y-94088353D01*
X147909921Y-94108870D01*
X147895671Y-94128083D01*
X147879607Y-94145807D01*
X147861883Y-94161871D01*
X147842670Y-94176121D01*
X147822153Y-94188418D01*
X147800529Y-94198646D01*
X147778007Y-94206704D01*
X147754803Y-94212516D01*
X147731142Y-94216026D01*
X147707250Y-94217200D01*
X146794750Y-94217200D01*
X146770858Y-94216026D01*
X146747197Y-94212516D01*
X146723993Y-94206704D01*
X146701471Y-94198646D01*
X146679847Y-94188418D01*
X146659330Y-94176121D01*
X146640117Y-94161871D01*
X146622393Y-94145807D01*
X146606329Y-94128083D01*
X146592079Y-94108870D01*
X146579782Y-94088353D01*
X146569554Y-94066729D01*
X146561496Y-94044207D01*
X146555684Y-94021003D01*
X146552174Y-93997342D01*
X146551000Y-93973450D01*
X146551000Y-93485950D01*
X146552174Y-93462058D01*
X146555684Y-93438397D01*
X146561496Y-93415193D01*
X146569554Y-93392671D01*
X146579782Y-93371047D01*
X146592079Y-93350530D01*
X146606329Y-93331317D01*
X146622393Y-93313593D01*
X146640117Y-93297529D01*
X146659330Y-93283279D01*
X146679847Y-93270982D01*
X146701471Y-93260754D01*
X146723993Y-93252696D01*
X146747197Y-93246884D01*
X146770858Y-93243374D01*
X146794750Y-93242200D01*
X147707250Y-93242200D01*
X147731142Y-93243374D01*
X147731142Y-93243374D01*
G37*
D23*
X147251000Y-93729700D03*
D10*
G36*
X147731142Y-91368374D02*
X147754803Y-91371884D01*
X147778007Y-91377696D01*
X147800529Y-91385754D01*
X147822153Y-91395982D01*
X147842670Y-91408279D01*
X147861883Y-91422529D01*
X147879607Y-91438593D01*
X147895671Y-91456317D01*
X147909921Y-91475530D01*
X147922218Y-91496047D01*
X147932446Y-91517671D01*
X147940504Y-91540193D01*
X147946316Y-91563397D01*
X147949826Y-91587058D01*
X147951000Y-91610950D01*
X147951000Y-92098450D01*
X147949826Y-92122342D01*
X147946316Y-92146003D01*
X147940504Y-92169207D01*
X147932446Y-92191729D01*
X147922218Y-92213353D01*
X147909921Y-92233870D01*
X147895671Y-92253083D01*
X147879607Y-92270807D01*
X147861883Y-92286871D01*
X147842670Y-92301121D01*
X147822153Y-92313418D01*
X147800529Y-92323646D01*
X147778007Y-92331704D01*
X147754803Y-92337516D01*
X147731142Y-92341026D01*
X147707250Y-92342200D01*
X146794750Y-92342200D01*
X146770858Y-92341026D01*
X146747197Y-92337516D01*
X146723993Y-92331704D01*
X146701471Y-92323646D01*
X146679847Y-92313418D01*
X146659330Y-92301121D01*
X146640117Y-92286871D01*
X146622393Y-92270807D01*
X146606329Y-92253083D01*
X146592079Y-92233870D01*
X146579782Y-92213353D01*
X146569554Y-92191729D01*
X146561496Y-92169207D01*
X146555684Y-92146003D01*
X146552174Y-92122342D01*
X146551000Y-92098450D01*
X146551000Y-91610950D01*
X146552174Y-91587058D01*
X146555684Y-91563397D01*
X146561496Y-91540193D01*
X146569554Y-91517671D01*
X146579782Y-91496047D01*
X146592079Y-91475530D01*
X146606329Y-91456317D01*
X146622393Y-91438593D01*
X146640117Y-91422529D01*
X146659330Y-91408279D01*
X146679847Y-91395982D01*
X146701471Y-91385754D01*
X146723993Y-91377696D01*
X146747197Y-91371884D01*
X146770858Y-91368374D01*
X146794750Y-91367200D01*
X147707250Y-91367200D01*
X147731142Y-91368374D01*
X147731142Y-91368374D01*
G37*
D23*
X147251000Y-91854700D03*
G04 #@! TD*
D10*
G04 #@! TO.C,C14*
G36*
X129443142Y-104169974D02*
X129466803Y-104173484D01*
X129490007Y-104179296D01*
X129512529Y-104187354D01*
X129534153Y-104197582D01*
X129554670Y-104209879D01*
X129573883Y-104224129D01*
X129591607Y-104240193D01*
X129607671Y-104257917D01*
X129621921Y-104277130D01*
X129634218Y-104297647D01*
X129644446Y-104319271D01*
X129652504Y-104341793D01*
X129658316Y-104364997D01*
X129661826Y-104388658D01*
X129663000Y-104412550D01*
X129663000Y-104900050D01*
X129661826Y-104923942D01*
X129658316Y-104947603D01*
X129652504Y-104970807D01*
X129644446Y-104993329D01*
X129634218Y-105014953D01*
X129621921Y-105035470D01*
X129607671Y-105054683D01*
X129591607Y-105072407D01*
X129573883Y-105088471D01*
X129554670Y-105102721D01*
X129534153Y-105115018D01*
X129512529Y-105125246D01*
X129490007Y-105133304D01*
X129466803Y-105139116D01*
X129443142Y-105142626D01*
X129419250Y-105143800D01*
X128506750Y-105143800D01*
X128482858Y-105142626D01*
X128459197Y-105139116D01*
X128435993Y-105133304D01*
X128413471Y-105125246D01*
X128391847Y-105115018D01*
X128371330Y-105102721D01*
X128352117Y-105088471D01*
X128334393Y-105072407D01*
X128318329Y-105054683D01*
X128304079Y-105035470D01*
X128291782Y-105014953D01*
X128281554Y-104993329D01*
X128273496Y-104970807D01*
X128267684Y-104947603D01*
X128264174Y-104923942D01*
X128263000Y-104900050D01*
X128263000Y-104412550D01*
X128264174Y-104388658D01*
X128267684Y-104364997D01*
X128273496Y-104341793D01*
X128281554Y-104319271D01*
X128291782Y-104297647D01*
X128304079Y-104277130D01*
X128318329Y-104257917D01*
X128334393Y-104240193D01*
X128352117Y-104224129D01*
X128371330Y-104209879D01*
X128391847Y-104197582D01*
X128413471Y-104187354D01*
X128435993Y-104179296D01*
X128459197Y-104173484D01*
X128482858Y-104169974D01*
X128506750Y-104168800D01*
X129419250Y-104168800D01*
X129443142Y-104169974D01*
X129443142Y-104169974D01*
G37*
D23*
X128963000Y-104656300D03*
D10*
G36*
X129443142Y-106044974D02*
X129466803Y-106048484D01*
X129490007Y-106054296D01*
X129512529Y-106062354D01*
X129534153Y-106072582D01*
X129554670Y-106084879D01*
X129573883Y-106099129D01*
X129591607Y-106115193D01*
X129607671Y-106132917D01*
X129621921Y-106152130D01*
X129634218Y-106172647D01*
X129644446Y-106194271D01*
X129652504Y-106216793D01*
X129658316Y-106239997D01*
X129661826Y-106263658D01*
X129663000Y-106287550D01*
X129663000Y-106775050D01*
X129661826Y-106798942D01*
X129658316Y-106822603D01*
X129652504Y-106845807D01*
X129644446Y-106868329D01*
X129634218Y-106889953D01*
X129621921Y-106910470D01*
X129607671Y-106929683D01*
X129591607Y-106947407D01*
X129573883Y-106963471D01*
X129554670Y-106977721D01*
X129534153Y-106990018D01*
X129512529Y-107000246D01*
X129490007Y-107008304D01*
X129466803Y-107014116D01*
X129443142Y-107017626D01*
X129419250Y-107018800D01*
X128506750Y-107018800D01*
X128482858Y-107017626D01*
X128459197Y-107014116D01*
X128435993Y-107008304D01*
X128413471Y-107000246D01*
X128391847Y-106990018D01*
X128371330Y-106977721D01*
X128352117Y-106963471D01*
X128334393Y-106947407D01*
X128318329Y-106929683D01*
X128304079Y-106910470D01*
X128291782Y-106889953D01*
X128281554Y-106868329D01*
X128273496Y-106845807D01*
X128267684Y-106822603D01*
X128264174Y-106798942D01*
X128263000Y-106775050D01*
X128263000Y-106287550D01*
X128264174Y-106263658D01*
X128267684Y-106239997D01*
X128273496Y-106216793D01*
X128281554Y-106194271D01*
X128291782Y-106172647D01*
X128304079Y-106152130D01*
X128318329Y-106132917D01*
X128334393Y-106115193D01*
X128352117Y-106099129D01*
X128371330Y-106084879D01*
X128391847Y-106072582D01*
X128413471Y-106062354D01*
X128435993Y-106054296D01*
X128459197Y-106048484D01*
X128482858Y-106044974D01*
X128506750Y-106043800D01*
X129419250Y-106043800D01*
X129443142Y-106044974D01*
X129443142Y-106044974D01*
G37*
D23*
X128963000Y-106531300D03*
G04 #@! TD*
D10*
G04 #@! TO.C,C15*
G36*
X155097142Y-103230174D02*
X155120803Y-103233684D01*
X155144007Y-103239496D01*
X155166529Y-103247554D01*
X155188153Y-103257782D01*
X155208670Y-103270079D01*
X155227883Y-103284329D01*
X155245607Y-103300393D01*
X155261671Y-103318117D01*
X155275921Y-103337330D01*
X155288218Y-103357847D01*
X155298446Y-103379471D01*
X155306504Y-103401993D01*
X155312316Y-103425197D01*
X155315826Y-103448858D01*
X155317000Y-103472750D01*
X155317000Y-103960250D01*
X155315826Y-103984142D01*
X155312316Y-104007803D01*
X155306504Y-104031007D01*
X155298446Y-104053529D01*
X155288218Y-104075153D01*
X155275921Y-104095670D01*
X155261671Y-104114883D01*
X155245607Y-104132607D01*
X155227883Y-104148671D01*
X155208670Y-104162921D01*
X155188153Y-104175218D01*
X155166529Y-104185446D01*
X155144007Y-104193504D01*
X155120803Y-104199316D01*
X155097142Y-104202826D01*
X155073250Y-104204000D01*
X154160750Y-104204000D01*
X154136858Y-104202826D01*
X154113197Y-104199316D01*
X154089993Y-104193504D01*
X154067471Y-104185446D01*
X154045847Y-104175218D01*
X154025330Y-104162921D01*
X154006117Y-104148671D01*
X153988393Y-104132607D01*
X153972329Y-104114883D01*
X153958079Y-104095670D01*
X153945782Y-104075153D01*
X153935554Y-104053529D01*
X153927496Y-104031007D01*
X153921684Y-104007803D01*
X153918174Y-103984142D01*
X153917000Y-103960250D01*
X153917000Y-103472750D01*
X153918174Y-103448858D01*
X153921684Y-103425197D01*
X153927496Y-103401993D01*
X153935554Y-103379471D01*
X153945782Y-103357847D01*
X153958079Y-103337330D01*
X153972329Y-103318117D01*
X153988393Y-103300393D01*
X154006117Y-103284329D01*
X154025330Y-103270079D01*
X154045847Y-103257782D01*
X154067471Y-103247554D01*
X154089993Y-103239496D01*
X154113197Y-103233684D01*
X154136858Y-103230174D01*
X154160750Y-103229000D01*
X155073250Y-103229000D01*
X155097142Y-103230174D01*
X155097142Y-103230174D01*
G37*
D23*
X154617000Y-103716500D03*
D10*
G36*
X155097142Y-105105174D02*
X155120803Y-105108684D01*
X155144007Y-105114496D01*
X155166529Y-105122554D01*
X155188153Y-105132782D01*
X155208670Y-105145079D01*
X155227883Y-105159329D01*
X155245607Y-105175393D01*
X155261671Y-105193117D01*
X155275921Y-105212330D01*
X155288218Y-105232847D01*
X155298446Y-105254471D01*
X155306504Y-105276993D01*
X155312316Y-105300197D01*
X155315826Y-105323858D01*
X155317000Y-105347750D01*
X155317000Y-105835250D01*
X155315826Y-105859142D01*
X155312316Y-105882803D01*
X155306504Y-105906007D01*
X155298446Y-105928529D01*
X155288218Y-105950153D01*
X155275921Y-105970670D01*
X155261671Y-105989883D01*
X155245607Y-106007607D01*
X155227883Y-106023671D01*
X155208670Y-106037921D01*
X155188153Y-106050218D01*
X155166529Y-106060446D01*
X155144007Y-106068504D01*
X155120803Y-106074316D01*
X155097142Y-106077826D01*
X155073250Y-106079000D01*
X154160750Y-106079000D01*
X154136858Y-106077826D01*
X154113197Y-106074316D01*
X154089993Y-106068504D01*
X154067471Y-106060446D01*
X154045847Y-106050218D01*
X154025330Y-106037921D01*
X154006117Y-106023671D01*
X153988393Y-106007607D01*
X153972329Y-105989883D01*
X153958079Y-105970670D01*
X153945782Y-105950153D01*
X153935554Y-105928529D01*
X153927496Y-105906007D01*
X153921684Y-105882803D01*
X153918174Y-105859142D01*
X153917000Y-105835250D01*
X153917000Y-105347750D01*
X153918174Y-105323858D01*
X153921684Y-105300197D01*
X153927496Y-105276993D01*
X153935554Y-105254471D01*
X153945782Y-105232847D01*
X153958079Y-105212330D01*
X153972329Y-105193117D01*
X153988393Y-105175393D01*
X154006117Y-105159329D01*
X154025330Y-105145079D01*
X154045847Y-105132782D01*
X154067471Y-105122554D01*
X154089993Y-105114496D01*
X154113197Y-105108684D01*
X154136858Y-105105174D01*
X154160750Y-105104000D01*
X155073250Y-105104000D01*
X155097142Y-105105174D01*
X155097142Y-105105174D01*
G37*
D23*
X154617000Y-105591500D03*
G04 #@! TD*
D10*
G04 #@! TO.C,C16*
G36*
X129493942Y-110032774D02*
X129517603Y-110036284D01*
X129540807Y-110042096D01*
X129563329Y-110050154D01*
X129584953Y-110060382D01*
X129605470Y-110072679D01*
X129624683Y-110086929D01*
X129642407Y-110102993D01*
X129658471Y-110120717D01*
X129672721Y-110139930D01*
X129685018Y-110160447D01*
X129695246Y-110182071D01*
X129703304Y-110204593D01*
X129709116Y-110227797D01*
X129712626Y-110251458D01*
X129713800Y-110275350D01*
X129713800Y-110762850D01*
X129712626Y-110786742D01*
X129709116Y-110810403D01*
X129703304Y-110833607D01*
X129695246Y-110856129D01*
X129685018Y-110877753D01*
X129672721Y-110898270D01*
X129658471Y-110917483D01*
X129642407Y-110935207D01*
X129624683Y-110951271D01*
X129605470Y-110965521D01*
X129584953Y-110977818D01*
X129563329Y-110988046D01*
X129540807Y-110996104D01*
X129517603Y-111001916D01*
X129493942Y-111005426D01*
X129470050Y-111006600D01*
X128557550Y-111006600D01*
X128533658Y-111005426D01*
X128509997Y-111001916D01*
X128486793Y-110996104D01*
X128464271Y-110988046D01*
X128442647Y-110977818D01*
X128422130Y-110965521D01*
X128402917Y-110951271D01*
X128385193Y-110935207D01*
X128369129Y-110917483D01*
X128354879Y-110898270D01*
X128342582Y-110877753D01*
X128332354Y-110856129D01*
X128324296Y-110833607D01*
X128318484Y-110810403D01*
X128314974Y-110786742D01*
X128313800Y-110762850D01*
X128313800Y-110275350D01*
X128314974Y-110251458D01*
X128318484Y-110227797D01*
X128324296Y-110204593D01*
X128332354Y-110182071D01*
X128342582Y-110160447D01*
X128354879Y-110139930D01*
X128369129Y-110120717D01*
X128385193Y-110102993D01*
X128402917Y-110086929D01*
X128422130Y-110072679D01*
X128442647Y-110060382D01*
X128464271Y-110050154D01*
X128486793Y-110042096D01*
X128509997Y-110036284D01*
X128533658Y-110032774D01*
X128557550Y-110031600D01*
X129470050Y-110031600D01*
X129493942Y-110032774D01*
X129493942Y-110032774D01*
G37*
D23*
X129013800Y-110519100D03*
D10*
G36*
X129493942Y-108157774D02*
X129517603Y-108161284D01*
X129540807Y-108167096D01*
X129563329Y-108175154D01*
X129584953Y-108185382D01*
X129605470Y-108197679D01*
X129624683Y-108211929D01*
X129642407Y-108227993D01*
X129658471Y-108245717D01*
X129672721Y-108264930D01*
X129685018Y-108285447D01*
X129695246Y-108307071D01*
X129703304Y-108329593D01*
X129709116Y-108352797D01*
X129712626Y-108376458D01*
X129713800Y-108400350D01*
X129713800Y-108887850D01*
X129712626Y-108911742D01*
X129709116Y-108935403D01*
X129703304Y-108958607D01*
X129695246Y-108981129D01*
X129685018Y-109002753D01*
X129672721Y-109023270D01*
X129658471Y-109042483D01*
X129642407Y-109060207D01*
X129624683Y-109076271D01*
X129605470Y-109090521D01*
X129584953Y-109102818D01*
X129563329Y-109113046D01*
X129540807Y-109121104D01*
X129517603Y-109126916D01*
X129493942Y-109130426D01*
X129470050Y-109131600D01*
X128557550Y-109131600D01*
X128533658Y-109130426D01*
X128509997Y-109126916D01*
X128486793Y-109121104D01*
X128464271Y-109113046D01*
X128442647Y-109102818D01*
X128422130Y-109090521D01*
X128402917Y-109076271D01*
X128385193Y-109060207D01*
X128369129Y-109042483D01*
X128354879Y-109023270D01*
X128342582Y-109002753D01*
X128332354Y-108981129D01*
X128324296Y-108958607D01*
X128318484Y-108935403D01*
X128314974Y-108911742D01*
X128313800Y-108887850D01*
X128313800Y-108400350D01*
X128314974Y-108376458D01*
X128318484Y-108352797D01*
X128324296Y-108329593D01*
X128332354Y-108307071D01*
X128342582Y-108285447D01*
X128354879Y-108264930D01*
X128369129Y-108245717D01*
X128385193Y-108227993D01*
X128402917Y-108211929D01*
X128422130Y-108197679D01*
X128442647Y-108185382D01*
X128464271Y-108175154D01*
X128486793Y-108167096D01*
X128509997Y-108161284D01*
X128533658Y-108157774D01*
X128557550Y-108156600D01*
X129470050Y-108156600D01*
X129493942Y-108157774D01*
X129493942Y-108157774D01*
G37*
D23*
X129013800Y-108644100D03*
G04 #@! TD*
D10*
G04 #@! TO.C,C17*
G36*
X155046342Y-107481374D02*
X155070003Y-107484884D01*
X155093207Y-107490696D01*
X155115729Y-107498754D01*
X155137353Y-107508982D01*
X155157870Y-107521279D01*
X155177083Y-107535529D01*
X155194807Y-107551593D01*
X155210871Y-107569317D01*
X155225121Y-107588530D01*
X155237418Y-107609047D01*
X155247646Y-107630671D01*
X155255704Y-107653193D01*
X155261516Y-107676397D01*
X155265026Y-107700058D01*
X155266200Y-107723950D01*
X155266200Y-108211450D01*
X155265026Y-108235342D01*
X155261516Y-108259003D01*
X155255704Y-108282207D01*
X155247646Y-108304729D01*
X155237418Y-108326353D01*
X155225121Y-108346870D01*
X155210871Y-108366083D01*
X155194807Y-108383807D01*
X155177083Y-108399871D01*
X155157870Y-108414121D01*
X155137353Y-108426418D01*
X155115729Y-108436646D01*
X155093207Y-108444704D01*
X155070003Y-108450516D01*
X155046342Y-108454026D01*
X155022450Y-108455200D01*
X154109950Y-108455200D01*
X154086058Y-108454026D01*
X154062397Y-108450516D01*
X154039193Y-108444704D01*
X154016671Y-108436646D01*
X153995047Y-108426418D01*
X153974530Y-108414121D01*
X153955317Y-108399871D01*
X153937593Y-108383807D01*
X153921529Y-108366083D01*
X153907279Y-108346870D01*
X153894982Y-108326353D01*
X153884754Y-108304729D01*
X153876696Y-108282207D01*
X153870884Y-108259003D01*
X153867374Y-108235342D01*
X153866200Y-108211450D01*
X153866200Y-107723950D01*
X153867374Y-107700058D01*
X153870884Y-107676397D01*
X153876696Y-107653193D01*
X153884754Y-107630671D01*
X153894982Y-107609047D01*
X153907279Y-107588530D01*
X153921529Y-107569317D01*
X153937593Y-107551593D01*
X153955317Y-107535529D01*
X153974530Y-107521279D01*
X153995047Y-107508982D01*
X154016671Y-107498754D01*
X154039193Y-107490696D01*
X154062397Y-107484884D01*
X154086058Y-107481374D01*
X154109950Y-107480200D01*
X155022450Y-107480200D01*
X155046342Y-107481374D01*
X155046342Y-107481374D01*
G37*
D23*
X154566200Y-107967700D03*
D10*
G36*
X155046342Y-109356374D02*
X155070003Y-109359884D01*
X155093207Y-109365696D01*
X155115729Y-109373754D01*
X155137353Y-109383982D01*
X155157870Y-109396279D01*
X155177083Y-109410529D01*
X155194807Y-109426593D01*
X155210871Y-109444317D01*
X155225121Y-109463530D01*
X155237418Y-109484047D01*
X155247646Y-109505671D01*
X155255704Y-109528193D01*
X155261516Y-109551397D01*
X155265026Y-109575058D01*
X155266200Y-109598950D01*
X155266200Y-110086450D01*
X155265026Y-110110342D01*
X155261516Y-110134003D01*
X155255704Y-110157207D01*
X155247646Y-110179729D01*
X155237418Y-110201353D01*
X155225121Y-110221870D01*
X155210871Y-110241083D01*
X155194807Y-110258807D01*
X155177083Y-110274871D01*
X155157870Y-110289121D01*
X155137353Y-110301418D01*
X155115729Y-110311646D01*
X155093207Y-110319704D01*
X155070003Y-110325516D01*
X155046342Y-110329026D01*
X155022450Y-110330200D01*
X154109950Y-110330200D01*
X154086058Y-110329026D01*
X154062397Y-110325516D01*
X154039193Y-110319704D01*
X154016671Y-110311646D01*
X153995047Y-110301418D01*
X153974530Y-110289121D01*
X153955317Y-110274871D01*
X153937593Y-110258807D01*
X153921529Y-110241083D01*
X153907279Y-110221870D01*
X153894982Y-110201353D01*
X153884754Y-110179729D01*
X153876696Y-110157207D01*
X153870884Y-110134003D01*
X153867374Y-110110342D01*
X153866200Y-110086450D01*
X153866200Y-109598950D01*
X153867374Y-109575058D01*
X153870884Y-109551397D01*
X153876696Y-109528193D01*
X153884754Y-109505671D01*
X153894982Y-109484047D01*
X153907279Y-109463530D01*
X153921529Y-109444317D01*
X153937593Y-109426593D01*
X153955317Y-109410529D01*
X153974530Y-109396279D01*
X153995047Y-109383982D01*
X154016671Y-109373754D01*
X154039193Y-109365696D01*
X154062397Y-109359884D01*
X154086058Y-109356374D01*
X154109950Y-109355200D01*
X155022450Y-109355200D01*
X155046342Y-109356374D01*
X155046342Y-109356374D01*
G37*
D23*
X154566200Y-109842700D03*
G04 #@! TD*
D10*
G04 #@! TO.C,R1*
G36*
X136711142Y-85159174D02*
X136734803Y-85162684D01*
X136758007Y-85168496D01*
X136780529Y-85176554D01*
X136802153Y-85186782D01*
X136822670Y-85199079D01*
X136841883Y-85213329D01*
X136859607Y-85229393D01*
X136875671Y-85247117D01*
X136889921Y-85266330D01*
X136902218Y-85286847D01*
X136912446Y-85308471D01*
X136920504Y-85330993D01*
X136926316Y-85354197D01*
X136929826Y-85377858D01*
X136931000Y-85401750D01*
X136931000Y-86314250D01*
X136929826Y-86338142D01*
X136926316Y-86361803D01*
X136920504Y-86385007D01*
X136912446Y-86407529D01*
X136902218Y-86429153D01*
X136889921Y-86449670D01*
X136875671Y-86468883D01*
X136859607Y-86486607D01*
X136841883Y-86502671D01*
X136822670Y-86516921D01*
X136802153Y-86529218D01*
X136780529Y-86539446D01*
X136758007Y-86547504D01*
X136734803Y-86553316D01*
X136711142Y-86556826D01*
X136687250Y-86558000D01*
X136199750Y-86558000D01*
X136175858Y-86556826D01*
X136152197Y-86553316D01*
X136128993Y-86547504D01*
X136106471Y-86539446D01*
X136084847Y-86529218D01*
X136064330Y-86516921D01*
X136045117Y-86502671D01*
X136027393Y-86486607D01*
X136011329Y-86468883D01*
X135997079Y-86449670D01*
X135984782Y-86429153D01*
X135974554Y-86407529D01*
X135966496Y-86385007D01*
X135960684Y-86361803D01*
X135957174Y-86338142D01*
X135956000Y-86314250D01*
X135956000Y-85401750D01*
X135957174Y-85377858D01*
X135960684Y-85354197D01*
X135966496Y-85330993D01*
X135974554Y-85308471D01*
X135984782Y-85286847D01*
X135997079Y-85266330D01*
X136011329Y-85247117D01*
X136027393Y-85229393D01*
X136045117Y-85213329D01*
X136064330Y-85199079D01*
X136084847Y-85186782D01*
X136106471Y-85176554D01*
X136128993Y-85168496D01*
X136152197Y-85162684D01*
X136175858Y-85159174D01*
X136199750Y-85158000D01*
X136687250Y-85158000D01*
X136711142Y-85159174D01*
X136711142Y-85159174D01*
G37*
D23*
X136443500Y-85858000D03*
D10*
G36*
X134836142Y-85159174D02*
X134859803Y-85162684D01*
X134883007Y-85168496D01*
X134905529Y-85176554D01*
X134927153Y-85186782D01*
X134947670Y-85199079D01*
X134966883Y-85213329D01*
X134984607Y-85229393D01*
X135000671Y-85247117D01*
X135014921Y-85266330D01*
X135027218Y-85286847D01*
X135037446Y-85308471D01*
X135045504Y-85330993D01*
X135051316Y-85354197D01*
X135054826Y-85377858D01*
X135056000Y-85401750D01*
X135056000Y-86314250D01*
X135054826Y-86338142D01*
X135051316Y-86361803D01*
X135045504Y-86385007D01*
X135037446Y-86407529D01*
X135027218Y-86429153D01*
X135014921Y-86449670D01*
X135000671Y-86468883D01*
X134984607Y-86486607D01*
X134966883Y-86502671D01*
X134947670Y-86516921D01*
X134927153Y-86529218D01*
X134905529Y-86539446D01*
X134883007Y-86547504D01*
X134859803Y-86553316D01*
X134836142Y-86556826D01*
X134812250Y-86558000D01*
X134324750Y-86558000D01*
X134300858Y-86556826D01*
X134277197Y-86553316D01*
X134253993Y-86547504D01*
X134231471Y-86539446D01*
X134209847Y-86529218D01*
X134189330Y-86516921D01*
X134170117Y-86502671D01*
X134152393Y-86486607D01*
X134136329Y-86468883D01*
X134122079Y-86449670D01*
X134109782Y-86429153D01*
X134099554Y-86407529D01*
X134091496Y-86385007D01*
X134085684Y-86361803D01*
X134082174Y-86338142D01*
X134081000Y-86314250D01*
X134081000Y-85401750D01*
X134082174Y-85377858D01*
X134085684Y-85354197D01*
X134091496Y-85330993D01*
X134099554Y-85308471D01*
X134109782Y-85286847D01*
X134122079Y-85266330D01*
X134136329Y-85247117D01*
X134152393Y-85229393D01*
X134170117Y-85213329D01*
X134189330Y-85199079D01*
X134209847Y-85186782D01*
X134231471Y-85176554D01*
X134253993Y-85168496D01*
X134277197Y-85162684D01*
X134300858Y-85159174D01*
X134324750Y-85158000D01*
X134812250Y-85158000D01*
X134836142Y-85159174D01*
X134836142Y-85159174D01*
G37*
D23*
X134568500Y-85858000D03*
G04 #@! TD*
D10*
G04 #@! TO.C,R2*
G36*
X166774142Y-89477174D02*
X166797803Y-89480684D01*
X166821007Y-89486496D01*
X166843529Y-89494554D01*
X166865153Y-89504782D01*
X166885670Y-89517079D01*
X166904883Y-89531329D01*
X166922607Y-89547393D01*
X166938671Y-89565117D01*
X166952921Y-89584330D01*
X166965218Y-89604847D01*
X166975446Y-89626471D01*
X166983504Y-89648993D01*
X166989316Y-89672197D01*
X166992826Y-89695858D01*
X166994000Y-89719750D01*
X166994000Y-90632250D01*
X166992826Y-90656142D01*
X166989316Y-90679803D01*
X166983504Y-90703007D01*
X166975446Y-90725529D01*
X166965218Y-90747153D01*
X166952921Y-90767670D01*
X166938671Y-90786883D01*
X166922607Y-90804607D01*
X166904883Y-90820671D01*
X166885670Y-90834921D01*
X166865153Y-90847218D01*
X166843529Y-90857446D01*
X166821007Y-90865504D01*
X166797803Y-90871316D01*
X166774142Y-90874826D01*
X166750250Y-90876000D01*
X166262750Y-90876000D01*
X166238858Y-90874826D01*
X166215197Y-90871316D01*
X166191993Y-90865504D01*
X166169471Y-90857446D01*
X166147847Y-90847218D01*
X166127330Y-90834921D01*
X166108117Y-90820671D01*
X166090393Y-90804607D01*
X166074329Y-90786883D01*
X166060079Y-90767670D01*
X166047782Y-90747153D01*
X166037554Y-90725529D01*
X166029496Y-90703007D01*
X166023684Y-90679803D01*
X166020174Y-90656142D01*
X166019000Y-90632250D01*
X166019000Y-89719750D01*
X166020174Y-89695858D01*
X166023684Y-89672197D01*
X166029496Y-89648993D01*
X166037554Y-89626471D01*
X166047782Y-89604847D01*
X166060079Y-89584330D01*
X166074329Y-89565117D01*
X166090393Y-89547393D01*
X166108117Y-89531329D01*
X166127330Y-89517079D01*
X166147847Y-89504782D01*
X166169471Y-89494554D01*
X166191993Y-89486496D01*
X166215197Y-89480684D01*
X166238858Y-89477174D01*
X166262750Y-89476000D01*
X166750250Y-89476000D01*
X166774142Y-89477174D01*
X166774142Y-89477174D01*
G37*
D23*
X166506500Y-90176000D03*
D10*
G36*
X168649142Y-89477174D02*
X168672803Y-89480684D01*
X168696007Y-89486496D01*
X168718529Y-89494554D01*
X168740153Y-89504782D01*
X168760670Y-89517079D01*
X168779883Y-89531329D01*
X168797607Y-89547393D01*
X168813671Y-89565117D01*
X168827921Y-89584330D01*
X168840218Y-89604847D01*
X168850446Y-89626471D01*
X168858504Y-89648993D01*
X168864316Y-89672197D01*
X168867826Y-89695858D01*
X168869000Y-89719750D01*
X168869000Y-90632250D01*
X168867826Y-90656142D01*
X168864316Y-90679803D01*
X168858504Y-90703007D01*
X168850446Y-90725529D01*
X168840218Y-90747153D01*
X168827921Y-90767670D01*
X168813671Y-90786883D01*
X168797607Y-90804607D01*
X168779883Y-90820671D01*
X168760670Y-90834921D01*
X168740153Y-90847218D01*
X168718529Y-90857446D01*
X168696007Y-90865504D01*
X168672803Y-90871316D01*
X168649142Y-90874826D01*
X168625250Y-90876000D01*
X168137750Y-90876000D01*
X168113858Y-90874826D01*
X168090197Y-90871316D01*
X168066993Y-90865504D01*
X168044471Y-90857446D01*
X168022847Y-90847218D01*
X168002330Y-90834921D01*
X167983117Y-90820671D01*
X167965393Y-90804607D01*
X167949329Y-90786883D01*
X167935079Y-90767670D01*
X167922782Y-90747153D01*
X167912554Y-90725529D01*
X167904496Y-90703007D01*
X167898684Y-90679803D01*
X167895174Y-90656142D01*
X167894000Y-90632250D01*
X167894000Y-89719750D01*
X167895174Y-89695858D01*
X167898684Y-89672197D01*
X167904496Y-89648993D01*
X167912554Y-89626471D01*
X167922782Y-89604847D01*
X167935079Y-89584330D01*
X167949329Y-89565117D01*
X167965393Y-89547393D01*
X167983117Y-89531329D01*
X168002330Y-89517079D01*
X168022847Y-89504782D01*
X168044471Y-89494554D01*
X168066993Y-89486496D01*
X168090197Y-89480684D01*
X168113858Y-89477174D01*
X168137750Y-89476000D01*
X168625250Y-89476000D01*
X168649142Y-89477174D01*
X168649142Y-89477174D01*
G37*
D23*
X168381500Y-90176000D03*
G04 #@! TD*
D10*
G04 #@! TO.C,R3*
G36*
X164712142Y-89466174D02*
X164735803Y-89469684D01*
X164759007Y-89475496D01*
X164781529Y-89483554D01*
X164803153Y-89493782D01*
X164823670Y-89506079D01*
X164842883Y-89520329D01*
X164860607Y-89536393D01*
X164876671Y-89554117D01*
X164890921Y-89573330D01*
X164903218Y-89593847D01*
X164913446Y-89615471D01*
X164921504Y-89637993D01*
X164927316Y-89661197D01*
X164930826Y-89684858D01*
X164932000Y-89708750D01*
X164932000Y-90621250D01*
X164930826Y-90645142D01*
X164927316Y-90668803D01*
X164921504Y-90692007D01*
X164913446Y-90714529D01*
X164903218Y-90736153D01*
X164890921Y-90756670D01*
X164876671Y-90775883D01*
X164860607Y-90793607D01*
X164842883Y-90809671D01*
X164823670Y-90823921D01*
X164803153Y-90836218D01*
X164781529Y-90846446D01*
X164759007Y-90854504D01*
X164735803Y-90860316D01*
X164712142Y-90863826D01*
X164688250Y-90865000D01*
X164200750Y-90865000D01*
X164176858Y-90863826D01*
X164153197Y-90860316D01*
X164129993Y-90854504D01*
X164107471Y-90846446D01*
X164085847Y-90836218D01*
X164065330Y-90823921D01*
X164046117Y-90809671D01*
X164028393Y-90793607D01*
X164012329Y-90775883D01*
X163998079Y-90756670D01*
X163985782Y-90736153D01*
X163975554Y-90714529D01*
X163967496Y-90692007D01*
X163961684Y-90668803D01*
X163958174Y-90645142D01*
X163957000Y-90621250D01*
X163957000Y-89708750D01*
X163958174Y-89684858D01*
X163961684Y-89661197D01*
X163967496Y-89637993D01*
X163975554Y-89615471D01*
X163985782Y-89593847D01*
X163998079Y-89573330D01*
X164012329Y-89554117D01*
X164028393Y-89536393D01*
X164046117Y-89520329D01*
X164065330Y-89506079D01*
X164085847Y-89493782D01*
X164107471Y-89483554D01*
X164129993Y-89475496D01*
X164153197Y-89469684D01*
X164176858Y-89466174D01*
X164200750Y-89465000D01*
X164688250Y-89465000D01*
X164712142Y-89466174D01*
X164712142Y-89466174D01*
G37*
D23*
X164444500Y-90165000D03*
D10*
G36*
X162837142Y-89466174D02*
X162860803Y-89469684D01*
X162884007Y-89475496D01*
X162906529Y-89483554D01*
X162928153Y-89493782D01*
X162948670Y-89506079D01*
X162967883Y-89520329D01*
X162985607Y-89536393D01*
X163001671Y-89554117D01*
X163015921Y-89573330D01*
X163028218Y-89593847D01*
X163038446Y-89615471D01*
X163046504Y-89637993D01*
X163052316Y-89661197D01*
X163055826Y-89684858D01*
X163057000Y-89708750D01*
X163057000Y-90621250D01*
X163055826Y-90645142D01*
X163052316Y-90668803D01*
X163046504Y-90692007D01*
X163038446Y-90714529D01*
X163028218Y-90736153D01*
X163015921Y-90756670D01*
X163001671Y-90775883D01*
X162985607Y-90793607D01*
X162967883Y-90809671D01*
X162948670Y-90823921D01*
X162928153Y-90836218D01*
X162906529Y-90846446D01*
X162884007Y-90854504D01*
X162860803Y-90860316D01*
X162837142Y-90863826D01*
X162813250Y-90865000D01*
X162325750Y-90865000D01*
X162301858Y-90863826D01*
X162278197Y-90860316D01*
X162254993Y-90854504D01*
X162232471Y-90846446D01*
X162210847Y-90836218D01*
X162190330Y-90823921D01*
X162171117Y-90809671D01*
X162153393Y-90793607D01*
X162137329Y-90775883D01*
X162123079Y-90756670D01*
X162110782Y-90736153D01*
X162100554Y-90714529D01*
X162092496Y-90692007D01*
X162086684Y-90668803D01*
X162083174Y-90645142D01*
X162082000Y-90621250D01*
X162082000Y-89708750D01*
X162083174Y-89684858D01*
X162086684Y-89661197D01*
X162092496Y-89637993D01*
X162100554Y-89615471D01*
X162110782Y-89593847D01*
X162123079Y-89573330D01*
X162137329Y-89554117D01*
X162153393Y-89536393D01*
X162171117Y-89520329D01*
X162190330Y-89506079D01*
X162210847Y-89493782D01*
X162232471Y-89483554D01*
X162254993Y-89475496D01*
X162278197Y-89469684D01*
X162301858Y-89466174D01*
X162325750Y-89465000D01*
X162813250Y-89465000D01*
X162837142Y-89466174D01*
X162837142Y-89466174D01*
G37*
D23*
X162569500Y-90165000D03*
G04 #@! TD*
D10*
G04 #@! TO.C,R7*
G36*
X152353942Y-109381774D02*
X152377603Y-109385284D01*
X152400807Y-109391096D01*
X152423329Y-109399154D01*
X152444953Y-109409382D01*
X152465470Y-109421679D01*
X152484683Y-109435929D01*
X152502407Y-109451993D01*
X152518471Y-109469717D01*
X152532721Y-109488930D01*
X152545018Y-109509447D01*
X152555246Y-109531071D01*
X152563304Y-109553593D01*
X152569116Y-109576797D01*
X152572626Y-109600458D01*
X152573800Y-109624350D01*
X152573800Y-110111850D01*
X152572626Y-110135742D01*
X152569116Y-110159403D01*
X152563304Y-110182607D01*
X152555246Y-110205129D01*
X152545018Y-110226753D01*
X152532721Y-110247270D01*
X152518471Y-110266483D01*
X152502407Y-110284207D01*
X152484683Y-110300271D01*
X152465470Y-110314521D01*
X152444953Y-110326818D01*
X152423329Y-110337046D01*
X152400807Y-110345104D01*
X152377603Y-110350916D01*
X152353942Y-110354426D01*
X152330050Y-110355600D01*
X151417550Y-110355600D01*
X151393658Y-110354426D01*
X151369997Y-110350916D01*
X151346793Y-110345104D01*
X151324271Y-110337046D01*
X151302647Y-110326818D01*
X151282130Y-110314521D01*
X151262917Y-110300271D01*
X151245193Y-110284207D01*
X151229129Y-110266483D01*
X151214879Y-110247270D01*
X151202582Y-110226753D01*
X151192354Y-110205129D01*
X151184296Y-110182607D01*
X151178484Y-110159403D01*
X151174974Y-110135742D01*
X151173800Y-110111850D01*
X151173800Y-109624350D01*
X151174974Y-109600458D01*
X151178484Y-109576797D01*
X151184296Y-109553593D01*
X151192354Y-109531071D01*
X151202582Y-109509447D01*
X151214879Y-109488930D01*
X151229129Y-109469717D01*
X151245193Y-109451993D01*
X151262917Y-109435929D01*
X151282130Y-109421679D01*
X151302647Y-109409382D01*
X151324271Y-109399154D01*
X151346793Y-109391096D01*
X151369997Y-109385284D01*
X151393658Y-109381774D01*
X151417550Y-109380600D01*
X152330050Y-109380600D01*
X152353942Y-109381774D01*
X152353942Y-109381774D01*
G37*
D23*
X151873800Y-109868100D03*
D10*
G36*
X152353942Y-107506774D02*
X152377603Y-107510284D01*
X152400807Y-107516096D01*
X152423329Y-107524154D01*
X152444953Y-107534382D01*
X152465470Y-107546679D01*
X152484683Y-107560929D01*
X152502407Y-107576993D01*
X152518471Y-107594717D01*
X152532721Y-107613930D01*
X152545018Y-107634447D01*
X152555246Y-107656071D01*
X152563304Y-107678593D01*
X152569116Y-107701797D01*
X152572626Y-107725458D01*
X152573800Y-107749350D01*
X152573800Y-108236850D01*
X152572626Y-108260742D01*
X152569116Y-108284403D01*
X152563304Y-108307607D01*
X152555246Y-108330129D01*
X152545018Y-108351753D01*
X152532721Y-108372270D01*
X152518471Y-108391483D01*
X152502407Y-108409207D01*
X152484683Y-108425271D01*
X152465470Y-108439521D01*
X152444953Y-108451818D01*
X152423329Y-108462046D01*
X152400807Y-108470104D01*
X152377603Y-108475916D01*
X152353942Y-108479426D01*
X152330050Y-108480600D01*
X151417550Y-108480600D01*
X151393658Y-108479426D01*
X151369997Y-108475916D01*
X151346793Y-108470104D01*
X151324271Y-108462046D01*
X151302647Y-108451818D01*
X151282130Y-108439521D01*
X151262917Y-108425271D01*
X151245193Y-108409207D01*
X151229129Y-108391483D01*
X151214879Y-108372270D01*
X151202582Y-108351753D01*
X151192354Y-108330129D01*
X151184296Y-108307607D01*
X151178484Y-108284403D01*
X151174974Y-108260742D01*
X151173800Y-108236850D01*
X151173800Y-107749350D01*
X151174974Y-107725458D01*
X151178484Y-107701797D01*
X151184296Y-107678593D01*
X151192354Y-107656071D01*
X151202582Y-107634447D01*
X151214879Y-107613930D01*
X151229129Y-107594717D01*
X151245193Y-107576993D01*
X151262917Y-107560929D01*
X151282130Y-107546679D01*
X151302647Y-107534382D01*
X151324271Y-107524154D01*
X151346793Y-107516096D01*
X151369997Y-107510284D01*
X151393658Y-107506774D01*
X151417550Y-107505600D01*
X152330050Y-107505600D01*
X152353942Y-107506774D01*
X152353942Y-107506774D01*
G37*
D23*
X151873800Y-107993100D03*
G04 #@! TD*
D10*
G04 #@! TO.C,R9*
G36*
X180206142Y-91890174D02*
X180229803Y-91893684D01*
X180253007Y-91899496D01*
X180275529Y-91907554D01*
X180297153Y-91917782D01*
X180317670Y-91930079D01*
X180336883Y-91944329D01*
X180354607Y-91960393D01*
X180370671Y-91978117D01*
X180384921Y-91997330D01*
X180397218Y-92017847D01*
X180407446Y-92039471D01*
X180415504Y-92061993D01*
X180421316Y-92085197D01*
X180424826Y-92108858D01*
X180426000Y-92132750D01*
X180426000Y-93045250D01*
X180424826Y-93069142D01*
X180421316Y-93092803D01*
X180415504Y-93116007D01*
X180407446Y-93138529D01*
X180397218Y-93160153D01*
X180384921Y-93180670D01*
X180370671Y-93199883D01*
X180354607Y-93217607D01*
X180336883Y-93233671D01*
X180317670Y-93247921D01*
X180297153Y-93260218D01*
X180275529Y-93270446D01*
X180253007Y-93278504D01*
X180229803Y-93284316D01*
X180206142Y-93287826D01*
X180182250Y-93289000D01*
X179694750Y-93289000D01*
X179670858Y-93287826D01*
X179647197Y-93284316D01*
X179623993Y-93278504D01*
X179601471Y-93270446D01*
X179579847Y-93260218D01*
X179559330Y-93247921D01*
X179540117Y-93233671D01*
X179522393Y-93217607D01*
X179506329Y-93199883D01*
X179492079Y-93180670D01*
X179479782Y-93160153D01*
X179469554Y-93138529D01*
X179461496Y-93116007D01*
X179455684Y-93092803D01*
X179452174Y-93069142D01*
X179451000Y-93045250D01*
X179451000Y-92132750D01*
X179452174Y-92108858D01*
X179455684Y-92085197D01*
X179461496Y-92061993D01*
X179469554Y-92039471D01*
X179479782Y-92017847D01*
X179492079Y-91997330D01*
X179506329Y-91978117D01*
X179522393Y-91960393D01*
X179540117Y-91944329D01*
X179559330Y-91930079D01*
X179579847Y-91917782D01*
X179601471Y-91907554D01*
X179623993Y-91899496D01*
X179647197Y-91893684D01*
X179670858Y-91890174D01*
X179694750Y-91889000D01*
X180182250Y-91889000D01*
X180206142Y-91890174D01*
X180206142Y-91890174D01*
G37*
D23*
X179938500Y-92589000D03*
D10*
G36*
X178331142Y-91890174D02*
X178354803Y-91893684D01*
X178378007Y-91899496D01*
X178400529Y-91907554D01*
X178422153Y-91917782D01*
X178442670Y-91930079D01*
X178461883Y-91944329D01*
X178479607Y-91960393D01*
X178495671Y-91978117D01*
X178509921Y-91997330D01*
X178522218Y-92017847D01*
X178532446Y-92039471D01*
X178540504Y-92061993D01*
X178546316Y-92085197D01*
X178549826Y-92108858D01*
X178551000Y-92132750D01*
X178551000Y-93045250D01*
X178549826Y-93069142D01*
X178546316Y-93092803D01*
X178540504Y-93116007D01*
X178532446Y-93138529D01*
X178522218Y-93160153D01*
X178509921Y-93180670D01*
X178495671Y-93199883D01*
X178479607Y-93217607D01*
X178461883Y-93233671D01*
X178442670Y-93247921D01*
X178422153Y-93260218D01*
X178400529Y-93270446D01*
X178378007Y-93278504D01*
X178354803Y-93284316D01*
X178331142Y-93287826D01*
X178307250Y-93289000D01*
X177819750Y-93289000D01*
X177795858Y-93287826D01*
X177772197Y-93284316D01*
X177748993Y-93278504D01*
X177726471Y-93270446D01*
X177704847Y-93260218D01*
X177684330Y-93247921D01*
X177665117Y-93233671D01*
X177647393Y-93217607D01*
X177631329Y-93199883D01*
X177617079Y-93180670D01*
X177604782Y-93160153D01*
X177594554Y-93138529D01*
X177586496Y-93116007D01*
X177580684Y-93092803D01*
X177577174Y-93069142D01*
X177576000Y-93045250D01*
X177576000Y-92132750D01*
X177577174Y-92108858D01*
X177580684Y-92085197D01*
X177586496Y-92061993D01*
X177594554Y-92039471D01*
X177604782Y-92017847D01*
X177617079Y-91997330D01*
X177631329Y-91978117D01*
X177647393Y-91960393D01*
X177665117Y-91944329D01*
X177684330Y-91930079D01*
X177704847Y-91917782D01*
X177726471Y-91907554D01*
X177748993Y-91899496D01*
X177772197Y-91893684D01*
X177795858Y-91890174D01*
X177819750Y-91889000D01*
X178307250Y-91889000D01*
X178331142Y-91890174D01*
X178331142Y-91890174D01*
G37*
D23*
X178063500Y-92589000D03*
G04 #@! TD*
D10*
G04 #@! TO.C,R10*
G36*
X176843142Y-91890174D02*
X176866803Y-91893684D01*
X176890007Y-91899496D01*
X176912529Y-91907554D01*
X176934153Y-91917782D01*
X176954670Y-91930079D01*
X176973883Y-91944329D01*
X176991607Y-91960393D01*
X177007671Y-91978117D01*
X177021921Y-91997330D01*
X177034218Y-92017847D01*
X177044446Y-92039471D01*
X177052504Y-92061993D01*
X177058316Y-92085197D01*
X177061826Y-92108858D01*
X177063000Y-92132750D01*
X177063000Y-93045250D01*
X177061826Y-93069142D01*
X177058316Y-93092803D01*
X177052504Y-93116007D01*
X177044446Y-93138529D01*
X177034218Y-93160153D01*
X177021921Y-93180670D01*
X177007671Y-93199883D01*
X176991607Y-93217607D01*
X176973883Y-93233671D01*
X176954670Y-93247921D01*
X176934153Y-93260218D01*
X176912529Y-93270446D01*
X176890007Y-93278504D01*
X176866803Y-93284316D01*
X176843142Y-93287826D01*
X176819250Y-93289000D01*
X176331750Y-93289000D01*
X176307858Y-93287826D01*
X176284197Y-93284316D01*
X176260993Y-93278504D01*
X176238471Y-93270446D01*
X176216847Y-93260218D01*
X176196330Y-93247921D01*
X176177117Y-93233671D01*
X176159393Y-93217607D01*
X176143329Y-93199883D01*
X176129079Y-93180670D01*
X176116782Y-93160153D01*
X176106554Y-93138529D01*
X176098496Y-93116007D01*
X176092684Y-93092803D01*
X176089174Y-93069142D01*
X176088000Y-93045250D01*
X176088000Y-92132750D01*
X176089174Y-92108858D01*
X176092684Y-92085197D01*
X176098496Y-92061993D01*
X176106554Y-92039471D01*
X176116782Y-92017847D01*
X176129079Y-91997330D01*
X176143329Y-91978117D01*
X176159393Y-91960393D01*
X176177117Y-91944329D01*
X176196330Y-91930079D01*
X176216847Y-91917782D01*
X176238471Y-91907554D01*
X176260993Y-91899496D01*
X176284197Y-91893684D01*
X176307858Y-91890174D01*
X176331750Y-91889000D01*
X176819250Y-91889000D01*
X176843142Y-91890174D01*
X176843142Y-91890174D01*
G37*
D23*
X176575500Y-92589000D03*
D10*
G36*
X174968142Y-91890174D02*
X174991803Y-91893684D01*
X175015007Y-91899496D01*
X175037529Y-91907554D01*
X175059153Y-91917782D01*
X175079670Y-91930079D01*
X175098883Y-91944329D01*
X175116607Y-91960393D01*
X175132671Y-91978117D01*
X175146921Y-91997330D01*
X175159218Y-92017847D01*
X175169446Y-92039471D01*
X175177504Y-92061993D01*
X175183316Y-92085197D01*
X175186826Y-92108858D01*
X175188000Y-92132750D01*
X175188000Y-93045250D01*
X175186826Y-93069142D01*
X175183316Y-93092803D01*
X175177504Y-93116007D01*
X175169446Y-93138529D01*
X175159218Y-93160153D01*
X175146921Y-93180670D01*
X175132671Y-93199883D01*
X175116607Y-93217607D01*
X175098883Y-93233671D01*
X175079670Y-93247921D01*
X175059153Y-93260218D01*
X175037529Y-93270446D01*
X175015007Y-93278504D01*
X174991803Y-93284316D01*
X174968142Y-93287826D01*
X174944250Y-93289000D01*
X174456750Y-93289000D01*
X174432858Y-93287826D01*
X174409197Y-93284316D01*
X174385993Y-93278504D01*
X174363471Y-93270446D01*
X174341847Y-93260218D01*
X174321330Y-93247921D01*
X174302117Y-93233671D01*
X174284393Y-93217607D01*
X174268329Y-93199883D01*
X174254079Y-93180670D01*
X174241782Y-93160153D01*
X174231554Y-93138529D01*
X174223496Y-93116007D01*
X174217684Y-93092803D01*
X174214174Y-93069142D01*
X174213000Y-93045250D01*
X174213000Y-92132750D01*
X174214174Y-92108858D01*
X174217684Y-92085197D01*
X174223496Y-92061993D01*
X174231554Y-92039471D01*
X174241782Y-92017847D01*
X174254079Y-91997330D01*
X174268329Y-91978117D01*
X174284393Y-91960393D01*
X174302117Y-91944329D01*
X174321330Y-91930079D01*
X174341847Y-91917782D01*
X174363471Y-91907554D01*
X174385993Y-91899496D01*
X174409197Y-91893684D01*
X174432858Y-91890174D01*
X174456750Y-91889000D01*
X174944250Y-91889000D01*
X174968142Y-91890174D01*
X174968142Y-91890174D01*
G37*
D23*
X174700500Y-92589000D03*
G04 #@! TD*
D24*
G04 #@! TO.C,X1*
X83200000Y-102000000D03*
G04 #@! TD*
G04 #@! TO.C,X5*
X83200000Y-98000000D03*
G04 #@! TD*
D10*
G04 #@! TO.C,R5*
G36*
X125344142Y-94444174D02*
X125367803Y-94447684D01*
X125391007Y-94453496D01*
X125413529Y-94461554D01*
X125435153Y-94471782D01*
X125455670Y-94484079D01*
X125474883Y-94498329D01*
X125492607Y-94514393D01*
X125508671Y-94532117D01*
X125522921Y-94551330D01*
X125535218Y-94571847D01*
X125545446Y-94593471D01*
X125553504Y-94615993D01*
X125559316Y-94639197D01*
X125562826Y-94662858D01*
X125564000Y-94686750D01*
X125564000Y-95599250D01*
X125562826Y-95623142D01*
X125559316Y-95646803D01*
X125553504Y-95670007D01*
X125545446Y-95692529D01*
X125535218Y-95714153D01*
X125522921Y-95734670D01*
X125508671Y-95753883D01*
X125492607Y-95771607D01*
X125474883Y-95787671D01*
X125455670Y-95801921D01*
X125435153Y-95814218D01*
X125413529Y-95824446D01*
X125391007Y-95832504D01*
X125367803Y-95838316D01*
X125344142Y-95841826D01*
X125320250Y-95843000D01*
X124832750Y-95843000D01*
X124808858Y-95841826D01*
X124785197Y-95838316D01*
X124761993Y-95832504D01*
X124739471Y-95824446D01*
X124717847Y-95814218D01*
X124697330Y-95801921D01*
X124678117Y-95787671D01*
X124660393Y-95771607D01*
X124644329Y-95753883D01*
X124630079Y-95734670D01*
X124617782Y-95714153D01*
X124607554Y-95692529D01*
X124599496Y-95670007D01*
X124593684Y-95646803D01*
X124590174Y-95623142D01*
X124589000Y-95599250D01*
X124589000Y-94686750D01*
X124590174Y-94662858D01*
X124593684Y-94639197D01*
X124599496Y-94615993D01*
X124607554Y-94593471D01*
X124617782Y-94571847D01*
X124630079Y-94551330D01*
X124644329Y-94532117D01*
X124660393Y-94514393D01*
X124678117Y-94498329D01*
X124697330Y-94484079D01*
X124717847Y-94471782D01*
X124739471Y-94461554D01*
X124761993Y-94453496D01*
X124785197Y-94447684D01*
X124808858Y-94444174D01*
X124832750Y-94443000D01*
X125320250Y-94443000D01*
X125344142Y-94444174D01*
X125344142Y-94444174D01*
G37*
D23*
X125076500Y-95143000D03*
D10*
G36*
X123469142Y-94444174D02*
X123492803Y-94447684D01*
X123516007Y-94453496D01*
X123538529Y-94461554D01*
X123560153Y-94471782D01*
X123580670Y-94484079D01*
X123599883Y-94498329D01*
X123617607Y-94514393D01*
X123633671Y-94532117D01*
X123647921Y-94551330D01*
X123660218Y-94571847D01*
X123670446Y-94593471D01*
X123678504Y-94615993D01*
X123684316Y-94639197D01*
X123687826Y-94662858D01*
X123689000Y-94686750D01*
X123689000Y-95599250D01*
X123687826Y-95623142D01*
X123684316Y-95646803D01*
X123678504Y-95670007D01*
X123670446Y-95692529D01*
X123660218Y-95714153D01*
X123647921Y-95734670D01*
X123633671Y-95753883D01*
X123617607Y-95771607D01*
X123599883Y-95787671D01*
X123580670Y-95801921D01*
X123560153Y-95814218D01*
X123538529Y-95824446D01*
X123516007Y-95832504D01*
X123492803Y-95838316D01*
X123469142Y-95841826D01*
X123445250Y-95843000D01*
X122957750Y-95843000D01*
X122933858Y-95841826D01*
X122910197Y-95838316D01*
X122886993Y-95832504D01*
X122864471Y-95824446D01*
X122842847Y-95814218D01*
X122822330Y-95801921D01*
X122803117Y-95787671D01*
X122785393Y-95771607D01*
X122769329Y-95753883D01*
X122755079Y-95734670D01*
X122742782Y-95714153D01*
X122732554Y-95692529D01*
X122724496Y-95670007D01*
X122718684Y-95646803D01*
X122715174Y-95623142D01*
X122714000Y-95599250D01*
X122714000Y-94686750D01*
X122715174Y-94662858D01*
X122718684Y-94639197D01*
X122724496Y-94615993D01*
X122732554Y-94593471D01*
X122742782Y-94571847D01*
X122755079Y-94551330D01*
X122769329Y-94532117D01*
X122785393Y-94514393D01*
X122803117Y-94498329D01*
X122822330Y-94484079D01*
X122842847Y-94471782D01*
X122864471Y-94461554D01*
X122886993Y-94453496D01*
X122910197Y-94447684D01*
X122933858Y-94444174D01*
X122957750Y-94443000D01*
X123445250Y-94443000D01*
X123469142Y-94444174D01*
X123469142Y-94444174D01*
G37*
D23*
X123201500Y-95143000D03*
G04 #@! TD*
D10*
G04 #@! TO.C,D1*
G36*
X166846504Y-110488204D02*
X166870773Y-110491804D01*
X166894571Y-110497765D01*
X166917671Y-110506030D01*
X166939849Y-110516520D01*
X166960893Y-110529133D01*
X166980598Y-110543747D01*
X166998777Y-110560223D01*
X167015253Y-110578402D01*
X167029867Y-110598107D01*
X167042480Y-110619151D01*
X167052970Y-110641329D01*
X167061235Y-110664429D01*
X167067196Y-110688227D01*
X167070796Y-110712496D01*
X167072000Y-110737000D01*
X167072000Y-112887000D01*
X167070796Y-112911504D01*
X167067196Y-112935773D01*
X167061235Y-112959571D01*
X167052970Y-112982671D01*
X167042480Y-113004849D01*
X167029867Y-113025893D01*
X167015253Y-113045598D01*
X166998777Y-113063777D01*
X166980598Y-113080253D01*
X166960893Y-113094867D01*
X166939849Y-113107480D01*
X166917671Y-113117970D01*
X166894571Y-113126235D01*
X166870773Y-113132196D01*
X166846504Y-113135796D01*
X166822000Y-113137000D01*
X166072000Y-113137000D01*
X166047496Y-113135796D01*
X166023227Y-113132196D01*
X165999429Y-113126235D01*
X165976329Y-113117970D01*
X165954151Y-113107480D01*
X165933107Y-113094867D01*
X165913402Y-113080253D01*
X165895223Y-113063777D01*
X165878747Y-113045598D01*
X165864133Y-113025893D01*
X165851520Y-113004849D01*
X165841030Y-112982671D01*
X165832765Y-112959571D01*
X165826804Y-112935773D01*
X165823204Y-112911504D01*
X165822000Y-112887000D01*
X165822000Y-110737000D01*
X165823204Y-110712496D01*
X165826804Y-110688227D01*
X165832765Y-110664429D01*
X165841030Y-110641329D01*
X165851520Y-110619151D01*
X165864133Y-110598107D01*
X165878747Y-110578402D01*
X165895223Y-110560223D01*
X165913402Y-110543747D01*
X165933107Y-110529133D01*
X165954151Y-110516520D01*
X165976329Y-110506030D01*
X165999429Y-110497765D01*
X166023227Y-110491804D01*
X166047496Y-110488204D01*
X166072000Y-110487000D01*
X166822000Y-110487000D01*
X166846504Y-110488204D01*
X166846504Y-110488204D01*
G37*
D11*
X166447000Y-111812000D03*
D10*
G36*
X169646504Y-110488204D02*
X169670773Y-110491804D01*
X169694571Y-110497765D01*
X169717671Y-110506030D01*
X169739849Y-110516520D01*
X169760893Y-110529133D01*
X169780598Y-110543747D01*
X169798777Y-110560223D01*
X169815253Y-110578402D01*
X169829867Y-110598107D01*
X169842480Y-110619151D01*
X169852970Y-110641329D01*
X169861235Y-110664429D01*
X169867196Y-110688227D01*
X169870796Y-110712496D01*
X169872000Y-110737000D01*
X169872000Y-112887000D01*
X169870796Y-112911504D01*
X169867196Y-112935773D01*
X169861235Y-112959571D01*
X169852970Y-112982671D01*
X169842480Y-113004849D01*
X169829867Y-113025893D01*
X169815253Y-113045598D01*
X169798777Y-113063777D01*
X169780598Y-113080253D01*
X169760893Y-113094867D01*
X169739849Y-113107480D01*
X169717671Y-113117970D01*
X169694571Y-113126235D01*
X169670773Y-113132196D01*
X169646504Y-113135796D01*
X169622000Y-113137000D01*
X168872000Y-113137000D01*
X168847496Y-113135796D01*
X168823227Y-113132196D01*
X168799429Y-113126235D01*
X168776329Y-113117970D01*
X168754151Y-113107480D01*
X168733107Y-113094867D01*
X168713402Y-113080253D01*
X168695223Y-113063777D01*
X168678747Y-113045598D01*
X168664133Y-113025893D01*
X168651520Y-113004849D01*
X168641030Y-112982671D01*
X168632765Y-112959571D01*
X168626804Y-112935773D01*
X168623204Y-112911504D01*
X168622000Y-112887000D01*
X168622000Y-110737000D01*
X168623204Y-110712496D01*
X168626804Y-110688227D01*
X168632765Y-110664429D01*
X168641030Y-110641329D01*
X168651520Y-110619151D01*
X168664133Y-110598107D01*
X168678747Y-110578402D01*
X168695223Y-110560223D01*
X168713402Y-110543747D01*
X168733107Y-110529133D01*
X168754151Y-110516520D01*
X168776329Y-110506030D01*
X168799429Y-110497765D01*
X168823227Y-110491804D01*
X168847496Y-110488204D01*
X168872000Y-110487000D01*
X169622000Y-110487000D01*
X169646504Y-110488204D01*
X169646504Y-110488204D01*
G37*
D11*
X169247000Y-111812000D03*
G04 #@! TD*
M02*
