G04 #@! TF.GenerationSoftware,KiCad,Pcbnew,5.0.2-bee76a0~70~ubuntu18.04.1*
G04 #@! TF.CreationDate,2020-02-17T10:07:03+01:00*
G04 #@! TF.ProjectId,RocketPCR,526f636b-6574-4504-9352-2e6b69636164,rev?*
G04 #@! TF.SameCoordinates,Original*
G04 #@! TF.FileFunction,Soldermask,Bot*
G04 #@! TF.FilePolarity,Negative*
%FSLAX46Y46*%
G04 Gerber Fmt 4.6, Leading zero omitted, Abs format (unit mm)*
G04 Created by KiCad (PCBNEW 5.0.2-bee76a0~70~ubuntu18.04.1) date Mo 17 Feb 2020 10:07:03 CET*
%MOMM*%
%LPD*%
G01*
G04 APERTURE LIST*
%ADD10C,0.100000*%
G04 APERTURE END LIST*
D10*
G36*
X183247765Y-112254403D02*
X183370445Y-112278805D01*
X183550462Y-112353371D01*
X183601571Y-112374541D01*
X183809581Y-112513529D01*
X183986471Y-112690419D01*
X183986473Y-112690422D01*
X184125459Y-112898429D01*
X184221195Y-113129555D01*
X184221195Y-113129557D01*
X184269254Y-113371163D01*
X184270000Y-113374916D01*
X184270000Y-113625084D01*
X184221195Y-113870445D01*
X184125459Y-114101571D01*
X183986471Y-114309581D01*
X183809581Y-114486471D01*
X183809578Y-114486473D01*
X183601571Y-114625459D01*
X183370445Y-114721195D01*
X183247765Y-114745597D01*
X183125086Y-114770000D01*
X182874914Y-114770000D01*
X182752235Y-114745597D01*
X182629555Y-114721195D01*
X182398429Y-114625459D01*
X182190422Y-114486473D01*
X182190419Y-114486471D01*
X182013529Y-114309581D01*
X181874541Y-114101571D01*
X181778805Y-113870445D01*
X181730000Y-113625084D01*
X181730000Y-113374916D01*
X181730747Y-113371163D01*
X181778805Y-113129557D01*
X181778805Y-113129555D01*
X181874541Y-112898429D01*
X182013527Y-112690422D01*
X182013529Y-112690419D01*
X182190419Y-112513529D01*
X182398429Y-112374541D01*
X182449538Y-112353371D01*
X182629555Y-112278805D01*
X182752235Y-112254403D01*
X182874914Y-112230000D01*
X183125086Y-112230000D01*
X183247765Y-112254403D01*
X183247765Y-112254403D01*
G37*
G36*
X166338964Y-111628837D02*
X166370528Y-111638412D01*
X166399617Y-111653960D01*
X166425114Y-111674886D01*
X166446040Y-111700383D01*
X166461588Y-111729472D01*
X166471163Y-111761036D01*
X166475000Y-111799998D01*
X166475000Y-113200002D01*
X166471163Y-113238964D01*
X166461588Y-113270528D01*
X166446040Y-113299617D01*
X166425114Y-113325114D01*
X166399617Y-113346040D01*
X166370528Y-113361588D01*
X166338964Y-113371163D01*
X166300002Y-113375000D01*
X165224998Y-113375000D01*
X165186036Y-113371163D01*
X165154472Y-113361588D01*
X165125383Y-113346040D01*
X165099886Y-113325114D01*
X165078960Y-113299617D01*
X165063412Y-113270528D01*
X165053837Y-113238964D01*
X165050000Y-113200002D01*
X165050000Y-111799998D01*
X165053837Y-111761036D01*
X165063412Y-111729472D01*
X165078960Y-111700383D01*
X165099886Y-111674886D01*
X165125383Y-111653960D01*
X165154472Y-111638412D01*
X165186036Y-111628837D01*
X165224998Y-111625000D01*
X166300002Y-111625000D01*
X166338964Y-111628837D01*
X166338964Y-111628837D01*
G37*
G36*
X169313964Y-111628837D02*
X169345528Y-111638412D01*
X169374617Y-111653960D01*
X169400114Y-111674886D01*
X169421040Y-111700383D01*
X169436588Y-111729472D01*
X169446163Y-111761036D01*
X169450000Y-111799998D01*
X169450000Y-113200002D01*
X169446163Y-113238964D01*
X169436588Y-113270528D01*
X169421040Y-113299617D01*
X169400114Y-113325114D01*
X169374617Y-113346040D01*
X169345528Y-113361588D01*
X169313964Y-113371163D01*
X169275002Y-113375000D01*
X168199998Y-113375000D01*
X168161036Y-113371163D01*
X168129472Y-113361588D01*
X168100383Y-113346040D01*
X168074886Y-113325114D01*
X168053960Y-113299617D01*
X168038412Y-113270528D01*
X168028837Y-113238964D01*
X168025000Y-113200002D01*
X168025000Y-111799998D01*
X168028837Y-111761036D01*
X168038412Y-111729472D01*
X168053960Y-111700383D01*
X168074886Y-111674886D01*
X168100383Y-111653960D01*
X168129472Y-111638412D01*
X168161036Y-111628837D01*
X168199998Y-111625000D01*
X169275002Y-111625000D01*
X169313964Y-111628837D01*
X169313964Y-111628837D01*
G37*
G36*
X120416630Y-111682299D02*
X120576855Y-111730903D01*
X120724520Y-111809831D01*
X120853949Y-111916051D01*
X120960169Y-112045480D01*
X121039097Y-112193145D01*
X121087701Y-112353370D01*
X121104112Y-112520000D01*
X121087701Y-112686630D01*
X121039097Y-112846855D01*
X120960169Y-112994520D01*
X120853949Y-113123949D01*
X120724520Y-113230169D01*
X120576855Y-113309097D01*
X120416630Y-113357701D01*
X120291752Y-113370000D01*
X120208248Y-113370000D01*
X120083370Y-113357701D01*
X119923145Y-113309097D01*
X119775480Y-113230169D01*
X119646051Y-113123949D01*
X119539831Y-112994520D01*
X119460903Y-112846855D01*
X119412299Y-112686630D01*
X119395888Y-112520000D01*
X119412299Y-112353370D01*
X119460903Y-112193145D01*
X119539831Y-112045480D01*
X119646051Y-111916051D01*
X119775480Y-111809831D01*
X119923145Y-111730903D01*
X120083370Y-111682299D01*
X120208248Y-111670000D01*
X120291752Y-111670000D01*
X120416630Y-111682299D01*
X120416630Y-111682299D01*
G37*
G36*
X128303992Y-110891576D02*
X128337883Y-110901857D01*
X128369111Y-110918548D01*
X128396485Y-110941015D01*
X128418952Y-110968389D01*
X128435643Y-110999617D01*
X128445924Y-111033508D01*
X128450000Y-111074891D01*
X128450000Y-111675109D01*
X128445924Y-111716492D01*
X128435643Y-111750383D01*
X128418952Y-111781611D01*
X128396485Y-111808985D01*
X128369111Y-111831452D01*
X128337883Y-111848143D01*
X128303992Y-111858424D01*
X128262609Y-111862500D01*
X127237391Y-111862500D01*
X127196008Y-111858424D01*
X127162117Y-111848143D01*
X127130889Y-111831452D01*
X127103515Y-111808985D01*
X127081048Y-111781611D01*
X127064357Y-111750383D01*
X127054076Y-111716492D01*
X127050000Y-111675109D01*
X127050000Y-111074891D01*
X127054076Y-111033508D01*
X127064357Y-110999617D01*
X127081048Y-110968389D01*
X127103515Y-110941015D01*
X127130889Y-110918548D01*
X127162117Y-110901857D01*
X127196008Y-110891576D01*
X127237391Y-110887500D01*
X128262609Y-110887500D01*
X128303992Y-110891576D01*
X128303992Y-110891576D01*
G37*
G36*
X121100000Y-110830000D02*
X119400000Y-110830000D01*
X119400000Y-109130000D01*
X121100000Y-109130000D01*
X121100000Y-110830000D01*
X121100000Y-110830000D01*
G37*
G36*
X152427792Y-109384676D02*
X152461683Y-109394957D01*
X152492911Y-109411648D01*
X152520285Y-109434115D01*
X152542752Y-109461489D01*
X152559443Y-109492717D01*
X152569724Y-109526608D01*
X152573800Y-109567991D01*
X152573800Y-110168209D01*
X152569724Y-110209592D01*
X152559443Y-110243483D01*
X152542752Y-110274711D01*
X152520285Y-110302085D01*
X152492911Y-110324552D01*
X152461683Y-110341243D01*
X152427792Y-110351524D01*
X152386409Y-110355600D01*
X151361191Y-110355600D01*
X151319808Y-110351524D01*
X151285917Y-110341243D01*
X151254689Y-110324552D01*
X151227315Y-110302085D01*
X151204848Y-110274711D01*
X151188157Y-110243483D01*
X151177876Y-110209592D01*
X151173800Y-110168209D01*
X151173800Y-109567991D01*
X151177876Y-109526608D01*
X151188157Y-109492717D01*
X151204848Y-109461489D01*
X151227315Y-109434115D01*
X151254689Y-109411648D01*
X151285917Y-109394957D01*
X151319808Y-109384676D01*
X151361191Y-109380600D01*
X152386409Y-109380600D01*
X152427792Y-109384676D01*
X152427792Y-109384676D01*
G37*
G36*
X155120192Y-109359276D02*
X155154083Y-109369557D01*
X155185311Y-109386248D01*
X155212685Y-109408715D01*
X155235152Y-109436089D01*
X155251843Y-109467317D01*
X155262124Y-109501208D01*
X155266200Y-109542591D01*
X155266200Y-110142809D01*
X155262124Y-110184192D01*
X155251843Y-110218083D01*
X155235152Y-110249311D01*
X155212685Y-110276685D01*
X155185311Y-110299152D01*
X155154083Y-110315843D01*
X155120192Y-110326124D01*
X155078809Y-110330200D01*
X154053591Y-110330200D01*
X154012208Y-110326124D01*
X153978317Y-110315843D01*
X153947089Y-110299152D01*
X153919715Y-110276685D01*
X153897248Y-110249311D01*
X153880557Y-110218083D01*
X153870276Y-110184192D01*
X153866200Y-110142809D01*
X153866200Y-109542591D01*
X153870276Y-109501208D01*
X153880557Y-109467317D01*
X153897248Y-109436089D01*
X153919715Y-109408715D01*
X153947089Y-109386248D01*
X153978317Y-109369557D01*
X154012208Y-109359276D01*
X154053591Y-109355200D01*
X155078809Y-109355200D01*
X155120192Y-109359276D01*
X155120192Y-109359276D01*
G37*
G36*
X128303992Y-109016576D02*
X128337883Y-109026857D01*
X128369111Y-109043548D01*
X128396485Y-109066015D01*
X128418952Y-109093389D01*
X128435643Y-109124617D01*
X128445924Y-109158508D01*
X128450000Y-109199891D01*
X128450000Y-109800109D01*
X128445924Y-109841492D01*
X128435643Y-109875383D01*
X128418952Y-109906611D01*
X128396485Y-109933985D01*
X128369111Y-109956452D01*
X128337883Y-109973143D01*
X128303992Y-109983424D01*
X128262609Y-109987500D01*
X127237391Y-109987500D01*
X127196008Y-109983424D01*
X127162117Y-109973143D01*
X127130889Y-109956452D01*
X127103515Y-109933985D01*
X127081048Y-109906611D01*
X127064357Y-109875383D01*
X127054076Y-109841492D01*
X127050000Y-109800109D01*
X127050000Y-109199891D01*
X127054076Y-109158508D01*
X127064357Y-109124617D01*
X127081048Y-109093389D01*
X127103515Y-109066015D01*
X127130889Y-109043548D01*
X127162117Y-109026857D01*
X127196008Y-109016576D01*
X127237391Y-109012500D01*
X128262609Y-109012500D01*
X128303992Y-109016576D01*
X128303992Y-109016576D01*
G37*
G36*
X152427792Y-107509676D02*
X152461683Y-107519957D01*
X152492911Y-107536648D01*
X152520285Y-107559115D01*
X152542752Y-107586489D01*
X152559443Y-107617717D01*
X152569724Y-107651608D01*
X152573800Y-107692991D01*
X152573800Y-108293209D01*
X152569724Y-108334592D01*
X152559443Y-108368483D01*
X152542752Y-108399711D01*
X152520285Y-108427085D01*
X152492911Y-108449552D01*
X152461683Y-108466243D01*
X152427792Y-108476524D01*
X152386409Y-108480600D01*
X151361191Y-108480600D01*
X151319808Y-108476524D01*
X151285917Y-108466243D01*
X151254689Y-108449552D01*
X151227315Y-108427085D01*
X151204848Y-108399711D01*
X151188157Y-108368483D01*
X151177876Y-108334592D01*
X151173800Y-108293209D01*
X151173800Y-107692991D01*
X151177876Y-107651608D01*
X151188157Y-107617717D01*
X151204848Y-107586489D01*
X151227315Y-107559115D01*
X151254689Y-107536648D01*
X151285917Y-107519957D01*
X151319808Y-107509676D01*
X151361191Y-107505600D01*
X152386409Y-107505600D01*
X152427792Y-107509676D01*
X152427792Y-107509676D01*
G37*
G36*
X155120192Y-107484276D02*
X155154083Y-107494557D01*
X155185311Y-107511248D01*
X155212685Y-107533715D01*
X155235152Y-107561089D01*
X155251843Y-107592317D01*
X155262124Y-107626208D01*
X155266200Y-107667591D01*
X155266200Y-108267809D01*
X155262124Y-108309192D01*
X155251843Y-108343083D01*
X155235152Y-108374311D01*
X155212685Y-108401685D01*
X155185311Y-108424152D01*
X155154083Y-108440843D01*
X155120192Y-108451124D01*
X155078809Y-108455200D01*
X154053591Y-108455200D01*
X154012208Y-108451124D01*
X153978317Y-108440843D01*
X153947089Y-108424152D01*
X153919715Y-108401685D01*
X153897248Y-108374311D01*
X153880557Y-108343083D01*
X153870276Y-108309192D01*
X153866200Y-108267809D01*
X153866200Y-107667591D01*
X153870276Y-107626208D01*
X153880557Y-107592317D01*
X153897248Y-107561089D01*
X153919715Y-107533715D01*
X153947089Y-107511248D01*
X153978317Y-107494557D01*
X154012208Y-107484276D01*
X154053591Y-107480200D01*
X155078809Y-107480200D01*
X155120192Y-107484276D01*
X155120192Y-107484276D01*
G37*
G36*
X165632770Y-106470372D02*
X165748689Y-106493429D01*
X165930678Y-106568811D01*
X166094463Y-106678249D01*
X166233751Y-106817537D01*
X166343189Y-106981322D01*
X166418571Y-107163311D01*
X166441628Y-107279230D01*
X166457000Y-107356507D01*
X166457000Y-107553493D01*
X166449441Y-107591492D01*
X166418571Y-107746689D01*
X166343189Y-107928678D01*
X166233751Y-108092463D01*
X166094463Y-108231751D01*
X165930678Y-108341189D01*
X165748689Y-108416571D01*
X165647764Y-108436646D01*
X165555493Y-108455000D01*
X165358507Y-108455000D01*
X165266236Y-108436646D01*
X165165311Y-108416571D01*
X164983322Y-108341189D01*
X164819537Y-108231751D01*
X164680249Y-108092463D01*
X164570811Y-107928678D01*
X164495429Y-107746689D01*
X164464559Y-107591492D01*
X164457000Y-107553493D01*
X164457000Y-107356507D01*
X164472372Y-107279230D01*
X164495429Y-107163311D01*
X164570811Y-106981322D01*
X164680249Y-106817537D01*
X164819537Y-106678249D01*
X164983322Y-106568811D01*
X165165311Y-106493429D01*
X165281230Y-106470372D01*
X165358507Y-106455000D01*
X165555493Y-106455000D01*
X165632770Y-106470372D01*
X165632770Y-106470372D01*
G37*
G36*
X163957000Y-108455000D02*
X161957000Y-108455000D01*
X161957000Y-106455000D01*
X163957000Y-106455000D01*
X163957000Y-108455000D01*
X163957000Y-108455000D01*
G37*
G36*
X168132770Y-106470372D02*
X168248689Y-106493429D01*
X168430678Y-106568811D01*
X168594463Y-106678249D01*
X168733751Y-106817537D01*
X168843189Y-106981322D01*
X168918571Y-107163311D01*
X168941628Y-107279230D01*
X168957000Y-107356507D01*
X168957000Y-107553493D01*
X168949441Y-107591492D01*
X168918571Y-107746689D01*
X168843189Y-107928678D01*
X168733751Y-108092463D01*
X168594463Y-108231751D01*
X168430678Y-108341189D01*
X168248689Y-108416571D01*
X168147764Y-108436646D01*
X168055493Y-108455000D01*
X167858507Y-108455000D01*
X167766236Y-108436646D01*
X167665311Y-108416571D01*
X167483322Y-108341189D01*
X167319537Y-108231751D01*
X167180249Y-108092463D01*
X167070811Y-107928678D01*
X166995429Y-107746689D01*
X166964559Y-107591492D01*
X166957000Y-107553493D01*
X166957000Y-107356507D01*
X166972372Y-107279230D01*
X166995429Y-107163311D01*
X167070811Y-106981322D01*
X167180249Y-106817537D01*
X167319537Y-106678249D01*
X167483322Y-106568811D01*
X167665311Y-106493429D01*
X167781230Y-106470372D01*
X167858507Y-106455000D01*
X168055493Y-106455000D01*
X168132770Y-106470372D01*
X168132770Y-106470372D01*
G37*
G36*
X128303992Y-106766576D02*
X128337883Y-106776857D01*
X128369111Y-106793548D01*
X128396485Y-106816015D01*
X128418952Y-106843389D01*
X128435643Y-106874617D01*
X128445924Y-106908508D01*
X128450000Y-106949891D01*
X128450000Y-107550109D01*
X128445924Y-107591492D01*
X128435643Y-107625383D01*
X128418952Y-107656611D01*
X128396485Y-107683985D01*
X128369111Y-107706452D01*
X128337883Y-107723143D01*
X128303992Y-107733424D01*
X128262609Y-107737500D01*
X127237391Y-107737500D01*
X127196008Y-107733424D01*
X127162117Y-107723143D01*
X127130889Y-107706452D01*
X127103515Y-107683985D01*
X127081048Y-107656611D01*
X127064357Y-107625383D01*
X127054076Y-107591492D01*
X127050000Y-107550109D01*
X127050000Y-106949891D01*
X127054076Y-106908508D01*
X127064357Y-106874617D01*
X127081048Y-106843389D01*
X127103515Y-106816015D01*
X127130889Y-106793548D01*
X127162117Y-106776857D01*
X127196008Y-106766576D01*
X127237391Y-106762500D01*
X128262609Y-106762500D01*
X128303992Y-106766576D01*
X128303992Y-106766576D01*
G37*
G36*
X122256800Y-106100000D02*
X121356800Y-106100000D01*
X121356800Y-105300000D01*
X122256800Y-105300000D01*
X122256800Y-106100000D01*
X122256800Y-106100000D01*
G37*
G36*
X119450000Y-106100000D02*
X118550000Y-106100000D01*
X118550000Y-105300000D01*
X119450000Y-105300000D01*
X119450000Y-106100000D01*
X119450000Y-106100000D01*
G37*
G36*
X155170992Y-105108076D02*
X155204883Y-105118357D01*
X155236111Y-105135048D01*
X155263485Y-105157515D01*
X155285952Y-105184889D01*
X155302643Y-105216117D01*
X155312924Y-105250008D01*
X155317000Y-105291391D01*
X155317000Y-105891609D01*
X155312924Y-105932992D01*
X155302643Y-105966883D01*
X155285952Y-105998111D01*
X155263485Y-106025485D01*
X155236111Y-106047952D01*
X155204883Y-106064643D01*
X155170992Y-106074924D01*
X155129609Y-106079000D01*
X154104391Y-106079000D01*
X154063008Y-106074924D01*
X154029117Y-106064643D01*
X153997889Y-106047952D01*
X153970515Y-106025485D01*
X153948048Y-105998111D01*
X153931357Y-105966883D01*
X153921076Y-105932992D01*
X153917000Y-105891609D01*
X153917000Y-105291391D01*
X153921076Y-105250008D01*
X153931357Y-105216117D01*
X153948048Y-105184889D01*
X153970515Y-105157515D01*
X153997889Y-105135048D01*
X154029117Y-105118357D01*
X154063008Y-105108076D01*
X154104391Y-105104000D01*
X155129609Y-105104000D01*
X155170992Y-105108076D01*
X155170992Y-105108076D01*
G37*
G36*
X128303992Y-104891576D02*
X128337883Y-104901857D01*
X128369111Y-104918548D01*
X128396485Y-104941015D01*
X128418952Y-104968389D01*
X128435643Y-104999617D01*
X128445924Y-105033508D01*
X128450000Y-105074891D01*
X128450000Y-105675109D01*
X128445924Y-105716492D01*
X128435643Y-105750383D01*
X128418952Y-105781611D01*
X128396485Y-105808985D01*
X128369111Y-105831452D01*
X128337883Y-105848143D01*
X128303992Y-105858424D01*
X128262609Y-105862500D01*
X127237391Y-105862500D01*
X127196008Y-105858424D01*
X127162117Y-105848143D01*
X127130889Y-105831452D01*
X127103515Y-105808985D01*
X127081048Y-105781611D01*
X127064357Y-105750383D01*
X127054076Y-105716492D01*
X127050000Y-105675109D01*
X127050000Y-105074891D01*
X127054076Y-105033508D01*
X127064357Y-104999617D01*
X127081048Y-104968389D01*
X127103515Y-104941015D01*
X127130889Y-104918548D01*
X127162117Y-104901857D01*
X127196008Y-104891576D01*
X127237391Y-104887500D01*
X128262609Y-104887500D01*
X128303992Y-104891576D01*
X128303992Y-104891576D01*
G37*
G36*
X117450000Y-105150000D02*
X116550000Y-105150000D01*
X116550000Y-104350000D01*
X117450000Y-104350000D01*
X117450000Y-105150000D01*
X117450000Y-105150000D01*
G37*
G36*
X124256800Y-105150000D02*
X123356800Y-105150000D01*
X123356800Y-104350000D01*
X124256800Y-104350000D01*
X124256800Y-105150000D01*
X124256800Y-105150000D01*
G37*
G36*
X183915414Y-104060788D02*
X183990814Y-104083660D01*
X184060303Y-104120803D01*
X184121211Y-104170789D01*
X184171197Y-104231697D01*
X184208340Y-104301186D01*
X184231212Y-104376586D01*
X184238935Y-104455000D01*
X184231212Y-104533414D01*
X184208340Y-104608814D01*
X184171197Y-104678303D01*
X184121211Y-104739211D01*
X184060303Y-104789197D01*
X183990814Y-104826340D01*
X183915414Y-104849212D01*
X183856647Y-104855000D01*
X183217353Y-104855000D01*
X183158586Y-104849212D01*
X183083186Y-104826340D01*
X183013697Y-104789197D01*
X182952789Y-104739211D01*
X182902803Y-104678303D01*
X182865660Y-104608814D01*
X182842788Y-104533414D01*
X182835065Y-104455000D01*
X182842788Y-104376586D01*
X182865660Y-104301186D01*
X182902803Y-104231697D01*
X182952789Y-104170789D01*
X183013697Y-104120803D01*
X183083186Y-104083660D01*
X183158586Y-104060788D01*
X183217353Y-104055000D01*
X183856647Y-104055000D01*
X183915414Y-104060788D01*
X183915414Y-104060788D01*
G37*
G36*
X83344675Y-102963701D02*
X83374907Y-102972872D01*
X83402769Y-102987765D01*
X83427192Y-103007808D01*
X83447235Y-103032231D01*
X83462128Y-103060093D01*
X83471299Y-103090325D01*
X83475000Y-103127905D01*
X83475000Y-104492095D01*
X83471299Y-104529675D01*
X83462128Y-104559907D01*
X83447235Y-104587769D01*
X83427192Y-104612192D01*
X83402769Y-104632235D01*
X83374907Y-104647128D01*
X83344675Y-104656299D01*
X83307095Y-104660000D01*
X81692905Y-104660000D01*
X81655325Y-104656299D01*
X81625093Y-104647128D01*
X81597231Y-104632235D01*
X81572808Y-104612192D01*
X81552765Y-104587769D01*
X81537872Y-104559907D01*
X81528701Y-104529675D01*
X81525000Y-104492095D01*
X81525000Y-103127905D01*
X81528701Y-103090325D01*
X81537872Y-103060093D01*
X81552765Y-103032231D01*
X81572808Y-103007808D01*
X81597231Y-102987765D01*
X81625093Y-102972872D01*
X81655325Y-102963701D01*
X81692905Y-102960000D01*
X83307095Y-102960000D01*
X83344675Y-102963701D01*
X83344675Y-102963701D01*
G37*
G36*
X177965414Y-103700788D02*
X178040814Y-103723660D01*
X178110303Y-103760803D01*
X178171211Y-103810789D01*
X178221197Y-103871697D01*
X178258340Y-103941186D01*
X178281212Y-104016586D01*
X178288935Y-104095000D01*
X178281212Y-104173414D01*
X178258340Y-104248814D01*
X178221197Y-104318303D01*
X178171211Y-104379211D01*
X178110303Y-104429197D01*
X178040814Y-104466340D01*
X177965414Y-104489212D01*
X177906647Y-104495000D01*
X177267353Y-104495000D01*
X177208586Y-104489212D01*
X177133186Y-104466340D01*
X177063697Y-104429197D01*
X177002789Y-104379211D01*
X176952803Y-104318303D01*
X176915660Y-104248814D01*
X176892788Y-104173414D01*
X176885065Y-104095000D01*
X176892788Y-104016586D01*
X176915660Y-103941186D01*
X176952803Y-103871697D01*
X177002789Y-103810789D01*
X177063697Y-103760803D01*
X177133186Y-103723660D01*
X177208586Y-103700788D01*
X177267353Y-103695000D01*
X177906647Y-103695000D01*
X177965414Y-103700788D01*
X177965414Y-103700788D01*
G37*
G36*
X155170992Y-103233076D02*
X155204883Y-103243357D01*
X155236111Y-103260048D01*
X155263485Y-103282515D01*
X155285952Y-103309889D01*
X155302643Y-103341117D01*
X155312924Y-103375008D01*
X155317000Y-103416391D01*
X155317000Y-104016609D01*
X155312924Y-104057992D01*
X155302643Y-104091883D01*
X155285952Y-104123111D01*
X155263485Y-104150485D01*
X155236111Y-104172952D01*
X155204883Y-104189643D01*
X155170992Y-104199924D01*
X155129609Y-104204000D01*
X154104391Y-104204000D01*
X154063008Y-104199924D01*
X154029117Y-104189643D01*
X153997889Y-104172952D01*
X153970515Y-104150485D01*
X153948048Y-104123111D01*
X153931357Y-104091883D01*
X153921076Y-104057992D01*
X153917000Y-104016609D01*
X153917000Y-103416391D01*
X153921076Y-103375008D01*
X153931357Y-103341117D01*
X153948048Y-103309889D01*
X153970515Y-103282515D01*
X153997889Y-103260048D01*
X154029117Y-103243357D01*
X154063008Y-103233076D01*
X154104391Y-103229000D01*
X155129609Y-103229000D01*
X155170992Y-103233076D01*
X155170992Y-103233076D01*
G37*
G36*
X122256800Y-104200000D02*
X121356800Y-104200000D01*
X121356800Y-103400000D01*
X122256800Y-103400000D01*
X122256800Y-104200000D01*
X122256800Y-104200000D01*
G37*
G36*
X119450000Y-104200000D02*
X118550000Y-104200000D01*
X118550000Y-103400000D01*
X119450000Y-103400000D01*
X119450000Y-104200000D01*
X119450000Y-104200000D01*
G37*
G36*
X176400712Y-103094702D02*
X176461972Y-103113285D01*
X176489323Y-103127905D01*
X176518434Y-103143465D01*
X176567921Y-103184079D01*
X176608535Y-103233566D01*
X176618594Y-103252386D01*
X176638715Y-103290028D01*
X176657298Y-103351288D01*
X176662000Y-103399035D01*
X176662000Y-103730965D01*
X176657298Y-103778712D01*
X176638715Y-103839972D01*
X176621758Y-103871695D01*
X176608536Y-103896433D01*
X176608534Y-103896435D01*
X176567924Y-103945918D01*
X176567922Y-103945919D01*
X176567921Y-103945921D01*
X176518433Y-103986535D01*
X176488253Y-104002666D01*
X176461971Y-104016715D01*
X176400711Y-104035298D01*
X176337000Y-104041572D01*
X176273288Y-104035298D01*
X176212028Y-104016715D01*
X176174386Y-103996594D01*
X176155566Y-103986535D01*
X176123538Y-103960250D01*
X176106082Y-103945924D01*
X176106081Y-103945922D01*
X176106079Y-103945921D01*
X176065465Y-103896433D01*
X176049334Y-103866253D01*
X176035285Y-103839971D01*
X176016702Y-103778711D01*
X176012000Y-103730964D01*
X176012000Y-103399035D01*
X176016702Y-103351288D01*
X176035286Y-103290027D01*
X176065403Y-103233684D01*
X176065466Y-103233566D01*
X176106080Y-103184079D01*
X176155567Y-103143465D01*
X176184678Y-103127905D01*
X176212029Y-103113285D01*
X176273289Y-103094702D01*
X176337000Y-103088428D01*
X176400712Y-103094702D01*
X176400712Y-103094702D01*
G37*
G36*
X131237000Y-102880000D02*
X128737000Y-102880000D01*
X128737000Y-100380000D01*
X131237000Y-100380000D01*
X131237000Y-102880000D01*
X131237000Y-102880000D01*
G37*
G36*
X150737000Y-102880000D02*
X148237000Y-102880000D01*
X148237000Y-100380000D01*
X150737000Y-100380000D01*
X150737000Y-102880000D01*
X150737000Y-102880000D01*
G37*
G36*
X176027000Y-102865000D02*
X175327000Y-102865000D01*
X175327000Y-97065000D01*
X176027000Y-97065000D01*
X176027000Y-102865000D01*
X176027000Y-102865000D01*
G37*
G36*
X177727000Y-102615000D02*
X177027000Y-102615000D01*
X177027000Y-96815000D01*
X177727000Y-96815000D01*
X177727000Y-102615000D01*
X177727000Y-102615000D01*
G37*
G36*
X82791630Y-100472299D02*
X82951855Y-100520903D01*
X83099520Y-100599831D01*
X83228949Y-100706051D01*
X83335169Y-100835480D01*
X83414097Y-100983145D01*
X83462701Y-101143370D01*
X83479112Y-101310000D01*
X83462701Y-101476630D01*
X83414097Y-101636855D01*
X83335169Y-101784520D01*
X83228949Y-101913949D01*
X83099520Y-102020169D01*
X82951855Y-102099097D01*
X82791630Y-102147701D01*
X82666752Y-102160000D01*
X82333248Y-102160000D01*
X82208370Y-102147701D01*
X82048145Y-102099097D01*
X81900480Y-102020169D01*
X81771051Y-101913949D01*
X81664831Y-101784520D01*
X81585903Y-101636855D01*
X81537299Y-101476630D01*
X81520888Y-101310000D01*
X81537299Y-101143370D01*
X81585903Y-100983145D01*
X81664831Y-100835480D01*
X81771051Y-100706051D01*
X81900480Y-100599831D01*
X82048145Y-100520903D01*
X82208370Y-100472299D01*
X82333248Y-100460000D01*
X82666752Y-100460000D01*
X82791630Y-100472299D01*
X82791630Y-100472299D01*
G37*
G36*
X172057000Y-101555000D02*
X170057000Y-101555000D01*
X170057000Y-98355000D01*
X172057000Y-98355000D01*
X172057000Y-101555000D01*
X172057000Y-101555000D01*
G37*
G36*
X160857000Y-101555000D02*
X158857000Y-101555000D01*
X158857000Y-98355000D01*
X160857000Y-98355000D01*
X160857000Y-101555000D01*
X160857000Y-101555000D01*
G37*
G36*
X117465600Y-101551000D02*
X116565600Y-101551000D01*
X116565600Y-100751000D01*
X117465600Y-100751000D01*
X117465600Y-101551000D01*
X117465600Y-101551000D01*
G37*
G36*
X125247764Y-98754402D02*
X125370445Y-98778805D01*
X125544738Y-98851000D01*
X125601571Y-98874541D01*
X125809581Y-99013529D01*
X125986471Y-99190419D01*
X125986473Y-99190422D01*
X126125459Y-99398429D01*
X126221195Y-99629555D01*
X126238611Y-99717111D01*
X126246530Y-99756921D01*
X126270000Y-99874916D01*
X126270000Y-100125084D01*
X126221195Y-100370445D01*
X126179005Y-100472299D01*
X126125459Y-100601571D01*
X125986471Y-100809581D01*
X125809581Y-100986471D01*
X125809578Y-100986473D01*
X125601571Y-101125459D01*
X125370445Y-101221195D01*
X125247764Y-101245598D01*
X125125086Y-101270000D01*
X124874914Y-101270000D01*
X124752236Y-101245598D01*
X124629555Y-101221195D01*
X124398429Y-101125459D01*
X124190422Y-100986473D01*
X124190419Y-100986471D01*
X124013529Y-100809581D01*
X123874541Y-100601571D01*
X123820995Y-100472299D01*
X123778805Y-100370445D01*
X123730000Y-100125084D01*
X123730000Y-99874916D01*
X123753471Y-99756921D01*
X123761389Y-99717111D01*
X123778805Y-99629555D01*
X123874541Y-99398429D01*
X124013527Y-99190422D01*
X124013529Y-99190419D01*
X124190419Y-99013529D01*
X124398429Y-98874541D01*
X124455262Y-98851000D01*
X124629555Y-98778805D01*
X124752236Y-98754402D01*
X124874914Y-98730000D01*
X125125086Y-98730000D01*
X125247764Y-98754402D01*
X125247764Y-98754402D01*
G37*
G36*
X147137000Y-101155000D02*
X132337000Y-101155000D01*
X132337000Y-99905000D01*
X147137000Y-99905000D01*
X147137000Y-101155000D01*
X147137000Y-101155000D01*
G37*
G36*
X119465600Y-100601000D02*
X118565600Y-100601000D01*
X118565600Y-99801000D01*
X119465600Y-99801000D01*
X119465600Y-100601000D01*
X119465600Y-100601000D01*
G37*
G36*
X155046992Y-98402076D02*
X155080883Y-98412357D01*
X155112111Y-98429048D01*
X155139485Y-98451515D01*
X155161952Y-98478889D01*
X155178643Y-98510117D01*
X155188924Y-98544008D01*
X155193000Y-98585391D01*
X155193000Y-99610609D01*
X155188924Y-99651992D01*
X155178643Y-99685883D01*
X155161952Y-99717111D01*
X155139485Y-99744485D01*
X155112111Y-99766952D01*
X155080883Y-99783643D01*
X155046992Y-99793924D01*
X155005609Y-99798000D01*
X154405391Y-99798000D01*
X154364008Y-99793924D01*
X154330117Y-99783643D01*
X154298889Y-99766952D01*
X154271515Y-99744485D01*
X154249048Y-99717111D01*
X154232357Y-99685883D01*
X154222076Y-99651992D01*
X154218000Y-99610609D01*
X154218000Y-98585391D01*
X154222076Y-98544008D01*
X154232357Y-98510117D01*
X154249048Y-98478889D01*
X154271515Y-98451515D01*
X154298889Y-98429048D01*
X154330117Y-98412357D01*
X154364008Y-98402076D01*
X154405391Y-98398000D01*
X155005609Y-98398000D01*
X155046992Y-98402076D01*
X155046992Y-98402076D01*
G37*
G36*
X156921992Y-98402076D02*
X156955883Y-98412357D01*
X156987111Y-98429048D01*
X157014485Y-98451515D01*
X157036952Y-98478889D01*
X157053643Y-98510117D01*
X157063924Y-98544008D01*
X157068000Y-98585391D01*
X157068000Y-99610609D01*
X157063924Y-99651992D01*
X157053643Y-99685883D01*
X157036952Y-99717111D01*
X157014485Y-99744485D01*
X156987111Y-99766952D01*
X156955883Y-99783643D01*
X156921992Y-99793924D01*
X156880609Y-99798000D01*
X156280391Y-99798000D01*
X156239008Y-99793924D01*
X156205117Y-99783643D01*
X156173889Y-99766952D01*
X156146515Y-99744485D01*
X156124048Y-99717111D01*
X156107357Y-99685883D01*
X156097076Y-99651992D01*
X156093000Y-99610609D01*
X156093000Y-98585391D01*
X156097076Y-98544008D01*
X156107357Y-98510117D01*
X156124048Y-98478889D01*
X156146515Y-98451515D01*
X156173889Y-98429048D01*
X156205117Y-98412357D01*
X156239008Y-98402076D01*
X156280391Y-98398000D01*
X156880609Y-98398000D01*
X156921992Y-98402076D01*
X156921992Y-98402076D01*
G37*
G36*
X82791630Y-97972299D02*
X82951855Y-98020903D01*
X83099520Y-98099831D01*
X83228949Y-98206051D01*
X83335169Y-98335480D01*
X83414097Y-98483145D01*
X83462701Y-98643370D01*
X83479112Y-98810000D01*
X83462701Y-98976630D01*
X83414097Y-99136855D01*
X83335169Y-99284520D01*
X83228949Y-99413949D01*
X83099520Y-99520169D01*
X82951855Y-99599097D01*
X82791630Y-99647701D01*
X82666752Y-99660000D01*
X82333248Y-99660000D01*
X82208370Y-99647701D01*
X82048145Y-99599097D01*
X81900480Y-99520169D01*
X81771051Y-99413949D01*
X81664831Y-99284520D01*
X81585903Y-99136855D01*
X81537299Y-98976630D01*
X81520888Y-98810000D01*
X81537299Y-98643370D01*
X81585903Y-98483145D01*
X81664831Y-98335480D01*
X81771051Y-98206051D01*
X81900480Y-98099831D01*
X82048145Y-98020903D01*
X82208370Y-97972299D01*
X82333248Y-97960000D01*
X82666752Y-97960000D01*
X82791630Y-97972299D01*
X82791630Y-97972299D01*
G37*
G36*
X117465600Y-99651000D02*
X116565600Y-99651000D01*
X116565600Y-98851000D01*
X117465600Y-98851000D01*
X117465600Y-99651000D01*
X117465600Y-99651000D01*
G37*
G36*
X147130992Y-97669076D02*
X147164883Y-97679357D01*
X147196111Y-97696048D01*
X147223485Y-97718515D01*
X147245952Y-97745889D01*
X147262643Y-97777117D01*
X147272924Y-97811008D01*
X147277000Y-97852391D01*
X147277000Y-98452609D01*
X147272924Y-98493992D01*
X147262643Y-98527883D01*
X147245952Y-98559111D01*
X147223485Y-98586485D01*
X147196111Y-98608952D01*
X147164883Y-98625643D01*
X147130992Y-98635924D01*
X147089609Y-98640000D01*
X146064391Y-98640000D01*
X146023008Y-98635924D01*
X145989117Y-98625643D01*
X145957889Y-98608952D01*
X145930515Y-98586485D01*
X145908048Y-98559111D01*
X145891357Y-98527883D01*
X145881076Y-98493992D01*
X145877000Y-98452609D01*
X145877000Y-97852391D01*
X145881076Y-97811008D01*
X145891357Y-97777117D01*
X145908048Y-97745889D01*
X145930515Y-97718515D01*
X145957889Y-97696048D01*
X145989117Y-97679357D01*
X146023008Y-97669076D01*
X146064391Y-97665000D01*
X147089609Y-97665000D01*
X147130992Y-97669076D01*
X147130992Y-97669076D01*
G37*
G36*
X120403992Y-96554076D02*
X120437883Y-96564357D01*
X120469111Y-96581048D01*
X120496485Y-96603515D01*
X120518952Y-96630889D01*
X120535643Y-96662117D01*
X120545924Y-96696008D01*
X120550000Y-96737391D01*
X120550000Y-97762609D01*
X120545924Y-97803992D01*
X120535643Y-97837883D01*
X120518952Y-97869111D01*
X120496485Y-97896485D01*
X120469111Y-97918952D01*
X120437883Y-97935643D01*
X120403992Y-97945924D01*
X120362609Y-97950000D01*
X119762391Y-97950000D01*
X119721008Y-97945924D01*
X119687117Y-97935643D01*
X119655889Y-97918952D01*
X119628515Y-97896485D01*
X119606048Y-97869111D01*
X119589357Y-97837883D01*
X119579076Y-97803992D01*
X119575000Y-97762609D01*
X119575000Y-96737391D01*
X119579076Y-96696008D01*
X119589357Y-96662117D01*
X119606048Y-96630889D01*
X119628515Y-96603515D01*
X119655889Y-96581048D01*
X119687117Y-96564357D01*
X119721008Y-96554076D01*
X119762391Y-96550000D01*
X120362609Y-96550000D01*
X120403992Y-96554076D01*
X120403992Y-96554076D01*
G37*
G36*
X122278992Y-96554076D02*
X122312883Y-96564357D01*
X122344111Y-96581048D01*
X122371485Y-96603515D01*
X122393952Y-96630889D01*
X122410643Y-96662117D01*
X122420924Y-96696008D01*
X122425000Y-96737391D01*
X122425000Y-97762609D01*
X122420924Y-97803992D01*
X122410643Y-97837883D01*
X122393952Y-97869111D01*
X122371485Y-97896485D01*
X122344111Y-97918952D01*
X122312883Y-97935643D01*
X122278992Y-97945924D01*
X122237609Y-97950000D01*
X121637391Y-97950000D01*
X121596008Y-97945924D01*
X121562117Y-97935643D01*
X121530889Y-97918952D01*
X121503515Y-97896485D01*
X121481048Y-97869111D01*
X121464357Y-97837883D01*
X121454076Y-97803992D01*
X121450000Y-97762609D01*
X121450000Y-96737391D01*
X121454076Y-96696008D01*
X121464357Y-96662117D01*
X121481048Y-96630889D01*
X121503515Y-96603515D01*
X121530889Y-96581048D01*
X121562117Y-96564357D01*
X121596008Y-96554076D01*
X121637391Y-96550000D01*
X122237609Y-96550000D01*
X122278992Y-96554076D01*
X122278992Y-96554076D01*
G37*
G36*
X142552000Y-97811000D02*
X136802000Y-97811000D01*
X136802000Y-96511000D01*
X142552000Y-96511000D01*
X142552000Y-97811000D01*
X142552000Y-97811000D01*
G37*
G36*
X82791630Y-95472299D02*
X82951855Y-95520903D01*
X83099520Y-95599831D01*
X83228949Y-95706051D01*
X83335169Y-95835480D01*
X83414097Y-95983145D01*
X83462701Y-96143370D01*
X83479112Y-96310000D01*
X83462701Y-96476630D01*
X83414097Y-96636855D01*
X83335169Y-96784520D01*
X83228949Y-96913949D01*
X83099520Y-97020169D01*
X82951855Y-97099097D01*
X82791630Y-97147701D01*
X82666752Y-97160000D01*
X82333248Y-97160000D01*
X82208370Y-97147701D01*
X82048145Y-97099097D01*
X81900480Y-97020169D01*
X81771051Y-96913949D01*
X81664831Y-96784520D01*
X81585903Y-96636855D01*
X81537299Y-96476630D01*
X81520888Y-96310000D01*
X81537299Y-96143370D01*
X81585903Y-95983145D01*
X81664831Y-95835480D01*
X81771051Y-95706051D01*
X81900480Y-95599831D01*
X82048145Y-95520903D01*
X82208370Y-95472299D01*
X82333248Y-95460000D01*
X82666752Y-95460000D01*
X82791630Y-95472299D01*
X82791630Y-95472299D01*
G37*
G36*
X147130992Y-95794076D02*
X147164883Y-95804357D01*
X147196111Y-95821048D01*
X147223485Y-95843515D01*
X147245952Y-95870889D01*
X147262643Y-95902117D01*
X147272924Y-95936008D01*
X147277000Y-95977391D01*
X147277000Y-96577609D01*
X147272924Y-96618992D01*
X147262643Y-96652883D01*
X147245952Y-96684111D01*
X147223485Y-96711485D01*
X147196111Y-96733952D01*
X147164883Y-96750643D01*
X147130992Y-96760924D01*
X147089609Y-96765000D01*
X146064391Y-96765000D01*
X146023008Y-96760924D01*
X145989117Y-96750643D01*
X145957889Y-96733952D01*
X145930515Y-96711485D01*
X145908048Y-96684111D01*
X145891357Y-96652883D01*
X145881076Y-96618992D01*
X145877000Y-96577609D01*
X145877000Y-95977391D01*
X145881076Y-95936008D01*
X145891357Y-95902117D01*
X145908048Y-95870889D01*
X145930515Y-95843515D01*
X145957889Y-95821048D01*
X145989117Y-95804357D01*
X146023008Y-95794076D01*
X146064391Y-95790000D01*
X147089609Y-95790000D01*
X147130992Y-95794076D01*
X147130992Y-95794076D01*
G37*
G36*
X176431799Y-96052489D02*
X176477543Y-96071437D01*
X176490941Y-96076986D01*
X176490942Y-96076987D01*
X176490945Y-96076988D01*
X176544176Y-96112556D01*
X176589444Y-96157824D01*
X176625012Y-96211055D01*
X176649511Y-96270201D01*
X176662000Y-96332990D01*
X176662000Y-96397010D01*
X176649511Y-96459799D01*
X176625012Y-96518945D01*
X176589444Y-96572176D01*
X176544176Y-96617444D01*
X176490945Y-96653012D01*
X176490942Y-96653013D01*
X176490941Y-96653014D01*
X176482114Y-96656670D01*
X176431799Y-96677511D01*
X176369010Y-96690000D01*
X176304990Y-96690000D01*
X176242201Y-96677511D01*
X176191886Y-96656670D01*
X176183059Y-96653014D01*
X176183058Y-96653013D01*
X176183055Y-96653012D01*
X176129824Y-96617444D01*
X176084556Y-96572176D01*
X176048988Y-96518945D01*
X176024489Y-96459799D01*
X176012000Y-96397010D01*
X176012000Y-96332990D01*
X176024489Y-96270201D01*
X176048988Y-96211055D01*
X176084556Y-96157824D01*
X176129824Y-96112556D01*
X176183055Y-96076988D01*
X176183058Y-96076987D01*
X176183059Y-96076986D01*
X176196457Y-96071437D01*
X176242201Y-96052489D01*
X176304990Y-96040000D01*
X176369010Y-96040000D01*
X176431799Y-96052489D01*
X176431799Y-96052489D01*
G37*
G36*
X156885800Y-96345000D02*
X153228200Y-96345000D01*
X153228200Y-94313000D01*
X156885800Y-94313000D01*
X156885800Y-96345000D01*
X156885800Y-96345000D01*
G37*
G36*
X177965414Y-95440788D02*
X178040814Y-95463660D01*
X178110303Y-95500803D01*
X178171211Y-95550789D01*
X178221197Y-95611697D01*
X178258340Y-95681186D01*
X178281212Y-95756586D01*
X178288935Y-95835000D01*
X178281212Y-95913414D01*
X178258340Y-95988814D01*
X178221197Y-96058303D01*
X178171211Y-96119211D01*
X178110303Y-96169197D01*
X178040814Y-96206340D01*
X177965414Y-96229212D01*
X177906647Y-96235000D01*
X177267353Y-96235000D01*
X177208586Y-96229212D01*
X177133186Y-96206340D01*
X177063697Y-96169197D01*
X177002789Y-96119211D01*
X176952803Y-96058303D01*
X176915660Y-95988814D01*
X176892788Y-95913414D01*
X176885065Y-95835000D01*
X176892788Y-95756586D01*
X176915660Y-95681186D01*
X176952803Y-95611697D01*
X177002789Y-95550789D01*
X177063697Y-95500803D01*
X177133186Y-95463660D01*
X177208586Y-95440788D01*
X177267353Y-95435000D01*
X177906647Y-95435000D01*
X177965414Y-95440788D01*
X177965414Y-95440788D01*
G37*
G36*
X128803992Y-95016576D02*
X128837883Y-95026857D01*
X128869111Y-95043548D01*
X128896485Y-95066015D01*
X128918952Y-95093389D01*
X128935643Y-95124617D01*
X128945924Y-95158508D01*
X128950000Y-95199891D01*
X128950000Y-95800109D01*
X128945924Y-95841492D01*
X128935643Y-95875383D01*
X128918952Y-95906611D01*
X128896485Y-95933985D01*
X128869111Y-95956452D01*
X128837883Y-95973143D01*
X128803992Y-95983424D01*
X128762609Y-95987500D01*
X127737391Y-95987500D01*
X127696008Y-95983424D01*
X127662117Y-95973143D01*
X127630889Y-95956452D01*
X127603515Y-95933985D01*
X127581048Y-95906611D01*
X127564357Y-95875383D01*
X127554076Y-95841492D01*
X127550000Y-95800109D01*
X127550000Y-95199891D01*
X127554076Y-95158508D01*
X127564357Y-95124617D01*
X127581048Y-95093389D01*
X127603515Y-95066015D01*
X127630889Y-95043548D01*
X127662117Y-95026857D01*
X127696008Y-95016576D01*
X127737391Y-95012500D01*
X128762609Y-95012500D01*
X128803992Y-95016576D01*
X128803992Y-95016576D01*
G37*
G36*
X183915414Y-95080788D02*
X183990814Y-95103660D01*
X184060303Y-95140803D01*
X184121211Y-95190789D01*
X184171197Y-95251697D01*
X184208340Y-95321186D01*
X184231212Y-95396586D01*
X184238935Y-95475000D01*
X184231212Y-95553414D01*
X184208340Y-95628814D01*
X184171197Y-95698303D01*
X184121211Y-95759211D01*
X184060303Y-95809197D01*
X183990814Y-95846340D01*
X183915414Y-95869212D01*
X183856647Y-95875000D01*
X183217353Y-95875000D01*
X183158586Y-95869212D01*
X183083186Y-95846340D01*
X183013697Y-95809197D01*
X182952789Y-95759211D01*
X182902803Y-95698303D01*
X182865660Y-95628814D01*
X182842788Y-95553414D01*
X182835065Y-95475000D01*
X182842788Y-95396586D01*
X182865660Y-95321186D01*
X182902803Y-95251697D01*
X182952789Y-95190789D01*
X183013697Y-95140803D01*
X183083186Y-95103660D01*
X183158586Y-95080788D01*
X183217353Y-95075000D01*
X183856647Y-95075000D01*
X183915414Y-95080788D01*
X183915414Y-95080788D01*
G37*
G36*
X125417992Y-94447076D02*
X125451883Y-94457357D01*
X125483111Y-94474048D01*
X125510485Y-94496515D01*
X125532952Y-94523889D01*
X125549643Y-94555117D01*
X125559924Y-94589008D01*
X125564000Y-94630391D01*
X125564000Y-95655609D01*
X125559924Y-95696992D01*
X125549643Y-95730883D01*
X125532952Y-95762111D01*
X125510485Y-95789485D01*
X125483111Y-95811952D01*
X125451883Y-95828643D01*
X125417992Y-95838924D01*
X125376609Y-95843000D01*
X124776391Y-95843000D01*
X124735008Y-95838924D01*
X124701117Y-95828643D01*
X124669889Y-95811952D01*
X124642515Y-95789485D01*
X124620048Y-95762111D01*
X124603357Y-95730883D01*
X124593076Y-95696992D01*
X124589000Y-95655609D01*
X124589000Y-94630391D01*
X124593076Y-94589008D01*
X124603357Y-94555117D01*
X124620048Y-94523889D01*
X124642515Y-94496515D01*
X124669889Y-94474048D01*
X124701117Y-94457357D01*
X124735008Y-94447076D01*
X124776391Y-94443000D01*
X125376609Y-94443000D01*
X125417992Y-94447076D01*
X125417992Y-94447076D01*
G37*
G36*
X123542992Y-94447076D02*
X123576883Y-94457357D01*
X123608111Y-94474048D01*
X123635485Y-94496515D01*
X123657952Y-94523889D01*
X123674643Y-94555117D01*
X123684924Y-94589008D01*
X123689000Y-94630391D01*
X123689000Y-95655609D01*
X123684924Y-95696992D01*
X123674643Y-95730883D01*
X123657952Y-95762111D01*
X123635485Y-95789485D01*
X123608111Y-95811952D01*
X123576883Y-95828643D01*
X123542992Y-95838924D01*
X123501609Y-95843000D01*
X122901391Y-95843000D01*
X122860008Y-95838924D01*
X122826117Y-95828643D01*
X122794889Y-95811952D01*
X122767515Y-95789485D01*
X122745048Y-95762111D01*
X122728357Y-95730883D01*
X122718076Y-95696992D01*
X122714000Y-95655609D01*
X122714000Y-94630391D01*
X122718076Y-94589008D01*
X122728357Y-94555117D01*
X122745048Y-94523889D01*
X122767515Y-94496515D01*
X122794889Y-94474048D01*
X122826117Y-94457357D01*
X122860008Y-94447076D01*
X122901391Y-94443000D01*
X123501609Y-94443000D01*
X123542992Y-94447076D01*
X123542992Y-94447076D01*
G37*
G36*
X121271992Y-94428076D02*
X121305883Y-94438357D01*
X121337111Y-94455048D01*
X121364485Y-94477515D01*
X121386952Y-94504889D01*
X121403643Y-94536117D01*
X121413924Y-94570008D01*
X121418000Y-94611391D01*
X121418000Y-95636609D01*
X121413924Y-95677992D01*
X121403643Y-95711883D01*
X121386952Y-95743111D01*
X121364485Y-95770485D01*
X121337111Y-95792952D01*
X121305883Y-95809643D01*
X121271992Y-95819924D01*
X121230609Y-95824000D01*
X120630391Y-95824000D01*
X120589008Y-95819924D01*
X120555117Y-95809643D01*
X120523889Y-95792952D01*
X120496515Y-95770485D01*
X120474048Y-95743111D01*
X120457357Y-95711883D01*
X120447076Y-95677992D01*
X120443000Y-95636609D01*
X120443000Y-94611391D01*
X120447076Y-94570008D01*
X120457357Y-94536117D01*
X120474048Y-94504889D01*
X120496515Y-94477515D01*
X120523889Y-94455048D01*
X120555117Y-94438357D01*
X120589008Y-94428076D01*
X120630391Y-94424000D01*
X121230609Y-94424000D01*
X121271992Y-94428076D01*
X121271992Y-94428076D01*
G37*
G36*
X119396992Y-94428076D02*
X119430883Y-94438357D01*
X119462111Y-94455048D01*
X119489485Y-94477515D01*
X119511952Y-94504889D01*
X119528643Y-94536117D01*
X119538924Y-94570008D01*
X119543000Y-94611391D01*
X119543000Y-95636609D01*
X119538924Y-95677992D01*
X119528643Y-95711883D01*
X119511952Y-95743111D01*
X119489485Y-95770485D01*
X119462111Y-95792952D01*
X119430883Y-95809643D01*
X119396992Y-95819924D01*
X119355609Y-95824000D01*
X118755391Y-95824000D01*
X118714008Y-95819924D01*
X118680117Y-95809643D01*
X118648889Y-95792952D01*
X118621515Y-95770485D01*
X118599048Y-95743111D01*
X118582357Y-95711883D01*
X118572076Y-95677992D01*
X118568000Y-95636609D01*
X118568000Y-94611391D01*
X118572076Y-94570008D01*
X118582357Y-94536117D01*
X118599048Y-94504889D01*
X118621515Y-94477515D01*
X118648889Y-94455048D01*
X118680117Y-94438357D01*
X118714008Y-94428076D01*
X118755391Y-94424000D01*
X119355609Y-94424000D01*
X119396992Y-94428076D01*
X119396992Y-94428076D01*
G37*
G36*
X144677000Y-95686000D02*
X143377000Y-95686000D01*
X143377000Y-89936000D01*
X144677000Y-89936000D01*
X144677000Y-95686000D01*
X144677000Y-95686000D01*
G37*
G36*
X135977000Y-95686000D02*
X134677000Y-95686000D01*
X134677000Y-89936000D01*
X135977000Y-89936000D01*
X135977000Y-95686000D01*
X135977000Y-95686000D01*
G37*
G36*
X147804992Y-93246276D02*
X147838883Y-93256557D01*
X147870111Y-93273248D01*
X147897485Y-93295715D01*
X147919952Y-93323089D01*
X147936643Y-93354317D01*
X147946924Y-93388208D01*
X147951000Y-93429591D01*
X147951000Y-94029809D01*
X147946924Y-94071192D01*
X147936643Y-94105083D01*
X147919952Y-94136311D01*
X147897485Y-94163685D01*
X147870111Y-94186152D01*
X147838883Y-94202843D01*
X147804992Y-94213124D01*
X147763609Y-94217200D01*
X146738391Y-94217200D01*
X146697008Y-94213124D01*
X146663117Y-94202843D01*
X146631889Y-94186152D01*
X146604515Y-94163685D01*
X146582048Y-94136311D01*
X146565357Y-94105083D01*
X146555076Y-94071192D01*
X146551000Y-94029809D01*
X146551000Y-93429591D01*
X146555076Y-93388208D01*
X146565357Y-93354317D01*
X146582048Y-93323089D01*
X146604515Y-93295715D01*
X146631889Y-93273248D01*
X146663117Y-93256557D01*
X146697008Y-93246276D01*
X146738391Y-93242200D01*
X147763609Y-93242200D01*
X147804992Y-93246276D01*
X147804992Y-93246276D01*
G37*
G36*
X128803992Y-93141576D02*
X128837883Y-93151857D01*
X128869111Y-93168548D01*
X128896485Y-93191015D01*
X128918952Y-93218389D01*
X128935643Y-93249617D01*
X128945924Y-93283508D01*
X128950000Y-93324891D01*
X128950000Y-93925109D01*
X128945924Y-93966492D01*
X128935643Y-94000383D01*
X128918952Y-94031611D01*
X128896485Y-94058985D01*
X128869111Y-94081452D01*
X128837883Y-94098143D01*
X128803992Y-94108424D01*
X128762609Y-94112500D01*
X127737391Y-94112500D01*
X127696008Y-94108424D01*
X127662117Y-94098143D01*
X127630889Y-94081452D01*
X127603515Y-94058985D01*
X127581048Y-94031611D01*
X127564357Y-94000383D01*
X127554076Y-93966492D01*
X127550000Y-93925109D01*
X127550000Y-93324891D01*
X127554076Y-93283508D01*
X127564357Y-93249617D01*
X127581048Y-93218389D01*
X127603515Y-93191015D01*
X127630889Y-93168548D01*
X127662117Y-93151857D01*
X127696008Y-93141576D01*
X127737391Y-93137500D01*
X128762609Y-93137500D01*
X128803992Y-93141576D01*
X128803992Y-93141576D01*
G37*
G36*
X168130344Y-91969889D02*
X168248689Y-91993429D01*
X168430678Y-92068811D01*
X168594463Y-92178249D01*
X168733751Y-92317537D01*
X168843189Y-92481322D01*
X168918571Y-92663311D01*
X168923084Y-92686000D01*
X168957000Y-92856507D01*
X168957000Y-93053493D01*
X168947429Y-93101609D01*
X168918571Y-93246689D01*
X168843189Y-93428678D01*
X168733751Y-93592463D01*
X168594463Y-93731751D01*
X168430678Y-93841189D01*
X168248689Y-93916571D01*
X168132770Y-93939628D01*
X168055493Y-93955000D01*
X167858507Y-93955000D01*
X167781230Y-93939628D01*
X167665311Y-93916571D01*
X167483322Y-93841189D01*
X167319537Y-93731751D01*
X167180249Y-93592463D01*
X167070811Y-93428678D01*
X166995429Y-93246689D01*
X166966571Y-93101609D01*
X166957000Y-93053493D01*
X166957000Y-92856507D01*
X166990916Y-92686000D01*
X166995429Y-92663311D01*
X167070811Y-92481322D01*
X167180249Y-92317537D01*
X167319537Y-92178249D01*
X167483322Y-92068811D01*
X167665311Y-91993429D01*
X167783656Y-91969889D01*
X167858507Y-91955000D01*
X168055493Y-91955000D01*
X168130344Y-91969889D01*
X168130344Y-91969889D01*
G37*
G36*
X163130344Y-91969889D02*
X163248689Y-91993429D01*
X163430678Y-92068811D01*
X163594463Y-92178249D01*
X163733751Y-92317537D01*
X163843189Y-92481322D01*
X163918571Y-92663311D01*
X163923084Y-92686000D01*
X163957000Y-92856507D01*
X163957000Y-93053493D01*
X163947429Y-93101609D01*
X163918571Y-93246689D01*
X163843189Y-93428678D01*
X163733751Y-93592463D01*
X163594463Y-93731751D01*
X163430678Y-93841189D01*
X163248689Y-93916571D01*
X163132770Y-93939628D01*
X163055493Y-93955000D01*
X162858507Y-93955000D01*
X162781230Y-93939628D01*
X162665311Y-93916571D01*
X162483322Y-93841189D01*
X162319537Y-93731751D01*
X162180249Y-93592463D01*
X162070811Y-93428678D01*
X161995429Y-93246689D01*
X161966571Y-93101609D01*
X161957000Y-93053493D01*
X161957000Y-92856507D01*
X161990916Y-92686000D01*
X161995429Y-92663311D01*
X162070811Y-92481322D01*
X162180249Y-92317537D01*
X162319537Y-92178249D01*
X162483322Y-92068811D01*
X162665311Y-91993429D01*
X162783656Y-91969889D01*
X162858507Y-91955000D01*
X163055493Y-91955000D01*
X163130344Y-91969889D01*
X163130344Y-91969889D01*
G37*
G36*
X175041992Y-91893076D02*
X175075883Y-91903357D01*
X175107111Y-91920048D01*
X175134485Y-91942515D01*
X175156952Y-91969889D01*
X175173643Y-92001117D01*
X175183924Y-92035008D01*
X175188000Y-92076391D01*
X175188000Y-93101609D01*
X175183924Y-93142992D01*
X175173643Y-93176883D01*
X175156952Y-93208111D01*
X175134485Y-93235485D01*
X175107111Y-93257952D01*
X175075883Y-93274643D01*
X175041992Y-93284924D01*
X175000609Y-93289000D01*
X174400391Y-93289000D01*
X174359008Y-93284924D01*
X174325117Y-93274643D01*
X174293889Y-93257952D01*
X174266515Y-93235485D01*
X174244048Y-93208111D01*
X174227357Y-93176883D01*
X174217076Y-93142992D01*
X174213000Y-93101609D01*
X174213000Y-92076391D01*
X174217076Y-92035008D01*
X174227357Y-92001117D01*
X174244048Y-91969889D01*
X174266515Y-91942515D01*
X174293889Y-91920048D01*
X174325117Y-91903357D01*
X174359008Y-91893076D01*
X174400391Y-91889000D01*
X175000609Y-91889000D01*
X175041992Y-91893076D01*
X175041992Y-91893076D01*
G37*
G36*
X176916992Y-91893076D02*
X176950883Y-91903357D01*
X176982111Y-91920048D01*
X177009485Y-91942515D01*
X177031952Y-91969889D01*
X177048643Y-92001117D01*
X177058924Y-92035008D01*
X177063000Y-92076391D01*
X177063000Y-93101609D01*
X177058924Y-93142992D01*
X177048643Y-93176883D01*
X177031952Y-93208111D01*
X177009485Y-93235485D01*
X176982111Y-93257952D01*
X176950883Y-93274643D01*
X176916992Y-93284924D01*
X176875609Y-93289000D01*
X176275391Y-93289000D01*
X176234008Y-93284924D01*
X176200117Y-93274643D01*
X176168889Y-93257952D01*
X176141515Y-93235485D01*
X176119048Y-93208111D01*
X176102357Y-93176883D01*
X176092076Y-93142992D01*
X176088000Y-93101609D01*
X176088000Y-92076391D01*
X176092076Y-92035008D01*
X176102357Y-92001117D01*
X176119048Y-91969889D01*
X176141515Y-91942515D01*
X176168889Y-91920048D01*
X176200117Y-91903357D01*
X176234008Y-91893076D01*
X176275391Y-91889000D01*
X176875609Y-91889000D01*
X176916992Y-91893076D01*
X176916992Y-91893076D01*
G37*
G36*
X178404992Y-91893076D02*
X178438883Y-91903357D01*
X178470111Y-91920048D01*
X178497485Y-91942515D01*
X178519952Y-91969889D01*
X178536643Y-92001117D01*
X178546924Y-92035008D01*
X178551000Y-92076391D01*
X178551000Y-93101609D01*
X178546924Y-93142992D01*
X178536643Y-93176883D01*
X178519952Y-93208111D01*
X178497485Y-93235485D01*
X178470111Y-93257952D01*
X178438883Y-93274643D01*
X178404992Y-93284924D01*
X178363609Y-93289000D01*
X177763391Y-93289000D01*
X177722008Y-93284924D01*
X177688117Y-93274643D01*
X177656889Y-93257952D01*
X177629515Y-93235485D01*
X177607048Y-93208111D01*
X177590357Y-93176883D01*
X177580076Y-93142992D01*
X177576000Y-93101609D01*
X177576000Y-92076391D01*
X177580076Y-92035008D01*
X177590357Y-92001117D01*
X177607048Y-91969889D01*
X177629515Y-91942515D01*
X177656889Y-91920048D01*
X177688117Y-91903357D01*
X177722008Y-91893076D01*
X177763391Y-91889000D01*
X178363609Y-91889000D01*
X178404992Y-91893076D01*
X178404992Y-91893076D01*
G37*
G36*
X180279992Y-91893076D02*
X180313883Y-91903357D01*
X180345111Y-91920048D01*
X180372485Y-91942515D01*
X180394952Y-91969889D01*
X180411643Y-92001117D01*
X180421924Y-92035008D01*
X180426000Y-92076391D01*
X180426000Y-93101609D01*
X180421924Y-93142992D01*
X180411643Y-93176883D01*
X180394952Y-93208111D01*
X180372485Y-93235485D01*
X180345111Y-93257952D01*
X180313883Y-93274643D01*
X180279992Y-93284924D01*
X180238609Y-93289000D01*
X179638391Y-93289000D01*
X179597008Y-93284924D01*
X179563117Y-93274643D01*
X179531889Y-93257952D01*
X179504515Y-93235485D01*
X179482048Y-93208111D01*
X179465357Y-93176883D01*
X179455076Y-93142992D01*
X179451000Y-93101609D01*
X179451000Y-92076391D01*
X179455076Y-92035008D01*
X179465357Y-92001117D01*
X179482048Y-91969889D01*
X179504515Y-91942515D01*
X179531889Y-91920048D01*
X179563117Y-91903357D01*
X179597008Y-91893076D01*
X179638391Y-91889000D01*
X180238609Y-91889000D01*
X180279992Y-91893076D01*
X180279992Y-91893076D01*
G37*
G36*
X124126000Y-92609000D02*
X123386000Y-92609000D01*
X123386000Y-90209000D01*
X124126000Y-90209000D01*
X124126000Y-92609000D01*
X124126000Y-92609000D01*
G37*
G36*
X122856000Y-92609000D02*
X122116000Y-92609000D01*
X122116000Y-90209000D01*
X122856000Y-90209000D01*
X122856000Y-92609000D01*
X122856000Y-92609000D01*
G37*
G36*
X120316000Y-92609000D02*
X119576000Y-92609000D01*
X119576000Y-90209000D01*
X120316000Y-90209000D01*
X120316000Y-92609000D01*
X120316000Y-92609000D01*
G37*
G36*
X125396000Y-92609000D02*
X124656000Y-92609000D01*
X124656000Y-90209000D01*
X125396000Y-90209000D01*
X125396000Y-92609000D01*
X125396000Y-92609000D01*
G37*
G36*
X121586000Y-92609000D02*
X120846000Y-92609000D01*
X120846000Y-90209000D01*
X121586000Y-90209000D01*
X121586000Y-92609000D01*
X121586000Y-92609000D01*
G37*
G36*
X147804992Y-91371276D02*
X147838883Y-91381557D01*
X147870111Y-91398248D01*
X147897485Y-91420715D01*
X147919952Y-91448089D01*
X147936643Y-91479317D01*
X147946924Y-91513208D01*
X147951000Y-91554591D01*
X147951000Y-92154809D01*
X147946924Y-92196192D01*
X147936643Y-92230083D01*
X147919952Y-92261311D01*
X147897485Y-92288685D01*
X147870111Y-92311152D01*
X147838883Y-92327843D01*
X147804992Y-92338124D01*
X147763609Y-92342200D01*
X146738391Y-92342200D01*
X146697008Y-92338124D01*
X146663117Y-92327843D01*
X146631889Y-92311152D01*
X146604515Y-92288685D01*
X146582048Y-92261311D01*
X146565357Y-92230083D01*
X146555076Y-92196192D01*
X146551000Y-92154809D01*
X146551000Y-91554591D01*
X146555076Y-91513208D01*
X146565357Y-91479317D01*
X146582048Y-91448089D01*
X146604515Y-91420715D01*
X146631889Y-91398248D01*
X146663117Y-91381557D01*
X146697008Y-91371276D01*
X146738391Y-91367200D01*
X147763609Y-91367200D01*
X147804992Y-91371276D01*
X147804992Y-91371276D01*
G37*
G36*
X132945992Y-90630076D02*
X132979883Y-90640357D01*
X133011111Y-90657048D01*
X133038485Y-90679515D01*
X133060952Y-90706889D01*
X133077643Y-90738117D01*
X133087924Y-90772008D01*
X133092000Y-90813391D01*
X133092000Y-91413609D01*
X133087924Y-91454992D01*
X133077643Y-91488883D01*
X133060952Y-91520111D01*
X133038485Y-91547485D01*
X133011111Y-91569952D01*
X132979883Y-91586643D01*
X132945992Y-91596924D01*
X132904609Y-91601000D01*
X131879391Y-91601000D01*
X131838008Y-91596924D01*
X131804117Y-91586643D01*
X131772889Y-91569952D01*
X131745515Y-91547485D01*
X131723048Y-91520111D01*
X131706357Y-91488883D01*
X131696076Y-91454992D01*
X131692000Y-91413609D01*
X131692000Y-90813391D01*
X131696076Y-90772008D01*
X131706357Y-90738117D01*
X131723048Y-90706889D01*
X131745515Y-90679515D01*
X131772889Y-90657048D01*
X131804117Y-90640357D01*
X131838008Y-90630076D01*
X131879391Y-90626000D01*
X132904609Y-90626000D01*
X132945992Y-90630076D01*
X132945992Y-90630076D01*
G37*
G36*
X168722992Y-89480076D02*
X168756883Y-89490357D01*
X168788111Y-89507048D01*
X168815485Y-89529515D01*
X168837952Y-89556889D01*
X168854643Y-89588117D01*
X168864924Y-89622008D01*
X168869000Y-89663391D01*
X168869000Y-90688609D01*
X168864924Y-90729992D01*
X168854643Y-90763883D01*
X168837952Y-90795111D01*
X168815485Y-90822485D01*
X168788111Y-90844952D01*
X168756883Y-90861643D01*
X168722992Y-90871924D01*
X168681609Y-90876000D01*
X168081391Y-90876000D01*
X168040008Y-90871924D01*
X168006117Y-90861643D01*
X167974889Y-90844952D01*
X167947515Y-90822485D01*
X167925048Y-90795111D01*
X167908357Y-90763883D01*
X167898076Y-90729992D01*
X167894000Y-90688609D01*
X167894000Y-89663391D01*
X167898076Y-89622008D01*
X167908357Y-89588117D01*
X167925048Y-89556889D01*
X167947515Y-89529515D01*
X167974889Y-89507048D01*
X168006117Y-89490357D01*
X168040008Y-89480076D01*
X168081391Y-89476000D01*
X168681609Y-89476000D01*
X168722992Y-89480076D01*
X168722992Y-89480076D01*
G37*
G36*
X166847992Y-89480076D02*
X166881883Y-89490357D01*
X166913111Y-89507048D01*
X166940485Y-89529515D01*
X166962952Y-89556889D01*
X166979643Y-89588117D01*
X166989924Y-89622008D01*
X166994000Y-89663391D01*
X166994000Y-90688609D01*
X166989924Y-90729992D01*
X166979643Y-90763883D01*
X166962952Y-90795111D01*
X166940485Y-90822485D01*
X166913111Y-90844952D01*
X166881883Y-90861643D01*
X166847992Y-90871924D01*
X166806609Y-90876000D01*
X166206391Y-90876000D01*
X166165008Y-90871924D01*
X166131117Y-90861643D01*
X166099889Y-90844952D01*
X166072515Y-90822485D01*
X166050048Y-90795111D01*
X166033357Y-90763883D01*
X166023076Y-90729992D01*
X166019000Y-90688609D01*
X166019000Y-89663391D01*
X166023076Y-89622008D01*
X166033357Y-89588117D01*
X166050048Y-89556889D01*
X166072515Y-89529515D01*
X166099889Y-89507048D01*
X166131117Y-89490357D01*
X166165008Y-89480076D01*
X166206391Y-89476000D01*
X166806609Y-89476000D01*
X166847992Y-89480076D01*
X166847992Y-89480076D01*
G37*
G36*
X164785992Y-89469076D02*
X164819883Y-89479357D01*
X164851111Y-89496048D01*
X164878485Y-89518515D01*
X164900952Y-89545889D01*
X164917643Y-89577117D01*
X164927924Y-89611008D01*
X164932000Y-89652391D01*
X164932000Y-90677609D01*
X164927924Y-90718992D01*
X164917643Y-90752883D01*
X164900952Y-90784111D01*
X164878485Y-90811485D01*
X164851111Y-90833952D01*
X164819883Y-90850643D01*
X164785992Y-90860924D01*
X164744609Y-90865000D01*
X164144391Y-90865000D01*
X164103008Y-90860924D01*
X164069117Y-90850643D01*
X164037889Y-90833952D01*
X164010515Y-90811485D01*
X163988048Y-90784111D01*
X163971357Y-90752883D01*
X163961076Y-90718992D01*
X163957000Y-90677609D01*
X163957000Y-89652391D01*
X163961076Y-89611008D01*
X163971357Y-89577117D01*
X163988048Y-89545889D01*
X164010515Y-89518515D01*
X164037889Y-89496048D01*
X164069117Y-89479357D01*
X164103008Y-89469076D01*
X164144391Y-89465000D01*
X164744609Y-89465000D01*
X164785992Y-89469076D01*
X164785992Y-89469076D01*
G37*
G36*
X162910992Y-89469076D02*
X162944883Y-89479357D01*
X162976111Y-89496048D01*
X163003485Y-89518515D01*
X163025952Y-89545889D01*
X163042643Y-89577117D01*
X163052924Y-89611008D01*
X163057000Y-89652391D01*
X163057000Y-90677609D01*
X163052924Y-90718992D01*
X163042643Y-90752883D01*
X163025952Y-90784111D01*
X163003485Y-90811485D01*
X162976111Y-90833952D01*
X162944883Y-90850643D01*
X162910992Y-90860924D01*
X162869609Y-90865000D01*
X162269391Y-90865000D01*
X162228008Y-90860924D01*
X162194117Y-90850643D01*
X162162889Y-90833952D01*
X162135515Y-90811485D01*
X162113048Y-90784111D01*
X162096357Y-90752883D01*
X162086076Y-90718992D01*
X162082000Y-90677609D01*
X162082000Y-89652391D01*
X162086076Y-89611008D01*
X162096357Y-89577117D01*
X162113048Y-89545889D01*
X162135515Y-89518515D01*
X162162889Y-89496048D01*
X162194117Y-89479357D01*
X162228008Y-89469076D01*
X162269391Y-89465000D01*
X162869609Y-89465000D01*
X162910992Y-89469076D01*
X162910992Y-89469076D01*
G37*
G36*
X149994000Y-90466400D02*
X148994000Y-90466400D01*
X148994000Y-88666400D01*
X149994000Y-88666400D01*
X149994000Y-90466400D01*
X149994000Y-90466400D01*
G37*
G36*
X147494000Y-90466400D02*
X146494000Y-90466400D01*
X146494000Y-88666400D01*
X147494000Y-88666400D01*
X147494000Y-90466400D01*
X147494000Y-90466400D01*
G37*
G36*
X153279000Y-89741000D02*
X152263000Y-89741000D01*
X152263000Y-87709000D01*
X153279000Y-87709000D01*
X153279000Y-89741000D01*
X153279000Y-89741000D01*
G37*
G36*
X155565000Y-89741000D02*
X154549000Y-89741000D01*
X154549000Y-87709000D01*
X155565000Y-87709000D01*
X155565000Y-89741000D01*
X155565000Y-89741000D01*
G37*
G36*
X157851000Y-89741000D02*
X156835000Y-89741000D01*
X156835000Y-87709000D01*
X157851000Y-87709000D01*
X157851000Y-89741000D01*
X157851000Y-89741000D01*
G37*
G36*
X132945992Y-88755076D02*
X132979883Y-88765357D01*
X133011111Y-88782048D01*
X133038485Y-88804515D01*
X133060952Y-88831889D01*
X133077643Y-88863117D01*
X133087924Y-88897008D01*
X133092000Y-88938391D01*
X133092000Y-89538609D01*
X133087924Y-89579992D01*
X133077643Y-89613883D01*
X133060952Y-89645111D01*
X133038485Y-89672485D01*
X133011111Y-89694952D01*
X132979883Y-89711643D01*
X132945992Y-89721924D01*
X132904609Y-89726000D01*
X131879391Y-89726000D01*
X131838008Y-89721924D01*
X131804117Y-89711643D01*
X131772889Y-89694952D01*
X131745515Y-89672485D01*
X131723048Y-89645111D01*
X131706357Y-89613883D01*
X131696076Y-89579992D01*
X131692000Y-89538609D01*
X131692000Y-88938391D01*
X131696076Y-88897008D01*
X131706357Y-88863117D01*
X131723048Y-88831889D01*
X131745515Y-88804515D01*
X131772889Y-88782048D01*
X131804117Y-88765357D01*
X131838008Y-88755076D01*
X131879391Y-88751000D01*
X132904609Y-88751000D01*
X132945992Y-88755076D01*
X132945992Y-88755076D01*
G37*
G36*
X142552000Y-89111000D02*
X136802000Y-89111000D01*
X136802000Y-87811000D01*
X142552000Y-87811000D01*
X142552000Y-89111000D01*
X142552000Y-89111000D01*
G37*
G36*
X120316000Y-88709000D02*
X119576000Y-88709000D01*
X119576000Y-86309000D01*
X120316000Y-86309000D01*
X120316000Y-88709000D01*
X120316000Y-88709000D01*
G37*
G36*
X125396000Y-88709000D02*
X124656000Y-88709000D01*
X124656000Y-86309000D01*
X125396000Y-86309000D01*
X125396000Y-88709000D01*
X125396000Y-88709000D01*
G37*
G36*
X124126000Y-88709000D02*
X123386000Y-88709000D01*
X123386000Y-86309000D01*
X124126000Y-86309000D01*
X124126000Y-88709000D01*
X124126000Y-88709000D01*
G37*
G36*
X122856000Y-88709000D02*
X122116000Y-88709000D01*
X122116000Y-86309000D01*
X122856000Y-86309000D01*
X122856000Y-88709000D01*
X122856000Y-88709000D01*
G37*
G36*
X121586000Y-88709000D02*
X120846000Y-88709000D01*
X120846000Y-86309000D01*
X121586000Y-86309000D01*
X121586000Y-88709000D01*
X121586000Y-88709000D01*
G37*
G36*
X167406440Y-88428480D02*
X166207560Y-88428480D01*
X166207560Y-87229600D01*
X167406440Y-87229600D01*
X167406440Y-88428480D01*
X167406440Y-88428480D01*
G37*
G36*
X164676440Y-88428480D02*
X163477560Y-88428480D01*
X163477560Y-87229600D01*
X164676440Y-87229600D01*
X164676440Y-88428480D01*
X164676440Y-88428480D01*
G37*
G36*
X162303992Y-86929076D02*
X162337883Y-86939357D01*
X162369111Y-86956048D01*
X162396485Y-86978515D01*
X162418952Y-87005889D01*
X162435643Y-87037117D01*
X162445924Y-87071008D01*
X162450000Y-87112391D01*
X162450000Y-87712609D01*
X162445924Y-87753992D01*
X162435643Y-87787883D01*
X162418952Y-87819111D01*
X162396485Y-87846485D01*
X162369111Y-87868952D01*
X162337883Y-87885643D01*
X162303992Y-87895924D01*
X162262609Y-87900000D01*
X161237391Y-87900000D01*
X161196008Y-87895924D01*
X161162117Y-87885643D01*
X161130889Y-87868952D01*
X161103515Y-87846485D01*
X161081048Y-87819111D01*
X161064357Y-87787883D01*
X161054076Y-87753992D01*
X161050000Y-87712609D01*
X161050000Y-87112391D01*
X161054076Y-87071008D01*
X161064357Y-87037117D01*
X161081048Y-87005889D01*
X161103515Y-86978515D01*
X161130889Y-86956048D01*
X161162117Y-86939357D01*
X161196008Y-86929076D01*
X161237391Y-86925000D01*
X162262609Y-86925000D01*
X162303992Y-86929076D01*
X162303992Y-86929076D01*
G37*
G36*
X147728792Y-86870876D02*
X147762683Y-86881157D01*
X147793911Y-86897848D01*
X147821285Y-86920315D01*
X147843752Y-86947689D01*
X147860443Y-86978917D01*
X147870724Y-87012808D01*
X147874800Y-87054191D01*
X147874800Y-87654409D01*
X147870724Y-87695792D01*
X147860443Y-87729683D01*
X147843752Y-87760911D01*
X147821285Y-87788285D01*
X147793911Y-87810752D01*
X147762683Y-87827443D01*
X147728792Y-87837724D01*
X147687409Y-87841800D01*
X146662191Y-87841800D01*
X146620808Y-87837724D01*
X146586917Y-87827443D01*
X146555689Y-87810752D01*
X146528315Y-87788285D01*
X146505848Y-87760911D01*
X146489157Y-87729683D01*
X146478876Y-87695792D01*
X146474800Y-87654409D01*
X146474800Y-87054191D01*
X146478876Y-87012808D01*
X146489157Y-86978917D01*
X146505848Y-86947689D01*
X146528315Y-86920315D01*
X146555689Y-86897848D01*
X146586917Y-86881157D01*
X146620808Y-86870876D01*
X146662191Y-86866800D01*
X147687409Y-86866800D01*
X147728792Y-86870876D01*
X147728792Y-86870876D01*
G37*
G36*
X149811592Y-86845476D02*
X149845483Y-86855757D01*
X149876711Y-86872448D01*
X149904085Y-86894915D01*
X149926552Y-86922289D01*
X149943243Y-86953517D01*
X149953524Y-86987408D01*
X149957600Y-87028791D01*
X149957600Y-87629009D01*
X149953524Y-87670392D01*
X149943243Y-87704283D01*
X149926552Y-87735511D01*
X149904085Y-87762885D01*
X149876711Y-87785352D01*
X149845483Y-87802043D01*
X149811592Y-87812324D01*
X149770209Y-87816400D01*
X148744991Y-87816400D01*
X148703608Y-87812324D01*
X148669717Y-87802043D01*
X148638489Y-87785352D01*
X148611115Y-87762885D01*
X148588648Y-87735511D01*
X148571957Y-87704283D01*
X148561676Y-87670392D01*
X148557600Y-87629009D01*
X148557600Y-87028791D01*
X148561676Y-86987408D01*
X148571957Y-86953517D01*
X148588648Y-86922289D01*
X148611115Y-86894915D01*
X148638489Y-86872448D01*
X148669717Y-86855757D01*
X148703608Y-86845476D01*
X148744991Y-86841400D01*
X149770209Y-86841400D01*
X149811592Y-86845476D01*
X149811592Y-86845476D01*
G37*
G36*
X183247764Y-85254402D02*
X183370445Y-85278805D01*
X183552456Y-85354197D01*
X183601571Y-85374541D01*
X183809581Y-85513529D01*
X183986471Y-85690419D01*
X183986473Y-85690422D01*
X184125459Y-85898429D01*
X184221195Y-86129555D01*
X184221195Y-86129557D01*
X184270000Y-86374914D01*
X184270000Y-86625086D01*
X184253911Y-86705970D01*
X184221195Y-86870445D01*
X184141437Y-87062997D01*
X184125459Y-87101571D01*
X183986471Y-87309581D01*
X183809581Y-87486471D01*
X183809578Y-87486473D01*
X183601571Y-87625459D01*
X183370445Y-87721195D01*
X183250733Y-87745007D01*
X183125086Y-87770000D01*
X182874914Y-87770000D01*
X182749267Y-87745007D01*
X182629555Y-87721195D01*
X182398429Y-87625459D01*
X182190422Y-87486473D01*
X182190419Y-87486471D01*
X182013529Y-87309581D01*
X181874541Y-87101571D01*
X181858563Y-87062997D01*
X181778805Y-86870445D01*
X181746089Y-86705970D01*
X181730000Y-86625086D01*
X181730000Y-86374914D01*
X181778805Y-86129557D01*
X181778805Y-86129555D01*
X181874541Y-85898429D01*
X182013527Y-85690422D01*
X182013529Y-85690419D01*
X182190419Y-85513529D01*
X182398429Y-85374541D01*
X182447544Y-85354197D01*
X182629555Y-85278805D01*
X182752235Y-85254403D01*
X182874914Y-85230000D01*
X183125086Y-85230000D01*
X183247764Y-85254402D01*
X183247764Y-85254402D01*
G37*
G36*
X157159024Y-85003955D02*
X157191736Y-85013879D01*
X157221890Y-85029997D01*
X157248316Y-85051684D01*
X157270003Y-85078110D01*
X157286121Y-85108264D01*
X157296045Y-85140976D01*
X157300000Y-85181138D01*
X157300000Y-86568862D01*
X157296045Y-86609024D01*
X157286121Y-86641736D01*
X157270003Y-86671890D01*
X157248316Y-86698316D01*
X157221890Y-86720003D01*
X157191736Y-86736121D01*
X157159024Y-86746045D01*
X157118862Y-86750000D01*
X156231138Y-86750000D01*
X156190976Y-86746045D01*
X156158264Y-86736121D01*
X156128110Y-86720003D01*
X156101684Y-86698316D01*
X156079997Y-86671890D01*
X156063879Y-86641736D01*
X156053955Y-86609024D01*
X156050000Y-86568862D01*
X156050000Y-85181138D01*
X156053955Y-85140976D01*
X156063879Y-85108264D01*
X156079997Y-85078110D01*
X156101684Y-85051684D01*
X156128110Y-85029997D01*
X156158264Y-85013879D01*
X156190976Y-85003955D01*
X156231138Y-85000000D01*
X157118862Y-85000000D01*
X157159024Y-85003955D01*
X157159024Y-85003955D01*
G37*
G36*
X159959024Y-85003955D02*
X159991736Y-85013879D01*
X160021890Y-85029997D01*
X160048316Y-85051684D01*
X160070003Y-85078110D01*
X160086121Y-85108264D01*
X160096045Y-85140976D01*
X160100000Y-85181138D01*
X160100000Y-86568862D01*
X160096045Y-86609024D01*
X160086121Y-86641736D01*
X160070003Y-86671890D01*
X160048316Y-86698316D01*
X160021890Y-86720003D01*
X159991736Y-86736121D01*
X159959024Y-86746045D01*
X159918862Y-86750000D01*
X159031138Y-86750000D01*
X158990976Y-86746045D01*
X158958264Y-86736121D01*
X158928110Y-86720003D01*
X158901684Y-86698316D01*
X158879997Y-86671890D01*
X158863879Y-86641736D01*
X158853955Y-86609024D01*
X158850000Y-86568862D01*
X158850000Y-85181138D01*
X158853955Y-85140976D01*
X158863879Y-85108264D01*
X158879997Y-85078110D01*
X158901684Y-85051684D01*
X158928110Y-85029997D01*
X158958264Y-85013879D01*
X158990976Y-85003955D01*
X159031138Y-85000000D01*
X159918862Y-85000000D01*
X159959024Y-85003955D01*
X159959024Y-85003955D01*
G37*
G36*
X155021024Y-84978955D02*
X155053736Y-84988879D01*
X155083890Y-85004997D01*
X155110316Y-85026684D01*
X155132003Y-85053110D01*
X155148121Y-85083264D01*
X155158045Y-85115976D01*
X155162000Y-85156138D01*
X155162000Y-86543862D01*
X155158045Y-86584024D01*
X155148121Y-86616736D01*
X155132003Y-86646890D01*
X155110316Y-86673316D01*
X155083890Y-86695003D01*
X155053736Y-86711121D01*
X155021024Y-86721045D01*
X154980862Y-86725000D01*
X154093138Y-86725000D01*
X154052976Y-86721045D01*
X154020264Y-86711121D01*
X153990110Y-86695003D01*
X153963684Y-86673316D01*
X153941997Y-86646890D01*
X153925879Y-86616736D01*
X153915955Y-86584024D01*
X153912000Y-86543862D01*
X153912000Y-85156138D01*
X153915955Y-85115976D01*
X153925879Y-85083264D01*
X153941997Y-85053110D01*
X153963684Y-85026684D01*
X153990110Y-85004997D01*
X154020264Y-84988879D01*
X154052976Y-84978955D01*
X154093138Y-84975000D01*
X154980862Y-84975000D01*
X155021024Y-84978955D01*
X155021024Y-84978955D01*
G37*
G36*
X152221024Y-84978955D02*
X152253736Y-84988879D01*
X152283890Y-85004997D01*
X152310316Y-85026684D01*
X152332003Y-85053110D01*
X152348121Y-85083264D01*
X152358045Y-85115976D01*
X152362000Y-85156138D01*
X152362000Y-86543862D01*
X152358045Y-86584024D01*
X152348121Y-86616736D01*
X152332003Y-86646890D01*
X152310316Y-86673316D01*
X152283890Y-86695003D01*
X152253736Y-86711121D01*
X152221024Y-86721045D01*
X152180862Y-86725000D01*
X151293138Y-86725000D01*
X151252976Y-86721045D01*
X151220264Y-86711121D01*
X151190110Y-86695003D01*
X151163684Y-86673316D01*
X151141997Y-86646890D01*
X151125879Y-86616736D01*
X151115955Y-86584024D01*
X151112000Y-86543862D01*
X151112000Y-85156138D01*
X151115955Y-85115976D01*
X151125879Y-85083264D01*
X151141997Y-85053110D01*
X151163684Y-85026684D01*
X151190110Y-85004997D01*
X151220264Y-84988879D01*
X151252976Y-84978955D01*
X151293138Y-84975000D01*
X152180862Y-84975000D01*
X152221024Y-84978955D01*
X152221024Y-84978955D01*
G37*
G36*
X142574992Y-85187476D02*
X142608883Y-85197757D01*
X142640111Y-85214448D01*
X142667485Y-85236915D01*
X142689952Y-85264289D01*
X142706643Y-85295517D01*
X142716924Y-85329408D01*
X142721000Y-85370791D01*
X142721000Y-86396009D01*
X142716924Y-86437392D01*
X142706643Y-86471283D01*
X142689952Y-86502511D01*
X142667485Y-86529885D01*
X142640111Y-86552352D01*
X142608883Y-86569043D01*
X142574992Y-86579324D01*
X142533609Y-86583400D01*
X141933391Y-86583400D01*
X141892008Y-86579324D01*
X141858117Y-86569043D01*
X141826889Y-86552352D01*
X141799515Y-86529885D01*
X141777048Y-86502511D01*
X141760357Y-86471283D01*
X141750076Y-86437392D01*
X141746000Y-86396009D01*
X141746000Y-85370791D01*
X141750076Y-85329408D01*
X141760357Y-85295517D01*
X141777048Y-85264289D01*
X141799515Y-85236915D01*
X141826889Y-85214448D01*
X141858117Y-85197757D01*
X141892008Y-85187476D01*
X141933391Y-85183400D01*
X142533609Y-85183400D01*
X142574992Y-85187476D01*
X142574992Y-85187476D01*
G37*
G36*
X138653992Y-85187476D02*
X138687883Y-85197757D01*
X138719111Y-85214448D01*
X138746485Y-85236915D01*
X138768952Y-85264289D01*
X138785643Y-85295517D01*
X138795924Y-85329408D01*
X138800000Y-85370791D01*
X138800000Y-86396009D01*
X138795924Y-86437392D01*
X138785643Y-86471283D01*
X138768952Y-86502511D01*
X138746485Y-86529885D01*
X138719111Y-86552352D01*
X138687883Y-86569043D01*
X138653992Y-86579324D01*
X138612609Y-86583400D01*
X138012391Y-86583400D01*
X137971008Y-86579324D01*
X137937117Y-86569043D01*
X137905889Y-86552352D01*
X137878515Y-86529885D01*
X137856048Y-86502511D01*
X137839357Y-86471283D01*
X137829076Y-86437392D01*
X137825000Y-86396009D01*
X137825000Y-85370791D01*
X137829076Y-85329408D01*
X137839357Y-85295517D01*
X137856048Y-85264289D01*
X137878515Y-85236915D01*
X137905889Y-85214448D01*
X137937117Y-85197757D01*
X137971008Y-85187476D01*
X138012391Y-85183400D01*
X138612609Y-85183400D01*
X138653992Y-85187476D01*
X138653992Y-85187476D01*
G37*
G36*
X140528992Y-85187476D02*
X140562883Y-85197757D01*
X140594111Y-85214448D01*
X140621485Y-85236915D01*
X140643952Y-85264289D01*
X140660643Y-85295517D01*
X140670924Y-85329408D01*
X140675000Y-85370791D01*
X140675000Y-86396009D01*
X140670924Y-86437392D01*
X140660643Y-86471283D01*
X140643952Y-86502511D01*
X140621485Y-86529885D01*
X140594111Y-86552352D01*
X140562883Y-86569043D01*
X140528992Y-86579324D01*
X140487609Y-86583400D01*
X139887391Y-86583400D01*
X139846008Y-86579324D01*
X139812117Y-86569043D01*
X139780889Y-86552352D01*
X139753515Y-86529885D01*
X139731048Y-86502511D01*
X139714357Y-86471283D01*
X139704076Y-86437392D01*
X139700000Y-86396009D01*
X139700000Y-85370791D01*
X139704076Y-85329408D01*
X139714357Y-85295517D01*
X139731048Y-85264289D01*
X139753515Y-85236915D01*
X139780889Y-85214448D01*
X139812117Y-85197757D01*
X139846008Y-85187476D01*
X139887391Y-85183400D01*
X140487609Y-85183400D01*
X140528992Y-85187476D01*
X140528992Y-85187476D01*
G37*
G36*
X144449992Y-85187476D02*
X144483883Y-85197757D01*
X144515111Y-85214448D01*
X144542485Y-85236915D01*
X144564952Y-85264289D01*
X144581643Y-85295517D01*
X144591924Y-85329408D01*
X144596000Y-85370791D01*
X144596000Y-86396009D01*
X144591924Y-86437392D01*
X144581643Y-86471283D01*
X144564952Y-86502511D01*
X144542485Y-86529885D01*
X144515111Y-86552352D01*
X144483883Y-86569043D01*
X144449992Y-86579324D01*
X144408609Y-86583400D01*
X143808391Y-86583400D01*
X143767008Y-86579324D01*
X143733117Y-86569043D01*
X143701889Y-86552352D01*
X143674515Y-86529885D01*
X143652048Y-86502511D01*
X143635357Y-86471283D01*
X143625076Y-86437392D01*
X143621000Y-86396009D01*
X143621000Y-85370791D01*
X143625076Y-85329408D01*
X143635357Y-85295517D01*
X143652048Y-85264289D01*
X143674515Y-85236915D01*
X143701889Y-85214448D01*
X143733117Y-85197757D01*
X143767008Y-85187476D01*
X143808391Y-85183400D01*
X144408609Y-85183400D01*
X144449992Y-85187476D01*
X144449992Y-85187476D01*
G37*
G36*
X136784992Y-85162076D02*
X136818883Y-85172357D01*
X136850111Y-85189048D01*
X136877485Y-85211515D01*
X136899952Y-85238889D01*
X136916643Y-85270117D01*
X136926924Y-85304008D01*
X136931000Y-85345391D01*
X136931000Y-86370609D01*
X136926924Y-86411992D01*
X136916643Y-86445883D01*
X136899952Y-86477111D01*
X136877485Y-86504485D01*
X136850111Y-86526952D01*
X136818883Y-86543643D01*
X136784992Y-86553924D01*
X136743609Y-86558000D01*
X136143391Y-86558000D01*
X136102008Y-86553924D01*
X136068117Y-86543643D01*
X136036889Y-86526952D01*
X136009515Y-86504485D01*
X135987048Y-86477111D01*
X135970357Y-86445883D01*
X135960076Y-86411992D01*
X135956000Y-86370609D01*
X135956000Y-85345391D01*
X135960076Y-85304008D01*
X135970357Y-85270117D01*
X135987048Y-85238889D01*
X136009515Y-85211515D01*
X136036889Y-85189048D01*
X136068117Y-85172357D01*
X136102008Y-85162076D01*
X136143391Y-85158000D01*
X136743609Y-85158000D01*
X136784992Y-85162076D01*
X136784992Y-85162076D01*
G37*
G36*
X134909992Y-85162076D02*
X134943883Y-85172357D01*
X134975111Y-85189048D01*
X135002485Y-85211515D01*
X135024952Y-85238889D01*
X135041643Y-85270117D01*
X135051924Y-85304008D01*
X135056000Y-85345391D01*
X135056000Y-86370609D01*
X135051924Y-86411992D01*
X135041643Y-86445883D01*
X135024952Y-86477111D01*
X135002485Y-86504485D01*
X134975111Y-86526952D01*
X134943883Y-86543643D01*
X134909992Y-86553924D01*
X134868609Y-86558000D01*
X134268391Y-86558000D01*
X134227008Y-86553924D01*
X134193117Y-86543643D01*
X134161889Y-86526952D01*
X134134515Y-86504485D01*
X134112048Y-86477111D01*
X134095357Y-86445883D01*
X134085076Y-86411992D01*
X134081000Y-86370609D01*
X134081000Y-85345391D01*
X134085076Y-85304008D01*
X134095357Y-85270117D01*
X134112048Y-85238889D01*
X134134515Y-85211515D01*
X134161889Y-85189048D01*
X134193117Y-85172357D01*
X134227008Y-85162076D01*
X134268391Y-85158000D01*
X134868609Y-85158000D01*
X134909992Y-85162076D01*
X134909992Y-85162076D01*
G37*
G36*
X167406440Y-86330440D02*
X166207560Y-86330440D01*
X166207560Y-85131560D01*
X167406440Y-85131560D01*
X167406440Y-86330440D01*
X167406440Y-86330440D01*
G37*
G36*
X164676440Y-86330440D02*
X163477560Y-86330440D01*
X163477560Y-85131560D01*
X164676440Y-85131560D01*
X164676440Y-86330440D01*
X164676440Y-86330440D01*
G37*
G36*
X162303992Y-85054076D02*
X162337883Y-85064357D01*
X162369111Y-85081048D01*
X162396485Y-85103515D01*
X162418952Y-85130889D01*
X162435643Y-85162117D01*
X162445924Y-85196008D01*
X162450000Y-85237391D01*
X162450000Y-85837609D01*
X162445924Y-85878992D01*
X162435643Y-85912883D01*
X162418952Y-85944111D01*
X162396485Y-85971485D01*
X162369111Y-85993952D01*
X162337883Y-86010643D01*
X162303992Y-86020924D01*
X162262609Y-86025000D01*
X161237391Y-86025000D01*
X161196008Y-86020924D01*
X161162117Y-86010643D01*
X161130889Y-85993952D01*
X161103515Y-85971485D01*
X161081048Y-85944111D01*
X161064357Y-85912883D01*
X161054076Y-85878992D01*
X161050000Y-85837609D01*
X161050000Y-85237391D01*
X161054076Y-85196008D01*
X161064357Y-85162117D01*
X161081048Y-85130889D01*
X161103515Y-85103515D01*
X161130889Y-85081048D01*
X161162117Y-85064357D01*
X161196008Y-85054076D01*
X161237391Y-85050000D01*
X162262609Y-85050000D01*
X162303992Y-85054076D01*
X162303992Y-85054076D01*
G37*
G36*
X147728792Y-84995876D02*
X147762683Y-85006157D01*
X147793911Y-85022848D01*
X147821285Y-85045315D01*
X147843752Y-85072689D01*
X147860443Y-85103917D01*
X147870724Y-85137808D01*
X147874800Y-85179191D01*
X147874800Y-85779409D01*
X147870724Y-85820792D01*
X147860443Y-85854683D01*
X147843752Y-85885911D01*
X147821285Y-85913285D01*
X147793911Y-85935752D01*
X147762683Y-85952443D01*
X147728792Y-85962724D01*
X147687409Y-85966800D01*
X146662191Y-85966800D01*
X146620808Y-85962724D01*
X146586917Y-85952443D01*
X146555689Y-85935752D01*
X146528315Y-85913285D01*
X146505848Y-85885911D01*
X146489157Y-85854683D01*
X146478876Y-85820792D01*
X146474800Y-85779409D01*
X146474800Y-85179191D01*
X146478876Y-85137808D01*
X146489157Y-85103917D01*
X146505848Y-85072689D01*
X146528315Y-85045315D01*
X146555689Y-85022848D01*
X146586917Y-85006157D01*
X146620808Y-84995876D01*
X146662191Y-84991800D01*
X147687409Y-84991800D01*
X147728792Y-84995876D01*
X147728792Y-84995876D01*
G37*
G36*
X149811592Y-84970476D02*
X149845483Y-84980757D01*
X149876711Y-84997448D01*
X149904085Y-85019915D01*
X149926552Y-85047289D01*
X149943243Y-85078517D01*
X149953524Y-85112408D01*
X149957600Y-85153791D01*
X149957600Y-85754009D01*
X149953524Y-85795392D01*
X149943243Y-85829283D01*
X149926552Y-85860511D01*
X149904085Y-85887885D01*
X149876711Y-85910352D01*
X149845483Y-85927043D01*
X149811592Y-85937324D01*
X149770209Y-85941400D01*
X148744991Y-85941400D01*
X148703608Y-85937324D01*
X148669717Y-85927043D01*
X148638489Y-85910352D01*
X148611115Y-85887885D01*
X148588648Y-85860511D01*
X148571957Y-85829283D01*
X148561676Y-85795392D01*
X148557600Y-85754009D01*
X148557600Y-85153791D01*
X148561676Y-85112408D01*
X148571957Y-85078517D01*
X148588648Y-85047289D01*
X148611115Y-85019915D01*
X148638489Y-84997448D01*
X148669717Y-84980757D01*
X148703608Y-84970476D01*
X148744991Y-84966400D01*
X149770209Y-84966400D01*
X149811592Y-84970476D01*
X149811592Y-84970476D01*
G37*
M02*
