G04 #@! TF.GenerationSoftware,KiCad,Pcbnew,5.0.2-bee76a0~70~ubuntu18.04.1*
G04 #@! TF.CreationDate,2019-06-24T09:04:58+02:00*
G04 #@! TF.ProjectId,RocketPCR,526f636b-6574-4504-9352-2e6b69636164,rev?*
G04 #@! TF.SameCoordinates,Original*
G04 #@! TF.FileFunction,Legend,Top*
G04 #@! TF.FilePolarity,Positive*
%FSLAX46Y46*%
G04 Gerber Fmt 4.6, Leading zero omitted, Abs format (unit mm)*
G04 Created by KiCad (PCBNEW 5.0.2-bee76a0~70~ubuntu18.04.1) date Mo 24 Jun 2019 09:04:58 CEST*
%MOMM*%
%LPD*%
G01*
G04 APERTURE LIST*
%ADD10C,0.300000*%
%ADD11C,0.200000*%
%ADD12C,0.150000*%
%ADD13C,0.120000*%
G04 APERTURE END LIST*
D10*
X182928571Y-101867857D02*
X184142857Y-101867857D01*
X184285714Y-101796428D01*
X184357142Y-101725000D01*
X184428571Y-101582142D01*
X184428571Y-101296428D01*
X184357142Y-101153571D01*
X184285714Y-101082142D01*
X184142857Y-101010714D01*
X182928571Y-101010714D01*
X184357142Y-100367857D02*
X184428571Y-100153571D01*
X184428571Y-99796428D01*
X184357142Y-99653571D01*
X184285714Y-99582142D01*
X184142857Y-99510714D01*
X184000000Y-99510714D01*
X183857142Y-99582142D01*
X183785714Y-99653571D01*
X183714285Y-99796428D01*
X183642857Y-100082142D01*
X183571428Y-100225000D01*
X183500000Y-100296428D01*
X183357142Y-100367857D01*
X183214285Y-100367857D01*
X183071428Y-100296428D01*
X183000000Y-100225000D01*
X182928571Y-100082142D01*
X182928571Y-99725000D01*
X183000000Y-99510714D01*
X183642857Y-98367857D02*
X183714285Y-98153571D01*
X183785714Y-98082142D01*
X183928571Y-98010714D01*
X184142857Y-98010714D01*
X184285714Y-98082142D01*
X184357142Y-98153571D01*
X184428571Y-98296428D01*
X184428571Y-98867857D01*
X182928571Y-98867857D01*
X182928571Y-98367857D01*
X183000000Y-98225000D01*
X183071428Y-98153571D01*
X183214285Y-98082142D01*
X183357142Y-98082142D01*
X183500000Y-98153571D01*
X183571428Y-98225000D01*
X183642857Y-98367857D01*
X183642857Y-98867857D01*
X38588571Y-169700000D02*
X38445714Y-169628571D01*
X38231428Y-169628571D01*
X38017142Y-169700000D01*
X37874285Y-169842857D01*
X37802857Y-169985714D01*
X37731428Y-170271428D01*
X37731428Y-170485714D01*
X37802857Y-170771428D01*
X37874285Y-170914285D01*
X38017142Y-171057142D01*
X38231428Y-171128571D01*
X38374285Y-171128571D01*
X38588571Y-171057142D01*
X38660000Y-170985714D01*
X38660000Y-170485714D01*
X38374285Y-170485714D01*
X39945714Y-171128571D02*
X39945714Y-170342857D01*
X39874285Y-170200000D01*
X39731428Y-170128571D01*
X39445714Y-170128571D01*
X39302857Y-170200000D01*
X39945714Y-171057142D02*
X39802857Y-171128571D01*
X39445714Y-171128571D01*
X39302857Y-171057142D01*
X39231428Y-170914285D01*
X39231428Y-170771428D01*
X39302857Y-170628571D01*
X39445714Y-170557142D01*
X39802857Y-170557142D01*
X39945714Y-170485714D01*
X41302857Y-170128571D02*
X41302857Y-171128571D01*
X40660000Y-170128571D02*
X40660000Y-170914285D01*
X40731428Y-171057142D01*
X40874285Y-171128571D01*
X41088571Y-171128571D01*
X41231428Y-171057142D01*
X41302857Y-170985714D01*
X42660000Y-171128571D02*
X42660000Y-169628571D01*
X42660000Y-171057142D02*
X42517142Y-171128571D01*
X42231428Y-171128571D01*
X42088571Y-171057142D01*
X42017142Y-170985714D01*
X41945714Y-170842857D01*
X41945714Y-170414285D01*
X42017142Y-170271428D01*
X42088571Y-170200000D01*
X42231428Y-170128571D01*
X42517142Y-170128571D01*
X42660000Y-170200000D01*
X43374285Y-171128571D02*
X43374285Y-170128571D01*
X43374285Y-169628571D02*
X43302857Y-169700000D01*
X43374285Y-169771428D01*
X43445714Y-169700000D01*
X43374285Y-169628571D01*
X43374285Y-169771428D01*
X44802857Y-171128571D02*
X44088571Y-171128571D01*
X44088571Y-169628571D01*
X45945714Y-171128571D02*
X45945714Y-170342857D01*
X45874285Y-170200000D01*
X45731428Y-170128571D01*
X45445714Y-170128571D01*
X45302857Y-170200000D01*
X45945714Y-171057142D02*
X45802857Y-171128571D01*
X45445714Y-171128571D01*
X45302857Y-171057142D01*
X45231428Y-170914285D01*
X45231428Y-170771428D01*
X45302857Y-170628571D01*
X45445714Y-170557142D01*
X45802857Y-170557142D01*
X45945714Y-170485714D01*
X46660000Y-171128571D02*
X46660000Y-169628571D01*
X46660000Y-170200000D02*
X46802857Y-170128571D01*
X47088571Y-170128571D01*
X47231428Y-170200000D01*
X47302857Y-170271428D01*
X47374285Y-170414285D01*
X47374285Y-170842857D01*
X47302857Y-170985714D01*
X47231428Y-171057142D01*
X47088571Y-171128571D01*
X46802857Y-171128571D01*
X46660000Y-171057142D01*
X47945714Y-171057142D02*
X48088571Y-171128571D01*
X48374285Y-171128571D01*
X48517142Y-171057142D01*
X48588571Y-170914285D01*
X48588571Y-170842857D01*
X48517142Y-170700000D01*
X48374285Y-170628571D01*
X48160000Y-170628571D01*
X48017142Y-170557142D01*
X47945714Y-170414285D01*
X47945714Y-170342857D01*
X48017142Y-170200000D01*
X48160000Y-170128571D01*
X48374285Y-170128571D01*
X48517142Y-170200000D01*
D11*
X188622380Y-42802380D02*
X188955714Y-43802380D01*
X189289047Y-42802380D01*
X189527142Y-42802380D02*
X190146190Y-42802380D01*
X189812857Y-43183333D01*
X189955714Y-43183333D01*
X190050952Y-43230952D01*
X190098571Y-43278571D01*
X190146190Y-43373809D01*
X190146190Y-43611904D01*
X190098571Y-43707142D01*
X190050952Y-43754761D01*
X189955714Y-43802380D01*
X189670000Y-43802380D01*
X189574761Y-43754761D01*
X189527142Y-43707142D01*
X190574761Y-43707142D02*
X190622380Y-43754761D01*
X190574761Y-43802380D01*
X190527142Y-43754761D01*
X190574761Y-43707142D01*
X190574761Y-43802380D01*
X191003333Y-42897619D02*
X191050952Y-42850000D01*
X191146190Y-42802380D01*
X191384285Y-42802380D01*
X191479523Y-42850000D01*
X191527142Y-42897619D01*
X191574761Y-42992857D01*
X191574761Y-43088095D01*
X191527142Y-43230952D01*
X190955714Y-43802380D01*
X191574761Y-43802380D01*
X192050952Y-43754761D02*
X192050952Y-43802380D01*
X192003333Y-43897619D01*
X191955714Y-43945238D01*
X193193809Y-42897619D02*
X193241428Y-42850000D01*
X193336666Y-42802380D01*
X193574761Y-42802380D01*
X193670000Y-42850000D01*
X193717619Y-42897619D01*
X193765238Y-42992857D01*
X193765238Y-43088095D01*
X193717619Y-43230952D01*
X193146190Y-43802380D01*
X193765238Y-43802380D01*
X194384285Y-42802380D02*
X194479523Y-42802380D01*
X194574761Y-42850000D01*
X194622380Y-42897619D01*
X194670000Y-42992857D01*
X194717619Y-43183333D01*
X194717619Y-43421428D01*
X194670000Y-43611904D01*
X194622380Y-43707142D01*
X194574761Y-43754761D01*
X194479523Y-43802380D01*
X194384285Y-43802380D01*
X194289047Y-43754761D01*
X194241428Y-43707142D01*
X194193809Y-43611904D01*
X194146190Y-43421428D01*
X194146190Y-43183333D01*
X194193809Y-42992857D01*
X194241428Y-42897619D01*
X194289047Y-42850000D01*
X194384285Y-42802380D01*
X195670000Y-43802380D02*
X195098571Y-43802380D01*
X195384285Y-43802380D02*
X195384285Y-42802380D01*
X195289047Y-42945238D01*
X195193809Y-43040476D01*
X195098571Y-43088095D01*
X196241428Y-43230952D02*
X196146190Y-43183333D01*
X196098571Y-43135714D01*
X196050952Y-43040476D01*
X196050952Y-42992857D01*
X196098571Y-42897619D01*
X196146190Y-42850000D01*
X196241428Y-42802380D01*
X196431904Y-42802380D01*
X196527142Y-42850000D01*
X196574761Y-42897619D01*
X196622380Y-42992857D01*
X196622380Y-43040476D01*
X196574761Y-43135714D01*
X196527142Y-43183333D01*
X196431904Y-43230952D01*
X196241428Y-43230952D01*
X196146190Y-43278571D01*
X196098571Y-43326190D01*
X196050952Y-43421428D01*
X196050952Y-43611904D01*
X196098571Y-43707142D01*
X196146190Y-43754761D01*
X196241428Y-43802380D01*
X196431904Y-43802380D01*
X196527142Y-43754761D01*
X196574761Y-43707142D01*
X196622380Y-43611904D01*
X196622380Y-43421428D01*
X196574761Y-43326190D01*
X196527142Y-43278571D01*
X196431904Y-43230952D01*
D12*
G04 #@! TO.C,S1*
X153137000Y-90330000D02*
X151137000Y-90330000D01*
X153137000Y-90330000D02*
X153137000Y-92330000D01*
X153137000Y-109530000D02*
X153137000Y-107630000D01*
X153137000Y-109530000D02*
X151137000Y-109530000D01*
X126337000Y-109530000D02*
X128337000Y-109530000D01*
X126337000Y-109530000D02*
X126337000Y-107430000D01*
X126337000Y-90330000D02*
X126337000Y-92330000D01*
X126337000Y-90330000D02*
X128337000Y-90330000D01*
X132574200Y-101490000D02*
X132574200Y-105308000D01*
X130074200Y-104495200D02*
X131979200Y-104495200D01*
X131979200Y-104495200D02*
X131979200Y-105308000D01*
X131979200Y-105308000D02*
X147494800Y-105308000D01*
X147494800Y-105308000D02*
X147494800Y-104495200D01*
X147494800Y-104495200D02*
X149399800Y-104495200D01*
X146899800Y-105308000D02*
X146899800Y-101490000D01*
X148942600Y-104495200D02*
X148942600Y-105866800D01*
X147494800Y-105206400D02*
X148129800Y-105206400D01*
X148129800Y-104495200D02*
X148129800Y-105866800D01*
X131979200Y-105206400D02*
X131344200Y-105206400D01*
X130531400Y-104495200D02*
X130531400Y-105866800D01*
X131344200Y-104495200D02*
X131344200Y-105866800D01*
X129185200Y-106679600D02*
X129185200Y-105866800D01*
X129185200Y-105866800D02*
X131826800Y-105866800D01*
X131826800Y-105866800D02*
X131826800Y-106679600D01*
X129185200Y-106679600D02*
X150288800Y-106679600D01*
X150288800Y-106679600D02*
X150288800Y-105866800D01*
X150288800Y-105866800D02*
X147647200Y-105866800D01*
X147647200Y-105866800D02*
X147647200Y-106679600D01*
X132574200Y-101490000D02*
X146899800Y-101490000D01*
D13*
G04 #@! TO.C,SW1*
X165457000Y-100455000D02*
X165457000Y-99455000D01*
X164957000Y-99955000D02*
X165957000Y-99955000D01*
X168957000Y-93855000D02*
X171357000Y-93855000D01*
X164157000Y-93855000D02*
X166757000Y-93855000D01*
X159557000Y-93855000D02*
X161957000Y-93855000D01*
X161357000Y-107155000D02*
X161657000Y-107455000D01*
X161357000Y-107755000D02*
X161357000Y-107155000D01*
X161657000Y-107455000D02*
X161357000Y-107755000D01*
X159557000Y-106055000D02*
X171357000Y-106055000D01*
X159557000Y-101955000D02*
X159557000Y-106055000D01*
X171357000Y-101955000D02*
X171357000Y-106055000D01*
X171357000Y-93855000D02*
X171357000Y-97955000D01*
X159557000Y-97955000D02*
X159557000Y-93855000D01*
X168457000Y-99955000D02*
G75*
G03X168457000Y-99955000I-3000000J0D01*
G01*
G04 #@! TO.C,J1*
X121105200Y-114340600D02*
X123765200Y-114340600D01*
X121105200Y-111740600D02*
X121105200Y-114340600D01*
X123765200Y-111740600D02*
X123765200Y-114340600D01*
X121105200Y-111740600D02*
X123765200Y-111740600D01*
X121105200Y-110470600D02*
X121105200Y-109140600D01*
X121105200Y-109140600D02*
X122435200Y-109140600D01*
G04 #@! TO.C,S1*
D12*
X138975095Y-102918761D02*
X139117952Y-102966380D01*
X139356047Y-102966380D01*
X139451285Y-102918761D01*
X139498904Y-102871142D01*
X139546523Y-102775904D01*
X139546523Y-102680666D01*
X139498904Y-102585428D01*
X139451285Y-102537809D01*
X139356047Y-102490190D01*
X139165571Y-102442571D01*
X139070333Y-102394952D01*
X139022714Y-102347333D01*
X138975095Y-102252095D01*
X138975095Y-102156857D01*
X139022714Y-102061619D01*
X139070333Y-102014000D01*
X139165571Y-101966380D01*
X139403666Y-101966380D01*
X139546523Y-102014000D01*
X140498904Y-102966380D02*
X139927476Y-102966380D01*
X140213190Y-102966380D02*
X140213190Y-101966380D01*
X140117952Y-102109238D01*
X140022714Y-102204476D01*
X139927476Y-102252095D01*
G04 #@! TO.C,SW1*
X158661761Y-105988333D02*
X158709380Y-105845476D01*
X158709380Y-105607380D01*
X158661761Y-105512142D01*
X158614142Y-105464523D01*
X158518904Y-105416904D01*
X158423666Y-105416904D01*
X158328428Y-105464523D01*
X158280809Y-105512142D01*
X158233190Y-105607380D01*
X158185571Y-105797857D01*
X158137952Y-105893095D01*
X158090333Y-105940714D01*
X157995095Y-105988333D01*
X157899857Y-105988333D01*
X157804619Y-105940714D01*
X157757000Y-105893095D01*
X157709380Y-105797857D01*
X157709380Y-105559761D01*
X157757000Y-105416904D01*
X157709380Y-105083571D02*
X158709380Y-104845476D01*
X157995095Y-104655000D01*
X158709380Y-104464523D01*
X157709380Y-104226428D01*
X158709380Y-103321666D02*
X158709380Y-103893095D01*
X158709380Y-103607380D02*
X157709380Y-103607380D01*
X157852238Y-103702619D01*
X157947476Y-103797857D01*
X157995095Y-103893095D01*
G04 #@! TO.C,J1*
X118972866Y-109795980D02*
X118972866Y-110510266D01*
X118925247Y-110653123D01*
X118830009Y-110748361D01*
X118687152Y-110795980D01*
X118591914Y-110795980D01*
X119972866Y-110795980D02*
X119401438Y-110795980D01*
X119687152Y-110795980D02*
X119687152Y-109795980D01*
X119591914Y-109938838D01*
X119496676Y-110034076D01*
X119401438Y-110081695D01*
G04 #@! TD*
M02*
