G04 #@! TF.GenerationSoftware,KiCad,Pcbnew,5.0.2-bee76a0~70~ubuntu18.04.1*
G04 #@! TF.CreationDate,2019-06-24T09:04:58+02:00*
G04 #@! TF.ProjectId,RocketPCR,526f636b-6574-4504-9352-2e6b69636164,rev?*
G04 #@! TF.SameCoordinates,Original*
G04 #@! TF.FileFunction,Soldermask,Top*
G04 #@! TF.FilePolarity,Negative*
%FSLAX46Y46*%
G04 Gerber Fmt 4.6, Leading zero omitted, Abs format (unit mm)*
G04 Created by KiCad (PCBNEW 5.0.2-bee76a0~70~ubuntu18.04.1) date Mo 24 Jun 2019 09:04:58 CEST*
%MOMM*%
%LPD*%
G01*
G04 APERTURE LIST*
%ADD10C,0.300000*%
%ADD11C,0.350000*%
%ADD12C,0.100000*%
G04 APERTURE END LIST*
D10*
X160928571Y-111625000D02*
X160785714Y-111553571D01*
X160571428Y-111553571D01*
X160357142Y-111625000D01*
X160214285Y-111767857D01*
X160142857Y-111910714D01*
X160071428Y-112196428D01*
X160071428Y-112410714D01*
X160142857Y-112696428D01*
X160214285Y-112839285D01*
X160357142Y-112982142D01*
X160571428Y-113053571D01*
X160714285Y-113053571D01*
X160928571Y-112982142D01*
X161000000Y-112910714D01*
X161000000Y-112410714D01*
X160714285Y-112410714D01*
X162285714Y-113053571D02*
X162285714Y-112267857D01*
X162214285Y-112125000D01*
X162071428Y-112053571D01*
X161785714Y-112053571D01*
X161642857Y-112125000D01*
X162285714Y-112982142D02*
X162142857Y-113053571D01*
X161785714Y-113053571D01*
X161642857Y-112982142D01*
X161571428Y-112839285D01*
X161571428Y-112696428D01*
X161642857Y-112553571D01*
X161785714Y-112482142D01*
X162142857Y-112482142D01*
X162285714Y-112410714D01*
X163642857Y-112053571D02*
X163642857Y-113053571D01*
X163000000Y-112053571D02*
X163000000Y-112839285D01*
X163071428Y-112982142D01*
X163214285Y-113053571D01*
X163428571Y-113053571D01*
X163571428Y-112982142D01*
X163642857Y-112910714D01*
X165000000Y-113053571D02*
X165000000Y-111553571D01*
X165000000Y-112982142D02*
X164857142Y-113053571D01*
X164571428Y-113053571D01*
X164428571Y-112982142D01*
X164357142Y-112910714D01*
X164285714Y-112767857D01*
X164285714Y-112339285D01*
X164357142Y-112196428D01*
X164428571Y-112125000D01*
X164571428Y-112053571D01*
X164857142Y-112053571D01*
X165000000Y-112125000D01*
X165714285Y-113053571D02*
X165714285Y-112053571D01*
X165714285Y-111553571D02*
X165642857Y-111625000D01*
X165714285Y-111696428D01*
X165785714Y-111625000D01*
X165714285Y-111553571D01*
X165714285Y-111696428D01*
X167142857Y-113053571D02*
X166428571Y-113053571D01*
X166428571Y-111553571D01*
X168285714Y-113053571D02*
X168285714Y-112267857D01*
X168214285Y-112125000D01*
X168071428Y-112053571D01*
X167785714Y-112053571D01*
X167642857Y-112125000D01*
X168285714Y-112982142D02*
X168142857Y-113053571D01*
X167785714Y-113053571D01*
X167642857Y-112982142D01*
X167571428Y-112839285D01*
X167571428Y-112696428D01*
X167642857Y-112553571D01*
X167785714Y-112482142D01*
X168142857Y-112482142D01*
X168285714Y-112410714D01*
X169000000Y-113053571D02*
X169000000Y-111553571D01*
X169000000Y-112125000D02*
X169142857Y-112053571D01*
X169428571Y-112053571D01*
X169571428Y-112125000D01*
X169642857Y-112196428D01*
X169714285Y-112339285D01*
X169714285Y-112767857D01*
X169642857Y-112910714D01*
X169571428Y-112982142D01*
X169428571Y-113053571D01*
X169142857Y-113053571D01*
X169000000Y-112982142D01*
X170285714Y-112982142D02*
X170428571Y-113053571D01*
X170714285Y-113053571D01*
X170857142Y-112982142D01*
X170928571Y-112839285D01*
X170928571Y-112767857D01*
X170857142Y-112625000D01*
X170714285Y-112553571D01*
X170500000Y-112553571D01*
X170357142Y-112482142D01*
X170285714Y-112339285D01*
X170285714Y-112267857D01*
X170357142Y-112125000D01*
X170500000Y-112053571D01*
X170714285Y-112053571D01*
X170857142Y-112125000D01*
D11*
X156839285Y-88204761D02*
X156839285Y-86204761D01*
X157601190Y-86204761D01*
X157791666Y-86300000D01*
X157886904Y-86395238D01*
X157982142Y-86585714D01*
X157982142Y-86871428D01*
X157886904Y-87061904D01*
X157791666Y-87157142D01*
X157601190Y-87252380D01*
X156839285Y-87252380D01*
X159125000Y-88204761D02*
X158934523Y-88109523D01*
X158839285Y-88014285D01*
X158744047Y-87823809D01*
X158744047Y-87252380D01*
X158839285Y-87061904D01*
X158934523Y-86966666D01*
X159125000Y-86871428D01*
X159410714Y-86871428D01*
X159601190Y-86966666D01*
X159696428Y-87061904D01*
X159791666Y-87252380D01*
X159791666Y-87823809D01*
X159696428Y-88014285D01*
X159601190Y-88109523D01*
X159410714Y-88204761D01*
X159125000Y-88204761D01*
X161505952Y-88109523D02*
X161315476Y-88204761D01*
X160934523Y-88204761D01*
X160744047Y-88109523D01*
X160648809Y-88014285D01*
X160553571Y-87823809D01*
X160553571Y-87252380D01*
X160648809Y-87061904D01*
X160744047Y-86966666D01*
X160934523Y-86871428D01*
X161315476Y-86871428D01*
X161505952Y-86966666D01*
X162363095Y-88204761D02*
X162363095Y-86204761D01*
X162553571Y-87442857D02*
X163124999Y-88204761D01*
X163124999Y-86871428D02*
X162363095Y-87633333D01*
X164744047Y-88109523D02*
X164553571Y-88204761D01*
X164172619Y-88204761D01*
X163982142Y-88109523D01*
X163886904Y-87919047D01*
X163886904Y-87157142D01*
X163982142Y-86966666D01*
X164172619Y-86871428D01*
X164553571Y-86871428D01*
X164744047Y-86966666D01*
X164839285Y-87157142D01*
X164839285Y-87347619D01*
X163886904Y-87538095D01*
X165410714Y-86871428D02*
X166172619Y-86871428D01*
X165696428Y-86204761D02*
X165696428Y-87919047D01*
X165791666Y-88109523D01*
X165982142Y-88204761D01*
X166172619Y-88204761D01*
X168363095Y-88204761D02*
X168363095Y-86204761D01*
X169125000Y-86204761D01*
X169315476Y-86300000D01*
X169410714Y-86395238D01*
X169505952Y-86585714D01*
X169505952Y-86871428D01*
X169410714Y-87061904D01*
X169315476Y-87157142D01*
X169125000Y-87252380D01*
X168363095Y-87252380D01*
X171505952Y-88014285D02*
X171410714Y-88109523D01*
X171125000Y-88204761D01*
X170934523Y-88204761D01*
X170648809Y-88109523D01*
X170458333Y-87919047D01*
X170363095Y-87728571D01*
X170267857Y-87347619D01*
X170267857Y-87061904D01*
X170363095Y-86680952D01*
X170458333Y-86490476D01*
X170648809Y-86300000D01*
X170934523Y-86204761D01*
X171125000Y-86204761D01*
X171410714Y-86300000D01*
X171505952Y-86395238D01*
X173505952Y-88204761D02*
X172839285Y-87252380D01*
X172363095Y-88204761D02*
X172363095Y-86204761D01*
X173125000Y-86204761D01*
X173315476Y-86300000D01*
X173410714Y-86395238D01*
X173505952Y-86585714D01*
X173505952Y-86871428D01*
X173410714Y-87061904D01*
X173315476Y-87157142D01*
X173125000Y-87252380D01*
X172363095Y-87252380D01*
D12*
G36*
X122601830Y-112172899D02*
X122762055Y-112221503D01*
X122909720Y-112300431D01*
X123039149Y-112406651D01*
X123145369Y-112536080D01*
X123224297Y-112683745D01*
X123272901Y-112843970D01*
X123289312Y-113010600D01*
X123272901Y-113177230D01*
X123224297Y-113337455D01*
X123145369Y-113485120D01*
X123039149Y-113614549D01*
X122909720Y-113720769D01*
X122762055Y-113799697D01*
X122601830Y-113848301D01*
X122476952Y-113860600D01*
X122393448Y-113860600D01*
X122268570Y-113848301D01*
X122108345Y-113799697D01*
X121960680Y-113720769D01*
X121831251Y-113614549D01*
X121725031Y-113485120D01*
X121646103Y-113337455D01*
X121597499Y-113177230D01*
X121581088Y-113010600D01*
X121597499Y-112843970D01*
X121646103Y-112683745D01*
X121725031Y-112536080D01*
X121831251Y-112406651D01*
X121960680Y-112300431D01*
X122108345Y-112221503D01*
X122268570Y-112172899D01*
X122393448Y-112160600D01*
X122476952Y-112160600D01*
X122601830Y-112172899D01*
X122601830Y-112172899D01*
G37*
G36*
X123285200Y-111320600D02*
X121585200Y-111320600D01*
X121585200Y-109620600D01*
X123285200Y-109620600D01*
X123285200Y-111320600D01*
X123285200Y-111320600D01*
G37*
G36*
X163957000Y-108455000D02*
X161957000Y-108455000D01*
X161957000Y-106455000D01*
X163957000Y-106455000D01*
X163957000Y-108455000D01*
X163957000Y-108455000D01*
G37*
G36*
X168132770Y-106470372D02*
X168248689Y-106493429D01*
X168430678Y-106568811D01*
X168594463Y-106678249D01*
X168733751Y-106817537D01*
X168843189Y-106981322D01*
X168918571Y-107163311D01*
X168957000Y-107356509D01*
X168957000Y-107553491D01*
X168918571Y-107746689D01*
X168843189Y-107928678D01*
X168733751Y-108092463D01*
X168594463Y-108231751D01*
X168430678Y-108341189D01*
X168248689Y-108416571D01*
X168132770Y-108439628D01*
X168055493Y-108455000D01*
X167858507Y-108455000D01*
X167781230Y-108439628D01*
X167665311Y-108416571D01*
X167483322Y-108341189D01*
X167319537Y-108231751D01*
X167180249Y-108092463D01*
X167070811Y-107928678D01*
X166995429Y-107746689D01*
X166957000Y-107553491D01*
X166957000Y-107356509D01*
X166995429Y-107163311D01*
X167070811Y-106981322D01*
X167180249Y-106817537D01*
X167319537Y-106678249D01*
X167483322Y-106568811D01*
X167665311Y-106493429D01*
X167781230Y-106470372D01*
X167858507Y-106455000D01*
X168055493Y-106455000D01*
X168132770Y-106470372D01*
X168132770Y-106470372D01*
G37*
G36*
X165632770Y-106470372D02*
X165748689Y-106493429D01*
X165930678Y-106568811D01*
X166094463Y-106678249D01*
X166233751Y-106817537D01*
X166343189Y-106981322D01*
X166418571Y-107163311D01*
X166457000Y-107356509D01*
X166457000Y-107553491D01*
X166418571Y-107746689D01*
X166343189Y-107928678D01*
X166233751Y-108092463D01*
X166094463Y-108231751D01*
X165930678Y-108341189D01*
X165748689Y-108416571D01*
X165632770Y-108439628D01*
X165555493Y-108455000D01*
X165358507Y-108455000D01*
X165281230Y-108439628D01*
X165165311Y-108416571D01*
X164983322Y-108341189D01*
X164819537Y-108231751D01*
X164680249Y-108092463D01*
X164570811Y-107928678D01*
X164495429Y-107746689D01*
X164457000Y-107553491D01*
X164457000Y-107356509D01*
X164495429Y-107163311D01*
X164570811Y-106981322D01*
X164680249Y-106817537D01*
X164819537Y-106678249D01*
X164983322Y-106568811D01*
X165165311Y-106493429D01*
X165281230Y-106470372D01*
X165358507Y-106455000D01*
X165555493Y-106455000D01*
X165632770Y-106470372D01*
X165632770Y-106470372D01*
G37*
G36*
X183915414Y-104060788D02*
X183990814Y-104083660D01*
X184060303Y-104120803D01*
X184121211Y-104170789D01*
X184171197Y-104231697D01*
X184208340Y-104301186D01*
X184231212Y-104376586D01*
X184238935Y-104455000D01*
X184231212Y-104533414D01*
X184208340Y-104608814D01*
X184171197Y-104678303D01*
X184121211Y-104739211D01*
X184060303Y-104789197D01*
X183990814Y-104826340D01*
X183915414Y-104849212D01*
X183856647Y-104855000D01*
X183217353Y-104855000D01*
X183158586Y-104849212D01*
X183083186Y-104826340D01*
X183013697Y-104789197D01*
X182952789Y-104739211D01*
X182902803Y-104678303D01*
X182865660Y-104608814D01*
X182842788Y-104533414D01*
X182835065Y-104455000D01*
X182842788Y-104376586D01*
X182865660Y-104301186D01*
X182902803Y-104231697D01*
X182952789Y-104170789D01*
X183013697Y-104120803D01*
X183083186Y-104083660D01*
X183158586Y-104060788D01*
X183217353Y-104055000D01*
X183856647Y-104055000D01*
X183915414Y-104060788D01*
X183915414Y-104060788D01*
G37*
G36*
X177965414Y-103700788D02*
X178040814Y-103723660D01*
X178110303Y-103760803D01*
X178171211Y-103810789D01*
X178221197Y-103871697D01*
X178258340Y-103941186D01*
X178281212Y-104016586D01*
X178288935Y-104095000D01*
X178281212Y-104173414D01*
X178258340Y-104248814D01*
X178221197Y-104318303D01*
X178171211Y-104379211D01*
X178110303Y-104429197D01*
X178040814Y-104466340D01*
X177965414Y-104489212D01*
X177906647Y-104495000D01*
X177267353Y-104495000D01*
X177208586Y-104489212D01*
X177133186Y-104466340D01*
X177063697Y-104429197D01*
X177002789Y-104379211D01*
X176952803Y-104318303D01*
X176915660Y-104248814D01*
X176892788Y-104173414D01*
X176885065Y-104095000D01*
X176892788Y-104016586D01*
X176915660Y-103941186D01*
X176952803Y-103871697D01*
X177002789Y-103810789D01*
X177063697Y-103760803D01*
X177133186Y-103723660D01*
X177208586Y-103700788D01*
X177267353Y-103695000D01*
X177906647Y-103695000D01*
X177965414Y-103700788D01*
X177965414Y-103700788D01*
G37*
G36*
X176400712Y-103094702D02*
X176461972Y-103113285D01*
X176499614Y-103133406D01*
X176518434Y-103143465D01*
X176567921Y-103184079D01*
X176608535Y-103233566D01*
X176618594Y-103252386D01*
X176638715Y-103290028D01*
X176657298Y-103351288D01*
X176662000Y-103399035D01*
X176662000Y-103730965D01*
X176657298Y-103778712D01*
X176638715Y-103839972D01*
X176621758Y-103871695D01*
X176608536Y-103896433D01*
X176608534Y-103896435D01*
X176567924Y-103945918D01*
X176567922Y-103945919D01*
X176567921Y-103945921D01*
X176518433Y-103986535D01*
X176488253Y-104002666D01*
X176461971Y-104016715D01*
X176400711Y-104035298D01*
X176337000Y-104041572D01*
X176273288Y-104035298D01*
X176212028Y-104016715D01*
X176174386Y-103996594D01*
X176155566Y-103986535D01*
X176143194Y-103976382D01*
X176106082Y-103945924D01*
X176106081Y-103945922D01*
X176106079Y-103945921D01*
X176065465Y-103896433D01*
X176049334Y-103866253D01*
X176035285Y-103839971D01*
X176016702Y-103778711D01*
X176012000Y-103730964D01*
X176012000Y-103399035D01*
X176016702Y-103351288D01*
X176035286Y-103290027D01*
X176049334Y-103263746D01*
X176065466Y-103233566D01*
X176106080Y-103184079D01*
X176155567Y-103143465D01*
X176174387Y-103133406D01*
X176212029Y-103113285D01*
X176273289Y-103094702D01*
X176337000Y-103088428D01*
X176400712Y-103094702D01*
X176400712Y-103094702D01*
G37*
G36*
X101189572Y-101987756D02*
X101353360Y-102055599D01*
X101500771Y-102154096D01*
X101626125Y-102279450D01*
X101724622Y-102426861D01*
X101792465Y-102590649D01*
X101827051Y-102764526D01*
X101827051Y-102941814D01*
X101792465Y-103115691D01*
X101724622Y-103279479D01*
X101626125Y-103426890D01*
X101500771Y-103552244D01*
X101353360Y-103650741D01*
X101189572Y-103718584D01*
X101015695Y-103753170D01*
X100838407Y-103753170D01*
X100664530Y-103718584D01*
X100500742Y-103650741D01*
X100353331Y-103552244D01*
X100227977Y-103426890D01*
X100129480Y-103279479D01*
X100061637Y-103115691D01*
X100027051Y-102941814D01*
X100027051Y-102764526D01*
X100061637Y-102590649D01*
X100129480Y-102426861D01*
X100227977Y-102279450D01*
X100353331Y-102154096D01*
X100500742Y-102055599D01*
X100664530Y-101987756D01*
X100838407Y-101953170D01*
X101015695Y-101953170D01*
X101189572Y-101987756D01*
X101189572Y-101987756D01*
G37*
G36*
X97835470Y-100897942D02*
X97999258Y-100965785D01*
X98146669Y-101064282D01*
X98272023Y-101189636D01*
X98370520Y-101337047D01*
X98438363Y-101500835D01*
X98472949Y-101674712D01*
X98472949Y-101852000D01*
X98438363Y-102025877D01*
X98370520Y-102189665D01*
X98272023Y-102337076D01*
X98146669Y-102462430D01*
X97999258Y-102560927D01*
X97835470Y-102628770D01*
X97661593Y-102663356D01*
X97484305Y-102663356D01*
X97310428Y-102628770D01*
X97146640Y-102560927D01*
X96999229Y-102462430D01*
X96873875Y-102337076D01*
X96775378Y-102189665D01*
X96707535Y-102025877D01*
X96672949Y-101852000D01*
X96672949Y-101674712D01*
X96707535Y-101500835D01*
X96775378Y-101337047D01*
X96873875Y-101189636D01*
X96999229Y-101064282D01*
X97146640Y-100965785D01*
X97310428Y-100897942D01*
X97484305Y-100863356D01*
X97661593Y-100863356D01*
X97835470Y-100897942D01*
X97835470Y-100897942D01*
G37*
G36*
X160857000Y-101555000D02*
X158857000Y-101555000D01*
X158857000Y-98355000D01*
X160857000Y-98355000D01*
X160857000Y-101555000D01*
X160857000Y-101555000D01*
G37*
G36*
X172057000Y-101555000D02*
X170057000Y-101555000D01*
X170057000Y-98355000D01*
X172057000Y-98355000D01*
X172057000Y-101555000D01*
X172057000Y-101555000D01*
G37*
G36*
X103262521Y-99134586D02*
X103426309Y-99202429D01*
X103573720Y-99300926D01*
X103699074Y-99426280D01*
X103797571Y-99573691D01*
X103865414Y-99737479D01*
X103900000Y-99911356D01*
X103900000Y-100088644D01*
X103865414Y-100262521D01*
X103797571Y-100426309D01*
X103699074Y-100573720D01*
X103573720Y-100699074D01*
X103426309Y-100797571D01*
X103262521Y-100865414D01*
X103088644Y-100900000D01*
X102911356Y-100900000D01*
X102737479Y-100865414D01*
X102573691Y-100797571D01*
X102426280Y-100699074D01*
X102300926Y-100573720D01*
X102202429Y-100426309D01*
X102134586Y-100262521D01*
X102100000Y-100088644D01*
X102100000Y-99911356D01*
X102134586Y-99737479D01*
X102202429Y-99573691D01*
X102300926Y-99426280D01*
X102426280Y-99300926D01*
X102573691Y-99202429D01*
X102737479Y-99134586D01*
X102911356Y-99100000D01*
X103088644Y-99100000D01*
X103262521Y-99134586D01*
X103262521Y-99134586D01*
G37*
G36*
X97835470Y-97371230D02*
X97999258Y-97439073D01*
X98146669Y-97537570D01*
X98272023Y-97662924D01*
X98370520Y-97810335D01*
X98438363Y-97974123D01*
X98472949Y-98148000D01*
X98472949Y-98325288D01*
X98438363Y-98499165D01*
X98370520Y-98662953D01*
X98272023Y-98810364D01*
X98146669Y-98935718D01*
X97999258Y-99034215D01*
X97835470Y-99102058D01*
X97661593Y-99136644D01*
X97484305Y-99136644D01*
X97310428Y-99102058D01*
X97146640Y-99034215D01*
X96999229Y-98935718D01*
X96873875Y-98810364D01*
X96775378Y-98662953D01*
X96707535Y-98499165D01*
X96672949Y-98325288D01*
X96672949Y-98148000D01*
X96707535Y-97974123D01*
X96775378Y-97810335D01*
X96873875Y-97662924D01*
X96999229Y-97537570D01*
X97146640Y-97439073D01*
X97310428Y-97371230D01*
X97484305Y-97336644D01*
X97661593Y-97336644D01*
X97835470Y-97371230D01*
X97835470Y-97371230D01*
G37*
G36*
X101189572Y-96281416D02*
X101353360Y-96349259D01*
X101500771Y-96447756D01*
X101626125Y-96573110D01*
X101724622Y-96720521D01*
X101792465Y-96884309D01*
X101827051Y-97058186D01*
X101827051Y-97235474D01*
X101792465Y-97409351D01*
X101724622Y-97573139D01*
X101626125Y-97720550D01*
X101500771Y-97845904D01*
X101353360Y-97944401D01*
X101189572Y-98012244D01*
X101015695Y-98046830D01*
X100838407Y-98046830D01*
X100664530Y-98012244D01*
X100500742Y-97944401D01*
X100353331Y-97845904D01*
X100227977Y-97720550D01*
X100129480Y-97573139D01*
X100061637Y-97409351D01*
X100027051Y-97235474D01*
X100027051Y-97058186D01*
X100061637Y-96884309D01*
X100129480Y-96720521D01*
X100227977Y-96573110D01*
X100353331Y-96447756D01*
X100500742Y-96349259D01*
X100664530Y-96281416D01*
X100838407Y-96246830D01*
X101015695Y-96246830D01*
X101189572Y-96281416D01*
X101189572Y-96281416D01*
G37*
G36*
X176431799Y-96052489D02*
X176477543Y-96071437D01*
X176490941Y-96076986D01*
X176490942Y-96076987D01*
X176490945Y-96076988D01*
X176544176Y-96112556D01*
X176589444Y-96157824D01*
X176625012Y-96211055D01*
X176649511Y-96270201D01*
X176662000Y-96332990D01*
X176662000Y-96397010D01*
X176649511Y-96459799D01*
X176625012Y-96518945D01*
X176589444Y-96572176D01*
X176544176Y-96617444D01*
X176490945Y-96653012D01*
X176490942Y-96653013D01*
X176490941Y-96653014D01*
X176477543Y-96658563D01*
X176431799Y-96677511D01*
X176369010Y-96690000D01*
X176304990Y-96690000D01*
X176242201Y-96677511D01*
X176196457Y-96658563D01*
X176183059Y-96653014D01*
X176183058Y-96653013D01*
X176183055Y-96653012D01*
X176129824Y-96617444D01*
X176084556Y-96572176D01*
X176048988Y-96518945D01*
X176024489Y-96459799D01*
X176012000Y-96397010D01*
X176012000Y-96332990D01*
X176024489Y-96270201D01*
X176048988Y-96211055D01*
X176084556Y-96157824D01*
X176129824Y-96112556D01*
X176183055Y-96076988D01*
X176183058Y-96076987D01*
X176183059Y-96076986D01*
X176196457Y-96071437D01*
X176242201Y-96052489D01*
X176304990Y-96040000D01*
X176369010Y-96040000D01*
X176431799Y-96052489D01*
X176431799Y-96052489D01*
G37*
G36*
X177965414Y-95440788D02*
X178040814Y-95463660D01*
X178110303Y-95500803D01*
X178171211Y-95550789D01*
X178221197Y-95611697D01*
X178258340Y-95681186D01*
X178281212Y-95756586D01*
X178288935Y-95835000D01*
X178281212Y-95913414D01*
X178258340Y-95988814D01*
X178221197Y-96058303D01*
X178171211Y-96119211D01*
X178110303Y-96169197D01*
X178040814Y-96206340D01*
X177965414Y-96229212D01*
X177906647Y-96235000D01*
X177267353Y-96235000D01*
X177208586Y-96229212D01*
X177133186Y-96206340D01*
X177063697Y-96169197D01*
X177002789Y-96119211D01*
X176952803Y-96058303D01*
X176915660Y-95988814D01*
X176892788Y-95913414D01*
X176885065Y-95835000D01*
X176892788Y-95756586D01*
X176915660Y-95681186D01*
X176952803Y-95611697D01*
X177002789Y-95550789D01*
X177063697Y-95500803D01*
X177133186Y-95463660D01*
X177208586Y-95440788D01*
X177267353Y-95435000D01*
X177906647Y-95435000D01*
X177965414Y-95440788D01*
X177965414Y-95440788D01*
G37*
G36*
X183915414Y-95080788D02*
X183990814Y-95103660D01*
X184060303Y-95140803D01*
X184121211Y-95190789D01*
X184171197Y-95251697D01*
X184208340Y-95321186D01*
X184231212Y-95396586D01*
X184238935Y-95475000D01*
X184231212Y-95553414D01*
X184208340Y-95628814D01*
X184171197Y-95698303D01*
X184121211Y-95759211D01*
X184060303Y-95809197D01*
X183990814Y-95846340D01*
X183915414Y-95869212D01*
X183856647Y-95875000D01*
X183217353Y-95875000D01*
X183158586Y-95869212D01*
X183083186Y-95846340D01*
X183013697Y-95809197D01*
X182952789Y-95759211D01*
X182902803Y-95698303D01*
X182865660Y-95628814D01*
X182842788Y-95553414D01*
X182835065Y-95475000D01*
X182842788Y-95396586D01*
X182865660Y-95321186D01*
X182902803Y-95251697D01*
X182952789Y-95190789D01*
X183013697Y-95140803D01*
X183083186Y-95103660D01*
X183158586Y-95080788D01*
X183217353Y-95075000D01*
X183856647Y-95075000D01*
X183915414Y-95080788D01*
X183915414Y-95080788D01*
G37*
G36*
X168132770Y-91970372D02*
X168248689Y-91993429D01*
X168430678Y-92068811D01*
X168594463Y-92178249D01*
X168733751Y-92317537D01*
X168843189Y-92481322D01*
X168918571Y-92663311D01*
X168957000Y-92856509D01*
X168957000Y-93053491D01*
X168918571Y-93246689D01*
X168843189Y-93428678D01*
X168733751Y-93592463D01*
X168594463Y-93731751D01*
X168430678Y-93841189D01*
X168248689Y-93916571D01*
X168132770Y-93939628D01*
X168055493Y-93955000D01*
X167858507Y-93955000D01*
X167781230Y-93939628D01*
X167665311Y-93916571D01*
X167483322Y-93841189D01*
X167319537Y-93731751D01*
X167180249Y-93592463D01*
X167070811Y-93428678D01*
X166995429Y-93246689D01*
X166957000Y-93053491D01*
X166957000Y-92856509D01*
X166995429Y-92663311D01*
X167070811Y-92481322D01*
X167180249Y-92317537D01*
X167319537Y-92178249D01*
X167483322Y-92068811D01*
X167665311Y-91993429D01*
X167781230Y-91970372D01*
X167858507Y-91955000D01*
X168055493Y-91955000D01*
X168132770Y-91970372D01*
X168132770Y-91970372D01*
G37*
G36*
X163132770Y-91970372D02*
X163248689Y-91993429D01*
X163430678Y-92068811D01*
X163594463Y-92178249D01*
X163733751Y-92317537D01*
X163843189Y-92481322D01*
X163918571Y-92663311D01*
X163957000Y-92856509D01*
X163957000Y-93053491D01*
X163918571Y-93246689D01*
X163843189Y-93428678D01*
X163733751Y-93592463D01*
X163594463Y-93731751D01*
X163430678Y-93841189D01*
X163248689Y-93916571D01*
X163132770Y-93939628D01*
X163055493Y-93955000D01*
X162858507Y-93955000D01*
X162781230Y-93939628D01*
X162665311Y-93916571D01*
X162483322Y-93841189D01*
X162319537Y-93731751D01*
X162180249Y-93592463D01*
X162070811Y-93428678D01*
X161995429Y-93246689D01*
X161957000Y-93053491D01*
X161957000Y-92856509D01*
X161995429Y-92663311D01*
X162070811Y-92481322D01*
X162180249Y-92317537D01*
X162319537Y-92178249D01*
X162483322Y-92068811D01*
X162665311Y-91993429D01*
X162781230Y-91970372D01*
X162858507Y-91955000D01*
X163055493Y-91955000D01*
X163132770Y-91970372D01*
X163132770Y-91970372D01*
G37*
M02*
