G04 #@! TF.GenerationSoftware,KiCad,Pcbnew,5.0.2-bee76a0~70~ubuntu18.04.1*
G04 #@! TF.CreationDate,2019-05-31T10:22:34+02:00*
G04 #@! TF.ProjectId,GaudiPCR,47617564-6950-4435-922e-6b696361645f,rev?*
G04 #@! TF.SameCoordinates,Original*
G04 #@! TF.FileFunction,Legend,Top*
G04 #@! TF.FilePolarity,Positive*
%FSLAX46Y46*%
G04 Gerber Fmt 4.6, Leading zero omitted, Abs format (unit mm)*
G04 Created by KiCad (PCBNEW 5.0.2-bee76a0~70~ubuntu18.04.1) date Fr 31 Mai 2019 10:22:34 CEST*
%MOMM*%
%LPD*%
G01*
G04 APERTURE LIST*
%ADD10C,0.150000*%
%ADD11C,0.200000*%
G04 APERTURE END LIST*
D10*
X104456716Y-105700000D02*
G75*
G03X104456716Y-105700000I-226716J0D01*
G01*
X96136716Y-105700000D02*
G75*
G03X96136716Y-105700000I-226716J0D01*
G01*
X93616716Y-97830000D02*
G75*
G03X93616716Y-97830000I-226716J0D01*
G01*
X106996716Y-97830000D02*
G75*
G03X106996716Y-97830000I-226716J0D01*
G01*
X100276716Y-92980000D02*
G75*
G03X100276716Y-92980000I-226716J0D01*
G01*
D11*
X95059138Y-100832121D02*
X94999363Y-100892810D01*
X94964047Y-101001502D01*
X94964962Y-101121967D01*
X95013879Y-101217972D01*
X95074568Y-101277747D01*
X95207719Y-101361066D01*
X95316411Y-101396382D01*
X95473106Y-101407240D01*
X95557340Y-101394553D01*
X95653346Y-101345636D01*
X95724892Y-101248716D01*
X95748437Y-101176254D01*
X95747522Y-101055790D01*
X95723063Y-101007787D01*
X95469448Y-100925383D01*
X95422360Y-101070306D01*
X96007422Y-100379179D02*
X95608884Y-100249686D01*
X95524651Y-100262372D01*
X95464876Y-100323062D01*
X95417788Y-100467985D01*
X95430474Y-100552218D01*
X95971192Y-100367406D02*
X95983878Y-100451640D01*
X95925018Y-100632794D01*
X95865243Y-100693483D01*
X95781009Y-100706170D01*
X95708548Y-100682625D01*
X95647859Y-100622851D01*
X95635172Y-100538617D01*
X95694032Y-100357463D01*
X95681346Y-100273230D01*
X95723862Y-99525986D02*
X96231092Y-99690795D01*
X95617913Y-99852062D02*
X96016451Y-99981555D01*
X96100684Y-99968869D01*
X96160459Y-99908179D01*
X96195776Y-99799487D01*
X96183089Y-99715253D01*
X96158630Y-99667251D01*
X96454761Y-99002411D02*
X95693916Y-98755197D01*
X96418530Y-98990639D02*
X96431217Y-99074872D01*
X96384129Y-99219795D01*
X96324354Y-99280485D01*
X96276351Y-99304943D01*
X96192118Y-99317630D01*
X95974733Y-99246998D01*
X95914044Y-99187223D01*
X95889585Y-99139220D01*
X95876899Y-99054986D01*
X95923987Y-98910063D01*
X95983762Y-98849374D01*
X96572482Y-98640104D02*
X96065252Y-98475295D01*
X95811637Y-98392890D02*
X95836095Y-98440893D01*
X95884098Y-98416434D01*
X95859640Y-98368432D01*
X95811637Y-98392890D01*
X95884098Y-98416434D01*
X96690203Y-98277797D02*
X95929357Y-98030583D01*
X96023534Y-97740737D01*
X96083309Y-97680048D01*
X96131312Y-97655589D01*
X96215545Y-97642903D01*
X96324237Y-97678219D01*
X96384927Y-97737994D01*
X96409386Y-97785996D01*
X96422072Y-97870230D01*
X96327895Y-98160076D01*
X97006220Y-97058638D02*
X97030678Y-97106641D01*
X97031593Y-97227106D01*
X97008049Y-97299567D01*
X96936502Y-97396487D01*
X96840496Y-97445404D01*
X96756263Y-97458091D01*
X96599568Y-97447233D01*
X96490876Y-97411917D01*
X96357725Y-97328598D01*
X96297035Y-97268823D01*
X96248118Y-97172818D01*
X96247204Y-97052353D01*
X96270748Y-96979892D01*
X96342295Y-96882972D01*
X96390297Y-96858513D01*
X97325895Y-96321337D02*
X96881183Y-96457232D01*
X97184630Y-96756106D02*
X96423785Y-96508893D01*
X96517961Y-96219047D01*
X96577736Y-96158357D01*
X96625739Y-96133899D01*
X96709972Y-96121212D01*
X96818665Y-96156528D01*
X96879354Y-96216303D01*
X96903813Y-96264306D01*
X96916499Y-96348540D01*
X96822323Y-96638385D01*
G04 #@! TO.C,REF\002A\002A*
D10*
X115806666Y-90692380D02*
X115473333Y-90216190D01*
X115235238Y-90692380D02*
X115235238Y-89692380D01*
X115616190Y-89692380D01*
X115711428Y-89740000D01*
X115759047Y-89787619D01*
X115806666Y-89882857D01*
X115806666Y-90025714D01*
X115759047Y-90120952D01*
X115711428Y-90168571D01*
X115616190Y-90216190D01*
X115235238Y-90216190D01*
X116235238Y-90168571D02*
X116568571Y-90168571D01*
X116711428Y-90692380D02*
X116235238Y-90692380D01*
X116235238Y-89692380D01*
X116711428Y-89692380D01*
X117473333Y-90168571D02*
X117140000Y-90168571D01*
X117140000Y-90692380D02*
X117140000Y-89692380D01*
X117616190Y-89692380D01*
X118140000Y-89692380D02*
X118140000Y-89930476D01*
X117901904Y-89835238D02*
X118140000Y-89930476D01*
X118378095Y-89835238D01*
X117997142Y-90120952D02*
X118140000Y-89930476D01*
X118282857Y-90120952D01*
X118901904Y-89692380D02*
X118901904Y-89930476D01*
X118663809Y-89835238D02*
X118901904Y-89930476D01*
X119140000Y-89835238D01*
X118759047Y-90120952D02*
X118901904Y-89930476D01*
X119044761Y-90120952D01*
X114116666Y-119512380D02*
X113783333Y-119036190D01*
X113545238Y-119512380D02*
X113545238Y-118512380D01*
X113926190Y-118512380D01*
X114021428Y-118560000D01*
X114069047Y-118607619D01*
X114116666Y-118702857D01*
X114116666Y-118845714D01*
X114069047Y-118940952D01*
X114021428Y-118988571D01*
X113926190Y-119036190D01*
X113545238Y-119036190D01*
X114545238Y-118988571D02*
X114878571Y-118988571D01*
X115021428Y-119512380D02*
X114545238Y-119512380D01*
X114545238Y-118512380D01*
X115021428Y-118512380D01*
X115783333Y-118988571D02*
X115450000Y-118988571D01*
X115450000Y-119512380D02*
X115450000Y-118512380D01*
X115926190Y-118512380D01*
X116450000Y-118512380D02*
X116450000Y-118750476D01*
X116211904Y-118655238D02*
X116450000Y-118750476D01*
X116688095Y-118655238D01*
X116307142Y-118940952D02*
X116450000Y-118750476D01*
X116592857Y-118940952D01*
X117211904Y-118512380D02*
X117211904Y-118750476D01*
X116973809Y-118655238D02*
X117211904Y-118750476D01*
X117450000Y-118655238D01*
X117069047Y-118940952D02*
X117211904Y-118750476D01*
X117354761Y-118940952D01*
X83866666Y-108822380D02*
X83533333Y-108346190D01*
X83295238Y-108822380D02*
X83295238Y-107822380D01*
X83676190Y-107822380D01*
X83771428Y-107870000D01*
X83819047Y-107917619D01*
X83866666Y-108012857D01*
X83866666Y-108155714D01*
X83819047Y-108250952D01*
X83771428Y-108298571D01*
X83676190Y-108346190D01*
X83295238Y-108346190D01*
X84295238Y-108298571D02*
X84628571Y-108298571D01*
X84771428Y-108822380D02*
X84295238Y-108822380D01*
X84295238Y-107822380D01*
X84771428Y-107822380D01*
X85533333Y-108298571D02*
X85200000Y-108298571D01*
X85200000Y-108822380D02*
X85200000Y-107822380D01*
X85676190Y-107822380D01*
X86200000Y-107822380D02*
X86200000Y-108060476D01*
X85961904Y-107965238D02*
X86200000Y-108060476D01*
X86438095Y-107965238D01*
X86057142Y-108250952D02*
X86200000Y-108060476D01*
X86342857Y-108250952D01*
X86961904Y-107822380D02*
X86961904Y-108060476D01*
X86723809Y-107965238D02*
X86961904Y-108060476D01*
X87200000Y-107965238D01*
X86819047Y-108250952D02*
X86961904Y-108060476D01*
X87104761Y-108250952D01*
X92956666Y-117412380D02*
X92623333Y-116936190D01*
X92385238Y-117412380D02*
X92385238Y-116412380D01*
X92766190Y-116412380D01*
X92861428Y-116460000D01*
X92909047Y-116507619D01*
X92956666Y-116602857D01*
X92956666Y-116745714D01*
X92909047Y-116840952D01*
X92861428Y-116888571D01*
X92766190Y-116936190D01*
X92385238Y-116936190D01*
X93385238Y-116888571D02*
X93718571Y-116888571D01*
X93861428Y-117412380D02*
X93385238Y-117412380D01*
X93385238Y-116412380D01*
X93861428Y-116412380D01*
X94623333Y-116888571D02*
X94290000Y-116888571D01*
X94290000Y-117412380D02*
X94290000Y-116412380D01*
X94766190Y-116412380D01*
X95290000Y-116412380D02*
X95290000Y-116650476D01*
X95051904Y-116555238D02*
X95290000Y-116650476D01*
X95528095Y-116555238D01*
X95147142Y-116840952D02*
X95290000Y-116650476D01*
X95432857Y-116840952D01*
X96051904Y-116412380D02*
X96051904Y-116650476D01*
X95813809Y-116555238D02*
X96051904Y-116650476D01*
X96290000Y-116555238D01*
X95909047Y-116840952D02*
X96051904Y-116650476D01*
X96194761Y-116840952D01*
X114746666Y-107162380D02*
X114413333Y-106686190D01*
X114175238Y-107162380D02*
X114175238Y-106162380D01*
X114556190Y-106162380D01*
X114651428Y-106210000D01*
X114699047Y-106257619D01*
X114746666Y-106352857D01*
X114746666Y-106495714D01*
X114699047Y-106590952D01*
X114651428Y-106638571D01*
X114556190Y-106686190D01*
X114175238Y-106686190D01*
X115175238Y-106638571D02*
X115508571Y-106638571D01*
X115651428Y-107162380D02*
X115175238Y-107162380D01*
X115175238Y-106162380D01*
X115651428Y-106162380D01*
X116413333Y-106638571D02*
X116080000Y-106638571D01*
X116080000Y-107162380D02*
X116080000Y-106162380D01*
X116556190Y-106162380D01*
X117080000Y-106162380D02*
X117080000Y-106400476D01*
X116841904Y-106305238D02*
X117080000Y-106400476D01*
X117318095Y-106305238D01*
X116937142Y-106590952D02*
X117080000Y-106400476D01*
X117222857Y-106590952D01*
X117841904Y-106162380D02*
X117841904Y-106400476D01*
X117603809Y-106305238D02*
X117841904Y-106400476D01*
X118080000Y-106305238D01*
X117699047Y-106590952D02*
X117841904Y-106400476D01*
X117984761Y-106590952D01*
X111276666Y-86852380D02*
X110943333Y-86376190D01*
X110705238Y-86852380D02*
X110705238Y-85852380D01*
X111086190Y-85852380D01*
X111181428Y-85900000D01*
X111229047Y-85947619D01*
X111276666Y-86042857D01*
X111276666Y-86185714D01*
X111229047Y-86280952D01*
X111181428Y-86328571D01*
X111086190Y-86376190D01*
X110705238Y-86376190D01*
X111705238Y-86328571D02*
X112038571Y-86328571D01*
X112181428Y-86852380D02*
X111705238Y-86852380D01*
X111705238Y-85852380D01*
X112181428Y-85852380D01*
X112943333Y-86328571D02*
X112610000Y-86328571D01*
X112610000Y-86852380D02*
X112610000Y-85852380D01*
X113086190Y-85852380D01*
X113610000Y-85852380D02*
X113610000Y-86090476D01*
X113371904Y-85995238D02*
X113610000Y-86090476D01*
X113848095Y-85995238D01*
X113467142Y-86280952D02*
X113610000Y-86090476D01*
X113752857Y-86280952D01*
X114371904Y-85852380D02*
X114371904Y-86090476D01*
X114133809Y-85995238D02*
X114371904Y-86090476D01*
X114610000Y-85995238D01*
X114229047Y-86280952D02*
X114371904Y-86090476D01*
X114514761Y-86280952D01*
X99316666Y-104702380D02*
X98983333Y-104226190D01*
X98745238Y-104702380D02*
X98745238Y-103702380D01*
X99126190Y-103702380D01*
X99221428Y-103750000D01*
X99269047Y-103797619D01*
X99316666Y-103892857D01*
X99316666Y-104035714D01*
X99269047Y-104130952D01*
X99221428Y-104178571D01*
X99126190Y-104226190D01*
X98745238Y-104226190D01*
X99745238Y-104178571D02*
X100078571Y-104178571D01*
X100221428Y-104702380D02*
X99745238Y-104702380D01*
X99745238Y-103702380D01*
X100221428Y-103702380D01*
X100983333Y-104178571D02*
X100650000Y-104178571D01*
X100650000Y-104702380D02*
X100650000Y-103702380D01*
X101126190Y-103702380D01*
X101650000Y-103702380D02*
X101650000Y-103940476D01*
X101411904Y-103845238D02*
X101650000Y-103940476D01*
X101888095Y-103845238D01*
X101507142Y-104130952D02*
X101650000Y-103940476D01*
X101792857Y-104130952D01*
X102411904Y-103702380D02*
X102411904Y-103940476D01*
X102173809Y-103845238D02*
X102411904Y-103940476D01*
X102650000Y-103845238D01*
X102269047Y-104130952D02*
X102411904Y-103940476D01*
X102554761Y-104130952D01*
G04 #@! TD*
M02*
