G04 #@! TF.GenerationSoftware,KiCad,Pcbnew,5.0.2-bee76a0~70~ubuntu18.04.1*
G04 #@! TF.CreationDate,2019-05-31T10:22:34+02:00*
G04 #@! TF.ProjectId,GaudiPCR,47617564-6950-4435-922e-6b696361645f,rev?*
G04 #@! TF.SameCoordinates,Original*
G04 #@! TF.FileFunction,Profile,NP*
%FSLAX46Y46*%
G04 Gerber Fmt 4.6, Leading zero omitted, Abs format (unit mm)*
G04 Created by KiCad (PCBNEW 5.0.2-bee76a0~70~ubuntu18.04.1) date Fr 31 Mai 2019 10:22:34 CEST*
%MOMM*%
%LPD*%
G01*
G04 APERTURE LIST*
%ADD10C,0.100000*%
G04 APERTURE END LIST*
D10*
X93272922Y-107103720D02*
X93328102Y-107204580D01*
X93328102Y-107204580D02*
X93387132Y-107303280D01*
X108764637Y-95708230D02*
X108679557Y-95630830D01*
X108846657Y-95788830D02*
X108764637Y-95708230D01*
X109686137Y-98213340D02*
X109696407Y-98098790D01*
X109671497Y-98327370D02*
X109686137Y-98213340D01*
X113652657Y-99639210D02*
X114156177Y-99651510D01*
X113149137Y-99626910D02*
X113652657Y-99639210D01*
X109683540Y-103701260D02*
X108951842Y-103483130D01*
X110415237Y-103919390D02*
X109683540Y-103701260D01*
X109203447Y-96213330D02*
X109273767Y-96274230D01*
X109142377Y-96140930D02*
X109203447Y-96213330D01*
X98995023Y-100554770D02*
X99255420Y-100914300D01*
X98896403Y-100051440D02*
X98995023Y-100554770D01*
X110631537Y-99565410D02*
X111135057Y-99577710D01*
X110128057Y-99553180D02*
X110631537Y-99565410D01*
X108220144Y-103265000D02*
X107488447Y-103046870D01*
X108951842Y-103483130D02*
X108220144Y-103265000D01*
X113858069Y-104387130D02*
X113827669Y-104244000D01*
X113836579Y-104532150D02*
X113858069Y-104387130D01*
X112610330Y-104573770D02*
X111878632Y-104355640D01*
X113342027Y-104791900D02*
X112610330Y-104573770D01*
X107382636Y-103025370D02*
X107277237Y-103023370D01*
X107488447Y-103046870D02*
X107382636Y-103025370D01*
X107962587Y-100619250D02*
X107935327Y-100627250D01*
X107990187Y-100612250D02*
X107962587Y-100619250D01*
X107864547Y-100656860D02*
X107870447Y-100654860D01*
X107858647Y-100658860D02*
X107864547Y-100656860D01*
X108591507Y-95556730D02*
X108500577Y-95485930D01*
X108679557Y-95630830D02*
X108591507Y-95556730D01*
X111638577Y-99590010D02*
X112142097Y-99602310D01*
X111135057Y-99577710D02*
X111638577Y-99590010D01*
X108018067Y-100607250D02*
X107990187Y-100612250D01*
X108046187Y-100603250D02*
X108018067Y-100607250D01*
X106827764Y-108570500D02*
X107090002Y-108950630D01*
X106565567Y-108190400D02*
X106827764Y-108570500D01*
X106518067Y-108108400D02*
X106565567Y-108190400D01*
X106484577Y-108021600D02*
X106518067Y-108108400D01*
X106465067Y-107931700D02*
X106484577Y-108021600D01*
X99624589Y-98972870D02*
X99256140Y-99188580D01*
X100046885Y-98900970D02*
X99624589Y-98972870D01*
X106619297Y-103836720D02*
X106626997Y-103913420D01*
X106621497Y-103759620D02*
X106619297Y-103836720D01*
X106633577Y-103683220D02*
X106621497Y-103759620D01*
X106655617Y-103608420D02*
X106633577Y-103683220D01*
X106687657Y-103536220D02*
X106655617Y-103608420D01*
X100468221Y-101130010D02*
X100836670Y-100914300D01*
X100045925Y-101201910D02*
X100468221Y-101130010D01*
X107852747Y-100660860D02*
X107858647Y-100658860D01*
X107846847Y-100662860D02*
X107852747Y-100660860D01*
X105383077Y-108537360D02*
X105291307Y-108531360D01*
X105472347Y-108557560D02*
X105383077Y-108537360D01*
X105557517Y-108591060D02*
X105472347Y-108557560D01*
X105636987Y-108637360D02*
X105557517Y-108591060D01*
X105709167Y-108696060D02*
X105636987Y-108637360D01*
X105772457Y-108766560D02*
X105709167Y-108696060D01*
X106052951Y-109133430D02*
X105772457Y-108766560D01*
X106333445Y-109500300D02*
X106052951Y-109133430D01*
X106613938Y-109867170D02*
X106333445Y-109500300D01*
X106894432Y-110234050D02*
X106613938Y-109867170D01*
X109568047Y-107524440D02*
X109153457Y-107238430D01*
X109982637Y-107810440D02*
X109568047Y-107524440D01*
X110397227Y-108096450D02*
X109982637Y-107810440D01*
X110811817Y-108382450D02*
X110397227Y-108096450D01*
X111226407Y-108668460D02*
X110811817Y-108382450D01*
X111812578Y-108152100D02*
X111696487Y-108021420D01*
X111857728Y-108297440D02*
X111812578Y-108152100D01*
X111842428Y-108442990D02*
X111857728Y-108297440D01*
X108731477Y-111543800D02*
X108733477Y-111391620D01*
X108671947Y-111677490D02*
X108731477Y-111543800D01*
X108569299Y-111782220D02*
X108671947Y-111677490D01*
X108437979Y-111847520D02*
X108569299Y-111782220D01*
X108292428Y-111862820D02*
X108437979Y-111847520D01*
X108147090Y-111817620D02*
X108292428Y-111862820D01*
X108016407Y-111701530D02*
X108147090Y-111817620D01*
X107781835Y-106313010D02*
X107647513Y-106279110D01*
X107909687Y-106380410D02*
X107781835Y-106313010D01*
X108324277Y-106666420D02*
X107909687Y-106380410D01*
X108738867Y-106952420D02*
X108324277Y-106666420D01*
X109153457Y-107238430D02*
X108738867Y-106952420D01*
X109702307Y-97983840D02*
X109703807Y-97868630D01*
X109696407Y-98098790D02*
X109702307Y-97983840D01*
X107150976Y-106443610D02*
X107063386Y-106550960D01*
X107258454Y-106361010D02*
X107150976Y-106443610D01*
X107380551Y-106304910D02*
X107258454Y-106361010D01*
X107511994Y-106277110D02*
X107380551Y-106304910D01*
X107647513Y-106279110D02*
X107511994Y-106277110D01*
X109601497Y-98665090D02*
X109629157Y-98553370D01*
X109569527Y-98775790D02*
X109601497Y-98665090D01*
X106733657Y-103447120D02*
X106744967Y-103424720D01*
X106722267Y-103469420D02*
X106733657Y-103447120D01*
X106710807Y-103491720D02*
X106722267Y-103469420D01*
X106699267Y-103514020D02*
X106710807Y-103491720D01*
X106687657Y-103536220D02*
X106699267Y-103514020D01*
X114326891Y-100413820D02*
X114448829Y-100322820D01*
X114156177Y-100451320D02*
X114326891Y-100413820D01*
X111812588Y-91950748D02*
X111857738Y-91805410D01*
X111696497Y-92081431D02*
X111812588Y-91950748D01*
X113739870Y-95983180D02*
X113827660Y-95858920D01*
X113589167Y-96071580D02*
X113739870Y-95983180D01*
X107908437Y-100636250D02*
X107881977Y-100646850D01*
X107935327Y-100627250D02*
X107908437Y-100636250D01*
X107876247Y-100652860D02*
X107882047Y-100650860D01*
X107870447Y-100654860D02*
X107876247Y-100652860D01*
X106767367Y-103379920D02*
X106778457Y-103357420D01*
X106756207Y-103402320D02*
X106767367Y-103379920D01*
X106744967Y-103424720D02*
X106756207Y-103402320D01*
X108859610Y-100580820D02*
X108102957Y-100599320D01*
X109616262Y-100562320D02*
X108859610Y-100580820D01*
X107076603Y-103072370D02*
X106985833Y-103121770D01*
X107174483Y-103039270D02*
X107076603Y-103072370D01*
X107277237Y-103023370D02*
X107174483Y-103039270D01*
X113858060Y-95715790D02*
X113836570Y-95570770D01*
X113827660Y-95858920D02*
X113858060Y-95715790D01*
X108895631Y-94222850D02*
X108495507Y-94528770D01*
X109295754Y-93916940D02*
X108895631Y-94222850D01*
X114521989Y-99906900D02*
X114448829Y-99780160D01*
X114546379Y-100051490D02*
X114521989Y-99906900D01*
X109988323Y-102763230D02*
X110708492Y-103016840D01*
X109268154Y-102509620D02*
X109988323Y-102763230D01*
X110244063Y-96234510D02*
X110686630Y-96102570D01*
X109801497Y-96366440D02*
X110244063Y-96234510D01*
X109652497Y-98440760D02*
X109671497Y-98327370D01*
X109629157Y-98553370D02*
X109652497Y-98440760D01*
X108074497Y-100600250D02*
X108046187Y-100603250D01*
X108102957Y-100599320D02*
X108074497Y-100600250D01*
X107840947Y-100664860D02*
X107846847Y-100662860D01*
X107835047Y-100666860D02*
X107840947Y-100664860D01*
X106842777Y-104307020D02*
X106864087Y-104325820D01*
X106822407Y-104287220D02*
X106842777Y-104307020D01*
X106803007Y-104266520D02*
X106822407Y-104287220D01*
X106784607Y-104244920D02*
X106803007Y-104266520D01*
X106767247Y-104222420D02*
X106784607Y-104244920D01*
X111095222Y-107561730D02*
X111696497Y-108021440D01*
X110493947Y-107102020D02*
X111095222Y-107561730D01*
X109892672Y-106642310D02*
X110493947Y-107102020D01*
X109291397Y-106182610D02*
X109892672Y-106642310D01*
X108690122Y-105722900D02*
X109291397Y-106182610D01*
X111146935Y-104137510D02*
X110415237Y-103919390D01*
X111878632Y-104355640D02*
X111146935Y-104137510D01*
X106719247Y-104150020D02*
X106715947Y-104145020D01*
X106722547Y-104155020D02*
X106719247Y-104150020D01*
X106725847Y-104160020D02*
X106722547Y-104155020D01*
X106729147Y-104165020D02*
X106725847Y-104160020D01*
X106732447Y-104170020D02*
X106729147Y-104165020D01*
X113515923Y-95294020D02*
X113342018Y-95311020D01*
X113659991Y-95342920D02*
X113515923Y-95294020D01*
X110540019Y-97145360D02*
X110104427Y-97298760D01*
X110975612Y-96991970D02*
X110540019Y-97145360D01*
X108275482Y-95142020D02*
X108320792Y-95269760D01*
X108259902Y-95008580D02*
X108275482Y-95142020D01*
X109695878Y-93611020D02*
X109295754Y-93916940D01*
X110096002Y-93305100D02*
X109695878Y-93611020D01*
X99623690Y-101130010D02*
X100045925Y-101201910D01*
X99255420Y-100914300D02*
X99623690Y-101130010D01*
X100408793Y-114331920D02*
X100446293Y-114161210D01*
X100317743Y-114453860D02*
X100408793Y-114331920D01*
X100191000Y-114527060D02*
X100317743Y-114453860D01*
X100046410Y-114551460D02*
X100191000Y-114527060D01*
X99901820Y-114527060D02*
X100046410Y-114551460D01*
X99775077Y-114453860D02*
X99901820Y-114527060D01*
X99684027Y-114331920D02*
X99775077Y-114453860D01*
X99646527Y-114161210D02*
X99684027Y-114331920D01*
X110603393Y-91864200D02*
X111226407Y-91434411D01*
X109980379Y-92293988D02*
X110603393Y-91864200D01*
X109357366Y-92723777D02*
X109980379Y-92293988D01*
X108734352Y-93153566D02*
X109357366Y-92723777D01*
X108111338Y-93583350D02*
X108734352Y-93153566D01*
X107488325Y-94013140D02*
X108111338Y-93583350D01*
X106865311Y-94442930D02*
X107488325Y-94013140D01*
X106242307Y-94872650D02*
X106865311Y-94442930D01*
X106218477Y-94888250D02*
X106242307Y-94872650D01*
X106193977Y-94902650D02*
X106218477Y-94888250D01*
X106168847Y-94915950D02*
X106193977Y-94902650D01*
X106143127Y-94927950D02*
X106168847Y-94915950D01*
X106116867Y-94938750D02*
X106143127Y-94927950D01*
X106090117Y-94948750D02*
X106116867Y-94938750D01*
X106062907Y-94956750D02*
X106090117Y-94948750D01*
X106035287Y-94963750D02*
X106062907Y-94956750D01*
X105991887Y-94971750D02*
X105985687Y-94973750D01*
X105998087Y-94969750D02*
X105991887Y-94971750D01*
X106004287Y-94968750D02*
X105998087Y-94969750D01*
X106010487Y-94967750D02*
X106004287Y-94968750D01*
X106016687Y-94966750D02*
X106010487Y-94967750D01*
X106022887Y-94965750D02*
X106016687Y-94966750D01*
X106029087Y-94964750D02*
X106022887Y-94965750D01*
X106035287Y-94963750D02*
X106029087Y-94964750D01*
X105908027Y-94989290D02*
X105985827Y-94975490D01*
X105830097Y-94993290D02*
X105908027Y-94989290D01*
X105752987Y-94986290D02*
X105830097Y-94993290D01*
X105677647Y-94969990D02*
X105752987Y-94986290D01*
X105605017Y-94944090D02*
X105677647Y-94969990D01*
X105536047Y-94908990D02*
X105605017Y-94944090D01*
X105471697Y-94864890D02*
X105536047Y-94908990D01*
X105412897Y-94812090D02*
X105471697Y-94864890D01*
X105288857Y-94687990D02*
X105270897Y-94670490D01*
X105306757Y-94705490D02*
X105288857Y-94687990D01*
X105324597Y-94723090D02*
X105306757Y-94705490D01*
X105342377Y-94740790D02*
X105324597Y-94723090D01*
X105360097Y-94758490D02*
X105342377Y-94740790D01*
X105377757Y-94776290D02*
X105360097Y-94758490D01*
X105395357Y-94794190D02*
X105377757Y-94776290D01*
X105412897Y-94812090D02*
X105395357Y-94794190D01*
X105200477Y-94588530D02*
X105270897Y-94670330D01*
X105146987Y-94497730D02*
X105200477Y-94588530D01*
X105110667Y-94400330D02*
X105146987Y-94497730D01*
X105091757Y-94298750D02*
X105110667Y-94400330D01*
X105090457Y-94195420D02*
X105091757Y-94298750D01*
X105107087Y-94092780D02*
X105090457Y-94195420D01*
X105141837Y-93993280D02*
X105107087Y-94092780D01*
X105194957Y-93899280D02*
X105141837Y-93993280D01*
X105628516Y-93270800D02*
X105194957Y-93899280D01*
X106062074Y-92642318D02*
X105628516Y-93270800D01*
X106495633Y-92013837D02*
X106062074Y-92642318D01*
X106929192Y-91385356D02*
X106495633Y-92013837D01*
X107362751Y-90756874D02*
X106929192Y-91385356D01*
X107796310Y-90128393D02*
X107362751Y-90756874D01*
X108229868Y-89499912D02*
X107796310Y-90128393D01*
X108663427Y-88871431D02*
X108229868Y-89499912D01*
X108147089Y-88285320D02*
X108016408Y-88401348D01*
X108292408Y-88240210D02*
X108147089Y-88285320D01*
X108437932Y-88255520D02*
X108292408Y-88240210D01*
X108569227Y-88320770D02*
X108437932Y-88255520D01*
X108671857Y-88425473D02*
X108569227Y-88320770D01*
X108731387Y-88559142D02*
X108671857Y-88425473D01*
X108733387Y-88711290D02*
X108731387Y-88559142D01*
X108663427Y-88871431D02*
X108733387Y-88711290D01*
X107552664Y-89007901D02*
X108016407Y-88401351D01*
X107088922Y-89614451D02*
X107552664Y-89007901D01*
X106625179Y-90221001D02*
X107088922Y-89614451D01*
X106161437Y-90827551D02*
X106625179Y-90221001D01*
X105697694Y-91434100D02*
X106161437Y-90827551D01*
X105233952Y-92040650D02*
X105697694Y-91434100D01*
X104770210Y-92647200D02*
X105233952Y-92040650D01*
X104306467Y-93253750D02*
X104770210Y-92647200D01*
X104233486Y-93332950D02*
X104306466Y-93253350D01*
X104149566Y-93396750D02*
X104233486Y-93332950D01*
X104057086Y-93444250D02*
X104149566Y-93396750D01*
X103958426Y-93474950D02*
X104057086Y-93444250D01*
X103855966Y-93488350D02*
X103958426Y-93474950D01*
X103752084Y-93484350D02*
X103855966Y-93488350D01*
X103649157Y-93461550D02*
X103752084Y-93484350D01*
X103549567Y-93419850D02*
X103649157Y-93461550D01*
X103393437Y-93339750D02*
X103370977Y-93328550D01*
X103415857Y-93350950D02*
X103393437Y-93339750D01*
X103438237Y-93362250D02*
X103415857Y-93350950D01*
X103460577Y-93373650D02*
X103438237Y-93362250D01*
X103482877Y-93385050D02*
X103460577Y-93373650D01*
X103505147Y-93396550D02*
X103482877Y-93385050D01*
X103527377Y-93408150D02*
X103505147Y-93396550D01*
X103549567Y-93419850D02*
X103527377Y-93408150D01*
X103302607Y-93288911D02*
X103370977Y-93328511D01*
X103240797Y-93241311D02*
X103302607Y-93288911D01*
X103186097Y-93186611D02*
X103240797Y-93241311D01*
X103139057Y-93125531D02*
X103186097Y-93186611D01*
X103100227Y-93058931D02*
X103139057Y-93125531D01*
X103070167Y-92987621D02*
X103100227Y-93058931D01*
X103049417Y-92912431D02*
X103070167Y-92987621D01*
X103038527Y-92834171D02*
X103049417Y-92912431D01*
X103035074Y-92790071D02*
X103034527Y-92783771D01*
X103035608Y-92796371D02*
X103035074Y-92790071D01*
X103036128Y-92802671D02*
X103035608Y-92796371D01*
X103036634Y-92808971D02*
X103036128Y-92802671D01*
X103037128Y-92815271D02*
X103036634Y-92808971D01*
X103037608Y-92821571D02*
X103037128Y-92815271D01*
X103038074Y-92827871D02*
X103037608Y-92821571D01*
X103038527Y-92834171D02*
X103038074Y-92827871D01*
X103032520Y-92755071D02*
X103034420Y-92783501D01*
X103032000Y-92726631D02*
X103032520Y-92755071D01*
X103032827Y-92698231D02*
X103032000Y-92726631D01*
X103035027Y-92669921D02*
X103032827Y-92698231D01*
X103038527Y-92641741D02*
X103035027Y-92669921D01*
X103043327Y-92613741D02*
X103038527Y-92641741D01*
X103049527Y-92585971D02*
X103043327Y-92613741D01*
X103057027Y-92558481D02*
X103049527Y-92585971D01*
X103273258Y-91833147D02*
X103057027Y-92558481D01*
X103489490Y-91107814D02*
X103273258Y-91833147D01*
X103705721Y-90382480D02*
X103489490Y-91107814D01*
X103921952Y-89657146D02*
X103705721Y-90382480D01*
X104138183Y-88931812D02*
X103921952Y-89657146D01*
X104354415Y-88206479D02*
X104138183Y-88931812D01*
X104570646Y-87481145D02*
X104354415Y-88206479D01*
X104786877Y-86755811D02*
X104570646Y-87481145D01*
X104114672Y-86357913D02*
X104026252Y-86508684D01*
X104238941Y-86270073D02*
X104114672Y-86357913D01*
X104382089Y-86239653D02*
X104238941Y-86270073D01*
X104527139Y-86261143D02*
X104382089Y-86239653D01*
X104657117Y-86329013D02*
X104527139Y-86261143D01*
X104755047Y-86437759D02*
X104657117Y-86329013D01*
X104803957Y-86581864D02*
X104755047Y-86437759D01*
X104786877Y-86755811D02*
X104803957Y-86581864D01*
X103858957Y-86983755D02*
X104026257Y-86508681D01*
X103691657Y-87458829D02*
X103858957Y-86983755D01*
X103524357Y-87933902D02*
X103691657Y-87458829D01*
X103357057Y-88408976D02*
X103524357Y-87933902D01*
X103189757Y-88884050D02*
X103357057Y-88408976D01*
X103022457Y-89359124D02*
X103189757Y-88884050D01*
X102855157Y-89834197D02*
X103022457Y-89359124D01*
X102687856Y-90309232D02*
X102855157Y-89834197D01*
X102624056Y-90438932D02*
X102687856Y-90309232D01*
X102535336Y-90545341D02*
X102624056Y-90438932D01*
X102426990Y-90626771D02*
X102535336Y-90545341D01*
X102304307Y-90681541D02*
X102426990Y-90626771D01*
X102172577Y-90707951D02*
X102304307Y-90681541D01*
X102037090Y-90704351D02*
X102172577Y-90707951D01*
X101903137Y-90668991D02*
X102037090Y-90704351D01*
X101776007Y-90600211D02*
X101903137Y-90668991D01*
X101063834Y-90229241D02*
X100954709Y-90192251D01*
X101171340Y-90270341D02*
X101063834Y-90229241D01*
X101277113Y-90315501D02*
X101171340Y-90270341D01*
X101381040Y-90364661D02*
X101277113Y-90315501D01*
X101483007Y-90417771D02*
X101381040Y-90364661D01*
X101582897Y-90474771D02*
X101483007Y-90417771D01*
X101680607Y-90535601D02*
X101582897Y-90474771D01*
X101776007Y-90600211D02*
X101680607Y-90535601D01*
X100866997Y-90156551D02*
X100954757Y-90192251D01*
X100787367Y-90108481D02*
X100866997Y-90156551D01*
X100716877Y-90049371D02*
X100787367Y-90108481D01*
X100656527Y-89980561D02*
X100716877Y-90049371D01*
X100607317Y-89903391D02*
X100656527Y-89980561D01*
X100570257Y-89819191D02*
X100607317Y-89903391D01*
X100546347Y-89729301D02*
X100570257Y-89819191D01*
X100536607Y-89635061D02*
X100546347Y-89729301D01*
X100525317Y-89173386D02*
X100536607Y-89635061D01*
X100514027Y-88711711D02*
X100525317Y-89173386D01*
X100502737Y-88250036D02*
X100514027Y-88711711D01*
X100491447Y-87788361D02*
X100502737Y-88250036D01*
X100480157Y-87326686D02*
X100491447Y-87788361D01*
X100468867Y-86865011D02*
X100480157Y-87326686D01*
X100457577Y-86403336D02*
X100468867Y-86865011D01*
X100446287Y-85941661D02*
X100457577Y-86403336D01*
X99684021Y-85770947D02*
X99646521Y-85941661D01*
X99775071Y-85649009D02*
X99684021Y-85770947D01*
X99901814Y-85575849D02*
X99775071Y-85649009D01*
X100046404Y-85551459D02*
X99901814Y-85575849D01*
X100190994Y-85575849D02*
X100046404Y-85551459D01*
X100317737Y-85649009D02*
X100190994Y-85575849D01*
X100408787Y-85770947D02*
X100317737Y-85649009D01*
X100446287Y-85941661D02*
X100408787Y-85770947D01*
X99635287Y-86403336D02*
X99646577Y-85941661D01*
X99623997Y-86865011D02*
X99635287Y-86403336D01*
X99612707Y-87326686D02*
X99623997Y-86865011D01*
X99601417Y-87788361D02*
X99612707Y-87326686D01*
X99590127Y-88250036D02*
X99601417Y-87788361D01*
X99578837Y-88711711D02*
X99590127Y-88250036D01*
X99567547Y-89173386D02*
X99578837Y-88711711D01*
X99556307Y-89635051D02*
X99567547Y-89173386D01*
X99546507Y-89729291D02*
X99556307Y-89635051D01*
X99522597Y-89819181D02*
X99546507Y-89729291D01*
X99485537Y-89903381D02*
X99522597Y-89819181D01*
X99436327Y-89980551D02*
X99485537Y-89903381D01*
X99375977Y-90049361D02*
X99436327Y-89980551D01*
X99305487Y-90108471D02*
X99375977Y-90049361D01*
X99225857Y-90156541D02*
X99305487Y-90108471D01*
X99138097Y-90192241D02*
X99225857Y-90156541D01*
X98412216Y-90535591D02*
X98316816Y-90600201D01*
X98509916Y-90474761D02*
X98412216Y-90535591D01*
X98609806Y-90417761D02*
X98509916Y-90474761D01*
X98711771Y-90364651D02*
X98609806Y-90417761D01*
X98815697Y-90315491D02*
X98711771Y-90364651D01*
X98921469Y-90270331D02*
X98815697Y-90315491D01*
X99028974Y-90229231D02*
X98921469Y-90270331D01*
X99138097Y-90192241D02*
X99028974Y-90229231D01*
X98189676Y-90669031D02*
X98316806Y-90600251D01*
X98055722Y-90704391D02*
X98189676Y-90669031D01*
X97920235Y-90707991D02*
X98055722Y-90704391D01*
X97788505Y-90681581D02*
X97920235Y-90707991D01*
X97665821Y-90626811D02*
X97788505Y-90681581D01*
X97557475Y-90545381D02*
X97665821Y-90626811D01*
X97468755Y-90438971D02*
X97557475Y-90545381D01*
X97404955Y-90309271D02*
X97468755Y-90438971D01*
X97237655Y-89834197D02*
X97404955Y-90309271D01*
X97070355Y-89359124D02*
X97237655Y-89834197D01*
X96903055Y-88884050D02*
X97070355Y-89359124D01*
X96735755Y-88408976D02*
X96903055Y-88884050D01*
X96568455Y-87933902D02*
X96735755Y-88408976D01*
X96401155Y-87458829D02*
X96568455Y-87933902D01*
X96233855Y-86983755D02*
X96401155Y-87458829D01*
X96066555Y-86508681D02*
X96233855Y-86983755D01*
X95288863Y-86581861D02*
X95305943Y-86755802D01*
X95337773Y-86437762D02*
X95288863Y-86581861D01*
X95435703Y-86329020D02*
X95337773Y-86437762D01*
X95565678Y-86261150D02*
X95435703Y-86329020D01*
X95710723Y-86239670D02*
X95565678Y-86261150D01*
X95853867Y-86270090D02*
X95710723Y-86239670D01*
X95978135Y-86357920D02*
X95853867Y-86270090D01*
X96066555Y-86508681D02*
X95978135Y-86357920D01*
X95522167Y-87481145D02*
X95305936Y-86755811D01*
X95738399Y-88206479D02*
X95522167Y-87481145D01*
X95954630Y-88931812D02*
X95738399Y-88206479D01*
X96170861Y-89657146D02*
X95954630Y-88931812D01*
X96387093Y-90382480D02*
X96170861Y-89657146D01*
X96603324Y-91107814D02*
X96387093Y-90382480D01*
X96819556Y-91833147D02*
X96603324Y-91107814D01*
X97035789Y-92558471D02*
X96819556Y-91833147D01*
X97043289Y-92585961D02*
X97035789Y-92558471D01*
X97049489Y-92613731D02*
X97043289Y-92585961D01*
X97054289Y-92641731D02*
X97049489Y-92613731D01*
X97057789Y-92669911D02*
X97054289Y-92641731D01*
X97059989Y-92698221D02*
X97057789Y-92669911D01*
X97060816Y-92726621D02*
X97059989Y-92698221D01*
X97060296Y-92755061D02*
X97060816Y-92726621D01*
X97058396Y-92783491D02*
X97060296Y-92755061D01*
X97054761Y-92827591D02*
X97054296Y-92833891D01*
X97055240Y-92821291D02*
X97054761Y-92827591D01*
X97055733Y-92814991D02*
X97055240Y-92821291D01*
X97056239Y-92808691D02*
X97055733Y-92814991D01*
X97056758Y-92802391D02*
X97056239Y-92808691D01*
X97057290Y-92796091D02*
X97056758Y-92802391D01*
X97057836Y-92789791D02*
X97057290Y-92796091D01*
X97058396Y-92783491D02*
X97057836Y-92789791D01*
X97043395Y-92912470D02*
X97054285Y-92834210D01*
X97022645Y-92987660D02*
X97043395Y-92912470D01*
X96992575Y-93058970D02*
X97022645Y-92987660D01*
X96953745Y-93125570D02*
X96992575Y-93058970D01*
X96906705Y-93186650D02*
X96953745Y-93125570D01*
X96852005Y-93241350D02*
X96906705Y-93186650D01*
X96790195Y-93288950D02*
X96852005Y-93241350D01*
X96721825Y-93328550D02*
X96790195Y-93288950D01*
X96565445Y-93408150D02*
X96543255Y-93419850D01*
X96587675Y-93396550D02*
X96565445Y-93408150D01*
X96609935Y-93385050D02*
X96587675Y-93396550D01*
X96632235Y-93373650D02*
X96609935Y-93385050D01*
X96654575Y-93362250D02*
X96632235Y-93373650D01*
X96676955Y-93350950D02*
X96654575Y-93362250D01*
X96699375Y-93339750D02*
X96676955Y-93350950D01*
X96721825Y-93328550D02*
X96699375Y-93339750D01*
X96443655Y-93461950D02*
X96543245Y-93420250D01*
X96340728Y-93484750D02*
X96443655Y-93461950D01*
X96236845Y-93488750D02*
X96340728Y-93484750D01*
X96134385Y-93475350D02*
X96236845Y-93488750D01*
X96035725Y-93444650D02*
X96134385Y-93475350D01*
X95943245Y-93397150D02*
X96035725Y-93444650D01*
X95859325Y-93333350D02*
X95943245Y-93397150D01*
X95786345Y-93253750D02*
X95859325Y-93333350D01*
X95322602Y-92647200D02*
X95786345Y-93253750D01*
X94858859Y-92040650D02*
X95322602Y-92647200D01*
X94395116Y-91434100D02*
X94858859Y-92040650D01*
X93931373Y-90827551D02*
X94395116Y-91434100D01*
X93467629Y-90221001D02*
X93931373Y-90827551D01*
X93003886Y-89614451D02*
X93467629Y-90221001D01*
X92540143Y-89007901D02*
X93003886Y-89614451D01*
X92076400Y-88401351D02*
X92540143Y-89007901D01*
X91359396Y-88711287D02*
X91429376Y-88871433D01*
X91361396Y-88559131D02*
X91359396Y-88711287D01*
X91420926Y-88425454D02*
X91361396Y-88559131D01*
X91523562Y-88320745D02*
X91420926Y-88425454D01*
X91654863Y-88255495D02*
X91523562Y-88320745D01*
X91800395Y-88240185D02*
X91654863Y-88255495D01*
X91945719Y-88285305D02*
X91800395Y-88240185D01*
X92076400Y-88401351D02*
X91945719Y-88285305D01*
X91862938Y-89499912D02*
X91429378Y-88871431D01*
X92296497Y-90128393D02*
X91862938Y-89499912D01*
X92730057Y-90756874D02*
X92296497Y-90128393D01*
X93163617Y-91385356D02*
X92730057Y-90756874D01*
X93597177Y-92013837D02*
X93163617Y-91385356D01*
X94030736Y-92642318D02*
X93597177Y-92013837D01*
X94464296Y-93270800D02*
X94030736Y-92642318D01*
X94897881Y-93899310D02*
X94464296Y-93270800D01*
X94951001Y-93993310D02*
X94897881Y-93899310D01*
X94985751Y-94092810D02*
X94951001Y-93993310D01*
X95002381Y-94195440D02*
X94985751Y-94092810D01*
X95001081Y-94298770D02*
X95002381Y-94195440D01*
X94982171Y-94400360D02*
X95001081Y-94298770D01*
X94945851Y-94497760D02*
X94982171Y-94400360D01*
X94892361Y-94588660D02*
X94945851Y-94497760D01*
X94821931Y-94670460D02*
X94892361Y-94588660D01*
X94697471Y-94794160D02*
X94679931Y-94812060D01*
X94715071Y-94776260D02*
X94697471Y-94794160D01*
X94732731Y-94758460D02*
X94715071Y-94776260D01*
X94750451Y-94740760D02*
X94732731Y-94758460D01*
X94768231Y-94723060D02*
X94750451Y-94740760D01*
X94786071Y-94705460D02*
X94768231Y-94723060D01*
X94803971Y-94687960D02*
X94786071Y-94705460D01*
X94821931Y-94670460D02*
X94803971Y-94687960D01*
X94621128Y-94864900D02*
X94679928Y-94812100D01*
X94556768Y-94909000D02*
X94621128Y-94864900D01*
X94487798Y-94944100D02*
X94556768Y-94909000D01*
X94415168Y-94970000D02*
X94487798Y-94944100D01*
X94339828Y-94986300D02*
X94415168Y-94970000D01*
X94262718Y-94993300D02*
X94339828Y-94986300D01*
X94184788Y-94989300D02*
X94262718Y-94993300D01*
X94106998Y-94975500D02*
X94184788Y-94989300D01*
X94063598Y-94966500D02*
X94057398Y-94965500D01*
X94069798Y-94967500D02*
X94063598Y-94966500D01*
X94075998Y-94968500D02*
X94069798Y-94967500D01*
X94082198Y-94969500D02*
X94075998Y-94968500D01*
X94088398Y-94970500D02*
X94082198Y-94969500D01*
X94094598Y-94971500D02*
X94088398Y-94970500D01*
X94100798Y-94973500D02*
X94094598Y-94971500D01*
X94106998Y-94975500D02*
X94100798Y-94973500D01*
X94029896Y-94956720D02*
X94057506Y-94963720D01*
X94002696Y-94948720D02*
X94029896Y-94956720D01*
X93975946Y-94938720D02*
X94002696Y-94948720D01*
X93949686Y-94927920D02*
X93975946Y-94938720D01*
X93923976Y-94915920D02*
X93949686Y-94927920D01*
X93898846Y-94902720D02*
X93923976Y-94915920D01*
X93874346Y-94888320D02*
X93898846Y-94902720D01*
X93850516Y-94872720D02*
X93874346Y-94888320D01*
X93227502Y-94442930D02*
X93850516Y-94872720D01*
X92604488Y-94013140D02*
X93227502Y-94442930D01*
X91981474Y-93583350D02*
X92604488Y-94013140D01*
X91358460Y-93153566D02*
X91981474Y-93583350D01*
X90735446Y-92723777D02*
X91358460Y-93153566D01*
X90112432Y-92293988D02*
X90735446Y-92723777D01*
X89489418Y-91864200D02*
X90112432Y-92293988D01*
X88866404Y-91434411D02*
X89489418Y-91864200D01*
X88280243Y-91950770D02*
X88396321Y-92081453D01*
X88235103Y-91805436D02*
X88280243Y-91950770D01*
X88250403Y-91659891D02*
X88235103Y-91805436D01*
X88315663Y-91528576D02*
X88250403Y-91659891D01*
X88420385Y-91425931D02*
X88315663Y-91528576D01*
X88554077Y-91366401D02*
X88420385Y-91425931D01*
X88706247Y-91364401D02*
X88554077Y-91366401D01*
X88866404Y-91434411D02*
X88706247Y-91364401D01*
X88796439Y-92387348D02*
X88396316Y-92081431D01*
X89196563Y-92693266D02*
X88796439Y-92387348D01*
X89596686Y-92999183D02*
X89196563Y-92693266D01*
X89996809Y-93305100D02*
X89596686Y-92999183D01*
X90396933Y-93611020D02*
X89996809Y-93305100D01*
X90797056Y-93916940D02*
X90396933Y-93611020D01*
X91197180Y-94222850D02*
X90797056Y-93916940D01*
X91597332Y-94528820D02*
X91197180Y-94222850D01*
X91700967Y-94629580D02*
X91597332Y-94528820D01*
X91774747Y-94746840D02*
X91700967Y-94629580D01*
X91818707Y-94875050D02*
X91774747Y-94746840D01*
X91832877Y-95008650D02*
X91818707Y-94875050D01*
X91817287Y-95142100D02*
X91832877Y-95008650D01*
X91771967Y-95269830D02*
X91817287Y-95142100D01*
X91696937Y-95386300D02*
X91771967Y-95269830D01*
X91592234Y-95485900D02*
X91696937Y-95386300D01*
X91019334Y-96048500D02*
X90950434Y-96140900D01*
X91091644Y-95959000D02*
X91019334Y-96048500D01*
X91167284Y-95872400D02*
X91091644Y-95959000D01*
X91246154Y-95788800D02*
X91167284Y-95872400D01*
X91328174Y-95708200D02*
X91246154Y-95788800D01*
X91413254Y-95630800D02*
X91328174Y-95708200D01*
X91501304Y-95556700D02*
X91413254Y-95630800D01*
X91592234Y-95485900D02*
X91501304Y-95556700D01*
X90889380Y-96213540D02*
X90950450Y-96141140D01*
X90819050Y-96274440D02*
X90889380Y-96213540D01*
X90741050Y-96323240D02*
X90819050Y-96274440D01*
X90656960Y-96359340D02*
X90741050Y-96323240D01*
X90568360Y-96382240D02*
X90656960Y-96359340D01*
X90476830Y-96391240D02*
X90568360Y-96382240D01*
X90383950Y-96386240D02*
X90476830Y-96391240D01*
X90291310Y-96366440D02*
X90383950Y-96386240D01*
X89848744Y-96234510D02*
X90291310Y-96366440D01*
X89406179Y-96102570D02*
X89848744Y-96234510D01*
X88963613Y-95970640D02*
X89406179Y-96102570D01*
X88521047Y-95838710D02*
X88963613Y-95970640D01*
X88078482Y-95706770D02*
X88521047Y-95838710D01*
X87635916Y-95574840D02*
X88078482Y-95706770D01*
X87193351Y-95442900D02*
X87635916Y-95574840D01*
X86750785Y-95310970D02*
X87193351Y-95442900D01*
X86352932Y-95983130D02*
X86503641Y-96071530D01*
X86265132Y-95858870D02*
X86352932Y-95983130D01*
X86234732Y-95715740D02*
X86265132Y-95858870D01*
X86256222Y-95570720D02*
X86234732Y-95715740D01*
X86324082Y-95440770D02*
X86256222Y-95570720D01*
X86432804Y-95342870D02*
X86324082Y-95440770D01*
X86576876Y-95293970D02*
X86432804Y-95342870D01*
X86750785Y-95310970D02*
X86576876Y-95293970D01*
X86939235Y-96224980D02*
X86503643Y-96071580D01*
X87374828Y-96378380D02*
X86939235Y-96224980D01*
X87810421Y-96531770D02*
X87374828Y-96378380D01*
X88246013Y-96685170D02*
X87810421Y-96531770D01*
X88681606Y-96838570D02*
X88246013Y-96685170D01*
X89117198Y-96991970D02*
X88681606Y-96838570D01*
X89552791Y-97145360D02*
X89117198Y-96991970D01*
X89988383Y-97298760D02*
X89552791Y-97145360D01*
X90075033Y-97337030D02*
X89988423Y-97298630D01*
X90153133Y-97387530D02*
X90075033Y-97337030D01*
X90221753Y-97448830D02*
X90153133Y-97387530D01*
X90279943Y-97519530D02*
X90221753Y-97448830D01*
X90326733Y-97598230D02*
X90279943Y-97519530D01*
X90361163Y-97683530D02*
X90326733Y-97598230D01*
X90382273Y-97774130D02*
X90361163Y-97683530D01*
X90389073Y-97868630D02*
X90382273Y-97774130D01*
X90491383Y-98665090D02*
X90523353Y-98775790D01*
X90463723Y-98553370D02*
X90491383Y-98665090D01*
X90440383Y-98440760D02*
X90463723Y-98553370D01*
X90421383Y-98327370D02*
X90440383Y-98440760D01*
X90406743Y-98213340D02*
X90421383Y-98327370D01*
X90396473Y-98098790D02*
X90406743Y-98213340D01*
X90390573Y-97983840D02*
X90396473Y-98098790D01*
X90389073Y-97868630D02*
X90390573Y-97983840D01*
X90549445Y-98917880D02*
X90523315Y-98775720D01*
X90541645Y-99056210D02*
X90549445Y-98917880D01*
X90503235Y-99186190D02*
X90541645Y-99056210D01*
X90437415Y-99303310D02*
X90503235Y-99186190D01*
X90347415Y-99403110D02*
X90437415Y-99303310D01*
X90236487Y-99481010D02*
X90347415Y-99403110D01*
X90107868Y-99532510D02*
X90236487Y-99481010D01*
X89964798Y-99553160D02*
X90107868Y-99532510D01*
X89461277Y-99565460D02*
X89964798Y-99553160D01*
X88957757Y-99577760D02*
X89461277Y-99565460D01*
X88454236Y-99590060D02*
X88957757Y-99577760D01*
X87950715Y-99602360D02*
X88454236Y-99590060D01*
X87447195Y-99614660D02*
X87950715Y-99602360D01*
X86943674Y-99626960D02*
X87447195Y-99614660D01*
X86440154Y-99639260D02*
X86943674Y-99626960D01*
X85936633Y-99651560D02*
X86440154Y-99639260D01*
X85765919Y-100413720D02*
X85936633Y-100451220D01*
X85643981Y-100322720D02*
X85765919Y-100413720D01*
X85570821Y-100195980D02*
X85643981Y-100322720D01*
X85546431Y-100051390D02*
X85570821Y-100195980D01*
X85570821Y-99906800D02*
X85546431Y-100051390D01*
X85643981Y-99780060D02*
X85570821Y-99906800D01*
X85765919Y-99689060D02*
X85643981Y-99780060D01*
X85936633Y-99651560D02*
X85765919Y-99689060D01*
X86693285Y-100469750D02*
X85936633Y-100451250D01*
X87449937Y-100488250D02*
X86693285Y-100469750D01*
X88206589Y-100506750D02*
X87449937Y-100488250D01*
X88963242Y-100525250D02*
X88206589Y-100506750D01*
X89719894Y-100543750D02*
X88963242Y-100525250D01*
X90476546Y-100562250D02*
X89719894Y-100543750D01*
X91233198Y-100580750D02*
X90476546Y-100562250D01*
X91989850Y-100599250D02*
X91233198Y-100580750D01*
X92018307Y-100600680D02*
X91989847Y-100599680D01*
X92046617Y-100603680D02*
X92018307Y-100600680D01*
X92074737Y-100607680D02*
X92046617Y-100603680D01*
X92102617Y-100612680D02*
X92074737Y-100607680D01*
X92130217Y-100619680D02*
X92102617Y-100612680D01*
X92157477Y-100627680D02*
X92130217Y-100619680D01*
X92184367Y-100636680D02*
X92157477Y-100627680D01*
X92210827Y-100647280D02*
X92184367Y-100636680D01*
X92252027Y-100661280D02*
X92257927Y-100663280D01*
X92246127Y-100659280D02*
X92252027Y-100661280D01*
X92240227Y-100657280D02*
X92246127Y-100659280D01*
X92234327Y-100655280D02*
X92240227Y-100657280D01*
X92228427Y-100653280D02*
X92234327Y-100655280D01*
X92222527Y-100651280D02*
X92228427Y-100653280D01*
X92216627Y-100649280D02*
X92222527Y-100651280D01*
X92210827Y-100647280D02*
X92216627Y-100649280D01*
X92328822Y-100701420D02*
X92257752Y-100666920D01*
X92393922Y-100744420D02*
X92328822Y-100701420D01*
X92452452Y-100795020D02*
X92393922Y-100744420D01*
X92503802Y-100852520D02*
X92452452Y-100795020D01*
X92547362Y-100916120D02*
X92503802Y-100852520D01*
X92582522Y-100985020D02*
X92547362Y-100916120D01*
X92608672Y-101058520D02*
X92582522Y-100985020D01*
X92625212Y-101135820D02*
X92608672Y-101058520D01*
X92652612Y-101309120D02*
X92656812Y-101333820D01*
X92648412Y-101284420D02*
X92652612Y-101309120D01*
X92644312Y-101259720D02*
X92648412Y-101284420D01*
X92640312Y-101235020D02*
X92644312Y-101259720D01*
X92636412Y-101210220D02*
X92640312Y-101235020D01*
X92632612Y-101185420D02*
X92636412Y-101210220D01*
X92628912Y-101160620D02*
X92632612Y-101185420D01*
X92625212Y-101135820D02*
X92628912Y-101160620D01*
X92665733Y-101441490D02*
X92656833Y-101333890D01*
X92655613Y-101546430D02*
X92665733Y-101441490D01*
X92627733Y-101646590D02*
X92655613Y-101546430D01*
X92583323Y-101739890D02*
X92627733Y-101646590D01*
X92523613Y-101824190D02*
X92583323Y-101739890D01*
X92449833Y-101897490D02*
X92523613Y-101824190D01*
X92363213Y-101957590D02*
X92449833Y-101897490D01*
X92264993Y-102002390D02*
X92363213Y-101957590D01*
X91544824Y-102256000D02*
X92264993Y-102002390D01*
X90824656Y-102509620D02*
X91544824Y-102256000D01*
X90104487Y-102763230D02*
X90824656Y-102509620D01*
X89384318Y-103016840D02*
X90104487Y-102763230D01*
X88664149Y-103270450D02*
X89384318Y-103016840D01*
X87943980Y-103524070D02*
X88664149Y-103270450D01*
X87223812Y-103777680D02*
X87943980Y-103524070D01*
X86503643Y-104031290D02*
X87223812Y-103777680D01*
X86576878Y-104808850D02*
X86750787Y-104791850D01*
X86432806Y-104759950D02*
X86576878Y-104808850D01*
X86324084Y-104662050D02*
X86432806Y-104759950D01*
X86256224Y-104532100D02*
X86324084Y-104662050D01*
X86234734Y-104387080D02*
X86256224Y-104532100D01*
X86265134Y-104243950D02*
X86234734Y-104387080D01*
X86352934Y-104119690D02*
X86265134Y-104243950D01*
X86503643Y-104031290D02*
X86352934Y-104119690D01*
X87482483Y-104573770D02*
X86750785Y-104791900D01*
X88214180Y-104355640D02*
X87482483Y-104573770D01*
X88945878Y-104137510D02*
X88214180Y-104355640D01*
X89677575Y-103919390D02*
X88945878Y-104137510D01*
X90409273Y-103701260D02*
X89677575Y-103919390D01*
X91140971Y-103483130D02*
X90409273Y-103701260D01*
X91872668Y-103265000D02*
X91140971Y-103483130D01*
X92604366Y-103046870D02*
X91872668Y-103265000D01*
X92710172Y-103024990D02*
X92604361Y-103046490D01*
X92815570Y-103022990D02*
X92710172Y-103024990D01*
X92918323Y-103038890D02*
X92815570Y-103022990D01*
X93016203Y-103071990D02*
X92918323Y-103038890D01*
X93106973Y-103121390D02*
X93016203Y-103071990D01*
X93188403Y-103186090D02*
X93106973Y-103121390D01*
X93258273Y-103265090D02*
X93188403Y-103186090D01*
X93314343Y-103357390D02*
X93258273Y-103265090D01*
X93393533Y-103513990D02*
X93405143Y-103536190D01*
X93381993Y-103491690D02*
X93393533Y-103513990D01*
X93370533Y-103469390D02*
X93381993Y-103491690D01*
X93359143Y-103447090D02*
X93370533Y-103469390D01*
X93347833Y-103424690D02*
X93359143Y-103447090D01*
X93336593Y-103402290D02*
X93347833Y-103424690D01*
X93325433Y-103379890D02*
X93336593Y-103402290D01*
X93314343Y-103357390D02*
X93325433Y-103379890D01*
X93437097Y-103608500D02*
X93405057Y-103536300D01*
X93459137Y-103683300D02*
X93437097Y-103608500D01*
X93471217Y-103759700D02*
X93459137Y-103683300D01*
X93473417Y-103836800D02*
X93471217Y-103759700D01*
X93465717Y-103913500D02*
X93473417Y-103836800D01*
X93448127Y-103988900D02*
X93465717Y-103913500D01*
X93420717Y-104061900D02*
X93448127Y-103988900D01*
X93383527Y-104131600D02*
X93420717Y-104061900D01*
X93360427Y-104166600D02*
X93357127Y-104171600D01*
X93363727Y-104161600D02*
X93360427Y-104166600D01*
X93367027Y-104156600D02*
X93363727Y-104161600D01*
X93370327Y-104151600D02*
X93367027Y-104156600D01*
X93373627Y-104146600D02*
X93370327Y-104151600D01*
X93376927Y-104141600D02*
X93373627Y-104146600D01*
X93380227Y-104136600D02*
X93376927Y-104141600D01*
X93383527Y-104131600D02*
X93380227Y-104136600D01*
X93341868Y-104199270D02*
X93357068Y-104175170D01*
X93325578Y-104222570D02*
X93341868Y-104199270D01*
X93308218Y-104245070D02*
X93325578Y-104222570D01*
X93289818Y-104266670D02*
X93308218Y-104245070D01*
X93270418Y-104287370D02*
X93289818Y-104266670D01*
X93250048Y-104307170D02*
X93270418Y-104287370D01*
X93228738Y-104325970D02*
X93250048Y-104307170D01*
X93206518Y-104343770D02*
X93228738Y-104325970D01*
X92605243Y-104803480D02*
X93206518Y-104343770D01*
X92003967Y-105263190D02*
X92605243Y-104803480D01*
X91402692Y-105722900D02*
X92003967Y-105263190D01*
X90801417Y-106182610D02*
X91402692Y-105722900D01*
X90200142Y-106642310D02*
X90801417Y-106182610D01*
X89598866Y-107102020D02*
X90200142Y-106642310D01*
X88997591Y-107561730D02*
X89598866Y-107102020D01*
X88396316Y-108021440D02*
X88997591Y-107561730D01*
X88706242Y-108738460D02*
X88866399Y-108668460D01*
X88554072Y-108736460D02*
X88706242Y-108738460D01*
X88420380Y-108676960D02*
X88554072Y-108736460D01*
X88315658Y-108574320D02*
X88420380Y-108676960D01*
X88250398Y-108443000D02*
X88315658Y-108574320D01*
X88235098Y-108297460D02*
X88250398Y-108443000D01*
X88280238Y-108152120D02*
X88235098Y-108297460D01*
X88396316Y-108021440D02*
X88280238Y-108152120D01*
X89280994Y-108382450D02*
X88866404Y-108668460D01*
X89695584Y-108096450D02*
X89280994Y-108382450D01*
X90110174Y-107810440D02*
X89695584Y-108096450D01*
X90524764Y-107524440D02*
X90110174Y-107810440D01*
X90939353Y-107238430D02*
X90524764Y-107524440D01*
X91353943Y-106952420D02*
X90939353Y-107238430D01*
X91768533Y-106666420D02*
X91353943Y-106952420D01*
X92183123Y-106380410D02*
X91768533Y-106666420D01*
X92310974Y-106312690D02*
X92183122Y-106380090D01*
X92445296Y-106278790D02*
X92310974Y-106312690D01*
X92580814Y-106276790D02*
X92445296Y-106278790D01*
X92712258Y-106304590D02*
X92580814Y-106276790D01*
X92834354Y-106360690D02*
X92712258Y-106304590D01*
X92941832Y-106443290D02*
X92834354Y-106360690D01*
X93029422Y-106550630D02*
X92941832Y-106443290D01*
X93091842Y-106681000D02*
X93029422Y-106550630D01*
X93449942Y-107399680D02*
X93516482Y-107493780D01*
X93387132Y-107303280D02*
X93449942Y-107399680D01*
X93221652Y-107000820D02*
X93272922Y-107103720D01*
X93174342Y-106895990D02*
X93221652Y-107000820D01*
X93131052Y-106789350D02*
X93174342Y-106895990D01*
X93091842Y-106681000D02*
X93131052Y-106789350D01*
X93566530Y-107574260D02*
X93516510Y-107493760D01*
X93602690Y-107659960D02*
X93566530Y-107574260D01*
X93624980Y-107749160D02*
X93602690Y-107659960D01*
X98077802Y-107883040D02*
X97826393Y-108596870D01*
X98087902Y-107856440D02*
X98077802Y-107883040D01*
X98099232Y-107830340D02*
X98087902Y-107856440D01*
X98111772Y-107804840D02*
X98099232Y-107830340D01*
X98125502Y-107779940D02*
X98111772Y-107804840D01*
X98140392Y-107755740D02*
X98125502Y-107779940D01*
X98156412Y-107732240D02*
X98140392Y-107755740D01*
X98173542Y-107709540D02*
X98156412Y-107732240D01*
X98191762Y-107687640D02*
X98173542Y-107709540D01*
X98220762Y-107652640D02*
X98224862Y-107647640D01*
X98216662Y-107657640D02*
X98220762Y-107652640D01*
X98212562Y-107662640D02*
X98216662Y-107657640D01*
X98208462Y-107667640D02*
X98212562Y-107662640D01*
X98204362Y-107672640D02*
X98208462Y-107667640D01*
X98200162Y-107677640D02*
X98204362Y-107672640D01*
X98195962Y-107682640D02*
X98200162Y-107677640D01*
X98191762Y-107687640D02*
X98195962Y-107682640D01*
X98279697Y-107592100D02*
X98224887Y-107649000D01*
X98340687Y-107543500D02*
X98279697Y-107592100D01*
X98406927Y-107503500D02*
X98340687Y-107543500D01*
X98477487Y-107472400D02*
X98406927Y-107503500D01*
X98551447Y-107450600D02*
X98477487Y-107472400D01*
X98627877Y-107438500D02*
X98551447Y-107450600D01*
X98705847Y-107436500D02*
X98627877Y-107438500D01*
X98784437Y-107444500D02*
X98705847Y-107436500D01*
X98957777Y-107472500D02*
X98982587Y-107476500D01*
X98932977Y-107468500D02*
X98957777Y-107472500D01*
X98908187Y-107464500D02*
X98932977Y-107468500D01*
X98883407Y-107460500D02*
X98908187Y-107464500D01*
X98858647Y-107456500D02*
X98883407Y-107460500D01*
X98833897Y-107452500D02*
X98858647Y-107456500D01*
X98809157Y-107448500D02*
X98833897Y-107452500D01*
X98784437Y-107444500D02*
X98809157Y-107448500D01*
X99087657Y-107500360D02*
X98982579Y-107475560D01*
X99184327Y-107542460D02*
X99087657Y-107500360D01*
X99270977Y-107599960D02*
X99184327Y-107542460D01*
X99345987Y-107671060D02*
X99270977Y-107599960D01*
X99407737Y-107753860D02*
X99345987Y-107671060D01*
X99454617Y-107846660D02*
X99407737Y-107753860D01*
X99485007Y-107947610D02*
X99454617Y-107846660D01*
X99497297Y-108054880D02*
X99485007Y-107947610D01*
X99515947Y-108818170D02*
X99497297Y-108054880D01*
X99534607Y-109581460D02*
X99515947Y-108818170D01*
X99553257Y-110344750D02*
X99534607Y-109581460D01*
X99571907Y-111108050D02*
X99553257Y-110344750D01*
X99590567Y-111871340D02*
X99571907Y-111108050D01*
X99609217Y-112634630D02*
X99590567Y-111871340D01*
X99627867Y-113397920D02*
X99609217Y-112634630D01*
X99646527Y-114161210D02*
X99627867Y-113397920D01*
X100464967Y-113397920D02*
X100446317Y-114161210D01*
X100483617Y-112634630D02*
X100464967Y-113397920D01*
X100502267Y-111871340D02*
X100483617Y-112634630D01*
X100520917Y-111108050D02*
X100502267Y-111871340D01*
X100539567Y-110344750D02*
X100520917Y-111108050D01*
X100558217Y-109581460D02*
X100539567Y-110344750D01*
X100576867Y-108818170D02*
X100558217Y-109581460D01*
X100595517Y-108054920D02*
X100576867Y-108818170D01*
X100607797Y-107947650D02*
X100595517Y-108054920D01*
X100638187Y-107846700D02*
X100607797Y-107947650D01*
X100685067Y-107753900D02*
X100638187Y-107846700D01*
X100746827Y-107671100D02*
X100685067Y-107753900D01*
X100821837Y-107600000D02*
X100746827Y-107671100D01*
X100908487Y-107542500D02*
X100821837Y-107600000D01*
X101005157Y-107500400D02*
X100908487Y-107542500D01*
X101110237Y-107475600D02*
X101005157Y-107500400D01*
X101283667Y-107447600D02*
X101308387Y-107443600D01*
X111777168Y-108574310D02*
X111842428Y-108442990D01*
X111672441Y-108676960D02*
X111777168Y-108574310D01*
X111538743Y-108736460D02*
X111672441Y-108676960D01*
X111386568Y-108738460D02*
X111538743Y-108736460D01*
X111226407Y-108668460D02*
X111386568Y-108738460D01*
X104803997Y-113521020D02*
X104786887Y-113347050D01*
X104755097Y-113665140D02*
X104803997Y-113521020D01*
X104657157Y-113773900D02*
X104755097Y-113665140D01*
X104527167Y-113841800D02*
X104657157Y-113773900D01*
X104382102Y-113863300D02*
X104527167Y-113841800D01*
X104238942Y-113832900D02*
X104382102Y-113863300D01*
X104114667Y-113745000D02*
X104238942Y-113832900D01*
X104026257Y-113594200D02*
X104114667Y-113745000D01*
X104642983Y-112864380D02*
X104786877Y-113347060D01*
X104499089Y-112381700D02*
X104642983Y-112864380D01*
X104355196Y-111899020D02*
X104499089Y-112381700D01*
X104211302Y-111416340D02*
X104355196Y-111899020D01*
X104067408Y-110933660D02*
X104211302Y-111416340D01*
X103923514Y-110450980D02*
X104067408Y-110933660D01*
X103779621Y-109968300D02*
X103923514Y-110450980D01*
X103635757Y-109485620D02*
X103779621Y-109968300D01*
X106750947Y-104199120D02*
X106767247Y-104222420D01*
X106735747Y-104175020D02*
X106750947Y-104199120D01*
X106712647Y-104140020D02*
X106709247Y-104135020D01*
X106715947Y-104145020D02*
X106712647Y-104140020D01*
X108401190Y-110851310D02*
X108663427Y-111231440D01*
X108138952Y-110471170D02*
X108401190Y-110851310D01*
X107876714Y-110091040D02*
X108138952Y-110471170D01*
X107614477Y-109710900D02*
X107876714Y-110091040D01*
X107352240Y-109330770D02*
X107614477Y-109710900D01*
X107090002Y-108950630D02*
X107352240Y-109330770D01*
X101258927Y-107451600D02*
X101283667Y-107447600D01*
X101234177Y-107455600D02*
X101258927Y-107451600D01*
X101209417Y-107459600D02*
X101234177Y-107455600D01*
X101184637Y-107463600D02*
X101209417Y-107459600D01*
X101159847Y-107467600D02*
X101184637Y-107463600D01*
X101135047Y-107471600D02*
X101159847Y-107467600D01*
X101110237Y-107475600D02*
X101135047Y-107471600D01*
X101386967Y-107436550D02*
X101308377Y-107444550D01*
X101464937Y-107438550D02*
X101386967Y-107436550D01*
X101541367Y-107450650D02*
X101464937Y-107438550D01*
X101615327Y-107472450D02*
X101541367Y-107450650D01*
X101685887Y-107503550D02*
X101615327Y-107472450D01*
X101752127Y-107543550D02*
X101685887Y-107503550D01*
X101813117Y-107592150D02*
X101752127Y-107543550D01*
X101867927Y-107649050D02*
X101813117Y-107592150D01*
X101896827Y-107684050D02*
X101901027Y-107689050D01*
X101892627Y-107679050D02*
X101896827Y-107684050D01*
X101888427Y-107674050D02*
X101892627Y-107679050D01*
X101884327Y-107669050D02*
X101888427Y-107674050D01*
X109766117Y-97598360D02*
X109731687Y-97683660D01*
X109812907Y-97519660D02*
X109766117Y-97598360D01*
X101880227Y-107664050D02*
X101884327Y-107669050D01*
X101876127Y-107659050D02*
X101880227Y-107664050D01*
X101872027Y-107654050D02*
X101876127Y-107659050D01*
X101867927Y-107649050D02*
X101872027Y-107654050D01*
X101919267Y-107709460D02*
X101901047Y-107687560D01*
X101936407Y-107732160D02*
X101919267Y-107709460D01*
X101952427Y-107755660D02*
X101936407Y-107732160D01*
X101967317Y-107779860D02*
X101952427Y-107755660D01*
X101981047Y-107804760D02*
X101967317Y-107779860D01*
X101993587Y-107830260D02*
X101981047Y-107804760D01*
X102004917Y-107856360D02*
X101993587Y-107830260D01*
X102015017Y-107882960D02*
X102004917Y-107856360D01*
X102266422Y-108596870D02*
X102015017Y-107882960D01*
X102517827Y-109310770D02*
X102266422Y-108596870D01*
X102769232Y-110024680D02*
X102517827Y-109310770D01*
X103020637Y-110738580D02*
X102769232Y-110024680D01*
X103272042Y-111452490D02*
X103020637Y-110738580D01*
X103523447Y-112166390D02*
X103272042Y-111452490D01*
X103774852Y-112880300D02*
X103523447Y-112166390D01*
X104026257Y-113594200D02*
X103774852Y-112880300D01*
X111411204Y-96838570D02*
X110975612Y-96991970D01*
X111846797Y-96685170D02*
X111411204Y-96838570D01*
X106705677Y-107303300D02*
X106764707Y-107204600D01*
X106642867Y-107399700D02*
X106705677Y-107303300D01*
X106576327Y-107493800D02*
X106642867Y-107399700D01*
X107063386Y-106550960D02*
X107000966Y-106681330D01*
X93633380Y-107840260D02*
X93624980Y-107749160D01*
X93627780Y-107931660D02*
X93633380Y-107840260D01*
X93608270Y-108021560D02*
X93627780Y-107931660D01*
X93574780Y-108108360D02*
X93608270Y-108021560D01*
X93527280Y-108190360D02*
X93574780Y-108108360D01*
X93265042Y-108570500D02*
X93527280Y-108190360D01*
X93002805Y-108950630D02*
X93265042Y-108570500D01*
X92740567Y-109330770D02*
X93002805Y-108950630D01*
X92478329Y-109710900D02*
X92740567Y-109330770D01*
X92216091Y-110091040D02*
X92478329Y-109710900D01*
X91953853Y-110471170D02*
X92216091Y-110091040D01*
X91691616Y-110851310D02*
X91953853Y-110471170D01*
X91429378Y-111231440D02*
X91691616Y-110851310D01*
X91945750Y-111817730D02*
X92076433Y-111701620D01*
X91800407Y-111862830D02*
X91945750Y-111817730D01*
X91654849Y-111847530D02*
X91800407Y-111862830D01*
X91523521Y-111782230D02*
X91654849Y-111847530D01*
X91420868Y-111677500D02*
X91523521Y-111782230D01*
X91361338Y-111543790D02*
X91420868Y-111677500D01*
X91359338Y-111391610D02*
X91361338Y-111543790D01*
X91429378Y-111231440D02*
X91359338Y-111391610D01*
X92356894Y-111334660D02*
X92076400Y-111701530D01*
X92637388Y-110967790D02*
X92356894Y-111334660D01*
X92917882Y-110600920D02*
X92637388Y-110967790D01*
X93198377Y-110234050D02*
X92917882Y-110600920D01*
X93478871Y-109867170D02*
X93198377Y-110234050D01*
X93759365Y-109500300D02*
X93478871Y-109867170D01*
X94039859Y-109133430D02*
X93759365Y-109500300D01*
X94320353Y-108766560D02*
X94039859Y-109133430D01*
X94383643Y-108695580D02*
X94320353Y-108766080D01*
X94455823Y-108636880D02*
X94383643Y-108695580D01*
X94535293Y-108590580D02*
X94455823Y-108636880D01*
X94620463Y-108557080D02*
X94535293Y-108590580D01*
X94709733Y-108536880D02*
X94620463Y-108557080D01*
X94801503Y-108530880D02*
X94709733Y-108536880D01*
X94894173Y-108538880D02*
X94801503Y-108530880D01*
X94986153Y-108561580D02*
X94894173Y-108538880D01*
X95775231Y-108710180D02*
X95890390Y-108714180D01*
X95660430Y-108702180D02*
X95775231Y-108710180D01*
X95546112Y-108689580D02*
X95660430Y-108702180D01*
X95432403Y-108672580D02*
X95546112Y-108689580D01*
X95319427Y-108651280D02*
X95432403Y-108672580D01*
X95207310Y-108625680D02*
X95319427Y-108651280D01*
X95096177Y-108595780D02*
X95207310Y-108625680D01*
X94986153Y-108561580D02*
X95096177Y-108595780D01*
X96033698Y-108733370D02*
X95890420Y-108714270D01*
X96162855Y-108783470D02*
X96033698Y-108733370D01*
X96274600Y-108860170D02*
X96162855Y-108783470D01*
X96365650Y-108958970D02*
X96274600Y-108860170D01*
X96432710Y-109075390D02*
X96365650Y-108958970D01*
X96472500Y-109204950D02*
X96432710Y-109075390D01*
X96481700Y-109343190D02*
X96472500Y-109204950D01*
X96457080Y-109485620D02*
X96481700Y-109343190D01*
X96313187Y-109968300D02*
X96457080Y-109485620D01*
X96169294Y-110450980D02*
X96313187Y-109968300D01*
X96025401Y-110933660D02*
X96169294Y-110450980D01*
X95881508Y-111416340D02*
X96025401Y-110933660D01*
X95737615Y-111899020D02*
X95881508Y-111416340D01*
X95593722Y-112381700D02*
X95737615Y-111899020D01*
X95449829Y-112864380D02*
X95593722Y-112381700D01*
X95305936Y-113347060D02*
X95449829Y-112864380D01*
X95978131Y-113745000D02*
X96066541Y-113594210D01*
X95853858Y-113832900D02*
X95978131Y-113745000D01*
X95710702Y-113863300D02*
X95853858Y-113832900D01*
X95565642Y-113841800D02*
X95710702Y-113863300D01*
X95435656Y-113773900D02*
X95565642Y-113841800D01*
X95337726Y-113665140D02*
X95435656Y-113773900D01*
X95288826Y-113521020D02*
X95337726Y-113665140D01*
X95305936Y-113347060D02*
X95288826Y-113521020D01*
X96317960Y-112880300D02*
X96066555Y-113594200D01*
X96569366Y-112166390D02*
X96317960Y-112880300D01*
X96820771Y-111452490D02*
X96569366Y-112166390D01*
X97072176Y-110738580D02*
X96820771Y-111452490D01*
X97323582Y-110024680D02*
X97072176Y-110738580D01*
X97574987Y-109310770D02*
X97323582Y-110024680D01*
X97826393Y-108596870D02*
X97574987Y-109310770D01*
X107763977Y-100701360D02*
X107698877Y-100744360D01*
X107835047Y-100666860D02*
X107763977Y-100701360D01*
X108088847Y-105263190D02*
X108690122Y-105722900D01*
X107487572Y-104803480D02*
X108088847Y-105263190D01*
X106886297Y-104343770D02*
X107487572Y-104803480D01*
X106864087Y-104325820D02*
X106886307Y-104343620D01*
X106961757Y-106789370D02*
X107000967Y-106681020D01*
X106918467Y-106896010D02*
X106961757Y-106789370D01*
X106871157Y-107000840D02*
X106918467Y-106896010D01*
X106819887Y-107103740D02*
X106871157Y-107000840D01*
X106764707Y-107204600D02*
X106819887Y-107103740D01*
X107174926Y-110600920D02*
X106894432Y-110234050D01*
X107455420Y-110967790D02*
X107174926Y-110600920D01*
X107735913Y-111334660D02*
X107455420Y-110967790D01*
X108016407Y-111701530D02*
X107735913Y-111334660D01*
X108733477Y-111391620D02*
X108663447Y-111231460D01*
X112868998Y-103777680D02*
X113589167Y-104031290D01*
X112148830Y-103524070D02*
X112868998Y-103777680D01*
X112899461Y-95442900D02*
X113342027Y-95310970D01*
X112456894Y-95574840D02*
X112899461Y-95442900D01*
X106735747Y-104175020D02*
X106732447Y-104170020D01*
X106671997Y-104061820D02*
X106709187Y-104131520D01*
X106644587Y-103988820D02*
X106671997Y-104061820D01*
X106626997Y-103913420D02*
X106644587Y-103988820D01*
X111428661Y-103270450D02*
X112148830Y-103524070D01*
X110708492Y-103016840D02*
X111428661Y-103270450D01*
X108925527Y-95872430D02*
X108846657Y-95788830D01*
X109001167Y-95959030D02*
X108925527Y-95872430D01*
X104885500Y-108625770D02*
X104996633Y-108595870D01*
X104773382Y-108651370D02*
X104885500Y-108625770D01*
X104660406Y-108672670D02*
X104773382Y-108651370D01*
X104546696Y-108689670D02*
X104660406Y-108672670D01*
X104432378Y-108702270D02*
X104546696Y-108689670D01*
X104317576Y-108710270D02*
X104432378Y-108702270D01*
X104202417Y-108714270D02*
X104317576Y-108710270D01*
X105198637Y-108539360D02*
X105106657Y-108562060D01*
X105291307Y-108531360D02*
X105198637Y-108539360D01*
X110017817Y-97337160D02*
X109939717Y-97387660D01*
X110104427Y-97298760D02*
X110017817Y-97337160D01*
X111129196Y-95970640D02*
X111571762Y-95838710D01*
X110686630Y-96102570D02*
X111129196Y-95970640D01*
X103611137Y-109343190D02*
X103635757Y-109485620D01*
X103620337Y-109204950D02*
X103611137Y-109343190D01*
X103660127Y-109075390D02*
X103620337Y-109204950D01*
X103727187Y-108958970D02*
X103660127Y-109075390D01*
X103818237Y-108860170D02*
X103727187Y-108958970D01*
X103929982Y-108783470D02*
X103818237Y-108860170D01*
X104059139Y-108733370D02*
X103929982Y-108783470D01*
X104202417Y-108714270D02*
X104059139Y-108733370D01*
X104996633Y-108595870D02*
X105106657Y-108561670D01*
X108391862Y-94629520D02*
X108318062Y-94746770D01*
X108495507Y-94528770D02*
X108391862Y-94629520D01*
X113739879Y-104119740D02*
X113589176Y-104031340D01*
X113827669Y-104244000D02*
X113739879Y-104119740D01*
X108274082Y-94874980D02*
X108259902Y-95008580D01*
X108318062Y-94746770D02*
X108274082Y-94874980D01*
X109710577Y-97774260D02*
X109703777Y-97868760D01*
X109731687Y-97683660D02*
X109710577Y-97774260D01*
X109871097Y-97448960D02*
X109812907Y-97519660D01*
X109939717Y-97387660D02*
X109871097Y-97448960D01*
X109073477Y-96048530D02*
X109001167Y-95959030D01*
X109142377Y-96140930D02*
X109073477Y-96048530D01*
X106459467Y-107840300D02*
X106465067Y-107931700D01*
X106467867Y-107749200D02*
X106459467Y-107840300D01*
X106490147Y-107660000D02*
X106467867Y-107749200D01*
X106526307Y-107574300D02*
X106490147Y-107660000D01*
X106576327Y-107493800D02*
X106526307Y-107574300D01*
X111386578Y-91364361D02*
X111226417Y-91434391D01*
X111538753Y-91366361D02*
X111386578Y-91364361D01*
X109524457Y-96382030D02*
X109615987Y-96391030D01*
X109435857Y-96359130D02*
X109524457Y-96382030D01*
X111842438Y-91659859D02*
X111777178Y-91528539D01*
X111857738Y-91805410D02*
X111842438Y-91659859D01*
X110496126Y-92999183D02*
X110096002Y-93305100D01*
X110896250Y-92693266D02*
X110496126Y-92999183D01*
X111672451Y-91425891D02*
X111538753Y-91366361D01*
X111777178Y-91528539D02*
X111672451Y-91425891D01*
X112645617Y-99614610D02*
X113149137Y-99626910D01*
X112142097Y-99602310D02*
X112645617Y-99614610D01*
X106834543Y-103265470D02*
X106778473Y-103357770D01*
X106904403Y-103186470D02*
X106834543Y-103265470D01*
X106985833Y-103121770D02*
X106904403Y-103186470D01*
X109351767Y-96323030D02*
X109435857Y-96359130D01*
X109273767Y-96274230D02*
X109351767Y-96323030D01*
X98995443Y-99548110D02*
X98896403Y-100051440D01*
X99256140Y-99188580D02*
X98995443Y-99548110D01*
X113399524Y-100469820D02*
X112642872Y-100488320D01*
X114156177Y-100451320D02*
X113399524Y-100469820D01*
X112014328Y-95706770D02*
X112456894Y-95574840D01*
X111571762Y-95838710D02*
X112014328Y-95706770D01*
X111886220Y-100506820D02*
X111129567Y-100525320D01*
X112642872Y-100488320D02*
X111886220Y-100506820D01*
X114326891Y-99689160D02*
X114156177Y-99651660D01*
X114448829Y-99780160D02*
X114326891Y-99689160D01*
X111296373Y-92387348D02*
X110896250Y-92693266D01*
X111696497Y-92081431D02*
X111296373Y-92387348D01*
X100469120Y-98972870D02*
X100046885Y-98900970D01*
X100837390Y-99188580D02*
X100469120Y-98972870D01*
X109708857Y-96386030D02*
X109801497Y-96366230D01*
X109615987Y-96391030D02*
X109708857Y-96386030D01*
X113153575Y-96224980D02*
X112717982Y-96378380D01*
X113589167Y-96071580D02*
X113153575Y-96224980D01*
X101097787Y-99548110D02*
X100837390Y-99188580D01*
X101196407Y-100051440D02*
X101097787Y-99548110D01*
X113768710Y-95440820D02*
X113659991Y-95342920D01*
X113836570Y-95570770D02*
X113768710Y-95440820D01*
X114521989Y-100196080D02*
X114546379Y-100051490D01*
X114448829Y-100322820D02*
X114521989Y-100196080D01*
X109984986Y-99532580D02*
X110128057Y-99553180D01*
X109856366Y-99481080D02*
X109984986Y-99532580D01*
X109745437Y-99403180D02*
X109856366Y-99481080D01*
X109655437Y-99303380D02*
X109745437Y-99403180D01*
X108395812Y-95386240D02*
X108500504Y-95485940D01*
X108320792Y-95269760D02*
X108395812Y-95386240D01*
X112282389Y-96531770D02*
X111846797Y-96685170D01*
X112717982Y-96378380D02*
X112282389Y-96531770D01*
X101097367Y-100554770D02*
X101196407Y-100051440D01*
X100836670Y-100914300D02*
X101097367Y-100554770D01*
X110372915Y-100543820D02*
X109616262Y-100562320D01*
X111129567Y-100525320D02*
X110372915Y-100543820D01*
X108547986Y-102256000D02*
X109268154Y-102509620D01*
X107827787Y-102002370D02*
X108547986Y-102256000D01*
X113515932Y-104808900D02*
X113660000Y-104760000D01*
X113342027Y-104791900D02*
X113515932Y-104808900D01*
X107427047Y-101441470D02*
X107437167Y-101546410D01*
X107435947Y-101333870D02*
X107427047Y-101441470D01*
X109543397Y-98917950D02*
X109551197Y-99056280D01*
X109569527Y-98775790D02*
X109543397Y-98917950D01*
X107448447Y-101259770D02*
X107452447Y-101235070D01*
X107444347Y-101284470D02*
X107448447Y-101259770D01*
X107463847Y-101160670D02*
X107467547Y-101135870D01*
X107460147Y-101185470D02*
X107463847Y-101160670D01*
X107729567Y-101957570D02*
X107827787Y-102002370D01*
X107642947Y-101897470D02*
X107729567Y-101957570D01*
X107569167Y-101824170D02*
X107642947Y-101897470D01*
X107509457Y-101739870D02*
X107569167Y-101824170D01*
X107545437Y-100916060D02*
X107510277Y-100984960D01*
X107588997Y-100852460D02*
X107545437Y-100916060D01*
X107440147Y-101309170D02*
X107444347Y-101284470D01*
X107435947Y-101333870D02*
X107440147Y-101309170D01*
X107484127Y-101058460D02*
X107467587Y-101135760D01*
X107510277Y-100984960D02*
X107484127Y-101058460D01*
X107465047Y-101646570D02*
X107509457Y-101739870D01*
X107437167Y-101546410D02*
X107465047Y-101646570D01*
X107640347Y-100794960D02*
X107588997Y-100852460D01*
X107698877Y-100744360D02*
X107640347Y-100794960D01*
X107456347Y-101210270D02*
X107460147Y-101185470D01*
X107452447Y-101235070D02*
X107456347Y-101210270D01*
X109589607Y-99186260D02*
X109655437Y-99303380D01*
X109551197Y-99056280D02*
X109589607Y-99186260D01*
X113768719Y-104662100D02*
X113836579Y-104532150D01*
X113660000Y-104760000D02*
X113768719Y-104662100D01*
M02*
