G04 #@! TF.GenerationSoftware,KiCad,Pcbnew,5.0.2-bee76a0~70~ubuntu18.04.1*
G04 #@! TF.CreationDate,2019-05-31T10:22:34+02:00*
G04 #@! TF.ProjectId,GaudiPCR,47617564-6950-4435-922e-6b696361645f,rev?*
G04 #@! TF.SameCoordinates,Original*
G04 #@! TF.FileFunction,Copper,L1,Top*
G04 #@! TF.FilePolarity,Positive*
%FSLAX46Y46*%
G04 Gerber Fmt 4.6, Leading zero omitted, Abs format (unit mm)*
G04 Created by KiCad (PCBNEW 5.0.2-bee76a0~70~ubuntu18.04.1) date Fr 31 Mai 2019 10:22:34 CEST*
%MOMM*%
%LPD*%
G01*
G04 APERTURE LIST*
%ADD10C,0.150000*%
G04 #@! TA.AperFunction,BGAPad,CuDef*
%ADD11C,1.800000*%
G04 #@! TD*
G04 #@! TA.AperFunction,Conductor*
%ADD12C,0.100000*%
G04 #@! TD*
G04 #@! TA.AperFunction,SMDPad,CuDef*
%ADD13C,0.590000*%
G04 #@! TD*
G04 #@! TA.AperFunction,Conductor*
%ADD14C,0.150000*%
G04 #@! TD*
G04 #@! TA.AperFunction,Conductor*
%ADD15C,0.300000*%
G04 #@! TD*
G04 APERTURE END LIST*
D10*
X99066469Y-95092681D02*
X98654989Y-94843761D01*
X101565604Y-91313161D02*
X101126184Y-91033761D01*
X97009584Y-97081854D02*
X97360612Y-96765925D01*
X97062082Y-97331263D02*
X97009584Y-97081854D01*
X97070198Y-97659727D02*
X97072606Y-97553681D01*
X96584889Y-95054581D02*
X96335969Y-95245081D01*
X98955203Y-105436986D02*
X98929701Y-105999285D01*
X99278951Y-106080352D02*
X99316479Y-105674352D01*
X98843109Y-104947397D02*
X98955203Y-105436986D01*
X95881201Y-95622899D02*
X96150203Y-95929302D01*
X96194532Y-96795662D02*
X95997444Y-96333688D01*
X93610912Y-95261808D02*
X94253902Y-95419984D01*
X91433594Y-96143426D02*
X91786793Y-95796155D01*
X95631475Y-101241129D02*
X95561519Y-100913938D01*
X95948576Y-101111810D02*
X95631475Y-101241129D01*
X102627324Y-93543281D02*
X102515564Y-94013181D01*
X97146229Y-94704061D02*
X97354509Y-95054581D01*
X101126184Y-91033761D02*
X100735024Y-90894061D01*
X104082145Y-100478960D02*
X104271216Y-100649879D01*
X103882513Y-100217998D02*
X103942897Y-100305206D01*
X104222400Y-100096879D02*
X103882513Y-100217998D01*
X104305249Y-100187471D02*
X104222400Y-100096879D01*
X104363836Y-99241698D02*
X104531676Y-99881549D01*
X104457324Y-99200640D02*
X104363836Y-99241698D01*
X104542284Y-99330606D02*
X104457324Y-99200640D01*
X104783219Y-99652928D02*
X104542284Y-99330606D01*
X103942897Y-100305206D02*
X104082145Y-100478960D01*
X104531676Y-99881549D02*
X104757156Y-100123429D01*
X97974269Y-93964921D02*
X97834569Y-93393421D01*
X102276804Y-95582901D02*
X101916124Y-95834361D01*
X97164027Y-103783809D02*
X96837155Y-103637371D01*
X92161689Y-99787900D02*
X91809411Y-99515866D01*
X97755829Y-94363701D02*
X97946329Y-94653261D01*
X101620581Y-106369087D02*
X101535791Y-105997426D01*
X102167637Y-104637297D02*
X101981054Y-105080538D01*
X102480819Y-104221381D02*
X102167637Y-104637297D01*
X105218683Y-108106409D02*
X104746701Y-108273506D01*
X101519710Y-105651194D02*
X101580817Y-105173532D01*
X102039797Y-107201046D02*
X101806365Y-106814934D01*
X98883986Y-104126263D02*
X98823430Y-104019475D01*
X97966399Y-103889724D02*
X98523068Y-104247073D01*
X97898461Y-103965948D02*
X97966399Y-103889724D01*
X97995812Y-104086912D02*
X97898461Y-103965948D01*
X98227906Y-104415657D02*
X97995812Y-104086912D01*
X98995349Y-91033761D02*
X99386509Y-90894061D01*
X94714186Y-100184602D02*
X95032911Y-99951652D01*
X93046072Y-100107302D02*
X92571212Y-99982388D01*
X97555169Y-95770861D02*
X97354509Y-95902941D01*
X101837384Y-94493241D02*
X102147264Y-93964921D01*
X97326569Y-95534641D02*
X96945569Y-95074901D01*
X102645104Y-94564361D02*
X102855924Y-94094461D01*
X95364347Y-100123439D02*
X95022677Y-100402348D01*
X95519992Y-98723816D02*
X95341621Y-99034418D01*
X99914829Y-95318741D02*
X99564309Y-95245081D01*
X95369123Y-96097486D02*
X95585643Y-96368141D01*
X96295898Y-95546656D02*
X95835325Y-95081864D01*
X106254471Y-104138736D02*
X105959392Y-103797414D01*
X104468025Y-103075681D02*
X104073247Y-103076799D01*
X105772120Y-104118711D02*
X106082867Y-104498884D01*
X106766973Y-105150948D02*
X106603600Y-104701377D01*
X105265508Y-103287457D02*
X104941192Y-103165171D01*
X105502989Y-102235827D02*
X106087357Y-102530229D01*
X97166549Y-93662661D02*
X96846509Y-93853161D01*
X98975029Y-95433041D02*
X99356029Y-95562581D01*
X95533358Y-94876920D02*
X95369510Y-94772939D01*
X91021115Y-96829312D02*
X91149969Y-96556035D01*
X102106624Y-92034521D02*
X101855164Y-91612881D01*
X95561519Y-100913938D02*
X95220809Y-101107695D01*
X95220809Y-101107695D02*
X95284417Y-101339349D01*
X104275784Y-93934441D02*
X104006544Y-94254481D01*
X103945584Y-93944601D02*
X104275784Y-93934441D01*
X95032911Y-99951652D02*
X95338284Y-99652938D01*
X92030908Y-100124647D02*
X92644071Y-100374620D01*
X107075431Y-100107292D02*
X107550291Y-99982378D01*
X108487019Y-99856955D02*
X108090595Y-100124637D01*
X106176973Y-100482011D02*
X105842718Y-100390314D01*
X105750967Y-101472385D02*
X106396776Y-101577693D01*
X108635389Y-99146410D02*
X108830961Y-98778404D01*
X108972885Y-97858968D02*
X108923817Y-97444926D01*
X107550291Y-99982378D02*
X107959814Y-99787890D01*
X106499104Y-101218618D02*
X106041649Y-101166951D01*
X91197686Y-97444936D02*
X90857075Y-97334265D01*
X94881882Y-100901426D02*
X95131528Y-100774225D01*
X97844729Y-96035021D02*
X97555169Y-95770861D01*
X95551120Y-94148246D02*
X95772296Y-94503206D01*
X95458745Y-94465424D02*
X95551120Y-94148246D01*
X96615400Y-96051076D02*
X96295898Y-95546656D01*
X100317544Y-104286080D02*
X100292543Y-104627623D01*
X100787229Y-104236817D02*
X100317544Y-104286080D01*
X100891357Y-104004184D02*
X100787229Y-104236817D01*
X101077857Y-103733681D02*
X101013576Y-103818058D01*
X101298078Y-104019505D02*
X101077857Y-103733681D01*
X101237522Y-104126293D02*
X101298078Y-104019505D01*
X102155109Y-103889754D02*
X101598440Y-104247103D01*
X100735024Y-90894061D02*
X100326084Y-90812781D01*
X102286964Y-93393421D02*
X102314904Y-92903201D01*
X91361726Y-96939983D02*
X91021115Y-96829312D01*
X96373978Y-96309142D02*
X96501178Y-96558788D01*
X95757667Y-99241708D02*
X95589827Y-99881559D01*
X95664179Y-99200650D02*
X95757667Y-99241708D01*
X94038646Y-104498854D02*
X93821653Y-104896909D01*
X94162430Y-102880843D02*
X94562887Y-102653757D01*
X93710242Y-106225647D02*
X93901513Y-106709970D01*
X93901513Y-106709970D02*
X94135854Y-107052907D01*
X96084152Y-102361895D02*
X96543387Y-102425542D01*
X102276804Y-96035021D02*
X102566364Y-95770861D01*
X102566364Y-95770861D02*
X102767024Y-95902941D01*
X94848461Y-107671291D02*
X94637952Y-107961032D01*
X99274252Y-105235524D02*
X99230422Y-104958790D01*
X98140454Y-105080508D02*
X98234440Y-105582058D01*
X97786309Y-95034261D02*
X97476429Y-94564361D01*
X103069613Y-103225154D02*
X103581492Y-102806158D01*
X103121112Y-103313322D02*
X103069613Y-103225154D01*
X103266239Y-103258115D02*
X103121112Y-103313322D01*
X103650615Y-103138970D02*
X103266239Y-103258115D01*
X103354181Y-102117337D02*
X103568965Y-102058616D01*
X103581492Y-102806158D02*
X103906084Y-102743007D01*
X102617164Y-92433301D02*
X102665424Y-93093701D01*
X101524964Y-95234921D02*
X101146504Y-95433041D01*
X95547831Y-97100983D02*
X95329063Y-96639977D01*
X96150203Y-95929302D02*
X96373978Y-96309142D01*
X99496170Y-104593018D02*
X99575160Y-104976926D01*
X99575160Y-104976926D02*
X99815131Y-104988016D01*
X99828965Y-104627593D02*
X99496170Y-104593018D01*
X99803964Y-104286050D02*
X99828965Y-104627593D01*
X92653968Y-95330118D02*
X93132859Y-95245356D01*
X92151171Y-95545991D02*
X92653968Y-95330118D01*
X97654495Y-107706924D02*
X98081711Y-107201016D01*
X95374807Y-108273476D02*
X95864672Y-108346819D01*
X98650394Y-106910917D02*
X99021285Y-106944914D01*
X98824058Y-106503358D02*
X98650394Y-106910917D01*
X94669704Y-95595147D02*
X95082069Y-95846644D01*
X91786793Y-95796155D02*
X92151171Y-95545991D01*
X99021285Y-106944914D02*
X99186729Y-106531383D01*
X97374643Y-107478483D02*
X97007064Y-107729456D01*
X94370536Y-101472395D02*
X93724727Y-101577703D01*
X91486114Y-99146420D02*
X91290542Y-98778414D01*
X97636449Y-91973561D02*
X97504369Y-92433301D01*
X95341621Y-99034418D02*
X95042839Y-99460797D01*
X90800691Y-97631089D02*
X90787623Y-98131607D01*
X91634484Y-99856965D02*
X92030908Y-100124647D01*
X93944530Y-100482021D02*
X94278785Y-100390324D01*
X101855164Y-91612881D02*
X101565604Y-91313161D01*
X99364580Y-107068748D02*
X99617525Y-107265082D01*
X99436016Y-106888319D02*
X99364580Y-107068748D01*
X94637952Y-107961032D02*
X94902825Y-108106379D01*
X97072606Y-97553681D02*
X97062082Y-97331263D01*
X96347254Y-97550352D02*
X96307010Y-97222132D01*
X96501178Y-96558788D02*
X96628874Y-96979519D01*
X97476429Y-94564361D02*
X97265609Y-94094461D01*
X95835325Y-95081864D02*
X95533358Y-94876920D01*
X95646301Y-95893768D02*
X95264547Y-95548060D01*
X93333609Y-102008799D02*
X93379918Y-101866274D01*
X92946033Y-102165964D02*
X93333609Y-102008799D01*
X94239755Y-101809143D02*
X94344010Y-102104747D01*
X100765504Y-95562581D02*
X100615644Y-95603221D01*
X101146504Y-95433041D02*
X100765504Y-95562581D01*
X98614349Y-96052801D02*
X98726109Y-96103601D01*
X103114444Y-107729486D02*
X103565712Y-107922795D01*
X101806365Y-106814934D02*
X101620581Y-106369087D01*
X104256836Y-108346849D02*
X103815005Y-108335059D01*
X100561658Y-106545054D02*
X100685492Y-106888349D01*
X101191807Y-105999315D02*
X101297450Y-106503388D01*
X101946908Y-106191650D02*
X102169807Y-106736115D01*
X96955729Y-94284961D02*
X97146229Y-94704061D01*
X94884493Y-95320415D02*
X95164567Y-95074907D01*
X95264547Y-95548060D02*
X94884493Y-95320415D01*
X104286185Y-95081864D02*
X104588152Y-94876920D01*
X104475209Y-95893768D02*
X104856963Y-95548060D01*
X105199150Y-96182004D02*
X105699508Y-95872539D01*
X104183611Y-97166297D02*
X104112138Y-97587456D01*
X106510598Y-95261808D02*
X105867608Y-95419984D01*
X108687916Y-96143426D02*
X108334717Y-95796155D01*
X105237017Y-95320415D02*
X104956943Y-95074907D01*
X104580028Y-95312214D02*
X104240309Y-95622899D01*
X107900863Y-95915757D02*
X108302375Y-96247331D01*
X108302375Y-96247331D02*
X108556113Y-96576176D01*
X103492636Y-96979519D02*
X103411256Y-97435946D01*
X107047625Y-95624130D02*
X107526333Y-95732988D01*
X105451806Y-95595147D02*
X105039441Y-95846644D01*
X108334717Y-95796155D02*
X107970339Y-95545991D01*
X99505889Y-95603221D02*
X99495729Y-95704821D01*
X98835329Y-95742921D02*
X98535609Y-95603221D01*
X97834569Y-93393421D02*
X97806629Y-92903201D01*
X102365704Y-94363701D02*
X102175204Y-94653261D01*
X99795449Y-90812781D02*
X99795449Y-90454641D01*
X102474924Y-95384781D02*
X102276804Y-95582901D01*
X97806629Y-92903201D02*
X97865049Y-92453621D01*
X105702595Y-107359062D02*
X105913104Y-107648803D01*
X104753694Y-102397189D02*
X104476960Y-102353359D01*
X104255902Y-103427592D02*
X104761947Y-103493195D01*
X105184094Y-102492635D02*
X104753694Y-102397189D01*
X103906084Y-102743007D02*
X104346439Y-102718194D01*
X102957486Y-103783839D02*
X103284358Y-103637401D01*
X99107932Y-103818028D02*
X99230151Y-104004154D01*
X98523068Y-104247073D02*
X98683432Y-104536263D01*
X99230422Y-104958790D02*
X99086430Y-104543353D01*
X98500927Y-106369057D02*
X98585717Y-105997396D01*
X91016992Y-99036724D02*
X91296876Y-99506905D01*
X94230989Y-100019589D02*
X93632770Y-100151043D01*
X102566364Y-96202661D02*
X102276804Y-96035021D01*
X102345384Y-96464281D02*
X102566364Y-96202661D01*
X97354509Y-95054581D02*
X97646609Y-95384781D01*
X98266369Y-91612881D02*
X98555929Y-91313161D01*
X96785694Y-95946165D02*
X96615400Y-96051076D01*
X96957040Y-96191459D02*
X96785694Y-95946165D01*
X96931169Y-96698500D02*
X96769417Y-96341483D01*
X101895804Y-91132821D02*
X102256484Y-91544301D01*
X97953871Y-104637267D02*
X98140454Y-105080508D01*
X97640689Y-104221351D02*
X97953871Y-104637267D01*
X94902825Y-108106379D02*
X95374807Y-108273476D01*
X98601798Y-105651164D02*
X98540691Y-105173502D01*
X94301155Y-103217103D02*
X93967209Y-103508210D01*
X93820264Y-103165979D02*
X94162430Y-102880843D01*
X93821653Y-104896909D02*
X93696552Y-105324053D01*
X95274808Y-102762849D02*
X94747911Y-102960863D01*
X103536644Y-95054581D02*
X103785564Y-95245081D01*
X103795724Y-94483081D02*
X103536644Y-95054581D01*
X98614349Y-96433801D02*
X98406069Y-96355061D01*
X95367819Y-102397159D02*
X95644553Y-102353329D01*
X95865611Y-103427562D02*
X95359566Y-103493165D01*
X94937419Y-102492605D02*
X95367819Y-102397159D01*
X96215429Y-102742977D02*
X95775074Y-102718164D01*
X98185089Y-96228061D02*
X97776149Y-96464281D01*
X103577284Y-94142721D02*
X103625544Y-93954761D01*
X98654989Y-94843761D02*
X98284149Y-94493241D01*
X101466544Y-94843761D02*
X101837384Y-94493241D01*
X99795449Y-90454641D02*
X99495729Y-90492741D01*
X96544249Y-94142721D02*
X96495989Y-93954761D01*
X91809411Y-99515866D02*
X91486114Y-99146420D01*
X93083420Y-100477312D02*
X93564857Y-100516229D01*
X96645849Y-94493241D02*
X96544249Y-94142721D01*
X98535609Y-95603221D02*
X98164769Y-95364461D01*
X91160606Y-98274162D02*
X91148618Y-97858978D01*
X95482136Y-100508904D02*
X95816254Y-100187481D01*
X101585924Y-95603221D02*
X101956764Y-95364461D01*
X96769417Y-96341483D02*
X96957040Y-96191459D01*
X97180083Y-96474916D02*
X96931169Y-96698500D01*
X97360612Y-96765925D02*
X97180083Y-96474916D01*
X94314784Y-102040235D02*
X94225377Y-101739806D01*
X93769266Y-102350304D02*
X94314784Y-102040235D01*
X93585581Y-102499414D02*
X93769266Y-102350304D01*
X97646609Y-95384781D02*
X97844729Y-95582901D01*
X102223047Y-103965978D02*
X102155109Y-103889754D01*
X102125696Y-104086942D02*
X102223047Y-103965978D01*
X101893602Y-104415687D02*
X102125696Y-104086942D01*
X101013576Y-103818058D02*
X100891357Y-104004184D01*
X101598440Y-104247103D02*
X101438076Y-104536293D01*
X100891086Y-104958820D02*
X101035078Y-104543383D01*
X101105864Y-90634981D02*
X101545284Y-90863581D01*
X104856963Y-95548060D02*
X105237017Y-95320415D01*
X104956943Y-95074907D02*
X104580028Y-95312214D01*
X106602729Y-95611113D02*
X107047625Y-95624130D01*
X104124066Y-96333688D02*
X104475209Y-95893768D01*
X104240309Y-95622899D02*
X103971307Y-95929302D01*
X103926978Y-96795662D02*
X104124066Y-96333688D01*
X97174169Y-95664181D02*
X97326569Y-95534641D01*
X101395424Y-96103601D02*
X101405584Y-96464281D01*
X101507184Y-96052801D02*
X101395424Y-96103601D01*
X91149969Y-96556035D02*
X91433594Y-96143426D01*
X95585643Y-96368141D02*
X95816970Y-96790495D01*
X108830961Y-98778404D02*
X108960897Y-98274152D01*
X108960897Y-98274152D02*
X108972885Y-97858968D01*
X104639367Y-100508894D02*
X104305249Y-100187471D01*
X108312092Y-99515856D02*
X108635389Y-99146410D01*
X107038083Y-100477302D02*
X106556646Y-100516219D01*
X109252257Y-98620151D02*
X109104511Y-99036714D01*
X106396776Y-101577693D02*
X106761536Y-101566004D01*
X106072474Y-100809743D02*
X106584522Y-100865037D01*
X96628874Y-96979519D02*
X96710254Y-97435946D01*
X93073885Y-95624130D02*
X92595177Y-95732988D01*
X96724031Y-97557934D02*
X97070198Y-97659727D01*
X96710254Y-97435946D02*
X96724031Y-97557934D01*
X96106944Y-98166655D02*
X96347254Y-97550352D01*
X99939114Y-106126722D02*
X100252467Y-106118916D01*
X99812796Y-106741358D02*
X99939114Y-106126722D01*
X99727746Y-106962130D02*
X99812796Y-106741358D01*
X99848985Y-107050215D02*
X99727746Y-106962130D01*
X99878690Y-107467387D02*
X99848985Y-107050215D01*
X98715949Y-96464281D02*
X98614349Y-96433801D01*
X106301249Y-103166009D02*
X105959083Y-102880873D01*
X106299860Y-104896939D02*
X106424961Y-105324083D01*
X104846705Y-102762879D02*
X105373602Y-102960893D01*
X105558626Y-102653787D02*
X105184094Y-102492635D01*
X104346439Y-102718194D02*
X104846705Y-102762879D01*
X105323182Y-103738472D02*
X105772120Y-104118711D01*
X104073247Y-103076799D02*
X103650615Y-103138970D01*
X106603600Y-104701377D02*
X106254471Y-104138736D01*
X106437957Y-107044563D02*
X106659088Y-106601338D01*
X106154304Y-103508240D02*
X106301249Y-103166009D01*
X105820358Y-103217133D02*
X106154304Y-103508240D01*
X102335224Y-95034261D02*
X102645104Y-94564361D01*
X97494209Y-93543281D02*
X97605969Y-94013181D01*
X98596569Y-95234921D02*
X98975029Y-95433041D01*
X95001615Y-101437082D02*
X94925510Y-101252111D01*
X95284417Y-101339349D02*
X95001615Y-101437082D01*
X97865049Y-92453621D02*
X98014909Y-92034521D01*
X103051312Y-97659727D02*
X103048904Y-97553681D01*
X103397479Y-97557934D02*
X103051312Y-97659727D01*
X103411256Y-97435946D02*
X103397479Y-97557934D01*
X104014566Y-98166655D02*
X103774256Y-97550352D01*
X104114332Y-98144922D02*
X104014566Y-98166655D01*
X104106674Y-97989838D02*
X104114332Y-98144922D01*
X104112138Y-97587456D02*
X104106674Y-97989838D01*
X103048904Y-97553681D02*
X103059428Y-97331263D01*
X97865049Y-91544301D02*
X97636449Y-91973561D01*
X98276529Y-95003781D02*
X98596569Y-95234921D01*
X99495729Y-95704821D02*
X98835329Y-95742921D01*
X99495729Y-90492741D02*
X99015669Y-90634981D01*
X99564309Y-95245081D02*
X99066469Y-95092681D01*
X96495989Y-93954761D02*
X96175949Y-93944601D01*
X99617525Y-107265082D02*
X99878690Y-107467387D01*
X99621255Y-105302399D02*
X99659262Y-105898281D01*
X99820690Y-105287177D02*
X99621255Y-105302399D01*
X99815131Y-104988016D02*
X99820690Y-105287177D01*
X102515564Y-94013181D02*
X102365704Y-94363701D01*
X92220647Y-95915757D02*
X91819135Y-96247331D01*
X91819135Y-96247331D02*
X91565397Y-96576176D01*
X91148618Y-97858978D02*
X91197686Y-97444936D01*
X92571212Y-99982388D02*
X92161689Y-99787900D01*
X99386509Y-90894061D02*
X99795449Y-90812781D01*
X96114989Y-94254481D02*
X96264849Y-94254481D01*
X100326084Y-90812781D02*
X100326084Y-90454641D01*
X94678949Y-99775217D02*
X94230989Y-100019589D01*
X94477580Y-101077192D02*
X94881882Y-100901426D01*
X97776149Y-96464281D02*
X97555169Y-96202661D01*
X104894433Y-107845932D02*
X105273047Y-107671321D01*
X102435346Y-107149134D02*
X102746865Y-107478513D01*
X100934779Y-106531413D02*
X100842557Y-106080382D01*
X103976141Y-107995075D02*
X104495865Y-107962830D01*
X104495865Y-107962830D02*
X104894433Y-107845932D01*
X101035078Y-104543383D02*
X101237522Y-104126293D01*
X96325809Y-94483081D02*
X96584889Y-95054581D01*
X97504369Y-92433301D02*
X97456109Y-93093701D01*
X101703874Y-104798422D02*
X101893602Y-104415687D01*
X102467013Y-107706954D02*
X102039797Y-107201046D01*
X104746701Y-108273506D02*
X104256836Y-108346849D01*
X101471114Y-106910947D02*
X101100223Y-106944944D01*
X101297450Y-106503388D02*
X101471114Y-106910947D01*
X101100223Y-106944944D02*
X100934779Y-106531413D01*
X96264849Y-94254481D02*
X96325809Y-94483081D01*
X95164567Y-95074907D02*
X95541482Y-95312214D01*
X95589827Y-99881559D02*
X95364347Y-100123439D01*
X95131528Y-100774225D02*
X95482136Y-100508904D01*
X94591688Y-100660247D02*
X94049029Y-100809753D01*
X94079854Y-101166961D02*
X94477580Y-101077192D01*
X102954984Y-93662661D02*
X103275024Y-93853161D01*
X102746865Y-107478513D02*
X103114444Y-107729486D01*
X101166305Y-105437016D02*
X101191807Y-105999315D01*
X100842557Y-106080382D02*
X100805029Y-105674382D01*
X101278399Y-104947427D02*
X101166305Y-105437016D01*
X103281348Y-108214167D02*
X102844095Y-108001256D01*
X100500253Y-105302429D02*
X100462246Y-105898311D01*
X100300818Y-105287207D02*
X100500253Y-105302429D01*
X100306377Y-104988046D02*
X100300818Y-105287207D01*
X100625338Y-104593048D02*
X100546348Y-104976956D01*
X100546348Y-104976956D02*
X100306377Y-104988046D01*
X100292543Y-104627623D02*
X100625338Y-104593048D01*
X96388028Y-95197351D02*
X96646125Y-95019482D01*
X95924560Y-94774348D02*
X96388028Y-95197351D01*
X95725987Y-94645731D02*
X95924560Y-94774348D01*
X95772296Y-94503206D02*
X95725987Y-94645731D01*
X103275024Y-93853161D02*
X103165804Y-94284961D01*
X103165804Y-94284961D02*
X102975304Y-94704061D01*
X101507184Y-96433801D02*
X101715464Y-96355061D01*
X104346934Y-101681765D02*
X104211212Y-101987587D01*
X104014382Y-101599998D02*
X104346934Y-101681765D01*
X103822390Y-102031472D02*
X104014382Y-101599998D01*
X103568965Y-102058616D02*
X103822390Y-102031472D01*
X103254069Y-102152397D02*
X103354181Y-102117337D01*
X103457851Y-102450165D02*
X103254069Y-102152397D01*
X103578126Y-102425572D02*
X103457851Y-102450165D01*
X102256484Y-92453621D02*
X102106624Y-92034521D01*
X94562887Y-102653757D02*
X94937419Y-102492605D01*
X95775074Y-102718164D02*
X95274808Y-102762849D01*
X93287169Y-105632564D02*
X93354540Y-105150918D01*
X93337104Y-106177459D02*
X93287169Y-105632564D01*
X95359566Y-103493165D02*
X94798331Y-103738442D01*
X95910301Y-101987557D02*
X95520774Y-102031068D01*
X95520774Y-102031068D02*
X95436071Y-101806268D01*
X95774579Y-101681735D02*
X95910301Y-101987557D01*
X96107131Y-101599968D02*
X95774579Y-101681735D01*
X96299123Y-102031442D02*
X96107131Y-101599968D01*
X96552548Y-102058586D02*
X96299123Y-102031442D01*
X107175470Y-102165954D02*
X106787894Y-102008789D01*
X107063770Y-101855055D02*
X107175470Y-102165954D01*
X105195993Y-101252101D02*
X105750967Y-101472385D01*
X105119888Y-101437072D02*
X105195993Y-101252101D01*
X104837086Y-101339339D02*
X105119888Y-101437072D01*
X104559984Y-100913928D02*
X104900694Y-101107685D01*
X104900694Y-101107685D02*
X104837086Y-101339339D01*
X104490028Y-101241119D02*
X104559984Y-100913928D01*
X104172927Y-101111800D02*
X104490028Y-101241119D01*
X104271216Y-100649879D02*
X104172927Y-101111800D01*
X96307010Y-97222132D02*
X96194532Y-96795662D01*
X95610252Y-98445937D02*
X95648514Y-98089811D01*
X96175949Y-93944601D02*
X95845749Y-93934441D01*
X94278785Y-100390324D02*
X94714186Y-100184602D01*
X92644071Y-100374620D02*
X93083420Y-100477312D01*
X98081711Y-107201016D02*
X98315143Y-106814904D01*
X98540691Y-105173502D02*
X98417634Y-104798392D01*
X97951701Y-106736085D02*
X97686162Y-107149104D01*
X97277413Y-108001226D02*
X97654495Y-107706924D01*
X96238990Y-100218008D02*
X96178606Y-100305216D01*
X99356029Y-95562581D02*
X99505889Y-95603221D01*
X100326084Y-90454641D02*
X100625804Y-90492741D01*
X93166294Y-101553829D02*
X93057733Y-101855065D01*
X93359967Y-101566014D02*
X93166294Y-101553829D01*
X101055064Y-95092681D02*
X101466544Y-94843761D01*
X100557224Y-95245081D02*
X101055064Y-95092681D01*
X102947364Y-95664181D02*
X102794964Y-95534641D01*
X102767024Y-95902941D02*
X102947364Y-95664181D01*
X103815005Y-108335059D02*
X103281348Y-108214167D01*
X101887068Y-105582088D02*
X101946908Y-106191650D01*
X100756928Y-107068778D02*
X100503983Y-107265112D01*
X100685492Y-106888349D02*
X100756928Y-107068778D01*
X105483556Y-107961062D02*
X105218683Y-108106409D01*
X105273047Y-107671321D02*
X105483556Y-107961062D01*
X96846509Y-93853161D02*
X96955729Y-94284961D01*
X96470898Y-103138940D02*
X96855274Y-103258085D01*
X96767332Y-102117307D02*
X96552548Y-102058586D01*
X96540021Y-102806128D02*
X96215429Y-102742977D01*
X95644553Y-102353329D02*
X96084152Y-102361895D01*
X94528736Y-103482918D02*
X94856005Y-103287427D01*
X104037361Y-102361925D02*
X103578126Y-102425572D01*
X106424961Y-105324083D02*
X106469359Y-105813001D01*
X105959392Y-103797414D02*
X105592777Y-103482948D01*
X106659088Y-106601338D02*
X106784409Y-106177489D01*
X106087357Y-102530229D02*
X106375583Y-102754087D01*
X105373602Y-102960893D02*
X105820358Y-103217133D01*
X104476960Y-102353359D02*
X104037361Y-102361925D01*
X105592777Y-103482948D02*
X105265508Y-103287457D01*
X103776697Y-103468073D02*
X104255902Y-103427592D01*
X103284358Y-103637401D02*
X103776697Y-103468073D01*
X106133187Y-107441809D02*
X106437957Y-107044563D01*
X104941192Y-103165171D02*
X104468025Y-103075681D01*
X93464342Y-102411329D02*
X93585581Y-102499414D01*
X93058409Y-102511992D02*
X93464342Y-102411329D01*
X93331518Y-102697858D02*
X93058409Y-102511992D01*
X95196986Y-102087806D02*
X94618524Y-102235797D01*
X95149834Y-101893428D02*
X95196986Y-102087806D01*
X95436071Y-101806268D02*
X95149834Y-101893428D01*
X97686162Y-107149104D02*
X97374643Y-107478483D01*
X99186729Y-106531383D02*
X99278951Y-106080352D01*
X96145367Y-107995045D02*
X95625643Y-107962800D01*
X95625643Y-107962800D02*
X95227075Y-107845902D01*
X98014909Y-92034521D02*
X98266369Y-91612881D01*
X93616167Y-101878939D02*
X94239755Y-101809143D01*
X93379918Y-101866274D02*
X93616167Y-101878939D01*
X98406069Y-96355061D02*
X98185089Y-96228061D01*
X98284149Y-94493241D02*
X97974269Y-93964921D01*
X92595177Y-95732988D02*
X92220647Y-95915757D01*
X91565397Y-96576176D02*
X91361726Y-96939983D01*
X95082069Y-95846644D02*
X95369123Y-96097486D01*
X95657414Y-97569244D02*
X95547831Y-97100983D01*
X95648514Y-98089811D02*
X95657414Y-97569244D01*
X103175964Y-95074901D02*
X103475684Y-94493241D01*
X101845004Y-95003781D02*
X101524964Y-95234921D01*
X107467542Y-95330118D02*
X106988651Y-95245356D01*
X107970339Y-95545991D02*
X107467542Y-95330118D01*
X104792447Y-96639977D02*
X105199150Y-96182004D01*
X104752000Y-94772939D02*
X104662765Y-94465424D01*
X104588152Y-94876920D02*
X104752000Y-94772939D01*
X109100395Y-96829312D02*
X108971541Y-96556035D01*
X108759784Y-96939983D02*
X109100395Y-96829312D01*
X105881748Y-101809133D02*
X105777493Y-102104737D01*
X106505336Y-101878929D02*
X105881748Y-101809133D01*
X106741585Y-101866264D02*
X106505336Y-101878929D01*
X106787894Y-102008789D02*
X106741585Y-101866264D01*
X94798331Y-103738442D02*
X94349393Y-104118681D01*
X96048266Y-103076769D02*
X96470898Y-103138940D01*
X93517913Y-104701347D02*
X93867042Y-104138706D01*
X93683556Y-107044533D02*
X93462425Y-106601308D01*
X93967209Y-103508210D02*
X93820264Y-103165979D01*
X102485084Y-91973561D02*
X102617164Y-92433301D01*
X100206704Y-95318741D02*
X100557224Y-95245081D01*
X97605969Y-94013181D02*
X97755829Y-94363701D01*
X93622399Y-101218628D02*
X94079854Y-101166961D01*
X91290542Y-98778414D02*
X91160606Y-98274162D01*
X93536981Y-100865047D02*
X93095705Y-100825826D01*
X93177983Y-101189069D02*
X93622399Y-101218628D01*
X95022677Y-100402348D02*
X94591688Y-100660247D01*
X91296876Y-99506905D02*
X91634484Y-99856965D01*
X104304540Y-96790495D02*
X104183611Y-97166297D01*
X105699508Y-95872539D02*
X106157101Y-95694480D01*
X106988651Y-95245356D02*
X106510598Y-95261808D01*
X104752387Y-96097486D02*
X104535867Y-96368141D01*
X103825612Y-95546656D02*
X104286185Y-95081864D01*
X107526333Y-95732988D02*
X107900863Y-95915757D01*
X108556113Y-96576176D02*
X108759784Y-96939983D01*
X106157101Y-95694480D02*
X106602729Y-95611113D01*
X104989975Y-100774215D02*
X104639367Y-100508894D01*
X106556646Y-100516219D02*
X106176973Y-100482011D01*
X105078664Y-99460787D02*
X105442554Y-99775207D01*
X104779882Y-99034408D02*
X105078664Y-99460787D01*
X109320812Y-97631079D02*
X109333880Y-98131597D01*
X105842718Y-100390314D02*
X105407317Y-100184592D01*
X107477432Y-100374610D02*
X107038083Y-100477302D01*
X105407317Y-100184592D02*
X105088592Y-99951642D01*
X95899103Y-100096889D02*
X96238990Y-100218008D01*
X95816254Y-100187481D02*
X95899103Y-100096889D01*
X95850287Y-100649889D02*
X95948576Y-101111810D01*
X96039358Y-100478970D02*
X95850287Y-100649889D01*
X102767024Y-95054581D02*
X102474924Y-95384781D01*
X99086430Y-104543353D02*
X98883986Y-104126263D01*
X97007064Y-107729456D02*
X96555796Y-107922765D01*
X98315143Y-106814904D02*
X98500927Y-106369057D01*
X95864672Y-108346819D02*
X96306503Y-108335029D01*
X94422002Y-95872539D02*
X93964409Y-95694480D01*
X93132859Y-95245356D02*
X93610912Y-95261808D01*
X96867444Y-102152367D02*
X96767332Y-102117307D01*
X96663662Y-102450135D02*
X96867444Y-102152367D01*
X96543387Y-102425542D02*
X96663662Y-102450135D01*
X97051900Y-103225124D02*
X96540021Y-102806128D01*
X97000401Y-103313292D02*
X97051900Y-103225124D01*
X96855274Y-103258085D02*
X97000401Y-103313292D01*
X100625804Y-90492741D02*
X101105864Y-90634981D01*
X95329063Y-96639977D02*
X94922360Y-96182004D01*
X95369510Y-94772939D02*
X95458745Y-94465424D01*
X100625804Y-95704821D02*
X101286204Y-95742921D01*
X100615644Y-95603221D02*
X100625804Y-95704821D01*
X98576249Y-90863581D02*
X98225729Y-91132821D01*
X94922360Y-96182004D02*
X94422002Y-95872539D01*
X95937899Y-97166297D02*
X96009372Y-97587456D01*
X96344816Y-103468043D02*
X95865611Y-103427562D01*
X96837155Y-103637371D02*
X96344816Y-103468043D01*
X93988326Y-107441779D02*
X93683556Y-107044533D01*
X95180321Y-103165141D02*
X95653488Y-103075651D01*
X93867042Y-104138706D02*
X94162121Y-103797384D01*
X95653488Y-103075651D02*
X96048266Y-103076769D01*
X106834344Y-105632594D02*
X106766973Y-105150948D01*
X106784409Y-106177489D02*
X106834344Y-105632594D01*
X104761947Y-103493195D02*
X105323182Y-103738472D01*
X106525106Y-102877783D02*
X106789995Y-102697888D01*
X106375583Y-102754087D02*
X106525106Y-102877783D01*
X105913104Y-107648803D02*
X106133187Y-107441809D01*
X96840160Y-108214137D02*
X97277413Y-108001226D01*
X96306503Y-108335029D02*
X96840160Y-108214137D01*
X98234440Y-105582058D02*
X98174600Y-106191620D01*
X90787623Y-98131607D02*
X90869246Y-98620161D01*
X93095705Y-100825826D02*
X93177983Y-101189069D01*
X102314904Y-92903201D02*
X102256484Y-92453621D01*
X101956764Y-95364461D02*
X102335224Y-95034261D01*
X101580817Y-105173532D02*
X101703874Y-104798422D01*
X102169807Y-106736115D02*
X102435346Y-107149134D01*
X102844095Y-108001256D02*
X102467013Y-107706954D01*
X101535791Y-105997426D02*
X101519710Y-105651194D01*
X100462246Y-105898311D02*
X100561658Y-106545054D01*
X103565712Y-107922795D02*
X103976141Y-107995075D01*
X103856684Y-94254481D02*
X103795724Y-94483081D01*
X104006544Y-94254481D02*
X103856684Y-94254481D01*
X103506110Y-96051076D02*
X103825612Y-95546656D01*
X103335816Y-95946165D02*
X103506110Y-96051076D01*
X103164470Y-96191459D02*
X103335816Y-95946165D01*
X103190341Y-96698500D02*
X103352093Y-96341483D01*
X103352093Y-96341483D02*
X103164470Y-96191459D01*
X102941427Y-96474916D02*
X103190341Y-96698500D01*
X102760898Y-96765925D02*
X102941427Y-96474916D01*
X103111926Y-97081854D02*
X102760898Y-96765925D01*
X103059428Y-97331263D02*
X103111926Y-97081854D01*
X94049029Y-100809753D02*
X93536981Y-100865047D01*
X93632770Y-100151043D02*
X93046072Y-100107302D01*
X99316479Y-105674352D02*
X99274252Y-105235524D01*
X98683432Y-104536263D02*
X98843109Y-104947397D01*
X97400409Y-103955729D02*
X97640689Y-104221351D01*
X97265609Y-94094461D02*
X97166549Y-93662661D01*
X95579219Y-99330616D02*
X95664179Y-99200650D01*
X95338284Y-99652938D02*
X95579219Y-99330616D01*
X106761536Y-101566004D02*
X106955209Y-101553819D01*
X109264428Y-97334255D02*
X109320812Y-97631079D01*
X108923817Y-97444926D02*
X109264428Y-97334255D01*
X105239621Y-100901416D02*
X104989975Y-100774215D01*
X105442554Y-99775207D02*
X105890514Y-100019579D01*
X105643923Y-101077182D02*
X105239621Y-100901416D01*
X104757156Y-100123429D02*
X105098826Y-100402338D01*
X104601511Y-98723806D02*
X104779882Y-99034408D01*
X103475684Y-94493241D02*
X103577284Y-94142721D01*
X102855924Y-94094461D02*
X102954984Y-93662661D01*
X96945569Y-95074901D02*
X96645849Y-94493241D01*
X102147264Y-93964921D02*
X102286964Y-93393421D01*
X93964409Y-95694480D02*
X93518781Y-95611113D01*
X95541482Y-95312214D02*
X95881201Y-95622899D01*
X106488733Y-100151033D02*
X107075431Y-100107292D01*
X105088592Y-99951642D02*
X104783219Y-99652928D01*
X108090595Y-100124637D02*
X107477432Y-100374610D01*
X109333880Y-98131597D02*
X109252257Y-98620151D01*
X107025798Y-100825816D02*
X106943520Y-101189059D01*
X106584522Y-100865037D02*
X107025798Y-100825816D01*
X106943520Y-101189059D02*
X106499104Y-101218618D01*
X107959814Y-99787890D02*
X108312092Y-99515856D01*
X105529815Y-100660237D02*
X106072474Y-100809743D01*
X106041649Y-101166951D02*
X105643923Y-101077182D01*
X105098826Y-100402338D02*
X105529815Y-100660237D01*
X108824627Y-99506895D02*
X108487019Y-99856955D01*
X109104511Y-99036714D02*
X108824627Y-99506895D01*
X105890514Y-100019579D02*
X106488733Y-100151033D01*
X106955209Y-101553819D02*
X107063770Y-101855055D01*
X90857075Y-97334265D02*
X90800691Y-97631089D01*
X105806729Y-102040265D02*
X105896136Y-101739836D01*
X106352247Y-102350334D02*
X105806729Y-102040265D01*
X106535932Y-102499444D02*
X106352247Y-102350334D01*
X106657171Y-102411359D02*
X106535932Y-102499444D01*
X107063104Y-102512022D02*
X106657171Y-102411359D01*
X103774256Y-97550352D02*
X103814500Y-97222132D01*
X103620332Y-96558788D02*
X103492636Y-96979519D01*
X105039441Y-95846644D02*
X104752387Y-96097486D01*
X104464096Y-97569244D02*
X104573679Y-97100983D01*
X104472996Y-98089811D02*
X104464096Y-97569244D01*
X108971541Y-96556035D02*
X108687916Y-96143426D01*
X104535867Y-96368141D02*
X104304540Y-96790495D01*
X105867608Y-95419984D02*
X105451806Y-95595147D01*
X94253902Y-95419984D02*
X94669704Y-95595147D01*
X95816970Y-96790495D02*
X95937899Y-97166297D01*
X97844729Y-95582901D02*
X98205409Y-95834361D01*
X97946329Y-94653261D02*
X98276529Y-95003781D01*
X99015669Y-90634981D02*
X98576249Y-90863581D01*
X98164769Y-95364461D02*
X97786309Y-95034261D01*
X96007178Y-98144922D02*
X96106944Y-98166655D01*
X96014836Y-97989838D02*
X96007178Y-98144922D01*
X96009372Y-97587456D02*
X96014836Y-97989838D01*
X95845749Y-93934441D02*
X96114989Y-94254481D01*
X101286204Y-95742921D02*
X101585924Y-95603221D01*
X98555929Y-91313161D02*
X98995349Y-91033761D01*
X93696552Y-105324053D02*
X93652154Y-105812971D01*
X94162121Y-103797384D02*
X94528736Y-103482918D01*
X93462425Y-106601308D02*
X93337104Y-106177459D01*
X94034156Y-102530199D02*
X93745930Y-102754057D01*
X94747911Y-102960863D02*
X94301155Y-103217103D01*
X103747532Y-96309142D02*
X103620332Y-96558788D01*
X104573679Y-97100983D02*
X104792447Y-96639977D01*
X103971307Y-95929302D02*
X103747532Y-96309142D01*
X103814500Y-97222132D02*
X103926978Y-96795662D01*
X104511258Y-98445937D02*
X104472996Y-98089811D01*
X97456109Y-93093701D02*
X97494209Y-93543281D01*
X102256484Y-91544301D02*
X102485084Y-91973561D01*
X101545284Y-90863581D02*
X101895804Y-91132821D01*
X103733482Y-95197351D02*
X103475385Y-95019482D01*
X104196950Y-94774348D02*
X103733482Y-95197351D01*
X104395523Y-94645731D02*
X104196950Y-94774348D01*
X104349214Y-94503206D02*
X104395523Y-94645731D01*
X104570390Y-94148246D02*
X104349214Y-94503206D01*
X104662765Y-94465424D02*
X104570390Y-94148246D01*
X106789995Y-102697888D02*
X107063104Y-102512022D01*
X104924527Y-102087836D02*
X105502989Y-102235827D01*
X104971679Y-101893458D02*
X104924527Y-102087836D01*
X104685442Y-101806298D02*
X104971679Y-101893458D01*
X104211212Y-101987587D02*
X104600739Y-102031098D01*
X104600739Y-102031098D02*
X104685442Y-101806298D01*
X101405584Y-96464281D02*
X101507184Y-96433801D01*
X97555169Y-96202661D02*
X97844729Y-96035021D01*
X99559850Y-106545024D02*
X99436016Y-106888319D01*
X98929701Y-105999285D02*
X98824058Y-106503358D01*
X98174600Y-106191620D02*
X97951701Y-106736085D01*
X98417634Y-104798392D02*
X98227906Y-104415657D01*
X103625544Y-93954761D02*
X103945584Y-93944601D01*
X102975304Y-94704061D02*
X102767024Y-95054581D01*
X96178606Y-100305216D02*
X96039358Y-100478970D01*
X90869246Y-98620161D02*
X91016992Y-99036724D01*
X93724727Y-101577703D02*
X93359967Y-101566014D01*
X94349393Y-104118681D02*
X94038646Y-104498854D01*
X93354540Y-105150918D02*
X93517913Y-104701347D01*
X94856005Y-103287427D02*
X95180321Y-103165141D01*
X94618524Y-102235797D02*
X94034156Y-102530199D01*
X93652154Y-105812971D02*
X93710242Y-106225647D01*
X94135854Y-107052907D02*
X94418918Y-107359032D01*
X98585717Y-105997396D02*
X98601798Y-105651164D01*
X99659262Y-105898281D02*
X99559850Y-106545024D01*
X96555796Y-107922765D02*
X96145367Y-107995045D01*
X95227075Y-107845902D02*
X94848461Y-107671291D01*
X100847256Y-105235554D02*
X100891086Y-104958820D01*
X101981054Y-105080538D02*
X101887068Y-105582088D01*
X100805029Y-105674382D02*
X100847256Y-105235554D01*
X101438076Y-104536293D02*
X101278399Y-104947427D01*
X102721099Y-103955759D02*
X102480819Y-104221381D01*
X98205409Y-95834361D02*
X98614349Y-96052801D01*
X98726109Y-96103601D02*
X98715949Y-96464281D01*
X97354509Y-95902941D02*
X97174169Y-95664181D01*
X102175204Y-94653261D02*
X101845004Y-95003781D01*
X93596407Y-102877753D02*
X93331518Y-102697858D01*
X93745930Y-102754057D02*
X93596407Y-102877753D01*
X94208409Y-107648773D02*
X93988326Y-107441779D01*
X94418918Y-107359032D02*
X94208409Y-107648773D01*
X102665424Y-93093701D02*
X102627324Y-93543281D01*
X100182394Y-106126752D02*
X99869041Y-106118946D01*
X100308712Y-106741388D02*
X100182394Y-106126752D01*
X100393762Y-106962160D02*
X100308712Y-106741388D01*
X100272523Y-107050245D02*
X100393762Y-106962160D01*
X100242818Y-107467417D02*
X100272523Y-107050245D01*
X100503983Y-107265112D02*
X100242818Y-107467417D01*
X93518781Y-95611113D02*
X93073885Y-95624130D01*
X95997444Y-96333688D02*
X95646301Y-95893768D01*
X93057733Y-101855065D02*
X92946033Y-102165964D01*
X94925510Y-101252111D02*
X94370536Y-101472395D01*
X101936444Y-96228061D02*
X102345384Y-96464281D01*
X101715464Y-96355061D02*
X101936444Y-96228061D01*
X98225729Y-91132821D02*
X97865049Y-91544301D01*
X99334279Y-104236787D02*
X99803964Y-104286050D01*
X99230151Y-104004154D02*
X99334279Y-104236787D01*
X99043651Y-103733651D02*
X99107932Y-103818028D01*
X98823430Y-104019475D02*
X99043651Y-103733651D01*
X93564857Y-100516229D02*
X93944530Y-100482021D01*
X95042839Y-99460797D02*
X94678949Y-99775217D01*
X101916124Y-95834361D02*
X101507184Y-96052801D01*
X102794964Y-95534641D02*
X103175964Y-95074901D01*
X106469359Y-105813001D02*
X106411271Y-106225677D01*
X105985659Y-107052937D02*
X105702595Y-107359062D01*
X106082867Y-104498884D02*
X106299860Y-104896939D01*
X105959083Y-102880873D02*
X105558626Y-102653787D01*
X106411271Y-106225677D02*
X106220000Y-106710000D01*
X106220000Y-106710000D02*
X105985659Y-107052937D01*
D11*
G04 #@! TO.P,REF\002A\002A,1*
G04 #@! TO.N,N/C*
X101680000Y-97800000D03*
G04 #@! TD*
G04 #@! TO.P,REF\002A\002A,1*
G04 #@! TO.N,N/C*
X98420000Y-97780000D03*
G04 #@! TD*
G04 #@! TO.P,REF\002A\002A,1*
G04 #@! TO.N,N/C*
X97420000Y-100910000D03*
G04 #@! TD*
G04 #@! TO.P,REF\002A\002A,1*
G04 #@! TO.N,N/C*
X100070000Y-102820000D03*
G04 #@! TD*
G04 #@! TO.P,REF\002A\002A,1*
G04 #@! TO.N,N/C*
X102670000Y-100890000D03*
G04 #@! TD*
D12*
G04 #@! TO.N,N/C*
G04 #@! TO.C,REF\002A\002A*
G36*
X100691958Y-96190710D02*
X100706276Y-96192834D01*
X100720317Y-96196351D01*
X100733946Y-96201228D01*
X100747031Y-96207417D01*
X100759447Y-96214858D01*
X100771073Y-96223481D01*
X100781798Y-96233202D01*
X100791519Y-96243927D01*
X100800142Y-96255553D01*
X100807583Y-96267969D01*
X100813772Y-96281054D01*
X100818649Y-96294683D01*
X100822166Y-96308724D01*
X100824290Y-96323042D01*
X100825000Y-96337500D01*
X100825000Y-96682500D01*
X100824290Y-96696958D01*
X100822166Y-96711276D01*
X100818649Y-96725317D01*
X100813772Y-96738946D01*
X100807583Y-96752031D01*
X100800142Y-96764447D01*
X100791519Y-96776073D01*
X100781798Y-96786798D01*
X100771073Y-96796519D01*
X100759447Y-96805142D01*
X100747031Y-96812583D01*
X100733946Y-96818772D01*
X100720317Y-96823649D01*
X100706276Y-96827166D01*
X100691958Y-96829290D01*
X100677500Y-96830000D01*
X100382500Y-96830000D01*
X100368042Y-96829290D01*
X100353724Y-96827166D01*
X100339683Y-96823649D01*
X100326054Y-96818772D01*
X100312969Y-96812583D01*
X100300553Y-96805142D01*
X100288927Y-96796519D01*
X100278202Y-96786798D01*
X100268481Y-96776073D01*
X100259858Y-96764447D01*
X100252417Y-96752031D01*
X100246228Y-96738946D01*
X100241351Y-96725317D01*
X100237834Y-96711276D01*
X100235710Y-96696958D01*
X100235000Y-96682500D01*
X100235000Y-96337500D01*
X100235710Y-96323042D01*
X100237834Y-96308724D01*
X100241351Y-96294683D01*
X100246228Y-96281054D01*
X100252417Y-96267969D01*
X100259858Y-96255553D01*
X100268481Y-96243927D01*
X100278202Y-96233202D01*
X100288927Y-96223481D01*
X100300553Y-96214858D01*
X100312969Y-96207417D01*
X100326054Y-96201228D01*
X100339683Y-96196351D01*
X100353724Y-96192834D01*
X100368042Y-96190710D01*
X100382500Y-96190000D01*
X100677500Y-96190000D01*
X100691958Y-96190710D01*
X100691958Y-96190710D01*
G37*
D13*
G04 #@! TD*
G04 #@! TO.P,REF\002A\002A,2*
G04 #@! TO.N,N/C*
X100530000Y-96510000D03*
D12*
G04 #@! TO.N,N/C*
G04 #@! TO.C,REF\002A\002A*
G36*
X99721958Y-96190710D02*
X99736276Y-96192834D01*
X99750317Y-96196351D01*
X99763946Y-96201228D01*
X99777031Y-96207417D01*
X99789447Y-96214858D01*
X99801073Y-96223481D01*
X99811798Y-96233202D01*
X99821519Y-96243927D01*
X99830142Y-96255553D01*
X99837583Y-96267969D01*
X99843772Y-96281054D01*
X99848649Y-96294683D01*
X99852166Y-96308724D01*
X99854290Y-96323042D01*
X99855000Y-96337500D01*
X99855000Y-96682500D01*
X99854290Y-96696958D01*
X99852166Y-96711276D01*
X99848649Y-96725317D01*
X99843772Y-96738946D01*
X99837583Y-96752031D01*
X99830142Y-96764447D01*
X99821519Y-96776073D01*
X99811798Y-96786798D01*
X99801073Y-96796519D01*
X99789447Y-96805142D01*
X99777031Y-96812583D01*
X99763946Y-96818772D01*
X99750317Y-96823649D01*
X99736276Y-96827166D01*
X99721958Y-96829290D01*
X99707500Y-96830000D01*
X99412500Y-96830000D01*
X99398042Y-96829290D01*
X99383724Y-96827166D01*
X99369683Y-96823649D01*
X99356054Y-96818772D01*
X99342969Y-96812583D01*
X99330553Y-96805142D01*
X99318927Y-96796519D01*
X99308202Y-96786798D01*
X99298481Y-96776073D01*
X99289858Y-96764447D01*
X99282417Y-96752031D01*
X99276228Y-96738946D01*
X99271351Y-96725317D01*
X99267834Y-96711276D01*
X99265710Y-96696958D01*
X99265000Y-96682500D01*
X99265000Y-96337500D01*
X99265710Y-96323042D01*
X99267834Y-96308724D01*
X99271351Y-96294683D01*
X99276228Y-96281054D01*
X99282417Y-96267969D01*
X99289858Y-96255553D01*
X99298481Y-96243927D01*
X99308202Y-96233202D01*
X99318927Y-96223481D01*
X99330553Y-96214858D01*
X99342969Y-96207417D01*
X99356054Y-96201228D01*
X99369683Y-96196351D01*
X99383724Y-96192834D01*
X99398042Y-96190710D01*
X99412500Y-96190000D01*
X99707500Y-96190000D01*
X99721958Y-96190710D01*
X99721958Y-96190710D01*
G37*
D13*
G04 #@! TD*
G04 #@! TO.P,REF\002A\002A,1*
G04 #@! TO.N,N/C*
X99560000Y-96510000D03*
D14*
G04 #@! TO.N,*
X96030000Y-98560000D02*
X95921713Y-98838369D01*
X96030000Y-98560000D02*
X95610000Y-98450000D01*
X95921713Y-98838369D02*
X95520000Y-98730000D01*
X102730000Y-103450000D02*
X102480000Y-103650000D01*
X102960000Y-103780000D02*
X102730000Y-103450000D01*
X102730000Y-103950000D02*
X102480000Y-103650000D01*
X104140000Y-98550000D02*
X104230000Y-98840000D01*
X104140000Y-98550000D02*
X104520000Y-98420000D01*
X104230000Y-98840000D02*
X104600000Y-98730000D01*
X99910000Y-95710000D02*
X100210000Y-95710000D01*
X100210000Y-95710000D02*
X100210000Y-95320000D01*
X99910000Y-95710000D02*
X99910000Y-95310000D01*
D15*
X97420000Y-100910000D02*
X97710000Y-102900000D01*
X100070000Y-102820000D02*
X98110000Y-103130000D01*
D14*
X97150000Y-103780000D02*
X97710000Y-102900000D01*
X97400000Y-103960000D02*
X98110000Y-103130000D01*
X99560000Y-96510000D02*
X98420000Y-97780000D01*
X100530000Y-96510000D02*
X101680000Y-97800000D01*
G04 #@! TD*
M02*
