G04 #@! TF.GenerationSoftware,KiCad,Pcbnew,5.0.2-bee76a0~70~ubuntu18.04.1*
G04 #@! TF.CreationDate,2019-06-24T09:26:36+02:00*
G04 #@! TF.ProjectId,PocketPCR_Lid,506f636b-6574-4504-9352-5f4c69642e6b,rev?*
G04 #@! TF.SameCoordinates,Original*
G04 #@! TF.FileFunction,Copper,L1,Top*
G04 #@! TF.FilePolarity,Positive*
%FSLAX46Y46*%
G04 Gerber Fmt 4.6, Leading zero omitted, Abs format (unit mm)*
G04 Created by KiCad (PCBNEW 5.0.2-bee76a0~70~ubuntu18.04.1) date Mo 24 Jun 2019 09:26:36 CEST*
%MOMM*%
%LPD*%
G01*
G04 APERTURE LIST*
G04 #@! TA.AperFunction,BGAPad,CuDef*
%ADD10C,1.800000*%
G04 #@! TD*
G04 #@! TA.AperFunction,Conductor*
%ADD11C,0.100000*%
G04 #@! TD*
G04 #@! TA.AperFunction,SMDPad,CuDef*
%ADD12C,0.590000*%
G04 #@! TD*
G04 #@! TA.AperFunction,ViaPad*
%ADD13C,0.650000*%
G04 #@! TD*
G04 #@! TA.AperFunction,Conductor*
%ADD14C,0.150000*%
G04 #@! TD*
G04 #@! TA.AperFunction,Conductor*
%ADD15C,0.650000*%
G04 #@! TD*
G04 #@! TA.AperFunction,Conductor*
%ADD16C,0.400000*%
G04 #@! TD*
G04 #@! TA.AperFunction,Conductor*
%ADD17C,0.300000*%
G04 #@! TD*
G04 APERTURE END LIST*
D10*
G04 #@! TO.P,SB2,1*
G04 #@! TO.N,N/C*
X98000000Y-87000000D03*
G04 #@! TD*
G04 #@! TO.P,SB2,1*
G04 #@! TO.N,N/C*
X102000000Y-87000000D03*
G04 #@! TD*
G04 #@! TO.P,ST2,1*
G04 #@! TO.N,Net-(NTC1-Pad1)*
X101763300Y-97572900D03*
G04 #@! TD*
G04 #@! TO.P,ST1,1*
G04 #@! TO.N,Net-(NTC1-Pad2)*
X98236600Y-97572900D03*
G04 #@! TD*
G04 #@! TO.P,HT1,1*
G04 #@! TO.N,Net-(HB1-Pad1)*
X97146800Y-100927000D03*
G04 #@! TD*
G04 #@! TO.P,HT2,1*
G04 #@! TO.N,Net-(HB1-Pad1)*
X100000000Y-103000000D03*
G04 #@! TD*
G04 #@! TO.P,CT1,1*
G04 #@! TO.N,Net-(CB1-Pad1)*
X102853000Y-100927000D03*
G04 #@! TD*
D11*
G04 #@! TO.N,Net-(NTC1-Pad2)*
G04 #@! TO.C,NTC1*
G36*
X99675958Y-96139710D02*
X99690276Y-96141834D01*
X99704317Y-96145351D01*
X99717946Y-96150228D01*
X99731031Y-96156417D01*
X99743447Y-96163858D01*
X99755073Y-96172481D01*
X99765798Y-96182202D01*
X99775519Y-96192927D01*
X99784142Y-96204553D01*
X99791583Y-96216969D01*
X99797772Y-96230054D01*
X99802649Y-96243683D01*
X99806166Y-96257724D01*
X99808290Y-96272042D01*
X99809000Y-96286500D01*
X99809000Y-96631500D01*
X99808290Y-96645958D01*
X99806166Y-96660276D01*
X99802649Y-96674317D01*
X99797772Y-96687946D01*
X99791583Y-96701031D01*
X99784142Y-96713447D01*
X99775519Y-96725073D01*
X99765798Y-96735798D01*
X99755073Y-96745519D01*
X99743447Y-96754142D01*
X99731031Y-96761583D01*
X99717946Y-96767772D01*
X99704317Y-96772649D01*
X99690276Y-96776166D01*
X99675958Y-96778290D01*
X99661500Y-96779000D01*
X99366500Y-96779000D01*
X99352042Y-96778290D01*
X99337724Y-96776166D01*
X99323683Y-96772649D01*
X99310054Y-96767772D01*
X99296969Y-96761583D01*
X99284553Y-96754142D01*
X99272927Y-96745519D01*
X99262202Y-96735798D01*
X99252481Y-96725073D01*
X99243858Y-96713447D01*
X99236417Y-96701031D01*
X99230228Y-96687946D01*
X99225351Y-96674317D01*
X99221834Y-96660276D01*
X99219710Y-96645958D01*
X99219000Y-96631500D01*
X99219000Y-96286500D01*
X99219710Y-96272042D01*
X99221834Y-96257724D01*
X99225351Y-96243683D01*
X99230228Y-96230054D01*
X99236417Y-96216969D01*
X99243858Y-96204553D01*
X99252481Y-96192927D01*
X99262202Y-96182202D01*
X99272927Y-96172481D01*
X99284553Y-96163858D01*
X99296969Y-96156417D01*
X99310054Y-96150228D01*
X99323683Y-96145351D01*
X99337724Y-96141834D01*
X99352042Y-96139710D01*
X99366500Y-96139000D01*
X99661500Y-96139000D01*
X99675958Y-96139710D01*
X99675958Y-96139710D01*
G37*
D12*
G04 #@! TD*
G04 #@! TO.P,NTC1,2*
G04 #@! TO.N,Net-(NTC1-Pad2)*
X99514000Y-96459000D03*
D11*
G04 #@! TO.N,Net-(NTC1-Pad1)*
G04 #@! TO.C,NTC1*
G36*
X100645958Y-96139710D02*
X100660276Y-96141834D01*
X100674317Y-96145351D01*
X100687946Y-96150228D01*
X100701031Y-96156417D01*
X100713447Y-96163858D01*
X100725073Y-96172481D01*
X100735798Y-96182202D01*
X100745519Y-96192927D01*
X100754142Y-96204553D01*
X100761583Y-96216969D01*
X100767772Y-96230054D01*
X100772649Y-96243683D01*
X100776166Y-96257724D01*
X100778290Y-96272042D01*
X100779000Y-96286500D01*
X100779000Y-96631500D01*
X100778290Y-96645958D01*
X100776166Y-96660276D01*
X100772649Y-96674317D01*
X100767772Y-96687946D01*
X100761583Y-96701031D01*
X100754142Y-96713447D01*
X100745519Y-96725073D01*
X100735798Y-96735798D01*
X100725073Y-96745519D01*
X100713447Y-96754142D01*
X100701031Y-96761583D01*
X100687946Y-96767772D01*
X100674317Y-96772649D01*
X100660276Y-96776166D01*
X100645958Y-96778290D01*
X100631500Y-96779000D01*
X100336500Y-96779000D01*
X100322042Y-96778290D01*
X100307724Y-96776166D01*
X100293683Y-96772649D01*
X100280054Y-96767772D01*
X100266969Y-96761583D01*
X100254553Y-96754142D01*
X100242927Y-96745519D01*
X100232202Y-96735798D01*
X100222481Y-96725073D01*
X100213858Y-96713447D01*
X100206417Y-96701031D01*
X100200228Y-96687946D01*
X100195351Y-96674317D01*
X100191834Y-96660276D01*
X100189710Y-96645958D01*
X100189000Y-96631500D01*
X100189000Y-96286500D01*
X100189710Y-96272042D01*
X100191834Y-96257724D01*
X100195351Y-96243683D01*
X100200228Y-96230054D01*
X100206417Y-96216969D01*
X100213858Y-96204553D01*
X100222481Y-96192927D01*
X100232202Y-96182202D01*
X100242927Y-96172481D01*
X100254553Y-96163858D01*
X100266969Y-96156417D01*
X100280054Y-96150228D01*
X100293683Y-96145351D01*
X100307724Y-96141834D01*
X100322042Y-96139710D01*
X100336500Y-96139000D01*
X100631500Y-96139000D01*
X100645958Y-96139710D01*
X100645958Y-96139710D01*
G37*
D12*
G04 #@! TD*
G04 #@! TO.P,NTC1,1*
G04 #@! TO.N,Net-(NTC1-Pad1)*
X100484000Y-96459000D03*
D13*
G04 #@! TO.N,*
X100628000Y-87014000D03*
X100651000Y-87747000D03*
X99244000Y-87765000D03*
X99271000Y-87040000D03*
G04 #@! TO.N,Net-(NTC1-Pad1)*
X100417000Y-98044000D03*
G04 #@! TO.N,Net-(NTC1-Pad2)*
X98268000Y-99001000D03*
X99583000Y-98045000D03*
G04 #@! TO.N,Net-(CB1-Pad1)*
X101730000Y-98999000D03*
X101990000Y-99791000D03*
G04 #@! TO.N,Net-(HB1-Pad1)*
X100813000Y-101827000D03*
X101487000Y-101338000D03*
X99187000Y-101828000D03*
X98512000Y-101338000D03*
X98011000Y-99792000D03*
G04 #@! TD*
D14*
G04 #@! TO.N,*
X90068180Y-96915910D02*
X90232000Y-96431710D01*
X100019895Y-110436120D02*
X99483665Y-110422520D01*
X96921250Y-109967520D02*
X96437080Y-109803680D01*
X107388075Y-92645960D02*
X107733105Y-93007880D01*
X107733105Y-93007880D02*
X108060615Y-93386010D01*
X108060615Y-93386010D02*
X108369955Y-93779690D01*
X108369955Y-93779690D02*
X108660475Y-94188260D01*
X108660475Y-94188260D02*
X108931515Y-94611090D01*
X108931515Y-94611090D02*
X109182415Y-95047490D01*
X109182415Y-95047490D02*
X109412535Y-95496840D01*
X109412535Y-95496840D02*
X109621205Y-95958460D01*
X109621205Y-95958460D02*
X109807785Y-96431710D01*
X109807785Y-96431710D02*
X109971605Y-96915910D01*
X109971605Y-96915910D02*
X110112025Y-97410440D01*
X110112025Y-97410440D02*
X110228375Y-97914610D01*
X110228375Y-97914610D02*
X110319975Y-98427800D01*
X110319975Y-98427800D02*
X110386275Y-98949350D01*
X110386275Y-98949350D02*
X110426475Y-99478580D01*
X110426475Y-99478580D02*
X110440075Y-100014850D01*
X90857370Y-104982220D02*
X90627250Y-104532870D01*
X89613310Y-99478580D02*
X89653510Y-98949350D01*
X96921250Y-90062190D02*
X97415730Y-89921750D01*
X93013590Y-92300900D02*
X93391690Y-91973360D01*
X110426475Y-100551120D02*
X110386275Y-101080360D01*
X90627250Y-95496840D02*
X90857370Y-95047490D01*
X103602705Y-109803690D02*
X103118535Y-109967520D01*
X102119925Y-89805390D02*
X102624055Y-89921750D01*
X90857370Y-95047490D02*
X91108270Y-94611090D01*
X89653510Y-98949350D02*
X89719810Y-98427810D01*
X107026185Y-92300910D02*
X107388075Y-92645960D01*
X99483665Y-110422520D02*
X98954490Y-110382320D01*
X109412535Y-104532870D02*
X109182415Y-104982220D01*
X89927760Y-97410440D02*
X90068180Y-96915910D01*
X91108270Y-94611090D02*
X91379310Y-94188260D01*
X109621205Y-104071250D02*
X109412535Y-104532870D01*
X94193870Y-108656270D02*
X93785330Y-108365720D01*
X108060615Y-106643700D02*
X107733105Y-107021830D01*
X103118535Y-109967520D02*
X102624055Y-110107960D01*
X91669830Y-106250020D02*
X91379310Y-105841440D01*
X106254455Y-108365720D02*
X105845915Y-108656270D01*
X109971605Y-103113800D02*
X109807785Y-103598000D01*
X106648095Y-91973360D02*
X107026185Y-92300910D01*
X89811410Y-97914610D02*
X89927760Y-97410440D01*
X101606785Y-110316020D02*
X101085295Y-110382320D01*
X98954490Y-110382320D02*
X98433000Y-110316020D01*
X97415730Y-110107960D02*
X96921250Y-109967520D01*
X93013600Y-107728800D02*
X92651710Y-107383750D01*
X93391690Y-91973360D02*
X93785330Y-91663990D01*
X101606785Y-89713690D02*
X102119925Y-89805390D01*
X93785330Y-91663990D02*
X94193870Y-91373440D01*
X90068180Y-103113800D02*
X89927760Y-102619270D01*
X95963890Y-109617100D02*
X95502310Y-109408390D01*
X102624055Y-110107960D02*
X102119925Y-110224320D01*
X106648095Y-108056340D02*
X106254455Y-108365720D01*
X89719810Y-101601900D02*
X89653510Y-101080360D01*
X104986775Y-109178260D02*
X104537475Y-109408390D01*
X95053020Y-90851450D02*
X95502310Y-90621310D01*
X108931515Y-105418610D02*
X108660475Y-105841440D01*
X105845915Y-108656270D02*
X105423135Y-108927330D01*
X106254455Y-91663990D02*
X106648095Y-91973360D01*
X104075895Y-109617100D02*
X103602705Y-109803690D01*
X93391690Y-108056340D02*
X93013600Y-107728800D01*
X98433000Y-89713690D02*
X98954490Y-89647390D01*
X92306680Y-93007880D02*
X92651710Y-92645960D01*
X91979170Y-106643700D02*
X91669830Y-106250020D01*
X95053020Y-109178260D02*
X94616650Y-108927330D01*
X110386275Y-101080360D02*
X110319975Y-101601910D01*
X110319975Y-101601910D02*
X110228375Y-102115090D01*
X91669830Y-93779700D02*
X91979170Y-93386010D01*
X92306680Y-107021830D02*
X91979170Y-106643700D01*
X94616650Y-91102370D02*
X95053020Y-90851450D01*
X89927760Y-102619270D02*
X89811410Y-102115090D01*
X110228375Y-102115090D02*
X110112025Y-102619270D01*
X95963890Y-90412610D02*
X96437080Y-90226020D01*
X92651710Y-92645960D02*
X93013590Y-92300900D01*
X90627250Y-104532870D02*
X90418580Y-104071250D01*
X100556115Y-110422520D02*
X100019895Y-110436120D01*
X94616650Y-108927330D02*
X94193870Y-108656270D01*
X95502310Y-90621310D02*
X95963890Y-90412610D01*
X101085295Y-89647390D02*
X101606785Y-89713690D01*
X89653510Y-101080360D02*
X89613310Y-100551120D01*
X103602705Y-90226030D02*
X104075895Y-90412610D01*
X91979170Y-93386010D02*
X92306680Y-93007880D01*
X97919860Y-89805390D02*
X98433000Y-89713690D01*
X91379310Y-94188260D02*
X91669830Y-93779700D01*
X96437080Y-90226020D02*
X96921250Y-90062190D01*
X94193870Y-91373440D02*
X94616650Y-91102370D01*
X109807785Y-103598000D02*
X109621205Y-104071250D01*
X104075895Y-90412610D02*
X104537475Y-90621310D01*
X90418580Y-95958460D02*
X90627250Y-95496840D01*
X91108270Y-105418610D02*
X90857370Y-104982220D01*
X101085295Y-110382320D02*
X100556115Y-110422520D01*
X96437080Y-109803680D02*
X95963890Y-109617100D01*
X105845915Y-91373440D02*
X106254455Y-91663990D01*
X104986765Y-90851450D02*
X105423135Y-91102370D01*
X89719810Y-98427810D02*
X89811410Y-97914610D01*
X89811410Y-102115090D02*
X89719810Y-101601900D01*
X90418580Y-104071250D02*
X90232000Y-103598000D01*
X104537475Y-90621310D02*
X104986765Y-90851450D01*
X103118535Y-90062190D02*
X103602705Y-90226030D01*
X108369955Y-106250010D02*
X108060615Y-106643700D01*
X104537475Y-109408390D02*
X104075895Y-109617100D01*
X92651710Y-107383750D02*
X92306680Y-107021830D01*
X89613310Y-100551120D02*
X89599710Y-100014850D01*
X105423135Y-91102370D02*
X105845915Y-91373440D01*
X97919870Y-110224320D02*
X97415730Y-110107960D01*
X90232000Y-96431710D02*
X90418580Y-95958460D01*
X109182415Y-104982220D02*
X108931515Y-105418610D01*
X105423135Y-108927330D02*
X104986775Y-109178260D01*
X110440075Y-100014850D02*
X110426475Y-100551120D01*
X89599710Y-100014850D02*
X89613310Y-99478580D01*
X95502310Y-109408390D02*
X95053020Y-109178260D01*
X102119925Y-110224320D02*
X101606785Y-110316020D01*
X107733105Y-107021830D02*
X107388075Y-107383750D01*
X98433000Y-110316020D02*
X97919870Y-110224320D01*
X102624055Y-89921750D02*
X103118535Y-90062190D01*
X93785330Y-108365720D02*
X93391690Y-108056340D01*
X107026195Y-107728810D02*
X106648095Y-108056340D01*
X110112025Y-102619270D02*
X109971605Y-103113800D01*
X108660475Y-105841440D02*
X108369955Y-106250010D01*
X97415730Y-89921750D02*
X97919860Y-89805390D01*
X91379310Y-105841440D02*
X91108270Y-105418610D01*
X107388075Y-107383750D02*
X107026195Y-107728810D01*
X90232000Y-103598000D02*
X90068180Y-103113800D01*
X95630463Y-107197730D02*
X95288635Y-106978580D01*
X95983277Y-107400590D02*
X95630463Y-107197730D01*
X96346546Y-107586650D02*
X95983277Y-107400590D01*
X92404933Y-103645030D02*
X92236215Y-103271840D01*
X92590988Y-104008300D02*
X92404933Y-103645030D01*
X92793853Y-104361110D02*
X92590988Y-104008300D01*
X105039931Y-106743700D02*
X104709619Y-106978590D01*
X105358203Y-106493590D02*
X105039931Y-106743700D01*
X105663900Y-106228790D02*
X105358203Y-106493590D01*
X99137721Y-108374010D02*
X98716084Y-108320410D01*
X99565578Y-108406510D02*
X99137721Y-108374010D01*
X99999127Y-108417510D02*
X99565578Y-108406510D01*
X101697056Y-108246310D02*
X101282171Y-108320410D01*
X102104658Y-108152210D02*
X101697056Y-108246310D01*
X102504461Y-108038680D02*
X102104658Y-108152210D01*
X93012993Y-104702940D02*
X92793853Y-104361110D01*
X93247882Y-105033260D02*
X93012993Y-104702940D01*
X93497995Y-105351530D02*
X93247882Y-105033260D01*
X91952913Y-97487120D02*
X92085369Y-97095650D01*
X91839381Y-97886920D02*
X91952913Y-97487120D01*
X91745311Y-98294520D02*
X91839381Y-97886920D01*
X101282174Y-91664600D02*
X101697060Y-91738700D01*
X91671221Y-98709410D02*
X91745311Y-98294520D01*
X91617641Y-99131040D02*
X91671221Y-98709410D01*
X91585101Y-99558900D02*
X91617641Y-99131040D01*
X93762799Y-94327680D02*
X94041764Y-94035080D01*
X93498000Y-94633370D02*
X93762799Y-94327680D01*
X93247891Y-94951640D02*
X93498000Y-94633370D01*
X96719745Y-92229540D02*
X97102337Y-92078690D01*
X96346550Y-92398260D02*
X96719745Y-92229540D01*
X95983281Y-92584310D02*
X96346550Y-92398260D01*
X94640051Y-106493580D02*
X94334356Y-106228780D01*
X94958323Y-106743690D02*
X94640051Y-106493580D01*
X95288635Y-106978580D02*
X94958323Y-106743690D01*
X104014977Y-107400600D02*
X103651708Y-107586650D01*
X104367789Y-107197730D02*
X104014977Y-107400600D01*
X104709619Y-106978590D02*
X104367789Y-107197730D01*
X91952909Y-102497780D02*
X91839381Y-102097980D01*
X92085362Y-102889250D02*
X91952909Y-102497780D01*
X92236215Y-103271840D02*
X92085362Y-102889250D01*
X95630470Y-92787180D02*
X95983281Y-92584310D01*
X95288640Y-93006320D02*
X95630470Y-92787180D01*
X94958327Y-93241210D02*
X95288640Y-93006320D01*
X100432675Y-108406510D02*
X99999127Y-108417510D01*
X100860533Y-108374010D02*
X100432675Y-108406510D01*
X101282171Y-108320410D02*
X100860533Y-108374010D01*
X93762797Y-105657220D02*
X93497995Y-105351530D01*
X94041760Y-105949820D02*
X93762797Y-105657220D01*
X94334356Y-106228780D02*
X94041760Y-105949820D01*
X107407266Y-104008310D02*
X107204403Y-104361120D01*
X107593322Y-103645040D02*
X107407266Y-104008310D01*
X107762039Y-103271850D02*
X107593322Y-103645040D01*
X102895921Y-107906220D02*
X102504461Y-108038680D01*
X103278513Y-107755370D02*
X102895921Y-107906220D01*
X103651708Y-107586650D02*
X103278513Y-107755370D01*
X92404937Y-96339870D02*
X92590993Y-95976600D01*
X92236220Y-96713060D02*
X92404937Y-96339870D01*
X92085369Y-97095650D02*
X92236220Y-96713060D01*
X108413163Y-100426010D02*
X108380623Y-100853870D01*
X108424123Y-99992460D02*
X108413163Y-100426010D01*
X107912889Y-102889260D02*
X107762039Y-103271850D01*
X108045345Y-102497790D02*
X107912889Y-102889260D01*
X108158873Y-102097990D02*
X108045345Y-102497790D01*
X108413158Y-99559010D02*
X108424118Y-99992560D01*
X108380628Y-99131150D02*
X108413158Y-99559010D01*
X108327048Y-98709510D02*
X108380628Y-99131150D01*
X108252958Y-98294630D02*
X108327048Y-98709510D01*
X106750375Y-94951750D02*
X106985264Y-95282070D01*
X106500262Y-94633480D02*
X106750375Y-94951750D01*
X106235461Y-94327790D02*
X106500262Y-94633480D01*
X105956498Y-94035190D02*
X106235461Y-94327790D01*
X108424118Y-99992560D02*
X108424123Y-99992460D01*
X94640056Y-93491320D02*
X94958327Y-93241210D01*
X94334359Y-93756120D02*
X94640056Y-93491320D01*
X94041764Y-94035080D02*
X94334359Y-93756120D01*
X108252953Y-101690390D02*
X108158873Y-102097990D01*
X108327043Y-101275500D02*
X108252953Y-101690390D01*
X108380623Y-100853870D02*
X108327043Y-101275500D01*
X104367794Y-92787280D02*
X104709622Y-93006430D01*
X104014981Y-92584420D02*
X104367794Y-92787280D01*
X103651712Y-92398370D02*
X104014981Y-92584420D01*
X103278517Y-92229650D02*
X103651712Y-92398370D01*
X96719741Y-107755360D02*
X96346546Y-107586650D01*
X97102338Y-107906220D02*
X96719741Y-107755360D01*
X97493793Y-108038670D02*
X97102338Y-107906220D01*
X98301202Y-91738600D02*
X98716087Y-91664500D01*
X97893588Y-108152210D02*
X97493793Y-108038670D01*
X98301198Y-108246310D02*
X97893588Y-108152210D01*
X98716084Y-108320410D02*
X98301198Y-108246310D01*
X105956494Y-105949830D02*
X105663900Y-106228790D01*
X106235459Y-105657230D02*
X105956494Y-105949830D01*
X106500259Y-105351540D02*
X106235459Y-105657230D01*
X91671211Y-101275500D02*
X91617631Y-100853860D01*
X91745301Y-101690380D02*
X91671211Y-101275500D01*
X91839381Y-102097980D02*
X91745301Y-101690380D01*
X91574141Y-99992450D02*
X91585101Y-99558900D01*
X91585101Y-100426000D02*
X91574141Y-99992450D01*
X91617631Y-100853860D02*
X91585101Y-100426000D01*
X106750368Y-105033270D02*
X106500259Y-105351540D01*
X106985261Y-104702950D02*
X106750368Y-105033270D01*
X107204403Y-104361120D02*
X106985261Y-104702950D01*
X97893590Y-91832700D02*
X98301202Y-91738600D01*
X97493797Y-91946230D02*
X97893590Y-91832700D01*
X97102337Y-92078690D02*
X97493797Y-91946230D01*
X107593324Y-96339980D02*
X107762042Y-96713170D01*
X107407269Y-95976710D02*
X107593324Y-96339980D01*
X107204404Y-95623900D02*
X107407269Y-95976710D01*
X106985264Y-95282070D02*
X107204404Y-95623900D01*
X105663901Y-93756230D02*
X105956498Y-94035190D01*
X105358206Y-93491430D02*
X105663901Y-93756230D01*
X105039935Y-93241320D02*
X105358206Y-93491430D01*
X104709622Y-93006430D02*
X105039935Y-93241320D01*
X93012998Y-95281960D02*
X93247891Y-94951640D01*
X92793856Y-95623790D02*
X93012998Y-95281960D01*
X92590993Y-95976600D02*
X92793856Y-95623790D01*
X102895930Y-92078800D02*
X103278517Y-92229650D01*
X102504465Y-91946340D02*
X102895930Y-92078800D01*
X102104669Y-91832800D02*
X102504465Y-91946340D01*
X101697060Y-91738700D02*
X102104669Y-91832800D01*
X108158878Y-97887030D02*
X108252958Y-98294630D01*
X108045349Y-97487230D02*
X108158878Y-97887030D01*
X107912895Y-97095760D02*
X108045349Y-97487230D01*
X107762042Y-96713170D02*
X107912895Y-97095760D01*
X97196442Y-90991240D02*
X97643693Y-90864240D01*
X92183815Y-94722880D02*
X92446584Y-94353360D01*
X93662007Y-93015940D02*
X94003989Y-92719710D01*
X91711722Y-95499970D02*
X91938663Y-95105280D01*
X91503582Y-95906350D02*
X91711722Y-95499970D01*
X91314840Y-96323840D02*
X91503582Y-95906350D01*
X92446584Y-94353360D02*
X92726382Y-93997320D01*
X90997907Y-97189770D02*
X91146085Y-96751840D01*
X90765661Y-98093000D02*
X90870901Y-97637020D01*
X93022613Y-93655340D02*
X93334686Y-93328010D01*
X90622841Y-99028810D02*
X90682781Y-98557130D01*
X90586441Y-100477470D02*
X90574181Y-99992460D01*
X90682781Y-101427790D02*
X90622841Y-100956110D01*
X91503580Y-104078570D02*
X91314838Y-103661080D01*
X91711720Y-104484960D02*
X91503580Y-104078570D01*
X91938663Y-104879640D02*
X91711720Y-104484960D01*
X92183813Y-105262040D02*
X91938663Y-104879640D01*
X92446583Y-105631560D02*
X92183813Y-105262040D01*
X92726380Y-105987610D02*
X92446583Y-105631560D01*
X93022613Y-106329590D02*
X92726380Y-105987610D01*
X93334684Y-106656910D02*
X93022613Y-106329590D01*
X93662005Y-106968990D02*
X93334684Y-106656910D01*
X94003987Y-107265220D02*
X93662005Y-106968990D01*
X107551683Y-94353370D02*
X107814453Y-94722880D01*
X108852185Y-96751840D02*
X109000361Y-97189770D01*
X108683428Y-96323840D02*
X108852185Y-96751840D01*
X109411837Y-99507450D02*
X109424097Y-99992460D01*
X108286546Y-95499970D02*
X108494685Y-95906360D01*
X95111952Y-108052940D02*
X94729552Y-107807780D01*
X108059607Y-95105280D02*
X108286546Y-95499970D01*
X96330517Y-91308170D02*
X96758519Y-91139410D01*
X109411829Y-100477470D02*
X109375429Y-100956110D01*
X107814453Y-94722880D02*
X108059607Y-95105280D01*
X95506640Y-108279880D02*
X95111952Y-108052940D01*
X108852187Y-103233080D02*
X108683432Y-103661080D01*
X106975657Y-93655340D02*
X107271886Y-93997320D01*
X90622841Y-100956110D02*
X90586441Y-100477470D01*
X99514128Y-109405140D02*
X99035488Y-109368740D01*
X106336261Y-93015940D02*
X106663582Y-93328010D01*
X100962781Y-90616190D02*
X101434461Y-90676090D01*
X91146085Y-96751840D02*
X91314840Y-96323840D01*
X101434461Y-90676090D02*
X101898590Y-90758990D01*
X92726382Y-93997320D02*
X93022613Y-93655340D01*
X90586441Y-99507450D02*
X90622841Y-99028810D01*
X105638235Y-92439910D02*
X105994279Y-92719710D01*
X103239752Y-108845520D02*
X102801829Y-108993690D01*
X102354578Y-109120690D02*
X101898593Y-109225940D01*
X107271886Y-93997320D02*
X107551683Y-94353370D01*
X102354575Y-90864250D02*
X102801826Y-90991240D01*
X109424097Y-99992460D02*
X109424089Y-99992460D01*
X101898590Y-90758990D02*
X102354575Y-90864250D01*
X104085240Y-91496910D02*
X104491626Y-91705050D01*
X96758519Y-91139410D02*
X97196442Y-90991240D01*
X105994279Y-92719710D02*
X106336261Y-93015940D01*
X103239749Y-91139420D02*
X103667751Y-91308170D01*
X95913028Y-91496910D02*
X96330517Y-91308170D01*
X91938663Y-95105280D02*
X92183815Y-94722880D01*
X109000361Y-97189770D02*
X109127365Y-97637020D01*
X108494685Y-95906360D02*
X108683428Y-96323840D01*
X104491626Y-91705050D02*
X104886314Y-91931990D01*
X105268714Y-92177140D02*
X105638235Y-92439910D01*
X109375429Y-100956110D02*
X109315489Y-101427790D01*
X90870901Y-97637020D02*
X90997907Y-97189770D01*
X98099677Y-109225940D02*
X97643692Y-109120680D01*
X106663586Y-106656910D02*
X106336263Y-106968980D01*
X95111952Y-91931990D02*
X95506642Y-91705050D01*
X104085244Y-108488020D02*
X103667754Y-108676760D01*
X109000364Y-102795150D02*
X108852187Y-103233080D01*
X91314838Y-103661080D02*
X91146082Y-103233080D01*
X108683432Y-103661080D02*
X108494689Y-104078570D01*
X94729552Y-107807780D02*
X94360034Y-107545010D01*
X101434462Y-109308840D02*
X100962782Y-109368740D01*
X108494689Y-104078570D02*
X108286550Y-104484960D01*
X95913026Y-108488020D02*
X95506640Y-108279880D01*
X90574181Y-99992460D02*
X90586441Y-99507450D01*
X94360034Y-107545010D02*
X94003987Y-107265220D01*
X108286550Y-104484960D02*
X108059611Y-104879650D01*
X109315489Y-101427790D02*
X109232609Y-101891920D01*
X100962782Y-109368740D02*
X100484141Y-109405140D01*
X94360033Y-92439910D02*
X94729554Y-92177140D01*
X102801826Y-90991240D02*
X103239749Y-91139420D01*
X104886317Y-108052940D02*
X104491630Y-108279880D01*
X104886314Y-91931990D02*
X105268714Y-92177140D01*
X108059611Y-104879650D02*
X107814457Y-105262040D01*
X91146082Y-103233080D02*
X90997906Y-102795150D01*
X107814457Y-105262040D02*
X107551685Y-105631560D01*
X90997906Y-102795150D02*
X90870903Y-102347900D01*
X107551685Y-105631560D02*
X107271890Y-105987610D01*
X109375437Y-99028810D02*
X109411837Y-99507450D01*
X96758518Y-108845510D02*
X96330516Y-108676760D01*
X95506642Y-91705050D02*
X95913028Y-91496910D01*
X90870903Y-102347900D02*
X90765661Y-101891920D01*
X109424089Y-99992460D02*
X109411829Y-100477470D01*
X106663582Y-93328010D02*
X106975657Y-93655340D01*
X103667754Y-108676760D02*
X103239752Y-108845520D01*
X107271890Y-105987610D02*
X106975659Y-106329590D01*
X96330516Y-108676760D02*
X95913026Y-108488020D01*
X93334686Y-93328010D02*
X93662007Y-93015940D01*
X90682781Y-98557130D02*
X90765661Y-98093000D01*
X106975659Y-106329590D02*
X106663586Y-106656910D01*
X98099678Y-90758990D02*
X98563808Y-90676090D01*
X109232607Y-98093000D02*
X109315497Y-98557130D01*
X105994283Y-107265220D02*
X105638239Y-107545010D01*
X98563808Y-90676090D02*
X99035487Y-90616190D01*
X109315497Y-98557130D02*
X109375437Y-99028810D01*
X105638239Y-107545010D02*
X105268718Y-107807780D01*
X94003989Y-92719710D02*
X94360033Y-92439910D01*
X105268718Y-107807780D02*
X104886317Y-108052940D01*
X94729554Y-92177140D02*
X95111952Y-91931990D01*
X104491630Y-108279880D02*
X104085244Y-108488020D01*
X103667751Y-91308170D02*
X104085240Y-91496910D01*
X102801829Y-108993690D02*
X102354578Y-109120690D01*
X90765661Y-101891920D02*
X90682781Y-101427790D01*
X101898593Y-109225940D02*
X101434462Y-109308840D01*
X97643693Y-90864240D02*
X98099678Y-90758990D01*
X109127365Y-97637020D02*
X109232607Y-98093000D01*
X106336263Y-106968980D02*
X105994283Y-107265220D01*
X97643692Y-109120680D02*
X97196441Y-108993690D01*
X109232609Y-101891920D02*
X109127370Y-102347900D01*
X109127370Y-102347900D02*
X109000364Y-102795150D01*
X100484141Y-109405140D02*
X99999135Y-109417440D01*
X99999135Y-109417440D02*
X99514128Y-109405140D01*
X99035488Y-109368740D02*
X98563807Y-109308840D01*
X98563807Y-109308840D02*
X98099677Y-109225940D01*
X97196441Y-108993690D02*
X96758518Y-108845510D01*
X96930439Y-91609110D02*
X97345129Y-91468800D01*
X96525146Y-91768910D02*
X96930439Y-91609110D01*
X95744982Y-92144740D02*
X96129808Y-91947640D01*
X95371232Y-92359640D02*
X95744982Y-92144740D01*
X95009121Y-92591780D02*
X95371232Y-92359640D01*
X94659209Y-92840610D02*
X95009121Y-92591780D01*
X94322052Y-93105570D02*
X94659209Y-92840610D01*
X93688259Y-93681600D02*
X93998217Y-93386080D01*
X92366302Y-95364570D02*
X92598448Y-95002460D01*
X92151401Y-95738320D02*
X92366302Y-95364570D01*
X91954306Y-96123140D02*
X92151401Y-95738320D01*
X91615773Y-96923770D02*
X91775577Y-96518480D01*
X91475459Y-97338460D02*
X91615773Y-96923770D01*
X91355193Y-97761980D02*
X91475459Y-97338460D01*
X91177043Y-98633280D02*
X91255533Y-98193780D01*
X91120283Y-99079940D02*
X91177043Y-98633280D01*
X91074203Y-99992460D02*
X91085813Y-99533190D01*
X91085813Y-100451740D02*
X91074203Y-99992460D01*
X91355193Y-102222940D02*
X91255533Y-101791140D01*
X91475460Y-102646460D02*
X91355193Y-102222940D01*
X93392743Y-93991550D02*
X93688259Y-93681600D01*
X91615775Y-103061150D02*
X91475460Y-102646460D01*
X91954307Y-103861780D02*
X91775578Y-103466440D01*
X92151403Y-104246600D02*
X91954307Y-103861780D01*
X92366305Y-104620350D02*
X92151403Y-104246600D01*
X92598449Y-104982460D02*
X92366305Y-104620350D01*
X93112230Y-105669530D02*
X92847278Y-105332380D01*
X93392746Y-105993360D02*
X93112230Y-105669530D01*
X96129808Y-91947640D02*
X96525146Y-91768910D01*
X93688260Y-106303320D02*
X93392746Y-105993360D01*
X93998219Y-106598840D02*
X93688260Y-106303320D01*
X94659207Y-107144310D02*
X94322053Y-106879350D01*
X108912435Y-100451740D02*
X108877965Y-100904980D01*
X108821207Y-98633280D02*
X108877967Y-99079940D01*
X108742717Y-98193780D02*
X108821207Y-98633280D01*
X92847278Y-105332380D02*
X92598449Y-104982460D01*
X108877965Y-100904980D02*
X108821205Y-101351640D01*
X101797806Y-108736090D02*
X101358305Y-108814590D01*
X107846847Y-95738320D02*
X108043942Y-96123140D01*
X108043942Y-96123140D02*
X108222671Y-96518480D01*
X107399800Y-95002460D02*
X107631944Y-95364570D01*
X108924045Y-99992460D02*
X108912435Y-100451740D01*
X108222671Y-96518480D02*
X108382474Y-96923780D01*
X92598448Y-95002460D02*
X92847279Y-94652540D01*
X108877967Y-99079940D02*
X108912437Y-99533190D01*
X91255533Y-101791140D02*
X91177043Y-101351640D01*
X100458398Y-108905890D02*
X99999125Y-108917490D01*
X91255533Y-98193780D02*
X91355193Y-97761980D01*
X91085813Y-99533190D02*
X91120283Y-99079940D01*
X108643057Y-97761980D02*
X108742717Y-98193780D01*
X107150971Y-94652540D02*
X107399800Y-95002460D01*
X101358300Y-91170330D02*
X101797805Y-91248830D01*
X96525147Y-108216010D02*
X96129806Y-108037280D01*
X101358305Y-108814590D02*
X100911645Y-108871390D01*
X92847279Y-94652540D02*
X93112229Y-94315390D01*
X106886019Y-94315390D02*
X107150971Y-94652540D01*
X94322053Y-106879350D02*
X93998219Y-106598840D01*
X101797805Y-91248830D02*
X102229595Y-91348530D01*
X108043943Y-103861780D02*
X107846847Y-104246600D01*
X93998217Y-93386080D02*
X94322052Y-93105570D01*
X105339040Y-107144310D02*
X104989127Y-107393140D01*
X98639944Y-91170330D02*
X99086604Y-91113530D01*
X108522790Y-102646460D02*
X108382476Y-103061150D01*
X106605503Y-93991560D02*
X106886019Y-94315390D01*
X97345130Y-108516120D02*
X96930444Y-108375800D01*
X108912437Y-99533190D02*
X108924045Y-99992460D01*
X103067810Y-108375810D02*
X102653120Y-108516120D01*
X91177043Y-101351640D02*
X91120283Y-100904980D01*
X105676197Y-106879350D02*
X105339040Y-107144310D01*
X99999125Y-108917490D02*
X99539850Y-108905890D01*
X108382474Y-96923780D02*
X108522789Y-97338460D01*
X97768648Y-91348530D02*
X98200443Y-91248830D01*
X103868441Y-108037280D02*
X103473103Y-108216010D01*
X105676196Y-93105570D02*
X106000031Y-93386080D01*
X103473102Y-91768910D02*
X103868443Y-91947640D01*
X103868443Y-91947640D02*
X104253266Y-92144740D01*
X104253266Y-92144740D02*
X104627013Y-92359640D01*
X104989127Y-92591780D02*
X105339042Y-92840610D01*
X93112229Y-94315390D02*
X93392743Y-93991550D01*
X91775578Y-103466440D02*
X91615775Y-103061150D01*
X107631944Y-95364570D02*
X107846847Y-95738320D01*
X106309989Y-93681600D02*
X106605503Y-93991560D01*
X102229595Y-91348530D02*
X102653119Y-91468800D01*
X104627013Y-92359640D02*
X104989127Y-92591780D01*
X102653120Y-108516120D02*
X102229601Y-108636390D01*
X108742715Y-101791140D02*
X108643055Y-102222940D01*
X102653119Y-91468800D02*
X103067805Y-91609120D01*
X104627017Y-107625280D02*
X104253267Y-107840180D01*
X108382476Y-103061150D02*
X108222672Y-103466440D01*
X108222672Y-103466440D02*
X108043943Y-103861780D01*
X107846847Y-104246600D02*
X107631946Y-104620350D01*
X91775577Y-96518480D02*
X91954306Y-96123140D01*
X108522789Y-97338460D02*
X108643057Y-97761980D01*
X104989127Y-107393140D02*
X104627017Y-107625280D01*
X103067805Y-91609120D02*
X103473102Y-91768910D01*
X107631946Y-104620350D02*
X107399801Y-104982460D01*
X104253267Y-107840180D02*
X103868441Y-108037280D01*
X98200443Y-91248830D02*
X98639944Y-91170330D01*
X108643055Y-102222940D02*
X108522790Y-102646460D01*
X103473103Y-108216010D02*
X103067810Y-108375810D01*
X106605506Y-105993370D02*
X106309990Y-106303320D01*
X96129806Y-108037280D02*
X95744983Y-107840180D01*
X105339042Y-92840610D02*
X105676196Y-93105570D01*
X96930444Y-108375800D02*
X96525147Y-108216010D01*
X97345129Y-91468800D02*
X97768648Y-91348530D01*
X95371236Y-107625280D02*
X95009123Y-107393140D01*
X106000031Y-93386080D02*
X106309989Y-93681600D01*
X106886020Y-105669530D02*
X106605506Y-105993370D01*
X106000032Y-106598840D02*
X105676197Y-106879350D01*
X102229601Y-108636390D02*
X101797806Y-108736090D01*
X100911645Y-108871390D02*
X100458398Y-108905890D01*
X91120283Y-100904980D02*
X91085813Y-100451740D01*
X108821205Y-101351640D02*
X108742715Y-101791140D01*
X107399801Y-104982460D02*
X107150970Y-105332380D01*
X99539850Y-108905890D02*
X99086605Y-108871390D01*
X99086605Y-108871390D02*
X98639949Y-108814590D01*
X98639949Y-108814590D02*
X98200444Y-108736090D01*
X106309990Y-106303320D02*
X106000032Y-106598840D01*
X98200444Y-108736090D02*
X97768654Y-108636390D01*
X97768654Y-108636390D02*
X97345130Y-108516120D01*
X95744983Y-107840180D02*
X95371236Y-107625280D01*
X107150970Y-105332380D02*
X106886020Y-105669530D01*
X95009123Y-107393140D02*
X94659207Y-107144310D01*
X98018570Y-92317020D02*
X98401982Y-92228520D01*
X96563344Y-92849010D02*
X96914389Y-92690300D01*
X97274273Y-92548400D02*
X97642499Y-92423810D01*
X95568224Y-93420980D02*
X95889765Y-93214850D01*
X96914389Y-92690300D02*
X97274273Y-92548400D01*
X95257513Y-93641920D02*
X95568224Y-93420980D01*
X94132948Y-94663910D02*
X94395354Y-94388680D01*
X98401982Y-92228520D02*
X98792245Y-92158820D01*
X93221512Y-95883090D02*
X93427647Y-95561550D01*
X92555076Y-97267600D02*
X92696973Y-96907720D01*
X93883863Y-94951460D02*
X94132948Y-94663910D01*
X92323689Y-98011900D02*
X92430481Y-97635830D01*
X92235199Y-98395310D02*
X92323689Y-98011900D01*
X92165509Y-98785570D02*
X92235199Y-98395310D01*
X92084499Y-99584640D02*
X92115109Y-99182180D01*
X92084509Y-100400280D02*
X92074189Y-99992460D01*
X92165509Y-101199350D02*
X92115109Y-100802740D01*
X94958135Y-93877190D02*
X95257513Y-93641920D01*
X92235199Y-101589610D02*
X92165509Y-101199350D01*
X92430479Y-102349090D02*
X92323689Y-101973030D01*
X92555074Y-102717320D02*
X92430479Y-102349090D01*
X92696971Y-103077200D02*
X92555074Y-102717320D01*
X92855675Y-103428250D02*
X92696971Y-103077200D01*
X93030687Y-103769960D02*
X92855675Y-103428250D01*
X93221508Y-104101830D02*
X93030687Y-103769960D01*
X92855678Y-96556670D02*
X93030689Y-96214960D01*
X93427645Y-104423370D02*
X93221508Y-104101830D01*
X92696973Y-96907720D02*
X92855678Y-96556670D01*
X93648595Y-104734080D02*
X93427645Y-104423370D01*
X94132946Y-105321010D02*
X93883861Y-105033460D01*
X95568221Y-106563940D02*
X95257514Y-106342990D01*
X107913766Y-100400280D02*
X107883156Y-100802740D01*
X94670578Y-105858650D02*
X94395352Y-105596240D01*
X103434920Y-107135910D02*
X103083876Y-107294620D01*
X107913757Y-99584640D02*
X107924067Y-99992460D01*
X94395354Y-94388680D02*
X94670582Y-94126280D01*
X98018564Y-107667900D02*
X97642496Y-107561110D01*
X107674577Y-98011890D02*
X107763067Y-98395310D01*
X93427647Y-95561550D02*
X93648595Y-95250840D01*
X107924067Y-99992460D02*
X107924076Y-99992460D01*
X103776628Y-106960900D02*
X103434920Y-107135910D01*
X99591315Y-107907100D02*
X99188852Y-107876500D01*
X107142591Y-96556670D02*
X107301295Y-96907720D01*
X97274268Y-107436520D02*
X96914386Y-107294620D01*
X106570621Y-95561550D02*
X106776758Y-95883090D01*
X101979695Y-107667900D02*
X101596283Y-107756400D01*
X106967575Y-103769960D02*
X106776752Y-104101830D01*
X99188852Y-107876500D02*
X98792237Y-107826100D01*
X94670582Y-94126280D02*
X94958135Y-93877190D01*
X92323689Y-101973030D02*
X92235199Y-101589610D01*
X101596286Y-92228520D02*
X101979701Y-92317020D01*
X107763066Y-101589610D02*
X107674576Y-101973020D01*
X101206028Y-92158820D02*
X101596286Y-92228520D01*
X96221636Y-93024020D02*
X96563344Y-92849010D01*
X106114401Y-105033460D02*
X105865316Y-105321010D01*
X107443192Y-97267600D02*
X107567787Y-97635830D01*
X92115109Y-100802740D02*
X92084509Y-100400280D01*
X95257514Y-106342990D02*
X94958133Y-106107730D01*
X107301295Y-96907720D02*
X107443192Y-97267600D01*
X105040133Y-93877190D02*
X105327688Y-94126270D01*
X105327682Y-105858640D02*
X105040129Y-106107730D01*
X102355766Y-107561110D02*
X101979695Y-107667900D01*
X102723997Y-92548400D02*
X103083879Y-92690300D01*
X96914386Y-107294620D02*
X96563340Y-107135920D01*
X106776758Y-95883090D02*
X106967579Y-96214960D01*
X95889765Y-93214850D02*
X96221636Y-93024020D01*
X107567787Y-97635830D02*
X107674577Y-98011890D01*
X93030689Y-96214960D02*
X93221512Y-95883090D01*
X93883861Y-105033460D02*
X93648595Y-104734080D01*
X106114405Y-94951460D02*
X106349671Y-95250840D01*
X105602914Y-94388680D02*
X105865320Y-94663910D01*
X104430041Y-106563940D02*
X104108500Y-106770070D01*
X105327688Y-94126270D02*
X105602914Y-94388680D01*
X103434926Y-92849000D02*
X103776632Y-93024020D01*
X105040129Y-106107730D02*
X104740751Y-106343000D01*
X100809410Y-107876500D02*
X100406947Y-107907100D01*
X92074189Y-99992460D02*
X92084499Y-99584640D01*
X101979701Y-92317020D02*
X102355769Y-92423810D01*
X107763067Y-98395310D02*
X107832757Y-98785570D01*
X102355769Y-92423810D02*
X102723997Y-92548400D01*
X103083879Y-92690300D02*
X103434926Y-92849000D01*
X106967579Y-96214960D02*
X107142591Y-96556670D01*
X107674576Y-101973020D02*
X107567783Y-102349090D01*
X105865320Y-94663910D02*
X106114405Y-94951460D01*
X94395352Y-105596240D02*
X94132946Y-105321010D01*
X107832757Y-98785570D02*
X107883157Y-99182180D01*
X106349669Y-104734080D02*
X106114401Y-105033460D01*
X104430044Y-93420980D02*
X104740751Y-93641930D01*
X107883157Y-99182180D02*
X107913757Y-99584640D01*
X104108504Y-93214840D02*
X104430044Y-93420980D01*
X93648595Y-95250840D02*
X93883863Y-94951460D01*
X103776632Y-93024020D02*
X104108504Y-93214840D01*
X97642499Y-92423810D02*
X98018570Y-92317020D01*
X104740751Y-93641930D02*
X105040133Y-93877190D01*
X107883156Y-100802740D02*
X107832756Y-101199350D01*
X107567783Y-102349090D02*
X107443188Y-102717320D01*
X100406947Y-107907100D02*
X99999131Y-107917400D01*
X107832756Y-101199350D02*
X107763066Y-101589610D01*
X107443188Y-102717320D02*
X107301291Y-103077200D01*
X106570617Y-104423370D02*
X106349669Y-104734080D01*
X92115109Y-99182180D02*
X92165509Y-98785570D01*
X107142586Y-103428250D02*
X106967575Y-103769960D01*
X92430481Y-97635830D02*
X92555076Y-97267600D01*
X98792237Y-107826100D02*
X98401979Y-107756400D01*
X105865316Y-105321010D02*
X105602910Y-105596240D01*
X95889761Y-106770080D02*
X95568221Y-106563940D01*
X105602910Y-105596240D02*
X105327682Y-105858640D01*
X104740751Y-106343000D02*
X104430041Y-106563940D01*
X104108500Y-106770070D02*
X103776628Y-106960900D01*
X107301291Y-103077200D02*
X107142586Y-103428250D01*
X103083876Y-107294620D02*
X102723991Y-107436520D01*
X106349671Y-95250840D02*
X106570621Y-95561550D01*
X102723991Y-107436520D02*
X102355766Y-107561110D01*
X97642496Y-107561110D02*
X97274268Y-107436520D01*
X101596283Y-107756400D02*
X101206020Y-107826100D01*
X101206020Y-107826100D02*
X100809410Y-107876500D01*
X94958133Y-106107730D02*
X94670578Y-105858650D01*
X106776752Y-104101830D02*
X106570617Y-104423370D01*
X99999131Y-107917400D02*
X99591315Y-107907100D01*
X98401979Y-107756400D02*
X98018564Y-107667900D01*
X96563340Y-107135920D02*
X96221634Y-106960900D01*
X107924076Y-99992460D02*
X107913766Y-100400280D01*
X96221634Y-106960900D02*
X95889761Y-106770080D01*
X102380156Y-93487740D02*
X102058400Y-93378870D01*
X102694632Y-93611730D02*
X102380156Y-93487740D01*
X103299969Y-93903340D02*
X103001380Y-93750410D01*
X103870929Y-94250210D02*
X103589964Y-94070090D01*
X104142429Y-94443280D02*
X103870929Y-94250210D01*
X104404033Y-94648850D02*
X104142429Y-94443280D01*
X104655302Y-94866510D02*
X104404033Y-94648850D01*
X105125094Y-95336300D02*
X104895799Y-95095800D01*
X105548323Y-95849170D02*
X105342746Y-95587570D01*
X106503860Y-97611440D02*
X106379868Y-97296970D01*
X106612732Y-97933200D02*
X106503860Y-97611440D01*
X106706052Y-98261810D02*
X106612732Y-97933200D01*
X106844282Y-98937860D02*
X106783382Y-98596850D01*
X106888322Y-99284430D02*
X106844282Y-98937860D01*
X106924062Y-99992460D02*
X106915062Y-99636110D01*
X106783378Y-101388070D02*
X106844278Y-101047060D01*
X106706048Y-101723100D02*
X106783378Y-101388070D01*
X106503866Y-102373480D02*
X106612738Y-102051720D01*
X106379874Y-102687950D02*
X106503866Y-102373480D01*
X106241195Y-102994700D02*
X106379874Y-102687950D01*
X106088268Y-103293290D02*
X106241195Y-102994700D01*
X105921523Y-103583290D02*
X106088268Y-103293290D01*
X105741401Y-103864250D02*
X105921523Y-103583290D01*
X105548330Y-104135750D02*
X105741401Y-103864250D01*
X104895799Y-95095800D02*
X104655302Y-94866510D01*
X105342753Y-104397360D02*
X105548330Y-104135750D01*
X106241189Y-96990220D02*
X106088261Y-96691630D01*
X104142436Y-105541650D02*
X104404040Y-105336070D01*
X93109968Y-100700490D02*
X93154008Y-101047060D01*
X93757090Y-96990220D02*
X93618412Y-97296970D01*
X93074228Y-99992460D02*
X93083228Y-100348810D01*
X93083228Y-100348810D02*
X93109968Y-100700490D01*
X103001380Y-93750410D02*
X102694632Y-93611730D01*
X93154008Y-101047060D02*
X93214908Y-101388070D01*
X103589964Y-94070090D02*
X103299969Y-93903340D01*
X93292228Y-98261820D02*
X93214908Y-98596850D01*
X102058400Y-93378870D02*
X101729783Y-93285570D01*
X93385548Y-97933200D02*
X93292228Y-98261820D01*
X106783382Y-98596850D02*
X106706052Y-98261810D01*
X93494419Y-97611440D02*
X93385548Y-97933200D01*
X102694637Y-106373190D02*
X103001387Y-106234520D01*
X106088261Y-96691630D02*
X105921520Y-96401640D01*
X94655533Y-104397360D02*
X94873189Y-104648620D01*
X106844278Y-101047060D02*
X106888318Y-100700490D01*
X94076762Y-96401640D02*
X93910019Y-96691630D01*
X96408314Y-105914850D02*
X96698311Y-106081590D01*
X106924058Y-99992460D02*
X106924062Y-99992460D01*
X100355500Y-106908360D02*
X100707177Y-106881560D01*
X106612738Y-102051720D02*
X106706048Y-101723100D01*
X93214908Y-98596850D02*
X93154008Y-98937860D01*
X94256886Y-96120670D02*
X94076762Y-96401640D01*
X93618412Y-102687950D02*
X93757091Y-102994700D01*
X93109968Y-99284430D02*
X93083228Y-99636110D01*
X94873190Y-95336300D02*
X94655534Y-95587570D01*
X94449952Y-104135760D02*
X94655533Y-104397360D01*
X97303649Y-106373190D02*
X97618125Y-106497190D01*
X95342977Y-94866510D02*
X95102481Y-95095800D01*
X98603527Y-93208270D02*
X98268490Y-93285570D01*
X103589970Y-105914850D02*
X103870936Y-105734720D01*
X93618412Y-97296970D02*
X93494419Y-97611440D01*
X98944541Y-93147370D02*
X98603527Y-93208270D01*
X102058405Y-106606060D02*
X102380166Y-106497180D01*
X105342746Y-95587570D02*
X105125094Y-95336300D01*
X94655534Y-95587570D02*
X94449953Y-95849170D01*
X93083228Y-99636110D02*
X93074228Y-99992460D01*
X93154008Y-98937860D02*
X93109968Y-99284430D01*
X97303648Y-93611730D02*
X96996900Y-93750410D01*
X95102481Y-95095800D02*
X94873190Y-95336300D01*
X93385548Y-102051720D02*
X93494421Y-102373480D01*
X101729796Y-106699360D02*
X102058405Y-106606060D01*
X98268490Y-93285570D02*
X97939880Y-93378870D01*
X105921520Y-96401640D02*
X105741394Y-96120670D01*
X97939880Y-93378870D02*
X97618118Y-93487740D01*
X93910018Y-103293290D02*
X94076763Y-103583290D01*
X103001387Y-106234520D02*
X103299975Y-106081590D01*
X97618118Y-93487740D02*
X97303648Y-93611730D01*
X101394753Y-93208270D02*
X101053737Y-93147370D01*
X96127350Y-105734720D02*
X96408314Y-105914850D01*
X93494421Y-102373480D02*
X93618412Y-102687950D01*
X95855848Y-94443270D02*
X95594247Y-94648850D01*
X98603528Y-106776660D02*
X98944549Y-106837560D01*
X105741394Y-96120670D02*
X105548323Y-95849170D01*
X93910019Y-96691630D02*
X93757090Y-96990220D01*
X94873189Y-104648620D02*
X95102480Y-104889120D01*
X106888318Y-100700490D02*
X106915058Y-100348820D01*
X98944549Y-106837560D02*
X99291109Y-106881560D01*
X94449953Y-95849170D02*
X94256886Y-96120670D01*
X96127351Y-94250210D02*
X95855848Y-94443270D01*
X95594247Y-94648850D02*
X95342977Y-94866510D01*
X102380166Y-106497180D02*
X102694637Y-106373190D01*
X93214908Y-101388070D02*
X93292228Y-101723110D01*
X106379868Y-97296970D02*
X106241189Y-96990220D01*
X103870936Y-105734720D02*
X104142436Y-105541650D01*
X96698311Y-93903340D02*
X96408318Y-94070090D01*
X93292228Y-101723110D02*
X93385548Y-102051720D01*
X106915062Y-99636110D02*
X106888322Y-99284430D01*
X93757091Y-102994700D02*
X93910018Y-103293290D01*
X101729783Y-93285570D02*
X101394753Y-93208270D01*
X95855848Y-105541650D02*
X96127350Y-105734720D01*
X98268498Y-106699360D02*
X98603528Y-106776660D01*
X95102480Y-104889120D02*
X95342980Y-105118420D01*
X106915058Y-100348820D02*
X106924058Y-99992460D01*
X104655306Y-105118420D02*
X104895806Y-104889120D01*
X96996900Y-93750410D02*
X96698311Y-93903340D01*
X99291109Y-106881560D02*
X99642787Y-106908360D01*
X104895806Y-104889120D02*
X105125101Y-104648630D01*
X95342980Y-105118420D02*
X95594246Y-105336070D01*
X99642787Y-106908360D02*
X99999143Y-106917360D01*
X105125101Y-104648630D02*
X105342753Y-104397360D01*
X95594246Y-105336070D02*
X95855848Y-105541650D01*
X99999143Y-106917360D02*
X100355500Y-106908360D01*
X96698311Y-106081590D02*
X96996902Y-106234510D01*
X100707177Y-106881560D02*
X101053742Y-106837560D01*
X94256885Y-103864250D02*
X94449952Y-104135760D01*
X96996902Y-106234510D02*
X97303649Y-106373190D01*
X104404040Y-105336070D02*
X104655306Y-105118420D01*
X97618125Y-106497190D02*
X97939881Y-106606060D01*
X97939881Y-106606060D02*
X98268498Y-106699360D01*
X96408318Y-94070090D02*
X96127351Y-94250210D01*
X101053742Y-106837560D02*
X101394758Y-106776660D01*
X101394758Y-106776660D02*
X101729796Y-106699360D01*
X94076763Y-103583290D02*
X94256885Y-103864250D01*
X103299975Y-106081590D02*
X103589970Y-105914850D01*
X101495500Y-92718380D02*
X101129865Y-92653080D01*
X101854722Y-92801280D02*
X101495500Y-92718380D01*
X102207064Y-92901340D02*
X101854722Y-92801280D01*
X102552056Y-93018070D02*
X102207064Y-92901340D01*
X102889235Y-93151020D02*
X102552056Y-93018070D01*
X103218128Y-93299710D02*
X102889235Y-93151020D01*
X104441572Y-94042600D02*
X104150467Y-93835590D01*
X104722063Y-94263020D02*
X104441572Y-94042600D01*
X104991475Y-94496390D02*
X104722063Y-94263020D01*
X105948980Y-95550010D02*
X105728555Y-95269510D01*
X105495187Y-95000100D02*
X105249336Y-94742240D01*
X106155987Y-95841110D02*
X105948980Y-95550010D01*
X106349118Y-96142360D02*
X106155987Y-95841110D01*
X106527900Y-96453300D02*
X106349118Y-96142360D01*
X106691869Y-96773450D02*
X106527900Y-96453300D01*
X106840561Y-97102340D02*
X106691869Y-96773450D01*
X105728555Y-95269510D02*
X105495187Y-95000100D01*
X107090239Y-97784510D02*
X106973507Y-97439520D01*
X107190294Y-98136850D02*
X107090239Y-97784510D01*
X107338494Y-98861720D02*
X107273204Y-98496080D01*
X107424068Y-99992460D02*
X107424094Y-99992460D01*
X107338488Y-101123200D02*
X107385698Y-100751620D01*
X107273188Y-101488840D02*
X107338488Y-101123200D01*
X106973493Y-102545400D02*
X107090225Y-102200410D01*
X106840548Y-102882580D02*
X106973493Y-102545400D01*
X106691857Y-103211480D02*
X106840548Y-102882580D01*
X106527886Y-103531630D02*
X106691857Y-103211480D01*
X106155974Y-104143810D02*
X106349105Y-103842560D01*
X105948963Y-104434920D02*
X106155974Y-104143810D01*
X105728542Y-104715410D02*
X105948963Y-104434920D01*
X105495172Y-104984820D02*
X105728542Y-104715410D01*
X104991458Y-105488530D02*
X105249323Y-105242680D01*
X104441556Y-105942320D02*
X104722049Y-105721900D01*
X92612502Y-100751610D02*
X92659722Y-101123190D01*
X92574132Y-99992450D02*
X92583832Y-100374540D01*
X106349105Y-103842560D02*
X106527886Y-103531630D01*
X96149020Y-93642450D02*
X95847767Y-93835580D01*
X95556642Y-105942320D02*
X95847747Y-106149330D01*
X96780102Y-93299700D02*
X96459954Y-93463670D01*
X107090225Y-102200410D02*
X107190278Y-101848070D01*
X93157673Y-97102330D02*
X93024726Y-97439510D01*
X107414394Y-99610370D02*
X107385714Y-99233300D01*
X93470334Y-96453290D02*
X93306363Y-96773440D01*
X98502716Y-107266540D02*
X98868352Y-107331840D01*
X94503026Y-104984810D02*
X94748877Y-105242680D01*
X93842247Y-95841100D02*
X93649119Y-96142350D01*
X97108999Y-93151010D02*
X96780102Y-93299700D01*
X99999100Y-107417640D02*
X100381187Y-107407640D01*
X92583832Y-99610370D02*
X92574132Y-99992450D01*
X93470314Y-103531620D02*
X93649098Y-103842550D01*
X94269679Y-95269500D02*
X94049255Y-95550000D01*
X98143486Y-107183640D02*
X98502716Y-107266540D01*
X101854709Y-107183640D02*
X102207049Y-107083590D01*
X93649119Y-96142350D02*
X93470334Y-96453290D01*
X94503047Y-95000090D02*
X94269679Y-95269500D01*
X93649098Y-103842550D02*
X93842226Y-104143800D01*
X94748898Y-94742230D02*
X94503047Y-95000090D01*
X106973507Y-97439520D02*
X106840561Y-97102340D01*
X92659722Y-101123190D02*
X92725012Y-101488830D01*
X95556660Y-94042590D02*
X95276171Y-94263010D01*
X94049255Y-95550000D02*
X93842247Y-95841100D01*
X92807922Y-101848060D02*
X92907975Y-102200400D01*
X95006759Y-94496380D02*
X94748898Y-94742230D01*
X98868377Y-92653080D02*
X98502734Y-92718380D01*
X92583832Y-100374540D02*
X92612502Y-100751610D01*
X107385714Y-99233300D02*
X107338494Y-98861720D01*
X93306363Y-96773440D02*
X93157673Y-97102330D01*
X104150467Y-93835590D02*
X103849214Y-93642460D01*
X107424094Y-99992460D02*
X107414394Y-99610370D01*
X98143510Y-92801280D02*
X97791170Y-92901330D01*
X93024726Y-97439510D02*
X92907995Y-97784500D01*
X100381187Y-107407640D02*
X100758257Y-107379040D01*
X97791170Y-92901330D02*
X97446173Y-93018060D01*
X104722049Y-105721900D02*
X104991458Y-105488530D01*
X95847767Y-93835580D02*
X95556660Y-94042590D01*
X97446173Y-93018060D02*
X97108999Y-93151010D01*
X92725032Y-98496070D02*
X92659732Y-98861710D01*
X95276171Y-94263010D02*
X95006759Y-94496380D01*
X92725012Y-101488830D02*
X92807922Y-101848060D01*
X93024707Y-102545390D02*
X93157652Y-102882570D01*
X102889221Y-106833910D02*
X103218117Y-106685220D01*
X92907975Y-102200400D02*
X93024707Y-102545390D01*
X96459954Y-93463670D02*
X96149020Y-93642450D01*
X93157652Y-102882570D02*
X93306342Y-103211470D01*
X93842226Y-104143800D02*
X94049235Y-104434910D01*
X92612512Y-99233290D02*
X92583832Y-99610370D01*
X93306342Y-103211470D02*
X93470314Y-103531620D01*
X92659732Y-98861710D02*
X92612512Y-99233290D01*
X94049235Y-104434910D02*
X94269658Y-104715400D01*
X94269658Y-104715400D02*
X94503026Y-104984810D01*
X94748877Y-105242680D02*
X95006742Y-105488520D01*
X95006742Y-105488520D02*
X95276151Y-105721890D01*
X95276151Y-105721890D02*
X95556642Y-105942320D01*
X95847747Y-106149330D02*
X96149000Y-106342460D01*
X107190278Y-101848070D02*
X107273188Y-101488840D01*
X96149000Y-106342460D02*
X96459934Y-106521240D01*
X101129848Y-107331840D02*
X101495484Y-107266540D01*
X103849214Y-93642460D02*
X103538280Y-93463680D01*
X103538266Y-106521250D02*
X103849202Y-106342470D01*
X92907995Y-97784500D02*
X92807942Y-98136840D01*
X103218117Y-106685220D02*
X103538266Y-106521250D01*
X96459934Y-106521240D02*
X96780087Y-106685210D01*
X107273204Y-98496080D02*
X107190294Y-98136850D01*
X105249323Y-105242680D02*
X105495172Y-104984820D01*
X97791151Y-107083580D02*
X98143486Y-107183640D01*
X96780087Y-106685210D02*
X97108979Y-106833900D01*
X97108979Y-106833900D02*
X97446159Y-106966850D01*
X92807942Y-98136840D02*
X92725032Y-98496070D01*
X104150453Y-106149340D02*
X104441556Y-105942320D01*
X98502734Y-92718380D02*
X98143510Y-92801280D01*
X97446159Y-106966850D02*
X97791151Y-107083580D01*
X98868352Y-107331840D02*
X99239943Y-107379040D01*
X107385698Y-100751620D02*
X107414368Y-100374550D01*
X99239943Y-107379040D02*
X99617013Y-107407640D01*
X103849202Y-106342470D02*
X104150453Y-106149340D01*
X107414368Y-100374550D02*
X107424068Y-99992460D01*
X99617013Y-107407640D02*
X99999100Y-107417640D01*
X103538280Y-93463680D02*
X103218128Y-93299710D01*
X100758257Y-107379040D02*
X101129848Y-107331840D01*
X102207049Y-107083590D02*
X102552047Y-106966860D01*
X101495484Y-107266540D02*
X101854709Y-107183640D01*
X105249336Y-94742240D02*
X104991475Y-94496390D01*
X102552047Y-106966860D02*
X102889221Y-106833910D01*
X101999349Y-90269140D02*
X101510601Y-90181840D01*
X102479526Y-90379960D02*
X101999349Y-90269140D01*
X103862366Y-90847450D02*
X103411661Y-90669750D01*
X104729948Y-91265390D02*
X104302004Y-91046210D01*
X105937385Y-92039240D02*
X105548262Y-91762530D01*
X106672440Y-92645830D02*
X106312319Y-92333880D01*
X107952346Y-94054190D02*
X107657704Y-93679260D01*
X108229055Y-94443320D02*
X107952346Y-94054190D01*
X108726193Y-95261630D02*
X108487212Y-94846010D01*
X109144129Y-96129220D02*
X108945373Y-95689580D01*
X109321838Y-96579930D02*
X109144129Y-96129220D01*
X109809722Y-98480980D02*
X109722442Y-97992230D01*
X109911162Y-99481720D02*
X109872832Y-98977690D01*
X109911172Y-100503200D02*
X109924092Y-99992460D01*
X109809732Y-101503940D02*
X109872842Y-101007230D01*
X109611628Y-102472860D02*
X109722452Y-101992690D01*
X109924092Y-99992460D02*
X109924072Y-99992460D01*
X109144140Y-103855700D02*
X109321849Y-103404990D01*
X108945384Y-104295340D02*
X109144140Y-103855700D01*
X108726204Y-104723290D02*
X108945384Y-104295340D01*
X108487223Y-105138910D02*
X108726204Y-104723290D01*
X107952357Y-105930720D02*
X108229066Y-105541600D01*
X107657715Y-106305660D02*
X107952357Y-105930720D01*
X107345770Y-106665780D02*
X107657715Y-106305660D01*
X107017140Y-107010470D02*
X107345770Y-106665780D01*
X106672454Y-107339100D02*
X107017140Y-107010470D01*
X105937394Y-107945680D02*
X106312330Y-107651040D01*
X90087086Y-100503200D02*
X90125416Y-101007230D01*
X90125416Y-98977690D02*
X90087086Y-99481720D01*
X90188526Y-98480990D02*
X90125416Y-98977690D01*
X108945373Y-95689580D02*
X108726193Y-95261630D01*
X90386631Y-97512060D02*
X90275806Y-97992230D01*
X91052875Y-95689580D02*
X90854119Y-96129220D01*
X91769193Y-94443320D02*
X91511036Y-94846010D01*
X91511036Y-94846010D02*
X91272055Y-95261630D01*
X93325817Y-107339090D02*
X93685938Y-107651040D01*
X101510607Y-109803080D02*
X101999359Y-109715780D01*
X102479531Y-109604960D02*
X102950513Y-109471210D01*
X109722452Y-101992690D02*
X109809732Y-101503940D01*
X92340544Y-93679260D02*
X92045902Y-94054200D01*
X91052884Y-104295340D02*
X91272064Y-104723290D01*
X93685938Y-107651040D02*
X94060873Y-107945680D01*
X97998909Y-109715780D02*
X98487657Y-109803080D01*
X107017129Y-92974450D02*
X106672440Y-92645830D01*
X92652489Y-93319140D02*
X92340544Y-93679260D01*
X108487212Y-94846010D02*
X108229055Y-94443320D01*
X106312330Y-107651040D02*
X106672454Y-107339100D01*
X93325805Y-92645820D02*
X92981119Y-92974450D01*
X90087086Y-99481720D02*
X90074176Y-99992460D01*
X105548273Y-108222390D02*
X105937394Y-107945680D01*
X90520373Y-97041080D02*
X90386631Y-97512060D01*
X103411661Y-90669750D02*
X102950503Y-90513710D01*
X90386639Y-102472860D02*
X90520382Y-102943840D01*
X105548262Y-91762530D02*
X105145576Y-91504370D01*
X97998899Y-90269140D02*
X97518727Y-90379960D01*
X109924072Y-99992460D02*
X109911162Y-99481720D01*
X109321849Y-103404990D02*
X109477886Y-102943840D01*
X98984355Y-90118740D02*
X98487651Y-90181840D01*
X101510601Y-90181840D02*
X101013893Y-90118740D01*
X90676420Y-103404990D02*
X90854128Y-103855700D01*
X109477875Y-97041080D02*
X109321838Y-96579930D01*
X92981119Y-92974450D02*
X92652489Y-93319140D01*
X109872832Y-98977690D02*
X109809722Y-98480980D01*
X97047745Y-90513710D02*
X96586589Y-90669740D01*
X104729959Y-108719530D02*
X105145586Y-108480550D01*
X95268300Y-91265390D02*
X94852672Y-91504370D01*
X94449986Y-91762530D02*
X94060865Y-92039240D01*
X90188536Y-101503930D02*
X90275816Y-101992690D01*
X90275816Y-101992690D02*
X90386639Y-102472860D01*
X92981128Y-107010470D02*
X93325817Y-107339090D01*
X90074176Y-99992460D02*
X90087086Y-100503200D01*
X90125416Y-101007230D02*
X90188536Y-101503930D01*
X96135882Y-90847450D02*
X95696244Y-91046210D01*
X94852672Y-91504370D02*
X94449986Y-91762530D01*
X91272055Y-95261630D02*
X91052875Y-95689580D01*
X91272064Y-104723290D02*
X91511045Y-105138910D01*
X94060865Y-92039240D02*
X93685929Y-92333880D01*
X94852682Y-108480550D02*
X95268309Y-108719530D01*
X90275806Y-97992230D02*
X90188526Y-98480990D01*
X90854119Y-96129220D02*
X90676410Y-96579930D01*
X91511045Y-105138910D02*
X91769202Y-105541600D01*
X107657704Y-93679260D02*
X107345760Y-93319140D01*
X97518727Y-90379960D02*
X97047745Y-90513710D01*
X105145586Y-108480550D02*
X105548273Y-108222390D01*
X96586589Y-90669740D02*
X96135882Y-90847450D01*
X102950503Y-90513710D02*
X102479526Y-90379960D01*
X90520382Y-102943840D02*
X90676420Y-103404990D01*
X93685929Y-92333880D02*
X93325805Y-92645820D01*
X105145576Y-91504370D02*
X104729948Y-91265390D01*
X90854128Y-103855700D02*
X91052884Y-104295340D01*
X104302004Y-91046210D02*
X103862366Y-90847450D01*
X106312319Y-92333880D02*
X105937385Y-92039240D01*
X90676410Y-96579930D02*
X90520373Y-97041080D01*
X91769202Y-105541600D02*
X92045911Y-105930730D01*
X92045911Y-105930730D02*
X92340553Y-106305660D01*
X92340553Y-106305660D02*
X92652497Y-106665780D01*
X109611617Y-97512060D02*
X109477875Y-97041080D01*
X92652497Y-106665780D02*
X92981128Y-107010470D01*
X94060873Y-107945680D02*
X94449995Y-108222390D01*
X109872842Y-101007230D02*
X109911172Y-100503200D01*
X94449995Y-108222390D02*
X94852682Y-108480550D01*
X107345760Y-93319140D02*
X107017129Y-92974450D01*
X97047755Y-109471210D02*
X97518732Y-109604960D01*
X95268309Y-108719530D02*
X95696254Y-108938710D01*
X109722442Y-97992230D02*
X109611617Y-97512060D01*
X96586597Y-109315170D02*
X97047755Y-109471210D01*
X95696254Y-108938710D02*
X96135892Y-109137470D01*
X97518732Y-109604960D02*
X97998909Y-109715780D01*
X98487657Y-109803080D02*
X98984365Y-109866180D01*
X103862376Y-109137470D02*
X104302014Y-108938710D01*
X98984365Y-109866180D02*
X99488397Y-109904480D01*
X99488397Y-109904480D02*
X99999134Y-109917380D01*
X108229066Y-105541600D02*
X108487223Y-105138910D01*
X99999134Y-109917380D02*
X100509871Y-109904480D01*
X98487651Y-90181840D02*
X97998899Y-90269140D01*
X100509871Y-109904480D02*
X101013903Y-109866180D01*
X95696244Y-91046210D02*
X95268300Y-91265390D01*
X101013903Y-109866180D02*
X101510607Y-109803080D01*
X101999359Y-109715780D02*
X102479531Y-109604960D01*
X102950513Y-109471210D02*
X103411669Y-109315180D01*
X109477886Y-102943840D02*
X109611628Y-102472860D01*
X96135892Y-109137470D02*
X96586597Y-109315170D01*
X103411669Y-109315180D02*
X103862376Y-109137470D01*
X92045902Y-94054200D02*
X91769193Y-94443320D01*
X104302014Y-108938710D02*
X104729959Y-108719530D01*
X98954490Y-89647390D02*
X99483665Y-89607190D01*
X99488387Y-90080440D02*
X98984355Y-90118740D01*
X99035487Y-90616190D02*
X99514128Y-90579790D01*
X99086604Y-91113530D02*
X99539851Y-91079030D01*
X98716087Y-91664500D02*
X99137725Y-91610900D01*
X99137725Y-91610900D02*
X99565583Y-91578400D01*
X98792245Y-92158820D02*
X99188855Y-92108420D01*
X99188855Y-92108420D02*
X99591318Y-92077820D01*
X99239961Y-92605880D02*
X98868377Y-92653080D01*
X99291107Y-93103370D02*
X98944541Y-93147370D01*
X100911644Y-91113530D02*
X101358300Y-91170330D01*
X101053737Y-93147370D02*
X100750000Y-93087000D01*
X101129865Y-92653080D02*
X100750000Y-92596000D01*
X100750000Y-92596000D02*
X100750000Y-93087000D01*
X101206028Y-92158820D02*
X100750000Y-92087000D01*
X101282174Y-91664600D02*
X100750000Y-91597000D01*
X100750000Y-91597000D02*
X100750000Y-92087000D01*
X100911644Y-91113530D02*
X100750000Y-91106000D01*
X100962781Y-90616190D02*
X100750000Y-90608000D01*
X100750000Y-90608000D02*
X100750000Y-91106000D01*
X101013893Y-90118740D02*
X100750000Y-90096000D01*
X101085295Y-89647390D02*
X100750000Y-89622000D01*
X100750000Y-89622000D02*
X100750000Y-90096000D01*
X97498241Y-94072390D02*
X98088541Y-93856330D01*
X96936606Y-94342940D02*
X97498241Y-94072390D01*
X96406865Y-94664770D02*
X96936606Y-94342940D01*
X94349611Y-96929930D02*
X94671436Y-96400190D01*
X94079057Y-97491570D02*
X94349611Y-96929930D01*
X93607322Y-100649380D02*
X93574152Y-99992460D01*
X93704682Y-101287320D02*
X93607322Y-100649380D01*
X102500031Y-105912540D02*
X101909731Y-106128600D01*
X104086025Y-104950290D02*
X103591408Y-105320160D01*
X105326837Y-103584730D02*
X104956969Y-104079350D01*
X105648662Y-103054990D02*
X105326837Y-103584730D01*
X105919216Y-102493360D02*
X105648662Y-103054990D01*
X106424120Y-99992460D02*
X106390950Y-100649380D01*
X106424116Y-99992460D02*
X106424120Y-99992460D01*
X106390946Y-99335540D02*
X106424116Y-99992460D01*
X105648657Y-96929930D02*
X105919211Y-97491570D01*
X105326832Y-96400190D02*
X105648657Y-96929930D01*
X104956964Y-95905580D02*
X105326832Y-96400190D01*
X104542283Y-95449310D02*
X104956964Y-95905580D01*
X103591403Y-94664770D02*
X104086020Y-95034630D01*
X100750000Y-93584000D02*
X101293992Y-93698010D01*
X100750000Y-94097000D02*
X100750000Y-93584000D01*
X105458557Y-97686160D02*
X105209055Y-97168220D01*
X105657799Y-98230530D02*
X105458557Y-97686160D01*
X105803802Y-98798350D02*
X105657799Y-98230530D01*
X105924182Y-99992460D02*
X105893592Y-99386660D01*
X105924192Y-99992460D02*
X105924182Y-99992460D01*
X105893602Y-100598260D02*
X105924192Y-99992460D01*
X105803812Y-101186570D02*
X105893602Y-100598260D01*
X105657810Y-101754390D02*
X105803812Y-101186570D01*
X105458568Y-102298760D02*
X105657810Y-101754390D01*
X105209066Y-102816700D02*
X105458568Y-102298760D01*
X103768018Y-104564520D02*
X104188779Y-104182110D01*
X99342218Y-106384320D02*
X98704277Y-106286920D01*
X99999130Y-105917540D02*
X100604933Y-105886940D01*
X104086020Y-95034630D02*
X104542283Y-95449310D01*
X99393327Y-105886940D02*
X99999130Y-105917540D01*
X98805024Y-105797140D02*
X99393327Y-105886940D01*
X97174895Y-105202400D02*
X97692830Y-105451900D01*
X96686373Y-104905610D02*
X97174895Y-105202400D01*
X105209055Y-97168220D02*
X104912271Y-96679700D01*
X94789194Y-102816700D02*
X95085978Y-103305220D01*
X94539692Y-102298760D02*
X94789194Y-102816700D01*
X94340450Y-101754390D02*
X94539692Y-102298760D01*
X94074068Y-99992460D02*
X94104658Y-100598260D01*
X94104658Y-99386660D02*
X94074068Y-99992460D01*
X94194438Y-98798350D02*
X94104658Y-99386660D01*
X94340441Y-98230530D02*
X94194438Y-98798350D01*
X100604933Y-105886940D02*
X101193236Y-105797140D01*
X94539683Y-97686160D02*
X94340441Y-98230530D01*
X94104658Y-100598260D02*
X94194448Y-101186570D01*
X95427057Y-96223570D02*
X95085969Y-96679700D01*
X95809471Y-95802810D02*
X95427057Y-96223570D01*
X96686364Y-95079310D02*
X96230233Y-95420400D01*
X97174885Y-94782520D02*
X96686364Y-95079310D01*
X99393317Y-94097980D02*
X98805014Y-94187780D01*
X99750000Y-94068000D02*
X99393317Y-94097980D01*
X101193236Y-105797140D02*
X101761061Y-105651140D01*
X96965881Y-95493850D02*
X97413185Y-95222110D01*
X96548236Y-95806160D02*
X96965881Y-95493850D01*
X96162975Y-96156310D02*
X96548236Y-95806160D01*
X95228773Y-97406520D02*
X95500517Y-96959210D01*
X95000322Y-97880750D02*
X95228773Y-97406520D01*
X94684207Y-101085820D02*
X94601997Y-100547150D01*
X94817891Y-101605730D02*
X94684207Y-101085820D01*
X96162974Y-103828620D02*
X95812825Y-103443360D01*
X94684207Y-98899100D02*
X94817891Y-98379190D01*
X97413185Y-104762820D02*
X96965881Y-104491080D01*
X97887420Y-104991270D02*
X97413185Y-104762820D01*
X94601997Y-100547150D02*
X94573987Y-99992460D01*
X98905775Y-105307390D02*
X98385859Y-105173710D01*
X94817891Y-98379190D02*
X95000322Y-97880750D01*
X96965881Y-104491080D02*
X96548235Y-104178770D01*
X96198817Y-96859750D02*
X95915304Y-97238890D01*
X102585079Y-104762820D02*
X102110844Y-104991270D01*
X96516681Y-96510020D02*
X96198817Y-96859750D01*
X101761061Y-105651140D02*
X102305430Y-105451900D01*
X97413185Y-95222110D02*
X97887420Y-94993650D01*
X100890908Y-104327480D02*
X100451554Y-104394480D01*
X101314976Y-95766480D02*
X101721519Y-95915270D01*
X93607322Y-99335540D02*
X93704682Y-98697600D01*
X96406864Y-105320160D02*
X95912247Y-104950290D01*
X99750000Y-95573000D02*
X99750000Y-95072000D01*
X93863004Y-101903060D02*
X93704682Y-101287320D01*
X98276763Y-95915270D02*
X98683306Y-95766480D01*
X97525127Y-96323250D02*
X97889962Y-96101600D01*
X97184482Y-96577980D02*
X97525127Y-96323250D01*
X97498241Y-105912540D02*
X96936605Y-105641990D01*
X94601997Y-99437770D02*
X94684207Y-98899100D01*
X99107366Y-95657440D02*
X99546719Y-95590340D01*
X104225115Y-101308300D02*
X104076319Y-101714840D01*
X98704277Y-106286920D02*
X98088541Y-106128600D01*
X100991672Y-95167600D02*
X100750000Y-95121000D01*
X104912271Y-96679700D02*
X104571183Y-96223570D01*
X95085978Y-103305220D02*
X95427066Y-103761350D01*
X96108287Y-97883280D02*
X96329930Y-97518450D01*
X95773159Y-98676620D02*
X95921955Y-98270080D01*
X95912248Y-95034630D02*
X96406865Y-94664770D01*
X98088541Y-106128600D02*
X97498241Y-105912540D01*
X104997936Y-97880750D02*
X105180367Y-98379190D01*
X99444442Y-105389590D02*
X98905775Y-105307390D01*
X95664122Y-99100680D02*
X95773159Y-98676620D01*
X103128022Y-103121350D02*
X102813791Y-103406940D01*
X95455985Y-95449310D02*
X95912248Y-95034630D01*
X104769485Y-97406520D02*
X104997936Y-97880750D01*
X95574222Y-99992460D02*
X95597072Y-99540040D01*
X102823365Y-105202400D02*
X103311887Y-104905610D01*
X98385858Y-94811220D02*
X98905774Y-94677540D01*
X99999132Y-104417380D02*
X99546710Y-104394480D01*
X94671436Y-96400190D02*
X95041304Y-95905580D01*
X104185431Y-96541570D02*
X104497741Y-96959210D01*
X101909727Y-93856330D02*
X102500027Y-94072390D01*
X95000322Y-102104170D02*
X94817891Y-101605730D01*
X97245557Y-95908640D02*
X96866419Y-96192150D01*
X95597062Y-100444880D02*
X95574222Y-99992460D01*
X102305430Y-105451900D02*
X102823365Y-105202400D01*
X97887420Y-94993650D02*
X98385858Y-94811220D01*
X100451554Y-104394480D02*
X99999132Y-104417380D01*
X95773149Y-101308300D02*
X95664112Y-100884240D01*
X100656054Y-106384320D02*
X99999136Y-106417520D01*
X102346639Y-95661950D02*
X101916130Y-95454560D01*
X96108277Y-102101640D02*
X95921945Y-101714840D01*
X93574152Y-99992460D02*
X93607322Y-99335540D01*
X96936605Y-105641990D02*
X96406864Y-105320160D01*
X99546719Y-95590340D02*
X99750000Y-95573000D01*
X96329920Y-102466470D02*
X96108277Y-102101640D01*
X104401210Y-99540040D02*
X104424060Y-99992460D01*
X93863004Y-98081870D02*
X94079057Y-97491570D01*
X95455983Y-104535610D02*
X95041303Y-104079350D01*
X96548235Y-104178770D02*
X96162974Y-103828620D01*
X105424271Y-99992460D02*
X105424277Y-99992460D01*
X96584650Y-102807120D02*
X96329920Y-102466470D01*
X93704682Y-98697600D02*
X93863004Y-98081870D01*
X95912247Y-104950290D02*
X95455983Y-104535610D01*
X99750000Y-95072000D02*
X99495583Y-95093000D01*
X105396261Y-99437770D02*
X105424271Y-99992460D01*
X104334160Y-99100680D02*
X104401210Y-99540040D01*
X95597072Y-99540040D02*
X95664122Y-99100680D01*
X103311887Y-104905610D02*
X103768018Y-104564520D01*
X98905774Y-94677540D02*
X99444440Y-94595340D01*
X99546710Y-104394480D02*
X99107356Y-104327480D01*
X95041304Y-95905580D02*
X95455985Y-95449310D01*
X104497741Y-96959210D02*
X104769485Y-97406520D01*
X97184473Y-103406940D02*
X96870242Y-103121350D01*
X100250000Y-95570000D02*
X100451563Y-95590340D01*
X104537032Y-101909460D02*
X104702642Y-101456980D01*
X97525118Y-103661670D02*
X97184473Y-103406940D01*
X106135268Y-101903060D02*
X105919216Y-102493360D01*
X101612400Y-94811220D02*
X102110838Y-94993650D01*
X98683296Y-104218440D02*
X98276754Y-104069650D01*
X96866419Y-96192150D02*
X96516681Y-96510020D01*
X102110838Y-94993650D02*
X102585073Y-95222100D01*
X98276754Y-104069650D02*
X97889953Y-103883320D01*
X94194448Y-101186570D02*
X94340450Y-101754390D01*
X95085969Y-96679700D02*
X94789185Y-97168220D01*
X104076319Y-101714840D02*
X103889987Y-102101640D01*
X103889987Y-102101640D02*
X103668344Y-102466470D01*
X104076327Y-98270080D02*
X104225123Y-98676620D01*
X101293992Y-93698010D02*
X101909727Y-93856330D01*
X97651617Y-95661950D02*
X97245557Y-95908640D01*
X101721510Y-104069650D02*
X101314968Y-104218440D01*
X95664112Y-100884240D02*
X95597062Y-100444880D01*
X100890916Y-95657440D02*
X101314976Y-95766480D01*
X106293586Y-98697600D02*
X106390946Y-99335540D01*
X104225123Y-98676620D02*
X104334160Y-99100680D01*
X103413614Y-102807120D02*
X103128022Y-103121350D01*
X103768007Y-95420400D02*
X103311876Y-95079310D01*
X96230242Y-104564520D02*
X96686373Y-104905610D01*
X96870252Y-96863570D02*
X97184482Y-96577980D01*
X95668615Y-102339970D02*
X95915303Y-102746030D01*
X104571183Y-96223570D02*
X104188769Y-95802810D01*
X95427066Y-103761350D02*
X95809481Y-104182110D01*
X96329930Y-97518450D02*
X96584659Y-97177800D01*
X103668352Y-97518450D02*
X103889995Y-97883280D01*
X103835290Y-103828620D02*
X103450029Y-104178770D01*
X94789185Y-97168220D02*
X94539683Y-97686160D01*
X104401202Y-100444880D02*
X104334152Y-100884240D01*
X100553822Y-105389590D02*
X99999132Y-105417590D01*
X103128030Y-96863570D02*
X103413623Y-97177800D01*
X104188779Y-104182110D02*
X104571194Y-103761350D01*
X99107356Y-104327480D02*
X98683296Y-104218440D01*
X96870242Y-103121350D02*
X96584650Y-102807120D01*
X102473155Y-96323250D02*
X102813800Y-96577980D01*
X100991675Y-104817330D02*
X101463653Y-104695970D01*
X95921955Y-98270080D02*
X96108287Y-97883280D01*
X95915304Y-97238890D02*
X95668615Y-97644950D01*
X103061667Y-105641990D02*
X102500031Y-105912540D01*
X101721519Y-95915270D02*
X102108320Y-96101600D01*
X104334152Y-100884240D02*
X104225115Y-101308300D01*
X95921945Y-101714840D02*
X95773149Y-101308300D01*
X103668344Y-102466470D02*
X103413614Y-102807120D01*
X104912282Y-103305220D02*
X105209066Y-102816700D01*
X95500517Y-96959210D02*
X95812827Y-96541570D01*
X103481580Y-103474910D02*
X103799444Y-103125170D01*
X104424060Y-99992460D02*
X104424052Y-99992460D01*
X102473146Y-103661670D02*
X102108311Y-103883320D01*
X98237199Y-105651140D02*
X98805024Y-105797140D01*
X100502675Y-104891930D02*
X100991675Y-104817330D01*
X101314968Y-104218440D02*
X100890908Y-104327480D01*
X102500027Y-94072390D02*
X103061662Y-94342940D01*
X104082957Y-102746030D02*
X104329645Y-102339970D01*
X104424052Y-99992460D02*
X104401202Y-100444880D01*
X94573987Y-99992460D02*
X94601997Y-99437770D01*
X98385859Y-105173710D02*
X97887420Y-104991270D01*
X98683306Y-95766480D02*
X99107366Y-95657440D01*
X98805014Y-94187780D02*
X98237189Y-94333780D01*
X102585073Y-95222100D02*
X103032377Y-95493850D01*
X103591408Y-105320160D02*
X103061667Y-105641990D01*
X101463653Y-104695970D02*
X101916134Y-104530360D01*
X102108320Y-96101600D02*
X102473155Y-96323250D01*
X103131842Y-103792780D02*
X103481580Y-103474910D01*
X103413623Y-97177800D02*
X103668352Y-97518450D01*
X101463649Y-95288950D02*
X100991672Y-95167600D01*
X102813791Y-103406940D02*
X102473146Y-103661670D01*
X101193226Y-94187780D02*
X100750000Y-94097000D01*
X95812825Y-103443360D02*
X95500516Y-103025710D01*
X104769492Y-102578410D02*
X104497748Y-103025710D01*
X102108311Y-103883320D02*
X101721510Y-104069650D01*
X95668615Y-97644950D02*
X95461228Y-98075460D01*
X104571194Y-103761350D02*
X104912282Y-103305220D01*
X95461228Y-98075460D02*
X95295618Y-98527940D01*
X94349610Y-103054990D02*
X94079056Y-102493360D01*
X105314057Y-101085820D02*
X105180373Y-101605730D01*
X95295618Y-98527940D02*
X95174260Y-98999920D01*
X99342217Y-93600610D02*
X99750000Y-93565000D01*
X105919211Y-97491570D02*
X106135264Y-98081870D01*
X95174260Y-98999920D02*
X95099630Y-99488920D01*
X106135264Y-98081870D02*
X106293586Y-98697600D01*
X101761051Y-94333780D02*
X101193226Y-94187780D01*
X99495583Y-95093000D02*
X99006584Y-95167600D01*
X97889953Y-103883320D02*
X97525118Y-103661670D01*
X95099630Y-99488920D02*
X95074200Y-99992460D01*
X99006584Y-95167600D02*
X98534607Y-95288950D01*
X95074200Y-99992460D02*
X95099630Y-100496010D01*
X98534607Y-95288950D02*
X98082126Y-95454560D01*
X95099630Y-100496010D02*
X95174260Y-100985000D01*
X104188769Y-95802810D02*
X103768007Y-95420400D01*
X95809481Y-104182110D02*
X96230242Y-104564520D01*
X96584659Y-97177800D02*
X96870252Y-96863570D01*
X95461228Y-101909460D02*
X95668615Y-102339970D01*
X103311876Y-95079310D02*
X102823355Y-94782520D01*
X95915303Y-102746030D02*
X96198816Y-103125170D01*
X102823355Y-94782520D02*
X102305420Y-94533020D01*
X96198816Y-103125170D02*
X96516680Y-103474910D01*
X102305420Y-94533020D02*
X101761051Y-94333780D01*
X96516680Y-103474910D02*
X96866418Y-103792780D01*
X97692830Y-105451900D02*
X98237199Y-105651140D01*
X96866418Y-103792780D02*
X97245556Y-104076290D01*
X104956969Y-104079350D02*
X104542289Y-104535610D01*
X97245556Y-104076290D02*
X97651617Y-104322980D01*
X104542289Y-104535610D02*
X104086025Y-104950290D01*
X97651617Y-104322980D02*
X98082126Y-104530360D01*
X105180367Y-98379190D02*
X105314051Y-98899100D01*
X95295618Y-101456980D02*
X95461228Y-101909460D01*
X98082126Y-104530360D02*
X98534607Y-104695970D01*
X105314051Y-98899100D02*
X105396261Y-99437770D01*
X98534607Y-104695970D02*
X99006585Y-104817330D01*
X99006585Y-104817330D02*
X99495585Y-104891930D01*
X99495585Y-104891930D02*
X99999130Y-104917330D01*
X102813800Y-96577980D02*
X103128030Y-96863570D01*
X99999130Y-104917330D02*
X100502675Y-104891930D01*
X98088541Y-93856330D02*
X98704276Y-93698010D01*
X95041303Y-104079350D02*
X94671435Y-103584730D01*
X105424277Y-99992460D02*
X105396267Y-100547150D01*
X102346643Y-104322980D02*
X102752704Y-104076290D01*
X98704276Y-93698010D02*
X99342217Y-93600610D01*
X94671435Y-103584730D02*
X94349610Y-103054990D01*
X105396267Y-100547150D02*
X105314057Y-101085820D01*
X102752704Y-104076290D02*
X103131842Y-103792780D01*
X95812827Y-96541570D02*
X96162975Y-96156310D01*
X103799444Y-103125170D02*
X104082957Y-102746030D01*
X103061662Y-94342940D02*
X103591403Y-94664770D01*
X104329645Y-102339970D02*
X104537032Y-101909460D01*
X104702638Y-98527940D02*
X104537028Y-98075460D01*
X104824000Y-100985000D02*
X104898630Y-100496010D01*
X100451563Y-95590340D02*
X100890916Y-95657440D01*
X104898626Y-99488920D02*
X104823996Y-98999920D01*
X104702642Y-101456980D02*
X104824000Y-100985000D01*
X104823996Y-98999920D02*
X104702638Y-98527940D01*
X104997942Y-102104170D02*
X104769492Y-102578410D01*
X104898630Y-100496010D02*
X104924060Y-99992460D01*
X104537028Y-98075460D02*
X104329641Y-97644950D01*
X104924060Y-99992460D02*
X104924056Y-99992460D01*
X104329641Y-97644950D02*
X104082952Y-97238890D01*
X104924056Y-99992460D02*
X104898626Y-99488920D01*
X104082952Y-97238890D02*
X103799439Y-96859750D01*
X94079056Y-102493360D02*
X93863004Y-101903060D01*
X97889962Y-96101600D02*
X98276763Y-95915270D01*
X103799439Y-96859750D02*
X103481575Y-96510020D01*
X103481575Y-96510020D02*
X103131837Y-96192150D01*
X101909731Y-106128600D02*
X101293995Y-106286920D01*
X99999132Y-105417590D02*
X99444442Y-105389590D01*
X103131837Y-96192150D02*
X102752699Y-95908640D01*
X101293995Y-106286920D02*
X100656054Y-106384320D01*
X102752699Y-95908640D02*
X102346639Y-95661950D01*
X99999136Y-106417520D02*
X99342218Y-106384320D01*
X101916130Y-95454560D02*
X101463649Y-95288950D01*
X100750000Y-95121000D02*
X100750000Y-94609000D01*
X106390950Y-100649380D02*
X106293590Y-101287320D01*
X99444440Y-94595340D02*
X99750000Y-94565000D01*
X100750000Y-94609000D02*
X101092484Y-94677540D01*
X106293590Y-101287320D02*
X106135268Y-101903060D01*
X99750000Y-94565000D02*
X99750000Y-94068000D01*
X101092484Y-94677540D02*
X101612400Y-94811220D01*
X98237189Y-94333780D02*
X97692820Y-94533020D01*
X103032377Y-95493850D02*
X103450022Y-95806160D01*
X97692820Y-94533020D02*
X97174885Y-94782520D01*
X103450022Y-95806160D02*
X103835283Y-96156310D01*
X96230233Y-95420400D02*
X95809471Y-95802810D01*
X101916134Y-104530360D02*
X102346643Y-104322980D01*
X103835283Y-96156310D02*
X104185431Y-96541570D01*
X105893592Y-99386660D02*
X105803802Y-98798350D01*
X105180373Y-101605730D02*
X104997942Y-102104170D01*
X95500516Y-103025710D02*
X95228772Y-102578410D01*
X98082126Y-95454560D02*
X97651617Y-95661950D01*
X95174260Y-100985000D02*
X95295618Y-101456980D01*
X104497748Y-103025710D02*
X104185439Y-103443360D01*
X95228772Y-102578410D02*
X95000322Y-102104170D01*
X104185439Y-103443360D02*
X103835290Y-103828620D01*
X103450029Y-104178770D02*
X103032383Y-104491080D01*
X103032383Y-104491080D02*
X102585079Y-104762820D01*
X102110844Y-104991270D02*
X101612405Y-105173710D01*
X101612405Y-105173710D02*
X101092489Y-105307390D01*
X103889995Y-97883280D02*
X104076327Y-98270080D01*
X101092489Y-105307390D02*
X100553822Y-105389590D01*
X99291107Y-93103370D02*
X99750000Y-93086000D01*
X99750000Y-93565000D02*
X99750000Y-93086000D01*
X99239961Y-92605880D02*
X99750000Y-92586000D01*
X99591318Y-92077820D02*
X99750000Y-92068000D01*
X99750000Y-92586000D02*
X99750000Y-92068000D01*
X99565583Y-91578400D02*
X99750000Y-91576000D01*
X99750000Y-91576000D02*
X99750000Y-91078000D01*
X99539851Y-91079030D02*
X99750000Y-91078000D01*
X99514128Y-90579790D02*
X99750000Y-90571000D01*
X99488387Y-90080440D02*
X99750000Y-90068000D01*
X99750000Y-90571000D02*
X99750000Y-90068000D01*
X99483665Y-89607190D02*
X99750000Y-89590000D01*
X100250000Y-89152000D02*
X100250000Y-95570000D01*
D15*
X100628000Y-87014000D02*
X100651000Y-87747000D01*
X100628000Y-87014000D02*
X102000000Y-87000000D01*
X100651000Y-87747000D02*
X102000000Y-87000000D01*
D16*
X100250000Y-89152000D02*
X100402979Y-88616000D01*
D15*
X100651000Y-87747000D02*
X100402979Y-88616000D01*
D14*
X99750000Y-89590000D02*
X99750000Y-89234000D01*
D15*
X99480000Y-88753000D02*
X99244000Y-87765000D01*
X99244000Y-87765000D02*
X99271000Y-87040000D01*
X99271000Y-87040000D02*
X98000000Y-87000000D01*
X99244000Y-87765000D02*
X98000000Y-87000000D01*
D17*
X99750000Y-89234000D02*
X99480000Y-88753000D01*
D14*
G04 #@! TO.N,Net-(NTC1-Pad1)*
X101763300Y-97572900D02*
X100417000Y-98044000D01*
X100484000Y-96459000D02*
X101763300Y-97572900D01*
G04 #@! TO.N,Net-(NTC1-Pad2)*
X98236600Y-97572900D02*
X99583000Y-98045000D01*
X99514000Y-96459000D02*
X98236600Y-97572900D01*
G04 #@! TD*
M02*
