G04 #@! TF.GenerationSoftware,KiCad,Pcbnew,5.0.2-bee76a0~70~ubuntu18.04.1*
G04 #@! TF.CreationDate,2019-06-21T11:09:07+02:00*
G04 #@! TF.ProjectId,RocketPCR,526f636b-6574-4504-9352-2e6b69636164,rev?*
G04 #@! TF.SameCoordinates,Original*
G04 #@! TF.FileFunction,Soldermask,Bot*
G04 #@! TF.FilePolarity,Negative*
%FSLAX46Y46*%
G04 Gerber Fmt 4.6, Leading zero omitted, Abs format (unit mm)*
G04 Created by KiCad (PCBNEW 5.0.2-bee76a0~70~ubuntu18.04.1) date Fr 21 Jun 2019 11:09:07 CEST*
%MOMM*%
%LPD*%
G01*
G04 APERTURE LIST*
%ADD10C,0.100000*%
G04 APERTURE END LIST*
D10*
G36*
X122601830Y-112172899D02*
X122762055Y-112221503D01*
X122909720Y-112300431D01*
X123039149Y-112406651D01*
X123145369Y-112536080D01*
X123224297Y-112683745D01*
X123272901Y-112843970D01*
X123289312Y-113010600D01*
X123272901Y-113177230D01*
X123224297Y-113337455D01*
X123145369Y-113485120D01*
X123039149Y-113614549D01*
X122909720Y-113720769D01*
X122762055Y-113799697D01*
X122601830Y-113848301D01*
X122476952Y-113860600D01*
X122393448Y-113860600D01*
X122268570Y-113848301D01*
X122108345Y-113799697D01*
X121960680Y-113720769D01*
X121831251Y-113614549D01*
X121725031Y-113485120D01*
X121646103Y-113337455D01*
X121597499Y-113177230D01*
X121581088Y-113010600D01*
X121597499Y-112843970D01*
X121646103Y-112683745D01*
X121725031Y-112536080D01*
X121831251Y-112406651D01*
X121960680Y-112300431D01*
X122108345Y-112221503D01*
X122268570Y-112172899D01*
X122393448Y-112160600D01*
X122476952Y-112160600D01*
X122601830Y-112172899D01*
X122601830Y-112172899D01*
G37*
G36*
X164425824Y-111555355D02*
X164458536Y-111565279D01*
X164488690Y-111581397D01*
X164515116Y-111603084D01*
X164536803Y-111629510D01*
X164552921Y-111659664D01*
X164562845Y-111692376D01*
X164566800Y-111732538D01*
X164566800Y-113120262D01*
X164562845Y-113160424D01*
X164552921Y-113193136D01*
X164536803Y-113223290D01*
X164515116Y-113249716D01*
X164488690Y-113271403D01*
X164458536Y-113287521D01*
X164425824Y-113297445D01*
X164385662Y-113301400D01*
X163497938Y-113301400D01*
X163457776Y-113297445D01*
X163425064Y-113287521D01*
X163394910Y-113271403D01*
X163368484Y-113249716D01*
X163346797Y-113223290D01*
X163330679Y-113193136D01*
X163320755Y-113160424D01*
X163316800Y-113120262D01*
X163316800Y-111732538D01*
X163320755Y-111692376D01*
X163330679Y-111659664D01*
X163346797Y-111629510D01*
X163368484Y-111603084D01*
X163394910Y-111581397D01*
X163425064Y-111565279D01*
X163457776Y-111555355D01*
X163497938Y-111551400D01*
X164385662Y-111551400D01*
X164425824Y-111555355D01*
X164425824Y-111555355D01*
G37*
G36*
X161625824Y-111555355D02*
X161658536Y-111565279D01*
X161688690Y-111581397D01*
X161715116Y-111603084D01*
X161736803Y-111629510D01*
X161752921Y-111659664D01*
X161762845Y-111692376D01*
X161766800Y-111732538D01*
X161766800Y-113120262D01*
X161762845Y-113160424D01*
X161752921Y-113193136D01*
X161736803Y-113223290D01*
X161715116Y-113249716D01*
X161688690Y-113271403D01*
X161658536Y-113287521D01*
X161625824Y-113297445D01*
X161585662Y-113301400D01*
X160697938Y-113301400D01*
X160657776Y-113297445D01*
X160625064Y-113287521D01*
X160594910Y-113271403D01*
X160568484Y-113249716D01*
X160546797Y-113223290D01*
X160530679Y-113193136D01*
X160520755Y-113160424D01*
X160516800Y-113120262D01*
X160516800Y-111732538D01*
X160520755Y-111692376D01*
X160530679Y-111659664D01*
X160546797Y-111629510D01*
X160568484Y-111603084D01*
X160594910Y-111581397D01*
X160625064Y-111565279D01*
X160657776Y-111555355D01*
X160697938Y-111551400D01*
X161585662Y-111551400D01*
X161625824Y-111555355D01*
X161625824Y-111555355D01*
G37*
G36*
X123285200Y-111320600D02*
X121585200Y-111320600D01*
X121585200Y-109620600D01*
X123285200Y-109620600D01*
X123285200Y-111320600D01*
X123285200Y-111320600D01*
G37*
G36*
X119227600Y-111023000D02*
X118327600Y-111023000D01*
X118327600Y-110223000D01*
X119227600Y-110223000D01*
X119227600Y-111023000D01*
X119227600Y-111023000D01*
G37*
G36*
X129567792Y-110035676D02*
X129601683Y-110045957D01*
X129632911Y-110062648D01*
X129660285Y-110085115D01*
X129682752Y-110112489D01*
X129699443Y-110143717D01*
X129709724Y-110177608D01*
X129713800Y-110218991D01*
X129713800Y-110819209D01*
X129709724Y-110860592D01*
X129699443Y-110894483D01*
X129682752Y-110925711D01*
X129660285Y-110953085D01*
X129632911Y-110975552D01*
X129601683Y-110992243D01*
X129567792Y-111002524D01*
X129526409Y-111006600D01*
X128501191Y-111006600D01*
X128459808Y-111002524D01*
X128425917Y-110992243D01*
X128394689Y-110975552D01*
X128367315Y-110953085D01*
X128344848Y-110925711D01*
X128328157Y-110894483D01*
X128317876Y-110860592D01*
X128313800Y-110819209D01*
X128313800Y-110218991D01*
X128317876Y-110177608D01*
X128328157Y-110143717D01*
X128344848Y-110112489D01*
X128367315Y-110085115D01*
X128394689Y-110062648D01*
X128425917Y-110045957D01*
X128459808Y-110035676D01*
X128501191Y-110031600D01*
X129526409Y-110031600D01*
X129567792Y-110035676D01*
X129567792Y-110035676D01*
G37*
G36*
X152427792Y-109384676D02*
X152461683Y-109394957D01*
X152492911Y-109411648D01*
X152520285Y-109434115D01*
X152542752Y-109461489D01*
X152559443Y-109492717D01*
X152569724Y-109526608D01*
X152573800Y-109567991D01*
X152573800Y-110168209D01*
X152569724Y-110209592D01*
X152559443Y-110243483D01*
X152542752Y-110274711D01*
X152520285Y-110302085D01*
X152492911Y-110324552D01*
X152461683Y-110341243D01*
X152427792Y-110351524D01*
X152386409Y-110355600D01*
X151361191Y-110355600D01*
X151319808Y-110351524D01*
X151285917Y-110341243D01*
X151254689Y-110324552D01*
X151227315Y-110302085D01*
X151204848Y-110274711D01*
X151188157Y-110243483D01*
X151177876Y-110209592D01*
X151173800Y-110168209D01*
X151173800Y-109567991D01*
X151177876Y-109526608D01*
X151188157Y-109492717D01*
X151204848Y-109461489D01*
X151227315Y-109434115D01*
X151254689Y-109411648D01*
X151285917Y-109394957D01*
X151319808Y-109384676D01*
X151361191Y-109380600D01*
X152386409Y-109380600D01*
X152427792Y-109384676D01*
X152427792Y-109384676D01*
G37*
G36*
X155120192Y-109359276D02*
X155154083Y-109369557D01*
X155185311Y-109386248D01*
X155212685Y-109408715D01*
X155235152Y-109436089D01*
X155251843Y-109467317D01*
X155262124Y-109501208D01*
X155266200Y-109542591D01*
X155266200Y-110142809D01*
X155262124Y-110184192D01*
X155251843Y-110218083D01*
X155235152Y-110249311D01*
X155212685Y-110276685D01*
X155185311Y-110299152D01*
X155154083Y-110315843D01*
X155120192Y-110326124D01*
X155078809Y-110330200D01*
X154053591Y-110330200D01*
X154012208Y-110326124D01*
X153978317Y-110315843D01*
X153947089Y-110299152D01*
X153919715Y-110276685D01*
X153897248Y-110249311D01*
X153880557Y-110218083D01*
X153870276Y-110184192D01*
X153866200Y-110142809D01*
X153866200Y-109542591D01*
X153870276Y-109501208D01*
X153880557Y-109467317D01*
X153897248Y-109436089D01*
X153919715Y-109408715D01*
X153947089Y-109386248D01*
X153978317Y-109369557D01*
X154012208Y-109359276D01*
X154053591Y-109355200D01*
X155078809Y-109355200D01*
X155120192Y-109359276D01*
X155120192Y-109359276D01*
G37*
G36*
X117227600Y-110073000D02*
X116327600Y-110073000D01*
X116327600Y-109273000D01*
X117227600Y-109273000D01*
X117227600Y-110073000D01*
X117227600Y-110073000D01*
G37*
G36*
X129567792Y-108160676D02*
X129601683Y-108170957D01*
X129632911Y-108187648D01*
X129660285Y-108210115D01*
X129682752Y-108237489D01*
X129699443Y-108268717D01*
X129709724Y-108302608D01*
X129713800Y-108343991D01*
X129713800Y-108944209D01*
X129709724Y-108985592D01*
X129699443Y-109019483D01*
X129682752Y-109050711D01*
X129660285Y-109078085D01*
X129632911Y-109100552D01*
X129601683Y-109117243D01*
X129567792Y-109127524D01*
X129526409Y-109131600D01*
X128501191Y-109131600D01*
X128459808Y-109127524D01*
X128425917Y-109117243D01*
X128394689Y-109100552D01*
X128367315Y-109078085D01*
X128344848Y-109050711D01*
X128328157Y-109019483D01*
X128317876Y-108985592D01*
X128313800Y-108944209D01*
X128313800Y-108343991D01*
X128317876Y-108302608D01*
X128328157Y-108268717D01*
X128344848Y-108237489D01*
X128367315Y-108210115D01*
X128394689Y-108187648D01*
X128425917Y-108170957D01*
X128459808Y-108160676D01*
X128501191Y-108156600D01*
X129526409Y-108156600D01*
X129567792Y-108160676D01*
X129567792Y-108160676D01*
G37*
G36*
X119227600Y-109123000D02*
X118327600Y-109123000D01*
X118327600Y-108323000D01*
X119227600Y-108323000D01*
X119227600Y-109123000D01*
X119227600Y-109123000D01*
G37*
G36*
X152427792Y-107509676D02*
X152461683Y-107519957D01*
X152492911Y-107536648D01*
X152520285Y-107559115D01*
X152542752Y-107586489D01*
X152559443Y-107617717D01*
X152569724Y-107651608D01*
X152573800Y-107692991D01*
X152573800Y-108293209D01*
X152569724Y-108334592D01*
X152559443Y-108368483D01*
X152542752Y-108399711D01*
X152520285Y-108427085D01*
X152492911Y-108449552D01*
X152461683Y-108466243D01*
X152427792Y-108476524D01*
X152386409Y-108480600D01*
X151361191Y-108480600D01*
X151319808Y-108476524D01*
X151285917Y-108466243D01*
X151254689Y-108449552D01*
X151227315Y-108427085D01*
X151204848Y-108399711D01*
X151188157Y-108368483D01*
X151177876Y-108334592D01*
X151173800Y-108293209D01*
X151173800Y-107692991D01*
X151177876Y-107651608D01*
X151188157Y-107617717D01*
X151204848Y-107586489D01*
X151227315Y-107559115D01*
X151254689Y-107536648D01*
X151285917Y-107519957D01*
X151319808Y-107509676D01*
X151361191Y-107505600D01*
X152386409Y-107505600D01*
X152427792Y-107509676D01*
X152427792Y-107509676D01*
G37*
G36*
X155120192Y-107484276D02*
X155154083Y-107494557D01*
X155185311Y-107511248D01*
X155212685Y-107533715D01*
X155235152Y-107561089D01*
X155251843Y-107592317D01*
X155262124Y-107626208D01*
X155266200Y-107667591D01*
X155266200Y-108267809D01*
X155262124Y-108309192D01*
X155251843Y-108343083D01*
X155235152Y-108374311D01*
X155212685Y-108401685D01*
X155185311Y-108424152D01*
X155154083Y-108440843D01*
X155120192Y-108451124D01*
X155078809Y-108455200D01*
X154053591Y-108455200D01*
X154012208Y-108451124D01*
X153978317Y-108440843D01*
X153947089Y-108424152D01*
X153919715Y-108401685D01*
X153897248Y-108374311D01*
X153880557Y-108343083D01*
X153870276Y-108309192D01*
X153866200Y-108267809D01*
X153866200Y-107667591D01*
X153870276Y-107626208D01*
X153880557Y-107592317D01*
X153897248Y-107561089D01*
X153919715Y-107533715D01*
X153947089Y-107511248D01*
X153978317Y-107494557D01*
X154012208Y-107484276D01*
X154053591Y-107480200D01*
X155078809Y-107480200D01*
X155120192Y-107484276D01*
X155120192Y-107484276D01*
G37*
G36*
X165632770Y-106470372D02*
X165748689Y-106493429D01*
X165930678Y-106568811D01*
X166094463Y-106678249D01*
X166233751Y-106817537D01*
X166343189Y-106981322D01*
X166418571Y-107163311D01*
X166441628Y-107279230D01*
X166457000Y-107356507D01*
X166457000Y-107553493D01*
X166449277Y-107592317D01*
X166418571Y-107746689D01*
X166343189Y-107928678D01*
X166233751Y-108092463D01*
X166094463Y-108231751D01*
X165930678Y-108341189D01*
X165748689Y-108416571D01*
X165647764Y-108436646D01*
X165555493Y-108455000D01*
X165358507Y-108455000D01*
X165266236Y-108436646D01*
X165165311Y-108416571D01*
X164983322Y-108341189D01*
X164819537Y-108231751D01*
X164680249Y-108092463D01*
X164570811Y-107928678D01*
X164495429Y-107746689D01*
X164464723Y-107592317D01*
X164457000Y-107553493D01*
X164457000Y-107356507D01*
X164472372Y-107279230D01*
X164495429Y-107163311D01*
X164570811Y-106981322D01*
X164680249Y-106817537D01*
X164819537Y-106678249D01*
X164983322Y-106568811D01*
X165165311Y-106493429D01*
X165281230Y-106470372D01*
X165358507Y-106455000D01*
X165555493Y-106455000D01*
X165632770Y-106470372D01*
X165632770Y-106470372D01*
G37*
G36*
X168132770Y-106470372D02*
X168248689Y-106493429D01*
X168430678Y-106568811D01*
X168594463Y-106678249D01*
X168733751Y-106817537D01*
X168843189Y-106981322D01*
X168918571Y-107163311D01*
X168941628Y-107279230D01*
X168957000Y-107356507D01*
X168957000Y-107553493D01*
X168949277Y-107592317D01*
X168918571Y-107746689D01*
X168843189Y-107928678D01*
X168733751Y-108092463D01*
X168594463Y-108231751D01*
X168430678Y-108341189D01*
X168248689Y-108416571D01*
X168147764Y-108436646D01*
X168055493Y-108455000D01*
X167858507Y-108455000D01*
X167766236Y-108436646D01*
X167665311Y-108416571D01*
X167483322Y-108341189D01*
X167319537Y-108231751D01*
X167180249Y-108092463D01*
X167070811Y-107928678D01*
X166995429Y-107746689D01*
X166964723Y-107592317D01*
X166957000Y-107553493D01*
X166957000Y-107356507D01*
X166972372Y-107279230D01*
X166995429Y-107163311D01*
X167070811Y-106981322D01*
X167180249Y-106817537D01*
X167319537Y-106678249D01*
X167483322Y-106568811D01*
X167665311Y-106493429D01*
X167781230Y-106470372D01*
X167858507Y-106455000D01*
X168055493Y-106455000D01*
X168132770Y-106470372D01*
X168132770Y-106470372D01*
G37*
G36*
X163957000Y-108455000D02*
X161957000Y-108455000D01*
X161957000Y-106455000D01*
X163957000Y-106455000D01*
X163957000Y-108455000D01*
X163957000Y-108455000D01*
G37*
G36*
X129516992Y-106047876D02*
X129550883Y-106058157D01*
X129582111Y-106074848D01*
X129609485Y-106097315D01*
X129631952Y-106124689D01*
X129648643Y-106155917D01*
X129658924Y-106189808D01*
X129663000Y-106231191D01*
X129663000Y-106831409D01*
X129658924Y-106872792D01*
X129648643Y-106906683D01*
X129631952Y-106937911D01*
X129609485Y-106965285D01*
X129582111Y-106987752D01*
X129550883Y-107004443D01*
X129516992Y-107014724D01*
X129475609Y-107018800D01*
X128450391Y-107018800D01*
X128409008Y-107014724D01*
X128375117Y-107004443D01*
X128343889Y-106987752D01*
X128316515Y-106965285D01*
X128294048Y-106937911D01*
X128277357Y-106906683D01*
X128267076Y-106872792D01*
X128263000Y-106831409D01*
X128263000Y-106231191D01*
X128267076Y-106189808D01*
X128277357Y-106155917D01*
X128294048Y-106124689D01*
X128316515Y-106097315D01*
X128343889Y-106074848D01*
X128375117Y-106058157D01*
X128409008Y-106047876D01*
X128450391Y-106043800D01*
X129475609Y-106043800D01*
X129516992Y-106047876D01*
X129516992Y-106047876D01*
G37*
G36*
X155170992Y-105108076D02*
X155204883Y-105118357D01*
X155236111Y-105135048D01*
X155263485Y-105157515D01*
X155285952Y-105184889D01*
X155302643Y-105216117D01*
X155312924Y-105250008D01*
X155317000Y-105291391D01*
X155317000Y-105891609D01*
X155312924Y-105932992D01*
X155302643Y-105966883D01*
X155285952Y-105998111D01*
X155263485Y-106025485D01*
X155236111Y-106047952D01*
X155204883Y-106064643D01*
X155170992Y-106074924D01*
X155129609Y-106079000D01*
X154104391Y-106079000D01*
X154063008Y-106074924D01*
X154029117Y-106064643D01*
X153997889Y-106047952D01*
X153970515Y-106025485D01*
X153948048Y-105998111D01*
X153931357Y-105966883D01*
X153921076Y-105932992D01*
X153917000Y-105891609D01*
X153917000Y-105291391D01*
X153921076Y-105250008D01*
X153931357Y-105216117D01*
X153948048Y-105184889D01*
X153970515Y-105157515D01*
X153997889Y-105135048D01*
X154029117Y-105118357D01*
X154063008Y-105108076D01*
X154104391Y-105104000D01*
X155129609Y-105104000D01*
X155170992Y-105108076D01*
X155170992Y-105108076D01*
G37*
G36*
X120793000Y-105623000D02*
X119893000Y-105623000D01*
X119893000Y-104823000D01*
X120793000Y-104823000D01*
X120793000Y-105623000D01*
X120793000Y-105623000D01*
G37*
G36*
X129516992Y-104172876D02*
X129550883Y-104183157D01*
X129582111Y-104199848D01*
X129609485Y-104222315D01*
X129631952Y-104249689D01*
X129648643Y-104280917D01*
X129658924Y-104314808D01*
X129663000Y-104356191D01*
X129663000Y-104956409D01*
X129658924Y-104997792D01*
X129648643Y-105031683D01*
X129631952Y-105062911D01*
X129609485Y-105090285D01*
X129582111Y-105112752D01*
X129550883Y-105129443D01*
X129516992Y-105139724D01*
X129475609Y-105143800D01*
X128450391Y-105143800D01*
X128409008Y-105139724D01*
X128375117Y-105129443D01*
X128343889Y-105112752D01*
X128316515Y-105090285D01*
X128294048Y-105062911D01*
X128277357Y-105031683D01*
X128267076Y-104997792D01*
X128263000Y-104956409D01*
X128263000Y-104356191D01*
X128267076Y-104314808D01*
X128277357Y-104280917D01*
X128294048Y-104249689D01*
X128316515Y-104222315D01*
X128343889Y-104199848D01*
X128375117Y-104183157D01*
X128409008Y-104172876D01*
X128450391Y-104168800D01*
X129475609Y-104168800D01*
X129516992Y-104172876D01*
X129516992Y-104172876D01*
G37*
G36*
X183915414Y-104060788D02*
X183990814Y-104083660D01*
X184060303Y-104120803D01*
X184121211Y-104170789D01*
X184171197Y-104231697D01*
X184208340Y-104301186D01*
X184231212Y-104376586D01*
X184238935Y-104455000D01*
X184231212Y-104533414D01*
X184208340Y-104608814D01*
X184171197Y-104678303D01*
X184121211Y-104739211D01*
X184060303Y-104789197D01*
X183990814Y-104826340D01*
X183915414Y-104849212D01*
X183856647Y-104855000D01*
X183217353Y-104855000D01*
X183158586Y-104849212D01*
X183083186Y-104826340D01*
X183013697Y-104789197D01*
X182952789Y-104739211D01*
X182902803Y-104678303D01*
X182865660Y-104608814D01*
X182842788Y-104533414D01*
X182835065Y-104455000D01*
X182842788Y-104376586D01*
X182865660Y-104301186D01*
X182902803Y-104231697D01*
X182952789Y-104170789D01*
X183013697Y-104120803D01*
X183083186Y-104083660D01*
X183158586Y-104060788D01*
X183217353Y-104055000D01*
X183856647Y-104055000D01*
X183915414Y-104060788D01*
X183915414Y-104060788D01*
G37*
G36*
X122793000Y-104673000D02*
X121893000Y-104673000D01*
X121893000Y-103873000D01*
X122793000Y-103873000D01*
X122793000Y-104673000D01*
X122793000Y-104673000D01*
G37*
G36*
X177965414Y-103700788D02*
X178040814Y-103723660D01*
X178110303Y-103760803D01*
X178171211Y-103810789D01*
X178221197Y-103871697D01*
X178258340Y-103941186D01*
X178281212Y-104016586D01*
X178288935Y-104095000D01*
X178281212Y-104173414D01*
X178258340Y-104248814D01*
X178221197Y-104318303D01*
X178171211Y-104379211D01*
X178110303Y-104429197D01*
X178040814Y-104466340D01*
X177965414Y-104489212D01*
X177906647Y-104495000D01*
X177267353Y-104495000D01*
X177208586Y-104489212D01*
X177133186Y-104466340D01*
X177063697Y-104429197D01*
X177002789Y-104379211D01*
X176952803Y-104318303D01*
X176915660Y-104248814D01*
X176892788Y-104173414D01*
X176885065Y-104095000D01*
X176892788Y-104016586D01*
X176915660Y-103941186D01*
X176952803Y-103871697D01*
X177002789Y-103810789D01*
X177063697Y-103760803D01*
X177133186Y-103723660D01*
X177208586Y-103700788D01*
X177267353Y-103695000D01*
X177906647Y-103695000D01*
X177965414Y-103700788D01*
X177965414Y-103700788D01*
G37*
G36*
X155170992Y-103233076D02*
X155204883Y-103243357D01*
X155236111Y-103260048D01*
X155263485Y-103282515D01*
X155285952Y-103309889D01*
X155302643Y-103341117D01*
X155312924Y-103375008D01*
X155317000Y-103416391D01*
X155317000Y-104016609D01*
X155312924Y-104057992D01*
X155302643Y-104091883D01*
X155285952Y-104123111D01*
X155263485Y-104150485D01*
X155236111Y-104172952D01*
X155204883Y-104189643D01*
X155170992Y-104199924D01*
X155129609Y-104204000D01*
X154104391Y-104204000D01*
X154063008Y-104199924D01*
X154029117Y-104189643D01*
X153997889Y-104172952D01*
X153970515Y-104150485D01*
X153948048Y-104123111D01*
X153931357Y-104091883D01*
X153921076Y-104057992D01*
X153917000Y-104016609D01*
X153917000Y-103416391D01*
X153921076Y-103375008D01*
X153931357Y-103341117D01*
X153948048Y-103309889D01*
X153970515Y-103282515D01*
X153997889Y-103260048D01*
X154029117Y-103243357D01*
X154063008Y-103233076D01*
X154104391Y-103229000D01*
X155129609Y-103229000D01*
X155170992Y-103233076D01*
X155170992Y-103233076D01*
G37*
G36*
X176400712Y-103094702D02*
X176461972Y-103113285D01*
X176499614Y-103133406D01*
X176518434Y-103143465D01*
X176567921Y-103184079D01*
X176608535Y-103233566D01*
X176618594Y-103252386D01*
X176638715Y-103290028D01*
X176657298Y-103351288D01*
X176662000Y-103399035D01*
X176662000Y-103730965D01*
X176657298Y-103778712D01*
X176638715Y-103839972D01*
X176621758Y-103871695D01*
X176608536Y-103896433D01*
X176608534Y-103896435D01*
X176567924Y-103945918D01*
X176567922Y-103945919D01*
X176567921Y-103945921D01*
X176518433Y-103986535D01*
X176488253Y-104002666D01*
X176461971Y-104016715D01*
X176400711Y-104035298D01*
X176337000Y-104041572D01*
X176273288Y-104035298D01*
X176212028Y-104016715D01*
X176174386Y-103996594D01*
X176155566Y-103986535D01*
X176123538Y-103960250D01*
X176106082Y-103945924D01*
X176106081Y-103945922D01*
X176106079Y-103945921D01*
X176065465Y-103896433D01*
X176049334Y-103866253D01*
X176035285Y-103839971D01*
X176016702Y-103778711D01*
X176012000Y-103730964D01*
X176012000Y-103399035D01*
X176016702Y-103351288D01*
X176035286Y-103290027D01*
X176065403Y-103233684D01*
X176065466Y-103233566D01*
X176106080Y-103184079D01*
X176155567Y-103143465D01*
X176174387Y-103133406D01*
X176212029Y-103113285D01*
X176273289Y-103094702D01*
X176337000Y-103088428D01*
X176400712Y-103094702D01*
X176400712Y-103094702D01*
G37*
G36*
X120793000Y-103723000D02*
X119893000Y-103723000D01*
X119893000Y-102923000D01*
X120793000Y-102923000D01*
X120793000Y-103723000D01*
X120793000Y-103723000D01*
G37*
G36*
X150737000Y-102880000D02*
X148237000Y-102880000D01*
X148237000Y-100380000D01*
X150737000Y-100380000D01*
X150737000Y-102880000D01*
X150737000Y-102880000D01*
G37*
G36*
X131237000Y-102880000D02*
X128737000Y-102880000D01*
X128737000Y-100380000D01*
X131237000Y-100380000D01*
X131237000Y-102880000D01*
X131237000Y-102880000D01*
G37*
G36*
X176027000Y-102865000D02*
X175327000Y-102865000D01*
X175327000Y-97065000D01*
X176027000Y-97065000D01*
X176027000Y-102865000D01*
X176027000Y-102865000D01*
G37*
G36*
X83639521Y-101011586D02*
X83803309Y-101079429D01*
X83950720Y-101177926D01*
X84076074Y-101303280D01*
X84174571Y-101450691D01*
X84242414Y-101614479D01*
X84277000Y-101788356D01*
X84277000Y-101965644D01*
X84242414Y-102139521D01*
X84174571Y-102303309D01*
X84076074Y-102450720D01*
X83950720Y-102576074D01*
X83803309Y-102674571D01*
X83639521Y-102742414D01*
X83465644Y-102777000D01*
X83288356Y-102777000D01*
X83114479Y-102742414D01*
X82950691Y-102674571D01*
X82803280Y-102576074D01*
X82677926Y-102450720D01*
X82579429Y-102303309D01*
X82511586Y-102139521D01*
X82477000Y-101965644D01*
X82477000Y-101788356D01*
X82511586Y-101614479D01*
X82579429Y-101450691D01*
X82677926Y-101303280D01*
X82803280Y-101177926D01*
X82950691Y-101079429D01*
X83114479Y-101011586D01*
X83288356Y-100977000D01*
X83465644Y-100977000D01*
X83639521Y-101011586D01*
X83639521Y-101011586D01*
G37*
G36*
X177727000Y-102615000D02*
X177027000Y-102615000D01*
X177027000Y-96815000D01*
X177727000Y-96815000D01*
X177727000Y-102615000D01*
X177727000Y-102615000D01*
G37*
G36*
X160857000Y-101555000D02*
X158857000Y-101555000D01*
X158857000Y-98355000D01*
X160857000Y-98355000D01*
X160857000Y-101555000D01*
X160857000Y-101555000D01*
G37*
G36*
X172057000Y-101555000D02*
X170057000Y-101555000D01*
X170057000Y-98355000D01*
X172057000Y-98355000D01*
X172057000Y-101555000D01*
X172057000Y-101555000D01*
G37*
G36*
X147137000Y-101155000D02*
X132337000Y-101155000D01*
X132337000Y-99905000D01*
X147137000Y-99905000D01*
X147137000Y-101155000D01*
X147137000Y-101155000D01*
G37*
G36*
X117465600Y-101051000D02*
X116565600Y-101051000D01*
X116565600Y-100251000D01*
X117465600Y-100251000D01*
X117465600Y-101051000D01*
X117465600Y-101051000D01*
G37*
G36*
X119465600Y-100101000D02*
X118565600Y-100101000D01*
X118565600Y-99301000D01*
X119465600Y-99301000D01*
X119465600Y-100101000D01*
X119465600Y-100101000D01*
G37*
G36*
X83741521Y-97598586D02*
X83905309Y-97666429D01*
X84052720Y-97764926D01*
X84178074Y-97890280D01*
X84276571Y-98037691D01*
X84344414Y-98201479D01*
X84379000Y-98375356D01*
X84379000Y-98552644D01*
X84344414Y-98726521D01*
X84276571Y-98890309D01*
X84178074Y-99037720D01*
X84052720Y-99163074D01*
X83905309Y-99261571D01*
X83741521Y-99329414D01*
X83567644Y-99364000D01*
X83390356Y-99364000D01*
X83216479Y-99329414D01*
X83052691Y-99261571D01*
X82905280Y-99163074D01*
X82779926Y-99037720D01*
X82681429Y-98890309D01*
X82613586Y-98726521D01*
X82579000Y-98552644D01*
X82579000Y-98375356D01*
X82613586Y-98201479D01*
X82681429Y-98037691D01*
X82779926Y-97890280D01*
X82905280Y-97764926D01*
X83052691Y-97666429D01*
X83216479Y-97598586D01*
X83390356Y-97564000D01*
X83567644Y-97564000D01*
X83741521Y-97598586D01*
X83741521Y-97598586D01*
G37*
G36*
X117465600Y-99151000D02*
X116565600Y-99151000D01*
X116565600Y-98351000D01*
X117465600Y-98351000D01*
X117465600Y-99151000D01*
X117465600Y-99151000D01*
G37*
G36*
X147130992Y-97669076D02*
X147164883Y-97679357D01*
X147196111Y-97696048D01*
X147223485Y-97718515D01*
X147245952Y-97745889D01*
X147262643Y-97777117D01*
X147272924Y-97811008D01*
X147277000Y-97852391D01*
X147277000Y-98452609D01*
X147272924Y-98493992D01*
X147262643Y-98527883D01*
X147245952Y-98559111D01*
X147223485Y-98586485D01*
X147196111Y-98608952D01*
X147164883Y-98625643D01*
X147130992Y-98635924D01*
X147089609Y-98640000D01*
X146064391Y-98640000D01*
X146023008Y-98635924D01*
X145989117Y-98625643D01*
X145957889Y-98608952D01*
X145930515Y-98586485D01*
X145908048Y-98559111D01*
X145891357Y-98527883D01*
X145881076Y-98493992D01*
X145877000Y-98452609D01*
X145877000Y-97852391D01*
X145881076Y-97811008D01*
X145891357Y-97777117D01*
X145908048Y-97745889D01*
X145930515Y-97718515D01*
X145957889Y-97696048D01*
X145989117Y-97679357D01*
X146023008Y-97669076D01*
X146064391Y-97665000D01*
X147089609Y-97665000D01*
X147130992Y-97669076D01*
X147130992Y-97669076D01*
G37*
G36*
X142552000Y-97811000D02*
X136802000Y-97811000D01*
X136802000Y-96511000D01*
X142552000Y-96511000D01*
X142552000Y-97811000D01*
X142552000Y-97811000D01*
G37*
G36*
X147130992Y-95794076D02*
X147164883Y-95804357D01*
X147196111Y-95821048D01*
X147223485Y-95843515D01*
X147245952Y-95870889D01*
X147262643Y-95902117D01*
X147272924Y-95936008D01*
X147277000Y-95977391D01*
X147277000Y-96577609D01*
X147272924Y-96618992D01*
X147262643Y-96652883D01*
X147245952Y-96684111D01*
X147223485Y-96711485D01*
X147196111Y-96733952D01*
X147164883Y-96750643D01*
X147130992Y-96760924D01*
X147089609Y-96765000D01*
X146064391Y-96765000D01*
X146023008Y-96760924D01*
X145989117Y-96750643D01*
X145957889Y-96733952D01*
X145930515Y-96711485D01*
X145908048Y-96684111D01*
X145891357Y-96652883D01*
X145881076Y-96618992D01*
X145877000Y-96577609D01*
X145877000Y-95977391D01*
X145881076Y-95936008D01*
X145891357Y-95902117D01*
X145908048Y-95870889D01*
X145930515Y-95843515D01*
X145957889Y-95821048D01*
X145989117Y-95804357D01*
X146023008Y-95794076D01*
X146064391Y-95790000D01*
X147089609Y-95790000D01*
X147130992Y-95794076D01*
X147130992Y-95794076D01*
G37*
G36*
X176431799Y-96052489D02*
X176477543Y-96071437D01*
X176490941Y-96076986D01*
X176490942Y-96076987D01*
X176490945Y-96076988D01*
X176544176Y-96112556D01*
X176589444Y-96157824D01*
X176625012Y-96211055D01*
X176649511Y-96270201D01*
X176662000Y-96332990D01*
X176662000Y-96397010D01*
X176649511Y-96459799D01*
X176625012Y-96518945D01*
X176589444Y-96572176D01*
X176544176Y-96617444D01*
X176490945Y-96653012D01*
X176490942Y-96653013D01*
X176490941Y-96653014D01*
X176482114Y-96656670D01*
X176431799Y-96677511D01*
X176369010Y-96690000D01*
X176304990Y-96690000D01*
X176242201Y-96677511D01*
X176191886Y-96656670D01*
X176183059Y-96653014D01*
X176183058Y-96653013D01*
X176183055Y-96653012D01*
X176129824Y-96617444D01*
X176084556Y-96572176D01*
X176048988Y-96518945D01*
X176024489Y-96459799D01*
X176012000Y-96397010D01*
X176012000Y-96332990D01*
X176024489Y-96270201D01*
X176048988Y-96211055D01*
X176084556Y-96157824D01*
X176129824Y-96112556D01*
X176183055Y-96076988D01*
X176183058Y-96076987D01*
X176183059Y-96076986D01*
X176196457Y-96071437D01*
X176242201Y-96052489D01*
X176304990Y-96040000D01*
X176369010Y-96040000D01*
X176431799Y-96052489D01*
X176431799Y-96052489D01*
G37*
G36*
X156885800Y-96345000D02*
X153228200Y-96345000D01*
X153228200Y-94313000D01*
X156885800Y-94313000D01*
X156885800Y-96345000D01*
X156885800Y-96345000D01*
G37*
G36*
X177965414Y-95440788D02*
X178040814Y-95463660D01*
X178110303Y-95500803D01*
X178171211Y-95550789D01*
X178221197Y-95611697D01*
X178258340Y-95681186D01*
X178281212Y-95756586D01*
X178288935Y-95835000D01*
X178281212Y-95913414D01*
X178258340Y-95988814D01*
X178221197Y-96058303D01*
X178171211Y-96119211D01*
X178110303Y-96169197D01*
X178040814Y-96206340D01*
X177965414Y-96229212D01*
X177906647Y-96235000D01*
X177267353Y-96235000D01*
X177208586Y-96229212D01*
X177133186Y-96206340D01*
X177063697Y-96169197D01*
X177002789Y-96119211D01*
X176952803Y-96058303D01*
X176915660Y-95988814D01*
X176892788Y-95913414D01*
X176885065Y-95835000D01*
X176892788Y-95756586D01*
X176915660Y-95681186D01*
X176952803Y-95611697D01*
X177002789Y-95550789D01*
X177063697Y-95500803D01*
X177133186Y-95463660D01*
X177208586Y-95440788D01*
X177267353Y-95435000D01*
X177906647Y-95435000D01*
X177965414Y-95440788D01*
X177965414Y-95440788D01*
G37*
G36*
X183915414Y-95080788D02*
X183990814Y-95103660D01*
X184060303Y-95140803D01*
X184121211Y-95190789D01*
X184171197Y-95251697D01*
X184208340Y-95321186D01*
X184231212Y-95396586D01*
X184238935Y-95475000D01*
X184231212Y-95553414D01*
X184208340Y-95628814D01*
X184171197Y-95698303D01*
X184121211Y-95759211D01*
X184060303Y-95809197D01*
X183990814Y-95846340D01*
X183915414Y-95869212D01*
X183856647Y-95875000D01*
X183217353Y-95875000D01*
X183158586Y-95869212D01*
X183083186Y-95846340D01*
X183013697Y-95809197D01*
X182952789Y-95759211D01*
X182902803Y-95698303D01*
X182865660Y-95628814D01*
X182842788Y-95553414D01*
X182835065Y-95475000D01*
X182842788Y-95396586D01*
X182865660Y-95321186D01*
X182902803Y-95251697D01*
X182952789Y-95190789D01*
X183013697Y-95140803D01*
X183083186Y-95103660D01*
X183158586Y-95080788D01*
X183217353Y-95075000D01*
X183856647Y-95075000D01*
X183915414Y-95080788D01*
X183915414Y-95080788D01*
G37*
G36*
X122139392Y-94433076D02*
X122173283Y-94443357D01*
X122204511Y-94460048D01*
X122231885Y-94482515D01*
X122254352Y-94509889D01*
X122271043Y-94541117D01*
X122281324Y-94575008D01*
X122285400Y-94616391D01*
X122285400Y-95641609D01*
X122281324Y-95682992D01*
X122271043Y-95716883D01*
X122254352Y-95748111D01*
X122231885Y-95775485D01*
X122204511Y-95797952D01*
X122173283Y-95814643D01*
X122139392Y-95824924D01*
X122098009Y-95829000D01*
X121497791Y-95829000D01*
X121456408Y-95824924D01*
X121422517Y-95814643D01*
X121391289Y-95797952D01*
X121363915Y-95775485D01*
X121341448Y-95748111D01*
X121324757Y-95716883D01*
X121314476Y-95682992D01*
X121310400Y-95641609D01*
X121310400Y-94616391D01*
X121314476Y-94575008D01*
X121324757Y-94541117D01*
X121341448Y-94509889D01*
X121363915Y-94482515D01*
X121391289Y-94460048D01*
X121422517Y-94443357D01*
X121456408Y-94433076D01*
X121497791Y-94429000D01*
X122098009Y-94429000D01*
X122139392Y-94433076D01*
X122139392Y-94433076D01*
G37*
G36*
X120264392Y-94433076D02*
X120298283Y-94443357D01*
X120329511Y-94460048D01*
X120356885Y-94482515D01*
X120379352Y-94509889D01*
X120396043Y-94541117D01*
X120406324Y-94575008D01*
X120410400Y-94616391D01*
X120410400Y-95641609D01*
X120406324Y-95682992D01*
X120396043Y-95716883D01*
X120379352Y-95748111D01*
X120356885Y-95775485D01*
X120329511Y-95797952D01*
X120298283Y-95814643D01*
X120264392Y-95824924D01*
X120223009Y-95829000D01*
X119622791Y-95829000D01*
X119581408Y-95824924D01*
X119547517Y-95814643D01*
X119516289Y-95797952D01*
X119488915Y-95775485D01*
X119466448Y-95748111D01*
X119449757Y-95716883D01*
X119439476Y-95682992D01*
X119435400Y-95641609D01*
X119435400Y-94616391D01*
X119439476Y-94575008D01*
X119449757Y-94541117D01*
X119466448Y-94509889D01*
X119488915Y-94482515D01*
X119516289Y-94460048D01*
X119547517Y-94443357D01*
X119581408Y-94433076D01*
X119622791Y-94429000D01*
X120223009Y-94429000D01*
X120264392Y-94433076D01*
X120264392Y-94433076D01*
G37*
G36*
X135977000Y-95686000D02*
X134677000Y-95686000D01*
X134677000Y-89936000D01*
X135977000Y-89936000D01*
X135977000Y-95686000D01*
X135977000Y-95686000D01*
G37*
G36*
X144677000Y-95686000D02*
X143377000Y-95686000D01*
X143377000Y-89936000D01*
X144677000Y-89936000D01*
X144677000Y-95686000D01*
X144677000Y-95686000D01*
G37*
G36*
X147804992Y-93246276D02*
X147838883Y-93256557D01*
X147870111Y-93273248D01*
X147897485Y-93295715D01*
X147919952Y-93323089D01*
X147936643Y-93354317D01*
X147946924Y-93388208D01*
X147951000Y-93429591D01*
X147951000Y-94029809D01*
X147946924Y-94071192D01*
X147936643Y-94105083D01*
X147919952Y-94136311D01*
X147897485Y-94163685D01*
X147870111Y-94186152D01*
X147838883Y-94202843D01*
X147804992Y-94213124D01*
X147763609Y-94217200D01*
X146738391Y-94217200D01*
X146697008Y-94213124D01*
X146663117Y-94202843D01*
X146631889Y-94186152D01*
X146604515Y-94163685D01*
X146582048Y-94136311D01*
X146565357Y-94105083D01*
X146555076Y-94071192D01*
X146551000Y-94029809D01*
X146551000Y-93429591D01*
X146555076Y-93388208D01*
X146565357Y-93354317D01*
X146582048Y-93323089D01*
X146604515Y-93295715D01*
X146631889Y-93273248D01*
X146663117Y-93256557D01*
X146697008Y-93246276D01*
X146738391Y-93242200D01*
X147763609Y-93242200D01*
X147804992Y-93246276D01*
X147804992Y-93246276D01*
G37*
G36*
X168130344Y-91969889D02*
X168248689Y-91993429D01*
X168430678Y-92068811D01*
X168594463Y-92178249D01*
X168733751Y-92317537D01*
X168843189Y-92481322D01*
X168918571Y-92663311D01*
X168923084Y-92686000D01*
X168957000Y-92856507D01*
X168957000Y-93053493D01*
X168947429Y-93101609D01*
X168918571Y-93246689D01*
X168843189Y-93428678D01*
X168733751Y-93592463D01*
X168594463Y-93731751D01*
X168430678Y-93841189D01*
X168248689Y-93916571D01*
X168132770Y-93939628D01*
X168055493Y-93955000D01*
X167858507Y-93955000D01*
X167781230Y-93939628D01*
X167665311Y-93916571D01*
X167483322Y-93841189D01*
X167319537Y-93731751D01*
X167180249Y-93592463D01*
X167070811Y-93428678D01*
X166995429Y-93246689D01*
X166966571Y-93101609D01*
X166957000Y-93053493D01*
X166957000Y-92856507D01*
X166990916Y-92686000D01*
X166995429Y-92663311D01*
X167070811Y-92481322D01*
X167180249Y-92317537D01*
X167319537Y-92178249D01*
X167483322Y-92068811D01*
X167665311Y-91993429D01*
X167783656Y-91969889D01*
X167858507Y-91955000D01*
X168055493Y-91955000D01*
X168130344Y-91969889D01*
X168130344Y-91969889D01*
G37*
G36*
X163130344Y-91969889D02*
X163248689Y-91993429D01*
X163430678Y-92068811D01*
X163594463Y-92178249D01*
X163733751Y-92317537D01*
X163843189Y-92481322D01*
X163918571Y-92663311D01*
X163923084Y-92686000D01*
X163957000Y-92856507D01*
X163957000Y-93053493D01*
X163947429Y-93101609D01*
X163918571Y-93246689D01*
X163843189Y-93428678D01*
X163733751Y-93592463D01*
X163594463Y-93731751D01*
X163430678Y-93841189D01*
X163248689Y-93916571D01*
X163132770Y-93939628D01*
X163055493Y-93955000D01*
X162858507Y-93955000D01*
X162781230Y-93939628D01*
X162665311Y-93916571D01*
X162483322Y-93841189D01*
X162319537Y-93731751D01*
X162180249Y-93592463D01*
X162070811Y-93428678D01*
X161995429Y-93246689D01*
X161966571Y-93101609D01*
X161957000Y-93053493D01*
X161957000Y-92856507D01*
X161990916Y-92686000D01*
X161995429Y-92663311D01*
X162070811Y-92481322D01*
X162180249Y-92317537D01*
X162319537Y-92178249D01*
X162483322Y-92068811D01*
X162665311Y-91993429D01*
X162783656Y-91969889D01*
X162858507Y-91955000D01*
X163055493Y-91955000D01*
X163130344Y-91969889D01*
X163130344Y-91969889D01*
G37*
G36*
X180279992Y-91893076D02*
X180313883Y-91903357D01*
X180345111Y-91920048D01*
X180372485Y-91942515D01*
X180394952Y-91969889D01*
X180411643Y-92001117D01*
X180421924Y-92035008D01*
X180426000Y-92076391D01*
X180426000Y-93101609D01*
X180421924Y-93142992D01*
X180411643Y-93176883D01*
X180394952Y-93208111D01*
X180372485Y-93235485D01*
X180345111Y-93257952D01*
X180313883Y-93274643D01*
X180279992Y-93284924D01*
X180238609Y-93289000D01*
X179638391Y-93289000D01*
X179597008Y-93284924D01*
X179563117Y-93274643D01*
X179531889Y-93257952D01*
X179504515Y-93235485D01*
X179482048Y-93208111D01*
X179465357Y-93176883D01*
X179455076Y-93142992D01*
X179451000Y-93101609D01*
X179451000Y-92076391D01*
X179455076Y-92035008D01*
X179465357Y-92001117D01*
X179482048Y-91969889D01*
X179504515Y-91942515D01*
X179531889Y-91920048D01*
X179563117Y-91903357D01*
X179597008Y-91893076D01*
X179638391Y-91889000D01*
X180238609Y-91889000D01*
X180279992Y-91893076D01*
X180279992Y-91893076D01*
G37*
G36*
X175041992Y-91893076D02*
X175075883Y-91903357D01*
X175107111Y-91920048D01*
X175134485Y-91942515D01*
X175156952Y-91969889D01*
X175173643Y-92001117D01*
X175183924Y-92035008D01*
X175188000Y-92076391D01*
X175188000Y-93101609D01*
X175183924Y-93142992D01*
X175173643Y-93176883D01*
X175156952Y-93208111D01*
X175134485Y-93235485D01*
X175107111Y-93257952D01*
X175075883Y-93274643D01*
X175041992Y-93284924D01*
X175000609Y-93289000D01*
X174400391Y-93289000D01*
X174359008Y-93284924D01*
X174325117Y-93274643D01*
X174293889Y-93257952D01*
X174266515Y-93235485D01*
X174244048Y-93208111D01*
X174227357Y-93176883D01*
X174217076Y-93142992D01*
X174213000Y-93101609D01*
X174213000Y-92076391D01*
X174217076Y-92035008D01*
X174227357Y-92001117D01*
X174244048Y-91969889D01*
X174266515Y-91942515D01*
X174293889Y-91920048D01*
X174325117Y-91903357D01*
X174359008Y-91893076D01*
X174400391Y-91889000D01*
X175000609Y-91889000D01*
X175041992Y-91893076D01*
X175041992Y-91893076D01*
G37*
G36*
X176916992Y-91893076D02*
X176950883Y-91903357D01*
X176982111Y-91920048D01*
X177009485Y-91942515D01*
X177031952Y-91969889D01*
X177048643Y-92001117D01*
X177058924Y-92035008D01*
X177063000Y-92076391D01*
X177063000Y-93101609D01*
X177058924Y-93142992D01*
X177048643Y-93176883D01*
X177031952Y-93208111D01*
X177009485Y-93235485D01*
X176982111Y-93257952D01*
X176950883Y-93274643D01*
X176916992Y-93284924D01*
X176875609Y-93289000D01*
X176275391Y-93289000D01*
X176234008Y-93284924D01*
X176200117Y-93274643D01*
X176168889Y-93257952D01*
X176141515Y-93235485D01*
X176119048Y-93208111D01*
X176102357Y-93176883D01*
X176092076Y-93142992D01*
X176088000Y-93101609D01*
X176088000Y-92076391D01*
X176092076Y-92035008D01*
X176102357Y-92001117D01*
X176119048Y-91969889D01*
X176141515Y-91942515D01*
X176168889Y-91920048D01*
X176200117Y-91903357D01*
X176234008Y-91893076D01*
X176275391Y-91889000D01*
X176875609Y-91889000D01*
X176916992Y-91893076D01*
X176916992Y-91893076D01*
G37*
G36*
X178404992Y-91893076D02*
X178438883Y-91903357D01*
X178470111Y-91920048D01*
X178497485Y-91942515D01*
X178519952Y-91969889D01*
X178536643Y-92001117D01*
X178546924Y-92035008D01*
X178551000Y-92076391D01*
X178551000Y-93101609D01*
X178546924Y-93142992D01*
X178536643Y-93176883D01*
X178519952Y-93208111D01*
X178497485Y-93235485D01*
X178470111Y-93257952D01*
X178438883Y-93274643D01*
X178404992Y-93284924D01*
X178363609Y-93289000D01*
X177763391Y-93289000D01*
X177722008Y-93284924D01*
X177688117Y-93274643D01*
X177656889Y-93257952D01*
X177629515Y-93235485D01*
X177607048Y-93208111D01*
X177590357Y-93176883D01*
X177580076Y-93142992D01*
X177576000Y-93101609D01*
X177576000Y-92076391D01*
X177580076Y-92035008D01*
X177590357Y-92001117D01*
X177607048Y-91969889D01*
X177629515Y-91942515D01*
X177656889Y-91920048D01*
X177688117Y-91903357D01*
X177722008Y-91893076D01*
X177763391Y-91889000D01*
X178363609Y-91889000D01*
X178404992Y-91893076D01*
X178404992Y-91893076D01*
G37*
G36*
X124126000Y-92609000D02*
X123386000Y-92609000D01*
X123386000Y-90209000D01*
X124126000Y-90209000D01*
X124126000Y-92609000D01*
X124126000Y-92609000D01*
G37*
G36*
X122856000Y-92609000D02*
X122116000Y-92609000D01*
X122116000Y-90209000D01*
X122856000Y-90209000D01*
X122856000Y-92609000D01*
X122856000Y-92609000D01*
G37*
G36*
X121586000Y-92609000D02*
X120846000Y-92609000D01*
X120846000Y-90209000D01*
X121586000Y-90209000D01*
X121586000Y-92609000D01*
X121586000Y-92609000D01*
G37*
G36*
X120316000Y-92609000D02*
X119576000Y-92609000D01*
X119576000Y-90209000D01*
X120316000Y-90209000D01*
X120316000Y-92609000D01*
X120316000Y-92609000D01*
G37*
G36*
X125396000Y-92609000D02*
X124656000Y-92609000D01*
X124656000Y-90209000D01*
X125396000Y-90209000D01*
X125396000Y-92609000D01*
X125396000Y-92609000D01*
G37*
G36*
X147804992Y-91371276D02*
X147838883Y-91381557D01*
X147870111Y-91398248D01*
X147897485Y-91420715D01*
X147919952Y-91448089D01*
X147936643Y-91479317D01*
X147946924Y-91513208D01*
X147951000Y-91554591D01*
X147951000Y-92154809D01*
X147946924Y-92196192D01*
X147936643Y-92230083D01*
X147919952Y-92261311D01*
X147897485Y-92288685D01*
X147870111Y-92311152D01*
X147838883Y-92327843D01*
X147804992Y-92338124D01*
X147763609Y-92342200D01*
X146738391Y-92342200D01*
X146697008Y-92338124D01*
X146663117Y-92327843D01*
X146631889Y-92311152D01*
X146604515Y-92288685D01*
X146582048Y-92261311D01*
X146565357Y-92230083D01*
X146555076Y-92196192D01*
X146551000Y-92154809D01*
X146551000Y-91554591D01*
X146555076Y-91513208D01*
X146565357Y-91479317D01*
X146582048Y-91448089D01*
X146604515Y-91420715D01*
X146631889Y-91398248D01*
X146663117Y-91381557D01*
X146697008Y-91371276D01*
X146738391Y-91367200D01*
X147763609Y-91367200D01*
X147804992Y-91371276D01*
X147804992Y-91371276D01*
G37*
G36*
X132945992Y-90630076D02*
X132979883Y-90640357D01*
X133011111Y-90657048D01*
X133038485Y-90679515D01*
X133060952Y-90706889D01*
X133077643Y-90738117D01*
X133087924Y-90772008D01*
X133092000Y-90813391D01*
X133092000Y-91413609D01*
X133087924Y-91454992D01*
X133077643Y-91488883D01*
X133060952Y-91520111D01*
X133038485Y-91547485D01*
X133011111Y-91569952D01*
X132979883Y-91586643D01*
X132945992Y-91596924D01*
X132904609Y-91601000D01*
X131879391Y-91601000D01*
X131838008Y-91596924D01*
X131804117Y-91586643D01*
X131772889Y-91569952D01*
X131745515Y-91547485D01*
X131723048Y-91520111D01*
X131706357Y-91488883D01*
X131696076Y-91454992D01*
X131692000Y-91413609D01*
X131692000Y-90813391D01*
X131696076Y-90772008D01*
X131706357Y-90738117D01*
X131723048Y-90706889D01*
X131745515Y-90679515D01*
X131772889Y-90657048D01*
X131804117Y-90640357D01*
X131838008Y-90630076D01*
X131879391Y-90626000D01*
X132904609Y-90626000D01*
X132945992Y-90630076D01*
X132945992Y-90630076D01*
G37*
G36*
X166847992Y-89480076D02*
X166881883Y-89490357D01*
X166913111Y-89507048D01*
X166940485Y-89529515D01*
X166962952Y-89556889D01*
X166979643Y-89588117D01*
X166989924Y-89622008D01*
X166994000Y-89663391D01*
X166994000Y-90688609D01*
X166989924Y-90729992D01*
X166979643Y-90763883D01*
X166962952Y-90795111D01*
X166940485Y-90822485D01*
X166913111Y-90844952D01*
X166881883Y-90861643D01*
X166847992Y-90871924D01*
X166806609Y-90876000D01*
X166206391Y-90876000D01*
X166165008Y-90871924D01*
X166131117Y-90861643D01*
X166099889Y-90844952D01*
X166072515Y-90822485D01*
X166050048Y-90795111D01*
X166033357Y-90763883D01*
X166023076Y-90729992D01*
X166019000Y-90688609D01*
X166019000Y-89663391D01*
X166023076Y-89622008D01*
X166033357Y-89588117D01*
X166050048Y-89556889D01*
X166072515Y-89529515D01*
X166099889Y-89507048D01*
X166131117Y-89490357D01*
X166165008Y-89480076D01*
X166206391Y-89476000D01*
X166806609Y-89476000D01*
X166847992Y-89480076D01*
X166847992Y-89480076D01*
G37*
G36*
X168722992Y-89480076D02*
X168756883Y-89490357D01*
X168788111Y-89507048D01*
X168815485Y-89529515D01*
X168837952Y-89556889D01*
X168854643Y-89588117D01*
X168864924Y-89622008D01*
X168869000Y-89663391D01*
X168869000Y-90688609D01*
X168864924Y-90729992D01*
X168854643Y-90763883D01*
X168837952Y-90795111D01*
X168815485Y-90822485D01*
X168788111Y-90844952D01*
X168756883Y-90861643D01*
X168722992Y-90871924D01*
X168681609Y-90876000D01*
X168081391Y-90876000D01*
X168040008Y-90871924D01*
X168006117Y-90861643D01*
X167974889Y-90844952D01*
X167947515Y-90822485D01*
X167925048Y-90795111D01*
X167908357Y-90763883D01*
X167898076Y-90729992D01*
X167894000Y-90688609D01*
X167894000Y-89663391D01*
X167898076Y-89622008D01*
X167908357Y-89588117D01*
X167925048Y-89556889D01*
X167947515Y-89529515D01*
X167974889Y-89507048D01*
X168006117Y-89490357D01*
X168040008Y-89480076D01*
X168081391Y-89476000D01*
X168681609Y-89476000D01*
X168722992Y-89480076D01*
X168722992Y-89480076D01*
G37*
G36*
X162910992Y-89469076D02*
X162944883Y-89479357D01*
X162976111Y-89496048D01*
X163003485Y-89518515D01*
X163025952Y-89545889D01*
X163042643Y-89577117D01*
X163052924Y-89611008D01*
X163057000Y-89652391D01*
X163057000Y-90677609D01*
X163052924Y-90718992D01*
X163042643Y-90752883D01*
X163025952Y-90784111D01*
X163003485Y-90811485D01*
X162976111Y-90833952D01*
X162944883Y-90850643D01*
X162910992Y-90860924D01*
X162869609Y-90865000D01*
X162269391Y-90865000D01*
X162228008Y-90860924D01*
X162194117Y-90850643D01*
X162162889Y-90833952D01*
X162135515Y-90811485D01*
X162113048Y-90784111D01*
X162096357Y-90752883D01*
X162086076Y-90718992D01*
X162082000Y-90677609D01*
X162082000Y-89652391D01*
X162086076Y-89611008D01*
X162096357Y-89577117D01*
X162113048Y-89545889D01*
X162135515Y-89518515D01*
X162162889Y-89496048D01*
X162194117Y-89479357D01*
X162228008Y-89469076D01*
X162269391Y-89465000D01*
X162869609Y-89465000D01*
X162910992Y-89469076D01*
X162910992Y-89469076D01*
G37*
G36*
X164785992Y-89469076D02*
X164819883Y-89479357D01*
X164851111Y-89496048D01*
X164878485Y-89518515D01*
X164900952Y-89545889D01*
X164917643Y-89577117D01*
X164927924Y-89611008D01*
X164932000Y-89652391D01*
X164932000Y-90677609D01*
X164927924Y-90718992D01*
X164917643Y-90752883D01*
X164900952Y-90784111D01*
X164878485Y-90811485D01*
X164851111Y-90833952D01*
X164819883Y-90850643D01*
X164785992Y-90860924D01*
X164744609Y-90865000D01*
X164144391Y-90865000D01*
X164103008Y-90860924D01*
X164069117Y-90850643D01*
X164037889Y-90833952D01*
X164010515Y-90811485D01*
X163988048Y-90784111D01*
X163971357Y-90752883D01*
X163961076Y-90718992D01*
X163957000Y-90677609D01*
X163957000Y-89652391D01*
X163961076Y-89611008D01*
X163971357Y-89577117D01*
X163988048Y-89545889D01*
X164010515Y-89518515D01*
X164037889Y-89496048D01*
X164069117Y-89479357D01*
X164103008Y-89469076D01*
X164144391Y-89465000D01*
X164744609Y-89465000D01*
X164785992Y-89469076D01*
X164785992Y-89469076D01*
G37*
G36*
X149994000Y-90466400D02*
X148994000Y-90466400D01*
X148994000Y-88666400D01*
X149994000Y-88666400D01*
X149994000Y-90466400D01*
X149994000Y-90466400D01*
G37*
G36*
X147494000Y-90466400D02*
X146494000Y-90466400D01*
X146494000Y-88666400D01*
X147494000Y-88666400D01*
X147494000Y-90466400D01*
X147494000Y-90466400D01*
G37*
G36*
X155565000Y-89741000D02*
X154549000Y-89741000D01*
X154549000Y-87709000D01*
X155565000Y-87709000D01*
X155565000Y-89741000D01*
X155565000Y-89741000D01*
G37*
G36*
X153279000Y-89741000D02*
X152263000Y-89741000D01*
X152263000Y-87709000D01*
X153279000Y-87709000D01*
X153279000Y-89741000D01*
X153279000Y-89741000D01*
G37*
G36*
X157851000Y-89741000D02*
X156835000Y-89741000D01*
X156835000Y-87709000D01*
X157851000Y-87709000D01*
X157851000Y-89741000D01*
X157851000Y-89741000D01*
G37*
G36*
X132945992Y-88755076D02*
X132979883Y-88765357D01*
X133011111Y-88782048D01*
X133038485Y-88804515D01*
X133060952Y-88831889D01*
X133077643Y-88863117D01*
X133087924Y-88897008D01*
X133092000Y-88938391D01*
X133092000Y-89538609D01*
X133087924Y-89579992D01*
X133077643Y-89613883D01*
X133060952Y-89645111D01*
X133038485Y-89672485D01*
X133011111Y-89694952D01*
X132979883Y-89711643D01*
X132945992Y-89721924D01*
X132904609Y-89726000D01*
X131879391Y-89726000D01*
X131838008Y-89721924D01*
X131804117Y-89711643D01*
X131772889Y-89694952D01*
X131745515Y-89672485D01*
X131723048Y-89645111D01*
X131706357Y-89613883D01*
X131696076Y-89579992D01*
X131692000Y-89538609D01*
X131692000Y-88938391D01*
X131696076Y-88897008D01*
X131706357Y-88863117D01*
X131723048Y-88831889D01*
X131745515Y-88804515D01*
X131772889Y-88782048D01*
X131804117Y-88765357D01*
X131838008Y-88755076D01*
X131879391Y-88751000D01*
X132904609Y-88751000D01*
X132945992Y-88755076D01*
X132945992Y-88755076D01*
G37*
G36*
X142552000Y-89111000D02*
X136802000Y-89111000D01*
X136802000Y-87811000D01*
X142552000Y-87811000D01*
X142552000Y-89111000D01*
X142552000Y-89111000D01*
G37*
G36*
X125396000Y-88709000D02*
X124656000Y-88709000D01*
X124656000Y-86309000D01*
X125396000Y-86309000D01*
X125396000Y-88709000D01*
X125396000Y-88709000D01*
G37*
G36*
X122856000Y-88709000D02*
X122116000Y-88709000D01*
X122116000Y-86309000D01*
X122856000Y-86309000D01*
X122856000Y-88709000D01*
X122856000Y-88709000D01*
G37*
G36*
X121586000Y-88709000D02*
X120846000Y-88709000D01*
X120846000Y-86309000D01*
X121586000Y-86309000D01*
X121586000Y-88709000D01*
X121586000Y-88709000D01*
G37*
G36*
X124126000Y-88709000D02*
X123386000Y-88709000D01*
X123386000Y-86309000D01*
X124126000Y-86309000D01*
X124126000Y-88709000D01*
X124126000Y-88709000D01*
G37*
G36*
X120316000Y-88709000D02*
X119576000Y-88709000D01*
X119576000Y-86309000D01*
X120316000Y-86309000D01*
X120316000Y-88709000D01*
X120316000Y-88709000D01*
G37*
G36*
X167406440Y-88428480D02*
X166207560Y-88428480D01*
X166207560Y-87229600D01*
X167406440Y-87229600D01*
X167406440Y-88428480D01*
X167406440Y-88428480D01*
G37*
G36*
X164676440Y-88428480D02*
X163477560Y-88428480D01*
X163477560Y-87229600D01*
X164676440Y-87229600D01*
X164676440Y-88428480D01*
X164676440Y-88428480D01*
G37*
G36*
X147728792Y-86870876D02*
X147762683Y-86881157D01*
X147793911Y-86897848D01*
X147821285Y-86920315D01*
X147843752Y-86947689D01*
X147860443Y-86978917D01*
X147870724Y-87012808D01*
X147874800Y-87054191D01*
X147874800Y-87654409D01*
X147870724Y-87695792D01*
X147860443Y-87729683D01*
X147843752Y-87760911D01*
X147821285Y-87788285D01*
X147793911Y-87810752D01*
X147762683Y-87827443D01*
X147728792Y-87837724D01*
X147687409Y-87841800D01*
X146662191Y-87841800D01*
X146620808Y-87837724D01*
X146586917Y-87827443D01*
X146555689Y-87810752D01*
X146528315Y-87788285D01*
X146505848Y-87760911D01*
X146489157Y-87729683D01*
X146478876Y-87695792D01*
X146474800Y-87654409D01*
X146474800Y-87054191D01*
X146478876Y-87012808D01*
X146489157Y-86978917D01*
X146505848Y-86947689D01*
X146528315Y-86920315D01*
X146555689Y-86897848D01*
X146586917Y-86881157D01*
X146620808Y-86870876D01*
X146662191Y-86866800D01*
X147687409Y-86866800D01*
X147728792Y-86870876D01*
X147728792Y-86870876D01*
G37*
G36*
X149811592Y-86845476D02*
X149845483Y-86855757D01*
X149876711Y-86872448D01*
X149904085Y-86894915D01*
X149926552Y-86922289D01*
X149943243Y-86953517D01*
X149953524Y-86987408D01*
X149957600Y-87028791D01*
X149957600Y-87629009D01*
X149953524Y-87670392D01*
X149943243Y-87704283D01*
X149926552Y-87735511D01*
X149904085Y-87762885D01*
X149876711Y-87785352D01*
X149845483Y-87802043D01*
X149811592Y-87812324D01*
X149770209Y-87816400D01*
X148744991Y-87816400D01*
X148703608Y-87812324D01*
X148669717Y-87802043D01*
X148638489Y-87785352D01*
X148611115Y-87762885D01*
X148588648Y-87735511D01*
X148571957Y-87704283D01*
X148561676Y-87670392D01*
X148557600Y-87629009D01*
X148557600Y-87028791D01*
X148561676Y-86987408D01*
X148571957Y-86953517D01*
X148588648Y-86922289D01*
X148611115Y-86894915D01*
X148638489Y-86872448D01*
X148669717Y-86855757D01*
X148703608Y-86845476D01*
X148744991Y-86841400D01*
X149770209Y-86841400D01*
X149811592Y-86845476D01*
X149811592Y-86845476D01*
G37*
G36*
X162308392Y-86769276D02*
X162342283Y-86779557D01*
X162373511Y-86796248D01*
X162400885Y-86818715D01*
X162423352Y-86846089D01*
X162440043Y-86877317D01*
X162450324Y-86911208D01*
X162454400Y-86952591D01*
X162454400Y-87552809D01*
X162450324Y-87594192D01*
X162440043Y-87628083D01*
X162423352Y-87659311D01*
X162400885Y-87686685D01*
X162373511Y-87709152D01*
X162342283Y-87725843D01*
X162308392Y-87736124D01*
X162267009Y-87740200D01*
X161241791Y-87740200D01*
X161200408Y-87736124D01*
X161166517Y-87725843D01*
X161135289Y-87709152D01*
X161107915Y-87686685D01*
X161085448Y-87659311D01*
X161068757Y-87628083D01*
X161058476Y-87594192D01*
X161054400Y-87552809D01*
X161054400Y-86952591D01*
X161058476Y-86911208D01*
X161068757Y-86877317D01*
X161085448Y-86846089D01*
X161107915Y-86818715D01*
X161135289Y-86796248D01*
X161166517Y-86779557D01*
X161200408Y-86769276D01*
X161241791Y-86765200D01*
X162267009Y-86765200D01*
X162308392Y-86769276D01*
X162308392Y-86769276D01*
G37*
G36*
X159981024Y-84863955D02*
X160013736Y-84873879D01*
X160043890Y-84889997D01*
X160070316Y-84911684D01*
X160092003Y-84938110D01*
X160108121Y-84968264D01*
X160118045Y-85000976D01*
X160122000Y-85041138D01*
X160122000Y-86428862D01*
X160118045Y-86469024D01*
X160108121Y-86501736D01*
X160092003Y-86531890D01*
X160070316Y-86558316D01*
X160043890Y-86580003D01*
X160013736Y-86596121D01*
X159981024Y-86606045D01*
X159940862Y-86610000D01*
X159053138Y-86610000D01*
X159012976Y-86606045D01*
X158980264Y-86596121D01*
X158950110Y-86580003D01*
X158923684Y-86558316D01*
X158901997Y-86531890D01*
X158885879Y-86501736D01*
X158875955Y-86469024D01*
X158872000Y-86428862D01*
X158872000Y-85041138D01*
X158875955Y-85000976D01*
X158885879Y-84968264D01*
X158901997Y-84938110D01*
X158923684Y-84911684D01*
X158950110Y-84889997D01*
X158980264Y-84873879D01*
X159012976Y-84863955D01*
X159053138Y-84860000D01*
X159940862Y-84860000D01*
X159981024Y-84863955D01*
X159981024Y-84863955D01*
G37*
G36*
X157181024Y-84863955D02*
X157213736Y-84873879D01*
X157243890Y-84889997D01*
X157270316Y-84911684D01*
X157292003Y-84938110D01*
X157308121Y-84968264D01*
X157318045Y-85000976D01*
X157322000Y-85041138D01*
X157322000Y-86428862D01*
X157318045Y-86469024D01*
X157308121Y-86501736D01*
X157292003Y-86531890D01*
X157270316Y-86558316D01*
X157243890Y-86580003D01*
X157213736Y-86596121D01*
X157181024Y-86606045D01*
X157140862Y-86610000D01*
X156253138Y-86610000D01*
X156212976Y-86606045D01*
X156180264Y-86596121D01*
X156150110Y-86580003D01*
X156123684Y-86558316D01*
X156101997Y-86531890D01*
X156085879Y-86501736D01*
X156075955Y-86469024D01*
X156072000Y-86428862D01*
X156072000Y-85041138D01*
X156075955Y-85000976D01*
X156085879Y-84968264D01*
X156101997Y-84938110D01*
X156123684Y-84911684D01*
X156150110Y-84889997D01*
X156180264Y-84873879D01*
X156212976Y-84863955D01*
X156253138Y-84860000D01*
X157140862Y-84860000D01*
X157181024Y-84863955D01*
X157181024Y-84863955D01*
G37*
G36*
X138653992Y-85187476D02*
X138687883Y-85197757D01*
X138719111Y-85214448D01*
X138746485Y-85236915D01*
X138768952Y-85264289D01*
X138785643Y-85295517D01*
X138795924Y-85329408D01*
X138800000Y-85370791D01*
X138800000Y-86396009D01*
X138795924Y-86437392D01*
X138785643Y-86471283D01*
X138768952Y-86502511D01*
X138746485Y-86529885D01*
X138719111Y-86552352D01*
X138687883Y-86569043D01*
X138653992Y-86579324D01*
X138612609Y-86583400D01*
X138012391Y-86583400D01*
X137971008Y-86579324D01*
X137937117Y-86569043D01*
X137905889Y-86552352D01*
X137878515Y-86529885D01*
X137856048Y-86502511D01*
X137839357Y-86471283D01*
X137829076Y-86437392D01*
X137825000Y-86396009D01*
X137825000Y-85370791D01*
X137829076Y-85329408D01*
X137839357Y-85295517D01*
X137856048Y-85264289D01*
X137878515Y-85236915D01*
X137905889Y-85214448D01*
X137937117Y-85197757D01*
X137971008Y-85187476D01*
X138012391Y-85183400D01*
X138612609Y-85183400D01*
X138653992Y-85187476D01*
X138653992Y-85187476D01*
G37*
G36*
X142574992Y-85187476D02*
X142608883Y-85197757D01*
X142640111Y-85214448D01*
X142667485Y-85236915D01*
X142689952Y-85264289D01*
X142706643Y-85295517D01*
X142716924Y-85329408D01*
X142721000Y-85370791D01*
X142721000Y-86396009D01*
X142716924Y-86437392D01*
X142706643Y-86471283D01*
X142689952Y-86502511D01*
X142667485Y-86529885D01*
X142640111Y-86552352D01*
X142608883Y-86569043D01*
X142574992Y-86579324D01*
X142533609Y-86583400D01*
X141933391Y-86583400D01*
X141892008Y-86579324D01*
X141858117Y-86569043D01*
X141826889Y-86552352D01*
X141799515Y-86529885D01*
X141777048Y-86502511D01*
X141760357Y-86471283D01*
X141750076Y-86437392D01*
X141746000Y-86396009D01*
X141746000Y-85370791D01*
X141750076Y-85329408D01*
X141760357Y-85295517D01*
X141777048Y-85264289D01*
X141799515Y-85236915D01*
X141826889Y-85214448D01*
X141858117Y-85197757D01*
X141892008Y-85187476D01*
X141933391Y-85183400D01*
X142533609Y-85183400D01*
X142574992Y-85187476D01*
X142574992Y-85187476D01*
G37*
G36*
X140528992Y-85187476D02*
X140562883Y-85197757D01*
X140594111Y-85214448D01*
X140621485Y-85236915D01*
X140643952Y-85264289D01*
X140660643Y-85295517D01*
X140670924Y-85329408D01*
X140675000Y-85370791D01*
X140675000Y-86396009D01*
X140670924Y-86437392D01*
X140660643Y-86471283D01*
X140643952Y-86502511D01*
X140621485Y-86529885D01*
X140594111Y-86552352D01*
X140562883Y-86569043D01*
X140528992Y-86579324D01*
X140487609Y-86583400D01*
X139887391Y-86583400D01*
X139846008Y-86579324D01*
X139812117Y-86569043D01*
X139780889Y-86552352D01*
X139753515Y-86529885D01*
X139731048Y-86502511D01*
X139714357Y-86471283D01*
X139704076Y-86437392D01*
X139700000Y-86396009D01*
X139700000Y-85370791D01*
X139704076Y-85329408D01*
X139714357Y-85295517D01*
X139731048Y-85264289D01*
X139753515Y-85236915D01*
X139780889Y-85214448D01*
X139812117Y-85197757D01*
X139846008Y-85187476D01*
X139887391Y-85183400D01*
X140487609Y-85183400D01*
X140528992Y-85187476D01*
X140528992Y-85187476D01*
G37*
G36*
X144449992Y-85187476D02*
X144483883Y-85197757D01*
X144515111Y-85214448D01*
X144542485Y-85236915D01*
X144564952Y-85264289D01*
X144581643Y-85295517D01*
X144591924Y-85329408D01*
X144596000Y-85370791D01*
X144596000Y-86396009D01*
X144591924Y-86437392D01*
X144581643Y-86471283D01*
X144564952Y-86502511D01*
X144542485Y-86529885D01*
X144515111Y-86552352D01*
X144483883Y-86569043D01*
X144449992Y-86579324D01*
X144408609Y-86583400D01*
X143808391Y-86583400D01*
X143767008Y-86579324D01*
X143733117Y-86569043D01*
X143701889Y-86552352D01*
X143674515Y-86529885D01*
X143652048Y-86502511D01*
X143635357Y-86471283D01*
X143625076Y-86437392D01*
X143621000Y-86396009D01*
X143621000Y-85370791D01*
X143625076Y-85329408D01*
X143635357Y-85295517D01*
X143652048Y-85264289D01*
X143674515Y-85236915D01*
X143701889Y-85214448D01*
X143733117Y-85197757D01*
X143767008Y-85187476D01*
X143808391Y-85183400D01*
X144408609Y-85183400D01*
X144449992Y-85187476D01*
X144449992Y-85187476D01*
G37*
G36*
X136784992Y-85162076D02*
X136818883Y-85172357D01*
X136850111Y-85189048D01*
X136877485Y-85211515D01*
X136899952Y-85238889D01*
X136916643Y-85270117D01*
X136926924Y-85304008D01*
X136931000Y-85345391D01*
X136931000Y-86370609D01*
X136926924Y-86411992D01*
X136916643Y-86445883D01*
X136899952Y-86477111D01*
X136877485Y-86504485D01*
X136850111Y-86526952D01*
X136818883Y-86543643D01*
X136784992Y-86553924D01*
X136743609Y-86558000D01*
X136143391Y-86558000D01*
X136102008Y-86553924D01*
X136068117Y-86543643D01*
X136036889Y-86526952D01*
X136009515Y-86504485D01*
X135987048Y-86477111D01*
X135970357Y-86445883D01*
X135960076Y-86411992D01*
X135956000Y-86370609D01*
X135956000Y-85345391D01*
X135960076Y-85304008D01*
X135970357Y-85270117D01*
X135987048Y-85238889D01*
X136009515Y-85211515D01*
X136036889Y-85189048D01*
X136068117Y-85172357D01*
X136102008Y-85162076D01*
X136143391Y-85158000D01*
X136743609Y-85158000D01*
X136784992Y-85162076D01*
X136784992Y-85162076D01*
G37*
G36*
X134909992Y-85162076D02*
X134943883Y-85172357D01*
X134975111Y-85189048D01*
X135002485Y-85211515D01*
X135024952Y-85238889D01*
X135041643Y-85270117D01*
X135051924Y-85304008D01*
X135056000Y-85345391D01*
X135056000Y-86370609D01*
X135051924Y-86411992D01*
X135041643Y-86445883D01*
X135024952Y-86477111D01*
X135002485Y-86504485D01*
X134975111Y-86526952D01*
X134943883Y-86543643D01*
X134909992Y-86553924D01*
X134868609Y-86558000D01*
X134268391Y-86558000D01*
X134227008Y-86553924D01*
X134193117Y-86543643D01*
X134161889Y-86526952D01*
X134134515Y-86504485D01*
X134112048Y-86477111D01*
X134095357Y-86445883D01*
X134085076Y-86411992D01*
X134081000Y-86370609D01*
X134081000Y-85345391D01*
X134085076Y-85304008D01*
X134095357Y-85270117D01*
X134112048Y-85238889D01*
X134134515Y-85211515D01*
X134161889Y-85189048D01*
X134193117Y-85172357D01*
X134227008Y-85162076D01*
X134268391Y-85158000D01*
X134868609Y-85158000D01*
X134909992Y-85162076D01*
X134909992Y-85162076D01*
G37*
G36*
X155021024Y-84763955D02*
X155053736Y-84773879D01*
X155083890Y-84789997D01*
X155110316Y-84811684D01*
X155132003Y-84838110D01*
X155148121Y-84868264D01*
X155158045Y-84900976D01*
X155162000Y-84941138D01*
X155162000Y-86328862D01*
X155158045Y-86369024D01*
X155148121Y-86401736D01*
X155132003Y-86431890D01*
X155110316Y-86458316D01*
X155083890Y-86480003D01*
X155053736Y-86496121D01*
X155021024Y-86506045D01*
X154980862Y-86510000D01*
X154093138Y-86510000D01*
X154052976Y-86506045D01*
X154020264Y-86496121D01*
X153990110Y-86480003D01*
X153963684Y-86458316D01*
X153941997Y-86431890D01*
X153925879Y-86401736D01*
X153915955Y-86369024D01*
X153912000Y-86328862D01*
X153912000Y-84941138D01*
X153915955Y-84900976D01*
X153925879Y-84868264D01*
X153941997Y-84838110D01*
X153963684Y-84811684D01*
X153990110Y-84789997D01*
X154020264Y-84773879D01*
X154052976Y-84763955D01*
X154093138Y-84760000D01*
X154980862Y-84760000D01*
X155021024Y-84763955D01*
X155021024Y-84763955D01*
G37*
G36*
X152221024Y-84763955D02*
X152253736Y-84773879D01*
X152283890Y-84789997D01*
X152310316Y-84811684D01*
X152332003Y-84838110D01*
X152348121Y-84868264D01*
X152358045Y-84900976D01*
X152362000Y-84941138D01*
X152362000Y-86328862D01*
X152358045Y-86369024D01*
X152348121Y-86401736D01*
X152332003Y-86431890D01*
X152310316Y-86458316D01*
X152283890Y-86480003D01*
X152253736Y-86496121D01*
X152221024Y-86506045D01*
X152180862Y-86510000D01*
X151293138Y-86510000D01*
X151252976Y-86506045D01*
X151220264Y-86496121D01*
X151190110Y-86480003D01*
X151163684Y-86458316D01*
X151141997Y-86431890D01*
X151125879Y-86401736D01*
X151115955Y-86369024D01*
X151112000Y-86328862D01*
X151112000Y-84941138D01*
X151115955Y-84900976D01*
X151125879Y-84868264D01*
X151141997Y-84838110D01*
X151163684Y-84811684D01*
X151190110Y-84789997D01*
X151220264Y-84773879D01*
X151252976Y-84763955D01*
X151293138Y-84760000D01*
X152180862Y-84760000D01*
X152221024Y-84763955D01*
X152221024Y-84763955D01*
G37*
G36*
X167406440Y-86330440D02*
X166207560Y-86330440D01*
X166207560Y-85131560D01*
X167406440Y-85131560D01*
X167406440Y-86330440D01*
X167406440Y-86330440D01*
G37*
G36*
X164676440Y-86330440D02*
X163477560Y-86330440D01*
X163477560Y-85131560D01*
X164676440Y-85131560D01*
X164676440Y-86330440D01*
X164676440Y-86330440D01*
G37*
G36*
X147728792Y-84995876D02*
X147762683Y-85006157D01*
X147793911Y-85022848D01*
X147821285Y-85045315D01*
X147843752Y-85072689D01*
X147860443Y-85103917D01*
X147870724Y-85137808D01*
X147874800Y-85179191D01*
X147874800Y-85779409D01*
X147870724Y-85820792D01*
X147860443Y-85854683D01*
X147843752Y-85885911D01*
X147821285Y-85913285D01*
X147793911Y-85935752D01*
X147762683Y-85952443D01*
X147728792Y-85962724D01*
X147687409Y-85966800D01*
X146662191Y-85966800D01*
X146620808Y-85962724D01*
X146586917Y-85952443D01*
X146555689Y-85935752D01*
X146528315Y-85913285D01*
X146505848Y-85885911D01*
X146489157Y-85854683D01*
X146478876Y-85820792D01*
X146474800Y-85779409D01*
X146474800Y-85179191D01*
X146478876Y-85137808D01*
X146489157Y-85103917D01*
X146505848Y-85072689D01*
X146528315Y-85045315D01*
X146555689Y-85022848D01*
X146586917Y-85006157D01*
X146620808Y-84995876D01*
X146662191Y-84991800D01*
X147687409Y-84991800D01*
X147728792Y-84995876D01*
X147728792Y-84995876D01*
G37*
G36*
X149811592Y-84970476D02*
X149845483Y-84980757D01*
X149876711Y-84997448D01*
X149904085Y-85019915D01*
X149926552Y-85047289D01*
X149943243Y-85078517D01*
X149953524Y-85112408D01*
X149957600Y-85153791D01*
X149957600Y-85754009D01*
X149953524Y-85795392D01*
X149943243Y-85829283D01*
X149926552Y-85860511D01*
X149904085Y-85887885D01*
X149876711Y-85910352D01*
X149845483Y-85927043D01*
X149811592Y-85937324D01*
X149770209Y-85941400D01*
X148744991Y-85941400D01*
X148703608Y-85937324D01*
X148669717Y-85927043D01*
X148638489Y-85910352D01*
X148611115Y-85887885D01*
X148588648Y-85860511D01*
X148571957Y-85829283D01*
X148561676Y-85795392D01*
X148557600Y-85754009D01*
X148557600Y-85153791D01*
X148561676Y-85112408D01*
X148571957Y-85078517D01*
X148588648Y-85047289D01*
X148611115Y-85019915D01*
X148638489Y-84997448D01*
X148669717Y-84980757D01*
X148703608Y-84970476D01*
X148744991Y-84966400D01*
X149770209Y-84966400D01*
X149811592Y-84970476D01*
X149811592Y-84970476D01*
G37*
G36*
X162308392Y-84894276D02*
X162342283Y-84904557D01*
X162373511Y-84921248D01*
X162400885Y-84943715D01*
X162423352Y-84971089D01*
X162440043Y-85002317D01*
X162450324Y-85036208D01*
X162454400Y-85077591D01*
X162454400Y-85677809D01*
X162450324Y-85719192D01*
X162440043Y-85753083D01*
X162423352Y-85784311D01*
X162400885Y-85811685D01*
X162373511Y-85834152D01*
X162342283Y-85850843D01*
X162308392Y-85861124D01*
X162267009Y-85865200D01*
X161241791Y-85865200D01*
X161200408Y-85861124D01*
X161166517Y-85850843D01*
X161135289Y-85834152D01*
X161107915Y-85811685D01*
X161085448Y-85784311D01*
X161068757Y-85753083D01*
X161058476Y-85719192D01*
X161054400Y-85677809D01*
X161054400Y-85077591D01*
X161058476Y-85036208D01*
X161068757Y-85002317D01*
X161085448Y-84971089D01*
X161107915Y-84943715D01*
X161135289Y-84921248D01*
X161166517Y-84904557D01*
X161200408Y-84894276D01*
X161241791Y-84890200D01*
X162267009Y-84890200D01*
X162308392Y-84894276D01*
X162308392Y-84894276D01*
G37*
M02*
