<?xml version="1.0" standalone="no"?>
 <!DOCTYPE svg PUBLIC "-//W3C//DTD SVG 1.1//EN" 
 "http://www.w3.org/Graphics/SVG/1.1/DTD/svg11.dtd"> 
<svg xmlns="http://www.w3.org/2000/svg" version="1.1" 
    width="29.7002cm" height="21.0007cm" viewBox="0 0 116930 82680 ">
<title>SVG Picture created as RocketPCR-brd.svg date 2019/08/20 17:18:51 </title>
  <desc>Picture generated by PCBNEW </desc>
<g style="fill:#000000; fill-opacity:1;stroke:#000000; stroke-opacity:1;
stroke-linecap:round; stroke-linejoin:round; "
 transform="translate(0 0) scale(1 1)">
</g>
<g style="fill:#000000; fill-opacity:0.0; 
stroke:#000000; stroke-width:-0.000393701; stroke-opacity:1; 
stroke-linecap:round; stroke-linejoin:round;">
</g>
<g style="fill:#000000; fill-opacity:0.0; 
stroke:#000000; stroke-width:39.3701; stroke-opacity:1; 
stroke-linecap:round; stroke-linejoin:round;">
</g>
<g style="fill:#000000; fill-opacity:0.0; 
stroke:#000000; stroke-width:59.0551; stroke-opacity:1; 
stroke-linecap:round; stroke-linejoin:round;">
<rect x="69685.9" y="65357.2" width="42519.7" height="12598.4" rx="0" />
</g>
<g style="fill:#000000; fill-opacity:0.0; 
stroke:#000000; stroke-width:39.3701; stroke-opacity:1; 
stroke-linecap:round; stroke-linejoin:round;">
</g>
<g style="fill:#000000; fill-opacity:0.0; 
stroke:#000000; stroke-width:59.0551; stroke-opacity:1; 
stroke-linecap:round; stroke-linejoin:round;">
<rect x="3937.01" y="3937.01" width="109056" height="74806" rx="0" />
</g>
<g style="fill:#000000; fill-opacity:0.0; 
stroke:#000000; stroke-width:39.3701; stroke-opacity:1; 
stroke-linecap:round; stroke-linejoin:round;">
</g>
<g style="fill:#000000; fill-opacity:0.0; 
stroke:#000000; stroke-width:59.0551; stroke-opacity:1; 
stroke-linecap:round; stroke-linejoin:round;">
<rect x="4724.41" y="4724.41" width="107481" height="73231.2" rx="0" />
</g>
<g style="fill:#000000; fill-opacity:0.0; 
stroke:#000000; stroke-width:39.3701; stroke-opacity:1; 
stroke-linecap:round; stroke-linejoin:round;">
</g>
<g style="fill:#000000; fill-opacity:0.0; 
stroke:#000000; stroke-width:59.0551; stroke-opacity:1; 
stroke-linecap:round; stroke-linejoin:round;">
<path d="M23622 4724
L23622 3937
" />
</g>
<g style="fill:#000000; fill-opacity:0.0; 
stroke:#000000; stroke-width:39.3701; stroke-opacity:1; 
stroke-linecap:round; stroke-linejoin:round;">
</g>
<g style="fill:#000000; fill-opacity:0.0; 
stroke:#000000; stroke-width:59.0551; stroke-opacity:1; 
stroke-linecap:round; stroke-linejoin:round;">
<path d="M43307 4724
L43307 3937
" />
</g>
<g style="fill:#000000; fill-opacity:0.0; 
stroke:#000000; stroke-width:39.3701; stroke-opacity:1; 
stroke-linecap:round; stroke-linejoin:round;">
</g>
<g style="fill:#000000; fill-opacity:0.0; 
stroke:#000000; stroke-width:59.0551; stroke-opacity:1; 
stroke-linecap:round; stroke-linejoin:round;">
<path d="M62992 4724
L62992 3937
" />
</g>
<g style="fill:#000000; fill-opacity:0.0; 
stroke:#000000; stroke-width:39.3701; stroke-opacity:1; 
stroke-linecap:round; stroke-linejoin:round;">
</g>
<g style="fill:#000000; fill-opacity:0.0; 
stroke:#000000; stroke-width:59.0551; stroke-opacity:1; 
stroke-linecap:round; stroke-linejoin:round;">
<path d="M82677 4724
L82677 3937
" />
</g>
<g style="fill:#000000; fill-opacity:0.0; 
stroke:#000000; stroke-width:39.3701; stroke-opacity:1; 
stroke-linecap:round; stroke-linejoin:round;">
</g>
<g style="fill:#000000; fill-opacity:0.0; 
stroke:#000000; stroke-width:59.0551; stroke-opacity:1; 
stroke-linecap:round; stroke-linejoin:round;">
<path d="M102362 4724
L102362 3937
" />
</g>
<g style="fill:#000000; fill-opacity:0.0; 
stroke:#000000; stroke-width:39.3701; stroke-opacity:1; 
stroke-linecap:round; stroke-linejoin:round;">
</g>
<g style="fill:#000000; fill-opacity:0.0; 
stroke:#000000; stroke-width:59.0551; stroke-opacity:1; 
stroke-linecap:round; stroke-linejoin:round;">
<path d="M14199 4562
L13906 4562
" />
<path d="M14052 4562
L14052 4050
L14004 4123
L13955 4172
L13906 4196
" />
</g>
<g style="fill:#000000; fill-opacity:0.0; 
stroke:#000000; stroke-width:39.3701; stroke-opacity:1; 
stroke-linecap:round; stroke-linejoin:round;">
</g>
<g style="fill:#000000; fill-opacity:0.0; 
stroke:#000000; stroke-width:59.0551; stroke-opacity:1; 
stroke-linecap:round; stroke-linejoin:round;">
<path d="M33591 4099
L33615 4074
L33664 4050
L33786 4050
L33835 4074
L33859 4099
L33884 4147
L33884 4196
L33859 4269
L33567 4562
L33884 4562
" />
</g>
<g style="fill:#000000; fill-opacity:0.0; 
stroke:#000000; stroke-width:39.3701; stroke-opacity:1; 
stroke-linecap:round; stroke-linejoin:round;">
</g>
<g style="fill:#000000; fill-opacity:0.0; 
stroke:#000000; stroke-width:59.0551; stroke-opacity:1; 
stroke-linecap:round; stroke-linejoin:round;">
<path d="M53252 4050
L53569 4050
L53398 4245
L53471 4245
L53520 4269
L53544 4294
L53569 4342
L53569 4464
L53544 4513
L53520 4537
L53471 4562
L53325 4562
L53276 4537
L53252 4513
" />
</g>
<g style="fill:#000000; fill-opacity:0.0; 
stroke:#000000; stroke-width:39.3701; stroke-opacity:1; 
stroke-linecap:round; stroke-linejoin:round;">
</g>
<g style="fill:#000000; fill-opacity:0.0; 
stroke:#000000; stroke-width:59.0551; stroke-opacity:1; 
stroke-linecap:round; stroke-linejoin:round;">
<path d="M73205 4221
L73205 4562
" />
<path d="M73083 4026
L72961 4391
L73278 4391
" />
</g>
<g style="fill:#000000; fill-opacity:0.0; 
stroke:#000000; stroke-width:39.3701; stroke-opacity:1; 
stroke-linecap:round; stroke-linejoin:round;">
</g>
<g style="fill:#000000; fill-opacity:0.0; 
stroke:#000000; stroke-width:59.0551; stroke-opacity:1; 
stroke-linecap:round; stroke-linejoin:round;">
<path d="M92914 4050
L92671 4050
L92646 4294
L92671 4269
L92719 4245
L92841 4245
L92890 4269
L92914 4294
L92939 4342
L92939 4464
L92914 4513
L92890 4537
L92841 4562
L92719 4562
L92671 4537
L92646 4513
" />
</g>
<g style="fill:#000000; fill-opacity:0.0; 
stroke:#000000; stroke-width:39.3701; stroke-opacity:1; 
stroke-linecap:round; stroke-linejoin:round;">
</g>
<g style="fill:#000000; fill-opacity:0.0; 
stroke:#000000; stroke-width:59.0551; stroke-opacity:1; 
stroke-linecap:round; stroke-linejoin:round;">
<path d="M112575 4050
L112477 4050
L112429 4074
L112404 4099
L112356 4172
L112331 4269
L112331 4464
L112356 4513
L112380 4537
L112429 4562
L112526 4562
L112575 4537
L112599 4513
L112624 4464
L112624 4342
L112599 4294
L112575 4269
L112526 4245
L112429 4245
L112380 4269
L112356 4294
L112331 4342
" />
</g>
<g style="fill:#000000; fill-opacity:0.0; 
stroke:#000000; stroke-width:39.3701; stroke-opacity:1; 
stroke-linecap:round; stroke-linejoin:round;">
</g>
<g style="fill:#000000; fill-opacity:0.0; 
stroke:#000000; stroke-width:59.0551; stroke-opacity:1; 
stroke-linecap:round; stroke-linejoin:round;">
<path d="M23622 77955
L23622 78742
" />
</g>
<g style="fill:#000000; fill-opacity:0.0; 
stroke:#000000; stroke-width:39.3701; stroke-opacity:1; 
stroke-linecap:round; stroke-linejoin:round;">
</g>
<g style="fill:#000000; fill-opacity:0.0; 
stroke:#000000; stroke-width:59.0551; stroke-opacity:1; 
stroke-linecap:round; stroke-linejoin:round;">
<path d="M43307 77955
L43307 78742
" />
</g>
<g style="fill:#000000; fill-opacity:0.0; 
stroke:#000000; stroke-width:39.3701; stroke-opacity:1; 
stroke-linecap:round; stroke-linejoin:round;">
</g>
<g style="fill:#000000; fill-opacity:0.0; 
stroke:#000000; stroke-width:59.0551; stroke-opacity:1; 
stroke-linecap:round; stroke-linejoin:round;">
<path d="M62992 77955
L62992 78742
" />
</g>
<g style="fill:#000000; fill-opacity:0.0; 
stroke:#000000; stroke-width:39.3701; stroke-opacity:1; 
stroke-linecap:round; stroke-linejoin:round;">
</g>
<g style="fill:#000000; fill-opacity:0.0; 
stroke:#000000; stroke-width:59.0551; stroke-opacity:1; 
stroke-linecap:round; stroke-linejoin:round;">
<path d="M82677 77955
L82677 78742
" />
</g>
<g style="fill:#000000; fill-opacity:0.0; 
stroke:#000000; stroke-width:39.3701; stroke-opacity:1; 
stroke-linecap:round; stroke-linejoin:round;">
</g>
<g style="fill:#000000; fill-opacity:0.0; 
stroke:#000000; stroke-width:59.0551; stroke-opacity:1; 
stroke-linecap:round; stroke-linejoin:round;">
<path d="M102362 77955
L102362 78742
" />
</g>
<g style="fill:#000000; fill-opacity:0.0; 
stroke:#000000; stroke-width:39.3701; stroke-opacity:1; 
stroke-linecap:round; stroke-linejoin:round;">
</g>
<g style="fill:#000000; fill-opacity:0.0; 
stroke:#000000; stroke-width:59.0551; stroke-opacity:1; 
stroke-linecap:round; stroke-linejoin:round;">
<path d="M14199 78580
L13906 78580
" />
<path d="M14052 78580
L14052 78069
L14004 78142
L13955 78190
L13906 78215
" />
</g>
<g style="fill:#000000; fill-opacity:0.0; 
stroke:#000000; stroke-width:39.3701; stroke-opacity:1; 
stroke-linecap:round; stroke-linejoin:round;">
</g>
<g style="fill:#000000; fill-opacity:0.0; 
stroke:#000000; stroke-width:59.0551; stroke-opacity:1; 
stroke-linecap:round; stroke-linejoin:round;">
<path d="M33591 78117
L33615 78093
L33664 78069
L33786 78069
L33835 78093
L33859 78117
L33884 78166
L33884 78215
L33859 78288
L33567 78580
L33884 78580
" />
</g>
<g style="fill:#000000; fill-opacity:0.0; 
stroke:#000000; stroke-width:39.3701; stroke-opacity:1; 
stroke-linecap:round; stroke-linejoin:round;">
</g>
<g style="fill:#000000; fill-opacity:0.0; 
stroke:#000000; stroke-width:59.0551; stroke-opacity:1; 
stroke-linecap:round; stroke-linejoin:round;">
<path d="M53252 78069
L53569 78069
L53398 78263
L53471 78263
L53520 78288
L53544 78312
L53569 78361
L53569 78483
L53544 78532
L53520 78556
L53471 78580
L53325 78580
L53276 78556
L53252 78532
" />
</g>
<g style="fill:#000000; fill-opacity:0.0; 
stroke:#000000; stroke-width:39.3701; stroke-opacity:1; 
stroke-linecap:round; stroke-linejoin:round;">
</g>
<g style="fill:#000000; fill-opacity:0.0; 
stroke:#000000; stroke-width:59.0551; stroke-opacity:1; 
stroke-linecap:round; stroke-linejoin:round;">
<path d="M73205 78239
L73205 78580
" />
<path d="M73083 78044
L72961 78410
L73278 78410
" />
</g>
<g style="fill:#000000; fill-opacity:0.0; 
stroke:#000000; stroke-width:39.3701; stroke-opacity:1; 
stroke-linecap:round; stroke-linejoin:round;">
</g>
<g style="fill:#000000; fill-opacity:0.0; 
stroke:#000000; stroke-width:59.0551; stroke-opacity:1; 
stroke-linecap:round; stroke-linejoin:round;">
<path d="M92914 78069
L92671 78069
L92646 78312
L92671 78288
L92719 78263
L92841 78263
L92890 78288
L92914 78312
L92939 78361
L92939 78483
L92914 78532
L92890 78556
L92841 78580
L92719 78580
L92671 78556
L92646 78532
" />
</g>
<g style="fill:#000000; fill-opacity:0.0; 
stroke:#000000; stroke-width:39.3701; stroke-opacity:1; 
stroke-linecap:round; stroke-linejoin:round;">
</g>
<g style="fill:#000000; fill-opacity:0.0; 
stroke:#000000; stroke-width:59.0551; stroke-opacity:1; 
stroke-linecap:round; stroke-linejoin:round;">
<path d="M112575 78069
L112477 78069
L112429 78093
L112404 78117
L112356 78190
L112331 78288
L112331 78483
L112356 78532
L112380 78556
L112429 78580
L112526 78580
L112575 78556
L112599 78532
L112624 78483
L112624 78361
L112599 78312
L112575 78288
L112526 78263
L112429 78263
L112380 78288
L112356 78312
L112331 78361
" />
</g>
<g style="fill:#000000; fill-opacity:0.0; 
stroke:#000000; stroke-width:39.3701; stroke-opacity:1; 
stroke-linecap:round; stroke-linejoin:round;">
</g>
<g style="fill:#000000; fill-opacity:0.0; 
stroke:#000000; stroke-width:59.0551; stroke-opacity:1; 
stroke-linecap:round; stroke-linejoin:round;">
<path d="M3937 23622
L4724 23622
" />
</g>
<g style="fill:#000000; fill-opacity:0.0; 
stroke:#000000; stroke-width:39.3701; stroke-opacity:1; 
stroke-linecap:round; stroke-linejoin:round;">
</g>
<g style="fill:#000000; fill-opacity:0.0; 
stroke:#000000; stroke-width:59.0551; stroke-opacity:1; 
stroke-linecap:round; stroke-linejoin:round;">
<path d="M3937 43307
L4724 43307
" />
</g>
<g style="fill:#000000; fill-opacity:0.0; 
stroke:#000000; stroke-width:39.3701; stroke-opacity:1; 
stroke-linecap:round; stroke-linejoin:round;">
</g>
<g style="fill:#000000; fill-opacity:0.0; 
stroke:#000000; stroke-width:59.0551; stroke-opacity:1; 
stroke-linecap:round; stroke-linejoin:round;">
<path d="M3937 62992
L4724 62992
" />
</g>
<g style="fill:#000000; fill-opacity:0.0; 
stroke:#000000; stroke-width:39.3701; stroke-opacity:1; 
stroke-linecap:round; stroke-linejoin:round;">
</g>
<g style="fill:#000000; fill-opacity:0.0; 
stroke:#000000; stroke-width:59.0551; stroke-opacity:1; 
stroke-linecap:round; stroke-linejoin:round;">
<path d="M4208 13864
L4452 13864
" />
<path d="M4160 14011
L4330 13499
L4501 14011
" />
</g>
<g style="fill:#000000; fill-opacity:0.0; 
stroke:#000000; stroke-width:39.3701; stroke-opacity:1; 
stroke-linecap:round; stroke-linejoin:round;">
</g>
<g style="fill:#000000; fill-opacity:0.0; 
stroke:#000000; stroke-width:59.0551; stroke-opacity:1; 
stroke-linecap:round; stroke-linejoin:round;">
<path d="M4367 33428
L4440 33452
L4464 33476
L4489 33525
L4489 33598
L4464 33647
L4440 33671
L4391 33696
L4196 33696
L4196 33184
L4367 33184
L4416 33208
L4440 33233
L4464 33281
L4464 33330
L4440 33379
L4416 33403
L4367 33428
L4196 33428
" />
</g>
<g style="fill:#000000; fill-opacity:0.0; 
stroke:#000000; stroke-width:39.3701; stroke-opacity:1; 
stroke-linecap:round; stroke-linejoin:round;">
</g>
<g style="fill:#000000; fill-opacity:0.0; 
stroke:#000000; stroke-width:59.0551; stroke-opacity:1; 
stroke-linecap:round; stroke-linejoin:round;">
<path d="M4489 53332
L4464 53356
L4391 53381
L4342 53381
L4269 53356
L4221 53308
L4196 53259
L4172 53161
L4172 53088
L4196 52991
L4221 52942
L4269 52893
L4342 52869
L4391 52869
L4464 52893
L4489 52918
" />
</g>
<g style="fill:#000000; fill-opacity:0.0; 
stroke:#000000; stroke-width:39.3701; stroke-opacity:1; 
stroke-linecap:round; stroke-linejoin:round;">
</g>
<g style="fill:#000000; fill-opacity:0.0; 
stroke:#000000; stroke-width:59.0551; stroke-opacity:1; 
stroke-linecap:round; stroke-linejoin:round;">
<path d="M4196 73066
L4196 72554
L4318 72554
L4391 72578
L4440 72627
L4464 72676
L4489 72773
L4489 72846
L4464 72944
L4440 72993
L4391 73041
L4318 73066
L4196 73066
" />
</g>
<g style="fill:#000000; fill-opacity:0.0; 
stroke:#000000; stroke-width:39.3701; stroke-opacity:1; 
stroke-linecap:round; stroke-linejoin:round;">
</g>
<g style="fill:#000000; fill-opacity:0.0; 
stroke:#000000; stroke-width:59.0551; stroke-opacity:1; 
stroke-linecap:round; stroke-linejoin:round;">
<path d="M112992 23622
L112205 23622
" />
</g>
<g style="fill:#000000; fill-opacity:0.0; 
stroke:#000000; stroke-width:39.3701; stroke-opacity:1; 
stroke-linecap:round; stroke-linejoin:round;">
</g>
<g style="fill:#000000; fill-opacity:0.0; 
stroke:#000000; stroke-width:59.0551; stroke-opacity:1; 
stroke-linecap:round; stroke-linejoin:round;">
<path d="M112992 43307
L112205 43307
" />
</g>
<g style="fill:#000000; fill-opacity:0.0; 
stroke:#000000; stroke-width:39.3701; stroke-opacity:1; 
stroke-linecap:round; stroke-linejoin:round;">
</g>
<g style="fill:#000000; fill-opacity:0.0; 
stroke:#000000; stroke-width:59.0551; stroke-opacity:1; 
stroke-linecap:round; stroke-linejoin:round;">
<path d="M112992 62992
L112205 62992
" />
</g>
<g style="fill:#000000; fill-opacity:0.0; 
stroke:#000000; stroke-width:39.3701; stroke-opacity:1; 
stroke-linecap:round; stroke-linejoin:round;">
</g>
<g style="fill:#000000; fill-opacity:0.0; 
stroke:#000000; stroke-width:59.0551; stroke-opacity:1; 
stroke-linecap:round; stroke-linejoin:round;">
<path d="M112477 13864
L112721 13864
" />
<path d="M112428 14011
L112599 13499
L112769 14011
" />
</g>
<g style="fill:#000000; fill-opacity:0.0; 
stroke:#000000; stroke-width:39.3701; stroke-opacity:1; 
stroke-linecap:round; stroke-linejoin:round;">
</g>
<g style="fill:#000000; fill-opacity:0.0; 
stroke:#000000; stroke-width:59.0551; stroke-opacity:1; 
stroke-linecap:round; stroke-linejoin:round;">
<path d="M112635 33428
L112708 33452
L112733 33476
L112757 33525
L112757 33598
L112733 33647
L112708 33671
L112660 33696
L112465 33696
L112465 33184
L112635 33184
L112684 33208
L112708 33233
L112733 33281
L112733 33330
L112708 33379
L112684 33403
L112635 33428
L112465 33428
" />
</g>
<g style="fill:#000000; fill-opacity:0.0; 
stroke:#000000; stroke-width:39.3701; stroke-opacity:1; 
stroke-linecap:round; stroke-linejoin:round;">
</g>
<g style="fill:#000000; fill-opacity:0.0; 
stroke:#000000; stroke-width:59.0551; stroke-opacity:1; 
stroke-linecap:round; stroke-linejoin:round;">
<path d="M112757 53332
L112733 53356
L112660 53381
L112611 53381
L112538 53356
L112489 53308
L112465 53259
L112440 53161
L112440 53088
L112465 52991
L112489 52942
L112538 52893
L112611 52869
L112660 52869
L112733 52893
L112757 52918
" />
</g>
<g style="fill:#000000; fill-opacity:0.0; 
stroke:#000000; stroke-width:39.3701; stroke-opacity:1; 
stroke-linecap:round; stroke-linejoin:round;">
</g>
<g style="fill:#000000; fill-opacity:0.0; 
stroke:#000000; stroke-width:59.0551; stroke-opacity:1; 
stroke-linecap:round; stroke-linejoin:round;">
<path d="M112465 73066
L112465 72554
L112587 72554
L112660 72578
L112708 72627
L112733 72676
L112757 72773
L112757 72846
L112733 72944
L112708 72993
L112660 73041
L112587 73066
L112465 73066
" />
</g>
<g style="fill:#000000; fill-opacity:0.0; 
stroke:#000000; stroke-width:39.3701; stroke-opacity:1; 
stroke-linecap:round; stroke-linejoin:round;">
</g>
<g style="fill:#000000; fill-opacity:0.0; 
stroke:#000000; stroke-width:59.0551; stroke-opacity:1; 
stroke-linecap:round; stroke-linejoin:round;">
<path d="M78911 76293
L78911 75703
L79051 75703
L79136 75731
L79192 75787
L79220 75843
L79248 75956
L79248 76040
L79220 76153
L79192 76209
L79136 76265
L79051 76293
L78911 76293
" />
<path d="M79754 76293
L79754 75984
L79726 75928
L79670 75899
L79557 75899
L79501 75928
" />
<path d="M79754 76265
L79698 76293
L79557 76293
L79501 76265
L79473 76209
L79473 76153
L79501 76096
L79557 76068
L79698 76068
L79754 76040
" />
<path d="M79951 75899
L80176 75899
" />
<path d="M80036 75703
L80036 76209
L80064 76265
L80120 76293
L80176 76293
" />
<path d="M80598 76265
L80542 76293
L80429 76293
L80373 76265
L80345 76209
L80345 75984
L80373 75928
L80429 75899
L80542 75899
L80598 75928
L80626 75984
L80626 76040
L80345 76096
" />
<path d="M80879 76237
L80907 76265
L80879 76293
L80851 76265
L80879 76237
L80879 76293
" />
<path d="M80879 75928
L80907 75956
L80879 75984
L80851 75956
L80879 75928
L80879 75984
" />
</g>
<g style="fill:#000000; fill-opacity:0.0; 
stroke:#000000; stroke-width:39.3701; stroke-opacity:1; 
stroke-linecap:round; stroke-linejoin:round;">
</g>
<g style="fill:#000000; fill-opacity:0.0; 
stroke:#000000; stroke-width:59.0551; stroke-opacity:1; 
stroke-linecap:round; stroke-linejoin:round;">
<path d="M69685 76577
L112205 76577
" />
</g>
<g style="fill:#000000; fill-opacity:0.0; 
stroke:#000000; stroke-width:39.3701; stroke-opacity:1; 
stroke-linecap:round; stroke-linejoin:round;">
</g>
<g style="fill:#000000; fill-opacity:0.0; 
stroke:#000000; stroke-width:59.0551; stroke-opacity:1; 
stroke-linecap:round; stroke-linejoin:round;">
<path d="M70249 77395
L70249 76805
" />
<path d="M70587 77395
L70334 77058
" />
<path d="M70587 76805
L70249 77142
" />
<path d="M70840 77395
L70840 77002
" />
<path d="M70840 76805
L70812 76833
L70840 76861
L70868 76833
L70840 76805
L70840 76861
" />
<path d="M71458 77339
L71430 77367
L71346 77395
L71290 77395
L71205 77367
L71149 77311
L71121 77255
L71093 77142
L71093 77058
L71121 76946
L71149 76889
L71205 76833
L71290 76805
L71346 76805
L71430 76833
L71458 76861
" />
<path d="M71965 77395
L71965 77086
L71937 77030
L71880 77002
L71768 77002
L71712 77030
" />
<path d="M71965 77367
L71908 77395
L71768 77395
L71712 77367
L71683 77311
L71683 77255
L71712 77199
L71768 77171
L71908 77171
L71965 77142
" />
<path d="M72499 77395
L72499 76805
" />
<path d="M72499 77367
L72443 77395
L72330 77395
L72274 77367
L72246 77339
L72218 77283
L72218 77114
L72246 77058
L72274 77030
L72330 77002
L72443 77002
L72499 77030
" />
<path d="M73230 77086
L73427 77086
" />
<path d="M73511 77395
L73230 77395
L73230 76805
L73511 76805
" />
<path d="M73764 77339
L73793 77367
L73764 77395
L73736 77367
L73764 77339
L73764 77395
" />
<path d="M74046 77395
L74046 76805
L74186 76805
L74271 76833
L74327 76889
L74355 76946
L74383 77058
L74383 77142
L74355 77255
L74327 77311
L74271 77367
L74186 77395
L74046 77395
" />
<path d="M74636 77339
L74664 77367
L74636 77395
L74608 77367
L74636 77339
L74636 77395
" />
<path d="M74889 77227
L75171 77227
" />
<path d="M74833 77395
L75030 76805
L75227 77395
" />
<path d="M75424 77339
L75452 77367
L75424 77395
L75395 77367
L75424 77339
L75424 77395
" />
<path d="M76605 77395
L76605 76805
" />
<path d="M76661 77171
L76830 77395
" />
<path d="M76830 77002
L76605 77227
" />
<path d="M77083 77395
L77083 77002
" />
<path d="M77083 76805
L77055 76833
L77083 76861
L77111 76833
L77083 76805
L77083 76861
" />
<path d="M77617 77367
L77561 77395
L77448 77395
L77392 77367
L77364 77339
L77336 77283
L77336 77114
L77364 77058
L77392 77030
L77448 77002
L77561 77002
L77617 77030
" />
<path d="M78123 77395
L78123 77086
L78095 77030
L78039 77002
L77926 77002
L77870 77030
" />
<path d="M78123 77367
L78067 77395
L77926 77395
L77870 77367
L77842 77311
L77842 77255
L77870 77199
L77926 77171
L78067 77171
L78123 77142
" />
<path d="M78658 77395
L78658 76805
" />
<path d="M78658 77367
L78601 77395
L78489 77395
L78433 77367
L78404 77339
L78376 77283
L78376 77114
L78404 77058
L78433 77030
L78489 77002
L78601 77002
L78658 77030
" />
<path d="M79670 76805
L79389 76805
L79361 77086
L79389 77058
L79445 77030
L79586 77030
L79642 77058
L79670 77086
L79698 77142
L79698 77283
L79670 77339
L79642 77367
L79586 77395
L79445 77395
L79389 77367
L79361 77339
" />
<path d="M79951 77339
L79979 77367
L79951 77395
L79923 77367
L79951 77339
L79951 77395
" />
<path d="M80345 76805
L80401 76805
L80457 76833
L80485 76861
L80514 76917
L80542 77030
L80542 77171
L80514 77283
L80485 77339
L80457 77367
L80401 77395
L80345 77395
L80289 77367
L80260 77339
L80232 77283
L80204 77171
L80204 77030
L80232 76917
L80260 76861
L80289 76833
L80345 76805
" />
<path d="M80795 77339
L80823 77367
L80795 77395
L80767 77367
L80795 77339
L80795 77395
" />
<path d="M81048 76861
L81076 76833
L81132 76805
L81273 76805
L81329 76833
L81357 76861
L81385 76917
L81385 76974
L81357 77058
L81020 77395
L81385 77395
" />
<path d="M81638 77171
L82088 77171
" />
<path d="M82370 77395
L82370 76805
" />
<path d="M82370 77030
L82426 77002
L82538 77002
L82595 77030
L82623 77058
L82651 77114
L82651 77283
L82623 77339
L82595 77367
L82538 77395
L82426 77395
L82370 77367
" />
<path d="M83129 77367
L83073 77395
L82960 77395
L82904 77367
L82876 77311
L82876 77086
L82904 77030
L82960 77002
L83073 77002
L83129 77030
L83157 77086
L83157 77142
L82876 77199
" />
<path d="M83635 77367
L83579 77395
L83466 77395
L83410 77367
L83382 77311
L83382 77086
L83410 77030
L83466 77002
L83579 77002
L83635 77030
L83663 77086
L83663 77142
L83382 77199
" />
<path d="M83860 76805
L84254 76805
L84001 77395
" />
<path d="M84732 76805
L84619 76805
L84563 76833
L84535 76861
L84479 76946
L84451 77058
L84451 77283
L84479 77339
L84507 77367
L84563 77395
L84676 77395
L84732 77367
L84760 77339
L84788 77283
L84788 77142
L84760 77086
L84732 77058
L84676 77030
L84563 77030
L84507 77058
L84479 77086
L84451 77142
" />
<path d="M85294 77395
L85294 77086
L85266 77030
L85210 77002
L85097 77002
L85041 77030
" />
<path d="M85294 77367
L85238 77395
L85097 77395
L85041 77367
L85013 77311
L85013 77255
L85041 77199
L85097 77171
L85238 77171
L85294 77142
" />
<path d="M85688 76805
L85744 76805
L85800 76833
L85829 76861
L85857 76917
L85885 77030
L85885 77171
L85857 77283
L85829 77339
L85800 77367
L85744 77395
L85688 77395
L85632 77367
L85604 77339
L85575 77283
L85547 77171
L85547 77030
L85575 76917
L85604 76861
L85632 76833
L85688 76805
" />
<path d="M85997 76644
L86560 76644
" />
<path d="M86082 76805
L86475 76805
L86222 77395
" />
<path d="M86560 76644
L87122 76644
" />
<path d="M86813 76805
L86869 76805
L86925 76833
L86953 76861
L86982 76917
L87010 77030
L87010 77171
L86982 77283
L86953 77339
L86925 77367
L86869 77395
L86813 77395
L86757 77367
L86728 77339
L86700 77283
L86672 77171
L86672 77030
L86700 76917
L86728 76861
L86757 76833
L86813 76805
" />
<path d="M87516 77002
L87516 77395
" />
<path d="M87263 77002
L87263 77311
L87291 77367
L87347 77395
L87431 77395
L87488 77367
L87516 77339
" />
<path d="M87797 77395
L87797 76805
" />
<path d="M87797 77030
L87853 77002
L87966 77002
L88022 77030
L88050 77058
L88078 77114
L88078 77283
L88050 77339
L88022 77367
L87966 77395
L87853 77395
L87797 77367
" />
<path d="M88584 77002
L88584 77395
" />
<path d="M88331 77002
L88331 77311
L88359 77367
L88416 77395
L88500 77395
L88556 77367
L88584 77339
" />
<path d="M88866 77002
L88866 77395
" />
<path d="M88866 77058
L88894 77030
L88950 77002
L89034 77002
L89091 77030
L89119 77086
L89119 77395
" />
<path d="M89316 77002
L89541 77002
" />
<path d="M89400 76805
L89400 77311
L89428 77367
L89484 77395
L89541 77395
" />
<path d="M89991 77002
L89991 77395
" />
<path d="M89737 77002
L89737 77311
L89766 77367
L89822 77395
L89906 77395
L89962 77367
L89991 77339
" />
<path d="M90581 77395
L90244 77395
" />
<path d="M90412 77395
L90412 76805
L90356 76889
L90300 76946
L90244 76974
" />
<path d="M90919 77058
L90862 77030
L90834 77002
L90806 76946
L90806 76917
L90834 76861
L90862 76833
L90919 76805
L91031 76805
L91087 76833
L91115 76861
L91144 76917
L91144 76946
L91115 77002
L91087 77030
L91031 77058
L90919 77058
L90862 77086
L90834 77114
L90806 77171
L90806 77283
L90834 77339
L90862 77367
L90919 77395
L91031 77395
L91087 77367
L91115 77339
L91144 77283
L91144 77171
L91115 77114
L91087 77086
L91031 77058
" />
<path d="M91397 77339
L91425 77367
L91397 77395
L91368 77367
L91397 77339
L91397 77395
" />
<path d="M91790 76805
L91847 76805
L91903 76833
L91931 76861
L91959 76917
L91987 77030
L91987 77171
L91959 77283
L91931 77339
L91903 77367
L91847 77395
L91790 77395
L91734 77367
L91706 77339
L91678 77283
L91650 77171
L91650 77030
L91678 76917
L91706 76861
L91734 76833
L91790 76805
" />
<path d="M92493 77002
L92493 77395
" />
<path d="M92353 76777
L92212 77199
L92578 77199
" />
<path d="M92803 77339
L92831 77367
L92803 77395
L92775 77367
L92803 77339
L92803 77395
" />
<path d="M93393 77395
L93056 77395
" />
<path d="M93224 77395
L93224 76805
L93168 76889
L93112 76946
L93056 76974
" />
</g>
<g style="fill:#000000; fill-opacity:0.0; 
stroke:#000000; stroke-width:39.3701; stroke-opacity:1; 
stroke-linecap:round; stroke-linejoin:round;">
</g>
<g style="fill:#000000; fill-opacity:0.0; 
stroke:#000000; stroke-width:59.0551; stroke-opacity:1; 
stroke-linecap:round; stroke-linejoin:round;">
<path d="M69685 75396
L112205 75396
" />
</g>
<g style="fill:#000000; fill-opacity:0.0; 
stroke:#000000; stroke-width:39.3701; stroke-opacity:1; 
stroke-linecap:round; stroke-linejoin:round;">
</g>
<g style="fill:#000000; fill-opacity:0.0; 
stroke:#000000; stroke-width:118.11; stroke-opacity:1; 
stroke-linecap:round; stroke-linejoin:round;">
<path d="M104099 76293
L103902 76012
" />
<path d="M103761 76293
L103761 75703
L103986 75703
L104042 75731
L104070 75759
L104099 75815
L104099 75899
L104070 75956
L104042 75984
L103986 76012
L103761 76012
" />
<path d="M104577 76265
L104520 76293
L104408 76293
L104352 76265
L104323 76209
L104323 75984
L104352 75928
L104408 75899
L104520 75899
L104577 75928
L104605 75984
L104605 76040
L104323 76096
" />
<path d="M104802 75899
L104942 76293
L105083 75899
" />
<path d="M105308 76237
L105336 76265
L105308 76293
L105280 76265
L105308 76237
L105308 76293
" />
<path d="M105308 75928
L105336 75956
L105308 75984
L105280 75956
L105308 75928
L105308 75984
" />
</g>
<g style="fill:#000000; fill-opacity:0.0; 
stroke:#000000; stroke-width:39.3701; stroke-opacity:1; 
stroke-linecap:round; stroke-linejoin:round;">
</g>
<g style="fill:#000000; fill-opacity:0.0; 
stroke:#000000; stroke-width:59.0551; stroke-opacity:1; 
stroke-linecap:round; stroke-linejoin:round;">
<path d="M70221 76265
L70305 76293
L70446 76293
L70502 76265
L70530 76237
L70559 76181
L70559 76124
L70530 76068
L70502 76040
L70446 76012
L70334 75984
L70277 75956
L70249 75928
L70221 75871
L70221 75815
L70249 75759
L70277 75731
L70334 75703
L70474 75703
L70559 75731
" />
<path d="M70812 76293
L70812 75899
" />
<path d="M70812 75703
L70784 75731
L70812 75759
L70840 75731
L70812 75703
L70812 75759
" />
<path d="M71037 75899
L71346 75899
L71037 76293
L71346 76293
" />
<path d="M71796 76265
L71740 76293
L71627 76293
L71571 76265
L71543 76209
L71543 75984
L71571 75928
L71627 75899
L71740 75899
L71796 75928
L71824 75984
L71824 76040
L71543 76096
" />
<path d="M72077 76237
L72105 76265
L72077 76293
L72049 76265
L72077 76237
L72077 76293
" />
<path d="M72077 75928
L72105 75956
L72077 75984
L72049 75956
L72077 75928
L72077 75984
" />
<path d="M72780 76124
L73061 76124
" />
<path d="M72724 76293
L72921 75703
L73118 76293
" />
<path d="M73568 75899
L73568 76293
" />
<path d="M73427 75674
L73286 76096
L73652 76096
" />
</g>
<g style="fill:#000000; fill-opacity:0.0; 
stroke:#000000; stroke-width:39.3701; stroke-opacity:1; 
stroke-linecap:round; stroke-linejoin:round;">
</g>
<g style="fill:#000000; fill-opacity:0.0; 
stroke:#000000; stroke-width:59.0551; stroke-opacity:1; 
stroke-linecap:round; stroke-linejoin:round;">
<path d="M103714 77395
L103714 76805
" />
<path d="M104248 77395
L104248 76805
" />
<path d="M104248 77367
L104192 77395
L104079 77395
L104023 77367
L103995 77339
L103967 77283
L103967 77114
L103995 77058
L104023 77030
L104079 77002
L104192 77002
L104248 77030
" />
<path d="M104529 77339
L104557 77367
L104529 77395
L104501 77367
L104529 77339
L104529 77395
" />
<path d="M104529 77030
L104557 77058
L104529 77086
L104501 77058
L104529 77030
L104529 77086
" />
<path d="M105570 77395
L105232 77395
" />
<path d="M105401 77395
L105401 76805
L105345 76889
L105289 76946
L105232 76974
" />
<path d="M106245 76777
L105739 77536
" />
<path d="M106751 77395
L106413 77395
" />
<path d="M106582 77395
L106582 76805
L106526 76889
L106470 76946
L106413 76974
" />
</g>
<g style="fill:#000000; fill-opacity:0.0; 
stroke:#000000; stroke-width:39.3701; stroke-opacity:1; 
stroke-linecap:round; stroke-linejoin:round;">
</g>
<g style="fill:#000000; fill-opacity:0.0; 
stroke:#000000; stroke-width:59.0551; stroke-opacity:1; 
stroke-linecap:round; stroke-linejoin:round;">
<path d="M69685 73821
L112205 73821
" />
</g>
<g style="fill:#000000; fill-opacity:0.0; 
stroke:#000000; stroke-width:39.3701; stroke-opacity:1; 
stroke-linecap:round; stroke-linejoin:round;">
</g>
<g style="fill:#000000; fill-opacity:0.0; 
stroke:#000000; stroke-width:157.48; stroke-opacity:1; 
stroke-linecap:round; stroke-linejoin:round;">
<path d="M70360 74099
L70810 74099
" />
<path d="M70486 74886
L70585 74099
" />
<path d="M70974 74886
L71039 74361
" />
<path d="M71072 74099
L71030 74136
L71063 74174
L71105 74136
L71072 74099
L71063 74174
" />
<path d="M71302 74361
L71602 74361
" />
<path d="M71447 74099
L71363 74774
L71391 74849
L71461 74886
L71536 74886
" />
<path d="M71911 74886
L71841 74849
L71813 74774
L71897 74099
" />
<path d="M72516 74849
L72436 74886
L72286 74886
L72216 74849
L72187 74774
L72225 74474
L72272 74399
L72352 74361
L72501 74361
L72572 74399
L72600 74474
L72591 74549
L72206 74624
" />
<path d="M72895 74811
L72928 74849
L72886 74886
L72853 74849
L72895 74811
L72886 74886
" />
<path d="M72947 74399
L72980 74436
L72937 74474
L72905 74436
L72947 74399
L72937 74474
" />
</g>
<g style="fill:#000000; fill-opacity:0.0; 
stroke:#000000; stroke-width:39.3701; stroke-opacity:1; 
stroke-linecap:round; stroke-linejoin:round;">
</g>
<g style="fill:#000000; fill-opacity:0.0; 
stroke:#000000; stroke-width:59.0551; stroke-opacity:1; 
stroke-linecap:round; stroke-linejoin:round;">
<path d="M70446 73070
L70249 73070
" />
<path d="M70249 73380
L70249 72789
L70530 72789
" />
<path d="M70755 73380
L70755 72986
" />
<path d="M70755 72789
L70727 72817
L70755 72845
L70784 72817
L70755 72789
L70755 72845
" />
<path d="M71121 73380
L71065 73352
L71037 73295
L71037 72789
" />
<path d="M71571 73352
L71515 73380
L71402 73380
L71346 73352
L71318 73295
L71318 73070
L71346 73014
L71402 72986
L71515 72986
L71571 73014
L71599 73070
L71599 73127
L71318 73183
" />
<path d="M71852 73323
L71880 73352
L71852 73380
L71824 73352
L71852 73323
L71852 73380
" />
<path d="M71852 73014
L71880 73042
L71852 73070
L71824 73042
L71852 73014
L71852 73070
" />
<path d="M72921 73380
L72724 73099
" />
<path d="M72583 73380
L72583 72789
L72808 72789
L72865 72817
L72893 72845
L72921 72902
L72921 72986
L72893 73042
L72865 73070
L72808 73099
L72583 73099
" />
<path d="M73258 73380
L73202 73352
L73174 73323
L73146 73267
L73146 73099
L73174 73042
L73202 73014
L73258 72986
L73343 72986
L73399 73014
L73427 73042
L73455 73099
L73455 73267
L73427 73323
L73399 73352
L73343 73380
L73258 73380
" />
<path d="M73961 73352
L73905 73380
L73793 73380
L73736 73352
L73708 73323
L73680 73267
L73680 73099
L73708 73042
L73736 73014
L73793 72986
L73905 72986
L73961 73014
" />
<path d="M74214 73380
L74214 72789
" />
<path d="M74271 73155
L74439 73380
" />
<path d="M74439 72986
L74214 73211
" />
<path d="M74917 73352
L74861 73380
L74749 73380
L74692 73352
L74664 73295
L74664 73070
L74692 73014
L74749 72986
L74861 72986
L74917 73014
L74946 73070
L74946 73127
L74664 73183
" />
<path d="M75114 72986
L75339 72986
" />
<path d="M75199 72789
L75199 73295
L75227 73352
L75283 73380
L75339 73380
" />
<path d="M75536 73380
L75536 72789
L75761 72789
L75817 72817
L75845 72845
L75874 72902
L75874 72986
L75845 73042
L75817 73070
L75761 73099
L75536 73099
" />
<path d="M76464 73323
L76436 73352
L76352 73380
L76295 73380
L76211 73352
L76155 73295
L76127 73239
L76099 73127
L76099 73042
L76127 72930
L76155 72874
L76211 72817
L76295 72789
L76352 72789
L76436 72817
L76464 72845
" />
<path d="M77055 73380
L76858 73099
" />
<path d="M76717 73380
L76717 72789
L76942 72789
L76998 72817
L77027 72845
L77055 72902
L77055 72986
L77027 73042
L76998 73070
L76942 73099
L76717 73099
" />
<path d="M77308 73323
L77336 73352
L77308 73380
L77280 73352
L77308 73323
L77308 73380
" />
<path d="M77589 73380
L77589 72789
" />
<path d="M77645 73155
L77814 73380
" />
<path d="M77814 72986
L77589 73211
" />
<path d="M78067 73380
L78067 72986
" />
<path d="M78067 72789
L78039 72817
L78067 72845
L78095 72817
L78067 72789
L78067 72845
" />
<path d="M78601 73352
L78545 73380
L78433 73380
L78376 73352
L78348 73323
L78320 73267
L78320 73099
L78348 73042
L78376 73014
L78433 72986
L78545 72986
L78601 73014
" />
<path d="M79108 73380
L79108 73070
L79079 73014
L79023 72986
L78911 72986
L78854 73014
" />
<path d="M79108 73352
L79051 73380
L78911 73380
L78854 73352
L78826 73295
L78826 73239
L78854 73183
L78911 73155
L79051 73155
L79108 73127
" />
<path d="M79642 73380
L79642 72789
" />
<path d="M79642 73352
L79586 73380
L79473 73380
L79417 73352
L79389 73323
L79361 73267
L79361 73099
L79389 73042
L79417 73014
L79473 72986
L79586 72986
L79642 73014
" />
<path d="M79782 73436
L80232 73436
" />
<path d="M80373 72986
L80373 73577
" />
<path d="M80373 73014
L80429 72986
L80542 72986
L80598 73014
L80626 73042
L80654 73099
L80654 73267
L80626 73323
L80598 73352
L80542 73380
L80429 73380
L80373 73352
" />
<path d="M81160 73352
L81104 73380
L80992 73380
L80935 73352
L80907 73323
L80879 73267
L80879 73099
L80907 73042
L80935 73014
L80992 72986
L81104 72986
L81160 73014
" />
<path d="M81413 73380
L81413 72789
" />
<path d="M81413 73014
L81470 72986
L81582 72986
L81638 73014
L81667 73042
L81695 73099
L81695 73267
L81667 73323
L81638 73352
L81582 73380
L81470 73380
L81413 73352
" />
</g>
<g style="fill:#000000; fill-opacity:0.0; 
stroke:#000000; stroke-width:39.3701; stroke-opacity:1; 
stroke-linecap:round; stroke-linejoin:round;">
</g>
<g style="fill:#000000; fill-opacity:0.0; 
stroke:#000000; stroke-width:59.0551; stroke-opacity:1; 
stroke-linecap:round; stroke-linejoin:round;">
<path d="M69685 71459
L112205 71459
" />
</g>
<g style="fill:#000000; fill-opacity:0.0; 
stroke:#000000; stroke-width:39.3701; stroke-opacity:1; 
stroke-linecap:round; stroke-linejoin:round;">
</g>
<g style="fill:#000000; fill-opacity:0.0; 
stroke:#000000; stroke-width:59.0551; stroke-opacity:1; 
stroke-linecap:round; stroke-linejoin:round;">
<path d="M70221 72289
L70305 72317
L70446 72317
L70502 72289
L70530 72260
L70559 72204
L70559 72148
L70530 72092
L70502 72064
L70446 72036
L70334 72007
L70277 71979
L70249 71951
L70221 71895
L70221 71839
L70249 71782
L70277 71754
L70334 71726
L70474 71726
L70559 71754
" />
<path d="M70812 72317
L70812 71726
" />
<path d="M71065 72317
L71065 72007
L71037 71951
L70980 71923
L70896 71923
L70840 71951
L70812 71979
" />
<path d="M71571 72289
L71515 72317
L71402 72317
L71346 72289
L71318 72232
L71318 72007
L71346 71951
L71402 71923
L71515 71923
L71571 71951
L71599 72007
L71599 72064
L71318 72120
" />
<path d="M72077 72289
L72021 72317
L71908 72317
L71852 72289
L71824 72232
L71824 72007
L71852 71951
L71908 71923
L72021 71923
L72077 71951
L72105 72007
L72105 72064
L71824 72120
" />
<path d="M72274 71923
L72499 71923
" />
<path d="M72358 71726
L72358 72232
L72386 72289
L72443 72317
L72499 72317
" />
<path d="M72696 72260
L72724 72289
L72696 72317
L72668 72289
L72696 72260
L72696 72317
" />
<path d="M72696 71951
L72724 71979
L72696 72007
L72668 71979
L72696 71951
L72696 72007
" />
</g>
<g style="fill:#000000; fill-opacity:0.0; 
stroke:#000000; stroke-width:39.3701; stroke-opacity:1; 
stroke-linecap:round; stroke-linejoin:round;">
</g>
<g style="fill:#000000; fill-opacity:0.0; 
stroke:#000000; stroke-width:59.0551; stroke-opacity:1; 
stroke-linecap:round; stroke-linejoin:round;">
<path d="M77559 75396
L77559 76577
" />
</g>
<g style="fill:#000000; fill-opacity:0.0; 
stroke:#000000; stroke-width:39.3701; stroke-opacity:1; 
stroke-linecap:round; stroke-linejoin:round;">
</g>
<g style="fill:#000000; fill-opacity:0.0; 
stroke:#000000; stroke-width:59.0551; stroke-opacity:1; 
stroke-linecap:round; stroke-linejoin:round;">
<path d="M102756 75396
L102756 77955
" />
</g>
<g style="fill:#840000; fill-opacity:0.0; 
stroke:#840000; stroke-width:59.0551; stroke-opacity:1; 
stroke-linecap:round; stroke-linejoin:round;">
</g>
<g style="fill:#840000; fill-opacity:1.0; 
stroke:#840000; stroke-width:0; stroke-opacity:1; 
stroke-linecap:round; stroke-linejoin:round;">
<circle cx="38414.5" cy="38675.8" r="354.331" /> 
</g>
<g style="fill:#840000; fill-opacity:1.0; 
stroke:#840000; stroke-width:39.3701; stroke-opacity:1; 
stroke-linecap:round; stroke-linejoin:round;">
</g>
<g style="fill:#840000; fill-opacity:1.0; 
stroke:#840000; stroke-width:0; stroke-opacity:1; 
stroke-linecap:round; stroke-linejoin:round;">
<circle cx="39735.1" cy="38246.8" r="354.331" /> 
</g>
<g style="fill:#840000; fill-opacity:1.0; 
stroke:#840000; stroke-width:39.3701; stroke-opacity:1; 
stroke-linecap:round; stroke-linejoin:round;">
</g>
<g style="fill:#840000; fill-opacity:1.0; 
stroke:#840000; stroke-width:0; stroke-opacity:1; 
stroke-linecap:round; stroke-linejoin:round;">
<circle cx="39735.1" cy="40493.4" r="354.331" /> 
</g>
<g style="fill:#840000; fill-opacity:1.0; 
stroke:#840000; stroke-width:39.3701; stroke-opacity:1; 
stroke-linecap:round; stroke-linejoin:round;">
</g>
<g style="fill:#840000; fill-opacity:1.0; 
stroke:#840000; stroke-width:0; stroke-opacity:1; 
stroke-linecap:round; stroke-linejoin:round;">
<circle cx="38414.5" cy="40064.3" r="354.331" /> 
</g>
<g style="fill:#840000; fill-opacity:1.0; 
stroke:#840000; stroke-width:39.3701; stroke-opacity:1; 
stroke-linecap:round; stroke-linejoin:round;">
</g>
<g style="fill:#840000; fill-opacity:1.0; 
stroke:#840000; stroke-width:0; stroke-opacity:1; 
stroke-linecap:round; stroke-linejoin:round;">
<circle cx="40551.2" cy="39370.1" r="354.331" /> 
</g>
<g style="fill:#840000; fill-opacity:1.0; 
stroke:#840000; stroke-width:39.3701; stroke-opacity:1; 
stroke-linecap:round; stroke-linejoin:round;">
</g>
<g style="fill:#000000; fill-opacity:1.0; 
stroke:#000000; stroke-width:39.3701; stroke-opacity:1; 
stroke-linecap:round; stroke-linejoin:round;">
</g>
<g style="fill:#C2C200; fill-opacity:1.0; 
stroke:#C2C200; stroke-width:39.3701; stroke-opacity:1; 
stroke-linecap:round; stroke-linejoin:round;">
</g>
<g style="fill:#C2C200; fill-opacity:1.0; 
stroke:#C2C200; stroke-width:59.0551; stroke-opacity:1; 
stroke-linecap:round; stroke-linejoin:round;">
</g>
<g style="fill:#C2C200; fill-opacity:0.0; 
stroke:#C2C200; stroke-width:59.0551; stroke-opacity:1; 
stroke-linecap:round; stroke-linejoin:round;">
<path d="M72057 45877
L33085 45877
" />
<path d="M34009 44092
L34022 43953
" />
<path d="M42106 39717
L42120 39411
" />
<path d="M40272 33731
L40689 33814
" />
<path d="M44370 43523
L44481 43592
" />
<path d="M38522 45009
L38106 44939
" />
<path d="M40522 41870
L40786 41731
" />
<path d="M70488 34016
L70627 34029
" />
<path d="M36856 34245
L37245 34064
" />
<path d="M38981 38884
L39106 38814
" />
<path d="M32877 32891
L33085 32877
" />
<path d="M35842 43856
L35522 43578
" />
<path d="M36661 38828
L36620 39120
" />
<path d="M44092 36148
L44314 36509
" />
<path d="M43481 43953
L43522 43814
" />
<path d="M44231 34023
L44370 34078
" />
<path d="M32488 45710
L32321 45599
" />
<path d="M35522 43578
L35217 43286
" />
<path d="M36911 44523
L36550 44328
" />
<path d="M73238 44682
L73224 44891
" />
<path d="M33085 45877
L32877 45849
" />
<path d="M31974 45099
L31918 44891
" />
<path d="M44092 34009
L44231 34023
" />
<path d="M39370 38759
L39509 38773
" />
<path d="M31918 44891
L31904 44682
" />
<path d="M34939 42967
L34689 42634
" />
<path d="M38106 44939
L37703 44828
" />
<path d="M40245 41981
L40522 41870
" />
<path d="M72460 45793
L72265 45849
" />
<path d="M39106 38814
L39231 38773
" />
<path d="M33786 40592
L33717 40175
" />
<path d="M43217 43578
L42897 43856
" />
<path d="M44842 40995
L44703 41398
" />
<path d="M37703 41564
L37939 41731
" />
<path d="M70877 43613
L70974 43710
" />
<path d="M36120 34661
L36481 34439
" />
<path d="M34245 34148
L34370 34078
" />
<path d="M69849 44099
L69863 43960
" />
<path d="M32877 45849
L32682 45793
" />
<path d="M70210 43529
L70349 43488
" />
<path d="M34786 35259
L34647 35273
" />
<path d="M35036 35134
L34911 35203
" />
<path d="M70974 43710
L71057 43821
" />
<path d="M32321 33154
L32488 33029
" />
<path d="M45064 38911
L45078 39328
" />
<path d="M39981 39370
L39967 39509
" />
<path d="M34911 35203
L34786 35259
" />
<path d="M72265 32891
L72460 32946
" />
<path d="M35217 43286
L34939 42967
" />
<path d="M69918 34918
L69863 34793
" />
<path d="M73224 44891
L73168 45099
" />
<path d="M41592 37731
L41397 37509
" />
<path d="M39634 38814
L39745 38884
" />
<path d="M72821 45599
L72654 45710
" />
<path d="M38772 42064
L39064 42106
" />
<path d="M34036 41398
L33897 40995
" />
<path d="M43481 44231
L43467 44092
" />
<path d="M31918 33849
L31974 33654
" />
<path d="M44703 34786
L44661 34911
" />
<path d="M42939 34925
L43259 35189
" />
<path d="M44814 37675
L44925 38078
" />
<path d="M33800 38078
L33911 37675
" />
<path d="M43703 35134
L43606 35036
" />
<path d="M43953 44703
L43814 44661
" />
<path d="M35259 34786
L35217 34911
" />
<path d="M34022 34786
L34009 34648
" />
<path d="M70752 34085
L70877 34154
" />
<path d="M35134 43703
L35217 43814
" />
<path d="M32182 45446
L32057 45279
" />
<path d="M34189 41786
L34036 41398
" />
<path d="M43814 35203
L43703 35134
" />
<path d="M39064 42106
L39370 42120
" />
<path d="M39370 39981
L39231 39967
" />
<path d="M70877 44585
L70752 44668
" />
<path d="M37259 41148
L37467 41370
" />
<path d="M42550 44106
L42189 44328
" />
<path d="M39661 42106
L39967 42064
" />
<path d="M38772 39509
L38759 39370
" />
<path d="M37703 44828
L37300 44689
" />
<path d="M37245 34064
L37634 33925
" />
<path d="M70752 44668
L70627 44710
" />
<path d="M38981 39842
L38884 39745
" />
<path d="M39106 39911
L38981 39842
" />
<path d="M34689 42634
L37259 41148
" />
<path d="M70752 35224
L70627 35266
" />
<path d="M35259 43953
L35272 44092
" />
<path d="M70210 44668
L70085 44585
" />
<path d="M44314 36509
L44509 36884
" />
<path d="M44578 44481
L44481 44578
" />
<path d="M34786 34023
L34911 34078
" />
<path d="M38814 39106
L38884 38981
" />
<path d="M39370 45078
L38939 45064
" />
<path d="M36550 44328
L36189 44106
" />
<path d="M41397 37509
L41189 37300
" />
<path d="M70349 35266
L70210 35224
" />
<path d="M40703 36953
L40425 36828
" />
<path d="M40425 36828
L40147 36717
" />
<path d="M42050 40009
L42106 39717
" />
<path d="M42064 38828
L41995 38536
" />
<path d="M44050 42634
L43786 42967
" />
<path d="M39745 39842
L39634 39911
" />
<path d="M41259 41370
L41467 41148
" />
<path d="M70627 43488
L70752 43529
" />
<path d="M72654 33029
L72821 33154
" />
<path d="M38814 39634
L38772 39509
" />
<path d="M32682 32946
L32877 32891
" />
<path d="M41036 41564
L41259 41370
" />
<path d="M36620 39120
L36606 39411
" />
<path d="M38481 41981
L38772 42064
" />
<path d="M44578 35036
L44481 35134
" />
<path d="M44092 43467
L44231 43481
" />
<path d="M34647 36148
L34897 35814
" />
<path d="M34147 35036
L34078 34911
" />
<path d="M37939 41731
L38203 41870
" />
<path d="M72460 32946
L72654 33029
" />
<path d="M72654 45710
L72460 45793
" />
<path d="M33675 39759
L33661 39328
" />
<path d="M44703 44231
L44661 44370
" />
<path d="M34009 34648
L34022 34495
" />
<path d="M43606 44481
L43522 44370
" />
<path d="M35217 43814
L35259 43953
" />
<path d="M44661 34370
L44703 34495
" />
<path d="M43522 34370
L43606 34245
" />
<path d="M44536 41786
L41967 40300
" />
<path d="M34370 35203
L34245 35134
" />
<path d="M44370 34078
L44481 34148
" />
<path d="M35259 44231
L35217 44370
" />
<path d="M35217 44370
L35134 44481
" />
<path d="M43564 35495
L43842 35814
" />
<path d="M36842 38259
L36745 38536
" />
<path d="M44370 35203
L44231 35259
" />
<path d="M35036 43592
L35134 43703
" />
<path d="M35272 34648
L35259 34786
" />
<path d="M44675 37273
L44814 37675
" />
<path d="M34370 43523
L34509 43481
" />
<path d="M35217 34911
L35134 35036
" />
<path d="M34147 34245
L34245 34148
" />
<path d="M34897 35814
L35175 35495
" />
<path d="M34647 35273
L34509 35259
" />
<path d="M36689 40009
L36772 40300
" />
<path d="M44717 34648
L44703 34786
" />
<path d="M35786 34925
L36120 34661
" />
<path d="M34245 35134
L34147 35036
" />
<path d="M34370 44661
L34245 44578
" />
<path d="M44481 44578
L44370 44661
" />
<path d="M34911 34078
L35036 34148
" />
<path d="M34786 44703
L34647 44717
" />
<path d="M44578 34245
L44661 34370
" />
<path d="M44231 44703
L44092 44717
" />
<path d="M44231 35259
L44092 35273
" />
<path d="M34078 34370
L34147 34245
" />
<path d="M35217 34370
L35259 34495
" />
<path d="M36745 38536
L36661 38828
" />
<path d="M44703 34495
L44717 34648
" />
<path d="M34022 44231
L34009 44092
" />
<path d="M34509 34023
L34647 34009
" />
<path d="M73238 34057
L73238 44682
" />
<path d="M39509 39967
L39370 39981
" />
<path d="M36189 44106
L35842 43856
" />
<path d="M43786 42967
L43509 43286
" />
<path d="M42106 39120
L42064 38828
" />
<path d="M39509 38773
L39634 38814
" />
<path d="M71099 34793
L71057 34918
" />
<path d="M69918 43821
L69988 43710
" />
<path d="M69988 35043
L69918 34918
" />
<path d="M71057 34918
L70974 35043
" />
<path d="M41467 41148
L44050 42634
" />
<path d="M42120 39411
L42106 39120
" />
<path d="M41884 38259
L41759 37995
" />
<path d="M41759 37995
L41592 37731
" />
<path d="M73168 33654
L73224 33849
" />
<path d="M39786 45064
L39370 45078
" />
<path d="M69849 34654
L69863 34516
" />
<path d="M70974 44488
L70877 44585
" />
<path d="M35272 44092
L35259 44231
" />
<path d="M31904 44682
L31904 34057
" />
<path d="M34078 34911
L34022 34786
" />
<path d="M34911 44661
L34786 44703
" />
<path d="M69918 44377
L69863 44238
" />
<path d="M35467 35189
L35786 34925
" />
<path d="M70752 43529
L70877 43613
" />
<path d="M69988 43710
L70085 43613
" />
<path d="M34509 43481
L34647 43467
" />
<path d="M39231 38773
L39370 38759
" />
<path d="M69988 34252
L70085 34154
" />
<path d="M40689 33814
L41092 33925
" />
<path d="M73085 45279
L72960 45446
" />
<path d="M41092 33925
L41495 34064
" />
<path d="M39745 38884
L39842 38981
" />
<path d="M40147 36717
L39856 36648
" />
<path d="M43467 44092
L43481 43953
" />
<path d="M43814 43523
L43953 43481
" />
<path d="M41495 34064
L41884 34245
" />
<path d="M43481 34495
L43522 34370
" />
<path d="M71057 34377
L71099 34516
" />
<path d="M38870 36648
L38578 36717
" />
<path d="M36481 34439
L36856 34245
" />
<path d="M44509 36884
L44675 37273
" />
<path d="M42259 34439
L42606 34661
" />
<path d="M38203 41870
L38481 41981
" />
<path d="M71113 44099
L71099 44238
" />
<path d="M45064 39759
L45022 40175
" />
<path d="M38578 36717
L38300 36828
" />
<path d="M37550 37300
L37328 37509
" />
<path d="M71113 34654
L71099 34793
" />
<path d="M70488 44724
L70349 44710
" />
<path d="M40953 37106
L40703 36953
" />
<path d="M45078 39328
L45064 39759
" />
<path d="M70488 35279
L70349 35266
" />
<path d="M37467 41370
L37703 41564
" />
<path d="M43509 43286
L43217 43578
" />
<path d="M34078 44370
L34022 44231
" />
<path d="M44703 43953
L44717 44092
" />
<path d="M70627 34029
L70752 34085
" />
<path d="M44578 43703
L44661 43814
" />
<path d="M33897 40995
L33786 40592
" />
<path d="M34425 36509
L34647 36148
" />
<path d="M69863 34516
L69918 34377
" />
<path d="M70627 35266
L70488 35279
" />
<path d="M35036 34148
L35134 34245
" />
<path d="M44661 44370
L44578 44481
" />
<path d="M33085 32877
L72057 32877
" />
<path d="M71057 44377
L70974 44488
" />
<path d="M42189 44328
L41814 44523
" />
<path d="M38884 39745
L38814 39634
" />
<path d="M44481 35134
L44370 35203
" />
<path d="M33911 37675
L34050 37273
" />
<path d="M70085 35141
L69988 35043
" />
<path d="M33675 38911
L33731 38495
" />
<path d="M43522 43814
L43606 43703
" />
<path d="M41189 37300
L40953 37106
" />
<path d="M39842 39745
L39745 39842
" />
<path d="M43814 34078
L43953 34023
" />
<path d="M38939 45064
L38522 45009
" />
<path d="M32682 45793
L32488 45710
" />
<path d="M72057 32877
L72265 32891
" />
<path d="M39634 39911
L39509 39967
" />
<path d="M32321 45599
L32182 45446
" />
<path d="M70877 34154
L70974 34252
" />
<path d="M72960 45446
L72821 45599
" />
<path d="M39842 38981
L39911 39106
" />
<path d="M40203 45009
L39786 45064
" />
<path d="M39231 39967
L39106 39911
" />
<path d="M42897 43856
L42550 44106
" />
<path d="M39911 39634
L39842 39745
" />
<path d="M73168 45099
L73085 45279
" />
<path d="M31904 34057
L31918 33849
" />
<path d="M45022 40175
L44939 40592
" />
<path d="M39967 39509
L39911 39634
" />
<path d="M39370 42120
L39661 42106
" />
<path d="M43467 34648
L43481 34495
" />
<path d="M69918 34377
L69988 34252
" />
<path d="M35175 35495
L35467 35189
" />
<path d="M34050 37273
L34231 36884
" />
<path d="M43953 43481
L44092 43467
" />
<path d="M43953 35259
L43814 35203
" />
<path d="M43703 44578
L43606 44481
" />
<path d="M38036 33814
L38453 33731
" />
<path d="M43606 35036
L43522 34911
" />
<path d="M43259 35189
L43564 35495
" />
<path d="M39856 36648
L39856 33675
" />
<path d="M38036 36953
L37786 37106
" />
<path d="M31974 33654
L32057 33474
" />
<path d="M44481 43592
L44578 43703
" />
<path d="M34647 43467
L34786 43481
" />
<path d="M35134 34245
L35217 34370
" />
<path d="M42606 34661
L42939 34925
" />
<path d="M44481 34148
L44578 34245
" />
<path d="M70349 43488
L70488 43474
" />
<path d="M70085 44585
L69988 44488
" />
<path d="M69863 43960
L69918 43821
" />
<path d="M44231 43481
L44370 43523
" />
<path d="M36772 40300
L34189 41786
" />
<path d="M70210 35224
L70085 35141
" />
<path d="M40786 41731
L41036 41564
" />
<path d="M32057 45279
L31974 45099
" />
<path d="M73224 33849
L73238 34057
" />
<path d="M70877 35141
L70752 35224
" />
<path d="M70349 44710
L70210 44668
" />
<path d="M43522 34911
L43481 34786
" />
<path d="M39967 39231
L39981 39370
" />
<path d="M38870 33675
L38870 36648
" />
<path d="M70085 34154
L70210 34085
" />
<path d="M38772 39231
L38814 39106
" />
<path d="M33661 39328
L33675 38911
" />
<path d="M39911 39106
L39967 39231
" />
<path d="M37328 37509
L37147 37731
" />
<path d="M44370 44661
L44231 44703
" />
<path d="M44092 35273
L43953 35259
" />
<path d="M44925 38078
L45009 38495
" />
<path d="M43703 34148
L43814 34078
" />
<path d="M45009 38495
L45064 38911
" />
<path d="M34245 43592
L34370 43523
" />
<path d="M39967 42064
L40245 41981
" />
<path d="M35134 44481
L35036 44578
" />
<path d="M34370 34078
L34509 34023
" />
<path d="M34245 44578
L34147 44481
" />
<path d="M44703 41398
L44536 41786
" />
<path d="M69988 44488
L69918 44377
" />
<path d="M72265 45849
L72057 45877
" />
<path d="M43481 34786
L43467 34648
" />
<path d="M41884 34245
L42259 34439
" />
<path d="M44092 44717
L43953 44703
" />
<path d="M43814 44661
L43703 44578
" />
<path d="M35036 44578
L34911 44661
" />
<path d="M71057 43821
L71099 43960
" />
<path d="M32488 33029
L32682 32946
" />
<path d="M40620 44939
L40203 45009
" />
<path d="M70974 35043
L70877 35141
" />
<path d="M44661 34911
L44578 35036
" />
<path d="M35259 34495
L35272 34648
" />
<path d="M34022 43953
L34078 43814
" />
<path d="M37786 37106
L37550 37300
" />
<path d="M43606 43703
L43703 43592
" />
<path d="M33717 40175
L33675 39759
" />
<path d="M34231 36884
L34425 36509
" />
<path d="M35134 35036
L35036 35134
" />
<path d="M44717 44092
L44703 44231
" />
<path d="M33731 38495
L33800 38078
" />
<path d="M38300 36828
L38036 36953
" />
<path d="M44939 40592
L44842 40995
" />
<path d="M34786 43481
L34911 43523
" />
<path d="M34647 44717
L34509 44703
" />
<path d="M43842 35814
L44092 36148
" />
<path d="M43953 34023
L44092 34009
" />
<path d="M36981 37995
L36842 38259
" />
<path d="M34078 43814
L34147 43703
" />
<path d="M37300 44689
L36911 44523
" />
<path d="M34147 43703
L34245 43592
" />
<path d="M43522 44370
L43481 44231
" />
<path d="M34147 44481
L34078 44370
" />
<path d="M39856 33675
L40272 33731
" />
<path d="M37147 37731
L36981 37995
" />
<path d="M36634 39717
L36689 40009
" />
<path d="M43606 34245
L43703 34148
" />
<path d="M34022 34495
L34078 34370
" />
<path d="M41967 40300
L42050 40009
" />
<path d="M70210 34085
L70349 34029
" />
<path d="M70349 34029
L70488 34016
" />
<path d="M70974 34252
L71057 34377
" />
<path d="M71099 43960
L71113 44099
" />
<path d="M70627 44710
L70488 44724
" />
<path d="M71099 34516
L71113 34654
" />
<path d="M72960 33293
L73085 33474
" />
<path d="M38453 33731
L38870 33675
" />
<path d="M71099 44238
L71057 44377
" />
<path d="M34509 35259
L34370 35203
" />
<path d="M38759 39370
L38772 39231
" />
<path d="M43703 43592
L43814 43523
" />
<path d="M36606 39411
L36634 39717
" />
<path d="M41814 44523
L41425 44689
" />
<path d="M72821 33154
L72960 33293
" />
<path d="M69863 44238
L69849 44099
" />
<path d="M32182 33293
L32321 33154
" />
<path d="M34911 43523
L35036 43592
" />
<path d="M32057 33474
L32182 33293
" />
<path d="M34509 44703
L34370 44661
" />
<path d="M70488 43474
L70627 43488
" />
<path d="M44661 43814
L44703 43953
" />
<path d="M37634 33925
L38036 33814
" />
<path d="M34647 34009
L34786 34023
" />
<path d="M70085 43613
L70210 43529
" />
<path d="M38884 38981
L38981 38884
" />
<path d="M41995 38536
L41884 38259
" />
<path d="M41036 44828
L40620 44939
" />
<path d="M41425 44689
L41036 44828
" />
<path d="M69863 34793
L69849 34654
" />
<path d="M73085 33474
L73168 33654
" />
</g>
<g style="fill:#C2C200; fill-opacity:0.0; 
stroke:#C2C200; stroke-width:39.3701; stroke-opacity:1; 
stroke-linecap:round; stroke-linejoin:round;">
<path d="M58164.2 43909.4 A196.85 196.85 0.0 0 0 58164.2 43515.7 " />
<path d="M51865 43515.7 A196.85 196.85 0.0 0 0 51865 43909.4 " />
<path d="M58164 43909
L51864 43909
" />
<path d="M51864 43515
L58164 43515
" />
</g> 
</svg>
