G04 #@! TF.GenerationSoftware,KiCad,Pcbnew,5.0.2-bee76a0~70~ubuntu18.04.1*
G04 #@! TF.CreationDate,2019-06-24T09:26:36+02:00*
G04 #@! TF.ProjectId,PocketPCR_Lid,506f636b-6574-4504-9352-5f4c69642e6b,rev?*
G04 #@! TF.SameCoordinates,Original*
G04 #@! TF.FileFunction,Soldermask,Top*
G04 #@! TF.FilePolarity,Negative*
%FSLAX46Y46*%
G04 Gerber Fmt 4.6, Leading zero omitted, Abs format (unit mm)*
G04 Created by KiCad (PCBNEW 5.0.2-bee76a0~70~ubuntu18.04.1) date Mo 24 Jun 2019 09:26:36 CEST*
%MOMM*%
%LPD*%
G01*
G04 APERTURE LIST*
%ADD10C,0.100000*%
G04 APERTURE END LIST*
D10*
G36*
X100306274Y-101990350D02*
X100497362Y-102069502D01*
X100669336Y-102184411D01*
X100815589Y-102330664D01*
X100930498Y-102502638D01*
X101009650Y-102693726D01*
X101050000Y-102896584D01*
X101050000Y-103103416D01*
X101009650Y-103306274D01*
X100930498Y-103497362D01*
X100815589Y-103669336D01*
X100669336Y-103815589D01*
X100497362Y-103930498D01*
X100306274Y-104009650D01*
X100103416Y-104050000D01*
X99896584Y-104050000D01*
X99693726Y-104009650D01*
X99502638Y-103930498D01*
X99330664Y-103815589D01*
X99184411Y-103669336D01*
X99069502Y-103497362D01*
X98990350Y-103306274D01*
X98950000Y-103103416D01*
X98950000Y-102896584D01*
X98990350Y-102693726D01*
X99069502Y-102502638D01*
X99184411Y-102330664D01*
X99330664Y-102184411D01*
X99502638Y-102069502D01*
X99693726Y-101990350D01*
X99896584Y-101950000D01*
X100103416Y-101950000D01*
X100306274Y-101990350D01*
X100306274Y-101990350D01*
G37*
G36*
X103159274Y-99917350D02*
X103350362Y-99996502D01*
X103522336Y-100111411D01*
X103668589Y-100257664D01*
X103783498Y-100429638D01*
X103862650Y-100620726D01*
X103903000Y-100823584D01*
X103903000Y-101030416D01*
X103862650Y-101233274D01*
X103783498Y-101424362D01*
X103668589Y-101596336D01*
X103522336Y-101742589D01*
X103350362Y-101857498D01*
X103159274Y-101936650D01*
X102956416Y-101977000D01*
X102749584Y-101977000D01*
X102546726Y-101936650D01*
X102355638Y-101857498D01*
X102183664Y-101742589D01*
X102037411Y-101596336D01*
X101922502Y-101424362D01*
X101843350Y-101233274D01*
X101803000Y-101030416D01*
X101803000Y-100823584D01*
X101843350Y-100620726D01*
X101922502Y-100429638D01*
X102037411Y-100257664D01*
X102183664Y-100111411D01*
X102355638Y-99996502D01*
X102546726Y-99917350D01*
X102749584Y-99877000D01*
X102956416Y-99877000D01*
X103159274Y-99917350D01*
X103159274Y-99917350D01*
G37*
G36*
X97453074Y-99917350D02*
X97644162Y-99996502D01*
X97816136Y-100111411D01*
X97962389Y-100257664D01*
X98077298Y-100429638D01*
X98156450Y-100620726D01*
X98196800Y-100823584D01*
X98196800Y-101030416D01*
X98156450Y-101233274D01*
X98077298Y-101424362D01*
X97962389Y-101596336D01*
X97816136Y-101742589D01*
X97644162Y-101857498D01*
X97453074Y-101936650D01*
X97250216Y-101977000D01*
X97043384Y-101977000D01*
X96840526Y-101936650D01*
X96649438Y-101857498D01*
X96477464Y-101742589D01*
X96331211Y-101596336D01*
X96216302Y-101424362D01*
X96137150Y-101233274D01*
X96096800Y-101030416D01*
X96096800Y-100823584D01*
X96137150Y-100620726D01*
X96216302Y-100429638D01*
X96331211Y-100257664D01*
X96477464Y-100111411D01*
X96649438Y-99996502D01*
X96840526Y-99917350D01*
X97043384Y-99877000D01*
X97250216Y-99877000D01*
X97453074Y-99917350D01*
X97453074Y-99917350D01*
G37*
G36*
X100495872Y-98365330D02*
X100805252Y-98493479D01*
X101083687Y-98679523D01*
X101320477Y-98916313D01*
X101506521Y-99194748D01*
X101634670Y-99504128D01*
X101700000Y-99832565D01*
X101700000Y-100167435D01*
X101634670Y-100495872D01*
X101506521Y-100805252D01*
X101320477Y-101083687D01*
X101083687Y-101320477D01*
X100805252Y-101506521D01*
X100495872Y-101634670D01*
X100167435Y-101700000D01*
X99832565Y-101700000D01*
X99504128Y-101634670D01*
X99194748Y-101506521D01*
X98916313Y-101320477D01*
X98679523Y-101083687D01*
X98493479Y-100805252D01*
X98365330Y-100495872D01*
X98300000Y-100167435D01*
X98300000Y-99832565D01*
X98365330Y-99504128D01*
X98493479Y-99194748D01*
X98679523Y-98916313D01*
X98916313Y-98679523D01*
X99194748Y-98493479D01*
X99504128Y-98365330D01*
X99832565Y-98300000D01*
X100167435Y-98300000D01*
X100495872Y-98365330D01*
X100495872Y-98365330D01*
G37*
G36*
X99810022Y-95992911D02*
X99844656Y-96003417D01*
X99876581Y-96020482D01*
X99904558Y-96043442D01*
X99927520Y-96071420D01*
X99932856Y-96081404D01*
X99941025Y-96093629D01*
X99951421Y-96104025D01*
X99963646Y-96112193D01*
X99977229Y-96117820D01*
X99991649Y-96120688D01*
X100006352Y-96120688D01*
X100020772Y-96117819D01*
X100034355Y-96112193D01*
X100046580Y-96104024D01*
X100056976Y-96093628D01*
X100065144Y-96081404D01*
X100070480Y-96071420D01*
X100093442Y-96043442D01*
X100121419Y-96020482D01*
X100153344Y-96003417D01*
X100187978Y-95992911D01*
X100227687Y-95989000D01*
X100740313Y-95989000D01*
X100780022Y-95992911D01*
X100814656Y-96003417D01*
X100846581Y-96020482D01*
X100874558Y-96043442D01*
X100897518Y-96071419D01*
X100914583Y-96103344D01*
X100925089Y-96137978D01*
X100929000Y-96177687D01*
X100929000Y-96741211D01*
X100930441Y-96755843D01*
X100934709Y-96769912D01*
X100941640Y-96782879D01*
X100950967Y-96794244D01*
X100962332Y-96803571D01*
X100975299Y-96810502D01*
X100989368Y-96814770D01*
X101004000Y-96816211D01*
X101018632Y-96814770D01*
X101032701Y-96810502D01*
X101045668Y-96803571D01*
X101057022Y-96794253D01*
X101093964Y-96757311D01*
X101265938Y-96642402D01*
X101457026Y-96563250D01*
X101659884Y-96522900D01*
X101866716Y-96522900D01*
X102069574Y-96563250D01*
X102260662Y-96642402D01*
X102432636Y-96757311D01*
X102578889Y-96903564D01*
X102693798Y-97075538D01*
X102772950Y-97266626D01*
X102813300Y-97469484D01*
X102813300Y-97676316D01*
X102772950Y-97879174D01*
X102693798Y-98070262D01*
X102578889Y-98242236D01*
X102432636Y-98388489D01*
X102260662Y-98503398D01*
X102069574Y-98582550D01*
X101866716Y-98622900D01*
X101659884Y-98622900D01*
X101457026Y-98582550D01*
X101265938Y-98503398D01*
X101093964Y-98388489D01*
X100947711Y-98242236D01*
X100832802Y-98070262D01*
X100753650Y-97879174D01*
X100713300Y-97676316D01*
X100713300Y-97469484D01*
X100753650Y-97266626D01*
X100832802Y-97075538D01*
X100856033Y-97040770D01*
X100862961Y-97027809D01*
X100867229Y-97013740D01*
X100868670Y-96999108D01*
X100867229Y-96984476D01*
X100862961Y-96970407D01*
X100856030Y-96957440D01*
X100846703Y-96946075D01*
X100835338Y-96936748D01*
X100822371Y-96929817D01*
X100808302Y-96925549D01*
X100793670Y-96924108D01*
X100786319Y-96924469D01*
X100740314Y-96929000D01*
X100227687Y-96929000D01*
X100187978Y-96925089D01*
X100153344Y-96914583D01*
X100121419Y-96897518D01*
X100093442Y-96874558D01*
X100070480Y-96846580D01*
X100065144Y-96836596D01*
X100056975Y-96824371D01*
X100046579Y-96813975D01*
X100034354Y-96805807D01*
X100020771Y-96800180D01*
X100006351Y-96797312D01*
X99991648Y-96797312D01*
X99977228Y-96800181D01*
X99963645Y-96805807D01*
X99951420Y-96813976D01*
X99941024Y-96824372D01*
X99932856Y-96836596D01*
X99927520Y-96846580D01*
X99904558Y-96874558D01*
X99876581Y-96897518D01*
X99844656Y-96914583D01*
X99810022Y-96925089D01*
X99770313Y-96929000D01*
X99257687Y-96929000D01*
X99213716Y-96924669D01*
X99199013Y-96924669D01*
X99184593Y-96927537D01*
X99171010Y-96933164D01*
X99158785Y-96941332D01*
X99148388Y-96951728D01*
X99140220Y-96963953D01*
X99134594Y-96977536D01*
X99131725Y-96991956D01*
X99131725Y-97006659D01*
X99134593Y-97021079D01*
X99140220Y-97034662D01*
X99144000Y-97040969D01*
X99167098Y-97075538D01*
X99246250Y-97266626D01*
X99286600Y-97469484D01*
X99286600Y-97676316D01*
X99246250Y-97879174D01*
X99167098Y-98070262D01*
X99052189Y-98242236D01*
X98905936Y-98388489D01*
X98733962Y-98503398D01*
X98542874Y-98582550D01*
X98340016Y-98622900D01*
X98133184Y-98622900D01*
X97930326Y-98582550D01*
X97739238Y-98503398D01*
X97567264Y-98388489D01*
X97421011Y-98242236D01*
X97306102Y-98070262D01*
X97226950Y-97879174D01*
X97186600Y-97676316D01*
X97186600Y-97469484D01*
X97226950Y-97266626D01*
X97306102Y-97075538D01*
X97421011Y-96903564D01*
X97567264Y-96757311D01*
X97739238Y-96642402D01*
X97930326Y-96563250D01*
X98133184Y-96522900D01*
X98340016Y-96522900D01*
X98542874Y-96563250D01*
X98733962Y-96642402D01*
X98905936Y-96757311D01*
X98940978Y-96792353D01*
X98952332Y-96801671D01*
X98965299Y-96808602D01*
X98979368Y-96812870D01*
X98994000Y-96814311D01*
X99008632Y-96812870D01*
X99022701Y-96808602D01*
X99035668Y-96801671D01*
X99047033Y-96792344D01*
X99056360Y-96780979D01*
X99063291Y-96768012D01*
X99067559Y-96753943D01*
X99069000Y-96739311D01*
X99069000Y-96177687D01*
X99072911Y-96137978D01*
X99083417Y-96103344D01*
X99100482Y-96071419D01*
X99123442Y-96043442D01*
X99151419Y-96020482D01*
X99183344Y-96003417D01*
X99217978Y-95992911D01*
X99257687Y-95989000D01*
X99770313Y-95989000D01*
X99810022Y-95992911D01*
X99810022Y-95992911D01*
G37*
G36*
X102306274Y-85990350D02*
X102497362Y-86069502D01*
X102669336Y-86184411D01*
X102815589Y-86330664D01*
X102930498Y-86502638D01*
X103009650Y-86693726D01*
X103050000Y-86896584D01*
X103050000Y-87103416D01*
X103009650Y-87306274D01*
X102930498Y-87497362D01*
X102815589Y-87669336D01*
X102669336Y-87815589D01*
X102497362Y-87930498D01*
X102306274Y-88009650D01*
X102103416Y-88050000D01*
X101896584Y-88050000D01*
X101693726Y-88009650D01*
X101502638Y-87930498D01*
X101330664Y-87815589D01*
X101184411Y-87669336D01*
X101069502Y-87497362D01*
X100990350Y-87306274D01*
X100950000Y-87103416D01*
X100950000Y-86896584D01*
X100990350Y-86693726D01*
X101069502Y-86502638D01*
X101184411Y-86330664D01*
X101330664Y-86184411D01*
X101502638Y-86069502D01*
X101693726Y-85990350D01*
X101896584Y-85950000D01*
X102103416Y-85950000D01*
X102306274Y-85990350D01*
X102306274Y-85990350D01*
G37*
G36*
X98306274Y-85990350D02*
X98497362Y-86069502D01*
X98669336Y-86184411D01*
X98815589Y-86330664D01*
X98930498Y-86502638D01*
X99009650Y-86693726D01*
X99050000Y-86896584D01*
X99050000Y-87103416D01*
X99009650Y-87306274D01*
X98930498Y-87497362D01*
X98815589Y-87669336D01*
X98669336Y-87815589D01*
X98497362Y-87930498D01*
X98306274Y-88009650D01*
X98103416Y-88050000D01*
X97896584Y-88050000D01*
X97693726Y-88009650D01*
X97502638Y-87930498D01*
X97330664Y-87815589D01*
X97184411Y-87669336D01*
X97069502Y-87497362D01*
X96990350Y-87306274D01*
X96950000Y-87103416D01*
X96950000Y-86896584D01*
X96990350Y-86693726D01*
X97069502Y-86502638D01*
X97184411Y-86330664D01*
X97330664Y-86184411D01*
X97502638Y-86069502D01*
X97693726Y-85990350D01*
X97896584Y-85950000D01*
X98103416Y-85950000D01*
X98306274Y-85990350D01*
X98306274Y-85990350D01*
G37*
M02*
