<?xml version="1.0" standalone="no"?>
 <!DOCTYPE svg PUBLIC "-//W3C//DTD SVG 1.1//EN" 
 "http://www.w3.org/Graphics/SVG/1.1/DTD/svg11.dtd"> 
<svg xmlns="http://www.w3.org/2000/svg" version="1.1" 
    width="29.7002cm" height="21.0007cm" viewBox="0 0 116930 82680 ">
<title>SVG Picture created as GaudiPCR-F.SilkS.svg date 2019/06/21 11:48:26 </title>
  <desc>Picture generated by PCBNEW </desc>
<g style="fill:#000000; fill-opacity:1;stroke:#000000; stroke-opacity:1;
stroke-linecap:round; stroke-linejoin:round; "
 transform="translate(0 0) scale(1 1)">
</g>
<g style="fill:#000000; fill-opacity:0.0; 
stroke:#000000; stroke-width:-0.000393701; stroke-opacity:1; 
stroke-linecap:round; stroke-linejoin:round;">
</g>
<g style="fill:#000000; fill-opacity:0.0; 
stroke:#000000; stroke-width:39.3701; stroke-opacity:1; 
stroke-linecap:round; stroke-linejoin:round;">
</g>
<g style="fill:#000000; fill-opacity:0.0; 
stroke:#000000; stroke-width:59.0551; stroke-opacity:1; 
stroke-linecap:round; stroke-linejoin:round;">
<rect x="69685.9" y="65357.2" width="42519.7" height="12598.4" rx="0" />
</g>
<g style="fill:#000000; fill-opacity:0.0; 
stroke:#000000; stroke-width:39.3701; stroke-opacity:1; 
stroke-linecap:round; stroke-linejoin:round;">
</g>
<g style="fill:#000000; fill-opacity:0.0; 
stroke:#000000; stroke-width:59.0551; stroke-opacity:1; 
stroke-linecap:round; stroke-linejoin:round;">
<rect x="3937.01" y="3937.01" width="109056" height="74806" rx="0" />
</g>
<g style="fill:#000000; fill-opacity:0.0; 
stroke:#000000; stroke-width:39.3701; stroke-opacity:1; 
stroke-linecap:round; stroke-linejoin:round;">
</g>
<g style="fill:#000000; fill-opacity:0.0; 
stroke:#000000; stroke-width:59.0551; stroke-opacity:1; 
stroke-linecap:round; stroke-linejoin:round;">
<rect x="4724.41" y="4724.41" width="107481" height="73231.2" rx="0" />
</g>
<g style="fill:#000000; fill-opacity:0.0; 
stroke:#000000; stroke-width:39.3701; stroke-opacity:1; 
stroke-linecap:round; stroke-linejoin:round;">
</g>
<g style="fill:#000000; fill-opacity:0.0; 
stroke:#000000; stroke-width:59.0551; stroke-opacity:1; 
stroke-linecap:round; stroke-linejoin:round;">
<path d="M23622 4724
L23622 3937
" />
</g>
<g style="fill:#000000; fill-opacity:0.0; 
stroke:#000000; stroke-width:39.3701; stroke-opacity:1; 
stroke-linecap:round; stroke-linejoin:round;">
</g>
<g style="fill:#000000; fill-opacity:0.0; 
stroke:#000000; stroke-width:59.0551; stroke-opacity:1; 
stroke-linecap:round; stroke-linejoin:round;">
<path d="M43307 4724
L43307 3937
" />
</g>
<g style="fill:#000000; fill-opacity:0.0; 
stroke:#000000; stroke-width:39.3701; stroke-opacity:1; 
stroke-linecap:round; stroke-linejoin:round;">
</g>
<g style="fill:#000000; fill-opacity:0.0; 
stroke:#000000; stroke-width:59.0551; stroke-opacity:1; 
stroke-linecap:round; stroke-linejoin:round;">
<path d="M62992 4724
L62992 3937
" />
</g>
<g style="fill:#000000; fill-opacity:0.0; 
stroke:#000000; stroke-width:39.3701; stroke-opacity:1; 
stroke-linecap:round; stroke-linejoin:round;">
</g>
<g style="fill:#000000; fill-opacity:0.0; 
stroke:#000000; stroke-width:59.0551; stroke-opacity:1; 
stroke-linecap:round; stroke-linejoin:round;">
<path d="M82677 4724
L82677 3937
" />
</g>
<g style="fill:#000000; fill-opacity:0.0; 
stroke:#000000; stroke-width:39.3701; stroke-opacity:1; 
stroke-linecap:round; stroke-linejoin:round;">
</g>
<g style="fill:#000000; fill-opacity:0.0; 
stroke:#000000; stroke-width:59.0551; stroke-opacity:1; 
stroke-linecap:round; stroke-linejoin:round;">
<path d="M102362 4724
L102362 3937
" />
</g>
<g style="fill:#000000; fill-opacity:0.0; 
stroke:#000000; stroke-width:39.3701; stroke-opacity:1; 
stroke-linecap:round; stroke-linejoin:round;">
</g>
<g style="fill:#000000; fill-opacity:0.0; 
stroke:#000000; stroke-width:59.0551; stroke-opacity:1; 
stroke-linecap:round; stroke-linejoin:round;">
<path d="M14199 4562
L13906 4562
" />
<path d="M14052 4562
L14052 4050
L14004 4123
L13955 4172
L13906 4196
" />
</g>
<g style="fill:#000000; fill-opacity:0.0; 
stroke:#000000; stroke-width:39.3701; stroke-opacity:1; 
stroke-linecap:round; stroke-linejoin:round;">
</g>
<g style="fill:#000000; fill-opacity:0.0; 
stroke:#000000; stroke-width:59.0551; stroke-opacity:1; 
stroke-linecap:round; stroke-linejoin:round;">
<path d="M33591 4099
L33615 4074
L33664 4050
L33786 4050
L33835 4074
L33859 4099
L33884 4147
L33884 4196
L33859 4269
L33567 4562
L33884 4562
" />
</g>
<g style="fill:#000000; fill-opacity:0.0; 
stroke:#000000; stroke-width:39.3701; stroke-opacity:1; 
stroke-linecap:round; stroke-linejoin:round;">
</g>
<g style="fill:#000000; fill-opacity:0.0; 
stroke:#000000; stroke-width:59.0551; stroke-opacity:1; 
stroke-linecap:round; stroke-linejoin:round;">
<path d="M53252 4050
L53569 4050
L53398 4245
L53471 4245
L53520 4269
L53544 4294
L53569 4342
L53569 4464
L53544 4513
L53520 4537
L53471 4562
L53325 4562
L53276 4537
L53252 4513
" />
</g>
<g style="fill:#000000; fill-opacity:0.0; 
stroke:#000000; stroke-width:39.3701; stroke-opacity:1; 
stroke-linecap:round; stroke-linejoin:round;">
</g>
<g style="fill:#000000; fill-opacity:0.0; 
stroke:#000000; stroke-width:59.0551; stroke-opacity:1; 
stroke-linecap:round; stroke-linejoin:round;">
<path d="M73205 4221
L73205 4562
" />
<path d="M73083 4026
L72961 4391
L73278 4391
" />
</g>
<g style="fill:#000000; fill-opacity:0.0; 
stroke:#000000; stroke-width:39.3701; stroke-opacity:1; 
stroke-linecap:round; stroke-linejoin:round;">
</g>
<g style="fill:#000000; fill-opacity:0.0; 
stroke:#000000; stroke-width:59.0551; stroke-opacity:1; 
stroke-linecap:round; stroke-linejoin:round;">
<path d="M92914 4050
L92671 4050
L92646 4294
L92671 4269
L92719 4245
L92841 4245
L92890 4269
L92914 4294
L92939 4342
L92939 4464
L92914 4513
L92890 4537
L92841 4562
L92719 4562
L92671 4537
L92646 4513
" />
</g>
<g style="fill:#000000; fill-opacity:0.0; 
stroke:#000000; stroke-width:39.3701; stroke-opacity:1; 
stroke-linecap:round; stroke-linejoin:round;">
</g>
<g style="fill:#000000; fill-opacity:0.0; 
stroke:#000000; stroke-width:59.0551; stroke-opacity:1; 
stroke-linecap:round; stroke-linejoin:round;">
<path d="M112575 4050
L112477 4050
L112429 4074
L112404 4099
L112356 4172
L112331 4269
L112331 4464
L112356 4513
L112380 4537
L112429 4562
L112526 4562
L112575 4537
L112599 4513
L112624 4464
L112624 4342
L112599 4294
L112575 4269
L112526 4245
L112429 4245
L112380 4269
L112356 4294
L112331 4342
" />
</g>
<g style="fill:#000000; fill-opacity:0.0; 
stroke:#000000; stroke-width:39.3701; stroke-opacity:1; 
stroke-linecap:round; stroke-linejoin:round;">
</g>
<g style="fill:#000000; fill-opacity:0.0; 
stroke:#000000; stroke-width:59.0551; stroke-opacity:1; 
stroke-linecap:round; stroke-linejoin:round;">
<path d="M23622 77955
L23622 78742
" />
</g>
<g style="fill:#000000; fill-opacity:0.0; 
stroke:#000000; stroke-width:39.3701; stroke-opacity:1; 
stroke-linecap:round; stroke-linejoin:round;">
</g>
<g style="fill:#000000; fill-opacity:0.0; 
stroke:#000000; stroke-width:59.0551; stroke-opacity:1; 
stroke-linecap:round; stroke-linejoin:round;">
<path d="M43307 77955
L43307 78742
" />
</g>
<g style="fill:#000000; fill-opacity:0.0; 
stroke:#000000; stroke-width:39.3701; stroke-opacity:1; 
stroke-linecap:round; stroke-linejoin:round;">
</g>
<g style="fill:#000000; fill-opacity:0.0; 
stroke:#000000; stroke-width:59.0551; stroke-opacity:1; 
stroke-linecap:round; stroke-linejoin:round;">
<path d="M62992 77955
L62992 78742
" />
</g>
<g style="fill:#000000; fill-opacity:0.0; 
stroke:#000000; stroke-width:39.3701; stroke-opacity:1; 
stroke-linecap:round; stroke-linejoin:round;">
</g>
<g style="fill:#000000; fill-opacity:0.0; 
stroke:#000000; stroke-width:59.0551; stroke-opacity:1; 
stroke-linecap:round; stroke-linejoin:round;">
<path d="M82677 77955
L82677 78742
" />
</g>
<g style="fill:#000000; fill-opacity:0.0; 
stroke:#000000; stroke-width:39.3701; stroke-opacity:1; 
stroke-linecap:round; stroke-linejoin:round;">
</g>
<g style="fill:#000000; fill-opacity:0.0; 
stroke:#000000; stroke-width:59.0551; stroke-opacity:1; 
stroke-linecap:round; stroke-linejoin:round;">
<path d="M102362 77955
L102362 78742
" />
</g>
<g style="fill:#000000; fill-opacity:0.0; 
stroke:#000000; stroke-width:39.3701; stroke-opacity:1; 
stroke-linecap:round; stroke-linejoin:round;">
</g>
<g style="fill:#000000; fill-opacity:0.0; 
stroke:#000000; stroke-width:59.0551; stroke-opacity:1; 
stroke-linecap:round; stroke-linejoin:round;">
<path d="M14199 78580
L13906 78580
" />
<path d="M14052 78580
L14052 78069
L14004 78142
L13955 78190
L13906 78215
" />
</g>
<g style="fill:#000000; fill-opacity:0.0; 
stroke:#000000; stroke-width:39.3701; stroke-opacity:1; 
stroke-linecap:round; stroke-linejoin:round;">
</g>
<g style="fill:#000000; fill-opacity:0.0; 
stroke:#000000; stroke-width:59.0551; stroke-opacity:1; 
stroke-linecap:round; stroke-linejoin:round;">
<path d="M33591 78117
L33615 78093
L33664 78069
L33786 78069
L33835 78093
L33859 78117
L33884 78166
L33884 78215
L33859 78288
L33567 78580
L33884 78580
" />
</g>
<g style="fill:#000000; fill-opacity:0.0; 
stroke:#000000; stroke-width:39.3701; stroke-opacity:1; 
stroke-linecap:round; stroke-linejoin:round;">
</g>
<g style="fill:#000000; fill-opacity:0.0; 
stroke:#000000; stroke-width:59.0551; stroke-opacity:1; 
stroke-linecap:round; stroke-linejoin:round;">
<path d="M53252 78069
L53569 78069
L53398 78263
L53471 78263
L53520 78288
L53544 78312
L53569 78361
L53569 78483
L53544 78532
L53520 78556
L53471 78580
L53325 78580
L53276 78556
L53252 78532
" />
</g>
<g style="fill:#000000; fill-opacity:0.0; 
stroke:#000000; stroke-width:39.3701; stroke-opacity:1; 
stroke-linecap:round; stroke-linejoin:round;">
</g>
<g style="fill:#000000; fill-opacity:0.0; 
stroke:#000000; stroke-width:59.0551; stroke-opacity:1; 
stroke-linecap:round; stroke-linejoin:round;">
<path d="M73205 78239
L73205 78580
" />
<path d="M73083 78044
L72961 78410
L73278 78410
" />
</g>
<g style="fill:#000000; fill-opacity:0.0; 
stroke:#000000; stroke-width:39.3701; stroke-opacity:1; 
stroke-linecap:round; stroke-linejoin:round;">
</g>
<g style="fill:#000000; fill-opacity:0.0; 
stroke:#000000; stroke-width:59.0551; stroke-opacity:1; 
stroke-linecap:round; stroke-linejoin:round;">
<path d="M92914 78069
L92671 78069
L92646 78312
L92671 78288
L92719 78263
L92841 78263
L92890 78288
L92914 78312
L92939 78361
L92939 78483
L92914 78532
L92890 78556
L92841 78580
L92719 78580
L92671 78556
L92646 78532
" />
</g>
<g style="fill:#000000; fill-opacity:0.0; 
stroke:#000000; stroke-width:39.3701; stroke-opacity:1; 
stroke-linecap:round; stroke-linejoin:round;">
</g>
<g style="fill:#000000; fill-opacity:0.0; 
stroke:#000000; stroke-width:59.0551; stroke-opacity:1; 
stroke-linecap:round; stroke-linejoin:round;">
<path d="M112575 78069
L112477 78069
L112429 78093
L112404 78117
L112356 78190
L112331 78288
L112331 78483
L112356 78532
L112380 78556
L112429 78580
L112526 78580
L112575 78556
L112599 78532
L112624 78483
L112624 78361
L112599 78312
L112575 78288
L112526 78263
L112429 78263
L112380 78288
L112356 78312
L112331 78361
" />
</g>
<g style="fill:#000000; fill-opacity:0.0; 
stroke:#000000; stroke-width:39.3701; stroke-opacity:1; 
stroke-linecap:round; stroke-linejoin:round;">
</g>
<g style="fill:#000000; fill-opacity:0.0; 
stroke:#000000; stroke-width:59.0551; stroke-opacity:1; 
stroke-linecap:round; stroke-linejoin:round;">
<path d="M3937 23622
L4724 23622
" />
</g>
<g style="fill:#000000; fill-opacity:0.0; 
stroke:#000000; stroke-width:39.3701; stroke-opacity:1; 
stroke-linecap:round; stroke-linejoin:round;">
</g>
<g style="fill:#000000; fill-opacity:0.0; 
stroke:#000000; stroke-width:59.0551; stroke-opacity:1; 
stroke-linecap:round; stroke-linejoin:round;">
<path d="M3937 43307
L4724 43307
" />
</g>
<g style="fill:#000000; fill-opacity:0.0; 
stroke:#000000; stroke-width:39.3701; stroke-opacity:1; 
stroke-linecap:round; stroke-linejoin:round;">
</g>
<g style="fill:#000000; fill-opacity:0.0; 
stroke:#000000; stroke-width:59.0551; stroke-opacity:1; 
stroke-linecap:round; stroke-linejoin:round;">
<path d="M3937 62992
L4724 62992
" />
</g>
<g style="fill:#000000; fill-opacity:0.0; 
stroke:#000000; stroke-width:39.3701; stroke-opacity:1; 
stroke-linecap:round; stroke-linejoin:round;">
</g>
<g style="fill:#000000; fill-opacity:0.0; 
stroke:#000000; stroke-width:59.0551; stroke-opacity:1; 
stroke-linecap:round; stroke-linejoin:round;">
<path d="M4208 13864
L4452 13864
" />
<path d="M4160 14011
L4330 13499
L4501 14011
" />
</g>
<g style="fill:#000000; fill-opacity:0.0; 
stroke:#000000; stroke-width:39.3701; stroke-opacity:1; 
stroke-linecap:round; stroke-linejoin:round;">
</g>
<g style="fill:#000000; fill-opacity:0.0; 
stroke:#000000; stroke-width:59.0551; stroke-opacity:1; 
stroke-linecap:round; stroke-linejoin:round;">
<path d="M4367 33428
L4440 33452
L4464 33476
L4489 33525
L4489 33598
L4464 33647
L4440 33671
L4391 33696
L4196 33696
L4196 33184
L4367 33184
L4416 33208
L4440 33233
L4464 33281
L4464 33330
L4440 33379
L4416 33403
L4367 33428
L4196 33428
" />
</g>
<g style="fill:#000000; fill-opacity:0.0; 
stroke:#000000; stroke-width:39.3701; stroke-opacity:1; 
stroke-linecap:round; stroke-linejoin:round;">
</g>
<g style="fill:#000000; fill-opacity:0.0; 
stroke:#000000; stroke-width:59.0551; stroke-opacity:1; 
stroke-linecap:round; stroke-linejoin:round;">
<path d="M4489 53332
L4464 53356
L4391 53381
L4342 53381
L4269 53356
L4221 53308
L4196 53259
L4172 53161
L4172 53088
L4196 52991
L4221 52942
L4269 52893
L4342 52869
L4391 52869
L4464 52893
L4489 52918
" />
</g>
<g style="fill:#000000; fill-opacity:0.0; 
stroke:#000000; stroke-width:39.3701; stroke-opacity:1; 
stroke-linecap:round; stroke-linejoin:round;">
</g>
<g style="fill:#000000; fill-opacity:0.0; 
stroke:#000000; stroke-width:59.0551; stroke-opacity:1; 
stroke-linecap:round; stroke-linejoin:round;">
<path d="M4196 73066
L4196 72554
L4318 72554
L4391 72578
L4440 72627
L4464 72676
L4489 72773
L4489 72846
L4464 72944
L4440 72993
L4391 73041
L4318 73066
L4196 73066
" />
</g>
<g style="fill:#000000; fill-opacity:0.0; 
stroke:#000000; stroke-width:39.3701; stroke-opacity:1; 
stroke-linecap:round; stroke-linejoin:round;">
</g>
<g style="fill:#000000; fill-opacity:0.0; 
stroke:#000000; stroke-width:59.0551; stroke-opacity:1; 
stroke-linecap:round; stroke-linejoin:round;">
<path d="M112992 23622
L112205 23622
" />
</g>
<g style="fill:#000000; fill-opacity:0.0; 
stroke:#000000; stroke-width:39.3701; stroke-opacity:1; 
stroke-linecap:round; stroke-linejoin:round;">
</g>
<g style="fill:#000000; fill-opacity:0.0; 
stroke:#000000; stroke-width:59.0551; stroke-opacity:1; 
stroke-linecap:round; stroke-linejoin:round;">
<path d="M112992 43307
L112205 43307
" />
</g>
<g style="fill:#000000; fill-opacity:0.0; 
stroke:#000000; stroke-width:39.3701; stroke-opacity:1; 
stroke-linecap:round; stroke-linejoin:round;">
</g>
<g style="fill:#000000; fill-opacity:0.0; 
stroke:#000000; stroke-width:59.0551; stroke-opacity:1; 
stroke-linecap:round; stroke-linejoin:round;">
<path d="M112992 62992
L112205 62992
" />
</g>
<g style="fill:#000000; fill-opacity:0.0; 
stroke:#000000; stroke-width:39.3701; stroke-opacity:1; 
stroke-linecap:round; stroke-linejoin:round;">
</g>
<g style="fill:#000000; fill-opacity:0.0; 
stroke:#000000; stroke-width:59.0551; stroke-opacity:1; 
stroke-linecap:round; stroke-linejoin:round;">
<path d="M112477 13864
L112721 13864
" />
<path d="M112428 14011
L112599 13499
L112769 14011
" />
</g>
<g style="fill:#000000; fill-opacity:0.0; 
stroke:#000000; stroke-width:39.3701; stroke-opacity:1; 
stroke-linecap:round; stroke-linejoin:round;">
</g>
<g style="fill:#000000; fill-opacity:0.0; 
stroke:#000000; stroke-width:59.0551; stroke-opacity:1; 
stroke-linecap:round; stroke-linejoin:round;">
<path d="M112635 33428
L112708 33452
L112733 33476
L112757 33525
L112757 33598
L112733 33647
L112708 33671
L112660 33696
L112465 33696
L112465 33184
L112635 33184
L112684 33208
L112708 33233
L112733 33281
L112733 33330
L112708 33379
L112684 33403
L112635 33428
L112465 33428
" />
</g>
<g style="fill:#000000; fill-opacity:0.0; 
stroke:#000000; stroke-width:39.3701; stroke-opacity:1; 
stroke-linecap:round; stroke-linejoin:round;">
</g>
<g style="fill:#000000; fill-opacity:0.0; 
stroke:#000000; stroke-width:59.0551; stroke-opacity:1; 
stroke-linecap:round; stroke-linejoin:round;">
<path d="M112757 53332
L112733 53356
L112660 53381
L112611 53381
L112538 53356
L112489 53308
L112465 53259
L112440 53161
L112440 53088
L112465 52991
L112489 52942
L112538 52893
L112611 52869
L112660 52869
L112733 52893
L112757 52918
" />
</g>
<g style="fill:#000000; fill-opacity:0.0; 
stroke:#000000; stroke-width:39.3701; stroke-opacity:1; 
stroke-linecap:round; stroke-linejoin:round;">
</g>
<g style="fill:#000000; fill-opacity:0.0; 
stroke:#000000; stroke-width:59.0551; stroke-opacity:1; 
stroke-linecap:round; stroke-linejoin:round;">
<path d="M112465 73066
L112465 72554
L112587 72554
L112660 72578
L112708 72627
L112733 72676
L112757 72773
L112757 72846
L112733 72944
L112708 72993
L112660 73041
L112587 73066
L112465 73066
" />
</g>
<g style="fill:#000000; fill-opacity:0.0; 
stroke:#000000; stroke-width:39.3701; stroke-opacity:1; 
stroke-linecap:round; stroke-linejoin:round;">
</g>
<g style="fill:#000000; fill-opacity:0.0; 
stroke:#000000; stroke-width:59.0551; stroke-opacity:1; 
stroke-linecap:round; stroke-linejoin:round;">
<path d="M78911 76293
L78911 75703
L79051 75703
L79136 75731
L79192 75787
L79220 75843
L79248 75956
L79248 76040
L79220 76153
L79192 76209
L79136 76265
L79051 76293
L78911 76293
" />
<path d="M79754 76293
L79754 75984
L79726 75928
L79670 75899
L79557 75899
L79501 75928
" />
<path d="M79754 76265
L79698 76293
L79557 76293
L79501 76265
L79473 76209
L79473 76153
L79501 76096
L79557 76068
L79698 76068
L79754 76040
" />
<path d="M79951 75899
L80176 75899
" />
<path d="M80036 75703
L80036 76209
L80064 76265
L80120 76293
L80176 76293
" />
<path d="M80598 76265
L80542 76293
L80429 76293
L80373 76265
L80345 76209
L80345 75984
L80373 75928
L80429 75899
L80542 75899
L80598 75928
L80626 75984
L80626 76040
L80345 76096
" />
<path d="M80879 76237
L80907 76265
L80879 76293
L80851 76265
L80879 76237
L80879 76293
" />
<path d="M80879 75928
L80907 75956
L80879 75984
L80851 75956
L80879 75928
L80879 75984
" />
</g>
<g style="fill:#000000; fill-opacity:0.0; 
stroke:#000000; stroke-width:39.3701; stroke-opacity:1; 
stroke-linecap:round; stroke-linejoin:round;">
</g>
<g style="fill:#000000; fill-opacity:0.0; 
stroke:#000000; stroke-width:59.0551; stroke-opacity:1; 
stroke-linecap:round; stroke-linejoin:round;">
<path d="M69685 76577
L112205 76577
" />
</g>
<g style="fill:#000000; fill-opacity:0.0; 
stroke:#000000; stroke-width:39.3701; stroke-opacity:1; 
stroke-linecap:round; stroke-linejoin:round;">
</g>
<g style="fill:#000000; fill-opacity:0.0; 
stroke:#000000; stroke-width:59.0551; stroke-opacity:1; 
stroke-linecap:round; stroke-linejoin:round;">
<path d="M70249 77395
L70249 76805
" />
<path d="M70587 77395
L70334 77058
" />
<path d="M70587 76805
L70249 77142
" />
<path d="M70840 77395
L70840 77002
" />
<path d="M70840 76805
L70812 76833
L70840 76861
L70868 76833
L70840 76805
L70840 76861
" />
<path d="M71458 77339
L71430 77367
L71346 77395
L71290 77395
L71205 77367
L71149 77311
L71121 77255
L71093 77142
L71093 77058
L71121 76946
L71149 76889
L71205 76833
L71290 76805
L71346 76805
L71430 76833
L71458 76861
" />
<path d="M71965 77395
L71965 77086
L71937 77030
L71880 77002
L71768 77002
L71712 77030
" />
<path d="M71965 77367
L71908 77395
L71768 77395
L71712 77367
L71683 77311
L71683 77255
L71712 77199
L71768 77171
L71908 77171
L71965 77142
" />
<path d="M72499 77395
L72499 76805
" />
<path d="M72499 77367
L72443 77395
L72330 77395
L72274 77367
L72246 77339
L72218 77283
L72218 77114
L72246 77058
L72274 77030
L72330 77002
L72443 77002
L72499 77030
" />
<path d="M73230 77086
L73427 77086
" />
<path d="M73511 77395
L73230 77395
L73230 76805
L73511 76805
" />
<path d="M73764 77339
L73793 77367
L73764 77395
L73736 77367
L73764 77339
L73764 77395
" />
<path d="M74046 77395
L74046 76805
L74186 76805
L74271 76833
L74327 76889
L74355 76946
L74383 77058
L74383 77142
L74355 77255
L74327 77311
L74271 77367
L74186 77395
L74046 77395
" />
<path d="M74636 77339
L74664 77367
L74636 77395
L74608 77367
L74636 77339
L74636 77395
" />
<path d="M74889 77227
L75171 77227
" />
<path d="M74833 77395
L75030 76805
L75227 77395
" />
<path d="M75424 77339
L75452 77367
L75424 77395
L75395 77367
L75424 77339
L75424 77395
" />
<path d="M76605 77395
L76605 76805
" />
<path d="M76661 77171
L76830 77395
" />
<path d="M76830 77002
L76605 77227
" />
<path d="M77083 77395
L77083 77002
" />
<path d="M77083 76805
L77055 76833
L77083 76861
L77111 76833
L77083 76805
L77083 76861
" />
<path d="M77617 77367
L77561 77395
L77448 77395
L77392 77367
L77364 77339
L77336 77283
L77336 77114
L77364 77058
L77392 77030
L77448 77002
L77561 77002
L77617 77030
" />
<path d="M78123 77395
L78123 77086
L78095 77030
L78039 77002
L77926 77002
L77870 77030
" />
<path d="M78123 77367
L78067 77395
L77926 77395
L77870 77367
L77842 77311
L77842 77255
L77870 77199
L77926 77171
L78067 77171
L78123 77142
" />
<path d="M78658 77395
L78658 76805
" />
<path d="M78658 77367
L78601 77395
L78489 77395
L78433 77367
L78404 77339
L78376 77283
L78376 77114
L78404 77058
L78433 77030
L78489 77002
L78601 77002
L78658 77030
" />
<path d="M79670 76805
L79389 76805
L79361 77086
L79389 77058
L79445 77030
L79586 77030
L79642 77058
L79670 77086
L79698 77142
L79698 77283
L79670 77339
L79642 77367
L79586 77395
L79445 77395
L79389 77367
L79361 77339
" />
<path d="M79951 77339
L79979 77367
L79951 77395
L79923 77367
L79951 77339
L79951 77395
" />
<path d="M80345 76805
L80401 76805
L80457 76833
L80485 76861
L80514 76917
L80542 77030
L80542 77171
L80514 77283
L80485 77339
L80457 77367
L80401 77395
L80345 77395
L80289 77367
L80260 77339
L80232 77283
L80204 77171
L80204 77030
L80232 76917
L80260 76861
L80289 76833
L80345 76805
" />
<path d="M80795 77339
L80823 77367
L80795 77395
L80767 77367
L80795 77339
L80795 77395
" />
<path d="M81048 76861
L81076 76833
L81132 76805
L81273 76805
L81329 76833
L81357 76861
L81385 76917
L81385 76974
L81357 77058
L81020 77395
L81385 77395
" />
<path d="M81638 77171
L82088 77171
" />
<path d="M82370 77395
L82370 76805
" />
<path d="M82370 77030
L82426 77002
L82538 77002
L82595 77030
L82623 77058
L82651 77114
L82651 77283
L82623 77339
L82595 77367
L82538 77395
L82426 77395
L82370 77367
" />
<path d="M83129 77367
L83073 77395
L82960 77395
L82904 77367
L82876 77311
L82876 77086
L82904 77030
L82960 77002
L83073 77002
L83129 77030
L83157 77086
L83157 77142
L82876 77199
" />
<path d="M83635 77367
L83579 77395
L83466 77395
L83410 77367
L83382 77311
L83382 77086
L83410 77030
L83466 77002
L83579 77002
L83635 77030
L83663 77086
L83663 77142
L83382 77199
" />
<path d="M83860 76805
L84254 76805
L84001 77395
" />
<path d="M84732 76805
L84619 76805
L84563 76833
L84535 76861
L84479 76946
L84451 77058
L84451 77283
L84479 77339
L84507 77367
L84563 77395
L84676 77395
L84732 77367
L84760 77339
L84788 77283
L84788 77142
L84760 77086
L84732 77058
L84676 77030
L84563 77030
L84507 77058
L84479 77086
L84451 77142
" />
<path d="M85294 77395
L85294 77086
L85266 77030
L85210 77002
L85097 77002
L85041 77030
" />
<path d="M85294 77367
L85238 77395
L85097 77395
L85041 77367
L85013 77311
L85013 77255
L85041 77199
L85097 77171
L85238 77171
L85294 77142
" />
<path d="M85688 76805
L85744 76805
L85800 76833
L85829 76861
L85857 76917
L85885 77030
L85885 77171
L85857 77283
L85829 77339
L85800 77367
L85744 77395
L85688 77395
L85632 77367
L85604 77339
L85575 77283
L85547 77171
L85547 77030
L85575 76917
L85604 76861
L85632 76833
L85688 76805
" />
<path d="M85997 76644
L86560 76644
" />
<path d="M86082 76805
L86475 76805
L86222 77395
" />
<path d="M86560 76644
L87122 76644
" />
<path d="M86813 76805
L86869 76805
L86925 76833
L86953 76861
L86982 76917
L87010 77030
L87010 77171
L86982 77283
L86953 77339
L86925 77367
L86869 77395
L86813 77395
L86757 77367
L86728 77339
L86700 77283
L86672 77171
L86672 77030
L86700 76917
L86728 76861
L86757 76833
L86813 76805
" />
<path d="M87516 77002
L87516 77395
" />
<path d="M87263 77002
L87263 77311
L87291 77367
L87347 77395
L87431 77395
L87488 77367
L87516 77339
" />
<path d="M87797 77395
L87797 76805
" />
<path d="M87797 77030
L87853 77002
L87966 77002
L88022 77030
L88050 77058
L88078 77114
L88078 77283
L88050 77339
L88022 77367
L87966 77395
L87853 77395
L87797 77367
" />
<path d="M88584 77002
L88584 77395
" />
<path d="M88331 77002
L88331 77311
L88359 77367
L88416 77395
L88500 77395
L88556 77367
L88584 77339
" />
<path d="M88866 77002
L88866 77395
" />
<path d="M88866 77058
L88894 77030
L88950 77002
L89034 77002
L89091 77030
L89119 77086
L89119 77395
" />
<path d="M89316 77002
L89541 77002
" />
<path d="M89400 76805
L89400 77311
L89428 77367
L89484 77395
L89541 77395
" />
<path d="M89991 77002
L89991 77395
" />
<path d="M89737 77002
L89737 77311
L89766 77367
L89822 77395
L89906 77395
L89962 77367
L89991 77339
" />
<path d="M90581 77395
L90244 77395
" />
<path d="M90412 77395
L90412 76805
L90356 76889
L90300 76946
L90244 76974
" />
<path d="M90919 77058
L90862 77030
L90834 77002
L90806 76946
L90806 76917
L90834 76861
L90862 76833
L90919 76805
L91031 76805
L91087 76833
L91115 76861
L91144 76917
L91144 76946
L91115 77002
L91087 77030
L91031 77058
L90919 77058
L90862 77086
L90834 77114
L90806 77171
L90806 77283
L90834 77339
L90862 77367
L90919 77395
L91031 77395
L91087 77367
L91115 77339
L91144 77283
L91144 77171
L91115 77114
L91087 77086
L91031 77058
" />
<path d="M91397 77339
L91425 77367
L91397 77395
L91368 77367
L91397 77339
L91397 77395
" />
<path d="M91790 76805
L91847 76805
L91903 76833
L91931 76861
L91959 76917
L91987 77030
L91987 77171
L91959 77283
L91931 77339
L91903 77367
L91847 77395
L91790 77395
L91734 77367
L91706 77339
L91678 77283
L91650 77171
L91650 77030
L91678 76917
L91706 76861
L91734 76833
L91790 76805
" />
<path d="M92493 77002
L92493 77395
" />
<path d="M92353 76777
L92212 77199
L92578 77199
" />
<path d="M92803 77339
L92831 77367
L92803 77395
L92775 77367
L92803 77339
L92803 77395
" />
<path d="M93393 77395
L93056 77395
" />
<path d="M93224 77395
L93224 76805
L93168 76889
L93112 76946
L93056 76974
" />
</g>
<g style="fill:#000000; fill-opacity:0.0; 
stroke:#000000; stroke-width:39.3701; stroke-opacity:1; 
stroke-linecap:round; stroke-linejoin:round;">
</g>
<g style="fill:#000000; fill-opacity:0.0; 
stroke:#000000; stroke-width:59.0551; stroke-opacity:1; 
stroke-linecap:round; stroke-linejoin:round;">
<path d="M69685 75396
L112205 75396
" />
</g>
<g style="fill:#000000; fill-opacity:0.0; 
stroke:#000000; stroke-width:39.3701; stroke-opacity:1; 
stroke-linecap:round; stroke-linejoin:round;">
</g>
<g style="fill:#000000; fill-opacity:0.0; 
stroke:#000000; stroke-width:118.11; stroke-opacity:1; 
stroke-linecap:round; stroke-linejoin:round;">
<path d="M104099 76293
L103902 76012
" />
<path d="M103761 76293
L103761 75703
L103986 75703
L104042 75731
L104070 75759
L104099 75815
L104099 75899
L104070 75956
L104042 75984
L103986 76012
L103761 76012
" />
<path d="M104577 76265
L104520 76293
L104408 76293
L104352 76265
L104323 76209
L104323 75984
L104352 75928
L104408 75899
L104520 75899
L104577 75928
L104605 75984
L104605 76040
L104323 76096
" />
<path d="M104802 75899
L104942 76293
L105083 75899
" />
<path d="M105308 76237
L105336 76265
L105308 76293
L105280 76265
L105308 76237
L105308 76293
" />
<path d="M105308 75928
L105336 75956
L105308 75984
L105280 75956
L105308 75928
L105308 75984
" />
</g>
<g style="fill:#000000; fill-opacity:0.0; 
stroke:#000000; stroke-width:39.3701; stroke-opacity:1; 
stroke-linecap:round; stroke-linejoin:round;">
</g>
<g style="fill:#000000; fill-opacity:0.0; 
stroke:#000000; stroke-width:59.0551; stroke-opacity:1; 
stroke-linecap:round; stroke-linejoin:round;">
<path d="M70221 76265
L70305 76293
L70446 76293
L70502 76265
L70530 76237
L70559 76181
L70559 76124
L70530 76068
L70502 76040
L70446 76012
L70334 75984
L70277 75956
L70249 75928
L70221 75871
L70221 75815
L70249 75759
L70277 75731
L70334 75703
L70474 75703
L70559 75731
" />
<path d="M70812 76293
L70812 75899
" />
<path d="M70812 75703
L70784 75731
L70812 75759
L70840 75731
L70812 75703
L70812 75759
" />
<path d="M71037 75899
L71346 75899
L71037 76293
L71346 76293
" />
<path d="M71796 76265
L71740 76293
L71627 76293
L71571 76265
L71543 76209
L71543 75984
L71571 75928
L71627 75899
L71740 75899
L71796 75928
L71824 75984
L71824 76040
L71543 76096
" />
<path d="M72077 76237
L72105 76265
L72077 76293
L72049 76265
L72077 76237
L72077 76293
" />
<path d="M72077 75928
L72105 75956
L72077 75984
L72049 75956
L72077 75928
L72077 75984
" />
<path d="M72780 76124
L73061 76124
" />
<path d="M72724 76293
L72921 75703
L73118 76293
" />
<path d="M73568 75899
L73568 76293
" />
<path d="M73427 75674
L73286 76096
L73652 76096
" />
</g>
<g style="fill:#000000; fill-opacity:0.0; 
stroke:#000000; stroke-width:39.3701; stroke-opacity:1; 
stroke-linecap:round; stroke-linejoin:round;">
</g>
<g style="fill:#000000; fill-opacity:0.0; 
stroke:#000000; stroke-width:59.0551; stroke-opacity:1; 
stroke-linecap:round; stroke-linejoin:round;">
<path d="M103714 77395
L103714 76805
" />
<path d="M104248 77395
L104248 76805
" />
<path d="M104248 77367
L104192 77395
L104079 77395
L104023 77367
L103995 77339
L103967 77283
L103967 77114
L103995 77058
L104023 77030
L104079 77002
L104192 77002
L104248 77030
" />
<path d="M104529 77339
L104557 77367
L104529 77395
L104501 77367
L104529 77339
L104529 77395
" />
<path d="M104529 77030
L104557 77058
L104529 77086
L104501 77058
L104529 77030
L104529 77086
" />
<path d="M105570 77395
L105232 77395
" />
<path d="M105401 77395
L105401 76805
L105345 76889
L105289 76946
L105232 76974
" />
<path d="M106245 76777
L105739 77536
" />
<path d="M106751 77395
L106413 77395
" />
<path d="M106582 77395
L106582 76805
L106526 76889
L106470 76946
L106413 76974
" />
</g>
<g style="fill:#000000; fill-opacity:0.0; 
stroke:#000000; stroke-width:39.3701; stroke-opacity:1; 
stroke-linecap:round; stroke-linejoin:round;">
</g>
<g style="fill:#000000; fill-opacity:0.0; 
stroke:#000000; stroke-width:59.0551; stroke-opacity:1; 
stroke-linecap:round; stroke-linejoin:round;">
<path d="M69685 73821
L112205 73821
" />
</g>
<g style="fill:#000000; fill-opacity:0.0; 
stroke:#000000; stroke-width:39.3701; stroke-opacity:1; 
stroke-linecap:round; stroke-linejoin:round;">
</g>
<g style="fill:#000000; fill-opacity:0.0; 
stroke:#000000; stroke-width:157.48; stroke-opacity:1; 
stroke-linecap:round; stroke-linejoin:round;">
<path d="M70360 74099
L70810 74099
" />
<path d="M70486 74886
L70585 74099
" />
<path d="M70974 74886
L71039 74361
" />
<path d="M71072 74099
L71030 74136
L71063 74174
L71105 74136
L71072 74099
L71063 74174
" />
<path d="M71302 74361
L71602 74361
" />
<path d="M71447 74099
L71363 74774
L71391 74849
L71461 74886
L71536 74886
" />
<path d="M71911 74886
L71841 74849
L71813 74774
L71897 74099
" />
<path d="M72516 74849
L72436 74886
L72286 74886
L72216 74849
L72187 74774
L72225 74474
L72272 74399
L72352 74361
L72501 74361
L72572 74399
L72600 74474
L72591 74549
L72206 74624
" />
<path d="M72895 74811
L72928 74849
L72886 74886
L72853 74849
L72895 74811
L72886 74886
" />
<path d="M72947 74399
L72980 74436
L72937 74474
L72905 74436
L72947 74399
L72937 74474
" />
</g>
<g style="fill:#000000; fill-opacity:0.0; 
stroke:#000000; stroke-width:39.3701; stroke-opacity:1; 
stroke-linecap:round; stroke-linejoin:round;">
</g>
<g style="fill:#000000; fill-opacity:0.0; 
stroke:#000000; stroke-width:59.0551; stroke-opacity:1; 
stroke-linecap:round; stroke-linejoin:round;">
<path d="M70446 73070
L70249 73070
" />
<path d="M70249 73380
L70249 72789
L70530 72789
" />
<path d="M70755 73380
L70755 72986
" />
<path d="M70755 72789
L70727 72817
L70755 72845
L70784 72817
L70755 72789
L70755 72845
" />
<path d="M71121 73380
L71065 73352
L71037 73295
L71037 72789
" />
<path d="M71571 73352
L71515 73380
L71402 73380
L71346 73352
L71318 73295
L71318 73070
L71346 73014
L71402 72986
L71515 72986
L71571 73014
L71599 73070
L71599 73127
L71318 73183
" />
<path d="M71852 73323
L71880 73352
L71852 73380
L71824 73352
L71852 73323
L71852 73380
" />
<path d="M71852 73014
L71880 73042
L71852 73070
L71824 73042
L71852 73014
L71852 73070
" />
<path d="M72893 72817
L72836 72789
L72752 72789
L72668 72817
L72611 72874
L72583 72930
L72555 73042
L72555 73127
L72583 73239
L72611 73295
L72668 73352
L72752 73380
L72808 73380
L72893 73352
L72921 73323
L72921 73127
L72808 73127
" />
<path d="M73427 73380
L73427 73070
L73399 73014
L73343 72986
L73230 72986
L73174 73014
" />
<path d="M73427 73352
L73371 73380
L73230 73380
L73174 73352
L73146 73295
L73146 73239
L73174 73183
L73230 73155
L73371 73155
L73427 73127
" />
<path d="M73961 72986
L73961 73380
" />
<path d="M73708 72986
L73708 73295
L73736 73352
L73793 73380
L73877 73380
L73933 73352
L73961 73323
" />
<path d="M74496 73380
L74496 72789
" />
<path d="M74496 73352
L74439 73380
L74327 73380
L74271 73352
L74242 73323
L74214 73267
L74214 73099
L74242 73042
L74271 73014
L74327 72986
L74439 72986
L74496 73014
" />
<path d="M74777 73380
L74777 72986
" />
<path d="M74777 72789
L74749 72817
L74777 72845
L74805 72817
L74777 72789
L74777 72845
" />
<path d="M75058 73380
L75058 72789
L75283 72789
L75339 72817
L75367 72845
L75395 72902
L75395 72986
L75367 73042
L75339 73070
L75283 73099
L75058 73099
" />
<path d="M75986 73323
L75958 73352
L75874 73380
L75817 73380
L75733 73352
L75677 73295
L75649 73239
L75620 73127
L75620 73042
L75649 72930
L75677 72874
L75733 72817
L75817 72789
L75874 72789
L75958 72817
L75986 72845
" />
<path d="M76577 73380
L76380 73099
" />
<path d="M76239 73380
L76239 72789
L76464 72789
L76520 72817
L76548 72845
L76577 72902
L76577 72986
L76548 73042
L76520 73070
L76464 73099
L76239 73099
" />
<path d="M76830 73323
L76858 73352
L76830 73380
L76802 73352
L76830 73323
L76830 73380
" />
<path d="M77111 73380
L77111 72789
" />
<path d="M77167 73155
L77336 73380
" />
<path d="M77336 72986
L77111 73211
" />
<path d="M77589 73380
L77589 72986
" />
<path d="M77589 72789
L77561 72817
L77589 72845
L77617 72817
L77589 72789
L77589 72845
" />
<path d="M78123 73352
L78067 73380
L77955 73380
L77898 73352
L77870 73323
L77842 73267
L77842 73099
L77870 73042
L77898 73014
L77955 72986
L78067 72986
L78123 73014
" />
<path d="M78629 73380
L78629 73070
L78601 73014
L78545 72986
L78433 72986
L78376 73014
" />
<path d="M78629 73352
L78573 73380
L78433 73380
L78376 73352
L78348 73295
L78348 73239
L78376 73183
L78433 73155
L78573 73155
L78629 73127
" />
<path d="M79164 73380
L79164 72789
" />
<path d="M79164 73352
L79108 73380
L78995 73380
L78939 73352
L78911 73323
L78883 73267
L78883 73099
L78911 73042
L78939 73014
L78995 72986
L79108 72986
L79164 73014
" />
<path d="M79304 73436
L79754 73436
" />
<path d="M79895 72986
L79895 73577
" />
<path d="M79895 73014
L79951 72986
L80064 72986
L80120 73014
L80148 73042
L80176 73099
L80176 73267
L80148 73323
L80120 73352
L80064 73380
L79951 73380
L79895 73352
" />
<path d="M80682 73352
L80626 73380
L80514 73380
L80457 73352
L80429 73323
L80401 73267
L80401 73099
L80429 73042
L80457 73014
L80514 72986
L80626 72986
L80682 73014
" />
<path d="M80935 73380
L80935 72789
" />
<path d="M80935 73014
L80992 72986
L81104 72986
L81160 73014
L81188 73042
L81217 73099
L81217 73267
L81188 73323
L81160 73352
L81104 73380
L80992 73380
L80935 73352
" />
</g>
<g style="fill:#000000; fill-opacity:0.0; 
stroke:#000000; stroke-width:39.3701; stroke-opacity:1; 
stroke-linecap:round; stroke-linejoin:round;">
</g>
<g style="fill:#000000; fill-opacity:0.0; 
stroke:#000000; stroke-width:59.0551; stroke-opacity:1; 
stroke-linecap:round; stroke-linejoin:round;">
<path d="M69685 71459
L112205 71459
" />
</g>
<g style="fill:#000000; fill-opacity:0.0; 
stroke:#000000; stroke-width:39.3701; stroke-opacity:1; 
stroke-linecap:round; stroke-linejoin:round;">
</g>
<g style="fill:#000000; fill-opacity:0.0; 
stroke:#000000; stroke-width:59.0551; stroke-opacity:1; 
stroke-linecap:round; stroke-linejoin:round;">
<path d="M70221 72289
L70305 72317
L70446 72317
L70502 72289
L70530 72260
L70559 72204
L70559 72148
L70530 72092
L70502 72064
L70446 72036
L70334 72007
L70277 71979
L70249 71951
L70221 71895
L70221 71839
L70249 71782
L70277 71754
L70334 71726
L70474 71726
L70559 71754
" />
<path d="M70812 72317
L70812 71726
" />
<path d="M71065 72317
L71065 72007
L71037 71951
L70980 71923
L70896 71923
L70840 71951
L70812 71979
" />
<path d="M71571 72289
L71515 72317
L71402 72317
L71346 72289
L71318 72232
L71318 72007
L71346 71951
L71402 71923
L71515 71923
L71571 71951
L71599 72007
L71599 72064
L71318 72120
" />
<path d="M72077 72289
L72021 72317
L71908 72317
L71852 72289
L71824 72232
L71824 72007
L71852 71951
L71908 71923
L72021 71923
L72077 71951
L72105 72007
L72105 72064
L71824 72120
" />
<path d="M72274 71923
L72499 71923
" />
<path d="M72358 71726
L72358 72232
L72386 72289
L72443 72317
L72499 72317
" />
<path d="M72696 72260
L72724 72289
L72696 72317
L72668 72289
L72696 72260
L72696 72317
" />
<path d="M72696 71951
L72724 71979
L72696 72007
L72668 71979
L72696 71951
L72696 72007
" />
</g>
<g style="fill:#000000; fill-opacity:0.0; 
stroke:#000000; stroke-width:39.3701; stroke-opacity:1; 
stroke-linecap:round; stroke-linejoin:round;">
</g>
<g style="fill:#000000; fill-opacity:0.0; 
stroke:#000000; stroke-width:59.0551; stroke-opacity:1; 
stroke-linecap:round; stroke-linejoin:round;">
<path d="M77559 75396
L77559 76577
" />
</g>
<g style="fill:#000000; fill-opacity:0.0; 
stroke:#000000; stroke-width:39.3701; stroke-opacity:1; 
stroke-linecap:round; stroke-linejoin:round;">
</g>
<g style="fill:#000000; fill-opacity:0.0; 
stroke:#000000; stroke-width:59.0551; stroke-opacity:1; 
stroke-linecap:round; stroke-linejoin:round;">
<path d="M102756 75396
L102756 77955
" />
</g>
<g style="fill:#008484; fill-opacity:0.0; 
stroke:#008484; stroke-width:59.0551; stroke-opacity:1; 
stroke-linecap:round; stroke-linejoin:round;">
</g>
<g style="fill:#008484; fill-opacity:0.0; 
stroke:#008484; stroke-width:3.93701; stroke-opacity:1; 
stroke-linecap:round; stroke-linejoin:round;">
<path d="M42716 34763
L39340 39409
" />
</g>
<g style="fill:#008484; fill-opacity:0.0; 
stroke:#008484; stroke-width:59.0551; stroke-opacity:1; 
stroke-linecap:round; stroke-linejoin:round;">
<circle cx="40990" cy="41599.6" r="89.2583" /> 
<circle cx="37750.4" cy="41599.6" r="89.2583" /> 
<circle cx="36748.8" cy="38518.5" r="89.2583" /> 
<circle cx="41990.9" cy="38518.5" r="89.2583" /> 
<circle cx="39370.1" cy="36614.2" r="89.2583" /> 
</g>
<g style="fill:#000000; fill-opacity:0.0; 
stroke:#000000; stroke-width:59.0551; stroke-opacity:1; 
stroke-linecap:round; stroke-linejoin:round;">
</g>
<g style="fill:#C2C200; fill-opacity:0.0; 
stroke:#C2C200; stroke-width:59.0551; stroke-opacity:1; 
stroke-linecap:round; stroke-linejoin:round;">
</g>
<g style="fill:#C2C200; fill-opacity:0.0; 
stroke:#C2C200; stroke-width:39.3701; stroke-opacity:1; 
stroke-linecap:round; stroke-linejoin:round;">
<path d="M36703 42146
L36725 42186
" />
<path d="M36725 42186
L36748 42225
" />
<path d="M42802 37660
L42769 37629
" />
<path d="M42834 37692
L42802 37660
" />
<path d="M43165 38646
L43169 38601
" />
<path d="M43159 38691
L43165 38646
" />
<path d="M44727 39207
L44925 39212
" />
<path d="M44528 39203
L44727 39207
" />
<path d="M43164 40807
L42876 40721
" />
<path d="M43452 40893
L43164 40807
" />
<path d="M42975 37859
L43003 37883
" />
<path d="M42951 37830
L42975 37859
" />
<path d="M43537 39178
L43735 39183
" />
<path d="M43339 39174
L43537 39178
" />
<path d="M42588 40635
L42300 40549
" />
<path d="M42876 40721
L42588 40635
" />
<path d="M44807 41077
L44795 41020
" />
<path d="M44799 41134
L44807 41077
" />
<path d="M44316 41150
L44028 41064
" />
<path d="M44604 41236
L44316 41150
" />
<path d="M42258 40541
L42217 40540
" />
<path d="M42300 40549
L42258 40541
" />
<path d="M42486 39593
L42476 39596
" />
<path d="M42497 39591
L42486 39593
" />
<path d="M42448 39608
L42450 39607
" />
<path d="M42445 39609
L42448 39608
" />
<path d="M42734 37600
L42698 37572
" />
<path d="M42769 37629
L42734 37600
" />
<path d="M43934 39188
L44132 39193
" />
<path d="M43735 39183
L43934 39188
" />
<path d="M42508 39589
L42497 39591
" />
<path d="M42519 39587
L42508 39589
" />
<path d="M42040 42724
L42143 42873
" />
<path d="M41936 42574
L42040 42724
" />
<path d="M41918 42542
L41936 42574
" />
<path d="M41904 42508
L41918 42542
" />
<path d="M41897 42472
L41904 42508
" />
<path d="M41957 40860
L41961 40890
" />
<path d="M41958 40830
L41957 40860
" />
<path d="M41963 40800
L41958 40830
" />
<path d="M41972 40770
L41963 40800
" />
<path d="M41984 40742
L41972 40770
" />
<path d="M42443 39610
L42445 39609
" />
<path d="M42441 39610
L42443 39610
" />
<path d="M41471 42711
L41435 42708
" />
<path d="M41506 42719
L41471 42711
" />
<path d="M41539 42732
L41506 42719
" />
<path d="M41571 42750
L41539 42732
" />
<path d="M41599 42773
L41571 42750
" />
<path d="M41624 42801
L41599 42773
" />
<path d="M41735 42945
L41624 42801
" />
<path d="M41845 43090
L41735 42945
" />
<path d="M41955 43234
L41845 43090
" />
<path d="M42066 43379
L41955 43234
" />
<path d="M43118 42312
L42955 42199
" />
<path d="M43282 42424
L43118 42312
" />
<path d="M43445 42537
L43282 42424
" />
<path d="M43608 42650
L43445 42537
" />
<path d="M43771 42762
L43608 42650
" />
<path d="M44002 42559
L43956 42508
" />
<path d="M44020 42616
L44002 42559
" />
<path d="M44014 42674
L44020 42616
" />
<path d="M42789 43894
L42790 43834
" />
<path d="M42766 43947
L42789 43894
" />
<path d="M42725 43988
L42766 43947
" />
<path d="M42674 44014
L42725 43988
" />
<path d="M42616 44020
L42674 44014
" />
<path d="M42559 44002
L42616 44020
" />
<path d="M42508 43956
L42559 44002
" />
<path d="M42415 41835
L42362 41822
" />
<path d="M42466 41861
L42415 41835
" />
<path d="M42629 41974
L42466 41861
" />
<path d="M42792 42087
L42629 41974
" />
<path d="M42955 42199
L42792 42087
" />
<path d="M43171 38556
L43172 38510
" />
<path d="M43169 38601
L43171 38556
" />
<path d="M42167 41886
L42132 41929
" />
<path d="M42209 41854
L42167 41886
" />
<path d="M42257 41832
L42209 41854
" />
<path d="M42309 41821
L42257 41832
" />
<path d="M42362 41822
L42309 41821
" />
<path d="M43132 38824
L43142 38780
" />
<path d="M43119 38868
L43132 38824
" />
<path d="M42003 40707
L42007 40698
" />
<path d="M41998 40715
L42003 40707
" />
<path d="M41994 40724
L41998 40715
" />
<path d="M41989 40733
L41994 40724
" />
<path d="M41984 40742
L41989 40733
" />
<path d="M44992 39512
L45040 39477
" />
<path d="M44925 39527
L44992 39512
" />
<path d="M44002 36181
L44020 36123
" />
<path d="M43956 36232
L44002 36181
" />
<path d="M44761 37768
L44795 37719
" />
<path d="M44702 37803
L44761 37768
" />
<path d="M42465 39600
L42455 39604
" />
<path d="M42476 39596
L42465 39600
" />
<path d="M42452 39607
L42455 39606
" />
<path d="M42450 39607
L42452 39607
" />
<path d="M42016 40680
L42020 40671
" />
<path d="M42011 40689
L42016 40680
" />
<path d="M42007 40698
L42011 40689
" />
<path d="M42840 39578
L42542 39585
" />
<path d="M43137 39571
L42840 39578
" />
<path d="M42138 40559
L42102 40579
" />
<path d="M42176 40546
L42138 40559
" />
<path d="M42217 40540
L42176 40546
" />
<path d="M44807 37663
L44799 37606
" />
<path d="M44795 37719
L44807 37663
" />
<path d="M42854 37075
L42696 37195
" />
<path d="M43011 36955
L42854 37075
" />
<path d="M45069 39313
L45040 39263
" />
<path d="M45078 39370
L45069 39313
" />
<path d="M43284 40437
L43567 40537
" />
<path d="M43000 40338
L43284 40437
" />
<path d="M43385 37867
L43559 37815
" />
<path d="M43210 37919
L43385 37867
" />
<path d="M43152 38736
L43159 38691
" />
<path d="M43142 38780
L43152 38736
" />
<path d="M42530 39586
L42519 39587
" />
<path d="M42542 39585
L42530 39586
" />
<path d="M42438 39611
L42441 39610
" />
<path d="M42436 39612
L42438 39611
" />
<path d="M42045 41045
L42054 41053
" />
<path d="M42037 41037
L42045 41045
" />
<path d="M42030 41029
L42037 41037
" />
<path d="M42023 41021
L42030 41029
" />
<path d="M42016 41012
L42023 41021
" />
<path d="M43720 42327
L43956 42508
" />
<path d="M43483 42146
L43720 42327
" />
<path d="M43246 41965
L43483 42146
" />
<path d="M43009 41784
L43246 41965
" />
<path d="M42773 41603
L43009 41784
" />
<path d="M43740 40978
L43452 40893
" />
<path d="M44028 41064
L43740 40978
" />
<path d="M41997 40983
L41996 40981
" />
<path d="M41998 40985
L41997 40983
" />
<path d="M41999 40987
L41998 40985
" />
<path d="M42001 40989
L41999 40987
" />
<path d="M42002 40991
L42001 40989
" />
<path d="M44673 37497
L44604 37503
" />
<path d="M44729 37516
L44673 37497
" />
<path d="M43501 38226
L43330 38286
" />
<path d="M43673 38165
L43501 38226
" />
<path d="M42610 37437
L42627 37487
" />
<path d="M42603 37384
L42610 37437
" />
<path d="M43169 36834
L43011 36955
" />
<path d="M43326 36714
L43169 36834
" />
<path d="M39512 44992
L39527 44925
" />
<path d="M39477 45040
L39512 44992
" />
<path d="M39427 45069
L39477 45040
" />
<path d="M39370 45078
L39427 45069
" />
<path d="M39313 45069
L39370 45078
" />
<path d="M39263 45040
L39313 45069
" />
<path d="M39227 44992
L39263 45040
" />
<path d="M39212 44925
L39227 44992
" />
<path d="M43526 36146
L43771 35977
" />
<path d="M43281 36316
L43526 36146
" />
<path d="M43035 36485
L43281 36316
" />
<path d="M42790 36654
L43035 36485
" />
<path d="M42545 36823
L42790 36654
" />
<path d="M42300 36992
L42545 36823
" />
<path d="M42054 37162
L42300 36992
" />
<path d="M41809 37331
L42054 37162
" />
<path d="M41800 37337
L41809 37331
" />
<path d="M41790 37343
L41800 37337
" />
<path d="M41780 37348
L41790 37343
" />
<path d="M41770 37353
L41780 37348
" />
<path d="M41760 37357
L41770 37353
" />
<path d="M41749 37361
L41760 37357
" />
<path d="M41738 37364
L41749 37361
" />
<path d="M41728 37367
L41738 37364
" />
<path d="M41710 37370
L41708 37371
" />
<path d="M41713 37369
L41710 37370
" />
<path d="M41715 37369
L41713 37369
" />
<path d="M41718 37368
L41715 37369
" />
<path d="M41720 37368
L41718 37368
" />
<path d="M41723 37368
L41720 37368
" />
<path d="M41725 37367
L41723 37368
" />
<path d="M41728 37367
L41725 37367
" />
<path d="M41677 37377
L41708 37371
" />
<path d="M41647 37378
L41677 37377
" />
<path d="M41616 37376
L41647 37378
" />
<path d="M41587 37369
L41616 37376
" />
<path d="M41558 37359
L41587 37369
" />
<path d="M41531 37345
L41558 37359
" />
<path d="M41506 37328
L41531 37345
" />
<path d="M41483 37307
L41506 37328
" />
<path d="M41434 37258
L41427 37251
" />
<path d="M41441 37265
L41434 37258
" />
<path d="M41448 37272
L41441 37265
" />
<path d="M41455 37279
L41448 37272
" />
<path d="M41462 37286
L41455 37279
" />
<path d="M41469 37293
L41462 37286
" />
<path d="M41476 37300
L41469 37293
" />
<path d="M41483 37307
L41476 37300
" />
<path d="M41399 37219
L41427 37251
" />
<path d="M41378 37183
L41399 37219
" />
<path d="M41364 37145
L41378 37183
" />
<path d="M41356 37105
L41364 37145
" />
<path d="M41356 37064
L41356 37105
" />
<path d="M41362 37024
L41356 37064
" />
<path d="M41376 36985
L41362 37024
" />
<path d="M41397 36948
L41376 36985
" />
<path d="M41567 36700
L41397 36948
" />
<path d="M41738 36453
L41567 36700
" />
<path d="M41909 36205
L41738 36453
" />
<path d="M42079 35958
L41909 36205
" />
<path d="M42250 35710
L42079 35958
" />
<path d="M42421 35463
L42250 35710
" />
<path d="M42592 35216
L42421 35463
" />
<path d="M42762 34968
L42592 35216
" />
<path d="M42559 34737
L42508 34783
" />
<path d="M42616 34720
L42559 34737
" />
<path d="M42673 34726
L42616 34720
" />
<path d="M42725 34751
L42673 34726
" />
<path d="M42766 34793
L42725 34751
" />
<path d="M42789 34845
L42766 34793
" />
<path d="M42790 34905
L42789 34845
" />
<path d="M42762 34968
L42790 34905
" />
<path d="M42325 35022
L42508 34783
" />
<path d="M42142 35261
L42325 35022
" />
<path d="M41960 35500
L42142 35261
" />
<path d="M41777 35738
L41960 35500
" />
<path d="M41595 35977
L41777 35738
" />
<path d="M41412 36216
L41595 35977
" />
<path d="M41230 36455
L41412 36216
" />
<path d="M41047 36693
L41230 36455
" />
<path d="M41018 36725
L41047 36693
" />
<path d="M40985 36750
L41018 36725
" />
<path d="M40949 36768
L40985 36750
" />
<path d="M40910 36781
L40949 36768
" />
<path d="M40870 36786
L40910 36781
" />
<path d="M40829 36784
L40870 36786
" />
<path d="M40788 36775
L40829 36784
" />
<path d="M40749 36759
L40788 36775
" />
<path d="M40687 36727
L40679 36723
" />
<path d="M40696 36732
L40687 36727
" />
<path d="M40705 36736
L40696 36732
" />
<path d="M40714 36741
L40705 36736
" />
<path d="M40723 36745
L40714 36741
" />
<path d="M40731 36750
L40723 36745
" />
<path d="M40740 36754
L40731 36750
" />
<path d="M40749 36759
L40740 36754
" />
<path d="M40652 36707
L40679 36723
" />
<path d="M40627 36689
L40652 36707
" />
<path d="M40606 36667
L40627 36689
" />
<path d="M40587 36643
L40606 36667
" />
<path d="M40572 36617
L40587 36643
" />
<path d="M40560 36589
L40572 36617
" />
<path d="M40552 36559
L40560 36589
" />
<path d="M40548 36528
L40552 36559
" />
<path d="M40546 36511
L40546 36508
" />
<path d="M40547 36513
L40546 36511
" />
<path d="M40547 36516
L40547 36513
" />
<path d="M40547 36518
L40547 36516
" />
<path d="M40547 36521
L40547 36518
" />
<path d="M40547 36523
L40547 36521
" />
<path d="M40548 36526
L40547 36523
" />
<path d="M40548 36528
L40548 36526
" />
<path d="M40545 36497
L40546 36508
" />
<path d="M40545 36486
L40545 36497
" />
<path d="M40545 36475
L40545 36486
" />
<path d="M40546 36464
L40545 36475
" />
<path d="M40548 36453
L40546 36464
" />
<path d="M40550 36442
L40548 36453
" />
<path d="M40552 36431
L40550 36442
" />
<path d="M40555 36420
L40552 36431
" />
<path d="M40640 36134
L40555 36420
" />
<path d="M40725 35849
L40640 36134
" />
<path d="M40810 35563
L40725 35849
" />
<path d="M40896 35278
L40810 35563
" />
<path d="M40981 34992
L40896 35278
" />
<path d="M41066 34706
L40981 34992
" />
<path d="M41151 34421
L41066 34706
" />
<path d="M41236 34135
L41151 34421
" />
<path d="M40971 33979
L40937 34038
" />
<path d="M41020 33944
L40971 33979
" />
<path d="M41077 33932
L41020 33944
" />
<path d="M41134 33941
L41077 33932
" />
<path d="M41185 33967
L41134 33941
" />
<path d="M41224 34010
L41185 33967
" />
<path d="M41243 34067
L41224 34010
" />
<path d="M41236 34135
L41243 34067
" />
<path d="M40871 34225
L40937 34038
" />
<path d="M40805 34412
L40871 34225
" />
<path d="M40739 34599
L40805 34412
" />
<path d="M40673 34786
L40739 34599
" />
<path d="M40607 34973
L40673 34786
" />
<path d="M40541 35160
L40607 34973
" />
<path d="M40476 35347
L40541 35160
" />
<path d="M40410 35534
L40476 35347
" />
<path d="M40385 35585
L40410 35534
" />
<path d="M40350 35627
L40385 35585
" />
<path d="M40307 35659
L40350 35627
" />
<path d="M40259 35681
L40307 35659
" />
<path d="M40207 35691
L40259 35681
" />
<path d="M40153 35690
L40207 35691
" />
<path d="M40101 35676
L40153 35690
" />
<path d="M40051 35649
L40101 35676
" />
<path d="M39770 35503
L39727 35488
" />
<path d="M39813 35519
L39770 35503
" />
<path d="M39854 35537
L39813 35519
" />
<path d="M39895 35556
L39854 35537
" />
<path d="M39935 35577
L39895 35556
" />
<path d="M39975 35599
L39935 35577
" />
<path d="M40013 35623
L39975 35599
" />
<path d="M40051 35649
L40013 35623
" />
<path d="M39693 35474
L39727 35488
" />
<path d="M39661 35455
L39693 35474
" />
<path d="M39634 35432
L39661 35455
" />
<path d="M39610 35405
L39634 35432
" />
<path d="M39591 35374
L39610 35405
" />
<path d="M39576 35341
L39591 35374
" />
<path d="M39567 35306
L39576 35341
" />
<path d="M39563 35269
L39567 35306
" />
<path d="M39558 35087
L39563 35269
" />
<path d="M39554 34905
L39558 35087
" />
<path d="M39549 34724
L39554 34905
" />
<path d="M39545 34542
L39549 34724
" />
<path d="M39541 34360
L39545 34542
" />
<path d="M39536 34178
L39541 34360
" />
<path d="M39532 33996
L39536 34178
" />
<path d="M39527 33815
L39532 33996
" />
<path d="M39227 33748
L39212 33815
" />
<path d="M39263 33700
L39227 33748
" />
<path d="M39313 33671
L39263 33700
" />
<path d="M39370 33661
L39313 33671
" />
<path d="M39427 33671
L39370 33661
" />
<path d="M39477 33700
L39427 33671
" />
<path d="M39512 33748
L39477 33700
" />
<path d="M39527 33815
L39512 33748
" />
<path d="M39208 33996
L39212 33815
" />
<path d="M39203 34178
L39208 33996
" />
<path d="M39199 34360
L39203 34178
" />
<path d="M39195 34542
L39199 34360
" />
<path d="M39190 34724
L39195 34542
" />
<path d="M39186 34905
L39190 34724
" />
<path d="M39181 35087
L39186 34905
" />
<path d="M39177 35269
L39181 35087
" />
<path d="M39173 35306
L39177 35269
" />
<path d="M39164 35341
L39173 35306
" />
<path d="M39149 35374
L39164 35341
" />
<path d="M39130 35405
L39149 35374
" />
<path d="M39106 35432
L39130 35405
" />
<path d="M39078 35455
L39106 35432
" />
<path d="M39047 35474
L39078 35455
" />
<path d="M39012 35488
L39047 35474
" />
<path d="M38726 35623
L38689 35649
" />
<path d="M38765 35599
L38726 35623
" />
<path d="M38804 35577
L38765 35599
" />
<path d="M38844 35556
L38804 35577
" />
<path d="M38885 35537
L38844 35556
" />
<path d="M38927 35519
L38885 35537
" />
<path d="M38969 35503
L38927 35519
" />
<path d="M39012 35488
L38969 35503
" />
<path d="M38639 35676
L38689 35649
" />
<path d="M38586 35690
L38639 35676
" />
<path d="M38533 35691
L38586 35690
" />
<path d="M38481 35681
L38533 35691
" />
<path d="M38433 35659
L38481 35681
" />
<path d="M38390 35627
L38433 35659
" />
<path d="M38355 35585
L38390 35627
" />
<path d="M38330 35534
L38355 35585
" />
<path d="M38264 35347
L38330 35534
" />
<path d="M38198 35160
L38264 35347
" />
<path d="M38132 34973
L38198 35160
" />
<path d="M38066 34786
L38132 34973
" />
<path d="M38000 34599
L38066 34786
" />
<path d="M37935 34412
L38000 34599
" />
<path d="M37869 34225
L37935 34412
" />
<path d="M37803 34038
L37869 34225
" />
<path d="M37497 34067
L37503 34135
" />
<path d="M37516 34010
L37497 34067
" />
<path d="M37555 33967
L37516 34010
" />
<path d="M37606 33941
L37555 33967
" />
<path d="M37663 33932
L37606 33941
" />
<path d="M37719 33944
L37663 33932
" />
<path d="M37768 33979
L37719 33944
" />
<path d="M37803 34038
L37768 33979
" />
<path d="M37589 34421
L37503 34135
" />
<path d="M37674 34706
L37589 34421
" />
<path d="M37759 34992
L37674 34706
" />
<path d="M37844 35278
L37759 34992
" />
<path d="M37929 35563
L37844 35278
" />
<path d="M38014 35849
L37929 35563
" />
<path d="M38099 36134
L38014 35849
" />
<path d="M38184 36420
L38099 36134
" />
<path d="M38187 36431
L38184 36420
" />
<path d="M38190 36442
L38187 36431
" />
<path d="M38192 36453
L38190 36442
" />
<path d="M38193 36464
L38192 36453
" />
<path d="M38194 36475
L38193 36464
" />
<path d="M38194 36486
L38194 36475
" />
<path d="M38194 36497
L38194 36486
" />
<path d="M38193 36508
L38194 36497
" />
<path d="M38192 36526
L38192 36528
" />
<path d="M38192 36523
L38192 36526
" />
<path d="M38192 36521
L38192 36523
" />
<path d="M38193 36518
L38192 36521
" />
<path d="M38193 36516
L38193 36518
" />
<path d="M38193 36513
L38193 36516
" />
<path d="M38193 36511
L38193 36513
" />
<path d="M38193 36508
L38193 36511
" />
<path d="M38187 36559
L38192 36528
" />
<path d="M38179 36589
L38187 36559
" />
<path d="M38167 36617
L38179 36589
" />
<path d="M38152 36643
L38167 36617
" />
<path d="M38134 36667
L38152 36643
" />
<path d="M38112 36689
L38134 36667
" />
<path d="M38088 36707
L38112 36689
" />
<path d="M38061 36723
L38088 36707
" />
<path d="M37999 36754
L37991 36759
" />
<path d="M38008 36750
L37999 36754
" />
<path d="M38017 36745
L38008 36750
" />
<path d="M38026 36741
L38017 36745
" />
<path d="M38034 36736
L38026 36741
" />
<path d="M38043 36732
L38034 36736
" />
<path d="M38052 36727
L38043 36732
" />
<path d="M38061 36723
L38052 36727
" />
<path d="M37951 36775
L37991 36759
" />
<path d="M37911 36784
L37951 36775
" />
<path d="M37870 36786
L37911 36784
" />
<path d="M37830 36781
L37870 36786
" />
<path d="M37791 36769
L37830 36781
" />
<path d="M37754 36750
L37791 36769
" />
<path d="M37721 36725
L37754 36750
" />
<path d="M37693 36693
L37721 36725
" />
<path d="M37510 36455
L37693 36693
" />
<path d="M37327 36216
L37510 36455
" />
<path d="M37145 35977
L37327 36216
" />
<path d="M36962 35738
L37145 35977
" />
<path d="M36780 35500
L36962 35738
" />
<path d="M36597 35261
L36780 35500
" />
<path d="M36415 35022
L36597 35261
" />
<path d="M36232 34783
L36415 35022
" />
<path d="M35950 34905
L35977 34968
" />
<path d="M35950 34845
L35950 34905
" />
<path d="M35974 34793
L35950 34845
" />
<path d="M36014 34751
L35974 34793
" />
<path d="M36066 34726
L36014 34751
" />
<path d="M36123 34720
L36066 34726
" />
<path d="M36180 34737
L36123 34720
" />
<path d="M36232 34783
L36180 34737
" />
<path d="M36148 35216
L35977 34968
" />
<path d="M36319 35463
L36148 35216
" />
<path d="M36489 35710
L36319 35463
" />
<path d="M36660 35958
L36489 35710
" />
<path d="M36831 36205
L36660 35958
" />
<path d="M37001 36453
L36831 36205
" />
<path d="M37172 36700
L37001 36453
" />
<path d="M37343 36948
L37172 36700
" />
<path d="M37364 36985
L37343 36948
" />
<path d="M37377 37024
L37364 36985
" />
<path d="M37384 37064
L37377 37024
" />
<path d="M37383 37105
L37384 37064
" />
<path d="M37376 37145
L37383 37105
" />
<path d="M37362 37183
L37376 37145
" />
<path d="M37341 37219
L37362 37183
" />
<path d="M37313 37251
L37341 37219
" />
<path d="M37264 37300
L37257 37307
" />
<path d="M37271 37293
L37264 37300
" />
<path d="M37278 37286
L37271 37293
" />
<path d="M37285 37279
L37278 37286
" />
<path d="M37292 37272
L37285 37279
" />
<path d="M37299 37265
L37292 37272
" />
<path d="M37306 37258
L37299 37265
" />
<path d="M37313 37251
L37306 37258
" />
<path d="M37234 37328
L37257 37307
" />
<path d="M37208 37345
L37234 37328
" />
<path d="M37181 37359
L37208 37345
" />
<path d="M37153 37369
L37181 37359
" />
<path d="M37123 37376
L37153 37369
" />
<path d="M37093 37378
L37123 37376
" />
<path d="M37062 37377
L37093 37378
" />
<path d="M37031 37371
L37062 37377
" />
<path d="M37014 37368
L37012 37367
" />
<path d="M37017 37368
L37014 37368
" />
<path d="M37019 37369
L37017 37368
" />
<path d="M37022 37369
L37019 37369
" />
<path d="M37024 37369
L37022 37369
" />
<path d="M37027 37370
L37024 37369
" />
<path d="M37029 37371
L37027 37370
" />
<path d="M37031 37371
L37029 37371
" />
<path d="M37001 37364
L37012 37367
" />
<path d="M36990 37361
L37001 37364
" />
<path d="M36980 37357
L36990 37361
" />
<path d="M36969 37353
L36980 37357
" />
<path d="M36959 37348
L36969 37353
" />
<path d="M36949 37343
L36959 37348
" />
<path d="M36940 37337
L36949 37343
" />
<path d="M36930 37331
L36940 37337
" />
<path d="M36685 37162
L36930 37331
" />
<path d="M36440 36992
L36685 37162
" />
<path d="M36195 36823
L36440 36992
" />
<path d="M35949 36654
L36195 36823
" />
<path d="M35704 36485
L35949 36654
" />
<path d="M35459 36316
L35704 36485
" />
<path d="M35213 36146
L35459 36316
" />
<path d="M34968 35977
L35213 36146
" />
<path d="M34737 36181
L34783 36232
" />
<path d="M34720 36123
L34737 36181
" />
<path d="M34726 36066
L34720 36123
" />
<path d="M34751 36014
L34726 36066
" />
<path d="M34793 35974
L34751 36014
" />
<path d="M34845 35950
L34793 35974
" />
<path d="M34905 35950
L34845 35950
" />
<path d="M34968 35977
L34905 35950
" />
<path d="M34941 36352
L34783 36232
" />
<path d="M35098 36473
L34941 36352
" />
<path d="M35256 36593
L35098 36473
" />
<path d="M35413 36714
L35256 36593
" />
<path d="M35571 36834
L35413 36714
" />
<path d="M35728 36955
L35571 36834
" />
<path d="M35886 37075
L35728 36955
" />
<path d="M36043 37195
L35886 37075
" />
<path d="M36084 37235
L36043 37195
" />
<path d="M36113 37281
L36084 37235
" />
<path d="M36130 37332
L36113 37281
" />
<path d="M36136 37384
L36130 37332
" />
<path d="M36130 37437
L36136 37384
" />
<path d="M36112 37487
L36130 37437
" />
<path d="M36083 37533
L36112 37487
" />
<path d="M36041 37572
L36083 37533
" />
<path d="M35816 37794
L35789 37830
" />
<path d="M35844 37759
L35816 37794
" />
<path d="M35874 37724
L35844 37759
" />
<path d="M35905 37692
L35874 37724
" />
<path d="M35937 37660
L35905 37692
" />
<path d="M35971 37629
L35937 37660
" />
<path d="M36006 37600
L35971 37629
" />
<path d="M36041 37572
L36006 37600
" />
<path d="M35765 37859
L35789 37830
" />
<path d="M35737 37883
L35765 37859
" />
<path d="M35706 37902
L35737 37883
" />
<path d="M35673 37916
L35706 37902
" />
<path d="M35638 37925
L35673 37916
" />
<path d="M35602 37929
L35638 37925
" />
<path d="M35566 37927
L35602 37929
" />
<path d="M35529 37919
L35566 37927
" />
<path d="M35355 37867
L35529 37919
" />
<path d="M35181 37815
L35355 37867
" />
<path d="M35006 37763
L35181 37815
" />
<path d="M34832 37711
L35006 37763
" />
<path d="M34658 37659
L34832 37711
" />
<path d="M34484 37607
L34658 37659
" />
<path d="M34309 37555
L34484 37607
" />
<path d="M34135 37503
L34309 37555
" />
<path d="M33979 37768
L34038 37803
" />
<path d="M33944 37719
L33979 37768
" />
<path d="M33932 37663
L33944 37719
" />
<path d="M33941 37606
L33932 37663
" />
<path d="M33967 37555
L33941 37606
" />
<path d="M34010 37516
L33967 37555
" />
<path d="M34067 37497
L34010 37516
" />
<path d="M34135 37503
L34067 37497
" />
<path d="M34209 37863
L34038 37803
" />
<path d="M34381 37924
L34209 37863
" />
<path d="M34552 37984
L34381 37924
" />
<path d="M34724 38044
L34552 37984
" />
<path d="M34895 38105
L34724 38044
" />
<path d="M35067 38165
L34895 38105
" />
<path d="M35238 38226
L35067 38165
" />
<path d="M35410 38286
L35238 38226
" />
<path d="M35444 38301
L35410 38286
" />
<path d="M35475 38321
L35444 38301
" />
<path d="M35502 38345
L35475 38321
" />
<path d="M35525 38373
L35502 38345
" />
<path d="M35543 38404
L35525 38373
" />
<path d="M35557 38438
L35543 38404
" />
<path d="M35565 38473
L35557 38438
" />
<path d="M35568 38510
L35565 38473
" />
<path d="M35608 38824
L35621 38868
" />
<path d="M35597 38780
L35608 38824
" />
<path d="M35588 38736
L35597 38780
" />
<path d="M35580 38691
L35588 38736
" />
<path d="M35575 38646
L35580 38691
" />
<path d="M35571 38601
L35575 38646
" />
<path d="M35568 38556
L35571 38601
" />
<path d="M35568 38510
L35568 38556
" />
<path d="M35631 38923
L35620 38868
" />
<path d="M35628 38978
L35631 38923
" />
<path d="M35613 39029
L35628 38978
" />
<path d="M35587 39075
L35613 39029
" />
<path d="M35551 39115
L35587 39075
" />
<path d="M35508 39145
L35551 39115
" />
<path d="M35457 39165
L35508 39145
" />
<path d="M35401 39174
L35457 39165
" />
<path d="M35202 39178
L35401 39174
" />
<path d="M35004 39183
L35202 39178
" />
<path d="M34806 39188
L35004 39183
" />
<path d="M34608 39193
L34806 39188
" />
<path d="M34409 39198
L34608 39193
" />
<path d="M34211 39203
L34409 39198
" />
<path d="M34013 39207
L34211 39203
" />
<path d="M33815 39212
L34013 39207
" />
<path d="M33747 39512
L33815 39527
" />
<path d="M33699 39477
L33747 39512
" />
<path d="M33671 39427
L33699 39477
" />
<path d="M33661 39370
L33671 39427
" />
<path d="M33671 39313
L33661 39370
" />
<path d="M33699 39263
L33671 39313
" />
<path d="M33747 39227
L33699 39263
" />
<path d="M33815 39212
L33747 39227
" />
<path d="M34113 39534
L33815 39527
" />
<path d="M34410 39542
L34113 39534
" />
<path d="M34708 39549
L34410 39542
" />
<path d="M35006 39556
L34708 39549
" />
<path d="M35304 39564
L35006 39556
" />
<path d="M35602 39571
L35304 39564
" />
<path d="M35900 39578
L35602 39571
" />
<path d="M36198 39585
L35900 39578
" />
<path d="M36209 39586
L36198 39586
" />
<path d="M36220 39587
L36209 39586
" />
<path d="M36231 39589
L36220 39587
" />
<path d="M36242 39591
L36231 39589
" />
<path d="M36253 39593
L36242 39591
" />
<path d="M36264 39597
L36253 39593
" />
<path d="M36274 39600
L36264 39597
" />
<path d="M36285 39604
L36274 39600
" />
<path d="M36301 39610
L36303 39611
" />
<path d="M36299 39609
L36301 39610
" />
<path d="M36296 39608
L36299 39609
" />
<path d="M36294 39607
L36296 39608
" />
<path d="M36292 39607
L36294 39607
" />
<path d="M36289 39606
L36292 39607
" />
<path d="M36287 39605
L36289 39606
" />
<path d="M36285 39604
L36287 39605
" />
<path d="M36331 39626
L36303 39612
" />
<path d="M36357 39643
L36331 39626
" />
<path d="M36380 39663
L36357 39643
" />
<path d="M36400 39685
L36380 39663
" />
<path d="M36417 39710
L36400 39685
" />
<path d="M36431 39737
L36417 39710
" />
<path d="M36441 39766
L36431 39737
" />
<path d="M36448 39797
L36441 39766
" />
<path d="M36459 39865
L36460 39875
" />
<path d="M36457 39855
L36459 39865
" />
<path d="M36456 39845
L36457 39855
" />
<path d="M36454 39836
L36456 39845
" />
<path d="M36452 39826
L36454 39836
" />
<path d="M36451 39816
L36452 39826
" />
<path d="M36449 39806
L36451 39816
" />
<path d="M36448 39797
L36449 39806
" />
<path d="M36464 39917
L36460 39875
" />
<path d="M36460 39958
L36464 39917
" />
<path d="M36449 39998
L36460 39958
" />
<path d="M36432 40034
L36449 39998
" />
<path d="M36408 40068
L36432 40034
" />
<path d="M36379 40097
L36408 40068
" />
<path d="M36345 40120
L36379 40097
" />
<path d="M36306 40138
L36345 40120
" />
<path d="M36023 40238
L36306 40138
" />
<path d="M35739 40338
L36023 40238
" />
<path d="M35456 40437
L35739 40338
" />
<path d="M35172 40537
L35456 40437
" />
<path d="M34889 40637
L35172 40537
" />
<path d="M34605 40737
L34889 40637
" />
<path d="M34321 40837
L34605 40737
" />
<path d="M34038 40937
L34321 40837
" />
<path d="M34067 41243
L34135 41236
" />
<path d="M34010 41223
L34067 41243
" />
<path d="M33967 41185
L34010 41223
" />
<path d="M33941 41134
L33967 41185
" />
<path d="M33932 41077
L33941 41134
" />
<path d="M33944 41020
L33932 41077
" />
<path d="M33979 40971
L33944 41020
" />
<path d="M34038 40937
L33979 40971
" />
<path d="M34423 41150
L34135 41236
" />
<path d="M34711 41064
L34423 41150
" />
<path d="M34999 40978
L34711 41064
" />
<path d="M35288 40893
L34999 40978
" />
<path d="M35576 40807
L35288 40893
" />
<path d="M35864 40721
L35576 40807
" />
<path d="M36152 40635
L35864 40721
" />
<path d="M36440 40549
L36152 40635
" />
<path d="M36481 40540
L36440 40549
" />
<path d="M36523 40540
L36481 40540
" />
<path d="M36563 40546
L36523 40540
" />
<path d="M36602 40559
L36563 40546
" />
<path d="M36638 40578
L36602 40559
" />
<path d="M36670 40604
L36638 40578
" />
<path d="M36697 40635
L36670 40604
" />
<path d="M36719 40671
L36697 40635
" />
<path d="M36750 40733
L36755 40742
" />
<path d="M36746 40724
L36750 40733
" />
<path d="M36741 40715
L36746 40724
" />
<path d="M36737 40707
L36741 40715
" />
<path d="M36733 40698
L36737 40707
" />
<path d="M36728 40689
L36733 40698
" />
<path d="M36724 40680
L36728 40689
" />
<path d="M36719 40671
L36724 40680
" />
<path d="M36768 40770
L36755 40742
" />
<path d="M36776 40800
L36768 40770
" />
<path d="M36781 40830
L36776 40800
" />
<path d="M36782 40860
L36781 40830
" />
<path d="M36779 40890
L36782 40860
" />
<path d="M36772 40920
L36779 40890
" />
<path d="M36761 40949
L36772 40920
" />
<path d="M36747 40976
L36761 40949
" />
<path d="M36737 40990
L36736 40992
" />
<path d="M36739 40988
L36737 40990
" />
<path d="M36740 40986
L36739 40988
" />
<path d="M36741 40984
L36740 40986
" />
<path d="M36743 40982
L36741 40984
" />
<path d="M36744 40980
L36743 40982
" />
<path d="M36745 40978
L36744 40980
" />
<path d="M36747 40976
L36745 40978
" />
<path d="M36730 41003
L36736 40993
" />
<path d="M36724 41012
L36730 41003
" />
<path d="M36717 41021
L36724 41012
" />
<path d="M36710 41029
L36717 41021
" />
<path d="M36702 41037
L36710 41029
" />
<path d="M36694 41045
L36702 41037
" />
<path d="M36686 41053
L36694 41045
" />
<path d="M36677 41060
L36686 41053
" />
<path d="M36440 41241
L36677 41060
" />
<path d="M36203 41422
L36440 41241
" />
<path d="M35967 41603
L36203 41422
" />
<path d="M35730 41784
L35967 41603
" />
<path d="M35493 41965
L35730 41784
" />
<path d="M35257 42146
L35493 41965
" />
<path d="M35020 42327
L35257 42146
" />
<path d="M34783 42508
L35020 42327
" />
<path d="M34905 42790
L34968 42762
" />
<path d="M34845 42789
L34905 42790
" />
<path d="M34793 42766
L34845 42789
" />
<path d="M34751 42725
L34793 42766
" />
<path d="M34726 42674
L34751 42725
" />
<path d="M34720 42616
L34726 42674
" />
<path d="M34737 42559
L34720 42616
" />
<path d="M34783 42508
L34737 42559
" />
<path d="M35131 42650
L34968 42762
" />
<path d="M35295 42537
L35131 42650
" />
<path d="M35458 42424
L35295 42537
" />
<path d="M35621 42312
L35458 42424
" />
<path d="M35784 42199
L35621 42312
" />
<path d="M35948 42087
L35784 42199
" />
<path d="M36111 41974
L35948 42087
" />
<path d="M36274 41861
L36111 41974
" />
<path d="M36324 41835
L36274 41861
" />
<path d="M36377 41821
L36324 41835
" />
<path d="M36431 41821
L36377 41821
" />
<path d="M36482 41832
L36431 41821
" />
<path d="M36530 41854
L36482 41832
" />
<path d="M36573 41886
L36530 41854
" />
<path d="M36607 41928
L36573 41886
" />
<path d="M36632 41980
L36607 41928
" />
<path d="M36773 42263
L36799 42300
" />
<path d="M36748 42225
L36773 42263
" />
<path d="M36683 42106
L36703 42146
" />
<path d="M36664 42064
L36683 42106
" />
<path d="M36647 42022
L36664 42064
" />
<path d="M36632 41980
L36647 42022
" />
<path d="M36819 42331
L36799 42300
" />
<path d="M36833 42365
L36819 42331
" />
<path d="M36842 42400
L36833 42365
" />
<path d="M38595 42453
L38496 42734
" />
<path d="M38599 42443
L38595 42453
" />
<path d="M38603 42432
L38599 42443
" />
<path d="M38608 42422
L38603 42432
" />
<path d="M38613 42412
L38608 42422
" />
<path d="M38619 42403
L38613 42412
" />
<path d="M38626 42394
L38619 42403
" />
<path d="M38632 42385
L38626 42394
" />
<path d="M38640 42376
L38632 42385
" />
<path d="M38651 42362
L38653 42360
" />
<path d="M38649 42364
L38651 42362
" />
<path d="M38648 42366
L38649 42364
" />
<path d="M38646 42368
L38648 42366
" />
<path d="M38645 42370
L38646 42368
" />
<path d="M38643 42372
L38645 42370
" />
<path d="M38641 42374
L38643 42372
" />
<path d="M38640 42376
L38641 42374
" />
<path d="M38674 42339
L38653 42361
" />
<path d="M38698 42319
L38674 42339
" />
<path d="M38724 42304
L38698 42319
" />
<path d="M38752 42291
L38724 42304
" />
<path d="M38781 42283
L38752 42291
" />
<path d="M38811 42278
L38781 42283
" />
<path d="M38842 42277
L38811 42278
" />
<path d="M38873 42280
L38842 42277
" />
<path d="M38941 42291
L38951 42293
" />
<path d="M38931 42290
L38941 42291
" />
<path d="M38922 42288
L38931 42290
" />
<path d="M38912 42287
L38922 42288
" />
<path d="M38902 42285
L38912 42287
" />
<path d="M38892 42284
L38902 42285
" />
<path d="M38883 42282
L38892 42284
" />
<path d="M38873 42280
L38883 42282
" />
<path d="M38992 42302
L38951 42293
" />
<path d="M39030 42319
L38992 42302
" />
<path d="M39064 42342
L39030 42319
" />
<path d="M39094 42370
L39064 42342
" />
<path d="M39118 42402
L39094 42370
" />
<path d="M39137 42439
L39118 42402
" />
<path d="M39149 42478
L39137 42439
" />
<path d="M39154 42521
L39149 42478
" />
<path d="M39161 42821
L39154 42521
" />
<path d="M39168 43122
L39161 42821
" />
<path d="M39176 43422
L39168 43122
" />
<path d="M39183 43723
L39176 43422
" />
<path d="M39190 44023
L39183 43723
" />
<path d="M39198 44324
L39190 44023
" />
<path d="M39205 44624
L39198 44324
" />
<path d="M39212 44925
L39205 44624
" />
<path d="M39535 44624
L39527 44925
" />
<path d="M39542 44324
L39535 44624
" />
<path d="M39549 44023
L39542 44324
" />
<path d="M39557 43723
L39549 44023
" />
<path d="M39564 43422
L39557 43723
" />
<path d="M39571 43122
L39564 43422
" />
<path d="M39579 42821
L39571 43122
" />
<path d="M39586 42521
L39579 42821
" />
<path d="M39591 42478
L39586 42521
" />
<path d="M39603 42439
L39591 42478
" />
<path d="M39621 42402
L39603 42439
" />
<path d="M39645 42370
L39621 42402
" />
<path d="M39675 42342
L39645 42370
" />
<path d="M39709 42319
L39675 42342
" />
<path d="M39747 42302
L39709 42319
" />
<path d="M39789 42293
L39747 42302
" />
<path d="M39857 42282
L39867 42280
" />
<path d="M43988 42725
L44014 42674
" />
<path d="M43947 42766
L43988 42725
" />
<path d="M43894 42789
L43947 42766
" />
<path d="M43834 42790
L43894 42789
" />
<path d="M43771 42762
L43834 42790
" />
<path d="M41243 44673
L41236 44604
" />
<path d="M41224 44729
L41243 44673
" />
<path d="M41185 44772
L41224 44729
" />
<path d="M41134 44799
L41185 44772
" />
<path d="M41077 44807
L41134 44799
" />
<path d="M41020 44796
L41077 44807
" />
<path d="M40971 44761
L41020 44796
" />
<path d="M40937 44702
L40971 44761
" />
<path d="M41179 44414
L41236 44604
" />
<path d="M41123 44224
L41179 44414
" />
<path d="M41066 44034
L41123 44224
" />
<path d="M41009 43844
L41066 44034
" />
<path d="M40953 43654
L41009 43844
" />
<path d="M40896 43464
L40953 43654
" />
<path d="M40840 43274
L40896 43464
" />
<path d="M40783 43084
L40840 43274
" />
<path d="M42009 41003
L42016 41012
" />
<path d="M42003 40993
L42009 41003
" />
<path d="M41994 40979
L41993 40977
" />
<path d="M41996 40981
L41994 40979
" />
<path d="M42659 43622
L42762 43771
" />
<path d="M42556 43472
L42659 43622
" />
<path d="M42453 43322
L42556 43472
" />
<path d="M42349 43173
L42453 43322
" />
<path d="M42246 43023
L42349 43173
" />
<path d="M42143 42873
L42246 43023
" />
<path d="M39847 42283
L39857 42282
" />
<path d="M39837 42285
L39847 42283
" />
<path d="M39828 42286
L39837 42285
" />
<path d="M39818 42288
L39828 42286
" />
<path d="M39808 42290
L39818 42288
" />
<path d="M39798 42291
L39808 42290
" />
<path d="M39789 42293
L39798 42291
" />
<path d="M39898 42277
L39867 42280
" />
<path d="M39928 42278
L39898 42277
" />
<path d="M39958 42283
L39928 42278
" />
<path d="M39987 42291
L39958 42283
" />
<path d="M40015 42304
L39987 42291
" />
<path d="M40041 42319
L40015 42304
" />
<path d="M40065 42339
L40041 42319
" />
<path d="M40087 42361
L40065 42339
" />
<path d="M40098 42375
L40100 42377
" />
<path d="M40097 42373
L40098 42375
" />
<path d="M40095 42371
L40097 42373
" />
<path d="M40093 42369
L40095 42371
" />
<path d="M43196 38404
L43183 38438
" />
<path d="M43215 38373
L43196 38404
" />
<path d="M40092 42367
L40093 42369
" />
<path d="M40090 42365
L40092 42367
" />
<path d="M40088 42363
L40090 42365
" />
<path d="M40087 42361
L40088 42363
" />
<path d="M40107 42385
L40100 42376
" />
<path d="M40114 42394
L40107 42385
" />
<path d="M40120 42403
L40114 42394
" />
<path d="M40126 42412
L40120 42403
" />
<path d="M40131 42422
L40126 42412
" />
<path d="M40136 42432
L40131 42422
" />
<path d="M40141 42443
L40136 42432
" />
<path d="M40145 42453
L40141 42443
" />
<path d="M40244 42734
L40145 42453
" />
<path d="M40343 43015
L40244 42734
" />
<path d="M40442 43296
L40343 43015
" />
<path d="M40541 43577
L40442 43296
" />
<path d="M40640 43858
L40541 43577
" />
<path d="M40739 44139
L40640 43858
" />
<path d="M40838 44420
L40739 44139
" />
<path d="M40937 44702
L40838 44420
" />
<path d="M43844 38105
L43673 38165
" />
<path d="M44016 38044
L43844 38105
" />
<path d="M41991 42225
L42015 42186
" />
<path d="M41967 42263
L41991 42225
" />
<path d="M41941 42300
L41967 42263
" />
<path d="M42132 41929
L42108 41980
" />
<path d="M36845 42436
L36842 42400
" />
<path d="M36843 42472
L36845 42436
" />
<path d="M36835 42508
L36843 42472
" />
<path d="M36822 42542
L36835 42508
" />
<path d="M36803 42574
L36822 42542
" />
<path d="M36700 42724
L36803 42574
" />
<path d="M36597 42873
L36700 42724
" />
<path d="M36493 43023
L36597 42873
" />
<path d="M36390 43173
L36493 43023
" />
<path d="M36287 43322
L36390 43173
" />
<path d="M36184 43472
L36287 43322
" />
<path d="M36080 43622
L36184 43472
" />
<path d="M35977 43771
L36080 43622
" />
<path d="M36181 44002
L36232 43956
" />
<path d="M36123 44020
L36181 44002
" />
<path d="M36066 44014
L36123 44020
" />
<path d="M36014 43988
L36066 44014
" />
<path d="M35974 43947
L36014 43988
" />
<path d="M35950 43894
L35974 43947
" />
<path d="M35950 43834
L35950 43894
" />
<path d="M35977 43771
L35950 43834
" />
<path d="M36342 43812
L36232 43956
" />
<path d="M36453 43668
L36342 43812
" />
<path d="M36563 43523
L36453 43668
" />
<path d="M36674 43379
L36563 43523
" />
<path d="M36784 43234
L36674 43379
" />
<path d="M36895 43090
L36784 43234
" />
<path d="M37005 42945
L36895 43090
" />
<path d="M37115 42801
L37005 42945
" />
<path d="M37140 42773
L37115 42801
" />
<path d="M37169 42750
L37140 42773
" />
<path d="M37200 42732
L37169 42750
" />
<path d="M37234 42718
L37200 42732
" />
<path d="M37269 42710
L37234 42718
" />
<path d="M37305 42708
L37269 42710
" />
<path d="M37341 42711
L37305 42708
" />
<path d="M37378 42720
L37341 42711
" />
<path d="M37688 42779
L37734 42780
" />
<path d="M37643 42776
L37688 42779
" />
<path d="M37598 42771
L37643 42776
" />
<path d="M37553 42764
L37598 42771
" />
<path d="M37509 42756
L37553 42764
" />
<path d="M37465 42745
L37509 42756
" />
<path d="M37421 42734
L37465 42745
" />
<path d="M37378 42720
L37421 42734
" />
<path d="M37790 42788
L37734 42780
" />
<path d="M37841 42808
L37790 42788
" />
<path d="M37885 42838
L37841 42808
" />
<path d="M37921 42877
L37885 42838
" />
<path d="M37947 42922
L37921 42877
" />
<path d="M37963 42973
L37947 42922
" />
<path d="M37966 43028
L37963 42973
" />
<path d="M37957 43084
L37966 43028
" />
<path d="M37900 43274
L37957 43084
" />
<path d="M37843 43464
L37900 43274
" />
<path d="M37787 43654
L37843 43464
" />
<path d="M37730 43844
L37787 43654
" />
<path d="M37673 44034
L37730 43844
" />
<path d="M37617 44224
L37673 44034
" />
<path d="M37560 44414
L37617 44224
" />
<path d="M37503 44604
L37560 44414
" />
<path d="M37768 44761
L37803 44702
" />
<path d="M37719 44796
L37768 44761
" />
<path d="M37663 44807
L37719 44796
" />
<path d="M37606 44799
L37663 44807
" />
<path d="M37554 44772
L37606 44799
" />
<path d="M37516 44729
L37554 44772
" />
<path d="M37497 44673
L37516 44729
" />
<path d="M37503 44604
L37497 44673
" />
<path d="M37902 44420
L37803 44702
" />
<path d="M38001 44139
L37902 44420
" />
<path d="M38100 43858
L38001 44139
" />
<path d="M38199 43577
L38100 43858
" />
<path d="M38298 43296
L38199 43577
" />
<path d="M38397 43015
L38298 43296
" />
<path d="M38496 42734
L38397 43015
" />
<path d="M42408 39626
L42383 39643
" />
<path d="M42436 39612
L42408 39626
" />
<path d="M42536 41422
L42773 41603
" />
<path d="M42299 41241
L42536 41422
" />
<path d="M42063 41060
L42299 41241
" />
<path d="M42054 41053
L42063 41060
" />
<path d="M42092 42022
L42108 41980
" />
<path d="M42075 42064
L42092 42022
" />
<path d="M42057 42106
L42075 42064
" />
<path d="M42036 42146
L42057 42106
" />
<path d="M42015 42186
L42036 42146
" />
<path d="M42176 43523
L42066 43379
" />
<path d="M42287 43668
L42176 43523
" />
<path d="M42397 43812
L42287 43668
" />
<path d="M42508 43956
L42397 43812
" />
<path d="M42790 43834
L42762 43771
" />
<path d="M44418 40837
L44702 40937
" />
<path d="M44134 40737
L44418 40837
" />
<path d="M44430 37555
L44604 37503
" />
<path d="M44256 37607
L44430 37555
" />
<path d="M42003 40993
L42002 40991
" />
<path d="M41978 40949
L41993 40976
" />
<path d="M41967 40920
L41978 40949
" />
<path d="M41961 40890
L41967 40920
" />
<path d="M43851 40637
L44134 40737
" />
<path d="M43567 40537
L43851 40637
" />
<path d="M42865 37724
L42834 37692
" />
<path d="M42895 37759
L42865 37724
" />
<path d="M41275 42745
L41319 42734
" />
<path d="M41231 42756
L41275 42745
" />
<path d="M41186 42764
L41231 42756
" />
<path d="M41142 42771
L41186 42764
" />
<path d="M41096 42776
L41142 42771
" />
<path d="M41051 42779
L41096 42776
" />
<path d="M41006 42780
L41051 42779
" />
<path d="M41398 42711
L41362 42720
" />
<path d="M41435 42708
L41398 42711
" />
<path d="M43295 38301
L43265 38321
" />
<path d="M43330 38286
L43295 38301
" />
<path d="M43733 37763
L43907 37711
" />
<path d="M43559 37815
L43733 37763
" />
<path d="M40773 43028
L40783 43084
" />
<path d="M40777 42973
L40773 43028
" />
<path d="M40792 42922
L40777 42973
" />
<path d="M40819 42877
L40792 42922
" />
<path d="M40855 42838
L40819 42877
" />
<path d="M40899 42808
L40855 42838
" />
<path d="M40950 42788
L40899 42808
" />
<path d="M41006 42780
L40950 42788
" />
<path d="M41319 42734
L41362 42720
" />
<path d="M42655 37235
L42626 37281
" />
<path d="M42696 37195
L42655 37235
" />
<path d="M44761 40971
L44702 40937
" />
<path d="M44795 41020
L44761 40971
" />
<path d="M42609 37332
L42603 37384
" />
<path d="M42626 37281
L42609 37332
" />
<path d="M43175 38473
L43172 38510
" />
<path d="M43183 38438
L43175 38473
" />
<path d="M43238 38345
L43215 38373
" />
<path d="M43265 38321
L43238 38345
" />
<path d="M42924 37794
L42895 37759
" />
<path d="M42951 37830
L42924 37794
" />
<path d="M41895 42436
L41897 42472
" />
<path d="M41898 42400
L41895 42436
" />
<path d="M41907 42365
L41898 42400
" />
<path d="M41921 42332
L41907 42365
" />
<path d="M41941 42300
L41921 42332
" />
<path d="M43834 35950
L43771 35977
" />
<path d="M43894 35950
L43834 35950
" />
<path d="M43101 37925
L43137 37929
" />
<path d="M43066 37916
L43101 37925
" />
<path d="M44014 36066
L43988 36014
" />
<path d="M44020 36123
L44014 36066
" />
<path d="M43484 36593
L43326 36714
" />
<path d="M43641 36473
L43484 36593
" />
<path d="M43947 35974
L43894 35950
" />
<path d="M43988 36014
L43947 35974
" />
<path d="M44330 39198
L44528 39203
" />
<path d="M44132 39193
L44330 39198
" />
<path d="M42042 40635
L42020 40671
" />
<path d="M42070 40604
L42042 40635
" />
<path d="M42102 40579
L42070 40604
" />
<path d="M43033 37902
L43066 37916
" />
<path d="M43003 37883
L43033 37902
" />
<path d="M44627 39534
L44329 39542
" />
<path d="M44925 39527
L44627 39534
" />
<path d="M44082 37659
L44256 37607
" />
<path d="M43907 37711
L44082 37659
" />
<path d="M44031 39549
L43733 39556
" />
<path d="M44329 39542
L44031 39549
" />
<path d="M44992 39227
L44925 39212
" />
<path d="M45040 39263
L44992 39227
" />
<path d="M43799 36352
L43641 36473
" />
<path d="M43956 36232
L43799 36352
" />
<path d="M43174 37927
L43210 37919
" />
<path d="M43137 37929
L43174 37927
" />
<path d="M44530 37863
L44359 37924
" />
<path d="M44702 37803
L44530 37863
" />
<path d="M44772 37555
L44729 37516
" />
<path d="M44799 37606
L44772 37555
" />
<path d="M45069 39427
L45078 39370
" />
<path d="M45040 39477
L45069 39427
" />
<path d="M43283 39165
L43339 39174
" />
<path d="M43232 39145
L43283 39165
" />
<path d="M43188 39115
L43232 39145
" />
<path d="M43153 39075
L43188 39115
" />
<path d="M42657 37533
L42698 37572
" />
<path d="M42627 37487
L42657 37533
" />
<path d="M44187 37984
L44016 38044
" />
<path d="M44359 37924
L44187 37984
" />
<path d="M43435 39564
L43137 39571
" />
<path d="M43733 39556
L43435 39564
" />
<path d="M42717 40238
L43000 40338
" />
<path d="M42433 40138
L42717 40238
" />
<path d="M44673 41243
L44729 41224
" />
<path d="M44604 41236
L44673 41243
" />
<path d="M42276 39917
L42279 39958
" />
<path d="M42279 39875
L42276 39917
" />
<path d="M43109 38923
L43112 38978
" />
<path d="M43119 38868
L43109 38923
" />
<path d="M42284 39845
L42286 39836
" />
<path d="M42282 39855
L42284 39845
" />
<path d="M42290 39806
L42291 39797
" />
<path d="M42289 39816
L42290 39806
" />
<path d="M42395 40120
L42433 40138
" />
<path d="M42361 40097
L42395 40120
" />
<path d="M42331 40068
L42361 40097
" />
<path d="M42308 40034
L42331 40068
" />
<path d="M42322 39710
L42308 39737
" />
<path d="M42339 39685
L42322 39710
" />
<path d="M42281 39865
L42282 39855
" />
<path d="M42279 39875
L42281 39865
" />
<path d="M42298 39766
L42291 39797
" />
<path d="M42308 39737
L42298 39766
" />
<path d="M42290 39998
L42308 40034
" />
<path d="M42279 39958
L42290 39998
" />
<path d="M42359 39662
L42339 39685
" />
<path d="M42383 39643
L42359 39662
" />
<path d="M42287 39826
L42289 39816
" />
<path d="M42286 39836
L42287 39826
" />
<path d="M43127 39029
L43153 39075
" />
<path d="M43112 38978
L43127 39029
" />
<path d="M44772 41185
L44799 41134
" />
<path d="M44729 41224
L44772 41185
" />
</g> 
</svg>
