G04 #@! TF.GenerationSoftware,KiCad,Pcbnew,5.0.2-bee76a0~70~ubuntu18.04.1*
G04 #@! TF.CreationDate,2019-06-21T11:48:12+02:00*
G04 #@! TF.ProjectId,GaudiPCR,47617564-6950-4435-922e-6b696361645f,rev?*
G04 #@! TF.SameCoordinates,Original*
G04 #@! TF.FileFunction,Soldermask,Bot*
G04 #@! TF.FilePolarity,Negative*
%FSLAX46Y46*%
G04 Gerber Fmt 4.6, Leading zero omitted, Abs format (unit mm)*
G04 Created by KiCad (PCBNEW 5.0.2-bee76a0~70~ubuntu18.04.1) date Fr 21 Jun 2019 11:48:12 CEST*
%MOMM*%
%LPD*%
G01*
G04 APERTURE LIST*
%ADD10C,0.100000*%
G04 APERTURE END LIST*
D10*
G36*
X100306274Y-101990350D02*
X100497362Y-102069502D01*
X100669336Y-102184411D01*
X100815589Y-102330664D01*
X100930498Y-102502638D01*
X101009650Y-102693726D01*
X101050000Y-102896584D01*
X101050000Y-103103416D01*
X101009650Y-103306274D01*
X100930498Y-103497362D01*
X100815589Y-103669336D01*
X100669336Y-103815589D01*
X100497362Y-103930498D01*
X100306274Y-104009650D01*
X100103416Y-104050000D01*
X99896584Y-104050000D01*
X99693726Y-104009650D01*
X99502638Y-103930498D01*
X99330664Y-103815589D01*
X99184411Y-103669336D01*
X99069502Y-103497362D01*
X98990350Y-103306274D01*
X98950000Y-103103416D01*
X98950000Y-102896584D01*
X98990350Y-102693726D01*
X99069502Y-102502638D01*
X99184411Y-102330664D01*
X99330664Y-102184411D01*
X99502638Y-102069502D01*
X99693726Y-101990350D01*
X99896584Y-101950000D01*
X100103416Y-101950000D01*
X100306274Y-101990350D01*
X100306274Y-101990350D01*
G37*
G36*
X103159274Y-99917350D02*
X103350362Y-99996502D01*
X103522336Y-100111411D01*
X103668589Y-100257664D01*
X103783498Y-100429638D01*
X103862650Y-100620726D01*
X103903000Y-100823584D01*
X103903000Y-101030416D01*
X103862650Y-101233274D01*
X103783498Y-101424362D01*
X103668589Y-101596336D01*
X103522336Y-101742589D01*
X103350362Y-101857498D01*
X103159274Y-101936650D01*
X102956416Y-101977000D01*
X102749584Y-101977000D01*
X102546726Y-101936650D01*
X102355638Y-101857498D01*
X102183664Y-101742589D01*
X102037411Y-101596336D01*
X101922502Y-101424362D01*
X101843350Y-101233274D01*
X101803000Y-101030416D01*
X101803000Y-100823584D01*
X101843350Y-100620726D01*
X101922502Y-100429638D01*
X102037411Y-100257664D01*
X102183664Y-100111411D01*
X102355638Y-99996502D01*
X102546726Y-99917350D01*
X102749584Y-99877000D01*
X102956416Y-99877000D01*
X103159274Y-99917350D01*
X103159274Y-99917350D01*
G37*
G36*
X97453074Y-99917350D02*
X97644162Y-99996502D01*
X97816136Y-100111411D01*
X97962389Y-100257664D01*
X98077298Y-100429638D01*
X98156450Y-100620726D01*
X98196800Y-100823584D01*
X98196800Y-101030416D01*
X98156450Y-101233274D01*
X98077298Y-101424362D01*
X97962389Y-101596336D01*
X97816136Y-101742589D01*
X97644162Y-101857498D01*
X97453074Y-101936650D01*
X97250216Y-101977000D01*
X97043384Y-101977000D01*
X96840526Y-101936650D01*
X96649438Y-101857498D01*
X96477464Y-101742589D01*
X96331211Y-101596336D01*
X96216302Y-101424362D01*
X96137150Y-101233274D01*
X96096800Y-101030416D01*
X96096800Y-100823584D01*
X96137150Y-100620726D01*
X96216302Y-100429638D01*
X96331211Y-100257664D01*
X96477464Y-100111411D01*
X96649438Y-99996502D01*
X96840526Y-99917350D01*
X97043384Y-99877000D01*
X97250216Y-99877000D01*
X97453074Y-99917350D01*
X97453074Y-99917350D01*
G37*
G36*
X100379196Y-98749958D02*
X100615781Y-98847955D01*
X100828702Y-98990224D01*
X101009776Y-99171298D01*
X101152045Y-99384219D01*
X101250042Y-99620804D01*
X101300000Y-99871961D01*
X101300000Y-100128039D01*
X101250042Y-100379196D01*
X101152045Y-100615781D01*
X101009776Y-100828702D01*
X100828702Y-101009776D01*
X100615781Y-101152045D01*
X100379196Y-101250042D01*
X100128039Y-101300000D01*
X99871961Y-101300000D01*
X99620804Y-101250042D01*
X99384219Y-101152045D01*
X99171298Y-101009776D01*
X98990224Y-100828702D01*
X98847955Y-100615781D01*
X98749958Y-100379196D01*
X98700000Y-100128039D01*
X98700000Y-99871961D01*
X98749958Y-99620804D01*
X98847955Y-99384219D01*
X98990224Y-99171298D01*
X99171298Y-98990224D01*
X99384219Y-98847955D01*
X99620804Y-98749958D01*
X99871961Y-98700000D01*
X100128039Y-98700000D01*
X100379196Y-98749958D01*
X100379196Y-98749958D01*
G37*
G36*
X102069574Y-96563250D02*
X102260662Y-96642402D01*
X102432636Y-96757311D01*
X102578889Y-96903564D01*
X102693798Y-97075538D01*
X102772950Y-97266626D01*
X102813300Y-97469484D01*
X102813300Y-97676316D01*
X102772950Y-97879174D01*
X102693798Y-98070262D01*
X102578889Y-98242236D01*
X102432636Y-98388489D01*
X102260662Y-98503398D01*
X102069574Y-98582550D01*
X101866716Y-98622900D01*
X101659884Y-98622900D01*
X101457026Y-98582550D01*
X101265938Y-98503398D01*
X101093964Y-98388489D01*
X100947711Y-98242236D01*
X100832802Y-98070262D01*
X100753650Y-97879174D01*
X100713300Y-97676316D01*
X100713300Y-97469484D01*
X100753650Y-97266626D01*
X100832802Y-97075538D01*
X100947711Y-96903564D01*
X101093964Y-96757311D01*
X101265938Y-96642402D01*
X101457026Y-96563250D01*
X101659884Y-96522900D01*
X101866716Y-96522900D01*
X102069574Y-96563250D01*
X102069574Y-96563250D01*
G37*
G36*
X98542874Y-96563250D02*
X98733962Y-96642402D01*
X98905936Y-96757311D01*
X99052189Y-96903564D01*
X99167098Y-97075538D01*
X99246250Y-97266626D01*
X99286600Y-97469484D01*
X99286600Y-97676316D01*
X99246250Y-97879174D01*
X99167098Y-98070262D01*
X99052189Y-98242236D01*
X98905936Y-98388489D01*
X98733962Y-98503398D01*
X98542874Y-98582550D01*
X98340016Y-98622900D01*
X98133184Y-98622900D01*
X97930326Y-98582550D01*
X97739238Y-98503398D01*
X97567264Y-98388489D01*
X97421011Y-98242236D01*
X97306102Y-98070262D01*
X97226950Y-97879174D01*
X97186600Y-97676316D01*
X97186600Y-97469484D01*
X97226950Y-97266626D01*
X97306102Y-97075538D01*
X97421011Y-96903564D01*
X97567264Y-96757311D01*
X97739238Y-96642402D01*
X97930326Y-96563250D01*
X98133184Y-96522900D01*
X98340016Y-96522900D01*
X98542874Y-96563250D01*
X98542874Y-96563250D01*
G37*
M02*
