G04 #@! TF.GenerationSoftware,KiCad,Pcbnew,5.0.2-bee76a0~70~ubuntu18.04.1*
G04 #@! TF.CreationDate,2019-11-11T21:51:23+01:00*
G04 #@! TF.ProjectId,BottomHeater,426f7474-6f6d-4486-9561-7465722e6b69,rev?*
G04 #@! TF.SameCoordinates,Original*
G04 #@! TF.FileFunction,Profile,NP*
%FSLAX46Y46*%
G04 Gerber Fmt 4.6, Leading zero omitted, Abs format (unit mm)*
G04 Created by KiCad (PCBNEW 5.0.2-bee76a0~70~ubuntu18.04.1) date Mo 11 Nov 2019 21:51:23 CET*
%MOMM*%
%LPD*%
G01*
G04 APERTURE LIST*
%ADD10C,0.150000*%
G04 APERTURE END LIST*
D10*
X110179726Y-99234595D02*
X110233596Y-99239395D01*
X110127266Y-99225195D02*
X110179726Y-99234595D01*
X110076446Y-99211345D02*
X110127266Y-99225195D01*
X110027486Y-99193245D02*
X110076446Y-99211345D01*
X109980606Y-99171115D02*
X110027486Y-99193245D01*
X109936016Y-99145145D02*
X109980606Y-99171115D01*
X109893946Y-99115535D02*
X109936016Y-99145145D01*
X107794332Y-88283276D02*
X107700232Y-88381156D01*
X107896118Y-88213146D02*
X107794332Y-88283276D01*
X108002991Y-88168876D02*
X107896118Y-88213146D01*
X108112346Y-88148576D02*
X108002991Y-88168876D01*
X104896282Y-91498966D02*
X104947882Y-91499646D01*
X104844692Y-91493866D02*
X104896282Y-91498966D01*
X104793402Y-91484166D02*
X104844692Y-91493866D01*
X114176735Y-100539688D02*
X114275355Y-100479238D01*
X114060180Y-100580818D02*
X114176735Y-100539688D01*
X113925696Y-100599428D02*
X114060180Y-100580818D01*
X113694940Y-99390561D02*
X113925696Y-99400641D01*
X113464185Y-99380481D02*
X113694940Y-99390561D01*
X108782676Y-104233077D02*
X108796016Y-104205287D01*
X108769246Y-104260827D02*
X108782676Y-104233077D01*
X108755736Y-104288537D02*
X108769246Y-104260827D01*
X108742126Y-104316197D02*
X108755736Y-104288537D01*
X108728436Y-104343807D02*
X108742126Y-104316197D01*
X108714656Y-104371387D02*
X108728436Y-104343807D01*
X108700796Y-104398927D02*
X108714656Y-104371387D01*
X108686846Y-104426407D02*
X108700796Y-104398927D01*
X108672806Y-104453857D02*
X108686846Y-104426407D01*
X108658686Y-104481247D02*
X108672806Y-104453857D01*
X91272982Y-94599922D02*
X91092129Y-94456135D01*
X91313762Y-94635442D02*
X91272982Y-94599922D01*
X91350662Y-94673892D02*
X91313762Y-94635442D01*
X91383632Y-94714972D02*
X91350662Y-94673892D01*
X91412612Y-94758392D02*
X91383632Y-94714972D01*
X91437532Y-94803852D02*
X91412612Y-94758392D01*
X91458342Y-94851072D02*
X91437532Y-94803852D01*
X91474972Y-94899752D02*
X91458342Y-94851072D01*
X91487382Y-94949602D02*
X91474972Y-94899752D01*
X91495482Y-95000332D02*
X91487382Y-94949602D01*
X91499182Y-95051632D02*
X91495482Y-95000332D01*
X91498502Y-95103232D02*
X91499182Y-95051632D01*
X91493402Y-95154822D02*
X91498502Y-95103232D01*
X91483702Y-95206122D02*
X91493402Y-95154822D01*
X91469452Y-95256832D02*
X91483702Y-95206122D01*
X91450542Y-95306652D02*
X91469452Y-95256832D01*
X91426932Y-95355312D02*
X91450542Y-95306652D01*
X90910292Y-103918006D02*
X90862672Y-103898736D01*
X90956092Y-103941256D02*
X90910292Y-103918006D01*
X90999812Y-103968376D02*
X90956092Y-103941256D01*
X91041172Y-103999236D02*
X90999812Y-103968376D01*
X91079892Y-104033706D02*
X91041172Y-103999236D01*
X91115712Y-104071676D02*
X91079892Y-104033706D01*
X91148362Y-104113016D02*
X91115712Y-104071676D01*
X91177562Y-104157596D02*
X91148362Y-104113016D01*
X91203042Y-104205296D02*
X91177562Y-104157596D01*
X91412292Y-104617576D02*
X91426932Y-104644696D01*
X91397732Y-104590396D02*
X91412292Y-104617576D01*
X91383272Y-104563186D02*
X91397732Y-104590396D01*
X91368882Y-104535916D02*
X91383272Y-104563186D01*
X104896302Y-108501008D02*
X104844712Y-108506108D01*
X104947892Y-108500349D02*
X104896302Y-108501008D01*
X104999202Y-108504149D02*
X104947892Y-108500349D01*
X105049922Y-108512249D02*
X104999202Y-108504149D01*
X105099772Y-108524649D02*
X105049922Y-108512249D01*
X105148452Y-108541279D02*
X105099772Y-108524649D01*
X105195672Y-108562089D02*
X105148452Y-108541279D01*
X105241132Y-108587009D02*
X105195672Y-108562089D01*
X105284552Y-108615979D02*
X105241132Y-108587009D01*
X105325632Y-108648949D02*
X105284552Y-108615979D01*
X105364082Y-108685849D02*
X105325632Y-108648949D01*
X105399602Y-108726629D02*
X105364082Y-108685849D01*
X105543388Y-108907393D02*
X105399602Y-108726629D01*
X105687174Y-109088156D02*
X105543388Y-108907393D01*
X93241238Y-108025063D02*
X93368722Y-107832456D01*
X93113753Y-108217671D02*
X93241238Y-108025063D01*
X92986269Y-108410278D02*
X93113753Y-108217671D01*
X92858784Y-108602886D02*
X92986269Y-108410278D01*
X92731300Y-108795493D02*
X92858784Y-108602886D01*
X92603816Y-108988101D02*
X92731300Y-108795493D01*
X92476331Y-109180708D02*
X92603816Y-108988101D01*
X92348847Y-109373316D02*
X92476331Y-109180708D01*
X92221363Y-109565923D02*
X92348847Y-109373316D01*
X92093878Y-109758530D02*
X92221363Y-109565923D01*
X91966394Y-109951138D02*
X92093878Y-109758530D01*
X91838910Y-110143745D02*
X91966394Y-109951138D01*
X91711425Y-110336353D02*
X91838910Y-110143745D01*
X91583941Y-110528960D02*
X91711425Y-110336353D01*
X91456456Y-110721568D02*
X91583941Y-110528960D01*
X91328972Y-110914175D02*
X91456456Y-110721568D01*
X89814943Y-102519983D02*
X90031292Y-102439093D01*
X89598594Y-102600873D02*
X89814943Y-102519983D01*
X89382246Y-102681763D02*
X89598594Y-102600873D01*
X89165897Y-102762653D02*
X89382246Y-102681763D01*
X88949548Y-102843543D02*
X89165897Y-102762653D01*
X88733200Y-102924433D02*
X88949548Y-102843543D01*
X88516851Y-103005323D02*
X88733200Y-102924433D01*
X88300502Y-103086213D02*
X88516851Y-103005323D01*
X88084153Y-103167103D02*
X88300502Y-103086213D01*
X87867805Y-103247993D02*
X88084153Y-103167103D01*
X87651456Y-103328883D02*
X87867805Y-103247993D01*
X87435107Y-103409773D02*
X87651456Y-103328883D01*
X87218758Y-103490663D02*
X87435107Y-103409773D01*
X87002409Y-103571553D02*
X87218758Y-103490663D01*
X86786061Y-103652443D02*
X87002409Y-103571553D01*
X86569712Y-103733333D02*
X86786061Y-103652443D01*
X102363392Y-109827444D02*
X102331052Y-109786464D01*
X102392272Y-109871494D02*
X102363392Y-109827444D01*
X102417442Y-109918474D02*
X102392272Y-109871494D01*
X102438612Y-109968234D02*
X102417442Y-109918474D01*
X102519502Y-110184583D02*
X102438612Y-109968234D01*
X102600392Y-110400931D02*
X102519502Y-110184583D01*
X102681282Y-110617280D02*
X102600392Y-110400931D01*
X102762172Y-110833628D02*
X102681282Y-110617280D01*
X102843062Y-111049977D02*
X102762172Y-110833628D01*
X102923952Y-111266325D02*
X102843062Y-111049977D01*
X103004842Y-111482674D02*
X102923952Y-111266325D01*
X103085732Y-111699022D02*
X103004842Y-111482674D01*
X103166622Y-111915371D02*
X103085732Y-111699022D01*
X103247512Y-112131719D02*
X103166622Y-111915371D01*
X103328402Y-112348068D02*
X103247512Y-112131719D01*
X92204716Y-111716744D02*
X92298816Y-111618864D01*
X92102930Y-111786874D02*
X92204716Y-111716744D01*
X91996057Y-111831144D02*
X92102930Y-111786874D01*
X91886702Y-111851444D02*
X91996057Y-111831144D01*
X91777472Y-111849644D02*
X91886702Y-111851444D01*
X91670971Y-111827684D02*
X91777472Y-111849644D01*
X91569802Y-111787424D02*
X91670971Y-111827684D01*
X91476572Y-111730764D02*
X91569802Y-111787424D01*
X91393882Y-111659604D02*
X91476572Y-111730764D01*
X91324332Y-111575824D02*
X91393882Y-111659604D01*
X91270532Y-111481324D02*
X91324332Y-111575824D01*
X91235092Y-111377990D02*
X91270532Y-111481324D01*
X91220622Y-111267715D02*
X91235092Y-111377990D01*
X108957876Y-96000753D02*
X108999236Y-96031613D01*
X108919156Y-95966283D02*
X108957876Y-96000753D01*
X108883336Y-95928323D02*
X108919156Y-95966283D01*
X108850686Y-95886983D02*
X108883336Y-95928323D01*
X108821486Y-95842403D02*
X108850686Y-95886983D01*
X108796006Y-95794703D02*
X108821486Y-95842403D01*
X93061782Y-93149442D02*
X93040162Y-93171412D01*
X93083472Y-93127542D02*
X93061782Y-93149442D01*
X93105232Y-93105712D02*
X93083472Y-93127542D01*
X93127062Y-93083952D02*
X93105232Y-93105712D01*
X93148962Y-93062262D02*
X93127062Y-93083952D01*
X93170932Y-93040632D02*
X93148962Y-93062262D01*
X93192962Y-93019082D02*
X93170932Y-93040632D01*
X93215062Y-92997592D02*
X93192962Y-93019082D01*
X93237232Y-92976182D02*
X93215062Y-92997592D01*
X93259472Y-92954842D02*
X93237232Y-92976182D01*
X93281782Y-92933562D02*
X93259472Y-92954842D01*
X92894122Y-93319747D02*
X92933102Y-93282257D01*
X92852582Y-93353127D02*
X92894122Y-93319747D01*
X92808762Y-93382357D02*
X92852582Y-93353127D01*
X92762952Y-93407397D02*
X92808762Y-93382357D01*
X92715462Y-93428217D02*
X92762952Y-93407397D01*
X92666602Y-93444787D02*
X92715462Y-93428217D01*
X92616652Y-93457097D02*
X92666602Y-93444787D01*
X92565902Y-93464997D02*
X92616652Y-93457097D01*
X92514662Y-93468597D02*
X92565902Y-93464997D01*
X92463222Y-93467826D02*
X92514662Y-93468597D01*
X106739576Y-107045157D02*
X106761816Y-107023817D01*
X106717266Y-107066437D02*
X106739576Y-107045157D01*
X107104946Y-106680252D02*
X107065966Y-106717742D01*
X107146486Y-106646872D02*
X107104946Y-106680252D01*
X107190306Y-106617642D02*
X107146486Y-106646872D01*
X107236106Y-106592602D02*
X107190306Y-106617642D01*
X107283596Y-106571782D02*
X107236106Y-106592602D01*
X107332456Y-106555212D02*
X107283596Y-106571782D01*
X107382406Y-106542902D02*
X107332456Y-106555212D01*
X88561445Y-92443137D02*
X88380682Y-92299351D01*
X88742208Y-92586922D02*
X88561445Y-92443137D01*
X88922971Y-92730708D02*
X88742208Y-92586922D01*
X89103735Y-92874494D02*
X88922971Y-92730708D01*
X89284498Y-93018279D02*
X89103735Y-92874494D01*
X89465261Y-93162065D02*
X89284498Y-93018279D01*
X89646024Y-93305850D02*
X89465261Y-93162065D01*
X89826787Y-93449636D02*
X89646024Y-93305850D01*
X90007550Y-93593422D02*
X89826787Y-93449636D01*
X90188313Y-93737207D02*
X90007550Y-93593422D01*
X90369076Y-93880993D02*
X90188313Y-93737207D01*
X90549840Y-94024779D02*
X90369076Y-93880993D01*
X90730603Y-94168564D02*
X90549840Y-94024779D01*
X90911366Y-94312350D02*
X90730603Y-94168564D01*
X91092129Y-94456135D02*
X90911366Y-94312350D01*
X111437612Y-107556863D02*
X111618376Y-107700649D01*
X111256848Y-107413078D02*
X111437612Y-107556863D01*
X111076085Y-107269292D02*
X111256848Y-107413078D01*
X110895321Y-107125506D02*
X111076085Y-107269292D01*
X110714557Y-106981721D02*
X110895321Y-107125506D01*
X110533794Y-106837935D02*
X110714557Y-106981721D01*
X110353030Y-106694149D02*
X110533794Y-106837935D01*
X110172266Y-106550364D02*
X110353030Y-106694149D01*
X109991502Y-106406578D02*
X110172266Y-106550364D01*
X109810739Y-106262792D02*
X109991502Y-106406578D01*
X90418632Y-101821852D02*
X90411232Y-101768282D01*
X90421232Y-101875082D02*
X90418632Y-101821852D01*
X90419132Y-101927712D02*
X90421232Y-101875082D01*
X90412432Y-101979482D02*
X90419132Y-101927712D01*
X90401372Y-102030132D02*
X90412432Y-101979482D01*
X90386052Y-102079412D02*
X90401372Y-102030132D01*
X90366632Y-102127042D02*
X90386052Y-102079412D01*
X90343252Y-102172782D02*
X90366632Y-102127042D01*
X90316052Y-102216352D02*
X90343252Y-102172782D01*
X90285192Y-102257512D02*
X90316052Y-102216352D01*
X90250812Y-102295992D02*
X90285192Y-102257512D01*
X90213062Y-102331532D02*
X90250812Y-102295992D01*
X90172082Y-102363872D02*
X90213062Y-102331532D01*
X90128032Y-102392752D02*
X90172082Y-102363872D01*
X90081052Y-102417922D02*
X90128032Y-102392752D01*
X90031292Y-102439093D02*
X90081052Y-102417922D01*
X107700176Y-111618845D02*
X107556390Y-111438082D01*
X108734044Y-111033910D02*
X108670044Y-110914166D01*
X108769294Y-111152385D02*
X108734044Y-111033910D01*
X108778394Y-111267708D02*
X108769294Y-111152385D01*
X108763904Y-111377981D02*
X108778394Y-111267708D01*
X108728464Y-111481315D02*
X108763904Y-111377981D01*
X108674664Y-111575815D02*
X108728464Y-111481315D01*
X108605114Y-111659595D02*
X108674664Y-111575815D01*
X108522424Y-111730755D02*
X108605114Y-111659595D01*
X90338312Y-98688226D02*
X90334212Y-98718776D01*
X90342512Y-98657686D02*
X90338312Y-98688226D01*
X90346812Y-98627166D02*
X90342512Y-98657686D01*
X90351212Y-98596656D02*
X90346812Y-98627166D01*
X90355712Y-98566166D02*
X90351212Y-98596656D01*
X90360312Y-98535676D02*
X90355712Y-98566166D01*
X90364912Y-98505206D02*
X90360312Y-98535676D01*
X90369712Y-98474756D02*
X90364912Y-98505206D01*
X90374612Y-98444316D02*
X90369712Y-98474756D01*
X90379512Y-98413896D02*
X90374612Y-98444316D01*
X90384512Y-98383496D02*
X90379512Y-98413896D01*
X90389712Y-98353106D02*
X90384512Y-98383496D01*
X90395012Y-98322736D02*
X90389712Y-98353106D01*
X90400312Y-98292376D02*
X90395012Y-98322736D01*
X90405712Y-98262036D02*
X90400312Y-98292376D01*
X90411212Y-98231716D02*
X90405712Y-98262036D01*
X103409292Y-112564416D02*
X103328402Y-112348068D01*
X103490182Y-112780765D02*
X103409292Y-112564416D01*
X103571072Y-112997113D02*
X103490182Y-112780765D01*
X103651962Y-113213462D02*
X103571072Y-112997113D01*
X103732852Y-113429810D02*
X103651962Y-113213462D01*
X104896928Y-113193047D02*
X104873028Y-113059375D01*
X104893828Y-113316626D02*
X104896928Y-113193047D01*
X104866828Y-113429118D02*
X104893828Y-113316626D01*
X104818978Y-113529527D02*
X104866828Y-113429118D01*
X104753338Y-113616857D02*
X104818978Y-113529527D01*
X92204772Y-88283275D02*
X92102983Y-88213145D01*
X92298872Y-88381155D02*
X92204772Y-88283275D01*
X91392721Y-89182140D02*
X91328981Y-89085840D01*
X91456461Y-89278440D02*
X91392721Y-89182140D01*
X91520201Y-89374740D02*
X91456461Y-89278440D01*
X91583941Y-89471040D02*
X91520201Y-89374740D01*
X91711425Y-89663647D02*
X91583941Y-89471040D01*
X91838910Y-89856255D02*
X91711425Y-89663647D01*
X91966394Y-90048862D02*
X91838910Y-89856255D01*
X92093878Y-90241469D02*
X91966394Y-90048862D01*
X92221363Y-90434077D02*
X92093878Y-90241469D01*
X92348847Y-90626684D02*
X92221363Y-90434077D01*
X92476331Y-90819291D02*
X92348847Y-90626684D01*
X92603816Y-91011899D02*
X92476331Y-90819291D01*
X92731300Y-91204506D02*
X92603816Y-91011899D01*
X92858785Y-91397114D02*
X92731300Y-91204506D01*
X92986269Y-91589721D02*
X92858785Y-91397114D01*
X93113753Y-91782328D02*
X92986269Y-91589721D01*
X93241238Y-91974936D02*
X93113753Y-91782328D01*
X93368644Y-92167562D02*
X93241238Y-91974936D01*
X93396454Y-92213942D02*
X93368644Y-92167562D01*
X93419674Y-92261912D02*
X93396454Y-92213942D01*
X103571082Y-87002887D02*
X103651972Y-86786539D01*
X103490192Y-87219236D02*
X103571082Y-87002887D01*
X103409302Y-87435584D02*
X103490192Y-87219236D01*
X91229722Y-111152394D02*
X91220622Y-111267715D01*
X91264962Y-111033917D02*
X91229722Y-111152394D01*
X91328972Y-110914175D02*
X91264962Y-111033917D01*
X92442658Y-111438082D02*
X92298872Y-111618845D01*
X92586443Y-111257318D02*
X92442658Y-111438082D01*
X92730229Y-111076555D02*
X92586443Y-111257318D01*
X92874014Y-110895791D02*
X92730229Y-111076555D01*
X93017800Y-110715028D02*
X92874014Y-110895791D01*
X93161586Y-110534264D02*
X93017800Y-110715028D01*
X93305371Y-110353501D02*
X93161586Y-110534264D01*
X93449157Y-110172737D02*
X93305371Y-110353501D01*
X93592943Y-109991974D02*
X93449157Y-110172737D01*
X93736728Y-109811210D02*
X93592943Y-109991974D01*
X96043852Y-86274703D02*
X95946122Y-86221603D01*
X96131822Y-86349843D02*
X96043852Y-86274703D01*
X96206952Y-86448003D02*
X96131822Y-86349843D01*
X96266192Y-86570190D02*
X96206952Y-86448003D01*
X95187672Y-87163232D02*
X95125942Y-86940657D01*
X95249402Y-87385807D02*
X95187672Y-87163232D01*
X95311132Y-87608382D02*
X95249402Y-87385807D01*
X95372862Y-87830958D02*
X95311132Y-87608382D01*
X95434592Y-88053533D02*
X95372862Y-87830958D01*
X95496322Y-88276108D02*
X95434592Y-88053533D01*
X95558052Y-88498683D02*
X95496322Y-88276108D01*
X95619782Y-88721258D02*
X95558052Y-88498683D01*
X95681512Y-88943833D02*
X95619782Y-88721258D01*
X95743242Y-89166408D02*
X95681512Y-88943833D01*
X95804972Y-89388983D02*
X95743242Y-89166408D01*
X95866702Y-89611559D02*
X95804972Y-89388983D01*
X95928432Y-89834134D02*
X95866702Y-89611559D01*
X95990162Y-90056709D02*
X95928432Y-89834134D01*
X96051892Y-90279284D02*
X95990162Y-90056709D01*
X96113622Y-90501859D02*
X96051892Y-90279284D01*
X96125882Y-90554563D02*
X96113752Y-90501853D01*
X96133082Y-90607363D02*
X96125882Y-90554563D01*
X96135582Y-90659973D02*
X96133082Y-90607363D01*
X96133482Y-90712133D02*
X96135582Y-90659973D01*
X96126882Y-90763563D02*
X96133482Y-90712133D01*
X96115962Y-90813993D02*
X96126882Y-90763563D01*
X96100812Y-90863153D02*
X96115962Y-90813993D01*
X90405672Y-101737954D02*
X90411172Y-101768274D01*
X90400172Y-101707614D02*
X90405672Y-101737954D01*
X90394872Y-101677254D02*
X90400172Y-101707614D01*
X90389572Y-101646884D02*
X90394872Y-101677254D01*
X90384372Y-101616494D02*
X90389572Y-101646884D01*
X90379372Y-101586094D02*
X90384372Y-101616494D01*
X90374472Y-101555674D02*
X90379372Y-101586094D01*
X90369572Y-101525234D02*
X90374472Y-101555674D01*
X90364872Y-101494784D02*
X90369572Y-101525234D01*
X90360172Y-101464314D02*
X90364872Y-101494784D01*
X90355572Y-101433834D02*
X90360172Y-101464314D01*
X90351072Y-101403334D02*
X90355572Y-101433834D01*
X90346672Y-101372824D02*
X90351072Y-101403334D01*
X90342372Y-101342304D02*
X90346672Y-101372824D01*
X90338172Y-101311764D02*
X90342372Y-101342304D01*
X90334072Y-101281214D02*
X90338172Y-101311764D01*
X104672968Y-113690117D02*
X104753338Y-113616857D01*
X104580928Y-113748317D02*
X104672968Y-113690117D01*
X104480284Y-113790437D02*
X104580928Y-113748317D01*
X104374099Y-113815497D02*
X104480284Y-113790437D01*
X104265434Y-113822497D02*
X104374099Y-113815497D01*
X104157350Y-113810467D02*
X104265434Y-113822497D01*
X104052912Y-113778397D02*
X104157350Y-113810467D01*
X103955182Y-113725297D02*
X104052912Y-113778397D01*
X103867222Y-113650157D02*
X103955182Y-113725297D01*
X103792092Y-113551997D02*
X103867222Y-113650157D01*
X103732852Y-113429810D02*
X103792092Y-113551997D01*
X104811362Y-112836767D02*
X104873092Y-113059342D01*
X93880514Y-109630447D02*
X93736728Y-109811210D01*
X94024300Y-109449683D02*
X93880514Y-109630447D01*
X94168085Y-109268920D02*
X94024300Y-109449683D01*
X94311871Y-109088156D02*
X94168085Y-109268920D01*
X94455656Y-108907393D02*
X94311871Y-109088156D01*
X94599442Y-108726629D02*
X94455656Y-108907393D01*
X94634982Y-108685744D02*
X94599462Y-108726524D01*
X94673432Y-108648844D02*
X94634982Y-108685744D01*
X94714512Y-108615874D02*
X94673432Y-108648844D01*
X94757932Y-108586894D02*
X94714512Y-108615874D01*
X94803392Y-108561974D02*
X94757932Y-108586894D01*
X94850612Y-108541164D02*
X94803392Y-108561974D01*
X94899292Y-108524544D02*
X94850612Y-108541164D01*
X98872372Y-109707229D02*
X98822972Y-109688959D01*
X98919552Y-109729569D02*
X98872372Y-109707229D01*
X98964302Y-109755739D02*
X98919552Y-109729569D01*
X99006432Y-109785539D02*
X98964302Y-109755739D01*
X99045732Y-109818729D02*
X99006432Y-109785539D01*
X99082002Y-109855109D02*
X99045732Y-109818729D01*
X99115042Y-109894439D02*
X99082002Y-109855109D01*
X99144642Y-109936509D02*
X99115042Y-109894439D01*
X99170612Y-109981099D02*
X99144642Y-109936509D01*
X99192742Y-110027979D02*
X99170612Y-109981099D01*
X99210832Y-110076939D02*
X99192742Y-110027979D01*
X99224692Y-110127759D02*
X99210832Y-110076939D01*
X99234092Y-110180209D02*
X99224692Y-110127759D01*
X99238822Y-110234079D02*
X99234092Y-110180209D01*
X99248902Y-110464835D02*
X99238822Y-110234079D01*
X90324562Y-98772011D02*
X90334062Y-98718771D01*
X90310562Y-98823431D02*
X90324562Y-98772011D01*
X90292282Y-98872831D02*
X90310562Y-98823431D01*
X90269952Y-98920011D02*
X90292282Y-98872831D01*
X90243782Y-98964771D02*
X90269952Y-98920011D01*
X90213982Y-99006901D02*
X90243782Y-98964771D01*
X90180792Y-99046201D02*
X90213982Y-99006901D01*
X90144422Y-99082471D02*
X90180792Y-99046201D01*
X90105092Y-99115521D02*
X90144422Y-99082471D01*
X90063022Y-99145121D02*
X90105092Y-99115521D01*
X90018432Y-99171091D02*
X90063022Y-99145121D01*
X89971552Y-99193221D02*
X90018432Y-99171091D01*
X89922592Y-99211311D02*
X89971552Y-99193221D01*
X89871772Y-99225171D02*
X89922592Y-99211311D01*
X89819312Y-99234571D02*
X89871772Y-99225171D01*
X109893966Y-100884488D02*
X109854636Y-100917538D01*
X109936036Y-100854878D02*
X109893966Y-100884488D01*
X109980626Y-100828908D02*
X109936036Y-100854878D01*
X110027506Y-100806778D02*
X109980626Y-100828908D01*
X110076466Y-100788688D02*
X110027506Y-100806778D01*
X110127286Y-100774828D02*
X110076466Y-100788688D01*
X110179736Y-100765428D02*
X110127286Y-100774828D01*
X110233606Y-100760698D02*
X110179736Y-100765428D01*
X95886442Y-108851150D02*
X95841862Y-108821950D01*
X95927782Y-108883800D02*
X95886442Y-108851150D01*
X95965752Y-108919620D02*
X95927782Y-108883800D01*
X96000232Y-108958340D02*
X95965752Y-108919620D01*
X96031092Y-108999700D02*
X96000232Y-108958340D01*
X96058212Y-109043420D02*
X96031092Y-108999700D01*
X96081472Y-109089220D02*
X96058212Y-109043420D01*
X96100742Y-109136840D02*
X96081472Y-109089220D01*
X96115892Y-109186000D02*
X96100742Y-109136840D01*
X96126822Y-109236430D02*
X96115892Y-109186000D01*
X96133422Y-109287860D02*
X96126822Y-109236430D01*
X96135522Y-109340020D02*
X96133422Y-109287860D01*
X96133022Y-109392630D02*
X96135522Y-109340020D01*
X96125722Y-109445430D02*
X96133022Y-109392630D01*
X96113682Y-109498140D02*
X96125722Y-109445430D01*
X109918126Y-102417913D02*
X109967886Y-102439103D01*
X109871146Y-102392753D02*
X109918126Y-102417913D01*
X109827086Y-102363873D02*
X109871146Y-102392753D01*
X109786116Y-102331533D02*
X109827086Y-102363873D01*
X109748366Y-102295993D02*
X109786116Y-102331533D01*
X109713986Y-102257513D02*
X109748366Y-102295993D01*
X109683126Y-102216363D02*
X109713986Y-102257513D01*
X89765442Y-99239302D02*
X89819312Y-99234571D01*
X89534686Y-99249372D02*
X89765442Y-99239302D01*
X89303931Y-99259452D02*
X89534686Y-99249372D01*
X89073175Y-99269532D02*
X89303931Y-99259452D01*
X88842419Y-99279612D02*
X89073175Y-99269532D01*
X88611664Y-99289692D02*
X88842419Y-99279612D01*
X88380908Y-99299772D02*
X88611664Y-99289692D01*
X88150153Y-99309852D02*
X88380908Y-99299772D01*
X87919397Y-99319932D02*
X88150153Y-99309852D01*
X87688641Y-99330012D02*
X87919397Y-99319932D01*
X87457886Y-99340092D02*
X87688641Y-99330012D01*
X87227130Y-99350172D02*
X87457886Y-99340092D01*
X86996374Y-99360252D02*
X87227130Y-99350172D01*
X86765619Y-99370332D02*
X86996374Y-99360252D01*
X86534863Y-99380412D02*
X86765619Y-99370332D01*
X86304108Y-99390492D02*
X86534863Y-99380412D01*
X86073352Y-99400572D02*
X86304108Y-99390492D01*
X97969392Y-109598170D02*
X97920112Y-109613490D01*
X98020042Y-109587110D02*
X97969392Y-109598170D01*
X98071812Y-109580410D02*
X98020042Y-109587110D01*
X98124442Y-109578310D02*
X98071812Y-109580410D01*
X98177672Y-109580910D02*
X98124442Y-109578310D01*
X98231242Y-109588310D02*
X98177672Y-109580910D01*
X98687752Y-109661410D02*
X98718302Y-109665510D01*
X98657212Y-109657210D02*
X98687752Y-109661410D01*
X98626692Y-109652910D02*
X98657212Y-109657210D01*
X98596182Y-109648510D02*
X98626692Y-109652910D01*
X98565682Y-109644010D02*
X98596182Y-109648510D01*
X109235966Y-96127333D02*
X109287396Y-96133933D01*
X109185536Y-96116413D02*
X109235966Y-96127333D01*
X109136376Y-96101263D02*
X109185536Y-96116413D01*
X109088756Y-96081993D02*
X109136376Y-96101263D01*
X109042956Y-96058733D02*
X109088756Y-96081993D01*
X108999236Y-96031613D02*
X109042956Y-96058733D01*
X93438334Y-92311172D02*
X93419674Y-92261912D01*
X93452484Y-92361412D02*
X93438334Y-92311172D01*
X93462184Y-92412352D02*
X93452484Y-92361412D01*
X93467384Y-92463692D02*
X93462184Y-92412352D01*
X93468182Y-92515122D02*
X93467384Y-92463692D01*
X93464582Y-92566362D02*
X93468182Y-92515122D01*
X93456582Y-92617112D02*
X93464582Y-92566362D01*
X93444302Y-92667062D02*
X93456582Y-92617112D01*
X93427732Y-92715922D02*
X93444302Y-92667062D01*
X93406912Y-92763402D02*
X93427732Y-92715922D01*
X93381872Y-92809202D02*
X93406912Y-92763402D01*
X93352652Y-92853032D02*
X93381872Y-92809202D01*
X93319272Y-92894582D02*
X93352652Y-92853032D01*
X93281782Y-92933562D02*
X93319272Y-92894582D01*
X92954362Y-93259962D02*
X92933082Y-93282272D01*
X92975702Y-93237722D02*
X92954362Y-93259962D01*
X92997112Y-93215542D02*
X92975702Y-93237722D01*
X93018602Y-93193442D02*
X92997112Y-93215542D01*
X93040162Y-93171412D02*
X93018602Y-93193442D01*
X86806492Y-104897387D02*
X86940151Y-104873527D01*
X86682926Y-104894287D02*
X86806492Y-104897387D01*
X86570444Y-104867277D02*
X86682926Y-104894287D01*
X86470048Y-104819427D02*
X86570444Y-104867277D01*
X86382728Y-104753787D02*
X86470048Y-104819427D01*
X86309478Y-104673417D02*
X86382728Y-104753787D01*
X86251288Y-104581387D02*
X86309478Y-104673417D01*
X86209168Y-104480750D02*
X86251288Y-104581387D01*
X86184108Y-104374574D02*
X86209168Y-104480750D01*
X86177108Y-104265919D02*
X86184108Y-104374574D01*
X86189128Y-104157846D02*
X86177108Y-104265919D01*
X86221188Y-104053413D02*
X86189128Y-104157846D01*
X86274278Y-103955683D02*
X86221188Y-104053413D01*
X104749632Y-112614192D02*
X104811362Y-112836767D01*
X104687902Y-112391617D02*
X104749632Y-112614192D01*
X104626172Y-112169042D02*
X104687902Y-112391617D01*
X104564452Y-111946466D02*
X104626172Y-112169042D01*
X104502722Y-111723891D02*
X104564452Y-111946466D01*
X104440992Y-111501316D02*
X104502722Y-111723891D01*
X104379262Y-111278741D02*
X104440992Y-111501316D01*
X104317532Y-111056166D02*
X104379262Y-111278741D01*
X104255802Y-110833591D02*
X104317532Y-111056166D01*
X104194072Y-110611016D02*
X104255802Y-110833591D01*
X104132352Y-110388441D02*
X104194072Y-110611016D01*
X104070622Y-110165865D02*
X104132352Y-110388441D01*
X104008892Y-109943290D02*
X104070622Y-110165865D01*
X103947162Y-109720715D02*
X104008892Y-109943290D01*
X103885432Y-109498140D02*
X103947162Y-109720715D01*
X94949142Y-108512134D02*
X94899292Y-108524544D01*
X94999872Y-108504034D02*
X94949142Y-108512134D01*
X95051172Y-108500334D02*
X94999872Y-108504034D01*
X95102772Y-108501014D02*
X95051172Y-108500334D01*
X95154362Y-108506114D02*
X95102772Y-108501014D01*
X95205652Y-108515814D02*
X95154362Y-108506114D01*
X95256362Y-108530064D02*
X95205652Y-108515814D01*
X95306182Y-108548974D02*
X95256362Y-108530064D01*
X95354832Y-108572594D02*
X95306182Y-108548974D01*
X95766442Y-108783134D02*
X95794232Y-108796474D01*
X95738692Y-108769704D02*
X95766442Y-108783134D01*
X95710982Y-108756194D02*
X95738692Y-108769704D01*
X95683322Y-108742584D02*
X95710982Y-108756194D01*
X106757810Y-108025063D02*
X106885295Y-108217671D01*
X106630404Y-107832447D02*
X106757810Y-108025063D01*
X106602594Y-107786067D02*
X106630404Y-107832447D01*
X106579374Y-107738097D02*
X106602594Y-107786067D01*
X106560714Y-107688837D02*
X106579374Y-107738097D01*
X106546564Y-107638597D02*
X106560714Y-107688837D01*
X106536864Y-107587657D02*
X106546564Y-107638597D01*
X106531664Y-107536317D02*
X106536864Y-107587657D01*
X106530866Y-107484887D02*
X106531664Y-107536317D01*
X106534466Y-107433647D02*
X106530866Y-107484887D01*
X106542466Y-107382897D02*
X106534466Y-107433647D01*
X106554746Y-107332947D02*
X106542466Y-107382897D01*
X85938869Y-100580832D02*
X86073352Y-100599442D01*
X85822313Y-100539702D02*
X85938869Y-100580832D01*
X85723693Y-100479252D02*
X85822313Y-100539702D01*
X85643003Y-100402712D02*
X85723693Y-100479252D01*
X85580243Y-100313302D02*
X85643003Y-100402712D01*
X85535413Y-100214232D02*
X85580243Y-100313302D01*
X85508513Y-100108729D02*
X85535413Y-100214232D01*
X85499513Y-100000007D02*
X85508513Y-100108729D01*
X85508513Y-99891286D02*
X85499513Y-100000007D01*
X85535413Y-99785782D02*
X85508513Y-99891286D01*
X85580243Y-99686712D02*
X85535413Y-99785782D01*
X85643003Y-99597302D02*
X85580243Y-99686712D01*
X85723693Y-99520762D02*
X85643003Y-99597302D01*
X85822313Y-99460312D02*
X85723693Y-99520762D01*
X85938868Y-99419182D02*
X85822313Y-99460312D01*
X86073352Y-99400572D02*
X85938868Y-99419182D01*
X111827222Y-108328541D02*
X111849182Y-108222034D01*
X111786962Y-108429715D02*
X111827222Y-108328541D01*
X111730312Y-108522945D02*
X111786962Y-108429715D01*
X111659142Y-108605645D02*
X111730312Y-108522945D01*
X111575362Y-108675195D02*
X111659142Y-108605645D01*
X111480862Y-108728995D02*
X111575362Y-108675195D01*
X111377523Y-108764435D02*
X111480862Y-108728995D01*
X111267243Y-108778915D02*
X111377523Y-108764435D01*
X111151920Y-108769815D02*
X111267243Y-108778915D01*
X111033440Y-108734565D02*
X111151920Y-108769815D01*
X110913696Y-108670545D02*
X111033440Y-108734565D01*
X111055691Y-104317945D02*
X110833116Y-104256215D01*
X111278266Y-104379675D02*
X111055691Y-104317945D01*
X111500841Y-104441405D02*
X111278266Y-104379675D01*
X111723416Y-104503135D02*
X111500841Y-104441405D01*
X111945991Y-104564865D02*
X111723416Y-104503135D01*
X112168566Y-104626595D02*
X111945991Y-104564865D01*
X112391141Y-104688325D02*
X112168566Y-104626595D01*
X112613716Y-104750055D02*
X112391141Y-104688325D01*
X112836291Y-104811785D02*
X112613716Y-104750055D01*
X113058866Y-104873515D02*
X112836291Y-104811785D01*
X108287623Y-89663647D02*
X108160139Y-89856255D01*
X108415107Y-89471040D02*
X108287623Y-89663647D01*
X108542592Y-89278432D02*
X108415107Y-89471040D01*
X108670076Y-89085825D02*
X108542592Y-89278432D01*
X105830960Y-109268920D02*
X105687174Y-109088156D01*
X105974745Y-109449683D02*
X105830960Y-109268920D01*
X106118531Y-109630447D02*
X105974745Y-109449683D01*
X106262317Y-109811210D02*
X106118531Y-109630447D01*
X106406103Y-109991974D02*
X106262317Y-109811210D01*
X106549889Y-110172737D02*
X106406103Y-109991974D01*
X106693675Y-110353501D02*
X106549889Y-110172737D01*
X106837461Y-110534264D02*
X106693675Y-110353501D01*
X106981247Y-110715028D02*
X106837461Y-110534264D01*
X107125032Y-110895791D02*
X106981247Y-110715028D01*
X107268818Y-111076555D02*
X107125032Y-110895791D01*
X107412604Y-111257318D02*
X107268818Y-111076555D01*
X107556390Y-111438082D02*
X107412604Y-111257318D01*
X86304108Y-100609438D02*
X86073352Y-100599358D01*
X86534863Y-100619518D02*
X86304108Y-100609438D01*
X86765619Y-100629598D02*
X86534863Y-100619518D01*
X86996374Y-100639678D02*
X86765619Y-100629598D01*
X87227130Y-100649758D02*
X86996374Y-100639678D01*
X87457886Y-100659828D02*
X87227130Y-100649758D01*
X87688641Y-100669908D02*
X87457886Y-100659828D01*
X87919397Y-100679988D02*
X87688641Y-100669908D01*
X88150153Y-100690068D02*
X87919397Y-100679988D01*
X88380908Y-100700148D02*
X88150153Y-100690068D01*
X88611664Y-100710228D02*
X88380908Y-100700148D01*
X88842419Y-100720308D02*
X88611664Y-100710228D01*
X89073175Y-100730388D02*
X88842419Y-100720308D01*
X89303931Y-100740468D02*
X89073175Y-100730388D01*
X89534686Y-100750548D02*
X89303931Y-100740468D01*
X111151912Y-91230209D02*
X111033430Y-91265459D01*
X111267238Y-91221109D02*
X111151912Y-91230209D01*
X111377518Y-91235589D02*
X111267238Y-91221109D01*
X111480856Y-91271029D02*
X111377518Y-91235589D01*
X111575366Y-91324829D02*
X111480856Y-91271029D01*
X109674476Y-98772035D02*
X109688466Y-98823455D01*
X109664976Y-98718785D02*
X109674476Y-98772035D01*
X109593376Y-98262045D02*
X109587876Y-98231725D01*
X93017800Y-89284973D02*
X93161586Y-89465736D01*
X92874014Y-89104209D02*
X93017800Y-89284973D01*
X92730229Y-88923446D02*
X92874014Y-89104209D01*
X92586443Y-88742682D02*
X92730229Y-88923446D01*
X92442658Y-88561919D02*
X92586443Y-88742682D01*
X92298872Y-88381155D02*
X92442658Y-88561919D01*
X91264994Y-88966090D02*
X91328994Y-89085834D01*
X91229744Y-88847615D02*
X91264994Y-88966090D01*
X91218074Y-88731546D02*
X91229744Y-88847615D01*
X91235144Y-88622019D02*
X91218074Y-88731546D01*
X91270584Y-88518685D02*
X91235144Y-88622019D01*
X91324384Y-88424185D02*
X91270584Y-88518685D01*
X91393934Y-88340405D02*
X91324384Y-88424185D01*
X91476624Y-88269245D02*
X91393934Y-88340405D01*
X91569854Y-88212585D02*
X91476624Y-88269245D01*
X91671024Y-88172335D02*
X91569854Y-88212585D01*
X91777525Y-88150375D02*
X91671024Y-88172335D01*
X91886755Y-88148575D02*
X91777525Y-88150375D01*
X91996111Y-88168875D02*
X91886755Y-88148575D01*
X92102983Y-88213145D02*
X91996111Y-88168875D01*
X103865632Y-90712139D02*
X103872232Y-90763569D01*
X103863532Y-90659979D02*
X103865632Y-90712139D01*
X103866032Y-90607369D02*
X103863532Y-90659979D01*
X91216392Y-95766912D02*
X91203052Y-95794702D01*
X91229822Y-95739162D02*
X91216392Y-95766912D01*
X91243332Y-95711452D02*
X91229822Y-95739162D01*
X91256942Y-95683792D02*
X91243332Y-95711452D01*
X91270632Y-95656182D02*
X91256942Y-95683792D01*
X91284402Y-95628612D02*
X91270632Y-95656182D01*
X91298262Y-95601072D02*
X91284402Y-95628612D01*
X91312212Y-95573592D02*
X91298262Y-95601072D01*
X91326252Y-95546142D02*
X91312212Y-95573592D01*
X91340372Y-95518752D02*
X91326252Y-95546142D01*
X91354582Y-95491402D02*
X91340372Y-95518752D01*
X91368882Y-95464092D02*
X91354582Y-95491402D01*
X91383262Y-95436832D02*
X91368882Y-95464092D01*
X91397732Y-95409612D02*
X91383262Y-95436832D01*
X91412292Y-95382442D02*
X91397732Y-95409612D01*
X91426932Y-95355312D02*
X91412292Y-95382442D01*
X107433156Y-106535002D02*
X107382406Y-106542902D01*
X107484396Y-106531402D02*
X107433156Y-106535002D01*
X107535836Y-106532173D02*
X107484396Y-106531402D01*
X107587176Y-106537373D02*
X107535836Y-106532173D01*
X107638116Y-106546973D02*
X107587176Y-106537373D01*
X107688366Y-106561113D02*
X107638116Y-106546973D01*
X107737626Y-106579773D02*
X107688366Y-106561113D01*
X107785606Y-106602993D02*
X107737626Y-106579773D01*
X107831986Y-106630803D02*
X107785606Y-106602993D01*
X108024593Y-106758287D02*
X107831986Y-106630803D01*
X108217200Y-106885771D02*
X108024593Y-106758287D01*
X108409807Y-107013255D02*
X108217200Y-106885771D01*
X100580354Y-114060676D02*
X100598954Y-113926180D01*
X100539224Y-114177239D02*
X100580354Y-114060676D01*
X100478784Y-114275869D02*
X100539224Y-114177239D01*
X100402244Y-114356569D02*
X100478784Y-114275869D01*
X100312834Y-114419329D02*
X100402244Y-114356569D01*
X100213764Y-114464159D02*
X100312834Y-114419329D01*
X100108254Y-114491059D02*
X100213764Y-114464159D01*
X99999528Y-114500059D02*
X100108254Y-114491059D01*
X99890801Y-114491059D02*
X99999528Y-114500059D01*
X99785292Y-114464159D02*
X99890801Y-114491059D01*
X99686222Y-114419329D02*
X99785292Y-114464159D01*
X99596812Y-114356559D02*
X99686222Y-114419329D01*
X91177572Y-95842355D02*
X91203052Y-95794655D01*
X91148372Y-95886935D02*
X91177572Y-95842355D01*
X91115722Y-95928265D02*
X91148372Y-95886935D01*
X91079902Y-95966235D02*
X91115722Y-95928265D01*
X91041182Y-96000705D02*
X91079902Y-95966235D01*
X90999822Y-96031565D02*
X91041182Y-96000705D01*
X90956102Y-96058685D02*
X90999822Y-96031565D01*
X90910302Y-96081945D02*
X90956102Y-96058685D01*
X90862682Y-96101215D02*
X90910302Y-96081945D01*
X90813522Y-96116365D02*
X90862682Y-96101215D01*
X90763092Y-96127295D02*
X90813522Y-96116365D01*
X90711662Y-96133895D02*
X90763092Y-96127295D01*
X90659502Y-96135995D02*
X90711662Y-96133895D01*
X90606892Y-96133495D02*
X90659502Y-96135995D01*
X90554092Y-96126195D02*
X90606892Y-96133495D01*
X89765452Y-100760604D02*
X89534686Y-100750548D01*
X89819322Y-100765404D02*
X89765452Y-100760604D01*
X89871782Y-100774804D02*
X89819322Y-100765404D01*
X89922602Y-100788664D02*
X89871782Y-100774804D01*
X89971562Y-100806754D02*
X89922602Y-100788664D01*
X90018442Y-100828884D02*
X89971562Y-100806754D01*
X90063032Y-100854854D02*
X90018442Y-100828884D01*
X90105102Y-100884464D02*
X90063032Y-100854854D01*
X90144432Y-100917504D02*
X90105102Y-100884464D01*
X90180802Y-100953774D02*
X90144432Y-100917504D01*
X90213992Y-100993074D02*
X90180802Y-100953774D01*
X90243792Y-101035204D02*
X90213992Y-100993074D01*
X90269972Y-101079964D02*
X90243792Y-101035204D01*
X90292302Y-101127144D02*
X90269972Y-101079964D01*
X90310582Y-101176544D02*
X90292302Y-101127144D01*
X90324572Y-101227964D02*
X90310582Y-101176544D01*
X90334072Y-101281214D02*
X90324572Y-101227964D01*
X110464362Y-100750618D02*
X110233606Y-100760698D01*
X110695117Y-100740538D02*
X110464362Y-100750618D01*
X110925873Y-100730458D02*
X110695117Y-100740538D01*
X111156628Y-100720378D02*
X110925873Y-100730458D01*
X111387384Y-100710298D02*
X111156628Y-100720378D01*
X111618140Y-100700218D02*
X111387384Y-100710298D01*
X111848895Y-100690138D02*
X111618140Y-100700218D01*
X112079651Y-100680058D02*
X111848895Y-100690138D01*
X104071202Y-108883806D02*
X104033242Y-108919626D01*
X104112542Y-108851156D02*
X104071202Y-108883806D01*
X104157122Y-108821956D02*
X104112542Y-108851156D01*
X104204822Y-108796476D02*
X104157122Y-108821956D01*
X104617102Y-108587236D02*
X104644222Y-108572596D01*
X104589922Y-108601796D02*
X104617102Y-108587236D01*
X104562712Y-108616256D02*
X104589922Y-108601796D01*
X104535442Y-108630646D02*
X104562712Y-108616256D01*
X104508132Y-108644946D02*
X104535442Y-108630646D01*
X104480782Y-108659156D02*
X104508132Y-108644946D01*
X104453382Y-108673276D02*
X104480782Y-108659156D01*
X104425942Y-108687316D02*
X104453382Y-108673276D01*
X100669502Y-87689118D02*
X100679582Y-87919873D01*
X100659422Y-87458362D02*
X100669502Y-87689118D01*
X93170932Y-106959365D02*
X93192962Y-106980925D01*
X93148962Y-106937745D02*
X93170932Y-106959365D01*
X93127062Y-106916055D02*
X93148962Y-106937745D01*
X93105232Y-106894295D02*
X93127062Y-106916055D01*
X93083472Y-106872465D02*
X93105232Y-106894295D01*
X93061782Y-106850565D02*
X93083472Y-106872465D01*
X93040152Y-106828605D02*
X93061782Y-106850565D01*
X93018602Y-106806565D02*
X93040152Y-106828605D01*
X92997112Y-106784455D02*
X93018602Y-106806565D01*
X92975702Y-106762285D02*
X92997112Y-106784455D01*
X92954362Y-106740035D02*
X92975702Y-106762285D01*
X92933082Y-106717735D02*
X92954362Y-106740035D01*
X93319403Y-107105416D02*
X93281913Y-107066436D01*
X96051952Y-109720715D02*
X96113682Y-109498140D01*
X95990222Y-109943290D02*
X96051952Y-109720715D01*
X95928492Y-110165865D02*
X95990222Y-109943290D01*
X95866762Y-110388441D02*
X95928492Y-110165865D01*
X95805032Y-110611016D02*
X95866762Y-110388441D01*
X95743302Y-110833591D02*
X95805032Y-110611016D01*
X95681572Y-111056166D02*
X95743302Y-110833591D01*
X95619842Y-111278741D02*
X95681572Y-111056166D01*
X95558112Y-111501316D02*
X95619842Y-111278741D01*
X95496382Y-111723891D02*
X95558112Y-111501316D01*
X95434652Y-111946466D02*
X95496382Y-111723891D01*
X95372922Y-112169042D02*
X95434652Y-111946466D01*
X95311192Y-112391617D02*
X95372922Y-112169042D01*
X95249462Y-112614192D02*
X95311192Y-112391617D01*
X95187732Y-112836767D02*
X95249462Y-112614192D01*
X95126002Y-113059342D02*
X95187732Y-112836767D01*
X96081542Y-90910773D02*
X96100812Y-90863153D01*
X96058282Y-90956573D02*
X96081542Y-90910773D01*
X96031162Y-91000293D02*
X96058282Y-90956573D01*
X96000302Y-91041653D02*
X96031162Y-91000293D01*
X95965822Y-91080373D02*
X96000302Y-91041653D01*
X95927852Y-91116203D02*
X95965822Y-91080373D01*
X95886512Y-91148843D02*
X95927852Y-91116203D01*
X95841922Y-91178043D02*
X95886512Y-91148843D01*
X95794222Y-91203523D02*
X95841922Y-91178043D01*
X95381942Y-91412753D02*
X95354822Y-91427393D01*
X95409122Y-91398193D02*
X95381942Y-91412753D01*
X95436332Y-91383733D02*
X95409122Y-91398193D01*
X95463602Y-91369343D02*
X95436332Y-91383733D01*
X95490912Y-91355043D02*
X95463602Y-91369343D01*
X95518262Y-91340833D02*
X95490912Y-91355043D01*
X95545662Y-91326703D02*
X95518262Y-91340833D01*
X95573102Y-91312673D02*
X95545662Y-91326703D01*
X95600592Y-91298723D02*
X95573102Y-91312673D01*
X95628122Y-91284863D02*
X95600592Y-91298723D01*
X95655692Y-91271093D02*
X95628122Y-91284863D01*
X95683312Y-91257403D02*
X95655692Y-91271093D01*
X95710972Y-91243803D02*
X95683312Y-91257403D01*
X95738682Y-91230293D02*
X95710972Y-91243803D01*
X95766432Y-91216873D02*
X95738682Y-91230293D01*
X95794222Y-91203523D02*
X95766432Y-91216873D01*
X95306172Y-91451062D02*
X95354822Y-91427442D01*
X91092129Y-105543864D02*
X91272892Y-105400078D01*
X90911366Y-105687649D02*
X91092129Y-105543864D01*
X90730603Y-105831435D02*
X90911366Y-105687649D01*
X90549839Y-105975221D02*
X90730603Y-105831435D01*
X90369076Y-106119006D02*
X90549839Y-105975221D01*
X90188313Y-106262792D02*
X90369076Y-106119006D01*
X90007550Y-106406578D02*
X90188313Y-106262792D01*
X89826787Y-106550364D02*
X90007550Y-106406578D01*
X89646024Y-106694149D02*
X89826787Y-106550364D01*
X89465261Y-106837935D02*
X89646024Y-106694149D01*
X89284498Y-106981721D02*
X89465261Y-106837935D01*
X89103734Y-107125506D02*
X89284498Y-106981721D01*
X88922971Y-107269292D02*
X89103734Y-107125506D01*
X88742208Y-107413078D02*
X88922971Y-107269292D01*
X88561445Y-107556863D02*
X88742208Y-107413078D01*
X88380682Y-107700649D02*
X88561445Y-107556863D01*
X97398652Y-89599069D02*
X97479542Y-89815418D01*
X97317762Y-89382721D02*
X97398652Y-89599069D01*
X97236872Y-89166372D02*
X97317762Y-89382721D01*
X97155982Y-88950024D02*
X97236872Y-89166372D01*
X97075092Y-88733675D02*
X97155982Y-88950024D01*
X96994202Y-88517327D02*
X97075092Y-88733675D01*
X96913312Y-88300978D02*
X96994202Y-88517327D01*
X96832422Y-88084630D02*
X96913312Y-88300978D01*
X96751532Y-87868281D02*
X96832422Y-88084630D01*
X96670642Y-87651933D02*
X96751532Y-87868281D01*
X96589752Y-87435584D02*
X96670642Y-87651933D01*
X96508862Y-87219236D02*
X96589752Y-87435584D01*
X96427972Y-87002887D02*
X96508862Y-87219236D01*
X96347082Y-86786539D02*
X96427972Y-87002887D01*
X96266192Y-86570190D02*
X96347082Y-86786539D01*
X95102108Y-86806952D02*
X95125998Y-86940623D01*
X95105208Y-86683373D02*
X95102108Y-86806952D01*
X95132208Y-86570881D02*
X95105208Y-86683373D01*
X95180058Y-86470473D02*
X95132208Y-86570881D01*
X95245698Y-86383143D02*
X95180058Y-86470473D01*
X95326068Y-86309883D02*
X95245698Y-86383143D01*
X95418108Y-86251683D02*
X95326068Y-86309883D01*
X95518752Y-86209563D02*
X95418108Y-86251683D01*
X95624936Y-86184503D02*
X95518752Y-86209563D01*
X95733601Y-86177503D02*
X95624936Y-86184503D01*
X95841684Y-86189533D02*
X95733601Y-86177503D01*
X95946122Y-86221603D02*
X95841684Y-86189533D01*
X99520272Y-114275859D02*
X99596812Y-114356559D01*
X99459822Y-114177229D02*
X99520272Y-114275859D01*
X99418702Y-114060665D02*
X99459822Y-114177229D01*
X99400092Y-113926170D02*
X99418702Y-114060665D01*
X100608962Y-113695414D02*
X100598882Y-113926170D01*
X100619042Y-113464659D02*
X100608962Y-113695414D01*
X100629122Y-113233903D02*
X100619042Y-113464659D01*
X100639202Y-113003147D02*
X100629122Y-113233903D01*
X100649282Y-112772392D02*
X100639202Y-113003147D01*
X100659352Y-112541636D02*
X100649282Y-112772392D01*
X100669432Y-112310880D02*
X100659352Y-112541636D01*
X100679512Y-112080125D02*
X100669432Y-112310880D01*
X99418690Y-85939321D02*
X99400090Y-86073817D01*
X99459820Y-85822758D02*
X99418690Y-85939321D01*
X99520260Y-85724128D02*
X99459820Y-85822758D01*
X99596800Y-85643428D02*
X99520260Y-85724128D01*
X99686210Y-85580668D02*
X99596800Y-85643428D01*
X99785280Y-85535838D02*
X99686210Y-85580668D01*
X99890790Y-85508938D02*
X99785280Y-85535838D01*
X99999516Y-85499938D02*
X99890790Y-85508938D01*
X100108243Y-85508938D02*
X99999516Y-85499938D01*
X100213752Y-85535838D02*
X100108243Y-85508938D01*
X100312822Y-85580668D02*
X100213752Y-85535838D01*
X100402232Y-85643438D02*
X100312822Y-85580668D01*
X100478772Y-85724138D02*
X100402232Y-85643438D01*
X100539222Y-85822768D02*
X100478772Y-85724138D01*
X100580342Y-85939332D02*
X100539222Y-85822768D01*
X100598952Y-86073827D02*
X100580342Y-85939332D01*
X99390082Y-86304583D02*
X99400162Y-86073827D01*
X99380012Y-86535339D02*
X99390082Y-86304583D01*
X99369932Y-86766094D02*
X99380012Y-86535339D01*
X99359852Y-86996850D02*
X99369932Y-86766094D01*
X99349772Y-87227606D02*
X99359852Y-86996850D01*
X99339692Y-87458362D02*
X99349772Y-87227606D01*
X99329612Y-87689118D02*
X99339692Y-87458362D01*
X99319532Y-87919873D02*
X99329612Y-87689118D01*
X99309452Y-88150629D02*
X99319532Y-87919873D01*
X99299372Y-88381385D02*
X99309452Y-88150629D01*
X99289292Y-88612141D02*
X99299372Y-88381385D01*
X99279212Y-88842897D02*
X99289292Y-88612141D01*
X99269132Y-89073653D02*
X99279212Y-88842897D01*
X99259052Y-89304408D02*
X99269132Y-89073653D01*
X99248972Y-89535164D02*
X99259052Y-89304408D01*
X99238892Y-89765927D02*
X99248972Y-89535164D01*
X99234092Y-89819797D02*
X99238892Y-89765927D01*
X99224692Y-89872257D02*
X99234092Y-89819797D01*
X99210832Y-89923077D02*
X99224692Y-89872257D01*
X99192742Y-89972037D02*
X99210832Y-89923077D01*
X99170612Y-90018917D02*
X99192742Y-89972037D01*
X99144642Y-90063507D02*
X99170612Y-90018917D01*
X99115042Y-90105577D02*
X99144642Y-90063507D01*
X99082002Y-90144907D02*
X99115042Y-90105577D01*
X99045732Y-90181277D02*
X99082002Y-90144907D01*
X99006432Y-90214477D02*
X99045732Y-90181277D01*
X98964312Y-90244277D02*
X99006432Y-90214477D01*
X98919552Y-90270447D02*
X98964312Y-90244277D01*
X98872372Y-90292777D02*
X98919552Y-90270447D01*
X98822972Y-90311057D02*
X98872372Y-90292777D01*
X98771552Y-90325047D02*
X98822972Y-90311057D01*
X98718312Y-90334547D02*
X98771552Y-90325047D01*
X98261572Y-90406247D02*
X98231252Y-90411747D01*
X98291912Y-90400747D02*
X98261572Y-90406247D01*
X98322272Y-90395447D02*
X98291912Y-90400747D01*
X98352642Y-90390147D02*
X98322272Y-90395447D01*
X98383032Y-90384947D02*
X98352642Y-90390147D01*
X98413432Y-90379947D02*
X98383032Y-90384947D01*
X98443862Y-90375047D02*
X98413432Y-90379947D01*
X98474292Y-90370147D02*
X98443862Y-90375047D01*
X98504742Y-90365347D02*
X98474292Y-90370147D01*
X98535212Y-90360647D02*
X98504742Y-90365347D01*
X98565692Y-90356047D02*
X98535212Y-90360647D01*
X98596192Y-90351547D02*
X98565692Y-90356047D01*
X98626702Y-90347147D02*
X98596192Y-90351547D01*
X98657222Y-90342847D02*
X98626702Y-90347147D01*
X98687762Y-90338647D02*
X98657222Y-90342847D01*
X98718312Y-90334547D02*
X98687762Y-90338647D01*
X98177672Y-90419106D02*
X98231242Y-90411706D01*
X98124442Y-90421706D02*
X98177672Y-90419106D01*
X98071812Y-90419606D02*
X98124442Y-90421706D01*
X98020042Y-90412906D02*
X98071812Y-90419606D01*
X97969392Y-90401846D02*
X98020042Y-90412906D01*
X97920112Y-90386526D02*
X97969392Y-90401846D01*
X97872482Y-90367106D02*
X97920112Y-90386526D01*
X97826742Y-90343726D02*
X97872482Y-90367106D01*
X97783172Y-90316526D02*
X97826742Y-90343726D01*
X97742012Y-90285666D02*
X97783172Y-90316526D01*
X97703532Y-90251286D02*
X97742012Y-90285666D01*
X97667992Y-90213536D02*
X97703532Y-90251286D01*
X97635652Y-90172556D02*
X97667992Y-90213536D01*
X97606772Y-90128506D02*
X97635652Y-90172556D01*
X97581602Y-90081526D02*
X97606772Y-90128506D01*
X97560432Y-90031766D02*
X97581602Y-90081526D01*
X97479542Y-89815418D02*
X97560432Y-90031766D01*
X92411882Y-93462626D02*
X92463222Y-93467826D01*
X92360942Y-93453026D02*
X92411882Y-93462626D01*
X92310692Y-93438886D02*
X92360942Y-93453026D01*
X92261432Y-93420226D02*
X92310692Y-93438886D01*
X92213452Y-93397006D02*
X92261432Y-93420226D01*
X92167062Y-93369196D02*
X92213452Y-93397006D01*
X91974455Y-93241712D02*
X92167062Y-93369196D01*
X91781848Y-93114228D02*
X91974455Y-93241712D01*
X91589241Y-92986744D02*
X91781848Y-93114228D01*
X91396635Y-92859261D02*
X91589241Y-92986744D01*
X91204028Y-92731777D02*
X91396635Y-92859261D01*
X91011421Y-92604293D02*
X91204028Y-92731777D01*
X90818814Y-92476809D02*
X91011421Y-92604293D01*
X90626207Y-92349325D02*
X90818814Y-92476809D01*
X90433600Y-92221841D02*
X90626207Y-92349325D01*
X90240993Y-92094357D02*
X90433600Y-92221841D01*
X90048386Y-91966873D02*
X90240993Y-92094357D01*
X89855779Y-91839390D02*
X90048386Y-91966873D01*
X89663173Y-91711906D02*
X89855779Y-91839390D01*
X89470566Y-91584422D02*
X89663173Y-91711906D01*
X89277959Y-91456938D02*
X89470566Y-91584422D01*
X89085352Y-91329454D02*
X89277959Y-91456938D01*
X106560626Y-92311153D02*
X106546486Y-92361393D01*
X106579296Y-92261893D02*
X106560626Y-92311153D01*
X106602516Y-92213923D02*
X106579296Y-92261893D01*
X106630326Y-92167543D02*
X106602516Y-92213923D01*
X111850976Y-91887225D02*
X111849176Y-91777991D01*
X111830676Y-91996581D02*
X111850976Y-91887225D01*
X111786406Y-92103460D02*
X111830676Y-91996581D01*
X111716266Y-92205251D02*
X111786406Y-92103460D01*
X111618376Y-92299351D02*
X111716266Y-92205251D01*
X107001936Y-93215544D02*
X106980446Y-93193434D01*
X107023346Y-93237714D02*
X107001936Y-93215544D01*
X107044686Y-93259954D02*
X107023346Y-93237714D01*
X107065966Y-93282264D02*
X107044686Y-93259954D01*
X104749582Y-87385807D02*
X104687852Y-87608382D01*
X104811312Y-87163232D02*
X104749582Y-87385807D01*
X104873042Y-86940657D02*
X104811312Y-87163232D01*
X113233429Y-99370401D02*
X113464185Y-99380481D01*
X113002673Y-99360321D02*
X113233429Y-99370401D01*
X112771918Y-99350241D02*
X113002673Y-99360321D01*
X112541162Y-99340161D02*
X112771918Y-99350241D01*
X112310407Y-99330081D02*
X112541162Y-99340161D01*
X112079651Y-99320001D02*
X112310407Y-99330081D01*
X111848895Y-99309921D02*
X112079651Y-99320001D01*
X106757810Y-91974936D02*
X106630326Y-92167543D01*
X106885295Y-91782328D02*
X106757810Y-91974936D01*
X107012779Y-91589721D02*
X106885295Y-91782328D01*
X107140263Y-91397114D02*
X107012779Y-91589721D01*
X111618140Y-99299841D02*
X111848895Y-99309921D01*
X111387384Y-99289761D02*
X111618140Y-99299841D01*
X111156628Y-99279681D02*
X111387384Y-99289761D01*
X110925873Y-99269601D02*
X111156628Y-99279681D01*
X110695117Y-99259521D02*
X110925873Y-99269601D01*
X110464362Y-99249441D02*
X110695117Y-99259521D01*
X110233596Y-99239395D02*
X110464362Y-99249441D01*
X100828432Y-90018900D02*
X100854402Y-90063490D01*
X100806302Y-89972020D02*
X100828432Y-90018900D01*
X106679645Y-92894583D02*
X106717135Y-92933563D01*
X106646265Y-92853033D02*
X106679645Y-92894583D01*
X106617045Y-92809213D02*
X106646265Y-92853033D01*
X106592005Y-92763403D02*
X106617045Y-92809213D01*
X104157357Y-86189557D02*
X104052919Y-86221627D01*
X104265440Y-86177527D02*
X104157357Y-86189557D01*
X104374105Y-86184527D02*
X104265440Y-86177527D01*
X110610541Y-95805445D02*
X110833116Y-95743715D01*
X110387966Y-95867175D02*
X110610541Y-95805445D01*
X110165391Y-95928905D02*
X110387966Y-95867175D01*
X109942816Y-95990635D02*
X110165391Y-95928905D01*
X109720241Y-96052365D02*
X109942816Y-95990635D01*
X109497666Y-96114095D02*
X109720241Y-96052365D01*
X111945991Y-95435075D02*
X112168566Y-95373345D01*
X111723416Y-95496805D02*
X111945991Y-95435075D01*
X111500841Y-95558535D02*
X111723416Y-95496805D01*
X111278266Y-95620265D02*
X111500841Y-95558535D01*
X111055691Y-95681985D02*
X111278266Y-95620265D01*
X110833116Y-95743715D02*
X111055691Y-95681985D01*
X109634176Y-98505215D02*
X109629476Y-98474765D01*
X109638876Y-98535685D02*
X109634176Y-98505215D01*
X109643476Y-98566165D02*
X109638876Y-98535685D01*
X109647976Y-98596665D02*
X109643476Y-98566165D01*
X109652376Y-98627175D02*
X109647976Y-98596665D01*
X109656676Y-98657695D02*
X109652376Y-98627175D01*
X109660876Y-98688235D02*
X109656676Y-98657695D01*
X103898302Y-90863159D02*
X103917572Y-90910779D01*
X103883152Y-90813999D02*
X103898302Y-90863159D01*
X103872232Y-90763569D02*
X103883152Y-90813999D01*
X113616332Y-95246207D02*
X113529012Y-95180567D01*
X113689582Y-95326577D02*
X113616332Y-95246207D01*
X113747772Y-95418607D02*
X113689582Y-95326577D01*
X113789892Y-95519245D02*
X113747772Y-95418607D01*
X113814952Y-95625423D02*
X113789892Y-95519245D01*
X113821952Y-95734079D02*
X113814952Y-95625423D01*
X110616802Y-97318237D02*
X110400454Y-97399127D01*
X110833151Y-97237347D02*
X110616802Y-97318237D01*
X111049500Y-97156457D02*
X110833151Y-97237347D01*
X111265848Y-97075567D02*
X111049500Y-97156457D01*
X111482197Y-96994677D02*
X111265848Y-97075567D01*
X111698546Y-96913787D02*
X111482197Y-96994677D01*
X111914895Y-96832897D02*
X111698546Y-96913787D01*
X104379212Y-88721258D02*
X104317482Y-88943833D01*
X104440942Y-88498683D02*
X104379212Y-88721258D01*
X104502672Y-88276108D02*
X104440942Y-88498683D01*
X113551479Y-103792585D02*
X113429318Y-103733335D01*
X113649629Y-103867725D02*
X113551479Y-103792585D01*
X113724749Y-103955685D02*
X113649629Y-103867725D01*
X113777839Y-104053415D02*
X113724749Y-103955685D01*
X113809899Y-104157848D02*
X113777839Y-104053415D01*
X113821919Y-104265921D02*
X113809899Y-104157848D01*
X113814919Y-104374576D02*
X113821919Y-104265921D01*
X108511746Y-94949611D02*
X108503646Y-95000331D01*
X108524146Y-94899761D02*
X108511746Y-94949611D01*
X108540786Y-94851081D02*
X108524146Y-94899761D01*
X108561596Y-94803861D02*
X108540786Y-94851081D01*
X108586516Y-94758391D02*
X108561596Y-94803861D01*
X104008842Y-90056709D02*
X103947112Y-90279284D01*
X104070572Y-89834134D02*
X104008842Y-90056709D01*
X104132302Y-89611559D02*
X104070572Y-89834134D01*
X107587166Y-93462673D02*
X107638106Y-93452973D01*
X107535826Y-93467873D02*
X107587166Y-93462673D01*
X107484396Y-93468674D02*
X107535826Y-93467873D01*
X107433156Y-93465074D02*
X107484396Y-93468674D01*
X101874602Y-90421689D02*
X101927232Y-90419489D01*
X101821372Y-90419089D02*
X101874602Y-90421689D01*
X101767802Y-90411689D02*
X101821372Y-90419089D01*
X108586756Y-95382423D02*
X108572116Y-95355303D01*
X108601316Y-95409603D02*
X108586756Y-95382423D01*
X108615776Y-95436813D02*
X108601316Y-95409603D01*
X108630166Y-95464083D02*
X108615776Y-95436813D01*
X95655712Y-108728894D02*
X95683322Y-108742584D01*
X95628132Y-108715124D02*
X95655712Y-108728894D01*
X95600592Y-108701264D02*
X95628132Y-108715124D01*
X95573112Y-108687314D02*
X95600592Y-108701264D01*
X95545662Y-108673274D02*
X95573112Y-108687314D01*
X95518272Y-108659154D02*
X95545662Y-108673274D01*
X95490922Y-108644944D02*
X95518272Y-108659154D01*
X95463612Y-108630644D02*
X95490922Y-108644944D01*
X95436352Y-108616264D02*
X95463612Y-108630644D01*
X95409132Y-108601794D02*
X95436352Y-108616264D01*
X95381962Y-108587234D02*
X95409132Y-108601794D01*
X95354832Y-108572594D02*
X95381962Y-108587234D01*
X95841862Y-108821950D02*
X95794152Y-108796470D01*
X112836291Y-95188165D02*
X113058866Y-95126435D01*
X112613716Y-95249885D02*
X112836291Y-95188165D01*
X112391141Y-95311615D02*
X112613716Y-95249885D01*
X112168566Y-95373345D02*
X112391141Y-95311615D01*
X101311292Y-90338589D02*
X101280742Y-90334489D01*
X108540716Y-105148907D02*
X108561526Y-105196127D01*
X108524086Y-105100227D02*
X108540716Y-105148907D01*
X108511676Y-105050377D02*
X108524086Y-105100227D01*
X108503576Y-104999647D02*
X108511676Y-105050377D01*
X108499876Y-104948347D02*
X108503576Y-104999647D01*
X108500556Y-104896747D02*
X108499876Y-104948347D01*
X108505656Y-104845157D02*
X108500556Y-104896747D01*
X108515356Y-104793867D02*
X108505656Y-104845157D01*
X108529606Y-104743157D02*
X108515356Y-104793867D01*
X108548506Y-104693337D02*
X108529606Y-104743157D01*
X108572116Y-104644687D02*
X108548506Y-104693337D01*
X109629975Y-106119006D02*
X109810739Y-106262792D01*
X109449211Y-105975221D02*
X109629975Y-106119006D01*
X109268447Y-105831435D02*
X109449211Y-105975221D01*
X109087683Y-105687649D02*
X109268447Y-105831435D01*
X108906920Y-105543864D02*
X109087683Y-105687649D01*
X108726086Y-105400057D02*
X108906920Y-105543864D01*
X108685306Y-105364537D02*
X108726086Y-105400057D01*
X108648396Y-105326087D02*
X108685306Y-105364537D01*
X108615426Y-105285007D02*
X108648396Y-105326087D01*
X108586446Y-105241587D02*
X108615426Y-105285007D01*
X108561526Y-105196127D02*
X108586446Y-105241587D01*
X100750142Y-89535164D02*
X100760222Y-89765920D01*
X100740062Y-89304408D02*
X100750142Y-89535164D01*
X105687174Y-90911844D02*
X105830960Y-90731081D01*
X105543388Y-91092608D02*
X105687174Y-90911844D01*
X105399592Y-91273456D02*
X105543388Y-91092608D01*
X105364072Y-91314236D02*
X105399592Y-91273456D01*
X103873192Y-109445446D02*
X103885322Y-109498156D01*
X103865992Y-109392646D02*
X103873192Y-109445446D01*
X103863492Y-109340026D02*
X103865992Y-109392646D01*
X103865592Y-109287866D02*
X103863492Y-109340026D01*
X103872192Y-109236436D02*
X103865592Y-109287866D01*
X103883112Y-109186006D02*
X103872192Y-109236436D01*
X103898262Y-109136846D02*
X103883112Y-109186006D01*
X103917532Y-109089226D02*
X103898262Y-109136846D01*
X103940792Y-109043426D02*
X103917532Y-109089226D01*
X103967912Y-108999706D02*
X103940792Y-109043426D01*
X103998772Y-108958346D02*
X103967912Y-108999706D01*
X104033242Y-108919626D02*
X103998772Y-108958346D01*
X104508122Y-91355046D02*
X104480772Y-91340836D01*
X104535432Y-91369346D02*
X104508122Y-91355046D01*
X104562692Y-91383726D02*
X104535432Y-91369346D01*
X111659146Y-91394379D02*
X111575366Y-91324829D01*
X111730306Y-91477079D02*
X111659146Y-91394379D01*
X111786966Y-91570309D02*
X111730306Y-91477079D01*
X111827216Y-91671485D02*
X111786966Y-91570309D01*
X111849176Y-91777991D02*
X111827216Y-91671485D01*
X110895321Y-92874494D02*
X110714557Y-93018279D01*
X111076085Y-92730708D02*
X110895321Y-92874494D01*
X111256848Y-92586922D02*
X111076085Y-92730708D01*
X111437612Y-92443137D02*
X111256848Y-92586922D01*
X111618376Y-92299351D02*
X111437612Y-92443137D01*
X112131243Y-96752007D02*
X111914895Y-96832897D01*
X112347592Y-96671117D02*
X112131243Y-96752007D01*
X112563941Y-96590227D02*
X112347592Y-96671117D01*
X112780290Y-96509337D02*
X112563941Y-96590227D01*
X112996639Y-96428447D02*
X112780290Y-96509337D01*
X113212987Y-96347557D02*
X112996639Y-96428447D01*
X113429336Y-96266667D02*
X113212987Y-96347557D01*
X108515305Y-95206121D02*
X108529545Y-95256831D01*
X108505605Y-95154831D02*
X108515305Y-95206121D01*
X108500505Y-95103231D02*
X108505605Y-95154831D01*
X108499846Y-95051641D02*
X108500505Y-95103231D01*
X108503646Y-95000331D02*
X108499846Y-95051641D01*
X100709822Y-88612141D02*
X100719902Y-88842897D01*
X100699742Y-88381385D02*
X100709822Y-88612141D01*
X100689662Y-88150629D02*
X100699742Y-88381385D01*
X100679582Y-87919873D02*
X100689662Y-88150629D01*
X104425932Y-91312676D02*
X104398452Y-91298726D01*
X104453382Y-91326716D02*
X104425932Y-91312676D01*
X104480772Y-91340836D02*
X104453382Y-91326716D01*
X106837461Y-89465736D02*
X106981247Y-89284973D01*
X106693675Y-89646500D02*
X106837461Y-89465736D01*
X106549889Y-89827263D02*
X106693675Y-89646500D01*
X106406103Y-90008027D02*
X106549889Y-89827263D01*
X104564402Y-88053533D02*
X104502672Y-88276108D01*
X104626122Y-87830958D02*
X104564402Y-88053533D01*
X104687852Y-87608382D02*
X104626122Y-87830958D01*
X106571185Y-92715923D02*
X106592005Y-92763403D01*
X106554615Y-92667053D02*
X106571185Y-92715923D01*
X106542315Y-92617103D02*
X106554615Y-92667053D01*
X106534415Y-92566353D02*
X106542315Y-92617103D01*
X104194022Y-89388983D02*
X104132302Y-89611559D01*
X104255752Y-89166408D02*
X104194022Y-89388983D01*
X104317482Y-88943833D02*
X104255752Y-89166408D01*
X113192564Y-95102607D02*
X113058902Y-95126477D01*
X113316131Y-95105707D02*
X113192564Y-95102607D01*
X113428611Y-95132707D02*
X113316131Y-95105707D01*
X113529012Y-95180567D02*
X113428611Y-95132707D01*
X100729982Y-89073653D02*
X100740062Y-89304408D01*
X100719902Y-88842897D02*
X100729982Y-89073653D01*
X100649352Y-87227606D02*
X100659422Y-87458362D01*
X100639272Y-86996850D02*
X100649352Y-87227606D01*
X104071252Y-91116199D02*
X104112582Y-91148849D01*
X104033282Y-91080379D02*
X104071252Y-91116199D01*
X103998812Y-91041659D02*
X104033282Y-91080379D01*
X102392272Y-90128379D02*
X102417432Y-90081399D01*
X102363392Y-90172439D02*
X102392272Y-90128379D01*
X102331052Y-90213409D02*
X102363392Y-90172439D01*
X106262317Y-90188790D02*
X106406103Y-90008027D01*
X106118531Y-90369554D02*
X106262317Y-90188790D01*
X105974745Y-90550317D02*
X106118531Y-90369554D01*
X105830960Y-90731081D02*
X105974745Y-90550317D01*
X109950662Y-91966873D02*
X110143269Y-91839390D01*
X109758055Y-92094357D02*
X109950662Y-91966873D01*
X109565448Y-92221841D02*
X109758055Y-92094357D01*
X109372841Y-92349325D02*
X109565448Y-92221841D01*
X104742692Y-91469916D02*
X104793402Y-91484166D01*
X104692872Y-91451016D02*
X104742692Y-91469916D01*
X104644212Y-91427406D02*
X104692872Y-91451016D01*
X103328412Y-87651933D02*
X103409302Y-87435584D01*
X103247522Y-87868281D02*
X103328412Y-87651933D01*
X103166632Y-88084630D02*
X103247522Y-87868281D01*
X105049912Y-91487846D02*
X105099762Y-91475436D01*
X104999182Y-91495946D02*
X105049912Y-91487846D01*
X104947882Y-91499646D02*
X104999182Y-91495946D01*
X104893832Y-86683407D02*
X104866832Y-86570916D01*
X104896932Y-86806985D02*
X104893832Y-86683407D01*
X104873042Y-86940657D02*
X104896932Y-86806985D01*
X108221576Y-88150376D02*
X108112346Y-88148576D01*
X108328077Y-88172336D02*
X108221576Y-88150376D01*
X108429246Y-88212586D02*
X108328077Y-88172336D01*
X108522476Y-88269236D02*
X108429246Y-88212586D01*
X100609032Y-86304583D02*
X100619112Y-86535339D01*
X100598952Y-86073827D02*
X100609032Y-86304583D01*
X108409807Y-92986744D02*
X108602413Y-92859261D01*
X108217200Y-93114228D02*
X108409807Y-92986744D01*
X108024593Y-93241712D02*
X108217200Y-93114228D01*
X107831976Y-93369153D02*
X108024593Y-93241712D01*
X103651972Y-86786539D02*
X103732862Y-86570190D01*
X90501382Y-96114144D02*
X90554092Y-96126195D01*
X90278807Y-96052414D02*
X90501382Y-96114144D01*
X90056232Y-95990684D02*
X90278807Y-96052414D01*
X89833657Y-95928954D02*
X90056232Y-95990684D01*
X89611082Y-95867224D02*
X89833657Y-95928954D01*
X89388507Y-95805494D02*
X89611082Y-95867224D01*
X89165932Y-95743764D02*
X89388507Y-95805494D01*
X88943357Y-95682034D02*
X89165932Y-95743764D01*
X88720782Y-95620314D02*
X88943357Y-95682034D01*
X88498207Y-95558584D02*
X88720782Y-95620314D01*
X88275632Y-95496854D02*
X88498207Y-95558584D01*
X88053057Y-95435124D02*
X88275632Y-95496854D01*
X87830482Y-95373394D02*
X88053057Y-95435124D01*
X87607907Y-95311664D02*
X87830482Y-95373394D01*
X87385332Y-95249934D02*
X87607907Y-95311664D01*
X87162757Y-95188214D02*
X87385332Y-95249934D01*
X86940182Y-95126484D02*
X87162757Y-95188214D01*
X109339546Y-103864005D02*
X109287386Y-103866105D01*
X109392156Y-103866505D02*
X109339546Y-103864005D01*
X109444956Y-103873805D02*
X109392156Y-103866505D01*
X109497666Y-103885845D02*
X109444956Y-103873805D01*
X109720241Y-103947575D02*
X109497666Y-103885845D01*
X109942816Y-104009305D02*
X109720241Y-103947575D01*
X110165391Y-104071035D02*
X109942816Y-104009305D01*
X110387966Y-104132765D02*
X110165391Y-104071035D01*
X110610541Y-104194485D02*
X110387966Y-104132765D01*
X110833116Y-104256215D02*
X110610541Y-104194485D01*
X93352783Y-107146966D02*
X93319403Y-107105416D01*
X93382003Y-107190786D02*
X93352783Y-107146966D01*
X93407043Y-107236596D02*
X93382003Y-107190786D01*
X93427863Y-107284076D02*
X93407043Y-107236596D01*
X93444433Y-107332946D02*
X93427863Y-107284076D01*
X93456733Y-107382896D02*
X93444433Y-107332946D01*
X93464633Y-107433646D02*
X93456733Y-107382896D01*
X93468233Y-107484886D02*
X93464633Y-107433646D01*
X93467462Y-107536326D02*
X93468233Y-107484886D01*
X93462262Y-107587666D02*
X93467462Y-107536326D01*
X93452562Y-107638606D02*
X93462262Y-107587666D01*
X93438422Y-107688846D02*
X93452562Y-107638606D01*
X93419752Y-107738106D02*
X93438422Y-107688846D01*
X93396532Y-107786076D02*
X93419752Y-107738106D01*
X93368722Y-107832456D02*
X93396532Y-107786076D01*
X104398452Y-108701266D02*
X104425942Y-108687316D01*
X104370922Y-108715126D02*
X104398452Y-108701266D01*
X104343352Y-108728906D02*
X104370922Y-108715126D01*
X104315732Y-108742596D02*
X104343352Y-108728906D01*
X104288072Y-108756196D02*
X104315732Y-108742596D01*
X104260362Y-108769706D02*
X104288072Y-108756196D01*
X104232612Y-108783126D02*
X104260362Y-108769706D01*
X104204822Y-108796476D02*
X104232612Y-108783126D01*
X104692882Y-108548948D02*
X104644222Y-108572568D01*
X104742702Y-108530048D02*
X104692882Y-108548948D01*
X104793412Y-108515808D02*
X104742702Y-108530048D01*
X104844712Y-108506108D02*
X104793412Y-108515808D01*
X99258982Y-110695590D02*
X99248902Y-110464835D01*
X99269062Y-110926346D02*
X99258982Y-110695590D01*
X99279142Y-111157102D02*
X99269062Y-110926346D01*
X99289222Y-111387857D02*
X99279142Y-111157102D01*
X99299302Y-111618613D02*
X99289222Y-111387857D01*
X99309382Y-111849369D02*
X99299302Y-111618613D01*
X99319462Y-112080125D02*
X99309382Y-111849369D01*
X99329542Y-112310880D02*
X99319462Y-112080125D01*
X99339622Y-112541636D02*
X99329542Y-112310880D01*
X99349702Y-112772392D02*
X99339622Y-112541636D01*
X99359782Y-113003147D02*
X99349702Y-112772392D01*
X99369862Y-113233903D02*
X99359782Y-113003147D01*
X99379942Y-113464659D02*
X99369862Y-113233903D01*
X99390012Y-113695414D02*
X99379942Y-113464659D01*
X99400092Y-113926170D02*
X99390012Y-113695414D01*
X86349398Y-103867723D02*
X86274278Y-103955683D01*
X86447548Y-103792583D02*
X86349398Y-103867723D01*
X86569712Y-103733333D02*
X86447548Y-103792583D01*
X87162757Y-104811845D02*
X86940182Y-104873575D01*
X87385332Y-104750115D02*
X87162757Y-104811845D01*
X87607907Y-104688385D02*
X87385332Y-104750115D01*
X87830482Y-104626655D02*
X87607907Y-104688385D01*
X88053057Y-104564925D02*
X87830482Y-104626655D01*
X88275632Y-104503195D02*
X88053057Y-104564925D01*
X88498207Y-104441465D02*
X88275632Y-104503195D01*
X88720782Y-104379735D02*
X88498207Y-104441465D01*
X88943357Y-104318005D02*
X88720782Y-104379735D01*
X89165932Y-104256275D02*
X88943357Y-104318005D01*
X114490535Y-99891271D02*
X114463635Y-99785768D01*
X114499535Y-99999993D02*
X114490535Y-99891271D01*
X114490535Y-100108714D02*
X114499535Y-99999993D01*
X114463635Y-100214218D02*
X114490535Y-100108714D01*
X114418805Y-100313288D02*
X114463635Y-100214218D01*
X114356045Y-100402698D02*
X114418805Y-100313288D01*
X114275355Y-100479238D02*
X114356045Y-100402698D01*
X86447572Y-96207410D02*
X86569737Y-96266660D01*
X86349422Y-96132270D02*
X86447572Y-96207410D01*
X86274292Y-96044310D02*
X86349422Y-96132270D01*
X86221202Y-95946580D02*
X86274292Y-96044310D01*
X86189142Y-95842146D02*
X86221202Y-95946580D01*
X86177122Y-95734072D02*
X86189142Y-95842146D01*
X86184122Y-95625415D02*
X86177122Y-95734072D01*
X86209192Y-95519238D02*
X86184122Y-95625415D01*
X86251322Y-95418604D02*
X86209192Y-95519238D01*
X86309502Y-95326574D02*
X86251322Y-95418604D01*
X86382752Y-95246204D02*
X86309502Y-95326574D01*
X86470072Y-95180564D02*
X86382752Y-95246204D01*
X86570473Y-95132714D02*
X86470072Y-95180564D01*
X86682953Y-95105704D02*
X86570473Y-95132714D01*
X86806521Y-95102604D02*
X86682953Y-95105704D01*
X86940182Y-95126484D02*
X86806521Y-95102604D01*
X100689592Y-111849369D02*
X100679512Y-112080125D01*
X100699672Y-111618613D02*
X100689592Y-111849369D01*
X100709752Y-111387857D02*
X100699672Y-111618613D01*
X100719832Y-111157102D02*
X100709752Y-111387857D01*
X100729912Y-110926346D02*
X100719832Y-111157102D01*
X100739992Y-110695590D02*
X100729912Y-110926346D01*
X100750072Y-110464835D02*
X100739992Y-110695590D01*
X100760152Y-110234072D02*
X100750072Y-110464835D01*
X100764952Y-110180202D02*
X100760152Y-110234072D01*
X100774352Y-110127742D02*
X100764952Y-110180202D01*
X100788212Y-110076922D02*
X100774352Y-110127742D01*
X100806302Y-110027962D02*
X100788212Y-110076922D01*
X100828432Y-109981082D02*
X100806302Y-110027962D01*
X100854402Y-109936492D02*
X100828432Y-109981082D01*
X100884002Y-109894422D02*
X100854402Y-109936492D01*
X111033430Y-91265459D02*
X110913687Y-91329479D01*
X95256342Y-91469962D02*
X95306172Y-91451062D01*
X95205632Y-91484202D02*
X95256342Y-91469962D01*
X95154342Y-91493902D02*
X95205632Y-91484202D01*
X95102742Y-91499002D02*
X95154342Y-91493902D01*
X95051152Y-91499661D02*
X95102742Y-91499002D01*
X94999842Y-91495861D02*
X95051152Y-91499661D01*
X94949122Y-91487761D02*
X94999842Y-91495861D01*
X94899272Y-91475361D02*
X94949122Y-91487761D01*
X94850592Y-91458731D02*
X94899272Y-91475361D01*
X94803372Y-91437921D02*
X94850592Y-91458731D01*
X94757912Y-91413001D02*
X94803372Y-91437921D01*
X94714492Y-91384021D02*
X94757912Y-91413001D01*
X94673412Y-91351051D02*
X94714492Y-91384021D01*
X94634962Y-91314151D02*
X94673412Y-91351051D01*
X94599442Y-91273371D02*
X94634962Y-91314151D01*
X94455656Y-91092608D02*
X94599442Y-91273371D01*
X94311871Y-90911844D02*
X94455656Y-91092608D01*
X94168085Y-90731081D02*
X94311871Y-90911844D01*
X94024300Y-90550317D02*
X94168085Y-90731081D01*
X93880514Y-90369554D02*
X94024300Y-90550317D01*
X93736728Y-90188790D02*
X93880514Y-90369554D01*
X93592943Y-90008027D02*
X93736728Y-90188790D01*
X93449157Y-89827263D02*
X93592943Y-90008027D01*
X93305371Y-89646500D02*
X93449157Y-89827263D01*
X93161586Y-89465736D02*
X93305371Y-89646500D01*
X96206957Y-113551964D02*
X96266197Y-113429779D01*
X96131817Y-113650124D02*
X96206957Y-113551964D01*
X96043857Y-113725264D02*
X96131817Y-113650124D01*
X95946127Y-113778374D02*
X96043857Y-113725264D01*
X95841688Y-113810444D02*
X95946127Y-113778374D01*
X95733605Y-113822474D02*
X95841688Y-113810444D01*
X95624939Y-113815474D02*
X95733605Y-113822474D01*
X95518755Y-113790404D02*
X95624939Y-113815474D01*
X95418112Y-113748274D02*
X95518755Y-113790404D01*
X95326072Y-113690084D02*
X95418112Y-113748274D01*
X95245702Y-113616824D02*
X95326072Y-113690084D01*
X95180062Y-113529494D02*
X95245702Y-113616824D01*
X95132212Y-113429085D02*
X95180062Y-113529494D01*
X95105212Y-113316593D02*
X95132212Y-113429085D01*
X88965631Y-108734509D02*
X89085371Y-108670519D01*
X88847159Y-108769749D02*
X88965631Y-108734509D01*
X88731842Y-108778849D02*
X88847159Y-108769749D01*
X88621571Y-108764359D02*
X88731842Y-108778849D01*
X88518242Y-108728919D02*
X88621571Y-108764359D01*
X88423742Y-108675119D02*
X88518242Y-108728919D01*
X88339962Y-108605569D02*
X88423742Y-108675119D01*
X88268802Y-108522879D02*
X88339962Y-108605569D01*
X88212152Y-108429649D02*
X88268802Y-108522879D01*
X88171902Y-108328483D02*
X88212152Y-108429649D01*
X88149942Y-108221988D02*
X88171902Y-108328483D01*
X88148142Y-108112760D02*
X88149942Y-108221988D01*
X88168432Y-108003409D02*
X88148142Y-108112760D01*
X100917042Y-109855092D02*
X100884002Y-109894422D01*
X100953312Y-109818722D02*
X100917042Y-109855092D01*
X100992612Y-109785522D02*
X100953312Y-109818722D01*
X101034732Y-109755732D02*
X100992612Y-109785522D01*
X101079492Y-109729552D02*
X101034732Y-109755732D01*
X101126672Y-109707222D02*
X101079492Y-109729552D01*
X101176072Y-109688942D02*
X101126672Y-109707222D01*
X101227492Y-109674952D02*
X101176072Y-109688942D01*
X101280732Y-109665452D02*
X101227492Y-109674952D01*
X101737472Y-109593752D02*
X101767792Y-109588252D01*
X88212692Y-107896538D02*
X88168432Y-108003409D01*
X88282812Y-107794749D02*
X88212692Y-107896538D01*
X88380682Y-107700649D02*
X88282812Y-107794749D01*
X89277959Y-108543061D02*
X89085352Y-108670545D01*
X89470566Y-108415577D02*
X89277959Y-108543061D01*
X89663173Y-108288093D02*
X89470566Y-108415577D01*
X89855779Y-108160610D02*
X89663173Y-108288093D01*
X90048386Y-108033126D02*
X89855779Y-108160610D01*
X90240993Y-107905642D02*
X90048386Y-108033126D01*
X90433600Y-107778158D02*
X90240993Y-107905642D01*
X90626207Y-107650674D02*
X90433600Y-107778158D01*
X90818814Y-107523190D02*
X90626207Y-107650674D01*
X91011421Y-107395706D02*
X90818814Y-107523190D01*
X91354582Y-104508606D02*
X91368882Y-104535916D01*
X91340372Y-104481256D02*
X91354582Y-104508606D01*
X91326252Y-104453856D02*
X91340372Y-104481256D01*
X91312212Y-104426416D02*
X91326252Y-104453856D01*
X91298262Y-104398926D02*
X91312212Y-104426416D01*
X91284402Y-104371396D02*
X91298262Y-104398926D01*
X91270622Y-104343826D02*
X91284402Y-104371396D01*
X91256932Y-104316206D02*
X91270622Y-104343826D01*
X91243322Y-104288546D02*
X91256932Y-104316206D01*
X91229812Y-104260836D02*
X91243322Y-104288546D01*
X91216392Y-104233086D02*
X91229812Y-104260836D01*
X91203042Y-104205296D02*
X91216392Y-104233086D01*
X91450593Y-104693358D02*
X91426973Y-104644698D01*
X107001926Y-106784457D02*
X107023346Y-106762277D01*
X106980446Y-106806557D02*
X107001926Y-106784457D01*
X106958886Y-106828587D02*
X106980446Y-106806557D01*
X106937266Y-106850557D02*
X106958886Y-106828587D01*
X106915576Y-106872457D02*
X106937266Y-106850557D01*
X106893816Y-106894287D02*
X106915576Y-106872457D01*
X106871986Y-106916047D02*
X106893816Y-106894287D01*
X106850086Y-106937737D02*
X106871986Y-106916047D01*
X106828116Y-106959367D02*
X106850086Y-106937737D01*
X106806086Y-106980917D02*
X106828116Y-106959367D01*
X106783986Y-107002407D02*
X106806086Y-106980917D01*
X106761816Y-107023817D02*
X106783986Y-107002407D01*
X98535202Y-109639410D02*
X98565682Y-109644010D01*
X98504732Y-109634710D02*
X98535202Y-109639410D01*
X98474282Y-109629910D02*
X98504732Y-109634710D01*
X98443842Y-109625010D02*
X98474282Y-109629910D01*
X98413422Y-109620110D02*
X98443842Y-109625010D01*
X98383022Y-109615110D02*
X98413422Y-109620110D01*
X98352632Y-109609910D02*
X98383022Y-109615110D01*
X98322262Y-109604610D02*
X98352632Y-109609910D01*
X98291902Y-109599310D02*
X98322262Y-109604610D01*
X98261562Y-109593810D02*
X98291902Y-109599310D01*
X98231242Y-109588310D02*
X98261562Y-109593810D01*
X98771552Y-109674969D02*
X98718312Y-109665469D01*
X98822972Y-109688959D02*
X98771552Y-109674969D01*
X108287623Y-110336353D02*
X108415107Y-110528960D01*
X108160139Y-110143745D02*
X108287623Y-110336353D01*
X108032654Y-109951138D02*
X108160139Y-110143745D01*
X107905170Y-109758530D02*
X108032654Y-109951138D01*
X107777685Y-109565923D02*
X107905170Y-109758530D01*
X107650201Y-109373316D02*
X107777685Y-109565923D01*
X107522717Y-109180708D02*
X107650201Y-109373316D01*
X107395232Y-108988101D02*
X107522717Y-109180708D01*
X107267748Y-108795493D02*
X107395232Y-108988101D01*
X107140263Y-108602886D02*
X107267748Y-108795493D01*
X107012779Y-108410278D02*
X107140263Y-108602886D01*
X106885295Y-108217671D02*
X107012779Y-108410278D01*
X88282787Y-92205195D02*
X88380657Y-92299295D01*
X88212667Y-92103408D02*
X88282787Y-92205195D01*
X88168407Y-91996538D02*
X88212667Y-92103408D01*
X88148107Y-91887185D02*
X88168407Y-91996538D01*
X88149907Y-91777957D02*
X88148107Y-91887185D01*
X88171867Y-91671459D02*
X88149907Y-91777957D01*
X88212117Y-91570294D02*
X88171867Y-91671459D01*
X88268777Y-91477064D02*
X88212117Y-91570294D01*
X88339937Y-91394374D02*
X88268777Y-91477064D01*
X88423717Y-91324824D02*
X88339937Y-91394374D01*
X88518217Y-91271024D02*
X88423717Y-91324824D01*
X88621549Y-91235584D02*
X88518217Y-91271024D01*
X88731820Y-91221104D02*
X88621549Y-91235584D01*
X88847138Y-91230204D02*
X88731820Y-91221104D01*
X88965612Y-91265444D02*
X88847138Y-91230204D01*
X89085352Y-91329454D02*
X88965612Y-91265444D01*
X97236862Y-110833628D02*
X97155972Y-111049977D01*
X97317752Y-110617280D02*
X97236862Y-110833628D01*
X97398642Y-110400931D02*
X97317752Y-110617280D01*
X97479532Y-110184583D02*
X97398642Y-110400931D01*
X97560422Y-109968260D02*
X97479532Y-110184583D01*
X97581612Y-109918500D02*
X97560422Y-109968260D01*
X97606772Y-109871520D02*
X97581612Y-109918500D01*
X97635652Y-109827460D02*
X97606772Y-109871520D01*
X97667992Y-109786490D02*
X97635652Y-109827460D01*
X97703532Y-109748740D02*
X97667992Y-109786490D01*
X97742012Y-109714360D02*
X97703532Y-109748740D01*
X97783162Y-109683500D02*
X97742012Y-109714360D01*
X97826742Y-109656300D02*
X97783162Y-109683500D01*
X97872482Y-109632910D02*
X97826742Y-109656300D01*
X97920112Y-109613490D02*
X97872482Y-109632910D01*
X100884002Y-90105560D02*
X100917042Y-90144890D01*
X100854402Y-90063490D02*
X100884002Y-90105560D01*
X107785586Y-93396963D02*
X107831976Y-93369153D01*
X107737616Y-93420173D02*
X107785586Y-93396963D01*
X107688346Y-93438823D02*
X107737616Y-93420173D01*
X107638106Y-93452973D02*
X107688346Y-93438823D01*
X95102112Y-113193015D02*
X95105212Y-113316593D01*
X95126002Y-113059342D02*
X95102112Y-113193015D01*
X96347072Y-113213462D02*
X96266182Y-113429810D01*
X96427962Y-112997113D02*
X96347072Y-113213462D01*
X96508852Y-112780765D02*
X96427962Y-112997113D01*
X96589742Y-112564416D02*
X96508852Y-112780765D01*
X96670632Y-112348068D02*
X96589742Y-112564416D01*
X96751522Y-112131719D02*
X96670632Y-112348068D01*
X96832412Y-111915371D02*
X96751522Y-112131719D01*
X96913302Y-111699022D02*
X96832412Y-111915371D01*
X96994192Y-111482674D02*
X96913302Y-111699022D01*
X97075082Y-111266325D02*
X96994192Y-111482674D01*
X97155972Y-111049977D02*
X97075082Y-111266325D01*
X91204028Y-107268222D02*
X91011421Y-107395706D01*
X91396635Y-107140739D02*
X91204028Y-107268222D01*
X91589241Y-107013255D02*
X91396635Y-107140739D01*
X91781848Y-106885771D02*
X91589241Y-107013255D01*
X91974455Y-106758287D02*
X91781848Y-106885771D01*
X92167062Y-106630846D02*
X91974455Y-106758287D01*
X92213452Y-106603036D02*
X92167062Y-106630846D01*
X92261422Y-106579826D02*
X92213452Y-106603036D01*
X92310692Y-106561176D02*
X92261422Y-106579826D01*
X92360932Y-106547026D02*
X92310692Y-106561176D01*
X92411872Y-106537326D02*
X92360932Y-106547026D01*
X92463212Y-106532126D02*
X92411872Y-106537326D01*
X92514642Y-106531325D02*
X92463212Y-106532126D01*
X92565882Y-106534925D02*
X92514642Y-106531325D01*
X92616632Y-106542925D02*
X92565882Y-106534925D01*
X101707132Y-109599252D02*
X101737472Y-109593752D01*
X101676772Y-109604552D02*
X101707132Y-109599252D01*
X101646402Y-109609852D02*
X101676772Y-109604552D01*
X101616012Y-109615052D02*
X101646402Y-109609852D01*
X101585612Y-109620052D02*
X101616012Y-109615052D01*
X101555182Y-109624952D02*
X101585612Y-109620052D01*
X101524752Y-109629852D02*
X101555182Y-109624952D01*
X101494302Y-109634652D02*
X101524752Y-109629852D01*
X101463832Y-109639352D02*
X101494302Y-109634652D01*
X101433352Y-109643952D02*
X101463832Y-109639352D01*
X101402852Y-109648452D02*
X101433352Y-109643952D01*
X101372342Y-109652852D02*
X101402852Y-109648452D01*
X101341822Y-109657152D02*
X101372342Y-109652852D01*
X101311282Y-109661352D02*
X101341822Y-109657152D01*
X101280732Y-109665452D02*
X101311282Y-109661352D01*
X91469493Y-104743178D02*
X91450593Y-104693358D01*
X91483733Y-104793888D02*
X91469493Y-104743178D01*
X91493433Y-104845188D02*
X91483733Y-104793888D01*
X91498533Y-104896778D02*
X91493433Y-104845188D01*
X91499192Y-104948368D02*
X91498533Y-104896778D01*
X91495392Y-104999678D02*
X91499192Y-104948368D01*
X91487292Y-105050398D02*
X91495392Y-104999678D01*
X91474892Y-105100248D02*
X91487292Y-105050398D01*
X91458252Y-105148928D02*
X91474892Y-105100248D01*
X91437442Y-105196138D02*
X91458252Y-105148928D01*
X91412522Y-105241608D02*
X91437442Y-105196138D01*
X91383542Y-105285028D02*
X91412522Y-105241608D01*
X91350572Y-105326108D02*
X91383542Y-105285028D01*
X91313672Y-105364558D02*
X91350572Y-105326108D01*
X91272892Y-105400078D02*
X91313672Y-105364558D01*
X101341832Y-90342789D02*
X101311292Y-90338589D01*
X101372352Y-90347089D02*
X101341832Y-90342789D01*
X101402862Y-90351489D02*
X101372352Y-90347089D01*
X86786061Y-96347547D02*
X86569712Y-96266657D01*
X87002409Y-96428437D02*
X86786061Y-96347547D01*
X87218758Y-96509327D02*
X87002409Y-96428437D01*
X87435107Y-96590217D02*
X87218758Y-96509327D01*
X87651456Y-96671107D02*
X87435107Y-96590217D01*
X87867805Y-96751997D02*
X87651456Y-96671107D01*
X88084153Y-96832887D02*
X87867805Y-96751997D01*
X88300502Y-96913777D02*
X88084153Y-96832887D01*
X88516851Y-96994667D02*
X88300502Y-96913777D01*
X88733200Y-97075557D02*
X88516851Y-96994667D01*
X88949548Y-97156447D02*
X88733200Y-97075557D01*
X89165897Y-97237337D02*
X88949548Y-97156447D01*
X89382246Y-97318227D02*
X89165897Y-97237337D01*
X89598594Y-97399117D02*
X89382246Y-97318227D01*
X89814943Y-97480007D02*
X89598594Y-97399117D01*
X90031292Y-97560897D02*
X89814943Y-97480007D01*
X113212987Y-103652452D02*
X113429336Y-103733342D01*
X112996639Y-103571562D02*
X113212987Y-103652452D01*
X112780290Y-103490672D02*
X112996639Y-103571562D01*
X112563941Y-103409782D02*
X112780290Y-103490672D01*
X112347592Y-103328892D02*
X112563941Y-103409782D01*
X112131243Y-103248002D02*
X112347592Y-103328892D01*
X111914895Y-103167112D02*
X112131243Y-103248002D01*
X109624436Y-101555683D02*
X109629336Y-101525243D01*
X109619536Y-101586103D02*
X109624436Y-101555683D01*
X109614536Y-101616503D02*
X109619536Y-101586103D01*
X109609336Y-101646893D02*
X109614536Y-101616503D01*
X109604036Y-101677263D02*
X109609336Y-101646893D01*
X109598736Y-101707623D02*
X109604036Y-101677263D01*
X109593336Y-101737963D02*
X109598736Y-101707623D01*
X109587836Y-101768283D02*
X109593336Y-101737963D01*
X114060179Y-99419158D02*
X113925696Y-99400558D01*
X114176735Y-99460298D02*
X114060179Y-99419158D01*
X114275355Y-99520748D02*
X114176735Y-99460298D01*
X114356045Y-99597288D02*
X114275355Y-99520748D01*
X114418805Y-99686698D02*
X114356045Y-99597288D01*
X114463635Y-99785768D02*
X114418805Y-99686698D01*
X101821372Y-109580884D02*
X101767802Y-109588284D01*
X101874602Y-109578284D02*
X101821372Y-109580884D01*
X101927232Y-109580384D02*
X101874602Y-109578284D01*
X101979002Y-109587084D02*
X101927232Y-109580384D01*
X102029652Y-109598144D02*
X101979002Y-109587084D01*
X102078932Y-109613464D02*
X102029652Y-109598144D01*
X102126562Y-109632884D02*
X102078932Y-109613464D01*
X102172302Y-109656274D02*
X102126562Y-109632884D01*
X102215872Y-109683474D02*
X102172302Y-109656274D01*
X102257032Y-109714334D02*
X102215872Y-109683474D01*
X102295512Y-109748714D02*
X102257032Y-109714334D01*
X102331052Y-109786464D02*
X102295512Y-109748714D01*
X92666582Y-106555205D02*
X92616632Y-106542925D01*
X92715452Y-106571775D02*
X92666582Y-106555205D01*
X92762932Y-106592595D02*
X92715452Y-106571775D01*
X92808732Y-106617645D02*
X92762932Y-106592595D01*
X92852562Y-106646865D02*
X92808732Y-106617645D01*
X92894112Y-106680245D02*
X92852562Y-106646865D01*
X92933082Y-106717735D02*
X92894112Y-106680245D01*
X93259472Y-107045165D02*
X93281782Y-107066445D01*
X93237232Y-107023825D02*
X93259472Y-107045165D01*
X93215062Y-107002415D02*
X93237232Y-107023825D01*
X93192962Y-106980925D02*
X93215062Y-107002415D01*
X109664976Y-98718785D02*
X109660876Y-98688235D01*
X109580416Y-98178137D02*
X109587816Y-98231707D01*
X109577816Y-98124907D02*
X109580416Y-98178137D01*
X109579916Y-98072277D02*
X109577816Y-98124907D01*
X109586616Y-98020507D02*
X109579916Y-98072277D01*
X109655926Y-102172783D02*
X109683126Y-102216363D01*
X109632536Y-102127043D02*
X109655926Y-102172783D01*
X109613116Y-102079413D02*
X109632536Y-102127043D01*
X109597796Y-102030133D02*
X109613116Y-102079413D01*
X109586736Y-101979483D02*
X109597796Y-102030133D01*
X109580036Y-101927713D02*
X109586736Y-101979483D01*
X109577836Y-101875083D02*
X109580036Y-101927713D01*
X109580436Y-101821853D02*
X109577836Y-101875083D01*
X109587836Y-101768283D02*
X109580436Y-101821853D01*
X90080922Y-97582086D02*
X90031162Y-97560906D01*
X90127902Y-97607246D02*
X90080922Y-97582086D01*
X90171962Y-97636126D02*
X90127902Y-97607246D01*
X90212932Y-97668466D02*
X90171962Y-97636126D01*
X90250682Y-97704006D02*
X90212932Y-97668466D01*
X90285062Y-97742486D02*
X90250682Y-97704006D01*
X90315922Y-97783636D02*
X90285062Y-97742486D01*
X90343122Y-97827216D02*
X90315922Y-97783636D01*
X90366512Y-97872956D02*
X90343122Y-97827216D01*
X90385932Y-97920586D02*
X90366512Y-97872956D01*
X90401252Y-97969866D02*
X90385932Y-97920586D01*
X90412312Y-98020516D02*
X90401252Y-97969866D01*
X90419012Y-98072286D02*
X90412312Y-98020516D01*
X90421212Y-98124916D02*
X90419012Y-98072286D01*
X90418612Y-98178146D02*
X90421212Y-98124916D01*
X90411212Y-98231716D02*
X90418612Y-98178146D01*
X89388507Y-104194545D02*
X89165932Y-104256275D01*
X89611082Y-104132825D02*
X89388507Y-104194545D01*
X89833657Y-104071095D02*
X89611082Y-104132825D01*
X90056232Y-104009365D02*
X89833657Y-104071095D01*
X90278807Y-103947635D02*
X90056232Y-104009365D01*
X90501382Y-103885905D02*
X90278807Y-103947635D01*
X90554082Y-103873666D02*
X90501372Y-103885796D01*
X90606882Y-103866466D02*
X90554082Y-103873666D01*
X90659492Y-103863966D02*
X90606882Y-103866466D01*
X90711652Y-103866066D02*
X90659492Y-103863966D01*
X90763082Y-103872666D02*
X90711652Y-103866066D01*
X90813512Y-103883586D02*
X90763082Y-103872666D01*
X90862672Y-103898736D02*
X90813512Y-103883586D01*
X101737482Y-90406189D02*
X101707142Y-90400689D01*
X101767802Y-90411689D02*
X101737482Y-90406189D01*
X108429194Y-111787415D02*
X108522424Y-111730755D01*
X108328024Y-111827665D02*
X108429194Y-111787415D01*
X108221523Y-111849625D02*
X108328024Y-111827665D01*
X108112293Y-111851425D02*
X108221523Y-111849625D01*
X108002937Y-111831125D02*
X108112293Y-111851425D01*
X107896065Y-111786855D02*
X108002937Y-111831125D01*
X107794276Y-111716725D02*
X107896065Y-111786855D01*
X107700176Y-111618845D02*
X107794276Y-111716725D01*
X108542592Y-110721568D02*
X108670076Y-110914175D01*
X108415107Y-110528960D02*
X108542592Y-110721568D01*
X110721089Y-108543061D02*
X110528482Y-108415577D01*
X110913696Y-108670545D02*
X110721089Y-108543061D01*
X111716282Y-107794781D02*
X111618392Y-107700681D01*
X111786412Y-107896570D02*
X111716282Y-107794781D01*
X111830682Y-108003446D02*
X111786412Y-107896570D01*
X111850982Y-108112803D02*
X111830682Y-108003446D01*
X111849182Y-108222034D02*
X111850982Y-108112803D01*
X112310407Y-100669978D02*
X112079651Y-100680058D01*
X112541162Y-100659898D02*
X112310407Y-100669978D01*
X112771918Y-100649828D02*
X112541162Y-100659898D01*
X113002674Y-100639748D02*
X112771918Y-100649828D01*
X113233429Y-100629668D02*
X113002674Y-100639748D01*
X113464185Y-100619588D02*
X113233429Y-100629668D01*
X113694940Y-100609508D02*
X113464185Y-100619588D01*
X113925696Y-100599428D02*
X113694940Y-100609508D01*
X108883326Y-104071725D02*
X108850676Y-104113065D01*
X108919146Y-104033755D02*
X108883326Y-104071725D01*
X108957866Y-103999285D02*
X108919146Y-104033755D01*
X108999226Y-103968425D02*
X108957866Y-103999285D01*
X109042946Y-103941305D02*
X108999226Y-103968425D01*
X109088746Y-103918055D02*
X109042946Y-103941305D01*
X109136366Y-103898785D02*
X109088746Y-103918055D01*
X109185526Y-103883635D02*
X109136366Y-103898785D01*
X109235956Y-103872705D02*
X109185526Y-103883635D01*
X109287386Y-103866105D02*
X109235956Y-103872705D01*
X109785986Y-97668457D02*
X109748236Y-97703997D01*
X109826966Y-97636117D02*
X109785986Y-97668457D01*
X109871016Y-97607237D02*
X109826966Y-97636117D01*
X109917996Y-97582077D02*
X109871016Y-97607237D01*
X109967756Y-97560907D02*
X109917996Y-97582077D01*
X110184105Y-97480017D02*
X109967756Y-97560907D01*
X110400454Y-97399127D02*
X110184105Y-97480017D01*
X102600402Y-89599069D02*
X102681292Y-89382721D01*
X102519512Y-89815418D02*
X102600402Y-89599069D01*
X102438622Y-90031766D02*
X102519512Y-89815418D01*
X109674496Y-101227998D02*
X109664996Y-101281238D01*
X109688496Y-101176578D02*
X109674496Y-101227998D01*
X109706776Y-101127178D02*
X109688496Y-101176578D01*
X109729106Y-101079998D02*
X109706776Y-101127178D01*
X109755276Y-101035238D02*
X109729106Y-101079998D01*
X109785076Y-100993108D02*
X109755276Y-101035238D01*
X109818266Y-100953808D02*
X109785076Y-100993108D01*
X109854636Y-100917538D02*
X109818266Y-100953808D01*
X109597676Y-97969857D02*
X109586616Y-98020507D01*
X109612996Y-97920577D02*
X109597676Y-97969857D01*
X109632416Y-97872947D02*
X109612996Y-97920577D01*
X109655796Y-97827207D02*
X109632416Y-97872947D01*
X109682996Y-97783637D02*
X109655796Y-97827207D01*
X109713856Y-97742477D02*
X109682996Y-97783637D01*
X109748236Y-97703997D02*
X109713856Y-97742477D01*
X111698546Y-103086222D02*
X111914895Y-103167112D01*
X111482197Y-103005332D02*
X111698546Y-103086222D01*
X111265848Y-102924442D02*
X111482197Y-103005332D01*
X111049500Y-102843552D02*
X111265848Y-102924442D01*
X110833151Y-102762662D02*
X111049500Y-102843552D01*
X110616802Y-102681772D02*
X110833151Y-102762662D01*
X110400454Y-102600882D02*
X110616802Y-102681772D01*
X110184105Y-102519992D02*
X110400454Y-102600882D01*
X109967756Y-102439102D02*
X110184105Y-102519992D01*
X101616022Y-90384889D02*
X101585622Y-90379889D01*
X101646412Y-90390089D02*
X101616022Y-90384889D01*
X109854616Y-99082495D02*
X109893946Y-99115535D01*
X109818236Y-99046225D02*
X109854616Y-99082495D01*
X109785046Y-99006925D02*
X109818236Y-99046225D01*
X109755246Y-98964795D02*
X109785046Y-99006925D01*
X109729076Y-98920035D02*
X109755246Y-98964795D01*
X109706746Y-98872855D02*
X109729076Y-98920035D01*
X109688466Y-98823455D02*
X109706746Y-98872855D01*
X109660736Y-101311773D02*
X109664836Y-101281223D01*
X109656536Y-101342313D02*
X109660736Y-101311773D01*
X109652236Y-101372833D02*
X109656536Y-101342313D01*
X109647836Y-101403343D02*
X109652236Y-101372833D01*
X109643336Y-101433833D02*
X109647836Y-101403343D01*
X109638736Y-101464323D02*
X109643336Y-101433833D01*
X109634136Y-101494793D02*
X109638736Y-101464323D01*
X109629336Y-101525243D02*
X109634136Y-101494793D01*
X107412604Y-88742682D02*
X107556390Y-88561919D01*
X107268818Y-88923446D02*
X107412604Y-88742682D01*
X107125032Y-89104209D02*
X107268818Y-88923446D01*
X106981247Y-89284973D02*
X107125032Y-89104209D01*
X103085742Y-88300978D02*
X103166632Y-88084630D01*
X103004852Y-88517327D02*
X103085742Y-88300978D01*
X102923962Y-88733675D02*
X103004852Y-88517327D01*
X106530815Y-92515113D02*
X106534415Y-92566353D01*
X106531586Y-92463673D02*
X106530815Y-92515113D01*
X106536786Y-92412333D02*
X106531586Y-92463673D01*
X106546486Y-92361393D02*
X106536786Y-92412333D01*
X108615496Y-94714971D02*
X108586516Y-94758391D01*
X108648466Y-94673891D02*
X108615496Y-94714971D01*
X108685376Y-94635441D02*
X108648466Y-94673891D01*
X108726156Y-94599921D02*
X108685376Y-94635441D01*
X108906920Y-94456135D02*
X108726156Y-94599921D01*
X109991502Y-93593422D02*
X109810739Y-93737207D01*
X110172266Y-93449636D02*
X109991502Y-93593422D01*
X110353030Y-93305850D02*
X110172266Y-93449636D01*
X110533794Y-93162065D02*
X110353030Y-93305850D01*
X110714557Y-93018279D02*
X110533794Y-93162065D01*
X100629192Y-86766094D02*
X100639272Y-86996850D01*
X100619112Y-86535339D02*
X100629192Y-86766094D01*
X107382406Y-93457074D02*
X107433156Y-93465074D01*
X107332456Y-93444794D02*
X107382406Y-93457074D01*
X107283586Y-93428234D02*
X107332456Y-93444794D01*
X107236106Y-93407404D02*
X107283586Y-93428234D01*
X108644466Y-95491393D02*
X108630166Y-95464083D01*
X108658676Y-95518743D02*
X108644466Y-95491393D01*
X108672796Y-95546143D02*
X108658676Y-95518743D01*
X108686836Y-95573583D02*
X108672796Y-95546143D01*
X108700786Y-95601073D02*
X108686836Y-95573583D01*
X108714646Y-95628603D02*
X108700786Y-95601073D01*
X106828116Y-93040634D02*
X106806086Y-93019074D01*
X106850086Y-93062254D02*
X106828116Y-93040634D01*
X106871986Y-93083944D02*
X106850086Y-93062254D01*
X106893816Y-93105704D02*
X106871986Y-93083944D01*
X109598876Y-98292385D02*
X109593376Y-98262045D01*
X109604176Y-98322745D02*
X109598876Y-98292385D01*
X109609476Y-98353115D02*
X109604176Y-98322745D01*
X109614676Y-98383505D02*
X109609476Y-98353115D01*
X109619676Y-98413905D02*
X109614676Y-98383505D01*
X109624576Y-98444325D02*
X109619676Y-98413905D01*
X109629476Y-98474765D02*
X109624576Y-98444325D01*
X107190306Y-93382354D02*
X107236106Y-93407404D01*
X107146486Y-93353134D02*
X107190306Y-93382354D01*
X107104936Y-93319754D02*
X107146486Y-93353134D01*
X107065966Y-93282264D02*
X107104936Y-93319754D01*
X107267748Y-91204506D02*
X107140263Y-91397114D01*
X107395232Y-91011899D02*
X107267748Y-91204506D01*
X107522717Y-90819291D02*
X107395232Y-91011899D01*
X107650201Y-90626684D02*
X107522717Y-90819291D01*
X103867229Y-86349877D02*
X103792089Y-86448037D01*
X103955189Y-86274737D02*
X103867229Y-86349877D01*
X104052919Y-86221627D02*
X103955189Y-86274737D01*
X110721089Y-91456938D02*
X110913696Y-91329454D01*
X110528482Y-91584422D02*
X110721089Y-91456938D01*
X110335875Y-91711906D02*
X110528482Y-91584422D01*
X110143269Y-91839390D02*
X110335875Y-91711906D01*
X109444966Y-96126333D02*
X109497676Y-96114203D01*
X109392166Y-96133533D02*
X109444966Y-96126333D01*
X109339556Y-96136033D02*
X109392166Y-96133533D01*
X109287396Y-96133933D02*
X109339556Y-96136033D01*
X101494312Y-90365289D02*
X101463842Y-90360589D01*
X101524762Y-90370089D02*
X101494312Y-90365289D01*
X103792089Y-86448037D02*
X103732849Y-86570221D01*
X113809932Y-95842153D02*
X113821952Y-95734079D01*
X113777872Y-95946587D02*
X113809932Y-95842153D01*
X113724782Y-96044317D02*
X113777872Y-95946587D01*
X113649652Y-96132277D02*
X113724782Y-96044317D01*
X113551502Y-96207417D02*
X113649652Y-96132277D01*
X113429336Y-96266667D02*
X113551502Y-96207417D01*
X101034742Y-90244260D02*
X101079492Y-90270430D01*
X100992612Y-90214460D02*
X101034742Y-90244260D01*
X102295512Y-90251159D02*
X102331052Y-90213409D01*
X102257032Y-90285539D02*
X102295512Y-90251159D01*
X102215882Y-90316399D02*
X102257032Y-90285539D01*
X100953312Y-90181270D02*
X100992612Y-90214460D01*
X100917042Y-90144890D02*
X100953312Y-90181270D01*
X100788212Y-89923060D02*
X100806302Y-89972020D01*
X100774352Y-89872240D02*
X100788212Y-89923060D01*
X101676782Y-90395389D02*
X101646412Y-90390089D01*
X101707142Y-90400689D02*
X101676782Y-90395389D01*
X107777685Y-90434077D02*
X107650201Y-90626684D01*
X107905170Y-90241469D02*
X107777685Y-90434077D01*
X108032654Y-90048862D02*
X107905170Y-90241469D01*
X108160139Y-89856255D02*
X108032654Y-90048862D01*
X108728426Y-95656173D02*
X108714646Y-95628603D01*
X108742116Y-95683793D02*
X108728426Y-95656173D01*
X108755716Y-95711453D02*
X108742116Y-95683793D01*
X108769236Y-95739163D02*
X108755716Y-95711453D01*
X108782646Y-95766913D02*
X108769236Y-95739163D01*
X101433362Y-90355989D02*
X101402862Y-90351489D01*
X101463842Y-90360589D02*
X101433362Y-90355989D01*
X102417432Y-90081399D02*
X102438622Y-90031639D01*
X108605166Y-88340396D02*
X108522476Y-88269236D01*
X108674716Y-88424176D02*
X108605166Y-88340396D01*
X108728516Y-88518676D02*
X108674716Y-88424176D01*
X108763956Y-88622010D02*
X108728516Y-88518676D01*
X107556390Y-88561919D02*
X107700176Y-88381155D01*
X104343342Y-91271096D02*
X104315722Y-91257406D01*
X104370912Y-91284866D02*
X104343342Y-91271096D01*
X104398452Y-91298726D02*
X104370912Y-91284866D01*
X104589912Y-91398196D02*
X104562692Y-91383726D01*
X104617082Y-91412756D02*
X104589912Y-91398196D01*
X104644212Y-91427406D02*
X104617082Y-91412756D01*
X103967952Y-91000299D02*
X103998812Y-91041659D01*
X103940832Y-90956579D02*
X103967952Y-91000299D01*
X103917572Y-90910779D02*
X103940832Y-90956579D01*
X104232602Y-91216856D02*
X104204812Y-91203516D01*
X104753342Y-86383177D02*
X104672972Y-86309917D01*
X104818982Y-86470507D02*
X104753342Y-86383177D01*
X104866832Y-86570916D02*
X104818982Y-86470507D01*
X109087683Y-94312350D02*
X108906920Y-94456135D01*
X109268447Y-94168564D02*
X109087683Y-94312350D01*
X109449211Y-94024779D02*
X109268447Y-94168564D01*
X109629975Y-93880993D02*
X109449211Y-94024779D01*
X109810739Y-93737207D02*
X109629975Y-93880993D01*
X108796006Y-95794703D02*
X108782646Y-95766913D01*
X108548445Y-95306661D02*
X108572065Y-95355311D01*
X108529545Y-95256831D02*
X108548445Y-95306661D01*
X100764952Y-89819790D02*
X100774352Y-89872240D01*
X100760222Y-89765920D02*
X100764952Y-89819790D01*
X104157162Y-91178049D02*
X104204862Y-91203529D01*
X104112582Y-91148849D02*
X104157162Y-91178049D01*
X109180234Y-92476809D02*
X109372841Y-92349325D01*
X108987627Y-92604293D02*
X109180234Y-92476809D01*
X108795020Y-92731777D02*
X108987627Y-92604293D01*
X108602413Y-92859261D02*
X108795020Y-92731777D01*
X104480289Y-86209597D02*
X104374105Y-86184527D01*
X104580932Y-86251727D02*
X104480289Y-86209597D01*
X104672972Y-86309917D02*
X104580932Y-86251727D01*
X106739576Y-92954834D02*
X106717266Y-92933554D01*
X106761816Y-92976174D02*
X106739576Y-92954834D01*
X106783986Y-92997584D02*
X106761816Y-92976174D01*
X106806086Y-93019074D02*
X106783986Y-92997584D01*
X105325622Y-91351136D02*
X105364072Y-91314236D01*
X105284542Y-91384106D02*
X105325622Y-91351136D01*
X105241122Y-91413086D02*
X105284542Y-91384106D01*
X106571316Y-107284087D02*
X106554746Y-107332947D01*
X106592136Y-107236597D02*
X106571316Y-107284087D01*
X106617176Y-107190787D02*
X106592136Y-107236597D01*
X106646396Y-107146967D02*
X106617176Y-107190787D01*
X106679776Y-107105417D02*
X106646396Y-107146967D01*
X106717266Y-107066437D02*
X106679776Y-107105417D01*
X107044686Y-106740037D02*
X107065966Y-106717727D01*
X107023346Y-106762277D02*
X107044686Y-106740037D01*
X101555202Y-90374989D02*
X101524762Y-90370089D01*
X101585622Y-90379889D02*
X101555202Y-90374989D01*
X101126672Y-90292770D02*
X101176072Y-90311040D01*
X101079492Y-90270430D02*
X101126672Y-90292770D01*
X102843072Y-88950024D02*
X102923962Y-88733675D01*
X102762182Y-89166372D02*
X102843072Y-88950024D01*
X102681292Y-89382721D02*
X102762182Y-89166372D01*
X108602413Y-107140739D02*
X108409807Y-107013255D01*
X108795020Y-107268222D02*
X108602413Y-107140739D01*
X108987627Y-107395706D02*
X108795020Y-107268222D01*
X109180234Y-107523190D02*
X108987627Y-107395706D01*
X109372841Y-107650674D02*
X109180234Y-107523190D01*
X109565448Y-107778158D02*
X109372841Y-107650674D01*
X109758055Y-107905642D02*
X109565448Y-107778158D01*
X109950662Y-108033126D02*
X109758055Y-107905642D01*
X110143269Y-108160610D02*
X109950662Y-108033126D01*
X110335875Y-108288093D02*
X110143269Y-108160610D01*
X110528482Y-108415577D02*
X110335875Y-108288093D01*
X102029652Y-90401729D02*
X102078932Y-90386409D01*
X101979002Y-90412789D02*
X102029652Y-90401729D01*
X101927232Y-90419489D02*
X101979002Y-90412789D01*
X108644476Y-104508597D02*
X108658686Y-104481247D01*
X108630176Y-104535907D02*
X108644476Y-104508597D01*
X108615796Y-104563167D02*
X108630176Y-104535907D01*
X108601326Y-104590387D02*
X108615796Y-104563167D01*
X108586766Y-104617557D02*
X108601326Y-104590387D01*
X108572116Y-104644687D02*
X108586766Y-104617557D01*
X108821476Y-104157645D02*
X108795996Y-104205345D01*
X108850676Y-104113065D02*
X108821476Y-104157645D01*
X103873332Y-90554569D02*
X103866032Y-90607369D01*
X103885382Y-90501859D02*
X103873332Y-90554569D01*
X103947112Y-90279284D02*
X103885382Y-90501859D01*
X106915576Y-93127534D02*
X106893816Y-93105704D01*
X106937266Y-93149434D02*
X106915576Y-93127534D01*
X106958896Y-93171394D02*
X106937266Y-93149434D01*
X106980446Y-93193434D02*
X106958896Y-93171394D01*
X104260352Y-91230286D02*
X104232602Y-91216856D01*
X104288062Y-91243806D02*
X104260352Y-91230286D01*
X104315722Y-91257406D02*
X104288062Y-91243806D01*
X105195662Y-91438006D02*
X105241122Y-91413086D01*
X105148442Y-91458816D02*
X105195662Y-91438006D01*
X105099762Y-91475436D02*
X105148442Y-91458816D01*
X108778426Y-88732285D02*
X108763956Y-88622010D01*
X108769326Y-88847606D02*
X108778426Y-88732285D01*
X108734086Y-88966083D02*
X108769326Y-88847606D01*
X108670076Y-89085825D02*
X108734086Y-88966083D01*
X113789849Y-104480752D02*
X113814919Y-104374576D01*
X113747719Y-104581385D02*
X113789849Y-104480752D01*
X113689539Y-104673415D02*
X113747719Y-104581385D01*
X113616289Y-104753785D02*
X113689539Y-104673415D01*
X113528969Y-104819425D02*
X113616289Y-104753785D01*
X113428570Y-104867275D02*
X113528969Y-104819425D01*
X113316091Y-104894285D02*
X113428570Y-104867275D01*
X113192525Y-104897385D02*
X113316091Y-104894285D01*
X113058866Y-104873515D02*
X113192525Y-104897385D01*
X101227492Y-90325040D02*
X101280732Y-90334540D01*
X101176072Y-90311040D02*
X101227492Y-90325040D01*
X102172302Y-90343599D02*
X102215882Y-90316399D01*
X102126562Y-90366989D02*
X102172302Y-90343599D01*
X102078932Y-90386409D02*
X102126562Y-90366989D01*
M02*
