G04 #@! TF.GenerationSoftware,KiCad,Pcbnew,5.0.2-bee76a0~70~ubuntu18.04.1*
G04 #@! TF.CreationDate,2019-11-11T21:51:23+01:00*
G04 #@! TF.ProjectId,BottomHeater,426f7474-6f6d-4486-9561-7465722e6b69,rev?*
G04 #@! TF.SameCoordinates,Original*
G04 #@! TF.FileFunction,Paste,Top*
G04 #@! TF.FilePolarity,Positive*
%FSLAX46Y46*%
G04 Gerber Fmt 4.6, Leading zero omitted, Abs format (unit mm)*
G04 Created by KiCad (PCBNEW 5.0.2-bee76a0~70~ubuntu18.04.1) date Mo 11 Nov 2019 21:51:23 CET*
%MOMM*%
%LPD*%
G01*
G04 APERTURE LIST*
%ADD10C,1.800000*%
%ADD11C,0.100000*%
%ADD12C,0.590000*%
G04 APERTURE END LIST*
D10*
G04 #@! TO.C,ST2*
X101763300Y-97572900D03*
G04 #@! TD*
G04 #@! TO.C,ST1*
X98236600Y-97572900D03*
G04 #@! TD*
G04 #@! TO.C,HT1*
X97146800Y-100927000D03*
G04 #@! TD*
G04 #@! TO.C,HT2*
X100000000Y-103000000D03*
G04 #@! TD*
G04 #@! TO.C,CT1*
X102853000Y-100927000D03*
G04 #@! TD*
D11*
G04 #@! TO.C,NTC1*
G36*
X99675958Y-96139710D02*
X99690276Y-96141834D01*
X99704317Y-96145351D01*
X99717946Y-96150228D01*
X99731031Y-96156417D01*
X99743447Y-96163858D01*
X99755073Y-96172481D01*
X99765798Y-96182202D01*
X99775519Y-96192927D01*
X99784142Y-96204553D01*
X99791583Y-96216969D01*
X99797772Y-96230054D01*
X99802649Y-96243683D01*
X99806166Y-96257724D01*
X99808290Y-96272042D01*
X99809000Y-96286500D01*
X99809000Y-96631500D01*
X99808290Y-96645958D01*
X99806166Y-96660276D01*
X99802649Y-96674317D01*
X99797772Y-96687946D01*
X99791583Y-96701031D01*
X99784142Y-96713447D01*
X99775519Y-96725073D01*
X99765798Y-96735798D01*
X99755073Y-96745519D01*
X99743447Y-96754142D01*
X99731031Y-96761583D01*
X99717946Y-96767772D01*
X99704317Y-96772649D01*
X99690276Y-96776166D01*
X99675958Y-96778290D01*
X99661500Y-96779000D01*
X99366500Y-96779000D01*
X99352042Y-96778290D01*
X99337724Y-96776166D01*
X99323683Y-96772649D01*
X99310054Y-96767772D01*
X99296969Y-96761583D01*
X99284553Y-96754142D01*
X99272927Y-96745519D01*
X99262202Y-96735798D01*
X99252481Y-96725073D01*
X99243858Y-96713447D01*
X99236417Y-96701031D01*
X99230228Y-96687946D01*
X99225351Y-96674317D01*
X99221834Y-96660276D01*
X99219710Y-96645958D01*
X99219000Y-96631500D01*
X99219000Y-96286500D01*
X99219710Y-96272042D01*
X99221834Y-96257724D01*
X99225351Y-96243683D01*
X99230228Y-96230054D01*
X99236417Y-96216969D01*
X99243858Y-96204553D01*
X99252481Y-96192927D01*
X99262202Y-96182202D01*
X99272927Y-96172481D01*
X99284553Y-96163858D01*
X99296969Y-96156417D01*
X99310054Y-96150228D01*
X99323683Y-96145351D01*
X99337724Y-96141834D01*
X99352042Y-96139710D01*
X99366500Y-96139000D01*
X99661500Y-96139000D01*
X99675958Y-96139710D01*
X99675958Y-96139710D01*
G37*
D12*
X99514000Y-96459000D03*
D11*
G36*
X100645958Y-96139710D02*
X100660276Y-96141834D01*
X100674317Y-96145351D01*
X100687946Y-96150228D01*
X100701031Y-96156417D01*
X100713447Y-96163858D01*
X100725073Y-96172481D01*
X100735798Y-96182202D01*
X100745519Y-96192927D01*
X100754142Y-96204553D01*
X100761583Y-96216969D01*
X100767772Y-96230054D01*
X100772649Y-96243683D01*
X100776166Y-96257724D01*
X100778290Y-96272042D01*
X100779000Y-96286500D01*
X100779000Y-96631500D01*
X100778290Y-96645958D01*
X100776166Y-96660276D01*
X100772649Y-96674317D01*
X100767772Y-96687946D01*
X100761583Y-96701031D01*
X100754142Y-96713447D01*
X100745519Y-96725073D01*
X100735798Y-96735798D01*
X100725073Y-96745519D01*
X100713447Y-96754142D01*
X100701031Y-96761583D01*
X100687946Y-96767772D01*
X100674317Y-96772649D01*
X100660276Y-96776166D01*
X100645958Y-96778290D01*
X100631500Y-96779000D01*
X100336500Y-96779000D01*
X100322042Y-96778290D01*
X100307724Y-96776166D01*
X100293683Y-96772649D01*
X100280054Y-96767772D01*
X100266969Y-96761583D01*
X100254553Y-96754142D01*
X100242927Y-96745519D01*
X100232202Y-96735798D01*
X100222481Y-96725073D01*
X100213858Y-96713447D01*
X100206417Y-96701031D01*
X100200228Y-96687946D01*
X100195351Y-96674317D01*
X100191834Y-96660276D01*
X100189710Y-96645958D01*
X100189000Y-96631500D01*
X100189000Y-96286500D01*
X100189710Y-96272042D01*
X100191834Y-96257724D01*
X100195351Y-96243683D01*
X100200228Y-96230054D01*
X100206417Y-96216969D01*
X100213858Y-96204553D01*
X100222481Y-96192927D01*
X100232202Y-96182202D01*
X100242927Y-96172481D01*
X100254553Y-96163858D01*
X100266969Y-96156417D01*
X100280054Y-96150228D01*
X100293683Y-96145351D01*
X100307724Y-96141834D01*
X100322042Y-96139710D01*
X100336500Y-96139000D01*
X100631500Y-96139000D01*
X100645958Y-96139710D01*
X100645958Y-96139710D01*
G37*
D12*
X100484000Y-96459000D03*
G04 #@! TD*
M02*
