G04 #@! TF.GenerationSoftware,KiCad,Pcbnew,5.0.2-bee76a0~70~ubuntu18.04.1*
G04 #@! TF.CreationDate,2019-11-11T21:51:23+01:00*
G04 #@! TF.ProjectId,BottomHeater,426f7474-6f6d-4486-9561-7465722e6b69,rev?*
G04 #@! TF.SameCoordinates,Original*
G04 #@! TF.FileFunction,Copper,L1,Top*
G04 #@! TF.FilePolarity,Positive*
%FSLAX46Y46*%
G04 Gerber Fmt 4.6, Leading zero omitted, Abs format (unit mm)*
G04 Created by KiCad (PCBNEW 5.0.2-bee76a0~70~ubuntu18.04.1) date Mo 11 Nov 2019 21:51:23 CET*
%MOMM*%
%LPD*%
G01*
G04 APERTURE LIST*
G04 #@! TA.AperFunction,BGAPad,CuDef*
%ADD10C,1.800000*%
G04 #@! TD*
G04 #@! TA.AperFunction,Conductor*
%ADD11C,0.100000*%
G04 #@! TD*
G04 #@! TA.AperFunction,SMDPad,CuDef*
%ADD12C,0.590000*%
G04 #@! TD*
G04 #@! TA.AperFunction,Conductor*
%ADD13C,0.160000*%
G04 #@! TD*
G04 #@! TA.AperFunction,Conductor*
%ADD14C,0.650000*%
G04 #@! TD*
G04 APERTURE END LIST*
D10*
G04 #@! TO.P,ST2,1*
G04 #@! TO.N,Net-(NTC1-Pad1)*
X101763300Y-97572900D03*
G04 #@! TD*
G04 #@! TO.P,ST1,1*
G04 #@! TO.N,Net-(NTC1-Pad2)*
X98236600Y-97572900D03*
G04 #@! TD*
G04 #@! TO.P,HT1,1*
G04 #@! TO.N,Net-(CB1-Pad1)*
X97146800Y-100927000D03*
G04 #@! TD*
G04 #@! TO.P,HT2,1*
G04 #@! TO.N,Net-(CB1-Pad1)*
X100000000Y-103000000D03*
G04 #@! TD*
G04 #@! TO.P,CT1,1*
G04 #@! TO.N,Net-(CB1-Pad1)*
X102853000Y-100927000D03*
G04 #@! TD*
D11*
G04 #@! TO.N,Net-(NTC1-Pad2)*
G04 #@! TO.C,NTC1*
G36*
X99675958Y-96139710D02*
X99690276Y-96141834D01*
X99704317Y-96145351D01*
X99717946Y-96150228D01*
X99731031Y-96156417D01*
X99743447Y-96163858D01*
X99755073Y-96172481D01*
X99765798Y-96182202D01*
X99775519Y-96192927D01*
X99784142Y-96204553D01*
X99791583Y-96216969D01*
X99797772Y-96230054D01*
X99802649Y-96243683D01*
X99806166Y-96257724D01*
X99808290Y-96272042D01*
X99809000Y-96286500D01*
X99809000Y-96631500D01*
X99808290Y-96645958D01*
X99806166Y-96660276D01*
X99802649Y-96674317D01*
X99797772Y-96687946D01*
X99791583Y-96701031D01*
X99784142Y-96713447D01*
X99775519Y-96725073D01*
X99765798Y-96735798D01*
X99755073Y-96745519D01*
X99743447Y-96754142D01*
X99731031Y-96761583D01*
X99717946Y-96767772D01*
X99704317Y-96772649D01*
X99690276Y-96776166D01*
X99675958Y-96778290D01*
X99661500Y-96779000D01*
X99366500Y-96779000D01*
X99352042Y-96778290D01*
X99337724Y-96776166D01*
X99323683Y-96772649D01*
X99310054Y-96767772D01*
X99296969Y-96761583D01*
X99284553Y-96754142D01*
X99272927Y-96745519D01*
X99262202Y-96735798D01*
X99252481Y-96725073D01*
X99243858Y-96713447D01*
X99236417Y-96701031D01*
X99230228Y-96687946D01*
X99225351Y-96674317D01*
X99221834Y-96660276D01*
X99219710Y-96645958D01*
X99219000Y-96631500D01*
X99219000Y-96286500D01*
X99219710Y-96272042D01*
X99221834Y-96257724D01*
X99225351Y-96243683D01*
X99230228Y-96230054D01*
X99236417Y-96216969D01*
X99243858Y-96204553D01*
X99252481Y-96192927D01*
X99262202Y-96182202D01*
X99272927Y-96172481D01*
X99284553Y-96163858D01*
X99296969Y-96156417D01*
X99310054Y-96150228D01*
X99323683Y-96145351D01*
X99337724Y-96141834D01*
X99352042Y-96139710D01*
X99366500Y-96139000D01*
X99661500Y-96139000D01*
X99675958Y-96139710D01*
X99675958Y-96139710D01*
G37*
D12*
G04 #@! TD*
G04 #@! TO.P,NTC1,2*
G04 #@! TO.N,Net-(NTC1-Pad2)*
X99514000Y-96459000D03*
D11*
G04 #@! TO.N,Net-(NTC1-Pad1)*
G04 #@! TO.C,NTC1*
G36*
X100645958Y-96139710D02*
X100660276Y-96141834D01*
X100674317Y-96145351D01*
X100687946Y-96150228D01*
X100701031Y-96156417D01*
X100713447Y-96163858D01*
X100725073Y-96172481D01*
X100735798Y-96182202D01*
X100745519Y-96192927D01*
X100754142Y-96204553D01*
X100761583Y-96216969D01*
X100767772Y-96230054D01*
X100772649Y-96243683D01*
X100776166Y-96257724D01*
X100778290Y-96272042D01*
X100779000Y-96286500D01*
X100779000Y-96631500D01*
X100778290Y-96645958D01*
X100776166Y-96660276D01*
X100772649Y-96674317D01*
X100767772Y-96687946D01*
X100761583Y-96701031D01*
X100754142Y-96713447D01*
X100745519Y-96725073D01*
X100735798Y-96735798D01*
X100725073Y-96745519D01*
X100713447Y-96754142D01*
X100701031Y-96761583D01*
X100687946Y-96767772D01*
X100674317Y-96772649D01*
X100660276Y-96776166D01*
X100645958Y-96778290D01*
X100631500Y-96779000D01*
X100336500Y-96779000D01*
X100322042Y-96778290D01*
X100307724Y-96776166D01*
X100293683Y-96772649D01*
X100280054Y-96767772D01*
X100266969Y-96761583D01*
X100254553Y-96754142D01*
X100242927Y-96745519D01*
X100232202Y-96735798D01*
X100222481Y-96725073D01*
X100213858Y-96713447D01*
X100206417Y-96701031D01*
X100200228Y-96687946D01*
X100195351Y-96674317D01*
X100191834Y-96660276D01*
X100189710Y-96645958D01*
X100189000Y-96631500D01*
X100189000Y-96286500D01*
X100189710Y-96272042D01*
X100191834Y-96257724D01*
X100195351Y-96243683D01*
X100200228Y-96230054D01*
X100206417Y-96216969D01*
X100213858Y-96204553D01*
X100222481Y-96192927D01*
X100232202Y-96182202D01*
X100242927Y-96172481D01*
X100254553Y-96163858D01*
X100266969Y-96156417D01*
X100280054Y-96150228D01*
X100293683Y-96145351D01*
X100307724Y-96141834D01*
X100322042Y-96139710D01*
X100336500Y-96139000D01*
X100631500Y-96139000D01*
X100645958Y-96139710D01*
X100645958Y-96139710D01*
G37*
D12*
G04 #@! TD*
G04 #@! TO.P,NTC1,1*
G04 #@! TO.N,Net-(NTC1-Pad1)*
X100484000Y-96459000D03*
D13*
G04 #@! TO.N,Net-(NTC1-Pad1)*
X100484000Y-96459000D02*
X101763300Y-97572900D01*
G04 #@! TO.N,Net-(NTC1-Pad2)*
X99514000Y-96459000D02*
X98236600Y-97572900D01*
G04 #@! TO.N,Net-(CB1-Pad1)*
X96290374Y-103709659D02*
X96547000Y-103942897D01*
X94989645Y-101560076D02*
X95166060Y-102042078D01*
X94860369Y-101057304D02*
X94989645Y-101560076D01*
X95649760Y-102933229D02*
X95951771Y-103337103D01*
X94780869Y-100536400D02*
X94860369Y-101057304D01*
X94860369Y-98942700D02*
X94780869Y-99463604D01*
X94989645Y-98439929D02*
X94860369Y-98942700D01*
X95386978Y-97499329D02*
X95166060Y-97957926D01*
X96662931Y-95951743D02*
X96290374Y-96290345D01*
X97066805Y-95649732D02*
X96662931Y-95951743D01*
X98439958Y-94989616D02*
X97957955Y-95166031D01*
X98942729Y-94860340D02*
X98439958Y-94989616D01*
X99463633Y-94780840D02*
X98942729Y-94860340D01*
X100536429Y-94780840D02*
X100000031Y-94753750D01*
X101057333Y-94860340D02*
X100536429Y-94780840D01*
X102933257Y-95649732D02*
X102500704Y-95386949D01*
X103337131Y-95951743D02*
X102933257Y-95649732D01*
X104350301Y-97066775D02*
X104048290Y-96662902D01*
X104613084Y-97499329D02*
X104350301Y-97066775D01*
X105219193Y-99463604D02*
X105139693Y-98942700D01*
X105246283Y-100000002D02*
X105219193Y-99463604D01*
X95166060Y-97957926D02*
X94989645Y-98439929D01*
X105139693Y-101057304D02*
X105219193Y-100536400D01*
X104834002Y-97957926D02*
X104613084Y-97499329D01*
X104350302Y-102933229D02*
X104613085Y-102500675D01*
X100000031Y-94753750D02*
X99463633Y-94780840D01*
X104048291Y-103337103D02*
X104350302Y-102933229D01*
X101560104Y-94989616D02*
X101057333Y-94860340D01*
X103337132Y-104048262D02*
X103709688Y-103709660D01*
X102042107Y-95166031D02*
X101560104Y-94989616D01*
X102933258Y-104350273D02*
X103337132Y-104048262D01*
X105010417Y-101560076D02*
X105139693Y-101057304D01*
X102264174Y-95823300D02*
X102655812Y-96061226D01*
X101412544Y-104536450D02*
X100957331Y-104653500D01*
X101848956Y-95623279D02*
X102264174Y-95823300D01*
X101412546Y-95463552D02*
X101848956Y-95623279D01*
X99514381Y-95274524D02*
X100000041Y-95250004D01*
X100957332Y-95346504D02*
X101412546Y-95463552D01*
X97631000Y-104109445D02*
X97337801Y-104513000D01*
X104613085Y-102500675D02*
X104834002Y-102042078D01*
X100485701Y-95274524D02*
X100957332Y-95346504D01*
X103709688Y-103709660D02*
X104048291Y-103337103D01*
X97735909Y-95823301D02*
X98151126Y-95623280D01*
X95623319Y-98151087D02*
X95823340Y-97735870D01*
X98151126Y-104376722D02*
X97631000Y-104109445D01*
X97344270Y-96061227D02*
X97735909Y-95823301D01*
X101848954Y-104376722D02*
X101412544Y-104536450D01*
X96978599Y-96334671D02*
X97344270Y-96061227D01*
X97499358Y-95386949D02*
X97066805Y-95649732D01*
X96641283Y-96641244D02*
X96978599Y-96334671D01*
X98151126Y-95623280D02*
X98587536Y-95463552D01*
X104725519Y-99514342D02*
X104750037Y-100000002D01*
X102655812Y-96061226D02*
X103021483Y-96334670D01*
X95951771Y-103337103D02*
X96290374Y-103709659D01*
X95823340Y-97735870D02*
X96061266Y-97344231D01*
X103938815Y-102655771D02*
X103665371Y-103021442D01*
X104653539Y-99042711D02*
X104725519Y-99514342D01*
X99463633Y-105219160D02*
X100000031Y-105246260D01*
X102500704Y-95386949D02*
X102042107Y-95166031D01*
X96641284Y-103358758D02*
X96334710Y-103021442D01*
X102500704Y-104613060D02*
X102933258Y-104350273D01*
X95386977Y-102500675D02*
X95649760Y-102933229D01*
X94753779Y-100000002D02*
X94780869Y-100536400D01*
X102264172Y-104176701D02*
X101848954Y-104376722D01*
X95463591Y-98587497D02*
X95623319Y-98151087D01*
X104048290Y-96662902D02*
X103709688Y-96290345D01*
X104834002Y-102042078D02*
X105010417Y-101560076D01*
X96290374Y-96290345D02*
X95951772Y-96662902D01*
X103021481Y-103665332D02*
X102655810Y-103938775D01*
X103665371Y-103021442D02*
X103358797Y-103358758D01*
X105139693Y-98942700D02*
X105010417Y-98439929D01*
X99042750Y-95346504D02*
X99514381Y-95274524D01*
X95823340Y-102264133D02*
X95623319Y-101848916D01*
X98587536Y-95463552D02*
X99042750Y-95346504D01*
X96334710Y-103021442D02*
X96061266Y-102655771D01*
X95274564Y-100485662D02*
X95250044Y-100000002D01*
X104536490Y-101412506D02*
X104376762Y-101848916D01*
X100000040Y-104750000D02*
X99514380Y-104725500D01*
X95346544Y-100957292D02*
X95274564Y-100485662D01*
X95463591Y-101412506D02*
X95346544Y-100957292D01*
X100000041Y-95250004D02*
X100485701Y-95274524D01*
X96839000Y-103538454D02*
X96641284Y-103358758D01*
X96334709Y-96978560D02*
X96641283Y-96641244D01*
X95623319Y-101848916D02*
X95463591Y-101412506D01*
X95166060Y-102042078D02*
X95386977Y-102500675D01*
X95250044Y-100000002D02*
X95274564Y-99514342D01*
X94780869Y-99463604D02*
X94753779Y-100000002D01*
X95346544Y-99042711D02*
X95463591Y-98587497D01*
X103358797Y-103358758D02*
X103021481Y-103665332D01*
X100485700Y-104725500D02*
X100000040Y-104750000D01*
X104653537Y-100957292D02*
X104536490Y-101412506D01*
X101057333Y-105139660D02*
X101560105Y-105010390D01*
X103709688Y-96290345D02*
X103337131Y-95951743D01*
X96061266Y-102655771D02*
X95823340Y-102264133D01*
X103358799Y-96641244D02*
X103665373Y-96978560D01*
X104750037Y-100000002D02*
X104725517Y-100485662D01*
X103021483Y-96334670D02*
X103358799Y-96641244D01*
X103665373Y-96978560D02*
X103938817Y-97344231D01*
X103938817Y-97344231D02*
X104176743Y-97735869D01*
X101560105Y-105010390D02*
X102042107Y-104833970D01*
X104176743Y-97735869D02*
X104376764Y-98151087D01*
X96061266Y-97344231D02*
X96334709Y-96978560D01*
X98587536Y-104536450D02*
X98151126Y-104376722D01*
X104376764Y-98151087D02*
X104536492Y-98587497D01*
X98439957Y-105010390D02*
X98942729Y-105139660D01*
X97957955Y-95166031D02*
X97499358Y-95386949D01*
X104176741Y-102264133D02*
X103938815Y-102655771D01*
X104536492Y-98587497D02*
X104653539Y-99042711D01*
X98942729Y-105139660D02*
X99463633Y-105219160D01*
X100536429Y-105219160D02*
X101057333Y-105139660D01*
X104725517Y-100485662D02*
X104653537Y-100957292D01*
X105219193Y-100536400D02*
X105246283Y-100000002D01*
X104376762Y-101848916D02*
X104176741Y-102264133D01*
X95951772Y-96662902D02*
X95649761Y-97066775D01*
X102655810Y-103938775D02*
X102264172Y-104176701D01*
X100957331Y-104653500D02*
X100485700Y-104725500D01*
X99514380Y-104725500D02*
X99042750Y-104653500D01*
X97957955Y-104833970D02*
X98439957Y-105010390D01*
X105010417Y-98439929D02*
X104834002Y-97957926D01*
X99042750Y-104653500D02*
X98587536Y-104536450D01*
X95649761Y-97066775D02*
X95386978Y-97499329D01*
X97337801Y-104513000D02*
X97957955Y-104833970D01*
X100000031Y-105246260D02*
X100536429Y-105219160D01*
X95274564Y-99514342D02*
X95346544Y-99042711D01*
X102042107Y-104833970D02*
X102500704Y-104613060D01*
D14*
X97092000Y-102995000D02*
X97146800Y-100927000D01*
D13*
X96839000Y-103538454D02*
X97092000Y-102995000D01*
D14*
X100000000Y-103000000D02*
X97921000Y-103444000D01*
X100000000Y-103000000D02*
X101765000Y-102589000D01*
X101765000Y-102589000D02*
X102853000Y-100927000D01*
D13*
X99064503Y-109102760D02*
X98155993Y-108964100D01*
X96438445Y-108430950D02*
X95638605Y-108045640D01*
X100000037Y-109149960D02*
X99064503Y-109102760D01*
X100935571Y-109102760D02*
X100000037Y-109149960D01*
X101844081Y-108964100D02*
X100935571Y-109102760D01*
X102720967Y-108738630D02*
X101844081Y-108964100D01*
X103561630Y-108430950D02*
X102720967Y-108738630D01*
X104361470Y-108045640D02*
X103561630Y-108430950D01*
X106470063Y-106470030D02*
X105820286Y-107060590D01*
X108430984Y-103561594D02*
X108045681Y-104361435D01*
X109150036Y-100000002D02*
X109102796Y-100935536D01*
X107060621Y-105820250D02*
X106470063Y-106470030D01*
X109102798Y-99064468D02*
X109150036Y-100000002D01*
X108738671Y-102720932D02*
X108430984Y-103561594D01*
X108738672Y-97279072D02*
X108964143Y-98155958D01*
X97279107Y-108738630D02*
X96438445Y-108430950D01*
X108045683Y-95638569D02*
X108430986Y-96438409D01*
X98155993Y-108964100D02*
X97279107Y-108738630D01*
X107060623Y-94179752D02*
X107587362Y-94884150D01*
X108964141Y-101844046D02*
X108738671Y-102720932D01*
X106470065Y-93529975D02*
X107060623Y-94179752D01*
X91035934Y-98155958D02*
X91261404Y-97279072D01*
X95638605Y-108045640D02*
X95032481Y-107686000D01*
X105820286Y-107060590D02*
X105115888Y-107587320D01*
X90897279Y-100935536D02*
X90850039Y-100000002D01*
X91569091Y-103561594D02*
X91261404Y-102720931D01*
X91569091Y-96438409D02*
X91954394Y-95638569D01*
X94884186Y-92412679D02*
X95638605Y-91954358D01*
X94610922Y-107435990D02*
X94243113Y-107112000D01*
X100000038Y-90850002D02*
X100935572Y-90897242D01*
X91035934Y-101844046D02*
X90897279Y-100935536D01*
X103561631Y-91569054D02*
X104361472Y-91954357D01*
X108964143Y-98155958D02*
X109102798Y-99064468D01*
X104361472Y-91954357D02*
X105115890Y-92412678D01*
X92939453Y-105820250D02*
X92412715Y-105115850D01*
X90850039Y-100000002D02*
X90897279Y-99064468D01*
X105115888Y-107587320D02*
X104361470Y-108045640D01*
X95638605Y-91954358D02*
X96438445Y-91569055D01*
X94243113Y-107112000D02*
X94082543Y-106967447D01*
X97921000Y-103444000D02*
X97448791Y-103530000D01*
X95032481Y-107686000D02*
X95325277Y-107283000D01*
X107587360Y-105115850D02*
X107060621Y-105820250D01*
X91261404Y-102720931D02*
X91035934Y-101844046D01*
X97448791Y-103530000D02*
X94610922Y-107435990D01*
X108430986Y-96438409D02*
X108738672Y-97279072D01*
X91954394Y-104361434D02*
X91569091Y-103561594D01*
X97279108Y-91261368D02*
X98155994Y-91035898D01*
X94082543Y-106967447D02*
X93530011Y-106470030D01*
X90897279Y-99064468D02*
X91035934Y-98155958D01*
X105820288Y-92939417D02*
X106470065Y-93529975D01*
X93530011Y-106470030D02*
X92939453Y-105820250D01*
X107587362Y-94884150D02*
X108045683Y-95638569D01*
X91954394Y-95638569D02*
X92412715Y-94884150D01*
X92412715Y-94884150D02*
X92939454Y-94179753D01*
X92939454Y-94179753D02*
X93530011Y-93529975D01*
X94179789Y-92939417D02*
X94884186Y-92412679D01*
X96438445Y-91569055D02*
X97279108Y-91261368D01*
X93530011Y-93529975D02*
X94179789Y-92939417D01*
X100935572Y-90897242D02*
X101844082Y-91035897D01*
X99064504Y-90897242D02*
X100000038Y-90850002D01*
X98155994Y-91035898D02*
X99064504Y-90897242D01*
X108045681Y-104361435D02*
X107587360Y-105115850D01*
X109102796Y-100935536D02*
X108964141Y-101844046D01*
X92412715Y-105115850D02*
X91954394Y-104361434D01*
X91261404Y-97279072D02*
X91569091Y-96438409D01*
X101844082Y-91035897D02*
X102720968Y-91261368D01*
X102720968Y-91261368D02*
X103561631Y-91569054D01*
X105115890Y-92412678D02*
X105820288Y-92939417D01*
X95608000Y-106902458D02*
X95899246Y-106493000D01*
X96103825Y-107187440D02*
X95608000Y-106902458D01*
X96818349Y-107531650D02*
X96103825Y-107187440D01*
X97569341Y-107806510D02*
X96818349Y-107531650D01*
X98352692Y-108007930D02*
X97569341Y-107806510D01*
X99164294Y-108131800D02*
X98352692Y-108007930D01*
X100835782Y-108131800D02*
X100000038Y-108174000D01*
X103896251Y-107187440D02*
X103181727Y-107531650D01*
X106307493Y-105199420D02*
X105779928Y-105779890D01*
X108007971Y-101647348D02*
X107806551Y-102430699D01*
X108174036Y-100000002D02*
X108131836Y-100835746D01*
X107806551Y-102430699D02*
X107531684Y-103181691D01*
X108131838Y-99164258D02*
X108174036Y-100000002D01*
X107806553Y-97569304D02*
X108007973Y-98352656D01*
X106778049Y-95429841D02*
X107187482Y-96103788D01*
X106307495Y-94800579D02*
X106778049Y-95429841D01*
X105199462Y-93692546D02*
X105779930Y-94220111D01*
X103896253Y-92812560D02*
X104570200Y-93221993D01*
X103181729Y-92468355D02*
X103896253Y-92812560D01*
X102430737Y-92193489D02*
X103181729Y-92468355D01*
X101647385Y-91992069D02*
X102430737Y-92193489D01*
X100000039Y-91826003D02*
X100835783Y-91868203D01*
X99164295Y-91868203D02*
X100000039Y-91826003D01*
X100000038Y-108174000D02*
X99164294Y-108131800D01*
X96818349Y-92468355D02*
X97569341Y-92193489D01*
X101647384Y-108007930D02*
X100835782Y-108131800D01*
X96103825Y-92812560D02*
X96818349Y-92468355D01*
X94800616Y-93692546D02*
X95429878Y-93221993D01*
X108131836Y-100835746D02*
X108007971Y-101647348D01*
X93692583Y-94800579D02*
X94220148Y-94220111D01*
X100835783Y-91868203D02*
X101647385Y-91992069D01*
X92812596Y-96103788D02*
X93222029Y-95429841D01*
X104570200Y-93221993D02*
X105199462Y-93692546D01*
X102577889Y-91725363D02*
X101747767Y-91511917D01*
X108007973Y-98352656D02*
X108131838Y-99164258D01*
X94220148Y-105779890D02*
X93692583Y-105199420D01*
X103373719Y-92016640D02*
X102577889Y-91725363D01*
X94220148Y-94220111D02*
X94800616Y-93692546D01*
X104845089Y-92815274D02*
X104130903Y-92381395D01*
X107187480Y-103896215D02*
X106778047Y-104570160D01*
X108274667Y-97422142D02*
X107983390Y-96626312D01*
X105511921Y-93313922D02*
X104845089Y-92815274D01*
X96630413Y-107979290D02*
X97426243Y-108270570D01*
X106127045Y-93872985D02*
X105511921Y-93313922D01*
X106686108Y-94488110D02*
X106127045Y-93872985D01*
X91516017Y-98252264D02*
X91384757Y-99112323D01*
X107531684Y-103181691D02*
X107187480Y-103896215D01*
X107184756Y-95154942D02*
X106686108Y-94488110D01*
X107187482Y-96103788D02*
X107531686Y-96818312D01*
X104130903Y-92381395D02*
X103373719Y-92016640D01*
X107983390Y-96626312D02*
X107618635Y-95869127D01*
X91992105Y-101647348D02*
X91868240Y-100835746D01*
X108619374Y-99112323D02*
X108488114Y-98252264D01*
X105779930Y-94220111D02*
X106307495Y-94800579D01*
X107618638Y-104126805D02*
X107983393Y-103369620D01*
X91384757Y-100883608D02*
X91516017Y-101743667D01*
X93652611Y-105145966D02*
X93222029Y-104570160D01*
X108664096Y-99997965D02*
X108619374Y-99112323D01*
X95873228Y-92381395D02*
X95159043Y-92815273D01*
X93318023Y-94488109D02*
X92819375Y-95154941D01*
X98352693Y-91992069D02*
X99164295Y-91868203D01*
X108274670Y-102573789D02*
X108488116Y-101743667D01*
X92385495Y-104126805D02*
X92819373Y-104840990D01*
X99116424Y-108615280D02*
X100002067Y-108659980D01*
X100002067Y-108659980D02*
X100887710Y-108615280D01*
X95429878Y-93221993D02*
X96103825Y-92812560D01*
X95324000Y-107283317D02*
X95873227Y-107614540D01*
X104130906Y-107614540D02*
X104845092Y-107180660D01*
X105199460Y-106307460D02*
X104570199Y-106778010D01*
X95873227Y-107614540D02*
X96630413Y-107979290D01*
X91868240Y-100835746D02*
X91826040Y-100000002D01*
X91868240Y-99164258D02*
X91992105Y-98352656D01*
X102430735Y-107806510D02*
X101647384Y-108007930D01*
X108619376Y-100883608D02*
X108664096Y-99997965D01*
X107618635Y-95869127D02*
X107184756Y-95154942D01*
X102577891Y-108270570D02*
X103373721Y-107979290D01*
X107983393Y-103369620D02*
X108274670Y-102573789D01*
X100887710Y-108615280D02*
X101747769Y-108484020D01*
X98256365Y-108484020D02*
X99116424Y-108615280D01*
X91384757Y-99112323D02*
X91340037Y-99997965D01*
X92819373Y-104840990D02*
X93318021Y-105507820D01*
X104845092Y-107180660D02*
X105511924Y-106682010D01*
X106686112Y-105507820D02*
X107184760Y-104840990D01*
X108488116Y-101743667D02*
X108619376Y-100883608D01*
X103373721Y-107979290D02*
X104130906Y-107614540D01*
X96630413Y-92016640D02*
X95873228Y-92381395D01*
X105511924Y-106682010D02*
X106127049Y-106122950D01*
X104570199Y-106778010D02*
X103896251Y-107187440D01*
X106127049Y-106122950D02*
X106686112Y-105507820D01*
X101747767Y-91511917D02*
X100887708Y-91380656D01*
X92468392Y-96818312D02*
X92812596Y-96103788D01*
X92020740Y-103369620D02*
X92385495Y-104126805D01*
X100887708Y-91380656D02*
X100002066Y-91335936D01*
X91340037Y-99997965D02*
X91384757Y-100883608D01*
X99116424Y-91380656D02*
X98256365Y-91511917D01*
X107184760Y-104840990D02*
X107618638Y-104126805D01*
X93877084Y-106122950D02*
X94546000Y-106700126D01*
X98256365Y-91511917D02*
X97426243Y-91725363D01*
X97426243Y-91725363D02*
X96630413Y-92016640D01*
X97569341Y-92193489D02*
X98352693Y-91992069D01*
X94492211Y-93313921D02*
X93877086Y-93872985D01*
X93877086Y-93872985D02*
X93318023Y-94488109D01*
X94546000Y-106700126D02*
X94820000Y-106318000D01*
X106778047Y-104570160D02*
X106307493Y-105199420D01*
X92819375Y-95154941D02*
X92385497Y-95869127D01*
X92385497Y-95869127D02*
X92020741Y-96626312D01*
X95159043Y-92815273D02*
X94492211Y-93313921D01*
X92020741Y-96626312D02*
X91729464Y-97422142D01*
X91729464Y-97422142D02*
X91516017Y-98252264D01*
X108488114Y-98252264D02*
X108274667Y-97422142D01*
X91516017Y-101743667D02*
X91729463Y-102573789D01*
X91729463Y-102573789D02*
X92020740Y-103369620D01*
X91826040Y-100000002D02*
X91868240Y-99164258D01*
X93318021Y-105507820D02*
X93877084Y-106122950D01*
X101747769Y-108484020D02*
X102577891Y-108270570D01*
X94820000Y-106318000D02*
X94220148Y-105779890D01*
X103181727Y-107531650D02*
X102430735Y-107806510D01*
X93692583Y-105199420D02*
X93652611Y-105145966D01*
X107531686Y-96818312D02*
X107806553Y-97569304D01*
X93222029Y-104570160D02*
X92812596Y-103896215D01*
X92812596Y-103896215D02*
X92468392Y-103181691D01*
X92468392Y-103181691D02*
X92193525Y-102430699D01*
X92193525Y-102430699D02*
X91992105Y-101647348D01*
X100002066Y-91335936D02*
X99116424Y-91380656D01*
X97426243Y-108270570D02*
X98256365Y-108484020D01*
X91992105Y-98352656D02*
X92193525Y-97569304D01*
X105779928Y-105779890D02*
X105199460Y-106307460D01*
X93222029Y-95429841D02*
X93692583Y-94800579D01*
X92193525Y-97569304D02*
X92468392Y-96818312D01*
X96434298Y-104096140D02*
X96545528Y-103943000D01*
X95575243Y-103647497D02*
X95945340Y-104054706D01*
X95245141Y-103206058D02*
X95575243Y-103647497D01*
X95061756Y-102904199D02*
X95245141Y-103206058D01*
X94523626Y-101705183D02*
X94716450Y-102232018D01*
X105617760Y-98844357D02*
X105476460Y-98294822D01*
X105283638Y-102232018D02*
X105476462Y-101705183D01*
X97266775Y-94957875D02*
X97138579Y-95035755D01*
X100586334Y-105704620D02*
X101155689Y-105617720D01*
X105042170Y-97266734D02*
X104964290Y-97138538D01*
X105283635Y-97767986D02*
X105196839Y-97587806D01*
X105042172Y-102733271D02*
X105128968Y-102553091D01*
X96352550Y-95575202D02*
X96278548Y-95642458D01*
X104858787Y-103035130D02*
X105042172Y-102733271D01*
X96793989Y-95245100D02*
X96352550Y-95575202D01*
X104754947Y-103206058D02*
X104858787Y-103035130D01*
X101846084Y-105424865D02*
X102232060Y-105283600D01*
X103206099Y-104754910D02*
X103446351Y-104575252D01*
X94957916Y-102733271D02*
X95061756Y-102904199D01*
X97138579Y-95035755D02*
X96793989Y-95245100D01*
X104424845Y-103647497D02*
X104754947Y-103206058D01*
X104054746Y-95945299D02*
X103980744Y-95878043D01*
X103446351Y-104575252D02*
X103647539Y-104424803D01*
X105617762Y-101155647D02*
X105704652Y-100586292D01*
X103647536Y-95575202D02*
X103206097Y-95245100D01*
X98844399Y-105617720D02*
X99413754Y-105704620D01*
X97045731Y-104915000D02*
X97266776Y-105042130D01*
X98294863Y-105476420D02*
X98844399Y-105617720D01*
X95945340Y-104054706D02*
X96019342Y-104121962D01*
X105734252Y-100000002D02*
X105726689Y-99850194D01*
X95945340Y-95945299D02*
X95878084Y-96019301D01*
X105196839Y-97587806D02*
X105042170Y-97266734D01*
X105128968Y-102553091D02*
X105283638Y-102232018D01*
X97587848Y-94803205D02*
X97266775Y-94957875D01*
X99413754Y-105704620D02*
X100000044Y-105734220D01*
X102553131Y-94871079D02*
X102232058Y-94716409D01*
X97908887Y-105335155D02*
X98294863Y-105476420D01*
X97266776Y-105042130D02*
X97768028Y-105283600D01*
X98294863Y-94523585D02*
X97768028Y-94716409D01*
X94716451Y-97767986D02*
X94523626Y-98294822D01*
X102412240Y-105196800D02*
X102733312Y-105042130D01*
X97768028Y-94716409D02*
X97587848Y-94803205D01*
X100000044Y-105734220D02*
X100586334Y-105704620D01*
X101155689Y-105617720D02*
X101705225Y-105476420D01*
X100536397Y-94292874D02*
X100000043Y-94265785D01*
X101705225Y-105476420D02*
X101846084Y-105424865D01*
X104054748Y-104054706D02*
X104424845Y-103647497D01*
X102232060Y-105283600D02*
X102412240Y-105196800D01*
X102733312Y-105042130D02*
X103206099Y-104754910D01*
X103647539Y-104424803D02*
X104054748Y-104054706D01*
X94382326Y-98844357D02*
X94295436Y-99413712D01*
X104754944Y-96793947D02*
X104424842Y-96352508D01*
X94803246Y-102412198D02*
X94957916Y-102733271D01*
X104357586Y-96278506D02*
X104054746Y-95945299D01*
X105476462Y-101705183D02*
X105617762Y-101155647D01*
X103980744Y-95878043D02*
X103647536Y-95575202D01*
X103077901Y-95167220D02*
X102733311Y-94957875D01*
X102733311Y-94957875D02*
X102553131Y-94871079D01*
X97768028Y-105283600D02*
X97908887Y-105335155D01*
X102232058Y-94716409D02*
X101705223Y-94523585D01*
X105476460Y-98294822D02*
X105283635Y-97767986D01*
X100000043Y-94265785D02*
X99950107Y-94268306D01*
X101155687Y-94382285D02*
X100586333Y-94295395D01*
X101705223Y-94523585D02*
X101155687Y-94382285D01*
X95167262Y-96922143D02*
X94957916Y-97266734D01*
X94957916Y-97266734D02*
X94871120Y-97446914D01*
X99950107Y-94268306D02*
X99413753Y-94295395D01*
X100586333Y-94295395D02*
X100536397Y-94292874D01*
X99413753Y-94295395D02*
X98844399Y-94382285D01*
X98844399Y-94382285D02*
X98294863Y-94523585D01*
X94871120Y-97446914D02*
X94716451Y-97767986D01*
X105704652Y-100586292D02*
X105734252Y-100000002D01*
X103206097Y-95245100D02*
X103077901Y-95167220D01*
X96278548Y-95642458D02*
X95945340Y-95945299D01*
X96019342Y-104121962D02*
X96258000Y-104338870D01*
X105726689Y-99850194D02*
X105704650Y-99413712D01*
X95878084Y-96019301D02*
X95575244Y-96352508D01*
X96258000Y-104338870D02*
X96434298Y-104096140D01*
X105704650Y-99413712D02*
X105617760Y-98844357D01*
X95575244Y-96352508D02*
X95245142Y-96793947D01*
X95245142Y-96793947D02*
X95167262Y-96922143D01*
X104964290Y-97138538D02*
X104754944Y-96793947D01*
X94523626Y-98294822D02*
X94382326Y-98844357D01*
X94716450Y-102232018D02*
X94803246Y-102412198D01*
X104424842Y-96352508D02*
X104357586Y-96278506D01*
X94295436Y-99413712D02*
X94265836Y-100000002D01*
X94265836Y-100000002D02*
X94295436Y-100586292D01*
X94295436Y-100586292D02*
X94382326Y-101155647D01*
X94382326Y-101155647D02*
X94523626Y-101705183D01*
X101995432Y-93591523D02*
X101352368Y-93426174D01*
X99264072Y-92839041D02*
X100000038Y-92801881D01*
X102611932Y-93817165D02*
X101995432Y-93591523D01*
X98549365Y-92948118D02*
X99264072Y-92839041D01*
X104268321Y-105177890D02*
X104744836Y-104744800D01*
X103751751Y-105564170D02*
X104268321Y-105177890D01*
X106710190Y-100000002D02*
X106675548Y-99313928D01*
X103198498Y-105900280D02*
X103751751Y-105564170D01*
X106675550Y-100686077D02*
X106710190Y-100000002D01*
X102611935Y-106182840D02*
X103198498Y-105900280D01*
X106408519Y-101995397D02*
X106573867Y-101352333D01*
X101352370Y-106573830D02*
X101995434Y-106408480D01*
X100785887Y-92353684D02*
X100000038Y-92314004D01*
X106182877Y-102611898D02*
X106408519Y-101995397D01*
X100686114Y-106675520D02*
X101352370Y-106573830D01*
X102285619Y-92659549D02*
X101549035Y-92470154D01*
X105900315Y-103198461D02*
X106182877Y-102611898D01*
X100000039Y-106710120D02*
X100686114Y-106675520D01*
X105564205Y-103751715D02*
X105900315Y-103198461D01*
X99313964Y-106675520D02*
X100000039Y-106710120D01*
X98647708Y-106573830D02*
X99313964Y-106675520D01*
X106373390Y-95702686D02*
X105930930Y-95110992D01*
X93817201Y-102611898D02*
X94099763Y-103198461D01*
X98004644Y-106408480D02*
X98647708Y-106573830D01*
X107082034Y-97008264D02*
X106758380Y-96336398D01*
X93591559Y-101995397D02*
X93817201Y-102611898D01*
X97388143Y-106182840D02*
X98004644Y-106408480D01*
X107529886Y-98451005D02*
X107340491Y-97714421D01*
X93426211Y-101352333D02*
X93591559Y-101995397D01*
X96801580Y-105900280D02*
X97388143Y-106182840D01*
X107686036Y-100000002D02*
X107646356Y-99214153D01*
X93324528Y-100686077D02*
X93426211Y-101352333D01*
X101450713Y-107051890D02*
X100736006Y-107160970D01*
X103198495Y-94099727D02*
X102611932Y-93817165D01*
X103663641Y-106758340D02*
X104297353Y-106373350D01*
X102140542Y-106874520D02*
X101450713Y-107051890D01*
X104268318Y-94822121D02*
X103751748Y-94435837D01*
X96187683Y-106096000D02*
X96473215Y-105703000D01*
X95198697Y-103957891D02*
X94840503Y-103478886D01*
X103431094Y-106329350D02*
X102801875Y-106632470D01*
X100736006Y-107160970D02*
X100000039Y-107198170D01*
X104889048Y-94069111D02*
X104297354Y-93626650D01*
X106632500Y-102801838D02*
X106329390Y-103431057D01*
X94069146Y-95110992D02*
X93626686Y-95702686D01*
X97198204Y-106632470D02*
X96568985Y-106329350D01*
X95968000Y-104733948D02*
X95600288Y-104399753D01*
X107051921Y-98549329D02*
X107160998Y-99264036D01*
X97859537Y-106874520D02*
X97198204Y-106632470D01*
X95681000Y-105131758D02*
X95968000Y-104733948D01*
X105089883Y-105089850D02*
X104578716Y-105554430D01*
X106874548Y-97859500D02*
X107051921Y-98549329D01*
X99264072Y-107160970D02*
X98549366Y-107051890D01*
X94822157Y-104268285D02*
X95255242Y-104744800D01*
X105968838Y-104024544D02*
X105554463Y-104578680D01*
X106329386Y-96568949D02*
X106632497Y-97198167D01*
X106573867Y-101352333D02*
X106675550Y-100686077D01*
X101995434Y-106408480D02*
X102611935Y-106182840D01*
X103431091Y-93670653D02*
X104024577Y-94031204D01*
X101254026Y-106095780D02*
X100636220Y-106190080D01*
X96568985Y-106329350D02*
X96187683Y-106096000D01*
X107160998Y-99264036D02*
X107198160Y-100000002D01*
X95421364Y-94445580D02*
X95975500Y-94031205D01*
X93367580Y-97198167D02*
X93670691Y-96568949D01*
X102991776Y-92918006D02*
X102285619Y-92659549D01*
X93670691Y-96568949D02*
X94031242Y-95975463D01*
X104744836Y-104744800D02*
X105177921Y-104268285D01*
X107646356Y-99214153D02*
X107529886Y-98451005D01*
X105930930Y-95110992D02*
X105434861Y-94565179D01*
X106373389Y-104297317D02*
X106758379Y-103663605D01*
X93125529Y-97859500D02*
X93367580Y-97198167D01*
X105177921Y-104268285D02*
X105564205Y-103751715D01*
X103663642Y-93241661D02*
X102991776Y-92918006D01*
X100000039Y-107198170D02*
X99264072Y-107160970D01*
X92314040Y-100000002D02*
X92353720Y-100785851D01*
X107529885Y-101548999D02*
X107646356Y-100785851D01*
X96473215Y-105703000D02*
X96801580Y-105900280D01*
X95899247Y-106493000D02*
X96336435Y-106758340D01*
X95702722Y-93626650D02*
X95111028Y-94069111D01*
X106874551Y-102140505D02*
X106632500Y-102801838D01*
X103751748Y-94435837D02*
X103198495Y-94099727D01*
X102801875Y-106632470D02*
X102140542Y-106874520D01*
X107340490Y-102285583D02*
X107529885Y-101548999D01*
X94840503Y-103478886D02*
X94528836Y-102965866D01*
X97714457Y-107340450D02*
X98451041Y-107529850D01*
X102801872Y-93367542D02*
X103431091Y-93670653D01*
X101850326Y-105942450D02*
X101254026Y-106095780D01*
X94445616Y-104578680D02*
X94031241Y-104024543D01*
X98149760Y-94057554D02*
X98746060Y-93904230D01*
X95111028Y-94069111D02*
X94565215Y-94565179D01*
X92659585Y-97714421D02*
X92470190Y-98451005D01*
X92470191Y-101548999D02*
X92659586Y-102285583D01*
X99214189Y-107646320D02*
X100000038Y-107686020D01*
X96336434Y-93241661D02*
X95702722Y-93626650D01*
X100636229Y-93809940D02*
X101254034Y-93904230D01*
X106329390Y-103431057D02*
X105968838Y-104024544D01*
X107646356Y-100785851D02*
X107686036Y-100000002D01*
X104297354Y-93626650D02*
X103663642Y-93241661D01*
X98451041Y-107529850D02*
X99214189Y-107646320D01*
X92353720Y-100785851D02*
X92470191Y-101548999D01*
X98549366Y-107051890D02*
X97859537Y-106874520D01*
X95255242Y-104744800D02*
X95681000Y-105131758D01*
X105554463Y-104578680D02*
X105089883Y-105089850D01*
X106632497Y-97198167D02*
X106874548Y-97859500D01*
X96406998Y-106792333D02*
X97008300Y-107082000D01*
X105177918Y-95731721D02*
X104744833Y-95255207D01*
X104578716Y-105554430D02*
X104024580Y-105968800D01*
X97008300Y-107082000D02*
X97714457Y-107340450D01*
X96755114Y-105315000D02*
X97048637Y-104911000D01*
X105434860Y-105434820D02*
X105930929Y-104889010D01*
X103957934Y-95198662D02*
X104399796Y-95600253D01*
X104744833Y-95255207D02*
X104268318Y-94822121D01*
X104024580Y-105968800D02*
X103431094Y-106329350D01*
X101549035Y-107529850D02*
X102285619Y-107340450D01*
X98451041Y-92470154D02*
X97714457Y-92659549D01*
X107161000Y-100735969D02*
X107051923Y-101450676D01*
X100000038Y-107686020D02*
X100785887Y-107646320D01*
X106095811Y-101253990D02*
X105942487Y-101850290D01*
X106758380Y-96336398D02*
X106373390Y-95702686D01*
X96336435Y-106758340D02*
X96406998Y-106792333D01*
X105564202Y-96248291D02*
X105177918Y-95731721D01*
X100785887Y-107646320D02*
X101549035Y-107529850D01*
X97714457Y-92659549D02*
X97008300Y-92918006D01*
X100000047Y-93777820D02*
X100636229Y-93809940D01*
X106758379Y-103663605D02*
X107082033Y-102991739D01*
X102285619Y-107340450D02*
X102991776Y-107082000D01*
X95975500Y-94031205D02*
X96568986Y-93670653D01*
X100000038Y-92314004D02*
X99214189Y-92353684D01*
X102991776Y-107082000D02*
X103663641Y-106758340D01*
X106408516Y-98004607D02*
X106182874Y-97388107D01*
X106190109Y-99363820D02*
X106222239Y-100000002D01*
X107340491Y-97714421D02*
X107082034Y-97008264D01*
X92918043Y-102991739D02*
X93241697Y-103663605D01*
X100000038Y-106222180D02*
X99363856Y-106190080D01*
X107198160Y-100000002D02*
X107161000Y-100735969D01*
X94031241Y-104024543D02*
X93670689Y-103431057D01*
X105434861Y-94565179D02*
X104889048Y-94069111D01*
X95394683Y-105527000D02*
X94910196Y-105089850D01*
X97034184Y-94528801D02*
X97578092Y-94266787D01*
X104889047Y-105930890D02*
X105434860Y-105434820D01*
X99214189Y-92353684D02*
X98451041Y-92470154D01*
X101549035Y-92470154D02*
X100785887Y-92353684D01*
X101450711Y-92948118D02*
X102140540Y-93125491D01*
X102965902Y-105471210D02*
X102421994Y-105733220D01*
X94445617Y-95421327D02*
X94910197Y-94910160D01*
X92948156Y-98549329D02*
X93125529Y-97859500D01*
X104297353Y-106373350D02*
X104889047Y-105930890D01*
X105733261Y-97578047D02*
X105942494Y-98149715D01*
X102140540Y-93125491D02*
X102801872Y-93367542D01*
X102421994Y-105733220D02*
X101850326Y-105942450D01*
X94910197Y-94910160D02*
X95421364Y-94445580D01*
X94910196Y-105089850D02*
X94445616Y-104578680D01*
X97578092Y-94266787D02*
X98149760Y-94057554D01*
X97008300Y-92918006D02*
X96336434Y-93241661D01*
X107051923Y-101450676D02*
X106874551Y-102140505D01*
X94565215Y-94565179D02*
X94069146Y-95110992D01*
X92948155Y-101450676D02*
X92839079Y-100735969D01*
X94069147Y-104889010D02*
X94565216Y-105434820D01*
X106675548Y-99313928D02*
X106573865Y-98647672D01*
X105942494Y-98149715D02*
X106095819Y-98746015D01*
X105089879Y-94910160D02*
X105554459Y-95421327D01*
X97859537Y-93125492D02*
X98549365Y-92948118D01*
X93125528Y-102140505D02*
X92948155Y-101450676D01*
X93626686Y-95702686D02*
X93241696Y-96336398D01*
X92839079Y-100735969D02*
X92801919Y-100000002D01*
X94565216Y-105434820D02*
X95105519Y-105925000D01*
X93241696Y-96336398D02*
X92918042Y-97008264D01*
X92918042Y-97008264D02*
X92659585Y-97714421D01*
X105930929Y-104889010D02*
X106373389Y-104297317D01*
X106190101Y-100636184D02*
X106095811Y-101253990D01*
X92470190Y-98451005D02*
X92353720Y-99214153D01*
X92353720Y-99214153D02*
X92314040Y-100000002D01*
X92659586Y-102285583D02*
X92918043Y-102991739D01*
X107082033Y-102991739D02*
X107340490Y-102285583D01*
X93241697Y-103663605D02*
X93626687Y-104297317D01*
X94840514Y-96521119D02*
X95198707Y-96042115D01*
X93626687Y-104297317D02*
X94069147Y-104889010D01*
X95198707Y-96042115D02*
X95600298Y-95600253D01*
X104024577Y-94031204D02*
X104578713Y-94445579D01*
X96568986Y-93670653D02*
X97198204Y-93367542D01*
X93670689Y-103431057D02*
X93367579Y-102801838D01*
X104578713Y-94445579D02*
X105089879Y-94910160D01*
X97198204Y-93367542D02*
X97859537Y-93125492D01*
X93367579Y-102801838D02*
X93125528Y-102140505D01*
X106573865Y-98647672D02*
X106408516Y-98004607D01*
X106095819Y-98746015D02*
X106190109Y-99363820D01*
X105554459Y-95421327D02*
X105968834Y-95975462D01*
X105968834Y-95975462D02*
X106329386Y-96568949D01*
X106182874Y-97388107D02*
X105900312Y-96801544D01*
X106222239Y-100000002D02*
X106222221Y-100000002D01*
X92801919Y-100000002D02*
X92839079Y-99264036D01*
X105900312Y-96801544D02*
X105564202Y-96248291D01*
X100736004Y-92839041D02*
X101450711Y-92948118D01*
X94031242Y-95975463D02*
X94445617Y-95421327D01*
X95105519Y-105925000D02*
X95394683Y-105527000D01*
X92839079Y-99264036D02*
X92948156Y-98549329D01*
X100686112Y-93324492D02*
X100000038Y-93289852D01*
X100000038Y-93289852D02*
X99313964Y-93324492D01*
X99313964Y-93324492D02*
X98647708Y-93426174D01*
X98647708Y-93426174D02*
X98004644Y-93591523D01*
X98004644Y-93591523D02*
X97388144Y-93817165D01*
X97388144Y-93817165D02*
X96801581Y-94099727D01*
X96801581Y-94099727D02*
X96248328Y-94435837D01*
X96248328Y-94435837D02*
X95731758Y-94822121D01*
X95731758Y-94822121D02*
X95255243Y-95255207D01*
X95255243Y-95255207D02*
X94822158Y-95731721D01*
X94822158Y-95731721D02*
X94435874Y-96248291D01*
X94435874Y-96248291D02*
X94099764Y-96801544D01*
X94099764Y-96801544D02*
X93817202Y-97388107D01*
X93817202Y-97388107D02*
X93591560Y-98004607D01*
X93591560Y-98004607D02*
X93426211Y-98647672D01*
X93426211Y-98647672D02*
X93324528Y-99313928D01*
X93324528Y-99313928D02*
X93289888Y-100000002D01*
X93289888Y-100000002D02*
X93324528Y-100686077D01*
X94099763Y-103198461D02*
X94435873Y-103751715D01*
X94435873Y-103751715D02*
X94822157Y-104268285D01*
X95600288Y-104399753D02*
X95198697Y-103957891D01*
X94528836Y-102965866D02*
X94266822Y-102421958D01*
X94266822Y-102421958D02*
X94057589Y-101850290D01*
X94057589Y-101850290D02*
X93904265Y-101253990D01*
X93904265Y-101253990D02*
X93809975Y-100636184D01*
X93809975Y-100636184D02*
X93777855Y-100000002D01*
X101352368Y-93426174D02*
X100686112Y-93324492D01*
X100000038Y-92801881D02*
X100736004Y-92839041D01*
X93777855Y-100000002D02*
X93809985Y-99363820D01*
X93809985Y-99363820D02*
X93904275Y-98746015D01*
X93904275Y-98746015D02*
X94057600Y-98149715D01*
X94057600Y-98149715D02*
X94266833Y-97578047D01*
X94266833Y-97578047D02*
X94528847Y-97034139D01*
X94528847Y-97034139D02*
X94840514Y-96521119D01*
X95600298Y-95600253D02*
X96042160Y-95198662D01*
X96042160Y-95198662D02*
X96521165Y-94840469D01*
X96521165Y-94840469D02*
X97034184Y-94528801D01*
X98746060Y-93904230D02*
X99363865Y-93809940D01*
X99363865Y-93809940D02*
X100000047Y-93777820D01*
X101254034Y-93904230D02*
X101850334Y-94057554D01*
X101850334Y-94057554D02*
X102422002Y-94266787D01*
X102422002Y-94266787D02*
X102965910Y-94528801D01*
X102965910Y-94528801D02*
X103478929Y-94840468D01*
X103478929Y-94840468D02*
X103957934Y-95198662D01*
X104399796Y-95600253D02*
X104801387Y-96042115D01*
X104801387Y-96042115D02*
X105159580Y-96521119D01*
X105159580Y-96521119D02*
X105471247Y-97034139D01*
X105471247Y-97034139D02*
X105733261Y-97578047D01*
X106222221Y-100000002D02*
X106190101Y-100636184D01*
X105942487Y-101850290D02*
X105733254Y-102421958D01*
X105733254Y-102421958D02*
X105471240Y-102965866D01*
X105471240Y-102965866D02*
X105159573Y-103478886D01*
X105159573Y-103478886D02*
X104801379Y-103957891D01*
X104801379Y-103957891D02*
X104399788Y-104399753D01*
X104399788Y-104399753D02*
X103957926Y-104801340D01*
X103957926Y-104801340D02*
X103478922Y-105159540D01*
X97034174Y-105471210D02*
X96755114Y-105315000D01*
X98149750Y-105942450D02*
X97578082Y-105733220D01*
X99363856Y-106190080D02*
X98746050Y-106095780D01*
X100636220Y-106190080D02*
X100000038Y-106222180D01*
X103478922Y-105159540D02*
X102965902Y-105471210D01*
X97578082Y-105733220D02*
X97034174Y-105471210D01*
X98746050Y-106095780D02*
X98149750Y-105942450D01*
G04 #@! TD*
M02*
