G04 #@! TF.GenerationSoftware,KiCad,Pcbnew,5.0.2-bee76a0~70~ubuntu18.04.1*
G04 #@! TF.CreationDate,2019-06-24T09:04:58+02:00*
G04 #@! TF.ProjectId,RocketPCR,526f636b-6574-4504-9352-2e6b69636164,rev?*
G04 #@! TF.SameCoordinates,Original*
G04 #@! TF.FileFunction,Legend,Bot*
G04 #@! TF.FilePolarity,Positive*
%FSLAX46Y46*%
G04 Gerber Fmt 4.6, Leading zero omitted, Abs format (unit mm)*
G04 Created by KiCad (PCBNEW 5.0.2-bee76a0~70~ubuntu18.04.1) date Mo 24 Jun 2019 09:04:58 CEST*
%MOMM*%
%LPD*%
G01*
G04 APERTURE LIST*
%ADD10C,0.200000*%
%ADD11C,0.150000*%
%ADD12C,0.250000*%
%ADD13C,0.120000*%
%ADD14C,0.152400*%
%ADD15C,0.010000*%
G04 APERTURE END LIST*
D10*
X152452380Y-113677380D02*
X152452380Y-112677380D01*
X152071428Y-112677380D01*
X151976190Y-112725000D01*
X151928571Y-112772619D01*
X151880952Y-112867857D01*
X151880952Y-113010714D01*
X151928571Y-113105952D01*
X151976190Y-113153571D01*
X152071428Y-113201190D01*
X152452380Y-113201190D01*
X151309523Y-113677380D02*
X151404761Y-113629761D01*
X151452380Y-113582142D01*
X151500000Y-113486904D01*
X151500000Y-113201190D01*
X151452380Y-113105952D01*
X151404761Y-113058333D01*
X151309523Y-113010714D01*
X151166666Y-113010714D01*
X151071428Y-113058333D01*
X151023809Y-113105952D01*
X150976190Y-113201190D01*
X150976190Y-113486904D01*
X151023809Y-113582142D01*
X151071428Y-113629761D01*
X151166666Y-113677380D01*
X151309523Y-113677380D01*
X150119047Y-113629761D02*
X150214285Y-113677380D01*
X150404761Y-113677380D01*
X150500000Y-113629761D01*
X150547619Y-113582142D01*
X150595238Y-113486904D01*
X150595238Y-113201190D01*
X150547619Y-113105952D01*
X150500000Y-113058333D01*
X150404761Y-113010714D01*
X150214285Y-113010714D01*
X150119047Y-113058333D01*
X149690476Y-113677380D02*
X149690476Y-112677380D01*
X149595238Y-113296428D02*
X149309523Y-113677380D01*
X149309523Y-113010714D02*
X149690476Y-113391666D01*
X148500000Y-113629761D02*
X148595238Y-113677380D01*
X148785714Y-113677380D01*
X148880952Y-113629761D01*
X148928571Y-113534523D01*
X148928571Y-113153571D01*
X148880952Y-113058333D01*
X148785714Y-113010714D01*
X148595238Y-113010714D01*
X148500000Y-113058333D01*
X148452380Y-113153571D01*
X148452380Y-113248809D01*
X148928571Y-113344047D01*
X148166666Y-113010714D02*
X147785714Y-113010714D01*
X148023809Y-112677380D02*
X148023809Y-113534523D01*
X147976190Y-113629761D01*
X147880952Y-113677380D01*
X147785714Y-113677380D01*
X146690476Y-113677380D02*
X146690476Y-112677380D01*
X146309523Y-112677380D01*
X146214285Y-112725000D01*
X146166666Y-112772619D01*
X146119047Y-112867857D01*
X146119047Y-113010714D01*
X146166666Y-113105952D01*
X146214285Y-113153571D01*
X146309523Y-113201190D01*
X146690476Y-113201190D01*
X145119047Y-113582142D02*
X145166666Y-113629761D01*
X145309523Y-113677380D01*
X145404761Y-113677380D01*
X145547619Y-113629761D01*
X145642857Y-113534523D01*
X145690476Y-113439285D01*
X145738095Y-113248809D01*
X145738095Y-113105952D01*
X145690476Y-112915476D01*
X145642857Y-112820238D01*
X145547619Y-112725000D01*
X145404761Y-112677380D01*
X145309523Y-112677380D01*
X145166666Y-112725000D01*
X145119047Y-112772619D01*
X144119047Y-113677380D02*
X144452380Y-113201190D01*
X144690476Y-113677380D02*
X144690476Y-112677380D01*
X144309523Y-112677380D01*
X144214285Y-112725000D01*
X144166666Y-112772619D01*
X144119047Y-112867857D01*
X144119047Y-113010714D01*
X144166666Y-113105952D01*
X144214285Y-113153571D01*
X144309523Y-113201190D01*
X144690476Y-113201190D01*
X143071428Y-112677380D02*
X142738095Y-113677380D01*
X142404761Y-112677380D01*
X141547619Y-113677380D02*
X142119047Y-113677380D01*
X141833333Y-113677380D02*
X141833333Y-112677380D01*
X141928571Y-112820238D01*
X142023809Y-112915476D01*
X142119047Y-112963095D01*
X141119047Y-113582142D02*
X141071428Y-113629761D01*
X141119047Y-113677380D01*
X141166666Y-113629761D01*
X141119047Y-113582142D01*
X141119047Y-113677380D01*
X140452380Y-112677380D02*
X140357142Y-112677380D01*
X140261904Y-112725000D01*
X140214285Y-112772619D01*
X140166666Y-112867857D01*
X140119047Y-113058333D01*
X140119047Y-113296428D01*
X140166666Y-113486904D01*
X140214285Y-113582142D01*
X140261904Y-113629761D01*
X140357142Y-113677380D01*
X140452380Y-113677380D01*
X140547619Y-113629761D01*
X140595238Y-113582142D01*
X140642857Y-113486904D01*
X140690476Y-113296428D01*
X140690476Y-113058333D01*
X140642857Y-112867857D01*
X140595238Y-112772619D01*
X140547619Y-112725000D01*
X140452380Y-112677380D01*
X139642857Y-113629761D02*
X139642857Y-113677380D01*
X139690476Y-113772619D01*
X139738095Y-113820238D01*
X138500000Y-112772619D02*
X138452380Y-112725000D01*
X138357142Y-112677380D01*
X138119047Y-112677380D01*
X138023809Y-112725000D01*
X137976190Y-112772619D01*
X137928571Y-112867857D01*
X137928571Y-112963095D01*
X137976190Y-113105952D01*
X138547619Y-113677380D01*
X137928571Y-113677380D01*
X137309523Y-112677380D02*
X137214285Y-112677380D01*
X137119047Y-112725000D01*
X137071428Y-112772619D01*
X137023809Y-112867857D01*
X136976190Y-113058333D01*
X136976190Y-113296428D01*
X137023809Y-113486904D01*
X137071428Y-113582142D01*
X137119047Y-113629761D01*
X137214285Y-113677380D01*
X137309523Y-113677380D01*
X137404761Y-113629761D01*
X137452380Y-113582142D01*
X137500000Y-113486904D01*
X137547619Y-113296428D01*
X137547619Y-113058333D01*
X137500000Y-112867857D01*
X137452380Y-112772619D01*
X137404761Y-112725000D01*
X137309523Y-112677380D01*
X136023809Y-113677380D02*
X136595238Y-113677380D01*
X136309523Y-113677380D02*
X136309523Y-112677380D01*
X136404761Y-112820238D01*
X136500000Y-112915476D01*
X136595238Y-112963095D01*
X135547619Y-113677380D02*
X135357142Y-113677380D01*
X135261904Y-113629761D01*
X135214285Y-113582142D01*
X135119047Y-113439285D01*
X135071428Y-113248809D01*
X135071428Y-112867857D01*
X135119047Y-112772619D01*
X135166666Y-112725000D01*
X135261904Y-112677380D01*
X135452380Y-112677380D01*
X135547619Y-112725000D01*
X135595238Y-112772619D01*
X135642857Y-112867857D01*
X135642857Y-113105952D01*
X135595238Y-113201190D01*
X135547619Y-113248809D01*
X135452380Y-113296428D01*
X135261904Y-113296428D01*
X135166666Y-113248809D01*
X135119047Y-113201190D01*
X135071428Y-113105952D01*
X134595238Y-113629761D02*
X134595238Y-113677380D01*
X134642857Y-113772619D01*
X134690476Y-113820238D01*
X132976190Y-113010714D02*
X132976190Y-113820238D01*
X133023809Y-113915476D01*
X133071428Y-113963095D01*
X133166666Y-114010714D01*
X133309523Y-114010714D01*
X133404761Y-113963095D01*
X132976190Y-113629761D02*
X133071428Y-113677380D01*
X133261904Y-113677380D01*
X133357142Y-113629761D01*
X133404761Y-113582142D01*
X133452380Y-113486904D01*
X133452380Y-113201190D01*
X133404761Y-113105952D01*
X133357142Y-113058333D01*
X133261904Y-113010714D01*
X133071428Y-113010714D01*
X132976190Y-113058333D01*
X132071428Y-113677380D02*
X132071428Y-113153571D01*
X132119047Y-113058333D01*
X132214285Y-113010714D01*
X132404761Y-113010714D01*
X132500000Y-113058333D01*
X132071428Y-113629761D02*
X132166666Y-113677380D01*
X132404761Y-113677380D01*
X132500000Y-113629761D01*
X132547619Y-113534523D01*
X132547619Y-113439285D01*
X132500000Y-113344047D01*
X132404761Y-113296428D01*
X132166666Y-113296428D01*
X132071428Y-113248809D01*
X131166666Y-113010714D02*
X131166666Y-113677380D01*
X131595238Y-113010714D02*
X131595238Y-113534523D01*
X131547619Y-113629761D01*
X131452380Y-113677380D01*
X131309523Y-113677380D01*
X131214285Y-113629761D01*
X131166666Y-113582142D01*
X130261904Y-113677380D02*
X130261904Y-112677380D01*
X130261904Y-113629761D02*
X130357142Y-113677380D01*
X130547619Y-113677380D01*
X130642857Y-113629761D01*
X130690476Y-113582142D01*
X130738095Y-113486904D01*
X130738095Y-113201190D01*
X130690476Y-113105952D01*
X130642857Y-113058333D01*
X130547619Y-113010714D01*
X130357142Y-113010714D01*
X130261904Y-113058333D01*
X129785714Y-113677380D02*
X129785714Y-113010714D01*
X129785714Y-112677380D02*
X129833333Y-112725000D01*
X129785714Y-112772619D01*
X129738095Y-112725000D01*
X129785714Y-112677380D01*
X129785714Y-112772619D01*
X129309523Y-113582142D02*
X129261904Y-113629761D01*
X129309523Y-113677380D01*
X129357142Y-113629761D01*
X129309523Y-113582142D01*
X129309523Y-113677380D01*
X128404761Y-113629761D02*
X128500000Y-113677380D01*
X128690476Y-113677380D01*
X128785714Y-113629761D01*
X128833333Y-113582142D01*
X128880952Y-113486904D01*
X128880952Y-113201190D01*
X128833333Y-113105952D01*
X128785714Y-113058333D01*
X128690476Y-113010714D01*
X128500000Y-113010714D01*
X128404761Y-113058333D01*
X127976190Y-113677380D02*
X127976190Y-112677380D01*
X127547619Y-113677380D02*
X127547619Y-113153571D01*
X127595238Y-113058333D01*
X127690476Y-113010714D01*
X127833333Y-113010714D01*
X127928571Y-113058333D01*
X127976190Y-113105952D01*
D11*
X114973909Y-114991678D02*
X85157499Y-114991678D01*
X114842891Y-85044027D02*
X114973909Y-114991678D01*
X85026481Y-85044027D02*
X114842891Y-85044027D01*
X85157499Y-114991678D02*
X85026481Y-85044027D01*
D12*
X174871261Y-107185380D02*
X174976023Y-107133000D01*
X175080785Y-107028238D01*
X175237928Y-106871095D01*
X175342690Y-106818714D01*
X175447452Y-106818714D01*
X175395071Y-107080619D02*
X175499833Y-107028238D01*
X175604595Y-106923476D01*
X175656976Y-106713952D01*
X175656976Y-106347285D01*
X175604595Y-106137761D01*
X175499833Y-106033000D01*
X175395071Y-105980619D01*
X175185547Y-105980619D01*
X175080785Y-106033000D01*
X174976023Y-106137761D01*
X174923642Y-106347285D01*
X174923642Y-106713952D01*
X174976023Y-106923476D01*
X175080785Y-107028238D01*
X175185547Y-107080619D01*
X175395071Y-107080619D01*
X174452214Y-106975857D02*
X174399833Y-107028238D01*
X174452214Y-107080619D01*
X174504595Y-107028238D01*
X174452214Y-106975857D01*
X174452214Y-107080619D01*
X173299833Y-106975857D02*
X173352214Y-107028238D01*
X173509357Y-107080619D01*
X173614119Y-107080619D01*
X173771261Y-107028238D01*
X173876023Y-106923476D01*
X173928404Y-106818714D01*
X173980785Y-106609190D01*
X173980785Y-106452047D01*
X173928404Y-106242523D01*
X173876023Y-106137761D01*
X173771261Y-106033000D01*
X173614119Y-105980619D01*
X173509357Y-105980619D01*
X173352214Y-106033000D01*
X173299833Y-106085380D01*
X172828404Y-106975857D02*
X172776023Y-107028238D01*
X172828404Y-107080619D01*
X172880785Y-107028238D01*
X172828404Y-106975857D01*
X172828404Y-107080619D01*
X175604595Y-108980619D02*
X175604595Y-107880619D01*
X175185547Y-107880619D01*
X175080785Y-107933000D01*
X175028404Y-107985380D01*
X174976023Y-108090142D01*
X174976023Y-108247285D01*
X175028404Y-108352047D01*
X175080785Y-108404428D01*
X175185547Y-108456809D01*
X175604595Y-108456809D01*
X174556976Y-108666333D02*
X174033166Y-108666333D01*
X174661738Y-108980619D02*
X174295071Y-107880619D01*
X173928404Y-108980619D01*
X173614119Y-108928238D02*
X173456976Y-108980619D01*
X173195071Y-108980619D01*
X173090309Y-108928238D01*
X173037928Y-108875857D01*
X172985547Y-108771095D01*
X172985547Y-108666333D01*
X173037928Y-108561571D01*
X173090309Y-108509190D01*
X173195071Y-108456809D01*
X173404595Y-108404428D01*
X173509357Y-108352047D01*
X173561738Y-108299666D01*
X173614119Y-108194904D01*
X173614119Y-108090142D01*
X173561738Y-107985380D01*
X173509357Y-107933000D01*
X173404595Y-107880619D01*
X173142690Y-107880619D01*
X172985547Y-107933000D01*
X172566500Y-108928238D02*
X172409357Y-108980619D01*
X172147452Y-108980619D01*
X172042690Y-108928238D01*
X171990309Y-108875857D01*
X171937928Y-108771095D01*
X171937928Y-108666333D01*
X171990309Y-108561571D01*
X172042690Y-108509190D01*
X172147452Y-108456809D01*
X172356976Y-108404428D01*
X172461738Y-108352047D01*
X172514119Y-108299666D01*
X172566500Y-108194904D01*
X172566500Y-108090142D01*
X172514119Y-107985380D01*
X172461738Y-107933000D01*
X172356976Y-107880619D01*
X172095071Y-107880619D01*
X171937928Y-107933000D01*
X171466500Y-108404428D02*
X171099833Y-108404428D01*
X170942690Y-108980619D02*
X171466500Y-108980619D01*
X171466500Y-107880619D01*
X170942690Y-107880619D01*
X170471261Y-108980619D02*
X170471261Y-107880619D01*
X170209357Y-107880619D01*
X170052214Y-107933000D01*
X169947452Y-108037761D01*
X169895071Y-108142523D01*
X169842690Y-108352047D01*
X169842690Y-108509190D01*
X169895071Y-108718714D01*
X169947452Y-108823476D01*
X170052214Y-108928238D01*
X170209357Y-108980619D01*
X170471261Y-108980619D01*
D10*
X170892523Y-88124380D02*
X171368714Y-88124380D01*
X171368714Y-87124380D01*
X170559190Y-88124380D02*
X170559190Y-87124380D01*
X169749666Y-87600571D02*
X170083000Y-87600571D01*
X170083000Y-88124380D02*
X170083000Y-87124380D01*
X169606809Y-87124380D01*
X169225857Y-87600571D02*
X168892523Y-87600571D01*
X168749666Y-88124380D02*
X169225857Y-88124380D01*
X169225857Y-87124380D01*
X168749666Y-87124380D01*
D13*
G04 #@! TO.C,L1*
X165296936Y-115784000D02*
X166501064Y-115784000D01*
X165296936Y-113964000D02*
X166501064Y-113964000D01*
D14*
G04 #@! TO.C,U2*
X144293228Y-89011000D02*
G75*
G03X144293228Y-89011000I-316228J0D01*
G01*
D11*
X143302000Y-89186000D02*
X143302000Y-89711000D01*
X136052000Y-89186000D02*
X136052000Y-89711000D01*
X136052000Y-96436000D02*
X136052000Y-95911000D01*
X143302000Y-96436000D02*
X143302000Y-95911000D01*
X143302000Y-89186000D02*
X142777000Y-89186000D01*
X143302000Y-96436000D02*
X142777000Y-96436000D01*
X136052000Y-96436000D02*
X136577000Y-96436000D01*
X136052000Y-89186000D02*
X136577000Y-89186000D01*
X143302000Y-89711000D02*
X144677000Y-89711000D01*
D13*
G04 #@! TO.C,Y1*
X148919000Y-88691400D02*
X147569000Y-88691400D01*
X148919000Y-90441400D02*
X147569000Y-90441400D01*
D11*
G04 #@! TO.C,LED2*
X164827000Y-85180020D02*
X164827000Y-87880020D01*
X163327000Y-85180020D02*
X163327000Y-87880020D01*
X164227000Y-86680020D02*
X163977000Y-86680020D01*
X163977000Y-86680020D02*
X164127000Y-86530020D01*
X163727000Y-86430020D02*
X164427000Y-86430020D01*
X164077000Y-86780020D02*
X164077000Y-87130020D01*
X164077000Y-86430020D02*
X163727000Y-86780020D01*
X163727000Y-86780020D02*
X164427000Y-86780020D01*
X164427000Y-86780020D02*
X164077000Y-86430020D01*
G04 #@! TO.C,LED1*
X167557000Y-85180020D02*
X167557000Y-87880020D01*
X166057000Y-85180020D02*
X166057000Y-87880020D01*
X166957000Y-86680020D02*
X166707000Y-86680020D01*
X166707000Y-86680020D02*
X166857000Y-86530020D01*
X166457000Y-86430020D02*
X167157000Y-86430020D01*
X166807000Y-86780020D02*
X166807000Y-87130020D01*
X166807000Y-86430020D02*
X166457000Y-86780020D01*
X166457000Y-86780020D02*
X167157000Y-86780020D01*
X167157000Y-86780020D02*
X166807000Y-86430020D01*
G04 #@! TO.C,U1*
X151501000Y-90503000D02*
X151501000Y-87455000D01*
X151501000Y-87455000D02*
X158613000Y-87455000D01*
X158613000Y-87455000D02*
X158613000Y-90503000D01*
X151501000Y-93551000D02*
X151501000Y-94313000D01*
X151501000Y-94313000D02*
X153025000Y-96599000D01*
X153025000Y-96599000D02*
X157089000Y-96599000D01*
X157089000Y-96599000D02*
X158613000Y-94313000D01*
X158613000Y-94313000D02*
X158613000Y-93551000D01*
D13*
G04 #@! TO.C,J3*
X175327000Y-103215000D02*
X175327000Y-104715000D01*
X175327000Y-104715000D02*
X182587000Y-104715000D01*
X175327000Y-95215000D02*
X182587000Y-95215000D01*
X175327000Y-95215000D02*
X175327000Y-96715000D01*
D14*
G04 #@! TO.C,J2*
X120202228Y-85659000D02*
G75*
G03X120202228Y-85659000I-316228J0D01*
G01*
D13*
X125656000Y-91224000D02*
X127986000Y-91224000D01*
X125656000Y-87694000D02*
X127986000Y-87694000D01*
X116986000Y-91224000D02*
X119316000Y-91224000D01*
X116986000Y-87694000D02*
X119316000Y-87694000D01*
X119316000Y-86369000D02*
X119316000Y-87694000D01*
X127986000Y-87694000D02*
X127986000Y-91224000D01*
X116986000Y-87694000D02*
X116986000Y-91224000D01*
G04 #@! TO.C,Q2*
X122103000Y-102693000D02*
X122103000Y-103623000D01*
X122103000Y-105853000D02*
X122103000Y-104923000D01*
X122103000Y-105853000D02*
X119943000Y-105853000D01*
X122103000Y-102693000D02*
X120643000Y-102693000D01*
G04 #@! TO.C,Q1*
X117017600Y-111253000D02*
X117017600Y-110323000D01*
X117017600Y-108093000D02*
X117017600Y-109023000D01*
X117017600Y-108093000D02*
X119177600Y-108093000D01*
X117017600Y-111253000D02*
X118477600Y-111253000D01*
G04 #@! TO.C,Q3*
X118775600Y-98121000D02*
X118775600Y-99051000D01*
X118775600Y-101281000D02*
X118775600Y-100351000D01*
X118775600Y-101281000D02*
X116615600Y-101281000D01*
X118775600Y-98121000D02*
X117315600Y-98121000D01*
G04 #@! TO.C,C2*
X158677064Y-84965000D02*
X157472936Y-84965000D01*
X158677064Y-86785000D02*
X157472936Y-86785000D01*
G04 #@! TO.C,C3*
X163143864Y-111516400D02*
X161939736Y-111516400D01*
X163143864Y-113336400D02*
X161939736Y-113336400D01*
G04 #@! TO.C,C4*
X162460000Y-86733578D02*
X162460000Y-86216422D01*
X161040000Y-86733578D02*
X161040000Y-86216422D01*
G04 #@! TO.C,C6*
X155384422Y-98388000D02*
X155901578Y-98388000D01*
X155384422Y-99808000D02*
X155901578Y-99808000D01*
G04 #@! TO.C,R4*
X120251578Y-94414000D02*
X119734422Y-94414000D01*
X120251578Y-95834000D02*
X119734422Y-95834000D01*
G04 #@! TO.C,C1*
X139508578Y-86593400D02*
X138991422Y-86593400D01*
X139508578Y-85173400D02*
X138991422Y-85173400D01*
G04 #@! TO.C,C5*
X153739064Y-84940000D02*
X152534936Y-84940000D01*
X153739064Y-86760000D02*
X152534936Y-86760000D01*
G04 #@! TO.C,C7*
X142912422Y-86593400D02*
X143429578Y-86593400D01*
X142912422Y-85173400D02*
X143429578Y-85173400D01*
G04 #@! TO.C,C8*
X131682000Y-89917422D02*
X131682000Y-90434578D01*
X133102000Y-89917422D02*
X133102000Y-90434578D01*
G04 #@! TO.C,C9*
X145867000Y-97473578D02*
X145867000Y-96956422D01*
X147287000Y-97473578D02*
X147287000Y-96956422D01*
G04 #@! TO.C,C10*
X147884800Y-86158222D02*
X147884800Y-86675378D01*
X146464800Y-86158222D02*
X146464800Y-86675378D01*
G04 #@! TO.C,C11*
X148547600Y-86132822D02*
X148547600Y-86649978D01*
X149967600Y-86132822D02*
X149967600Y-86649978D01*
G04 #@! TO.C,C12*
X147961000Y-93050778D02*
X147961000Y-92533622D01*
X146541000Y-93050778D02*
X146541000Y-92533622D01*
G04 #@! TO.C,C14*
X128253000Y-105335222D02*
X128253000Y-105852378D01*
X129673000Y-105335222D02*
X129673000Y-105852378D01*
G04 #@! TO.C,C15*
X153907000Y-104912578D02*
X153907000Y-104395422D01*
X155327000Y-104912578D02*
X155327000Y-104395422D01*
G04 #@! TO.C,C16*
X129723800Y-109323022D02*
X129723800Y-109840178D01*
X128303800Y-109323022D02*
X128303800Y-109840178D01*
G04 #@! TO.C,C17*
X153856200Y-108646622D02*
X153856200Y-109163778D01*
X155276200Y-108646622D02*
X155276200Y-109163778D01*
G04 #@! TO.C,R1*
X135764578Y-85148000D02*
X135247422Y-85148000D01*
X135764578Y-86568000D02*
X135247422Y-86568000D01*
G04 #@! TO.C,R2*
X167185422Y-90886000D02*
X167702578Y-90886000D01*
X167185422Y-89466000D02*
X167702578Y-89466000D01*
G04 #@! TO.C,R3*
X163248422Y-89455000D02*
X163765578Y-89455000D01*
X163248422Y-90875000D02*
X163765578Y-90875000D01*
G04 #@! TO.C,R7*
X152583800Y-108672022D02*
X152583800Y-109189178D01*
X151163800Y-108672022D02*
X151163800Y-109189178D01*
G04 #@! TO.C,R9*
X179259578Y-91879000D02*
X178742422Y-91879000D01*
X179259578Y-93299000D02*
X178742422Y-93299000D01*
G04 #@! TO.C,R10*
X175379422Y-91879000D02*
X175896578Y-91879000D01*
X175379422Y-93299000D02*
X175896578Y-93299000D01*
D15*
G04 #@! TO.C,G\002A\002A\002A*
G36*
X166142250Y-97064728D02*
X166104278Y-97100171D01*
X166090162Y-97126226D01*
X166078832Y-97182620D01*
X166090012Y-97232297D01*
X166118609Y-97271874D01*
X166159529Y-97297970D01*
X166207678Y-97307202D01*
X166257962Y-97296187D01*
X166300867Y-97266133D01*
X166327882Y-97235087D01*
X166337833Y-97206791D01*
X166335626Y-97166952D01*
X166335430Y-97165481D01*
X166332494Y-97156903D01*
X166279204Y-97156903D01*
X166278903Y-97191260D01*
X166270533Y-97210668D01*
X166245538Y-97233030D01*
X166209673Y-97240831D01*
X166173915Y-97234288D01*
X166149239Y-97213617D01*
X166146756Y-97208236D01*
X166138180Y-97165967D01*
X166151252Y-97140101D01*
X166187449Y-97128712D01*
X166208375Y-97127778D01*
X166255353Y-97135287D01*
X166279204Y-97156903D01*
X166332494Y-97156903D01*
X166316976Y-97111569D01*
X166282243Y-97073547D01*
X166237420Y-97052406D01*
X166188693Y-97049136D01*
X166142250Y-97064728D01*
X166142250Y-97064728D01*
G37*
X166142250Y-97064728D02*
X166104278Y-97100171D01*
X166090162Y-97126226D01*
X166078832Y-97182620D01*
X166090012Y-97232297D01*
X166118609Y-97271874D01*
X166159529Y-97297970D01*
X166207678Y-97307202D01*
X166257962Y-97296187D01*
X166300867Y-97266133D01*
X166327882Y-97235087D01*
X166337833Y-97206791D01*
X166335626Y-97166952D01*
X166335430Y-97165481D01*
X166332494Y-97156903D01*
X166279204Y-97156903D01*
X166278903Y-97191260D01*
X166270533Y-97210668D01*
X166245538Y-97233030D01*
X166209673Y-97240831D01*
X166173915Y-97234288D01*
X166149239Y-97213617D01*
X166146756Y-97208236D01*
X166138180Y-97165967D01*
X166151252Y-97140101D01*
X166187449Y-97128712D01*
X166208375Y-97127778D01*
X166255353Y-97135287D01*
X166279204Y-97156903D01*
X166332494Y-97156903D01*
X166316976Y-97111569D01*
X166282243Y-97073547D01*
X166237420Y-97052406D01*
X166188693Y-97049136D01*
X166142250Y-97064728D01*
G36*
X164874022Y-97019374D02*
X164787064Y-97038469D01*
X164714863Y-97077397D01*
X164658246Y-97132024D01*
X164618038Y-97198218D01*
X164595067Y-97271845D01*
X164590158Y-97348771D01*
X164604138Y-97424862D01*
X164637833Y-97495987D01*
X164692070Y-97558010D01*
X164757571Y-97601843D01*
X164816331Y-97623483D01*
X164882808Y-97635453D01*
X164944973Y-97636214D01*
X164977403Y-97629958D01*
X165067684Y-97588074D01*
X165136601Y-97528472D01*
X165183902Y-97451444D01*
X165208095Y-97365513D01*
X165207891Y-97336317D01*
X165100495Y-97336317D01*
X165088663Y-97377572D01*
X165079338Y-97406888D01*
X165067860Y-97426603D01*
X165049073Y-97438621D01*
X165017824Y-97444846D01*
X164968958Y-97447183D01*
X164899319Y-97447537D01*
X164739550Y-97447537D01*
X164719406Y-97399325D01*
X164706303Y-97366174D01*
X164699521Y-97345519D01*
X164699261Y-97343714D01*
X164712347Y-97341093D01*
X164748337Y-97338880D01*
X164802332Y-97337256D01*
X164869433Y-97336402D01*
X164899878Y-97336317D01*
X165100495Y-97336317D01*
X165207891Y-97336317D01*
X165207524Y-97284178D01*
X165193221Y-97238999D01*
X165078022Y-97238999D01*
X164902544Y-97238999D01*
X164836369Y-97238146D01*
X164781609Y-97235818D01*
X164743505Y-97232356D01*
X164727293Y-97228104D01*
X164727067Y-97227519D01*
X164738008Y-97207344D01*
X164765206Y-97181433D01*
X164800227Y-97156829D01*
X164828765Y-97142607D01*
X164894652Y-97130503D01*
X164961066Y-97140202D01*
X165019655Y-97169289D01*
X165058017Y-97208868D01*
X165078022Y-97238999D01*
X165193221Y-97238999D01*
X165181729Y-97202700D01*
X165132636Y-97126945D01*
X165128140Y-97121739D01*
X165059254Y-97061444D01*
X164980965Y-97027183D01*
X164891652Y-97018306D01*
X164874022Y-97019374D01*
X164874022Y-97019374D01*
G37*
X164874022Y-97019374D02*
X164787064Y-97038469D01*
X164714863Y-97077397D01*
X164658246Y-97132024D01*
X164618038Y-97198218D01*
X164595067Y-97271845D01*
X164590158Y-97348771D01*
X164604138Y-97424862D01*
X164637833Y-97495987D01*
X164692070Y-97558010D01*
X164757571Y-97601843D01*
X164816331Y-97623483D01*
X164882808Y-97635453D01*
X164944973Y-97636214D01*
X164977403Y-97629958D01*
X165067684Y-97588074D01*
X165136601Y-97528472D01*
X165183902Y-97451444D01*
X165208095Y-97365513D01*
X165207891Y-97336317D01*
X165100495Y-97336317D01*
X165088663Y-97377572D01*
X165079338Y-97406888D01*
X165067860Y-97426603D01*
X165049073Y-97438621D01*
X165017824Y-97444846D01*
X164968958Y-97447183D01*
X164899319Y-97447537D01*
X164739550Y-97447537D01*
X164719406Y-97399325D01*
X164706303Y-97366174D01*
X164699521Y-97345519D01*
X164699261Y-97343714D01*
X164712347Y-97341093D01*
X164748337Y-97338880D01*
X164802332Y-97337256D01*
X164869433Y-97336402D01*
X164899878Y-97336317D01*
X165100495Y-97336317D01*
X165207891Y-97336317D01*
X165207524Y-97284178D01*
X165193221Y-97238999D01*
X165078022Y-97238999D01*
X164902544Y-97238999D01*
X164836369Y-97238146D01*
X164781609Y-97235818D01*
X164743505Y-97232356D01*
X164727293Y-97228104D01*
X164727067Y-97227519D01*
X164738008Y-97207344D01*
X164765206Y-97181433D01*
X164800227Y-97156829D01*
X164828765Y-97142607D01*
X164894652Y-97130503D01*
X164961066Y-97140202D01*
X165019655Y-97169289D01*
X165058017Y-97208868D01*
X165078022Y-97238999D01*
X165193221Y-97238999D01*
X165181729Y-97202700D01*
X165132636Y-97126945D01*
X165128140Y-97121739D01*
X165059254Y-97061444D01*
X164980965Y-97027183D01*
X164891652Y-97018306D01*
X164874022Y-97019374D01*
G36*
X165716521Y-97473656D02*
X165648424Y-97507511D01*
X165595919Y-97558816D01*
X165561656Y-97623383D01*
X165548282Y-97697024D01*
X165558445Y-97775548D01*
X165573465Y-97815955D01*
X165607133Y-97873450D01*
X165650815Y-97913330D01*
X165703785Y-97940548D01*
X165783307Y-97959869D01*
X165862321Y-97951446D01*
X165894469Y-97939918D01*
X165954235Y-97906307D01*
X165997215Y-97861089D01*
X166021485Y-97819985D01*
X166034564Y-97778776D01*
X165936590Y-97778776D01*
X165926479Y-97796583D01*
X165902350Y-97821042D01*
X165873513Y-97843667D01*
X165853175Y-97854796D01*
X165793022Y-97862583D01*
X165732126Y-97844303D01*
X165713801Y-97833334D01*
X165678276Y-97807128D01*
X165663021Y-97788768D01*
X165669683Y-97776938D01*
X165699906Y-97770322D01*
X165755336Y-97767605D01*
X165796406Y-97767296D01*
X165855028Y-97768355D01*
X165901611Y-97771210D01*
X165930297Y-97775381D01*
X165936590Y-97778776D01*
X166034564Y-97778776D01*
X166045673Y-97743775D01*
X166044337Y-97669978D01*
X165949897Y-97669978D01*
X165796777Y-97669978D01*
X165730136Y-97669729D01*
X165686955Y-97668425D01*
X165662889Y-97665228D01*
X165653595Y-97659303D01*
X165654727Y-97649813D01*
X165657962Y-97643251D01*
X165694991Y-97598509D01*
X165744628Y-97570835D01*
X165800113Y-97560452D01*
X165854689Y-97567582D01*
X165901596Y-97592448D01*
X165933586Y-97634179D01*
X165949897Y-97669978D01*
X166044337Y-97669978D01*
X166044255Y-97665473D01*
X166018139Y-97591353D01*
X165980889Y-97540138D01*
X165923727Y-97492147D01*
X165861206Y-97467353D01*
X165797565Y-97461440D01*
X165716521Y-97473656D01*
X165716521Y-97473656D01*
G37*
X165716521Y-97473656D02*
X165648424Y-97507511D01*
X165595919Y-97558816D01*
X165561656Y-97623383D01*
X165548282Y-97697024D01*
X165558445Y-97775548D01*
X165573465Y-97815955D01*
X165607133Y-97873450D01*
X165650815Y-97913330D01*
X165703785Y-97940548D01*
X165783307Y-97959869D01*
X165862321Y-97951446D01*
X165894469Y-97939918D01*
X165954235Y-97906307D01*
X165997215Y-97861089D01*
X166021485Y-97819985D01*
X166034564Y-97778776D01*
X165936590Y-97778776D01*
X165926479Y-97796583D01*
X165902350Y-97821042D01*
X165873513Y-97843667D01*
X165853175Y-97854796D01*
X165793022Y-97862583D01*
X165732126Y-97844303D01*
X165713801Y-97833334D01*
X165678276Y-97807128D01*
X165663021Y-97788768D01*
X165669683Y-97776938D01*
X165699906Y-97770322D01*
X165755336Y-97767605D01*
X165796406Y-97767296D01*
X165855028Y-97768355D01*
X165901611Y-97771210D01*
X165930297Y-97775381D01*
X165936590Y-97778776D01*
X166034564Y-97778776D01*
X166045673Y-97743775D01*
X166044337Y-97669978D01*
X165949897Y-97669978D01*
X165796777Y-97669978D01*
X165730136Y-97669729D01*
X165686955Y-97668425D01*
X165662889Y-97665228D01*
X165653595Y-97659303D01*
X165654727Y-97649813D01*
X165657962Y-97643251D01*
X165694991Y-97598509D01*
X165744628Y-97570835D01*
X165800113Y-97560452D01*
X165854689Y-97567582D01*
X165901596Y-97592448D01*
X165933586Y-97634179D01*
X165949897Y-97669978D01*
X166044337Y-97669978D01*
X166044255Y-97665473D01*
X166018139Y-97591353D01*
X165980889Y-97540138D01*
X165923727Y-97492147D01*
X165861206Y-97467353D01*
X165797565Y-97461440D01*
X165716521Y-97473656D01*
G36*
X163612809Y-96655952D02*
X163592224Y-96658737D01*
X163493123Y-96672448D01*
X163338091Y-97206006D01*
X163183060Y-97739563D01*
X163127863Y-98269970D01*
X163072667Y-98800377D01*
X163119753Y-98885123D01*
X163145792Y-98937961D01*
X163166477Y-98990736D01*
X163176236Y-99026902D01*
X163183774Y-99057393D01*
X163198220Y-99084106D01*
X163224327Y-99113153D01*
X163266847Y-99150650D01*
X163282632Y-99163735D01*
X163379633Y-99243534D01*
X163645822Y-99123898D01*
X163725406Y-99088794D01*
X163796347Y-99058769D01*
X163854798Y-99035346D01*
X163896913Y-99020049D01*
X163918845Y-99014403D01*
X163920961Y-99014870D01*
X163930842Y-99027215D01*
X163956649Y-99059632D01*
X163997022Y-99110412D01*
X164050606Y-99177847D01*
X164116042Y-99260227D01*
X164191972Y-99355842D01*
X164277041Y-99462984D01*
X164369889Y-99579943D01*
X164469159Y-99705011D01*
X164573495Y-99836477D01*
X164580839Y-99845731D01*
X164687676Y-99980110D01*
X164791314Y-100109988D01*
X164890185Y-100233430D01*
X164982724Y-100348501D01*
X165067362Y-100453266D01*
X165142533Y-100545791D01*
X165206670Y-100624139D01*
X165258204Y-100686376D01*
X165295570Y-100730568D01*
X165316554Y-100754113D01*
X165358610Y-100796984D01*
X165416653Y-100854894D01*
X165488675Y-100925919D01*
X165572666Y-101008132D01*
X165666618Y-101099608D01*
X165768523Y-101198421D01*
X165876371Y-101302646D01*
X165988154Y-101410357D01*
X166101863Y-101519628D01*
X166215489Y-101628535D01*
X166327025Y-101735151D01*
X166434460Y-101837550D01*
X166535786Y-101933808D01*
X166628995Y-102021998D01*
X166712077Y-102100195D01*
X166783025Y-102166474D01*
X166839829Y-102218909D01*
X166880480Y-102255573D01*
X166901298Y-102273265D01*
X166933128Y-102290089D01*
X166982581Y-102307941D01*
X167039733Y-102324044D01*
X167094665Y-102335619D01*
X167137453Y-102339890D01*
X167139163Y-102339860D01*
X167158111Y-102335123D01*
X167195590Y-102322918D01*
X167244155Y-102305696D01*
X167253807Y-102302139D01*
X167309165Y-102279808D01*
X167347421Y-102257953D01*
X167378258Y-102229586D01*
X167410211Y-102189279D01*
X167438694Y-102147653D01*
X167458921Y-102112394D01*
X167466328Y-102091961D01*
X167467885Y-102072383D01*
X167235400Y-102072383D01*
X167231732Y-102080452D01*
X167208102Y-102094954D01*
X167169500Y-102111219D01*
X167128037Y-102124706D01*
X167097455Y-102130784D01*
X167077621Y-102123358D01*
X167052272Y-102105684D01*
X167029842Y-102084474D01*
X167020991Y-102071390D01*
X167033809Y-102067624D01*
X167067929Y-102064770D01*
X167116854Y-102063296D01*
X167134992Y-102063191D01*
X167191229Y-102063989D01*
X167223448Y-102066830D01*
X167235400Y-102072383D01*
X167467885Y-102072383D01*
X167468269Y-102067570D01*
X167472902Y-102025047D01*
X167478896Y-101976198D01*
X167479779Y-101969349D01*
X167298991Y-101969349D01*
X167285945Y-101973099D01*
X167250115Y-101976190D01*
X167196516Y-101978357D01*
X167130166Y-101979338D01*
X167107882Y-101979361D01*
X166916722Y-101978946D01*
X166854160Y-101924166D01*
X166791599Y-101869385D01*
X167243841Y-101868555D01*
X167271390Y-101913739D01*
X167289292Y-101945593D01*
X167298614Y-101967046D01*
X167298991Y-101969349D01*
X167479779Y-101969349D01*
X167491008Y-101882253D01*
X167416251Y-101750855D01*
X167173919Y-101750855D01*
X167160742Y-101752909D01*
X167124112Y-101754695D01*
X167068379Y-101756102D01*
X166997895Y-101757018D01*
X166919543Y-101757335D01*
X166665167Y-101757335D01*
X166610865Y-101701724D01*
X166556563Y-101646114D01*
X167127062Y-101646114D01*
X167150491Y-101695245D01*
X167165447Y-101728111D01*
X167173482Y-101748691D01*
X167173919Y-101750855D01*
X167416251Y-101750855D01*
X167301292Y-101548796D01*
X167063264Y-101548796D01*
X166449909Y-101548796D01*
X166391361Y-101493533D01*
X166332814Y-101438271D01*
X166669669Y-101437923D01*
X167006523Y-101437576D01*
X167034894Y-101493186D01*
X167063264Y-101548796D01*
X167301292Y-101548796D01*
X167174736Y-101326355D01*
X166938141Y-101326355D01*
X166207691Y-101325215D01*
X166146817Y-101270174D01*
X166085943Y-101215134D01*
X166881400Y-101215134D01*
X166909770Y-101270745D01*
X166938141Y-101326355D01*
X167174736Y-101326355D01*
X167048821Y-101105040D01*
X166812452Y-101105040D01*
X166798998Y-101108538D01*
X166760426Y-101111596D01*
X166699420Y-101114131D01*
X166618664Y-101116062D01*
X166520843Y-101117304D01*
X166408641Y-101117777D01*
X166398851Y-101117779D01*
X165985249Y-101117741D01*
X165922688Y-101062761D01*
X165860126Y-101007781D01*
X166311960Y-101007276D01*
X166763793Y-101006772D01*
X166788123Y-101049518D01*
X166804477Y-101081590D01*
X166812331Y-101103553D01*
X166812452Y-101105040D01*
X167048821Y-101105040D01*
X166931452Y-100898749D01*
X166929533Y-100895375D01*
X166702062Y-100895375D01*
X165733695Y-100895375D01*
X165625091Y-100784155D01*
X166131881Y-100784262D01*
X166638670Y-100784369D01*
X166702062Y-100895375D01*
X166929533Y-100895375D01*
X166805889Y-100678051D01*
X166576109Y-100678051D01*
X166562707Y-100680008D01*
X166524509Y-100681813D01*
X166464521Y-100683417D01*
X166385751Y-100684770D01*
X166291206Y-100685823D01*
X166183895Y-100686525D01*
X166066824Y-100686828D01*
X166043681Y-100686837D01*
X165511254Y-100686837D01*
X165456952Y-100631226D01*
X165402650Y-100575616D01*
X166518231Y-100575616D01*
X166547170Y-100622440D01*
X166565607Y-100654300D01*
X166575549Y-100675425D01*
X166576109Y-100678051D01*
X166805889Y-100678051D01*
X166678400Y-100453969D01*
X166450934Y-100453969D01*
X166437529Y-100456222D01*
X166399234Y-100458309D01*
X166338965Y-100460174D01*
X166259638Y-100461764D01*
X166164167Y-100463027D01*
X166055467Y-100463907D01*
X165936455Y-100464351D01*
X165884456Y-100464395D01*
X165317926Y-100464395D01*
X165279694Y-100416479D01*
X165256475Y-100385787D01*
X165242908Y-100364774D01*
X165241462Y-100360869D01*
X165254883Y-100359221D01*
X165293220Y-100357693D01*
X165353585Y-100356326D01*
X165433089Y-100355156D01*
X165528842Y-100354222D01*
X165637957Y-100353563D01*
X165757545Y-100353218D01*
X165818623Y-100353175D01*
X166395784Y-100353175D01*
X166423333Y-100398358D01*
X166441235Y-100430213D01*
X166450557Y-100451665D01*
X166450934Y-100453969D01*
X166678400Y-100453969D01*
X166565686Y-100255857D01*
X166340330Y-100255857D01*
X165162893Y-100255857D01*
X165135480Y-100224576D01*
X165117895Y-100205314D01*
X165103451Y-100189400D01*
X165094299Y-100176517D01*
X165092589Y-100166347D01*
X165100472Y-100158573D01*
X165120097Y-100152879D01*
X165153616Y-100148946D01*
X165203178Y-100146458D01*
X165270933Y-100145098D01*
X165359033Y-100144548D01*
X165469627Y-100144491D01*
X165604866Y-100144610D01*
X165677408Y-100144636D01*
X166283590Y-100144636D01*
X166311960Y-100200247D01*
X166340330Y-100255857D01*
X166565686Y-100255857D01*
X166443085Y-100040367D01*
X166224729Y-100040367D01*
X165601583Y-100033416D01*
X164978438Y-100026464D01*
X164943119Y-99978580D01*
X164921484Y-99948351D01*
X164909008Y-99929183D01*
X164907800Y-99926445D01*
X164921234Y-99925559D01*
X164959664Y-99924735D01*
X165020279Y-99923994D01*
X165100269Y-99923354D01*
X165196826Y-99922835D01*
X165307138Y-99922458D01*
X165428396Y-99922241D01*
X165517838Y-99922195D01*
X166127877Y-99922195D01*
X166224729Y-100040367D01*
X166443085Y-100040367D01*
X166371896Y-99915244D01*
X166296762Y-99817183D01*
X166047811Y-99817183D01*
X166034377Y-99818787D01*
X165995946Y-99820278D01*
X165935327Y-99821620D01*
X165855330Y-99822778D01*
X165758762Y-99823716D01*
X165648432Y-99824400D01*
X165527150Y-99824793D01*
X165437266Y-99824877D01*
X164826721Y-99824877D01*
X164738633Y-99713657D01*
X165971347Y-99713657D01*
X166009579Y-99761573D01*
X166032798Y-99792265D01*
X166046365Y-99813278D01*
X166047811Y-99817183D01*
X166296762Y-99817183D01*
X166129559Y-99598960D01*
X165872401Y-99598960D01*
X165869744Y-99603271D01*
X165854918Y-99606851D01*
X165825921Y-99609758D01*
X165780753Y-99612051D01*
X165717412Y-99613788D01*
X165633899Y-99615027D01*
X165528212Y-99615825D01*
X165398351Y-99616242D01*
X165273432Y-99616339D01*
X165127321Y-99616297D01*
X165006526Y-99616100D01*
X164908555Y-99615641D01*
X164830917Y-99614814D01*
X164771124Y-99613511D01*
X164726683Y-99611625D01*
X164695106Y-99609050D01*
X164673901Y-99605678D01*
X164660578Y-99601403D01*
X164652646Y-99596118D01*
X164647617Y-99589716D01*
X164647461Y-99589468D01*
X164636140Y-99573773D01*
X164610266Y-99539176D01*
X164572234Y-99488814D01*
X164524439Y-99425828D01*
X164469279Y-99353355D01*
X164409148Y-99274535D01*
X164346443Y-99192506D01*
X164283560Y-99110408D01*
X164222893Y-99031380D01*
X164166840Y-98958560D01*
X164117795Y-98895087D01*
X164097326Y-98868706D01*
X164093858Y-98846846D01*
X164107262Y-98808923D01*
X164120450Y-98783126D01*
X164141820Y-98739522D01*
X164149226Y-98709086D01*
X164144749Y-98682274D01*
X164143313Y-98678321D01*
X164131574Y-98639019D01*
X164136011Y-98612375D01*
X164160128Y-98588050D01*
X164178291Y-98575137D01*
X164210350Y-98554861D01*
X164233314Y-98549306D01*
X164260845Y-98557283D01*
X164281088Y-98566200D01*
X164335040Y-98590529D01*
X164414386Y-98530622D01*
X164455403Y-98498967D01*
X164478509Y-98476772D01*
X164487996Y-98456757D01*
X164488156Y-98431645D01*
X164485433Y-98410158D01*
X164482290Y-98369557D01*
X164489770Y-98343384D01*
X164511853Y-98319068D01*
X164515208Y-98316086D01*
X164549786Y-98290977D01*
X164581281Y-98284747D01*
X164619799Y-98296765D01*
X164642470Y-98308147D01*
X164669280Y-98321311D01*
X164691064Y-98325906D01*
X164717104Y-98321399D01*
X164756685Y-98307254D01*
X164773808Y-98300573D01*
X164818061Y-98285219D01*
X164851637Y-98277257D01*
X164866629Y-98278175D01*
X164878483Y-98293214D01*
X164905142Y-98327755D01*
X164944798Y-98379425D01*
X164995643Y-98445848D01*
X165055867Y-98524648D01*
X165123663Y-98613452D01*
X165197222Y-98709884D01*
X165274735Y-98811568D01*
X165354393Y-98916130D01*
X165434389Y-99021195D01*
X165512913Y-99124388D01*
X165588156Y-99223333D01*
X165658311Y-99315656D01*
X165721568Y-99398981D01*
X165776119Y-99470933D01*
X165820155Y-99529138D01*
X165851868Y-99571220D01*
X165869450Y-99594804D01*
X165872401Y-99598960D01*
X166129559Y-99598960D01*
X165690155Y-99025479D01*
X165008413Y-98135715D01*
X165042222Y-98076434D01*
X165059786Y-98043637D01*
X165066362Y-98019019D01*
X165060243Y-97994932D01*
X165039725Y-97963730D01*
X165008258Y-97924134D01*
X164960772Y-97865483D01*
X164889103Y-97901570D01*
X164827096Y-97935786D01*
X164751663Y-97982301D01*
X164665277Y-98039198D01*
X164570415Y-98104556D01*
X164469551Y-98176458D01*
X164365160Y-98252984D01*
X164259718Y-98332215D01*
X164155699Y-98412234D01*
X164055579Y-98491120D01*
X163961832Y-98566955D01*
X163876935Y-98637820D01*
X163803361Y-98701796D01*
X163743586Y-98756965D01*
X163700085Y-98801407D01*
X163675334Y-98833204D01*
X163670471Y-98846334D01*
X163662931Y-98871111D01*
X163637607Y-98898288D01*
X163595320Y-98929116D01*
X163552447Y-98954441D01*
X163515444Y-98970826D01*
X163494526Y-98974679D01*
X163465008Y-98979135D01*
X163434510Y-98994436D01*
X163403886Y-99013694D01*
X163386093Y-99014151D01*
X163372024Y-98994091D01*
X163366135Y-98981556D01*
X163358576Y-98947628D01*
X163374279Y-98927968D01*
X163414092Y-98921423D01*
X163440704Y-98917906D01*
X163461243Y-98905207D01*
X163477599Y-98879424D01*
X163491662Y-98836656D01*
X163505321Y-98773001D01*
X163516206Y-98710593D01*
X163527177Y-98643685D01*
X163536260Y-98586943D01*
X163542591Y-98545869D01*
X163545306Y-98525966D01*
X163545348Y-98525197D01*
X163557699Y-98519238D01*
X163590095Y-98518791D01*
X163635553Y-98522847D01*
X163687091Y-98530394D01*
X163737724Y-98540424D01*
X163780468Y-98551925D01*
X163807027Y-98563059D01*
X163853217Y-98591060D01*
X163909345Y-98550401D01*
X163928076Y-98535980D01*
X163943898Y-98520356D01*
X163958591Y-98499824D01*
X163973936Y-98470679D01*
X163991715Y-98429216D01*
X164013708Y-98371731D01*
X164041696Y-98294519D01*
X164068218Y-98219957D01*
X164170964Y-97930173D01*
X164170964Y-97885468D01*
X163959482Y-97885468D01*
X163876453Y-98094007D01*
X163847835Y-98165006D01*
X163822297Y-98226719D01*
X163801779Y-98274586D01*
X163788220Y-98304050D01*
X163784082Y-98311149D01*
X163767442Y-98313043D01*
X163728784Y-98311984D01*
X163673706Y-98308266D01*
X163607805Y-98302186D01*
X163601328Y-98301511D01*
X163535169Y-98294981D01*
X163479793Y-98290327D01*
X163440628Y-98287948D01*
X163423106Y-98288240D01*
X163422747Y-98288437D01*
X163420050Y-98303373D01*
X163416014Y-98341162D01*
X163411086Y-98396909D01*
X163405715Y-98465718D01*
X163402785Y-98506614D01*
X163396453Y-98584690D01*
X163389364Y-98650266D01*
X163382121Y-98698856D01*
X163375324Y-98725977D01*
X163372827Y-98729837D01*
X163334411Y-98739708D01*
X163284124Y-98728323D01*
X163275629Y-98724674D01*
X163250267Y-98706162D01*
X163246479Y-98677858D01*
X163247305Y-98672539D01*
X163250609Y-98650067D01*
X163256945Y-98603687D01*
X163265827Y-98537070D01*
X163276771Y-98453890D01*
X163289292Y-98357819D01*
X163302906Y-98252530D01*
X163309273Y-98203016D01*
X163325489Y-98078128D01*
X163339623Y-97974396D01*
X163352850Y-97885766D01*
X163366344Y-97806185D01*
X163381281Y-97729599D01*
X163398836Y-97649956D01*
X163420184Y-97561202D01*
X163446500Y-97457284D01*
X163476463Y-97341721D01*
X163503743Y-97237336D01*
X163528794Y-97142019D01*
X163550759Y-97058986D01*
X163568783Y-96991453D01*
X163582009Y-96942635D01*
X163589581Y-96915748D01*
X163591025Y-96911474D01*
X163605224Y-96907688D01*
X163635571Y-96901435D01*
X163637632Y-96901042D01*
X163676220Y-96900265D01*
X163704642Y-96918640D01*
X163706606Y-96920763D01*
X163715290Y-96931671D01*
X163720110Y-96944210D01*
X163720255Y-96962392D01*
X163714915Y-96990233D01*
X163703279Y-97031746D01*
X163684537Y-97090944D01*
X163657878Y-97171843D01*
X163652822Y-97187073D01*
X163628222Y-97263602D01*
X163608163Y-97330816D01*
X163593804Y-97384400D01*
X163586309Y-97420040D01*
X163586518Y-97433302D01*
X163604303Y-97439270D01*
X163643617Y-97449849D01*
X163698851Y-97463601D01*
X163764395Y-97479088D01*
X163772006Y-97480839D01*
X163944665Y-97520447D01*
X163952073Y-97702958D01*
X163959482Y-97885468D01*
X164170964Y-97885468D01*
X164170964Y-97667074D01*
X164170858Y-97575374D01*
X164170212Y-97507131D01*
X164168532Y-97457996D01*
X164165324Y-97423620D01*
X164160096Y-97399656D01*
X164152354Y-97381753D01*
X164141603Y-97365564D01*
X164135887Y-97357987D01*
X164111022Y-97329226D01*
X164087460Y-97317467D01*
X164052539Y-97317534D01*
X164040122Y-97318840D01*
X163998785Y-97318745D01*
X163950374Y-97311901D01*
X163902652Y-97300372D01*
X163863382Y-97286222D01*
X163840328Y-97271518D01*
X163837302Y-97264892D01*
X163840481Y-97244099D01*
X163848506Y-97207387D01*
X163853002Y-97188962D01*
X163868701Y-97126613D01*
X163927884Y-97135488D01*
X163987066Y-97144363D01*
X163997191Y-97016435D01*
X164007316Y-96888506D01*
X163925785Y-96805427D01*
X163875937Y-96759707D01*
X163820835Y-96716922D01*
X163771685Y-96685709D01*
X163767789Y-96683687D01*
X163725861Y-96663642D01*
X163693430Y-96653386D01*
X163659433Y-96651346D01*
X163612809Y-96655952D01*
X163612809Y-96655952D01*
G37*
X163612809Y-96655952D02*
X163592224Y-96658737D01*
X163493123Y-96672448D01*
X163338091Y-97206006D01*
X163183060Y-97739563D01*
X163127863Y-98269970D01*
X163072667Y-98800377D01*
X163119753Y-98885123D01*
X163145792Y-98937961D01*
X163166477Y-98990736D01*
X163176236Y-99026902D01*
X163183774Y-99057393D01*
X163198220Y-99084106D01*
X163224327Y-99113153D01*
X163266847Y-99150650D01*
X163282632Y-99163735D01*
X163379633Y-99243534D01*
X163645822Y-99123898D01*
X163725406Y-99088794D01*
X163796347Y-99058769D01*
X163854798Y-99035346D01*
X163896913Y-99020049D01*
X163918845Y-99014403D01*
X163920961Y-99014870D01*
X163930842Y-99027215D01*
X163956649Y-99059632D01*
X163997022Y-99110412D01*
X164050606Y-99177847D01*
X164116042Y-99260227D01*
X164191972Y-99355842D01*
X164277041Y-99462984D01*
X164369889Y-99579943D01*
X164469159Y-99705011D01*
X164573495Y-99836477D01*
X164580839Y-99845731D01*
X164687676Y-99980110D01*
X164791314Y-100109988D01*
X164890185Y-100233430D01*
X164982724Y-100348501D01*
X165067362Y-100453266D01*
X165142533Y-100545791D01*
X165206670Y-100624139D01*
X165258204Y-100686376D01*
X165295570Y-100730568D01*
X165316554Y-100754113D01*
X165358610Y-100796984D01*
X165416653Y-100854894D01*
X165488675Y-100925919D01*
X165572666Y-101008132D01*
X165666618Y-101099608D01*
X165768523Y-101198421D01*
X165876371Y-101302646D01*
X165988154Y-101410357D01*
X166101863Y-101519628D01*
X166215489Y-101628535D01*
X166327025Y-101735151D01*
X166434460Y-101837550D01*
X166535786Y-101933808D01*
X166628995Y-102021998D01*
X166712077Y-102100195D01*
X166783025Y-102166474D01*
X166839829Y-102218909D01*
X166880480Y-102255573D01*
X166901298Y-102273265D01*
X166933128Y-102290089D01*
X166982581Y-102307941D01*
X167039733Y-102324044D01*
X167094665Y-102335619D01*
X167137453Y-102339890D01*
X167139163Y-102339860D01*
X167158111Y-102335123D01*
X167195590Y-102322918D01*
X167244155Y-102305696D01*
X167253807Y-102302139D01*
X167309165Y-102279808D01*
X167347421Y-102257953D01*
X167378258Y-102229586D01*
X167410211Y-102189279D01*
X167438694Y-102147653D01*
X167458921Y-102112394D01*
X167466328Y-102091961D01*
X167467885Y-102072383D01*
X167235400Y-102072383D01*
X167231732Y-102080452D01*
X167208102Y-102094954D01*
X167169500Y-102111219D01*
X167128037Y-102124706D01*
X167097455Y-102130784D01*
X167077621Y-102123358D01*
X167052272Y-102105684D01*
X167029842Y-102084474D01*
X167020991Y-102071390D01*
X167033809Y-102067624D01*
X167067929Y-102064770D01*
X167116854Y-102063296D01*
X167134992Y-102063191D01*
X167191229Y-102063989D01*
X167223448Y-102066830D01*
X167235400Y-102072383D01*
X167467885Y-102072383D01*
X167468269Y-102067570D01*
X167472902Y-102025047D01*
X167478896Y-101976198D01*
X167479779Y-101969349D01*
X167298991Y-101969349D01*
X167285945Y-101973099D01*
X167250115Y-101976190D01*
X167196516Y-101978357D01*
X167130166Y-101979338D01*
X167107882Y-101979361D01*
X166916722Y-101978946D01*
X166854160Y-101924166D01*
X166791599Y-101869385D01*
X167243841Y-101868555D01*
X167271390Y-101913739D01*
X167289292Y-101945593D01*
X167298614Y-101967046D01*
X167298991Y-101969349D01*
X167479779Y-101969349D01*
X167491008Y-101882253D01*
X167416251Y-101750855D01*
X167173919Y-101750855D01*
X167160742Y-101752909D01*
X167124112Y-101754695D01*
X167068379Y-101756102D01*
X166997895Y-101757018D01*
X166919543Y-101757335D01*
X166665167Y-101757335D01*
X166610865Y-101701724D01*
X166556563Y-101646114D01*
X167127062Y-101646114D01*
X167150491Y-101695245D01*
X167165447Y-101728111D01*
X167173482Y-101748691D01*
X167173919Y-101750855D01*
X167416251Y-101750855D01*
X167301292Y-101548796D01*
X167063264Y-101548796D01*
X166449909Y-101548796D01*
X166391361Y-101493533D01*
X166332814Y-101438271D01*
X166669669Y-101437923D01*
X167006523Y-101437576D01*
X167034894Y-101493186D01*
X167063264Y-101548796D01*
X167301292Y-101548796D01*
X167174736Y-101326355D01*
X166938141Y-101326355D01*
X166207691Y-101325215D01*
X166146817Y-101270174D01*
X166085943Y-101215134D01*
X166881400Y-101215134D01*
X166909770Y-101270745D01*
X166938141Y-101326355D01*
X167174736Y-101326355D01*
X167048821Y-101105040D01*
X166812452Y-101105040D01*
X166798998Y-101108538D01*
X166760426Y-101111596D01*
X166699420Y-101114131D01*
X166618664Y-101116062D01*
X166520843Y-101117304D01*
X166408641Y-101117777D01*
X166398851Y-101117779D01*
X165985249Y-101117741D01*
X165922688Y-101062761D01*
X165860126Y-101007781D01*
X166311960Y-101007276D01*
X166763793Y-101006772D01*
X166788123Y-101049518D01*
X166804477Y-101081590D01*
X166812331Y-101103553D01*
X166812452Y-101105040D01*
X167048821Y-101105040D01*
X166931452Y-100898749D01*
X166929533Y-100895375D01*
X166702062Y-100895375D01*
X165733695Y-100895375D01*
X165625091Y-100784155D01*
X166131881Y-100784262D01*
X166638670Y-100784369D01*
X166702062Y-100895375D01*
X166929533Y-100895375D01*
X166805889Y-100678051D01*
X166576109Y-100678051D01*
X166562707Y-100680008D01*
X166524509Y-100681813D01*
X166464521Y-100683417D01*
X166385751Y-100684770D01*
X166291206Y-100685823D01*
X166183895Y-100686525D01*
X166066824Y-100686828D01*
X166043681Y-100686837D01*
X165511254Y-100686837D01*
X165456952Y-100631226D01*
X165402650Y-100575616D01*
X166518231Y-100575616D01*
X166547170Y-100622440D01*
X166565607Y-100654300D01*
X166575549Y-100675425D01*
X166576109Y-100678051D01*
X166805889Y-100678051D01*
X166678400Y-100453969D01*
X166450934Y-100453969D01*
X166437529Y-100456222D01*
X166399234Y-100458309D01*
X166338965Y-100460174D01*
X166259638Y-100461764D01*
X166164167Y-100463027D01*
X166055467Y-100463907D01*
X165936455Y-100464351D01*
X165884456Y-100464395D01*
X165317926Y-100464395D01*
X165279694Y-100416479D01*
X165256475Y-100385787D01*
X165242908Y-100364774D01*
X165241462Y-100360869D01*
X165254883Y-100359221D01*
X165293220Y-100357693D01*
X165353585Y-100356326D01*
X165433089Y-100355156D01*
X165528842Y-100354222D01*
X165637957Y-100353563D01*
X165757545Y-100353218D01*
X165818623Y-100353175D01*
X166395784Y-100353175D01*
X166423333Y-100398358D01*
X166441235Y-100430213D01*
X166450557Y-100451665D01*
X166450934Y-100453969D01*
X166678400Y-100453969D01*
X166565686Y-100255857D01*
X166340330Y-100255857D01*
X165162893Y-100255857D01*
X165135480Y-100224576D01*
X165117895Y-100205314D01*
X165103451Y-100189400D01*
X165094299Y-100176517D01*
X165092589Y-100166347D01*
X165100472Y-100158573D01*
X165120097Y-100152879D01*
X165153616Y-100148946D01*
X165203178Y-100146458D01*
X165270933Y-100145098D01*
X165359033Y-100144548D01*
X165469627Y-100144491D01*
X165604866Y-100144610D01*
X165677408Y-100144636D01*
X166283590Y-100144636D01*
X166311960Y-100200247D01*
X166340330Y-100255857D01*
X166565686Y-100255857D01*
X166443085Y-100040367D01*
X166224729Y-100040367D01*
X165601583Y-100033416D01*
X164978438Y-100026464D01*
X164943119Y-99978580D01*
X164921484Y-99948351D01*
X164909008Y-99929183D01*
X164907800Y-99926445D01*
X164921234Y-99925559D01*
X164959664Y-99924735D01*
X165020279Y-99923994D01*
X165100269Y-99923354D01*
X165196826Y-99922835D01*
X165307138Y-99922458D01*
X165428396Y-99922241D01*
X165517838Y-99922195D01*
X166127877Y-99922195D01*
X166224729Y-100040367D01*
X166443085Y-100040367D01*
X166371896Y-99915244D01*
X166296762Y-99817183D01*
X166047811Y-99817183D01*
X166034377Y-99818787D01*
X165995946Y-99820278D01*
X165935327Y-99821620D01*
X165855330Y-99822778D01*
X165758762Y-99823716D01*
X165648432Y-99824400D01*
X165527150Y-99824793D01*
X165437266Y-99824877D01*
X164826721Y-99824877D01*
X164738633Y-99713657D01*
X165971347Y-99713657D01*
X166009579Y-99761573D01*
X166032798Y-99792265D01*
X166046365Y-99813278D01*
X166047811Y-99817183D01*
X166296762Y-99817183D01*
X166129559Y-99598960D01*
X165872401Y-99598960D01*
X165869744Y-99603271D01*
X165854918Y-99606851D01*
X165825921Y-99609758D01*
X165780753Y-99612051D01*
X165717412Y-99613788D01*
X165633899Y-99615027D01*
X165528212Y-99615825D01*
X165398351Y-99616242D01*
X165273432Y-99616339D01*
X165127321Y-99616297D01*
X165006526Y-99616100D01*
X164908555Y-99615641D01*
X164830917Y-99614814D01*
X164771124Y-99613511D01*
X164726683Y-99611625D01*
X164695106Y-99609050D01*
X164673901Y-99605678D01*
X164660578Y-99601403D01*
X164652646Y-99596118D01*
X164647617Y-99589716D01*
X164647461Y-99589468D01*
X164636140Y-99573773D01*
X164610266Y-99539176D01*
X164572234Y-99488814D01*
X164524439Y-99425828D01*
X164469279Y-99353355D01*
X164409148Y-99274535D01*
X164346443Y-99192506D01*
X164283560Y-99110408D01*
X164222893Y-99031380D01*
X164166840Y-98958560D01*
X164117795Y-98895087D01*
X164097326Y-98868706D01*
X164093858Y-98846846D01*
X164107262Y-98808923D01*
X164120450Y-98783126D01*
X164141820Y-98739522D01*
X164149226Y-98709086D01*
X164144749Y-98682274D01*
X164143313Y-98678321D01*
X164131574Y-98639019D01*
X164136011Y-98612375D01*
X164160128Y-98588050D01*
X164178291Y-98575137D01*
X164210350Y-98554861D01*
X164233314Y-98549306D01*
X164260845Y-98557283D01*
X164281088Y-98566200D01*
X164335040Y-98590529D01*
X164414386Y-98530622D01*
X164455403Y-98498967D01*
X164478509Y-98476772D01*
X164487996Y-98456757D01*
X164488156Y-98431645D01*
X164485433Y-98410158D01*
X164482290Y-98369557D01*
X164489770Y-98343384D01*
X164511853Y-98319068D01*
X164515208Y-98316086D01*
X164549786Y-98290977D01*
X164581281Y-98284747D01*
X164619799Y-98296765D01*
X164642470Y-98308147D01*
X164669280Y-98321311D01*
X164691064Y-98325906D01*
X164717104Y-98321399D01*
X164756685Y-98307254D01*
X164773808Y-98300573D01*
X164818061Y-98285219D01*
X164851637Y-98277257D01*
X164866629Y-98278175D01*
X164878483Y-98293214D01*
X164905142Y-98327755D01*
X164944798Y-98379425D01*
X164995643Y-98445848D01*
X165055867Y-98524648D01*
X165123663Y-98613452D01*
X165197222Y-98709884D01*
X165274735Y-98811568D01*
X165354393Y-98916130D01*
X165434389Y-99021195D01*
X165512913Y-99124388D01*
X165588156Y-99223333D01*
X165658311Y-99315656D01*
X165721568Y-99398981D01*
X165776119Y-99470933D01*
X165820155Y-99529138D01*
X165851868Y-99571220D01*
X165869450Y-99594804D01*
X165872401Y-99598960D01*
X166129559Y-99598960D01*
X165690155Y-99025479D01*
X165008413Y-98135715D01*
X165042222Y-98076434D01*
X165059786Y-98043637D01*
X165066362Y-98019019D01*
X165060243Y-97994932D01*
X165039725Y-97963730D01*
X165008258Y-97924134D01*
X164960772Y-97865483D01*
X164889103Y-97901570D01*
X164827096Y-97935786D01*
X164751663Y-97982301D01*
X164665277Y-98039198D01*
X164570415Y-98104556D01*
X164469551Y-98176458D01*
X164365160Y-98252984D01*
X164259718Y-98332215D01*
X164155699Y-98412234D01*
X164055579Y-98491120D01*
X163961832Y-98566955D01*
X163876935Y-98637820D01*
X163803361Y-98701796D01*
X163743586Y-98756965D01*
X163700085Y-98801407D01*
X163675334Y-98833204D01*
X163670471Y-98846334D01*
X163662931Y-98871111D01*
X163637607Y-98898288D01*
X163595320Y-98929116D01*
X163552447Y-98954441D01*
X163515444Y-98970826D01*
X163494526Y-98974679D01*
X163465008Y-98979135D01*
X163434510Y-98994436D01*
X163403886Y-99013694D01*
X163386093Y-99014151D01*
X163372024Y-98994091D01*
X163366135Y-98981556D01*
X163358576Y-98947628D01*
X163374279Y-98927968D01*
X163414092Y-98921423D01*
X163440704Y-98917906D01*
X163461243Y-98905207D01*
X163477599Y-98879424D01*
X163491662Y-98836656D01*
X163505321Y-98773001D01*
X163516206Y-98710593D01*
X163527177Y-98643685D01*
X163536260Y-98586943D01*
X163542591Y-98545869D01*
X163545306Y-98525966D01*
X163545348Y-98525197D01*
X163557699Y-98519238D01*
X163590095Y-98518791D01*
X163635553Y-98522847D01*
X163687091Y-98530394D01*
X163737724Y-98540424D01*
X163780468Y-98551925D01*
X163807027Y-98563059D01*
X163853217Y-98591060D01*
X163909345Y-98550401D01*
X163928076Y-98535980D01*
X163943898Y-98520356D01*
X163958591Y-98499824D01*
X163973936Y-98470679D01*
X163991715Y-98429216D01*
X164013708Y-98371731D01*
X164041696Y-98294519D01*
X164068218Y-98219957D01*
X164170964Y-97930173D01*
X164170964Y-97885468D01*
X163959482Y-97885468D01*
X163876453Y-98094007D01*
X163847835Y-98165006D01*
X163822297Y-98226719D01*
X163801779Y-98274586D01*
X163788220Y-98304050D01*
X163784082Y-98311149D01*
X163767442Y-98313043D01*
X163728784Y-98311984D01*
X163673706Y-98308266D01*
X163607805Y-98302186D01*
X163601328Y-98301511D01*
X163535169Y-98294981D01*
X163479793Y-98290327D01*
X163440628Y-98287948D01*
X163423106Y-98288240D01*
X163422747Y-98288437D01*
X163420050Y-98303373D01*
X163416014Y-98341162D01*
X163411086Y-98396909D01*
X163405715Y-98465718D01*
X163402785Y-98506614D01*
X163396453Y-98584690D01*
X163389364Y-98650266D01*
X163382121Y-98698856D01*
X163375324Y-98725977D01*
X163372827Y-98729837D01*
X163334411Y-98739708D01*
X163284124Y-98728323D01*
X163275629Y-98724674D01*
X163250267Y-98706162D01*
X163246479Y-98677858D01*
X163247305Y-98672539D01*
X163250609Y-98650067D01*
X163256945Y-98603687D01*
X163265827Y-98537070D01*
X163276771Y-98453890D01*
X163289292Y-98357819D01*
X163302906Y-98252530D01*
X163309273Y-98203016D01*
X163325489Y-98078128D01*
X163339623Y-97974396D01*
X163352850Y-97885766D01*
X163366344Y-97806185D01*
X163381281Y-97729599D01*
X163398836Y-97649956D01*
X163420184Y-97561202D01*
X163446500Y-97457284D01*
X163476463Y-97341721D01*
X163503743Y-97237336D01*
X163528794Y-97142019D01*
X163550759Y-97058986D01*
X163568783Y-96991453D01*
X163582009Y-96942635D01*
X163589581Y-96915748D01*
X163591025Y-96911474D01*
X163605224Y-96907688D01*
X163635571Y-96901435D01*
X163637632Y-96901042D01*
X163676220Y-96900265D01*
X163704642Y-96918640D01*
X163706606Y-96920763D01*
X163715290Y-96931671D01*
X163720110Y-96944210D01*
X163720255Y-96962392D01*
X163714915Y-96990233D01*
X163703279Y-97031746D01*
X163684537Y-97090944D01*
X163657878Y-97171843D01*
X163652822Y-97187073D01*
X163628222Y-97263602D01*
X163608163Y-97330816D01*
X163593804Y-97384400D01*
X163586309Y-97420040D01*
X163586518Y-97433302D01*
X163604303Y-97439270D01*
X163643617Y-97449849D01*
X163698851Y-97463601D01*
X163764395Y-97479088D01*
X163772006Y-97480839D01*
X163944665Y-97520447D01*
X163952073Y-97702958D01*
X163959482Y-97885468D01*
X164170964Y-97885468D01*
X164170964Y-97667074D01*
X164170858Y-97575374D01*
X164170212Y-97507131D01*
X164168532Y-97457996D01*
X164165324Y-97423620D01*
X164160096Y-97399656D01*
X164152354Y-97381753D01*
X164141603Y-97365564D01*
X164135887Y-97357987D01*
X164111022Y-97329226D01*
X164087460Y-97317467D01*
X164052539Y-97317534D01*
X164040122Y-97318840D01*
X163998785Y-97318745D01*
X163950374Y-97311901D01*
X163902652Y-97300372D01*
X163863382Y-97286222D01*
X163840328Y-97271518D01*
X163837302Y-97264892D01*
X163840481Y-97244099D01*
X163848506Y-97207387D01*
X163853002Y-97188962D01*
X163868701Y-97126613D01*
X163927884Y-97135488D01*
X163987066Y-97144363D01*
X163997191Y-97016435D01*
X164007316Y-96888506D01*
X163925785Y-96805427D01*
X163875937Y-96759707D01*
X163820835Y-96716922D01*
X163771685Y-96685709D01*
X163767789Y-96683687D01*
X163725861Y-96663642D01*
X163693430Y-96653386D01*
X163659433Y-96651346D01*
X163612809Y-96655952D01*
G36*
X165258419Y-102627439D02*
X165232462Y-102641664D01*
X165220042Y-102666666D01*
X165216119Y-102695457D01*
X165217448Y-102738916D01*
X165231887Y-102764730D01*
X165236154Y-102768192D01*
X165276844Y-102785012D01*
X165314297Y-102774374D01*
X165329674Y-102760701D01*
X165350038Y-102722737D01*
X165350310Y-102683321D01*
X165334155Y-102649309D01*
X165305240Y-102627556D01*
X165267230Y-102624917D01*
X165258419Y-102627439D01*
X165258419Y-102627439D01*
G37*
X165258419Y-102627439D02*
X165232462Y-102641664D01*
X165220042Y-102666666D01*
X165216119Y-102695457D01*
X165217448Y-102738916D01*
X165231887Y-102764730D01*
X165236154Y-102768192D01*
X165276844Y-102785012D01*
X165314297Y-102774374D01*
X165329674Y-102760701D01*
X165350038Y-102722737D01*
X165350310Y-102683321D01*
X165334155Y-102649309D01*
X165305240Y-102627556D01*
X165267230Y-102624917D01*
X165258419Y-102627439D01*
G36*
X163503640Y-102738403D02*
X163503124Y-102787049D01*
X163500156Y-102813423D01*
X163492604Y-102823059D01*
X163478340Y-102821487D01*
X163472359Y-102819633D01*
X163395227Y-102807352D01*
X163312471Y-102814954D01*
X163233136Y-102840220D01*
X163166266Y-102880930D01*
X163146312Y-102899658D01*
X163100194Y-102968187D01*
X163076130Y-103046810D01*
X163073469Y-103129572D01*
X163091561Y-103210519D01*
X163129754Y-103283697D01*
X163187396Y-103343151D01*
X163195463Y-103348993D01*
X163255705Y-103390887D01*
X163490893Y-103395534D01*
X163726081Y-103400182D01*
X163726081Y-103107372D01*
X163503640Y-103107372D01*
X163503640Y-103203202D01*
X163433495Y-103203202D01*
X163384569Y-103199864D01*
X163351338Y-103187323D01*
X163329226Y-103169078D01*
X163302637Y-103126896D01*
X163299932Y-103083038D01*
X163318115Y-103042950D01*
X163354194Y-103012078D01*
X163405172Y-102995868D01*
X163425125Y-102994664D01*
X163464041Y-102997126D01*
X163487488Y-103008190D01*
X163499307Y-103033370D01*
X163503341Y-103078183D01*
X163503640Y-103107372D01*
X163726081Y-103107372D01*
X163726081Y-102647099D01*
X163503640Y-102647099D01*
X163503640Y-102738403D01*
X163503640Y-102738403D01*
G37*
X163503640Y-102738403D02*
X163503124Y-102787049D01*
X163500156Y-102813423D01*
X163492604Y-102823059D01*
X163478340Y-102821487D01*
X163472359Y-102819633D01*
X163395227Y-102807352D01*
X163312471Y-102814954D01*
X163233136Y-102840220D01*
X163166266Y-102880930D01*
X163146312Y-102899658D01*
X163100194Y-102968187D01*
X163076130Y-103046810D01*
X163073469Y-103129572D01*
X163091561Y-103210519D01*
X163129754Y-103283697D01*
X163187396Y-103343151D01*
X163195463Y-103348993D01*
X163255705Y-103390887D01*
X163490893Y-103395534D01*
X163726081Y-103400182D01*
X163726081Y-103107372D01*
X163503640Y-103107372D01*
X163503640Y-103203202D01*
X163433495Y-103203202D01*
X163384569Y-103199864D01*
X163351338Y-103187323D01*
X163329226Y-103169078D01*
X163302637Y-103126896D01*
X163299932Y-103083038D01*
X163318115Y-103042950D01*
X163354194Y-103012078D01*
X163405172Y-102995868D01*
X163425125Y-102994664D01*
X163464041Y-102997126D01*
X163487488Y-103008190D01*
X163499307Y-103033370D01*
X163503341Y-103078183D01*
X163503640Y-103107372D01*
X163726081Y-103107372D01*
X163726081Y-102647099D01*
X163503640Y-102647099D01*
X163503640Y-102738403D01*
G36*
X164768774Y-103203202D02*
X164476820Y-103203202D01*
X164476820Y-103397838D01*
X165019021Y-103397838D01*
X165019021Y-102647099D01*
X164768774Y-102647099D01*
X164768774Y-103203202D01*
X164768774Y-103203202D01*
G37*
X164768774Y-103203202D02*
X164476820Y-103203202D01*
X164476820Y-103397838D01*
X165019021Y-103397838D01*
X165019021Y-102647099D01*
X164768774Y-102647099D01*
X164768774Y-103203202D01*
G36*
X165171949Y-103397838D02*
X165394390Y-103397838D01*
X165394390Y-102813930D01*
X165171949Y-102813930D01*
X165171949Y-103397838D01*
X165171949Y-103397838D01*
G37*
X165171949Y-103397838D02*
X165394390Y-103397838D01*
X165394390Y-102813930D01*
X165171949Y-102813930D01*
X165171949Y-103397838D01*
G36*
X165533416Y-103397838D02*
X165745430Y-103396584D01*
X165823308Y-103395286D01*
X165894758Y-103392560D01*
X165953542Y-103388755D01*
X165993424Y-103384220D01*
X166003164Y-103382145D01*
X166040166Y-103364322D01*
X166082090Y-103334086D01*
X166100816Y-103317028D01*
X166151228Y-103249382D01*
X166179378Y-103173547D01*
X166186293Y-103096939D01*
X165953957Y-103096939D01*
X165948431Y-103133628D01*
X165921666Y-103174041D01*
X165875597Y-103195504D01*
X165818418Y-103199127D01*
X165762808Y-103196251D01*
X165754662Y-103011885D01*
X165804111Y-103002608D01*
X165860698Y-103002295D01*
X165907760Y-103020840D01*
X165940459Y-103053852D01*
X165953957Y-103096939D01*
X166186293Y-103096939D01*
X166186534Y-103094279D01*
X166173966Y-103016335D01*
X166142944Y-102944471D01*
X166094737Y-102883441D01*
X166030615Y-102838002D01*
X165966987Y-102815698D01*
X165917520Y-102808063D01*
X165873282Y-102806064D01*
X165855766Y-102807808D01*
X165804046Y-102818854D01*
X165774036Y-102822078D01*
X165759895Y-102813381D01*
X165755779Y-102788664D01*
X165755845Y-102743830D01*
X165755857Y-102737731D01*
X165755857Y-102647099D01*
X165533416Y-102647099D01*
X165533416Y-103397838D01*
X165533416Y-103397838D01*
G37*
X165533416Y-103397838D02*
X165745430Y-103396584D01*
X165823308Y-103395286D01*
X165894758Y-103392560D01*
X165953542Y-103388755D01*
X165993424Y-103384220D01*
X166003164Y-103382145D01*
X166040166Y-103364322D01*
X166082090Y-103334086D01*
X166100816Y-103317028D01*
X166151228Y-103249382D01*
X166179378Y-103173547D01*
X166186293Y-103096939D01*
X165953957Y-103096939D01*
X165948431Y-103133628D01*
X165921666Y-103174041D01*
X165875597Y-103195504D01*
X165818418Y-103199127D01*
X165762808Y-103196251D01*
X165754662Y-103011885D01*
X165804111Y-103002608D01*
X165860698Y-103002295D01*
X165907760Y-103020840D01*
X165940459Y-103053852D01*
X165953957Y-103096939D01*
X166186293Y-103096939D01*
X166186534Y-103094279D01*
X166173966Y-103016335D01*
X166142944Y-102944471D01*
X166094737Y-102883441D01*
X166030615Y-102838002D01*
X165966987Y-102815698D01*
X165917520Y-102808063D01*
X165873282Y-102806064D01*
X165855766Y-102807808D01*
X165804046Y-102818854D01*
X165774036Y-102822078D01*
X165759895Y-102813381D01*
X165755779Y-102788664D01*
X165755845Y-102743830D01*
X165755857Y-102737731D01*
X165755857Y-102647099D01*
X165533416Y-102647099D01*
X165533416Y-103397838D01*
G36*
X162695054Y-102813795D02*
X162639037Y-102821840D01*
X162606924Y-102829866D01*
X162575596Y-102841609D01*
X162558594Y-102855161D01*
X162550916Y-102878787D01*
X162547558Y-102920752D01*
X162547145Y-102928628D01*
X162545773Y-102971544D01*
X162546506Y-103000559D01*
X162548484Y-103008566D01*
X162563300Y-103002969D01*
X162592840Y-102989154D01*
X162599962Y-102985634D01*
X162646891Y-102969085D01*
X162695581Y-102961315D01*
X162695940Y-102961305D01*
X162729912Y-102963135D01*
X162743968Y-102973819D01*
X162745950Y-102987506D01*
X162735680Y-103010435D01*
X162702789Y-103034406D01*
X162676437Y-103047841D01*
X162608802Y-103085051D01*
X162563612Y-103124111D01*
X162535683Y-103170018D01*
X162528433Y-103190585D01*
X162520340Y-103230222D01*
X162525738Y-103264494D01*
X162539093Y-103295300D01*
X162566884Y-103336154D01*
X162602121Y-103369182D01*
X162609141Y-103373666D01*
X162653716Y-103390338D01*
X162714207Y-103401706D01*
X162778990Y-103406289D01*
X162836317Y-103402625D01*
X162871375Y-103394190D01*
X162916425Y-103380180D01*
X162930159Y-103375345D01*
X162989245Y-103353831D01*
X162989245Y-103270407D01*
X162987687Y-103227476D01*
X162983634Y-103199349D01*
X162978818Y-103192326D01*
X162894173Y-103231760D01*
X162829925Y-103252755D01*
X162785708Y-103255363D01*
X162761153Y-103239637D01*
X162756008Y-103224056D01*
X162759628Y-103206105D01*
X162778484Y-103187091D01*
X162816841Y-103163384D01*
X162844545Y-103148697D01*
X162915097Y-103105990D01*
X162960267Y-103062286D01*
X162982396Y-103014463D01*
X162984202Y-102962304D01*
X162964242Y-102899341D01*
X162922223Y-102852762D01*
X162858907Y-102823068D01*
X162775060Y-102810761D01*
X162753114Y-102810441D01*
X162695054Y-102813795D01*
X162695054Y-102813795D01*
G37*
X162695054Y-102813795D02*
X162639037Y-102821840D01*
X162606924Y-102829866D01*
X162575596Y-102841609D01*
X162558594Y-102855161D01*
X162550916Y-102878787D01*
X162547558Y-102920752D01*
X162547145Y-102928628D01*
X162545773Y-102971544D01*
X162546506Y-103000559D01*
X162548484Y-103008566D01*
X162563300Y-103002969D01*
X162592840Y-102989154D01*
X162599962Y-102985634D01*
X162646891Y-102969085D01*
X162695581Y-102961315D01*
X162695940Y-102961305D01*
X162729912Y-102963135D01*
X162743968Y-102973819D01*
X162745950Y-102987506D01*
X162735680Y-103010435D01*
X162702789Y-103034406D01*
X162676437Y-103047841D01*
X162608802Y-103085051D01*
X162563612Y-103124111D01*
X162535683Y-103170018D01*
X162528433Y-103190585D01*
X162520340Y-103230222D01*
X162525738Y-103264494D01*
X162539093Y-103295300D01*
X162566884Y-103336154D01*
X162602121Y-103369182D01*
X162609141Y-103373666D01*
X162653716Y-103390338D01*
X162714207Y-103401706D01*
X162778990Y-103406289D01*
X162836317Y-103402625D01*
X162871375Y-103394190D01*
X162916425Y-103380180D01*
X162930159Y-103375345D01*
X162989245Y-103353831D01*
X162989245Y-103270407D01*
X162987687Y-103227476D01*
X162983634Y-103199349D01*
X162978818Y-103192326D01*
X162894173Y-103231760D01*
X162829925Y-103252755D01*
X162785708Y-103255363D01*
X162761153Y-103239637D01*
X162756008Y-103224056D01*
X162759628Y-103206105D01*
X162778484Y-103187091D01*
X162816841Y-103163384D01*
X162844545Y-103148697D01*
X162915097Y-103105990D01*
X162960267Y-103062286D01*
X162982396Y-103014463D01*
X162984202Y-102962304D01*
X162964242Y-102899341D01*
X162922223Y-102852762D01*
X162858907Y-102823068D01*
X162775060Y-102810761D01*
X162753114Y-102810441D01*
X162695054Y-102813795D01*
G36*
X164079565Y-102812414D02*
X164005234Y-102830372D01*
X163944202Y-102862504D01*
X163906340Y-102901870D01*
X163895453Y-102932944D01*
X163886524Y-102987828D01*
X163880160Y-103062562D01*
X163879321Y-103078079D01*
X163875607Y-103143732D01*
X163871421Y-103187010D01*
X163865459Y-103213334D01*
X163856414Y-103228121D01*
X163842983Y-103236790D01*
X163840874Y-103237738D01*
X163818422Y-103256173D01*
X163815717Y-103272495D01*
X163822790Y-103298465D01*
X163833349Y-103338501D01*
X163837499Y-103354470D01*
X163853254Y-103415371D01*
X163923500Y-103407051D01*
X163971816Y-103397827D01*
X164013486Y-103384026D01*
X164026776Y-103377090D01*
X164053550Y-103363454D01*
X164077785Y-103365899D01*
X164099308Y-103375876D01*
X164149752Y-103393334D01*
X164212268Y-103403413D01*
X164273700Y-103404765D01*
X164315282Y-103398031D01*
X164373747Y-103368222D01*
X164409311Y-103323673D01*
X164420901Y-103266816D01*
X164418667Y-103244240D01*
X164249354Y-103244240D01*
X164242819Y-103280078D01*
X164216797Y-103307876D01*
X164175585Y-103313894D01*
X164122959Y-103298289D01*
X164100340Y-103283673D01*
X164090008Y-103260898D01*
X164087548Y-103220317D01*
X164088664Y-103182491D01*
X164094765Y-103166009D01*
X164109984Y-103164424D01*
X164121691Y-103167050D01*
X164190164Y-103188944D01*
X164232267Y-103214254D01*
X164249354Y-103244240D01*
X164418667Y-103244240D01*
X164416419Y-103221537D01*
X164400928Y-103186143D01*
X164370519Y-103157149D01*
X164321281Y-103131073D01*
X164249306Y-103104433D01*
X164232464Y-103098932D01*
X164175182Y-103079292D01*
X164128742Y-103061108D01*
X164098983Y-103046799D01*
X164091195Y-103040361D01*
X164096190Y-103020315D01*
X164110401Y-103001602D01*
X164144580Y-102985447D01*
X164194787Y-102984054D01*
X164254158Y-102996407D01*
X164315830Y-103021485D01*
X164341254Y-103035869D01*
X164408570Y-103077715D01*
X164404463Y-102984448D01*
X164400356Y-102891180D01*
X164321699Y-102851010D01*
X164243862Y-102821991D01*
X164161129Y-102809373D01*
X164079565Y-102812414D01*
X164079565Y-102812414D01*
G37*
X164079565Y-102812414D02*
X164005234Y-102830372D01*
X163944202Y-102862504D01*
X163906340Y-102901870D01*
X163895453Y-102932944D01*
X163886524Y-102987828D01*
X163880160Y-103062562D01*
X163879321Y-103078079D01*
X163875607Y-103143732D01*
X163871421Y-103187010D01*
X163865459Y-103213334D01*
X163856414Y-103228121D01*
X163842983Y-103236790D01*
X163840874Y-103237738D01*
X163818422Y-103256173D01*
X163815717Y-103272495D01*
X163822790Y-103298465D01*
X163833349Y-103338501D01*
X163837499Y-103354470D01*
X163853254Y-103415371D01*
X163923500Y-103407051D01*
X163971816Y-103397827D01*
X164013486Y-103384026D01*
X164026776Y-103377090D01*
X164053550Y-103363454D01*
X164077785Y-103365899D01*
X164099308Y-103375876D01*
X164149752Y-103393334D01*
X164212268Y-103403413D01*
X164273700Y-103404765D01*
X164315282Y-103398031D01*
X164373747Y-103368222D01*
X164409311Y-103323673D01*
X164420901Y-103266816D01*
X164418667Y-103244240D01*
X164249354Y-103244240D01*
X164242819Y-103280078D01*
X164216797Y-103307876D01*
X164175585Y-103313894D01*
X164122959Y-103298289D01*
X164100340Y-103283673D01*
X164090008Y-103260898D01*
X164087548Y-103220317D01*
X164088664Y-103182491D01*
X164094765Y-103166009D01*
X164109984Y-103164424D01*
X164121691Y-103167050D01*
X164190164Y-103188944D01*
X164232267Y-103214254D01*
X164249354Y-103244240D01*
X164418667Y-103244240D01*
X164416419Y-103221537D01*
X164400928Y-103186143D01*
X164370519Y-103157149D01*
X164321281Y-103131073D01*
X164249306Y-103104433D01*
X164232464Y-103098932D01*
X164175182Y-103079292D01*
X164128742Y-103061108D01*
X164098983Y-103046799D01*
X164091195Y-103040361D01*
X164096190Y-103020315D01*
X164110401Y-103001602D01*
X164144580Y-102985447D01*
X164194787Y-102984054D01*
X164254158Y-102996407D01*
X164315830Y-103021485D01*
X164341254Y-103035869D01*
X164408570Y-103077715D01*
X164404463Y-102984448D01*
X164400356Y-102891180D01*
X164321699Y-102851010D01*
X164243862Y-102821991D01*
X164161129Y-102809373D01*
X164079565Y-102812414D01*
G36*
X166715134Y-102984619D02*
X166714259Y-103063233D01*
X166711289Y-103118889D01*
X166705709Y-103156391D01*
X166697003Y-103180542D01*
X166693492Y-103186206D01*
X166662726Y-103212673D01*
X166625414Y-103212511D01*
X166593105Y-103195463D01*
X166580426Y-103184983D01*
X166571787Y-103171142D01*
X166566416Y-103148914D01*
X166563543Y-103113270D01*
X166562397Y-103059185D01*
X166562206Y-102993875D01*
X166562206Y-102813930D01*
X166325862Y-102813930D01*
X166325862Y-103012737D01*
X166325161Y-103098801D01*
X166322441Y-103160867D01*
X166316775Y-103202719D01*
X166307239Y-103228144D01*
X166292905Y-103240926D01*
X166272849Y-103244851D01*
X166269074Y-103244910D01*
X166256780Y-103247251D01*
X166253826Y-103258320D01*
X166260564Y-103284187D01*
X166273469Y-103320425D01*
X166290850Y-103363632D01*
X166306915Y-103387530D01*
X166328635Y-103399352D01*
X166354980Y-103405011D01*
X166428891Y-103407727D01*
X166487303Y-103388754D01*
X166521133Y-103359117D01*
X166543389Y-103335429D01*
X166560877Y-103332460D01*
X166573437Y-103339628D01*
X166617479Y-103366530D01*
X166668467Y-103390446D01*
X166715646Y-103406819D01*
X166742940Y-103411425D01*
X166777005Y-103405464D01*
X166820205Y-103390196D01*
X166834319Y-103383691D01*
X166869146Y-103363617D01*
X166895257Y-103339863D01*
X166913865Y-103308338D01*
X166926185Y-103264951D01*
X166933432Y-103205608D01*
X166936820Y-103126220D01*
X166937576Y-103035900D01*
X166937576Y-102813930D01*
X166715134Y-102813930D01*
X166715134Y-102984619D01*
X166715134Y-102984619D01*
G37*
X166715134Y-102984619D02*
X166714259Y-103063233D01*
X166711289Y-103118889D01*
X166705709Y-103156391D01*
X166697003Y-103180542D01*
X166693492Y-103186206D01*
X166662726Y-103212673D01*
X166625414Y-103212511D01*
X166593105Y-103195463D01*
X166580426Y-103184983D01*
X166571787Y-103171142D01*
X166566416Y-103148914D01*
X166563543Y-103113270D01*
X166562397Y-103059185D01*
X166562206Y-102993875D01*
X166562206Y-102813930D01*
X166325862Y-102813930D01*
X166325862Y-103012737D01*
X166325161Y-103098801D01*
X166322441Y-103160867D01*
X166316775Y-103202719D01*
X166307239Y-103228144D01*
X166292905Y-103240926D01*
X166272849Y-103244851D01*
X166269074Y-103244910D01*
X166256780Y-103247251D01*
X166253826Y-103258320D01*
X166260564Y-103284187D01*
X166273469Y-103320425D01*
X166290850Y-103363632D01*
X166306915Y-103387530D01*
X166328635Y-103399352D01*
X166354980Y-103405011D01*
X166428891Y-103407727D01*
X166487303Y-103388754D01*
X166521133Y-103359117D01*
X166543389Y-103335429D01*
X166560877Y-103332460D01*
X166573437Y-103339628D01*
X166617479Y-103366530D01*
X166668467Y-103390446D01*
X166715646Y-103406819D01*
X166742940Y-103411425D01*
X166777005Y-103405464D01*
X166820205Y-103390196D01*
X166834319Y-103383691D01*
X166869146Y-103363617D01*
X166895257Y-103339863D01*
X166913865Y-103308338D01*
X166926185Y-103264951D01*
X166933432Y-103205608D01*
X166936820Y-103126220D01*
X166937576Y-103035900D01*
X166937576Y-102813930D01*
X166715134Y-102813930D01*
X166715134Y-102984619D01*
G36*
X167263254Y-102812414D02*
X167188924Y-102830372D01*
X167127891Y-102862504D01*
X167090029Y-102901870D01*
X167079142Y-102932944D01*
X167070213Y-102987828D01*
X167063849Y-103062562D01*
X167063010Y-103078079D01*
X167059296Y-103143732D01*
X167055110Y-103187010D01*
X167049148Y-103213334D01*
X167040103Y-103228121D01*
X167026672Y-103236790D01*
X167024563Y-103237738D01*
X167002111Y-103256173D01*
X166999406Y-103272495D01*
X167006479Y-103298465D01*
X167017039Y-103338501D01*
X167021188Y-103354470D01*
X167036943Y-103415371D01*
X167107190Y-103407051D01*
X167155505Y-103397827D01*
X167197175Y-103384026D01*
X167210465Y-103377090D01*
X167237239Y-103363454D01*
X167261474Y-103365899D01*
X167282997Y-103375876D01*
X167333441Y-103393334D01*
X167395957Y-103403413D01*
X167457389Y-103404765D01*
X167498971Y-103398031D01*
X167557436Y-103368222D01*
X167593000Y-103323673D01*
X167604590Y-103266816D01*
X167602356Y-103244240D01*
X167433043Y-103244240D01*
X167426508Y-103280078D01*
X167400486Y-103307876D01*
X167359274Y-103313894D01*
X167306648Y-103298289D01*
X167284029Y-103283673D01*
X167273697Y-103260898D01*
X167271237Y-103220317D01*
X167272353Y-103182491D01*
X167278454Y-103166009D01*
X167293673Y-103164424D01*
X167305381Y-103167050D01*
X167373853Y-103188944D01*
X167415956Y-103214254D01*
X167433043Y-103244240D01*
X167602356Y-103244240D01*
X167600108Y-103221537D01*
X167584617Y-103186143D01*
X167554208Y-103157149D01*
X167504970Y-103131073D01*
X167432995Y-103104433D01*
X167416153Y-103098932D01*
X167358871Y-103079292D01*
X167312431Y-103061108D01*
X167282672Y-103046799D01*
X167274884Y-103040361D01*
X167279879Y-103020315D01*
X167294090Y-103001602D01*
X167328269Y-102985447D01*
X167378476Y-102984054D01*
X167437847Y-102996407D01*
X167499519Y-103021485D01*
X167524943Y-103035869D01*
X167592259Y-103077715D01*
X167588152Y-102984448D01*
X167584045Y-102891180D01*
X167505388Y-102851010D01*
X167427551Y-102821991D01*
X167344819Y-102809373D01*
X167263254Y-102812414D01*
X167263254Y-102812414D01*
G37*
X167263254Y-102812414D02*
X167188924Y-102830372D01*
X167127891Y-102862504D01*
X167090029Y-102901870D01*
X167079142Y-102932944D01*
X167070213Y-102987828D01*
X167063849Y-103062562D01*
X167063010Y-103078079D01*
X167059296Y-103143732D01*
X167055110Y-103187010D01*
X167049148Y-103213334D01*
X167040103Y-103228121D01*
X167026672Y-103236790D01*
X167024563Y-103237738D01*
X167002111Y-103256173D01*
X166999406Y-103272495D01*
X167006479Y-103298465D01*
X167017039Y-103338501D01*
X167021188Y-103354470D01*
X167036943Y-103415371D01*
X167107190Y-103407051D01*
X167155505Y-103397827D01*
X167197175Y-103384026D01*
X167210465Y-103377090D01*
X167237239Y-103363454D01*
X167261474Y-103365899D01*
X167282997Y-103375876D01*
X167333441Y-103393334D01*
X167395957Y-103403413D01*
X167457389Y-103404765D01*
X167498971Y-103398031D01*
X167557436Y-103368222D01*
X167593000Y-103323673D01*
X167604590Y-103266816D01*
X167602356Y-103244240D01*
X167433043Y-103244240D01*
X167426508Y-103280078D01*
X167400486Y-103307876D01*
X167359274Y-103313894D01*
X167306648Y-103298289D01*
X167284029Y-103283673D01*
X167273697Y-103260898D01*
X167271237Y-103220317D01*
X167272353Y-103182491D01*
X167278454Y-103166009D01*
X167293673Y-103164424D01*
X167305381Y-103167050D01*
X167373853Y-103188944D01*
X167415956Y-103214254D01*
X167433043Y-103244240D01*
X167602356Y-103244240D01*
X167600108Y-103221537D01*
X167584617Y-103186143D01*
X167554208Y-103157149D01*
X167504970Y-103131073D01*
X167432995Y-103104433D01*
X167416153Y-103098932D01*
X167358871Y-103079292D01*
X167312431Y-103061108D01*
X167282672Y-103046799D01*
X167274884Y-103040361D01*
X167279879Y-103020315D01*
X167294090Y-103001602D01*
X167328269Y-102985447D01*
X167378476Y-102984054D01*
X167437847Y-102996407D01*
X167499519Y-103021485D01*
X167524943Y-103035869D01*
X167592259Y-103077715D01*
X167588152Y-102984448D01*
X167584045Y-102891180D01*
X167505388Y-102851010D01*
X167427551Y-102821991D01*
X167344819Y-102809373D01*
X167263254Y-102812414D01*
G36*
X167931701Y-102646993D02*
X167854193Y-102658389D01*
X167823865Y-102665936D01*
X167743925Y-102689584D01*
X167743925Y-102880772D01*
X167816913Y-102852510D01*
X167909436Y-102826616D01*
X167993277Y-102822344D01*
X168065662Y-102838363D01*
X168123815Y-102873340D01*
X168164964Y-102925943D01*
X168186332Y-102994840D01*
X168188755Y-103031021D01*
X168176838Y-103101930D01*
X168142680Y-103157899D01*
X168088840Y-103196560D01*
X168017878Y-103215543D01*
X167987666Y-103217105D01*
X167954779Y-103214834D01*
X167941210Y-103203263D01*
X167938561Y-103175397D01*
X167942006Y-103145856D01*
X167958255Y-103134967D01*
X167980269Y-103133689D01*
X168003355Y-103132597D01*
X168015816Y-103124951D01*
X168020928Y-103104198D01*
X168021968Y-103063783D01*
X168021976Y-103050274D01*
X168021976Y-102966858D01*
X167729279Y-102966858D01*
X167733126Y-103171367D01*
X167736974Y-103375876D01*
X167785633Y-103386047D01*
X167827812Y-103392373D01*
X167885915Y-103397918D01*
X167951688Y-103402265D01*
X168016878Y-103404994D01*
X168073234Y-103405689D01*
X168112502Y-103403931D01*
X168119294Y-103402946D01*
X168227353Y-103370732D01*
X168316039Y-103318921D01*
X168386272Y-103246925D01*
X168404297Y-103220644D01*
X168424511Y-103186268D01*
X168436891Y-103155832D01*
X168443331Y-103120643D01*
X168445723Y-103072004D01*
X168446005Y-103029102D01*
X168445313Y-102967659D01*
X168441876Y-102925202D01*
X168433647Y-102892921D01*
X168418583Y-102862006D01*
X168400396Y-102832587D01*
X168335285Y-102753313D01*
X168255092Y-102695938D01*
X168158391Y-102659762D01*
X168043756Y-102644084D01*
X168015025Y-102643306D01*
X167931701Y-102646993D01*
X167931701Y-102646993D01*
G37*
X167931701Y-102646993D02*
X167854193Y-102658389D01*
X167823865Y-102665936D01*
X167743925Y-102689584D01*
X167743925Y-102880772D01*
X167816913Y-102852510D01*
X167909436Y-102826616D01*
X167993277Y-102822344D01*
X168065662Y-102838363D01*
X168123815Y-102873340D01*
X168164964Y-102925943D01*
X168186332Y-102994840D01*
X168188755Y-103031021D01*
X168176838Y-103101930D01*
X168142680Y-103157899D01*
X168088840Y-103196560D01*
X168017878Y-103215543D01*
X167987666Y-103217105D01*
X167954779Y-103214834D01*
X167941210Y-103203263D01*
X167938561Y-103175397D01*
X167942006Y-103145856D01*
X167958255Y-103134967D01*
X167980269Y-103133689D01*
X168003355Y-103132597D01*
X168015816Y-103124951D01*
X168020928Y-103104198D01*
X168021968Y-103063783D01*
X168021976Y-103050274D01*
X168021976Y-102966858D01*
X167729279Y-102966858D01*
X167733126Y-103171367D01*
X167736974Y-103375876D01*
X167785633Y-103386047D01*
X167827812Y-103392373D01*
X167885915Y-103397918D01*
X167951688Y-103402265D01*
X168016878Y-103404994D01*
X168073234Y-103405689D01*
X168112502Y-103403931D01*
X168119294Y-103402946D01*
X168227353Y-103370732D01*
X168316039Y-103318921D01*
X168386272Y-103246925D01*
X168404297Y-103220644D01*
X168424511Y-103186268D01*
X168436891Y-103155832D01*
X168443331Y-103120643D01*
X168445723Y-103072004D01*
X168446005Y-103029102D01*
X168445313Y-102967659D01*
X168441876Y-102925202D01*
X168433647Y-102892921D01*
X168418583Y-102862006D01*
X168400396Y-102832587D01*
X168335285Y-102753313D01*
X168255092Y-102695938D01*
X168158391Y-102659762D01*
X168043756Y-102644084D01*
X168015025Y-102643306D01*
X167931701Y-102646993D01*
G36*
X161529475Y-103870526D02*
X169384428Y-103870526D01*
X169384428Y-96168501D01*
X169231500Y-96168501D01*
X169231500Y-103717597D01*
X161682403Y-103717597D01*
X161682403Y-96168501D01*
X169231500Y-96168501D01*
X169384428Y-96168501D01*
X169384428Y-96029475D01*
X161529475Y-96029475D01*
X161529475Y-103870526D01*
X161529475Y-103870526D01*
G37*
X161529475Y-103870526D02*
X169384428Y-103870526D01*
X169384428Y-96168501D01*
X169231500Y-96168501D01*
X169231500Y-103717597D01*
X161682403Y-103717597D01*
X161682403Y-96168501D01*
X169231500Y-96168501D01*
X169384428Y-96168501D01*
X169384428Y-96029475D01*
X161529475Y-96029475D01*
X161529475Y-103870526D01*
D13*
G04 #@! TO.C,R5*
X124397578Y-94433000D02*
X123880422Y-94433000D01*
X124397578Y-95853000D02*
X123880422Y-95853000D01*
G04 #@! TO.C,D1*
X169447000Y-113397000D02*
X165562000Y-113397000D01*
X165562000Y-113397000D02*
X165562000Y-110227000D01*
X165562000Y-110227000D02*
X169447000Y-110227000D01*
G04 #@! TO.C,L1*
D11*
X166298666Y-113535380D02*
X166774857Y-113535380D01*
X166774857Y-112535380D01*
X165441523Y-113535380D02*
X166012952Y-113535380D01*
X165727238Y-113535380D02*
X165727238Y-112535380D01*
X165822476Y-112678238D01*
X165917714Y-112773476D01*
X166012952Y-112821095D01*
G04 #@! TO.C,U2*
X135439904Y-96867380D02*
X135439904Y-97676904D01*
X135392285Y-97772142D01*
X135344666Y-97819761D01*
X135249428Y-97867380D01*
X135058952Y-97867380D01*
X134963714Y-97819761D01*
X134916095Y-97772142D01*
X134868476Y-97676904D01*
X134868476Y-96867380D01*
X134439904Y-96962619D02*
X134392285Y-96915000D01*
X134297047Y-96867380D01*
X134058952Y-96867380D01*
X133963714Y-96915000D01*
X133916095Y-96962619D01*
X133868476Y-97057857D01*
X133868476Y-97153095D01*
X133916095Y-97295952D01*
X134487523Y-97867380D01*
X133868476Y-97867380D01*
G04 #@! TO.C,Y1*
X150902190Y-91472590D02*
X150902190Y-91948780D01*
X151235523Y-90948780D02*
X150902190Y-91472590D01*
X150568857Y-90948780D01*
X149711714Y-91948780D02*
X150283142Y-91948780D01*
X149997428Y-91948780D02*
X149997428Y-90948780D01*
X150092666Y-91091638D01*
X150187904Y-91186876D01*
X150283142Y-91234495D01*
G04 #@! TO.C,LED2*
X162169047Y-89202380D02*
X162645238Y-89202380D01*
X162645238Y-88202380D01*
X161835714Y-88678571D02*
X161502380Y-88678571D01*
X161359523Y-89202380D02*
X161835714Y-89202380D01*
X161835714Y-88202380D01*
X161359523Y-88202380D01*
X160930952Y-89202380D02*
X160930952Y-88202380D01*
X160692857Y-88202380D01*
X160550000Y-88250000D01*
X160454761Y-88345238D01*
X160407142Y-88440476D01*
X160359523Y-88630952D01*
X160359523Y-88773809D01*
X160407142Y-88964285D01*
X160454761Y-89059523D01*
X160550000Y-89154761D01*
X160692857Y-89202380D01*
X160930952Y-89202380D01*
X159978571Y-88297619D02*
X159930952Y-88250000D01*
X159835714Y-88202380D01*
X159597619Y-88202380D01*
X159502380Y-88250000D01*
X159454761Y-88297619D01*
X159407142Y-88392857D01*
X159407142Y-88488095D01*
X159454761Y-88630952D01*
X160026190Y-89202380D01*
X159407142Y-89202380D01*
G04 #@! TO.C,LED1*
X170900047Y-86185380D02*
X171376238Y-86185380D01*
X171376238Y-85185380D01*
X170566714Y-85661571D02*
X170233380Y-85661571D01*
X170090523Y-86185380D02*
X170566714Y-86185380D01*
X170566714Y-85185380D01*
X170090523Y-85185380D01*
X169661952Y-86185380D02*
X169661952Y-85185380D01*
X169423857Y-85185380D01*
X169281000Y-85233000D01*
X169185761Y-85328238D01*
X169138142Y-85423476D01*
X169090523Y-85613952D01*
X169090523Y-85756809D01*
X169138142Y-85947285D01*
X169185761Y-86042523D01*
X169281000Y-86137761D01*
X169423857Y-86185380D01*
X169661952Y-86185380D01*
X168138142Y-86185380D02*
X168709571Y-86185380D01*
X168423857Y-86185380D02*
X168423857Y-85185380D01*
X168519095Y-85328238D01*
X168614333Y-85423476D01*
X168709571Y-85471095D01*
G04 #@! TO.C,U1*
X155861504Y-97324580D02*
X155861504Y-98134104D01*
X155813885Y-98229342D01*
X155766266Y-98276961D01*
X155671028Y-98324580D01*
X155480552Y-98324580D01*
X155385314Y-98276961D01*
X155337695Y-98229342D01*
X155290076Y-98134104D01*
X155290076Y-97324580D01*
X154290076Y-98324580D02*
X154861504Y-98324580D01*
X154575790Y-98324580D02*
X154575790Y-97324580D01*
X154671028Y-97467438D01*
X154766266Y-97562676D01*
X154861504Y-97610295D01*
G04 #@! TO.C,J3*
X183779333Y-92549380D02*
X183779333Y-93263666D01*
X183826952Y-93406523D01*
X183922190Y-93501761D01*
X184065047Y-93549380D01*
X184160285Y-93549380D01*
X183398380Y-92549380D02*
X182779333Y-92549380D01*
X183112666Y-92930333D01*
X182969809Y-92930333D01*
X182874571Y-92977952D01*
X182826952Y-93025571D01*
X182779333Y-93120809D01*
X182779333Y-93358904D01*
X182826952Y-93454142D01*
X182874571Y-93501761D01*
X182969809Y-93549380D01*
X183255523Y-93549380D01*
X183350761Y-93501761D01*
X183398380Y-93454142D01*
G04 #@! TO.C,J2*
X118664333Y-91730780D02*
X118664333Y-92445066D01*
X118711952Y-92587923D01*
X118807190Y-92683161D01*
X118950047Y-92730780D01*
X119045285Y-92730780D01*
X118235761Y-91826019D02*
X118188142Y-91778400D01*
X118092904Y-91730780D01*
X117854809Y-91730780D01*
X117759571Y-91778400D01*
X117711952Y-91826019D01*
X117664333Y-91921257D01*
X117664333Y-92016495D01*
X117711952Y-92159352D01*
X118283380Y-92730780D01*
X117664333Y-92730780D01*
X118200285Y-86811380D02*
X118771714Y-86811380D01*
X118486000Y-86811380D02*
X118486000Y-85811380D01*
X118581238Y-85954238D01*
X118676476Y-86049476D01*
X118771714Y-86097095D01*
G04 #@! TO.C,Q2*
X121438238Y-107320619D02*
X121533476Y-107273000D01*
X121628714Y-107177761D01*
X121771571Y-107034904D01*
X121866809Y-106987285D01*
X121962047Y-106987285D01*
X121914428Y-107225380D02*
X122009666Y-107177761D01*
X122104904Y-107082523D01*
X122152523Y-106892047D01*
X122152523Y-106558714D01*
X122104904Y-106368238D01*
X122009666Y-106273000D01*
X121914428Y-106225380D01*
X121723952Y-106225380D01*
X121628714Y-106273000D01*
X121533476Y-106368238D01*
X121485857Y-106558714D01*
X121485857Y-106892047D01*
X121533476Y-107082523D01*
X121628714Y-107177761D01*
X121723952Y-107225380D01*
X121914428Y-107225380D01*
X121104904Y-106320619D02*
X121057285Y-106273000D01*
X120962047Y-106225380D01*
X120723952Y-106225380D01*
X120628714Y-106273000D01*
X120581095Y-106320619D01*
X120533476Y-106415857D01*
X120533476Y-106511095D01*
X120581095Y-106653952D01*
X121152523Y-107225380D01*
X120533476Y-107225380D01*
G04 #@! TO.C,Q1*
X117872838Y-107720619D02*
X117968076Y-107673000D01*
X118063314Y-107577761D01*
X118206171Y-107434904D01*
X118301409Y-107387285D01*
X118396647Y-107387285D01*
X118349028Y-107625380D02*
X118444266Y-107577761D01*
X118539504Y-107482523D01*
X118587123Y-107292047D01*
X118587123Y-106958714D01*
X118539504Y-106768238D01*
X118444266Y-106673000D01*
X118349028Y-106625380D01*
X118158552Y-106625380D01*
X118063314Y-106673000D01*
X117968076Y-106768238D01*
X117920457Y-106958714D01*
X117920457Y-107292047D01*
X117968076Y-107482523D01*
X118063314Y-107577761D01*
X118158552Y-107625380D01*
X118349028Y-107625380D01*
X116968076Y-107625380D02*
X117539504Y-107625380D01*
X117253790Y-107625380D02*
X117253790Y-106625380D01*
X117349028Y-106768238D01*
X117444266Y-106863476D01*
X117539504Y-106911095D01*
G04 #@! TO.C,Q3*
X118110838Y-102748619D02*
X118206076Y-102701000D01*
X118301314Y-102605761D01*
X118444171Y-102462904D01*
X118539409Y-102415285D01*
X118634647Y-102415285D01*
X118587028Y-102653380D02*
X118682266Y-102605761D01*
X118777504Y-102510523D01*
X118825123Y-102320047D01*
X118825123Y-101986714D01*
X118777504Y-101796238D01*
X118682266Y-101701000D01*
X118587028Y-101653380D01*
X118396552Y-101653380D01*
X118301314Y-101701000D01*
X118206076Y-101796238D01*
X118158457Y-101986714D01*
X118158457Y-102320047D01*
X118206076Y-102510523D01*
X118301314Y-102605761D01*
X118396552Y-102653380D01*
X118587028Y-102653380D01*
X117825123Y-101653380D02*
X117206076Y-101653380D01*
X117539409Y-102034333D01*
X117396552Y-102034333D01*
X117301314Y-102081952D01*
X117253695Y-102129571D01*
X117206076Y-102224809D01*
X117206076Y-102462904D01*
X117253695Y-102558142D01*
X117301314Y-102605761D01*
X117396552Y-102653380D01*
X117682266Y-102653380D01*
X117777504Y-102605761D01*
X117825123Y-102558142D01*
G04 #@! TO.C,C2*
X158233333Y-84510714D02*
X158271428Y-84548809D01*
X158385714Y-84586904D01*
X158461904Y-84586904D01*
X158576190Y-84548809D01*
X158652380Y-84472619D01*
X158690476Y-84396428D01*
X158728571Y-84244047D01*
X158728571Y-84129761D01*
X158690476Y-83977380D01*
X158652380Y-83901190D01*
X158576190Y-83825000D01*
X158461904Y-83786904D01*
X158385714Y-83786904D01*
X158271428Y-83825000D01*
X158233333Y-83863095D01*
X157928571Y-83863095D02*
X157890476Y-83825000D01*
X157814285Y-83786904D01*
X157623809Y-83786904D01*
X157547619Y-83825000D01*
X157509523Y-83863095D01*
X157471428Y-83939285D01*
X157471428Y-84015476D01*
X157509523Y-84129761D01*
X157966666Y-84586904D01*
X157471428Y-84586904D01*
G04 #@! TO.C,C3*
X162708466Y-110963542D02*
X162756085Y-111011161D01*
X162898942Y-111058780D01*
X162994180Y-111058780D01*
X163137038Y-111011161D01*
X163232276Y-110915923D01*
X163279895Y-110820685D01*
X163327514Y-110630209D01*
X163327514Y-110487352D01*
X163279895Y-110296876D01*
X163232276Y-110201638D01*
X163137038Y-110106400D01*
X162994180Y-110058780D01*
X162898942Y-110058780D01*
X162756085Y-110106400D01*
X162708466Y-110154019D01*
X162375133Y-110058780D02*
X161756085Y-110058780D01*
X162089419Y-110439733D01*
X161946561Y-110439733D01*
X161851323Y-110487352D01*
X161803704Y-110534971D01*
X161756085Y-110630209D01*
X161756085Y-110868304D01*
X161803704Y-110963542D01*
X161851323Y-111011161D01*
X161946561Y-111058780D01*
X162232276Y-111058780D01*
X162327514Y-111011161D01*
X162375133Y-110963542D01*
G04 #@! TO.C,C4*
X161833333Y-84585714D02*
X161871428Y-84623809D01*
X161985714Y-84661904D01*
X162061904Y-84661904D01*
X162176190Y-84623809D01*
X162252380Y-84547619D01*
X162290476Y-84471428D01*
X162328571Y-84319047D01*
X162328571Y-84204761D01*
X162290476Y-84052380D01*
X162252380Y-83976190D01*
X162176190Y-83900000D01*
X162061904Y-83861904D01*
X161985714Y-83861904D01*
X161871428Y-83900000D01*
X161833333Y-83938095D01*
X161147619Y-84128571D02*
X161147619Y-84661904D01*
X161338095Y-83823809D02*
X161528571Y-84395238D01*
X161033333Y-84395238D01*
G04 #@! TO.C,C6*
X155809666Y-101105142D02*
X155857285Y-101152761D01*
X156000142Y-101200380D01*
X156095380Y-101200380D01*
X156238238Y-101152761D01*
X156333476Y-101057523D01*
X156381095Y-100962285D01*
X156428714Y-100771809D01*
X156428714Y-100628952D01*
X156381095Y-100438476D01*
X156333476Y-100343238D01*
X156238238Y-100248000D01*
X156095380Y-100200380D01*
X156000142Y-100200380D01*
X155857285Y-100248000D01*
X155809666Y-100295619D01*
X154952523Y-100200380D02*
X155143000Y-100200380D01*
X155238238Y-100248000D01*
X155285857Y-100295619D01*
X155381095Y-100438476D01*
X155428714Y-100628952D01*
X155428714Y-101009904D01*
X155381095Y-101105142D01*
X155333476Y-101152761D01*
X155238238Y-101200380D01*
X155047761Y-101200380D01*
X154952523Y-101152761D01*
X154904904Y-101105142D01*
X154857285Y-101009904D01*
X154857285Y-100771809D01*
X154904904Y-100676571D01*
X154952523Y-100628952D01*
X155047761Y-100581333D01*
X155238238Y-100581333D01*
X155333476Y-100628952D01*
X155381095Y-100676571D01*
X155428714Y-100771809D01*
G04 #@! TO.C,R4*
X120159666Y-93926380D02*
X120493000Y-93450190D01*
X120731095Y-93926380D02*
X120731095Y-92926380D01*
X120350142Y-92926380D01*
X120254904Y-92974000D01*
X120207285Y-93021619D01*
X120159666Y-93116857D01*
X120159666Y-93259714D01*
X120207285Y-93354952D01*
X120254904Y-93402571D01*
X120350142Y-93450190D01*
X120731095Y-93450190D01*
X119302523Y-93259714D02*
X119302523Y-93926380D01*
X119540619Y-92878761D02*
X119778714Y-93593047D01*
X119159666Y-93593047D01*
G04 #@! TO.C,C1*
X139383333Y-84760714D02*
X139421428Y-84798809D01*
X139535714Y-84836904D01*
X139611904Y-84836904D01*
X139726190Y-84798809D01*
X139802380Y-84722619D01*
X139840476Y-84646428D01*
X139878571Y-84494047D01*
X139878571Y-84379761D01*
X139840476Y-84227380D01*
X139802380Y-84151190D01*
X139726190Y-84075000D01*
X139611904Y-84036904D01*
X139535714Y-84036904D01*
X139421428Y-84075000D01*
X139383333Y-84113095D01*
X138621428Y-84836904D02*
X139078571Y-84836904D01*
X138850000Y-84836904D02*
X138850000Y-84036904D01*
X138926190Y-84151190D01*
X139002380Y-84227380D01*
X139078571Y-84265476D01*
G04 #@! TO.C,C5*
X153258333Y-84725714D02*
X153296428Y-84763809D01*
X153410714Y-84801904D01*
X153486904Y-84801904D01*
X153601190Y-84763809D01*
X153677380Y-84687619D01*
X153715476Y-84611428D01*
X153753571Y-84459047D01*
X153753571Y-84344761D01*
X153715476Y-84192380D01*
X153677380Y-84116190D01*
X153601190Y-84040000D01*
X153486904Y-84001904D01*
X153410714Y-84001904D01*
X153296428Y-84040000D01*
X153258333Y-84078095D01*
X152534523Y-84001904D02*
X152915476Y-84001904D01*
X152953571Y-84382857D01*
X152915476Y-84344761D01*
X152839285Y-84306666D01*
X152648809Y-84306666D01*
X152572619Y-84344761D01*
X152534523Y-84382857D01*
X152496428Y-84459047D01*
X152496428Y-84649523D01*
X152534523Y-84725714D01*
X152572619Y-84763809D01*
X152648809Y-84801904D01*
X152839285Y-84801904D01*
X152915476Y-84763809D01*
X152953571Y-84725714D01*
G04 #@! TO.C,C7*
X143337666Y-87890542D02*
X143385285Y-87938161D01*
X143528142Y-87985780D01*
X143623380Y-87985780D01*
X143766238Y-87938161D01*
X143861476Y-87842923D01*
X143909095Y-87747685D01*
X143956714Y-87557209D01*
X143956714Y-87414352D01*
X143909095Y-87223876D01*
X143861476Y-87128638D01*
X143766238Y-87033400D01*
X143623380Y-86985780D01*
X143528142Y-86985780D01*
X143385285Y-87033400D01*
X143337666Y-87081019D01*
X143004333Y-86985780D02*
X142337666Y-86985780D01*
X142766238Y-87985780D01*
G04 #@! TO.C,C8*
X131099142Y-90009333D02*
X131146761Y-89961714D01*
X131194380Y-89818857D01*
X131194380Y-89723619D01*
X131146761Y-89580761D01*
X131051523Y-89485523D01*
X130956285Y-89437904D01*
X130765809Y-89390285D01*
X130622952Y-89390285D01*
X130432476Y-89437904D01*
X130337238Y-89485523D01*
X130242000Y-89580761D01*
X130194380Y-89723619D01*
X130194380Y-89818857D01*
X130242000Y-89961714D01*
X130289619Y-90009333D01*
X130622952Y-90580761D02*
X130575333Y-90485523D01*
X130527714Y-90437904D01*
X130432476Y-90390285D01*
X130384857Y-90390285D01*
X130289619Y-90437904D01*
X130242000Y-90485523D01*
X130194380Y-90580761D01*
X130194380Y-90771238D01*
X130242000Y-90866476D01*
X130289619Y-90914095D01*
X130384857Y-90961714D01*
X130432476Y-90961714D01*
X130527714Y-90914095D01*
X130575333Y-90866476D01*
X130622952Y-90771238D01*
X130622952Y-90580761D01*
X130670571Y-90485523D01*
X130718190Y-90437904D01*
X130813428Y-90390285D01*
X131003904Y-90390285D01*
X131099142Y-90437904D01*
X131146761Y-90485523D01*
X131194380Y-90580761D01*
X131194380Y-90771238D01*
X131146761Y-90866476D01*
X131099142Y-90914095D01*
X131003904Y-90961714D01*
X130813428Y-90961714D01*
X130718190Y-90914095D01*
X130670571Y-90866476D01*
X130622952Y-90771238D01*
G04 #@! TO.C,C9*
X148584142Y-97048333D02*
X148631761Y-97000714D01*
X148679380Y-96857857D01*
X148679380Y-96762619D01*
X148631761Y-96619761D01*
X148536523Y-96524523D01*
X148441285Y-96476904D01*
X148250809Y-96429285D01*
X148107952Y-96429285D01*
X147917476Y-96476904D01*
X147822238Y-96524523D01*
X147727000Y-96619761D01*
X147679380Y-96762619D01*
X147679380Y-96857857D01*
X147727000Y-97000714D01*
X147774619Y-97048333D01*
X148679380Y-97524523D02*
X148679380Y-97715000D01*
X148631761Y-97810238D01*
X148584142Y-97857857D01*
X148441285Y-97953095D01*
X148250809Y-98000714D01*
X147869857Y-98000714D01*
X147774619Y-97953095D01*
X147727000Y-97905476D01*
X147679380Y-97810238D01*
X147679380Y-97619761D01*
X147727000Y-97524523D01*
X147774619Y-97476904D01*
X147869857Y-97429285D01*
X148107952Y-97429285D01*
X148203190Y-97476904D01*
X148250809Y-97524523D01*
X148298428Y-97619761D01*
X148298428Y-97810238D01*
X148250809Y-97905476D01*
X148203190Y-97953095D01*
X148107952Y-98000714D01*
G04 #@! TO.C,C10*
X145881942Y-85773942D02*
X145929561Y-85726323D01*
X145977180Y-85583466D01*
X145977180Y-85488228D01*
X145929561Y-85345371D01*
X145834323Y-85250133D01*
X145739085Y-85202514D01*
X145548609Y-85154895D01*
X145405752Y-85154895D01*
X145215276Y-85202514D01*
X145120038Y-85250133D01*
X145024800Y-85345371D01*
X144977180Y-85488228D01*
X144977180Y-85583466D01*
X145024800Y-85726323D01*
X145072419Y-85773942D01*
X145977180Y-86726323D02*
X145977180Y-86154895D01*
X145977180Y-86440609D02*
X144977180Y-86440609D01*
X145120038Y-86345371D01*
X145215276Y-86250133D01*
X145262895Y-86154895D01*
X144977180Y-87345371D02*
X144977180Y-87440609D01*
X145024800Y-87535847D01*
X145072419Y-87583466D01*
X145167657Y-87631085D01*
X145358133Y-87678704D01*
X145596228Y-87678704D01*
X145786704Y-87631085D01*
X145881942Y-87583466D01*
X145929561Y-87535847D01*
X145977180Y-87440609D01*
X145977180Y-87345371D01*
X145929561Y-87250133D01*
X145881942Y-87202514D01*
X145786704Y-87154895D01*
X145596228Y-87107276D01*
X145358133Y-87107276D01*
X145167657Y-87154895D01*
X145072419Y-87202514D01*
X145024800Y-87250133D01*
X144977180Y-87345371D01*
G04 #@! TO.C,C11*
X147964742Y-85748542D02*
X148012361Y-85700923D01*
X148059980Y-85558066D01*
X148059980Y-85462828D01*
X148012361Y-85319971D01*
X147917123Y-85224733D01*
X147821885Y-85177114D01*
X147631409Y-85129495D01*
X147488552Y-85129495D01*
X147298076Y-85177114D01*
X147202838Y-85224733D01*
X147107600Y-85319971D01*
X147059980Y-85462828D01*
X147059980Y-85558066D01*
X147107600Y-85700923D01*
X147155219Y-85748542D01*
X148059980Y-86700923D02*
X148059980Y-86129495D01*
X148059980Y-86415209D02*
X147059980Y-86415209D01*
X147202838Y-86319971D01*
X147298076Y-86224733D01*
X147345695Y-86129495D01*
X148059980Y-87653304D02*
X148059980Y-87081876D01*
X148059980Y-87367590D02*
X147059980Y-87367590D01*
X147202838Y-87272352D01*
X147298076Y-87177114D01*
X147345695Y-87081876D01*
G04 #@! TO.C,C12*
X149258142Y-92149342D02*
X149305761Y-92101723D01*
X149353380Y-91958866D01*
X149353380Y-91863628D01*
X149305761Y-91720771D01*
X149210523Y-91625533D01*
X149115285Y-91577914D01*
X148924809Y-91530295D01*
X148781952Y-91530295D01*
X148591476Y-91577914D01*
X148496238Y-91625533D01*
X148401000Y-91720771D01*
X148353380Y-91863628D01*
X148353380Y-91958866D01*
X148401000Y-92101723D01*
X148448619Y-92149342D01*
X149353380Y-93101723D02*
X149353380Y-92530295D01*
X149353380Y-92816009D02*
X148353380Y-92816009D01*
X148496238Y-92720771D01*
X148591476Y-92625533D01*
X148639095Y-92530295D01*
X148448619Y-93482676D02*
X148401000Y-93530295D01*
X148353380Y-93625533D01*
X148353380Y-93863628D01*
X148401000Y-93958866D01*
X148448619Y-94006485D01*
X148543857Y-94054104D01*
X148639095Y-94054104D01*
X148781952Y-94006485D01*
X149353380Y-93435057D01*
X149353380Y-94054104D01*
G04 #@! TO.C,C14*
X127670142Y-104950942D02*
X127717761Y-104903323D01*
X127765380Y-104760466D01*
X127765380Y-104665228D01*
X127717761Y-104522371D01*
X127622523Y-104427133D01*
X127527285Y-104379514D01*
X127336809Y-104331895D01*
X127193952Y-104331895D01*
X127003476Y-104379514D01*
X126908238Y-104427133D01*
X126813000Y-104522371D01*
X126765380Y-104665228D01*
X126765380Y-104760466D01*
X126813000Y-104903323D01*
X126860619Y-104950942D01*
X127765380Y-105903323D02*
X127765380Y-105331895D01*
X127765380Y-105617609D02*
X126765380Y-105617609D01*
X126908238Y-105522371D01*
X127003476Y-105427133D01*
X127051095Y-105331895D01*
X127098714Y-106760466D02*
X127765380Y-106760466D01*
X126717761Y-106522371D02*
X127432047Y-106284276D01*
X127432047Y-106903323D01*
G04 #@! TO.C,C15*
X156624142Y-104011142D02*
X156671761Y-103963523D01*
X156719380Y-103820666D01*
X156719380Y-103725428D01*
X156671761Y-103582571D01*
X156576523Y-103487333D01*
X156481285Y-103439714D01*
X156290809Y-103392095D01*
X156147952Y-103392095D01*
X155957476Y-103439714D01*
X155862238Y-103487333D01*
X155767000Y-103582571D01*
X155719380Y-103725428D01*
X155719380Y-103820666D01*
X155767000Y-103963523D01*
X155814619Y-104011142D01*
X156719380Y-104963523D02*
X156719380Y-104392095D01*
X156719380Y-104677809D02*
X155719380Y-104677809D01*
X155862238Y-104582571D01*
X155957476Y-104487333D01*
X156005095Y-104392095D01*
X155719380Y-105868285D02*
X155719380Y-105392095D01*
X156195571Y-105344476D01*
X156147952Y-105392095D01*
X156100333Y-105487333D01*
X156100333Y-105725428D01*
X156147952Y-105820666D01*
X156195571Y-105868285D01*
X156290809Y-105915904D01*
X156528904Y-105915904D01*
X156624142Y-105868285D01*
X156671761Y-105820666D01*
X156719380Y-105725428D01*
X156719380Y-105487333D01*
X156671761Y-105392095D01*
X156624142Y-105344476D01*
G04 #@! TO.C,C16*
X127720942Y-108938742D02*
X127768561Y-108891123D01*
X127816180Y-108748266D01*
X127816180Y-108653028D01*
X127768561Y-108510171D01*
X127673323Y-108414933D01*
X127578085Y-108367314D01*
X127387609Y-108319695D01*
X127244752Y-108319695D01*
X127054276Y-108367314D01*
X126959038Y-108414933D01*
X126863800Y-108510171D01*
X126816180Y-108653028D01*
X126816180Y-108748266D01*
X126863800Y-108891123D01*
X126911419Y-108938742D01*
X127816180Y-109891123D02*
X127816180Y-109319695D01*
X127816180Y-109605409D02*
X126816180Y-109605409D01*
X126959038Y-109510171D01*
X127054276Y-109414933D01*
X127101895Y-109319695D01*
X126816180Y-110748266D02*
X126816180Y-110557790D01*
X126863800Y-110462552D01*
X126911419Y-110414933D01*
X127054276Y-110319695D01*
X127244752Y-110272076D01*
X127625704Y-110272076D01*
X127720942Y-110319695D01*
X127768561Y-110367314D01*
X127816180Y-110462552D01*
X127816180Y-110653028D01*
X127768561Y-110748266D01*
X127720942Y-110795885D01*
X127625704Y-110843504D01*
X127387609Y-110843504D01*
X127292371Y-110795885D01*
X127244752Y-110748266D01*
X127197133Y-110653028D01*
X127197133Y-110462552D01*
X127244752Y-110367314D01*
X127292371Y-110319695D01*
X127387609Y-110272076D01*
G04 #@! TO.C,C17*
X156832142Y-108182142D02*
X156879761Y-108134523D01*
X156927380Y-107991666D01*
X156927380Y-107896428D01*
X156879761Y-107753571D01*
X156784523Y-107658333D01*
X156689285Y-107610714D01*
X156498809Y-107563095D01*
X156355952Y-107563095D01*
X156165476Y-107610714D01*
X156070238Y-107658333D01*
X155975000Y-107753571D01*
X155927380Y-107896428D01*
X155927380Y-107991666D01*
X155975000Y-108134523D01*
X156022619Y-108182142D01*
X156927380Y-109134523D02*
X156927380Y-108563095D01*
X156927380Y-108848809D02*
X155927380Y-108848809D01*
X156070238Y-108753571D01*
X156165476Y-108658333D01*
X156213095Y-108563095D01*
X155927380Y-109467857D02*
X155927380Y-110134523D01*
X156927380Y-109705952D01*
G04 #@! TO.C,R1*
X135608333Y-84811904D02*
X135875000Y-84430952D01*
X136065476Y-84811904D02*
X136065476Y-84011904D01*
X135760714Y-84011904D01*
X135684523Y-84050000D01*
X135646428Y-84088095D01*
X135608333Y-84164285D01*
X135608333Y-84278571D01*
X135646428Y-84354761D01*
X135684523Y-84392857D01*
X135760714Y-84430952D01*
X136065476Y-84430952D01*
X134846428Y-84811904D02*
X135303571Y-84811904D01*
X135075000Y-84811904D02*
X135075000Y-84011904D01*
X135151190Y-84126190D01*
X135227380Y-84202380D01*
X135303571Y-84240476D01*
G04 #@! TO.C,R2*
X170416666Y-90527380D02*
X170750000Y-90051190D01*
X170988095Y-90527380D02*
X170988095Y-89527380D01*
X170607142Y-89527380D01*
X170511904Y-89575000D01*
X170464285Y-89622619D01*
X170416666Y-89717857D01*
X170416666Y-89860714D01*
X170464285Y-89955952D01*
X170511904Y-90003571D01*
X170607142Y-90051190D01*
X170988095Y-90051190D01*
X170035714Y-89622619D02*
X169988095Y-89575000D01*
X169892857Y-89527380D01*
X169654761Y-89527380D01*
X169559523Y-89575000D01*
X169511904Y-89622619D01*
X169464285Y-89717857D01*
X169464285Y-89813095D01*
X169511904Y-89955952D01*
X170083333Y-90527380D01*
X169464285Y-90527380D01*
G04 #@! TO.C,R3*
X160941666Y-91552380D02*
X161275000Y-91076190D01*
X161513095Y-91552380D02*
X161513095Y-90552380D01*
X161132142Y-90552380D01*
X161036904Y-90600000D01*
X160989285Y-90647619D01*
X160941666Y-90742857D01*
X160941666Y-90885714D01*
X160989285Y-90980952D01*
X161036904Y-91028571D01*
X161132142Y-91076190D01*
X161513095Y-91076190D01*
X160608333Y-90552380D02*
X159989285Y-90552380D01*
X160322619Y-90933333D01*
X160179761Y-90933333D01*
X160084523Y-90980952D01*
X160036904Y-91028571D01*
X159989285Y-91123809D01*
X159989285Y-91361904D01*
X160036904Y-91457142D01*
X160084523Y-91504761D01*
X160179761Y-91552380D01*
X160465476Y-91552380D01*
X160560714Y-91504761D01*
X160608333Y-91457142D01*
G04 #@! TO.C,R7*
X150676180Y-108763933D02*
X150199990Y-108430600D01*
X150676180Y-108192504D02*
X149676180Y-108192504D01*
X149676180Y-108573457D01*
X149723800Y-108668695D01*
X149771419Y-108716314D01*
X149866657Y-108763933D01*
X150009514Y-108763933D01*
X150104752Y-108716314D01*
X150152371Y-108668695D01*
X150199990Y-108573457D01*
X150199990Y-108192504D01*
X149676180Y-109097266D02*
X149676180Y-109763933D01*
X150676180Y-109335361D01*
G04 #@! TO.C,R9*
X179167666Y-91391380D02*
X179501000Y-90915190D01*
X179739095Y-91391380D02*
X179739095Y-90391380D01*
X179358142Y-90391380D01*
X179262904Y-90439000D01*
X179215285Y-90486619D01*
X179167666Y-90581857D01*
X179167666Y-90724714D01*
X179215285Y-90819952D01*
X179262904Y-90867571D01*
X179358142Y-90915190D01*
X179739095Y-90915190D01*
X178691476Y-91391380D02*
X178501000Y-91391380D01*
X178405761Y-91343761D01*
X178358142Y-91296142D01*
X178262904Y-91153285D01*
X178215285Y-90962809D01*
X178215285Y-90581857D01*
X178262904Y-90486619D01*
X178310523Y-90439000D01*
X178405761Y-90391380D01*
X178596238Y-90391380D01*
X178691476Y-90439000D01*
X178739095Y-90486619D01*
X178786714Y-90581857D01*
X178786714Y-90819952D01*
X178739095Y-90915190D01*
X178691476Y-90962809D01*
X178596238Y-91010428D01*
X178405761Y-91010428D01*
X178310523Y-90962809D01*
X178262904Y-90915190D01*
X178215285Y-90819952D01*
G04 #@! TO.C,R10*
X176280857Y-94691380D02*
X176614190Y-94215190D01*
X176852285Y-94691380D02*
X176852285Y-93691380D01*
X176471333Y-93691380D01*
X176376095Y-93739000D01*
X176328476Y-93786619D01*
X176280857Y-93881857D01*
X176280857Y-94024714D01*
X176328476Y-94119952D01*
X176376095Y-94167571D01*
X176471333Y-94215190D01*
X176852285Y-94215190D01*
X175328476Y-94691380D02*
X175899904Y-94691380D01*
X175614190Y-94691380D02*
X175614190Y-93691380D01*
X175709428Y-93834238D01*
X175804666Y-93929476D01*
X175899904Y-93977095D01*
X174709428Y-93691380D02*
X174614190Y-93691380D01*
X174518952Y-93739000D01*
X174471333Y-93786619D01*
X174423714Y-93881857D01*
X174376095Y-94072333D01*
X174376095Y-94310428D01*
X174423714Y-94500904D01*
X174471333Y-94596142D01*
X174518952Y-94643761D01*
X174614190Y-94691380D01*
X174709428Y-94691380D01*
X174804666Y-94643761D01*
X174852285Y-94596142D01*
X174899904Y-94500904D01*
X174947523Y-94310428D01*
X174947523Y-94072333D01*
X174899904Y-93881857D01*
X174852285Y-93786619D01*
X174804666Y-93739000D01*
X174709428Y-93691380D01*
G04 #@! TO.C,R5*
X124305666Y-93945380D02*
X124639000Y-93469190D01*
X124877095Y-93945380D02*
X124877095Y-92945380D01*
X124496142Y-92945380D01*
X124400904Y-92993000D01*
X124353285Y-93040619D01*
X124305666Y-93135857D01*
X124305666Y-93278714D01*
X124353285Y-93373952D01*
X124400904Y-93421571D01*
X124496142Y-93469190D01*
X124877095Y-93469190D01*
X123400904Y-92945380D02*
X123877095Y-92945380D01*
X123924714Y-93421571D01*
X123877095Y-93373952D01*
X123781857Y-93326333D01*
X123543761Y-93326333D01*
X123448523Y-93373952D01*
X123400904Y-93421571D01*
X123353285Y-93516809D01*
X123353285Y-93754904D01*
X123400904Y-93850142D01*
X123448523Y-93897761D01*
X123543761Y-93945380D01*
X123781857Y-93945380D01*
X123877095Y-93897761D01*
X123924714Y-93850142D01*
G04 #@! TO.C,D1*
X168585095Y-114544380D02*
X168585095Y-113544380D01*
X168347000Y-113544380D01*
X168204142Y-113592000D01*
X168108904Y-113687238D01*
X168061285Y-113782476D01*
X168013666Y-113972952D01*
X168013666Y-114115809D01*
X168061285Y-114306285D01*
X168108904Y-114401523D01*
X168204142Y-114496761D01*
X168347000Y-114544380D01*
X168585095Y-114544380D01*
X167061285Y-114544380D02*
X167632714Y-114544380D01*
X167347000Y-114544380D02*
X167347000Y-113544380D01*
X167442238Y-113687238D01*
X167537476Y-113782476D01*
X167632714Y-113830095D01*
G04 #@! TO.C,X9*
X125840003Y-103722120D02*
X125173337Y-104722120D01*
X125173337Y-103722120D02*
X125840003Y-104722120D01*
X124744765Y-104722120D02*
X124554289Y-104722120D01*
X124459051Y-104674501D01*
X124411432Y-104626882D01*
X124316194Y-104484025D01*
X124268575Y-104293549D01*
X124268575Y-103912597D01*
X124316194Y-103817359D01*
X124363813Y-103769740D01*
X124459051Y-103722120D01*
X124649527Y-103722120D01*
X124744765Y-103769740D01*
X124792384Y-103817359D01*
X124840003Y-103912597D01*
X124840003Y-104150692D01*
X124792384Y-104245930D01*
X124744765Y-104293549D01*
X124649527Y-104341168D01*
X124459051Y-104341168D01*
X124363813Y-104293549D01*
X124316194Y-104245930D01*
X124268575Y-104150692D01*
G04 #@! TD*
M02*
