G04 #@! TF.GenerationSoftware,KiCad,Pcbnew,5.0.2-bee76a0~70~ubuntu18.04.1*
G04 #@! TF.CreationDate,2019-06-24T09:04:58+02:00*
G04 #@! TF.ProjectId,RocketPCR,526f636b-6574-4504-9352-2e6b69636164,rev?*
G04 #@! TF.SameCoordinates,Original*
G04 #@! TF.FileFunction,Profile,NP*
%FSLAX46Y46*%
G04 Gerber Fmt 4.6, Leading zero omitted, Abs format (unit mm)*
G04 Created by KiCad (PCBNEW 5.0.2-bee76a0~70~ubuntu18.04.1) date Mo 24 Jun 2019 09:04:58 CEST*
%MOMM*%
%LPD*%
G01*
G04 APERTURE LIST*
%ADD10C,0.150000*%
%ADD11C,0.100000*%
G04 APERTURE END LIST*
D10*
X183026440Y-116528100D02*
X84037000Y-116528100D01*
X86382931Y-111994840D02*
X86418231Y-111642062D01*
X106949913Y-100882341D02*
X106985213Y-100106230D01*
X102293253Y-85677618D02*
X103351583Y-85889284D01*
X112700213Y-110548451D02*
X112982443Y-110724840D01*
X97848253Y-114323173D02*
X96789913Y-114146784D01*
X102928253Y-106350396D02*
X103598523Y-105997618D01*
X179040060Y-86400810D02*
X179392840Y-86436110D01*
X93614911Y-86982895D02*
X94602691Y-86524284D01*
X99012443Y-98765674D02*
X99329943Y-98589285D01*
X83507840Y-83543330D02*
X84037000Y-83508030D01*
X91039641Y-111395118D02*
X90228251Y-110689562D01*
X93121021Y-98624563D02*
X93015191Y-99365396D01*
X111994643Y-91815954D02*
X112559083Y-92733174D01*
X110442443Y-111642062D02*
X110548273Y-111289284D01*
X112347393Y-86418454D02*
X112700173Y-86559561D01*
X82520060Y-116104720D02*
X82096730Y-115822500D01*
X90228251Y-110689562D02*
X89452141Y-109948729D01*
X93756021Y-113088451D02*
X92838801Y-112594562D01*
X186025080Y-113494160D02*
X185989780Y-114023330D01*
X84037000Y-116528100D02*
X83507840Y-116457500D01*
X81214780Y-114552500D02*
X81073670Y-114023330D01*
X111994613Y-86383174D02*
X112347393Y-86418454D01*
X100000213Y-98448172D02*
X100352993Y-98483452D01*
X81073670Y-114023330D02*
X81038370Y-113494160D01*
X88746581Y-109137340D02*
X88111581Y-108290674D01*
X96789913Y-114146784D02*
X95766863Y-113864562D01*
X102222693Y-106632618D02*
X102928253Y-106350396D01*
X184049500Y-116316390D02*
X183555610Y-116457500D01*
X99329943Y-98589285D02*
X99647443Y-98483452D01*
X85818521Y-103104841D02*
X85642141Y-102046507D01*
X109772143Y-110689562D02*
X108960753Y-111395118D01*
X113899643Y-104127896D02*
X113546863Y-105150952D01*
X95766863Y-105574285D02*
X96366583Y-105997618D01*
X180027840Y-110777730D02*
X180274770Y-111024680D01*
X91745191Y-88041231D02*
X92662411Y-87476784D01*
X86982711Y-86735954D02*
X87300211Y-86559561D01*
X177417260Y-112012450D02*
X177452560Y-111659680D01*
X83507840Y-116457500D02*
X83013950Y-116316390D01*
X178334510Y-110566060D02*
X178687280Y-110460230D01*
X88358541Y-89558172D02*
X88005771Y-89593452D01*
X88993541Y-89240672D02*
X88676041Y-89417064D01*
X180274770Y-111024680D02*
X180486440Y-111306900D01*
X82096730Y-84213610D02*
X82520060Y-83896110D01*
X114464083Y-98836230D02*
X114499383Y-99894563D01*
X101552463Y-100000396D02*
X101517163Y-100353174D01*
X88676041Y-89417064D02*
X88358541Y-89558172D01*
X183555610Y-83543330D02*
X184049500Y-83684440D01*
X89452141Y-109948729D02*
X88746581Y-109137340D01*
X177593670Y-88693880D02*
X177452560Y-88376380D01*
X185989780Y-114023330D02*
X185848660Y-114552500D01*
X105644643Y-95837618D02*
X105150753Y-95273174D01*
X100670493Y-98589285D02*
X100952713Y-98765674D01*
X184966730Y-115822500D02*
X184543390Y-116104720D01*
X98483253Y-106844285D02*
X99224083Y-106950118D01*
X86453521Y-105150952D02*
X86100751Y-104127896D01*
X110442433Y-112347618D02*
X110407143Y-111994840D01*
X81073670Y-85977500D02*
X81214780Y-85483610D01*
X113546833Y-88358731D02*
X113441003Y-88676231D01*
X109066583Y-88711505D02*
X109877973Y-89381784D01*
X113829083Y-95696507D02*
X114111303Y-96719563D01*
X85853801Y-96719563D02*
X86136021Y-95696507D01*
X111006833Y-89240672D02*
X110759893Y-88993731D01*
X111641883Y-113547062D02*
X111289103Y-113441229D01*
X89557991Y-88358731D02*
X89452161Y-88676231D01*
X86418271Y-88358731D02*
X86382971Y-88005954D01*
X179710340Y-86577220D02*
X180027840Y-86753610D01*
X89240451Y-111007062D02*
X89452121Y-111289284D01*
X81743950Y-115434440D02*
X81426450Y-115011110D01*
X86841581Y-106138729D02*
X86453521Y-105150952D01*
X111289053Y-89417064D02*
X111006833Y-89240672D01*
X99224083Y-106950118D02*
X100000193Y-106985398D01*
X100000213Y-101552621D02*
X99647443Y-101517341D01*
X180027840Y-113247180D02*
X179710340Y-113458840D01*
X94637971Y-104515952D02*
X95167141Y-105080396D01*
X108078803Y-112030118D02*
X107161583Y-112594562D01*
X100741023Y-106950118D02*
X101517143Y-106844285D01*
X98483273Y-100353174D02*
X98447973Y-100000396D01*
X95766863Y-113864562D02*
X94743801Y-113511784D01*
X94602691Y-86524284D02*
X95590473Y-86171505D01*
X179710340Y-113458840D02*
X179392840Y-113564680D01*
X99012443Y-101199841D02*
X98765493Y-100952896D01*
X99329943Y-101376230D02*
X99012443Y-101199841D01*
X88111581Y-108290674D02*
X94637971Y-104515952D01*
X179710340Y-89470000D02*
X179392840Y-89575830D01*
X89557951Y-111642062D02*
X89593251Y-111994840D01*
X178334510Y-113458840D02*
X178017010Y-113247180D01*
X112559083Y-92733174D02*
X113052973Y-93685674D01*
X113229383Y-112982618D02*
X112982433Y-113229562D01*
X88358541Y-86418454D02*
X88676041Y-86559561D01*
X98589103Y-99330118D02*
X98765493Y-99012618D01*
X100000193Y-114499564D02*
X98906583Y-114464284D01*
X92838801Y-112594562D02*
X91921581Y-112030118D01*
X105150753Y-95273174D02*
X104621583Y-94744007D01*
X178687280Y-89575830D02*
X178334510Y-89470000D01*
X103386863Y-93862064D02*
X102681303Y-93544564D01*
X102681303Y-93544564D02*
X101975753Y-93262341D01*
X106808803Y-101623174D02*
X106949913Y-100882341D01*
X106844083Y-98624563D02*
X106667693Y-97883730D01*
X111888803Y-108290674D02*
X111218533Y-109137340D01*
X100952713Y-101199841D02*
X100670493Y-101376230D01*
X104797973Y-105080396D02*
X105327143Y-104515952D01*
X179392840Y-110460230D02*
X179710340Y-110566060D01*
X184543390Y-83896110D02*
X184966730Y-84213610D01*
X98589103Y-100670674D02*
X98483273Y-100353174D01*
X83013950Y-83684440D02*
X83507840Y-83543330D01*
X104233523Y-105574285D02*
X104797973Y-105080396D01*
X93015191Y-99365396D02*
X92979891Y-100106230D01*
X97742413Y-106632618D02*
X98483253Y-106844285D01*
X113229333Y-88993731D02*
X112982393Y-89240672D01*
X111994663Y-110407338D02*
X112347443Y-110442618D01*
X88005751Y-91815954D02*
X88640751Y-90969284D01*
X86735771Y-88993731D02*
X86559381Y-88676231D01*
X96366583Y-105997618D02*
X97036863Y-106350396D01*
X184049500Y-83684440D02*
X184543390Y-83896110D01*
X184543390Y-116104720D02*
X184049500Y-116316390D01*
X85536301Y-100988174D02*
X85501001Y-99894563D01*
X113546883Y-112347618D02*
X113441053Y-112700396D01*
X86382971Y-88005954D02*
X86418271Y-87617895D01*
X110759933Y-112982618D02*
X110548273Y-112700396D01*
X89452121Y-111289284D02*
X89557951Y-111642062D01*
X113441003Y-87300395D02*
X113546833Y-87617895D01*
X110548223Y-87300395D02*
X110759893Y-86982895D01*
X113123533Y-106138729D02*
X106597143Y-102364007D01*
X87300211Y-89417064D02*
X86982711Y-89240672D01*
X112700173Y-86559561D02*
X112982393Y-86735954D01*
X89557951Y-112347618D02*
X89452121Y-112700396D01*
X89452121Y-112700396D02*
X89240451Y-112982618D01*
X110654083Y-90157895D02*
X111359643Y-90969284D01*
X93579641Y-97178174D02*
X93332691Y-97883730D01*
X112700173Y-89417064D02*
X112347393Y-89558172D01*
X88993501Y-110724840D02*
X89240451Y-111007062D01*
X89593291Y-88005954D02*
X89557991Y-88358731D01*
X113476303Y-94673452D02*
X113829083Y-95696507D01*
X87300171Y-110548451D02*
X87652951Y-110442618D01*
X89452161Y-88676231D02*
X89240491Y-88993731D01*
X86735771Y-86982895D02*
X86982711Y-86735954D01*
X88640751Y-90969284D02*
X89346301Y-90157895D01*
X88005771Y-89593452D02*
X87652991Y-89558172D01*
X93191601Y-101623174D02*
X93403271Y-102364007D01*
X113582133Y-88005954D02*
X113546833Y-88358731D01*
X90898521Y-88711505D02*
X91745191Y-88041231D01*
X86982711Y-89240672D02*
X86735771Y-88993731D01*
X87300171Y-113441229D02*
X86982671Y-113229562D01*
X112982433Y-113229562D02*
X112700213Y-113441229D01*
X88676041Y-86559561D02*
X88993541Y-86735954D01*
X88358501Y-113547062D02*
X88005731Y-113582342D01*
X113229333Y-86982895D02*
X113441003Y-87300395D01*
X112347433Y-113547062D02*
X111994663Y-113582342D01*
X112347393Y-89558172D02*
X111994613Y-89593452D01*
X86559381Y-87300395D02*
X86735771Y-86982895D01*
X89452161Y-87300395D02*
X89557991Y-87617895D01*
X93332691Y-97883730D02*
X93121021Y-98624563D01*
X113546833Y-87617895D02*
X113582133Y-88005954D01*
X86418231Y-112347618D02*
X86382931Y-111994840D01*
X87652991Y-86418454D02*
X88005771Y-86383174D01*
X186025080Y-86506660D02*
X186025080Y-113494160D01*
X100352993Y-101517341D02*
X100000213Y-101552621D01*
X91921581Y-112030118D02*
X91039641Y-111395118D01*
X111218533Y-109137340D02*
X110512973Y-109948729D01*
X106949913Y-99365396D02*
X106844083Y-98624563D01*
X100352993Y-98483452D02*
X100670493Y-98589285D01*
X180592270Y-88376380D02*
X180486440Y-88693880D01*
X177593670Y-111306900D02*
X177770060Y-111024680D01*
X177770060Y-89011380D02*
X177593670Y-88693880D01*
X180486440Y-88693880D02*
X180274770Y-89011380D01*
X105327143Y-104515952D02*
X111888803Y-108290674D01*
X106985213Y-100106230D02*
X106949913Y-99365396D01*
X106385473Y-97178174D02*
X106067973Y-96507896D01*
X106067973Y-96507896D02*
X105644643Y-95837618D01*
X185848660Y-85483610D02*
X185989780Y-85977500D01*
X101058523Y-114464284D02*
X100000193Y-114499564D01*
X177417260Y-88023610D02*
X177452560Y-87670830D01*
X180274770Y-113000230D02*
X180027840Y-113247180D01*
X89593251Y-111994840D02*
X89557951Y-112347618D01*
X81038370Y-113494160D02*
X81038370Y-86506660D01*
X86559381Y-88676231D02*
X86418271Y-88358731D01*
X88676001Y-113441229D02*
X88358501Y-113547062D01*
X177593670Y-112718010D02*
X177452560Y-112365230D01*
X90087141Y-89381784D02*
X90898521Y-88711505D01*
X179710340Y-110566060D02*
X180027840Y-110777730D01*
X177770060Y-111024680D02*
X178017010Y-110777730D01*
X87652951Y-110442618D02*
X88005731Y-110407338D01*
X99647443Y-98483452D02*
X100000213Y-98448172D01*
X177770060Y-87000550D02*
X178017010Y-86753610D01*
X103351583Y-85889284D02*
X104374643Y-86171505D01*
X185637000Y-115011110D02*
X185319500Y-115434440D01*
X104374643Y-86171505D02*
X105397693Y-86524284D01*
X100952713Y-98765674D02*
X101199663Y-99012618D01*
X101975753Y-93262341D02*
X101234913Y-93085951D01*
X110407143Y-111994840D02*
X110442443Y-111642062D01*
X111289103Y-110548451D02*
X111641883Y-110442618D01*
X105397693Y-86524284D02*
X106385473Y-86982895D01*
X110442393Y-87617895D02*
X110548223Y-87300395D01*
X180486440Y-87318050D02*
X180592270Y-87670830D01*
X98730193Y-93085951D02*
X97989363Y-93262341D01*
X92662411Y-87476784D02*
X93614911Y-86982895D01*
X113052973Y-93685674D02*
X113476303Y-94673452D01*
X107337973Y-87476784D02*
X108219913Y-88041231D01*
X97036863Y-106350396D02*
X97742413Y-106632618D01*
X180627570Y-112012450D02*
X180592270Y-112365230D01*
X114464083Y-100988174D02*
X114358253Y-102046507D01*
X97989363Y-93262341D02*
X97283803Y-93544564D01*
X95378803Y-94744007D02*
X94814361Y-95273174D01*
X180627570Y-88023610D02*
X180592270Y-88376380D01*
X179040060Y-113599980D02*
X178687280Y-113564680D01*
X104021863Y-94250118D02*
X103386863Y-93862064D01*
X114499383Y-99894563D02*
X114464083Y-100988174D01*
X179040060Y-89611130D02*
X178687280Y-89575830D01*
X95167141Y-105080396D02*
X95766863Y-105574285D01*
X110512973Y-109948729D02*
X109772143Y-110689562D01*
X86559341Y-112700396D02*
X86418231Y-112347618D01*
X113546883Y-111642062D02*
X113582183Y-111994840D01*
X179392840Y-86436110D02*
X179710340Y-86577220D01*
X113229383Y-111007062D02*
X113441053Y-111289284D01*
X86100751Y-104127896D02*
X85818521Y-103104841D01*
X87441301Y-92733174D02*
X88005751Y-91815954D01*
X177452560Y-87670830D02*
X177593670Y-87318050D01*
X179392840Y-89575830D02*
X179040060Y-89611130D01*
X88993541Y-86735954D02*
X89240491Y-86982895D01*
X113441053Y-112700396D02*
X113229383Y-112982618D01*
X84037000Y-83508030D02*
X183026440Y-83508030D01*
X180486440Y-112718010D02*
X180274770Y-113000230D01*
X107161583Y-112594562D02*
X106209083Y-113088451D01*
X98765493Y-100952896D02*
X98589103Y-100670674D01*
X112982393Y-89240672D02*
X112700173Y-89417064D01*
X86136021Y-95696507D02*
X86488801Y-94673452D01*
X178017010Y-89258330D02*
X177770060Y-89011380D01*
X85536301Y-98836230D02*
X85677411Y-97777896D01*
X110548273Y-111289284D02*
X110759943Y-111007062D01*
X104621583Y-94744007D02*
X104021863Y-94250118D01*
X101199663Y-100952896D02*
X100952713Y-101199841D01*
X111289053Y-86559561D02*
X111641833Y-86418454D01*
X98906583Y-114464284D02*
X97848253Y-114323173D01*
X83013950Y-116316390D02*
X82520060Y-116104720D01*
X183026440Y-83508030D02*
X183555610Y-83543330D01*
X100670493Y-101376230D02*
X100352993Y-101517341D01*
X82096730Y-115822500D02*
X81743950Y-115434440D01*
X180027840Y-86753610D02*
X180274770Y-87000550D01*
X185319500Y-115434440D02*
X184966730Y-115822500D01*
X101199663Y-99012618D02*
X101376053Y-99330118D01*
X102116863Y-114323173D02*
X101058523Y-114464284D01*
X99647443Y-101517341D02*
X99329943Y-101376230D01*
X108960753Y-111395118D02*
X108078803Y-112030118D01*
X101376053Y-100670674D02*
X101199663Y-100952896D01*
X185848660Y-114552500D02*
X185637000Y-115011110D01*
X81038370Y-86506660D02*
X81073670Y-85977500D01*
X114358253Y-102046507D02*
X114146583Y-103104841D01*
X101517163Y-100353174D02*
X101376053Y-100670674D01*
X100000193Y-106985398D02*
X100741023Y-106950118D01*
X110407093Y-88005954D02*
X110442393Y-87617895D01*
X177593670Y-87318050D02*
X177770060Y-87000550D01*
X89346301Y-90157895D02*
X90087141Y-89381784D01*
X86488801Y-94673452D02*
X86947411Y-93685674D01*
X111641883Y-110442618D02*
X111994663Y-110407338D01*
X111641833Y-89558172D02*
X111289053Y-89417064D01*
X111006883Y-113229562D02*
X110759933Y-112982618D01*
X96613523Y-85889284D02*
X97671863Y-85677618D01*
X110759893Y-88993731D02*
X110548223Y-88676231D01*
X109877973Y-89381784D02*
X110654083Y-90157895D01*
X101234913Y-93085951D02*
X101234913Y-85536505D01*
X96613523Y-93862064D02*
X95978523Y-94250118D01*
X81214780Y-85483610D02*
X81426450Y-85025000D01*
X112982443Y-110724840D02*
X113229383Y-111007062D01*
X88005731Y-110407338D02*
X88358501Y-110442618D01*
X89240491Y-86982895D02*
X89452161Y-87300395D01*
X108219913Y-88041231D02*
X109066583Y-88711505D01*
X112982393Y-86735954D02*
X113229333Y-86982895D01*
X178687280Y-110460230D02*
X179040060Y-110424930D01*
X178017010Y-113247180D02*
X177770060Y-113000230D01*
X177452560Y-111659680D02*
X177593670Y-111306900D01*
X112347443Y-110442618D02*
X112700213Y-110548451D01*
X93403251Y-102364007D02*
X86841581Y-106138729D01*
X178334510Y-89470000D02*
X178017010Y-89258330D01*
X103598523Y-105997618D02*
X104233523Y-105574285D01*
X81426450Y-115011110D02*
X81214780Y-114552500D01*
X185989780Y-85977500D02*
X186025080Y-86506660D01*
X180027840Y-89258330D02*
X179710340Y-89470000D01*
X178687280Y-113564680D02*
X178334510Y-113458840D01*
X110548223Y-88676231D02*
X110442393Y-88358731D01*
X101517163Y-99647618D02*
X101552463Y-100000396D01*
X98730193Y-85536505D02*
X98730193Y-93085951D01*
X178017010Y-86753610D02*
X178334510Y-86577220D01*
X98483273Y-99647618D02*
X98589103Y-99330118D01*
X85501001Y-99894563D02*
X85536301Y-98836230D01*
X101376053Y-99330118D02*
X101517163Y-99647618D01*
X94814361Y-95273174D02*
X94355751Y-95837618D01*
X112700213Y-113441229D02*
X112347433Y-113547062D01*
X111994613Y-89593452D02*
X111641833Y-89558172D01*
X114111303Y-96719563D02*
X114322973Y-97777896D01*
X111006833Y-86735954D02*
X111289053Y-86559561D01*
X114322973Y-97777896D02*
X114464083Y-98836230D01*
X86982671Y-110724840D02*
X87300171Y-110548451D01*
X101517143Y-106844285D02*
X102222693Y-106632618D01*
X89240451Y-112982618D02*
X88993501Y-113229562D01*
X87300211Y-86559561D02*
X87652991Y-86418454D01*
X86982671Y-113229562D02*
X86735731Y-112982618D01*
X113546863Y-105150952D02*
X113123533Y-106138729D01*
X177770060Y-113000230D02*
X177593670Y-112718010D01*
X183555610Y-116457500D02*
X183026440Y-116528100D01*
X110442393Y-88358731D02*
X110407093Y-88005954D01*
X106385473Y-86982895D02*
X107337973Y-87476784D01*
X111994663Y-113582342D02*
X111641883Y-113547062D01*
X111289103Y-113441229D02*
X111006883Y-113229562D01*
X88993501Y-113229562D02*
X88676001Y-113441229D01*
X180486440Y-111306900D02*
X180592270Y-111659680D01*
X82520060Y-83896110D02*
X83013950Y-83684440D01*
X103175193Y-114146784D02*
X102116863Y-114323173D01*
X180274770Y-89011380D02*
X180027840Y-89258330D01*
X113441003Y-88676231D02*
X113229333Y-88993731D01*
X89557991Y-87617895D02*
X89593291Y-88005954D01*
X86418231Y-111642062D02*
X86559341Y-111289284D01*
X95978523Y-94250118D02*
X95378803Y-94744007D01*
X110759943Y-111007062D02*
X111006883Y-110724840D01*
X85642141Y-102046507D02*
X85536301Y-100988174D01*
X86947411Y-93685674D02*
X87441301Y-92733174D01*
X89240491Y-88993731D02*
X88993541Y-89240672D01*
X113582183Y-111994840D02*
X113546883Y-112347618D01*
X85677411Y-97777896D02*
X85853801Y-96719563D01*
X97283803Y-93544564D02*
X96613523Y-93862064D01*
X114146583Y-103104841D02*
X113899643Y-104127896D01*
X88358501Y-110442618D02*
X88676001Y-110548451D01*
X88005731Y-113582342D02*
X87652951Y-113547062D01*
X111359643Y-90969284D02*
X111994643Y-91815954D01*
X111641833Y-86418454D02*
X111994613Y-86383174D01*
X93932411Y-96507896D02*
X93579641Y-97178174D01*
X86559341Y-111289284D02*
X86735731Y-111007062D01*
X94743801Y-113511784D02*
X93756021Y-113088451D01*
X86735731Y-111007062D02*
X86982671Y-110724840D01*
X110548273Y-112700396D02*
X110442433Y-112347618D01*
X86735731Y-112982618D02*
X86559341Y-112700396D01*
X101234913Y-85536505D02*
X102293253Y-85677618D01*
X94355751Y-95837618D02*
X93932411Y-96507896D01*
X93050491Y-100882341D02*
X93191601Y-101623174D01*
X110759893Y-86982895D02*
X111006833Y-86735954D01*
X86418271Y-87617895D02*
X86559381Y-87300395D01*
X106597143Y-102364007D02*
X106808803Y-101623174D01*
X178334510Y-86577220D02*
X178687280Y-86436110D01*
X178687280Y-86436110D02*
X179040060Y-86400810D01*
X180274770Y-87000550D02*
X180486440Y-87318050D01*
X180592270Y-111659680D02*
X180627570Y-112012450D01*
X179392840Y-113564680D02*
X179040060Y-113599980D01*
X180592270Y-87670830D02*
X180627570Y-88023610D01*
X185319500Y-84566380D02*
X185637000Y-85025000D01*
X97671863Y-85677618D02*
X98730193Y-85536505D01*
X180592270Y-112365230D02*
X180486440Y-112718010D01*
X87652991Y-89558172D02*
X87300211Y-89417064D01*
X98447973Y-100000396D02*
X98483273Y-99647618D01*
X111006883Y-110724840D02*
X111289103Y-110548451D01*
X92979891Y-100106230D02*
X93050491Y-100882341D01*
X106209083Y-113088451D02*
X105221303Y-113511784D01*
X184966730Y-84213610D02*
X185319500Y-84566380D01*
X177452560Y-112365230D02*
X177417260Y-112012450D01*
X81743950Y-84566380D02*
X82096730Y-84213610D01*
X88676001Y-110548451D02*
X88993501Y-110724840D01*
X81426450Y-85025000D02*
X81743950Y-84566380D01*
X87652951Y-113547062D02*
X87300171Y-113441229D01*
X179040060Y-110424930D02*
X179392840Y-110460230D01*
X113441053Y-111289284D02*
X113546883Y-111642062D01*
X95590473Y-86171505D02*
X96613523Y-85889284D01*
X88005771Y-86383174D02*
X88358541Y-86418454D01*
X178017010Y-110777730D02*
X178334510Y-110566060D01*
X98765493Y-99012618D02*
X99012443Y-98765674D01*
X106667693Y-97883730D02*
X106385473Y-97178174D01*
X104233523Y-113864562D02*
X103175193Y-114146784D01*
X105221303Y-113511784D02*
X104233523Y-113864562D01*
X177452560Y-88376380D02*
X177417260Y-88023610D01*
X185637000Y-85025000D02*
X185848660Y-85483610D01*
D11*
X147737000Y-110530000D02*
G75*
G02X147737000Y-111530000I0J-500000D01*
G01*
X131737000Y-111530000D02*
G75*
G02X131737000Y-110530000I0J500000D01*
G01*
X147737000Y-111530000D02*
X131737000Y-111530000D01*
X131737000Y-110530000D02*
X147737000Y-110530000D01*
M02*
