  0
SECTION
  2
HEADER
  9
$ACADVER
  1
AC1014
  9
$HANDSEED
  5
FFFF
  9
$MEASUREMENT
 70
     1
  0
ENDSEC
  0
SECTION
  2
TABLES
  0
TABLE
  2
VPORT
  5
8
330
0
100
AcDbSymbolTable
 70
     4
  0
VPORT
  5
2E
330
8
100
AcDbSymbolTableRecord
100
AcDbViewportTableRecord
  2
*ACTIVE
 70
     0
 10
0.0
 20
0.0
 11
1.0
 21
1.0
 12
210.0
 22
148.5
 13
0.0
 23
0.0
 14
10.0
 24
10.0
 15
10.0
 25
10.0
 16
0.0
 26
0.0
 36
1.0
 17
0.0
 27
0.0
 37
0.0
 40
341.0
 41
1.24
 42
50.0
 43
0.0
 44
0.0
 50
0.0
 51
0.0
 71
     0
 72
   100
 73
     1
 74
     3
 75
     0
 76
     0
 77
     0
 78
     0
  0
ENDTAB
  0
TABLE
  2
LTYPE
  5
5
330
0
100
AcDbSymbolTable
 70
     1
  0
LTYPE
  5
14
330
5
100
AcDbSymbolTableRecord
100
AcDbLinetypeTableRecord
  2
BYBLOCK
 70
     0
  3

 72
    65
 73
     0
 40
0.0
  0
LTYPE
  5
15
330
5
100
AcDbSymbolTableRecord
100
AcDbLinetypeTableRecord
  2
BYLAYER
 70
     0
  3

 72
    65
 73
     0
 40
0.0
  0
LTYPE
  5
16
330
5
100
AcDbSymbolTableRecord
100
AcDbLinetypeTableRecord
  2
CONTINUOUS
 70
     0
  3
Solid line
 72
    65
 73
     0
 40
0.0
  0
ENDTAB
  0
TABLE
  2
LAYER
  5
2
100
AcDbSymbolTable
 70
2
  0
LAYER
  5
50
100
AcDbSymbolTableRecord
100
AcDbLayerTableRecord
  2
0
 70
0
  6
CONTINUOUS
  0
LAYER
  5
51
100
AcDbSymbolTableRecord
100
AcDbLayerTableRecord
  2
Layer_1
 70
0
  6
CONTINUOUS
  0
ENDTAB
  0
TABLE
  2
STYLE
  5
3
330
0
100
AcDbSymbolTable
 70
     1
  0
STYLE
  5
11
330
3
100
AcDbSymbolTableRecord
100
AcDbTextStyleTableRecord
  2
STANDARD
 70
     0
 40
0.0
 41
1.0
 50
0.0
 71
     0
 42
2.5
  3
txt
  4

  0
ENDTAB
  0
TABLE
  2
VIEW
  5
6
330
0
100
AcDbSymbolTable
 70
     0
  0
ENDTAB
  0
TABLE
  2
UCS
  5
7
330
0
100
AcDbSymbolTable
 70
     0
  0
ENDTAB
  0
TABLE
  2
APPID
  5
9
330
0
100
AcDbSymbolTable
 70
     2
  0
APPID
  5
12
330
9
100
AcDbSymbolTableRecord
100
AcDbRegAppTableRecord
  2
ACAD
 70
     0
  0
ENDTAB
  0
TABLE
  2
DIMSTYLE
  5
A
330
0
100
AcDbSymbolTable
 70
     1
  0
DIMSTYLE
105
27
330
A
100
AcDbSymbolTableRecord
100
AcDbDimStyleTableRecord
  2
ISO-25
 70
     0
  3

  4

  5

  6

  7

 40
1.0
 41
2.5
 42
0.625
 43
3.75
 44
1.25
 45
0.0
 46
0.0
 47
0.0
 48
0.0
140
2.5
141
2.5
142
0.0
143
0.03937007874016
144
1.0
145
0.0
146
1.0
147
0.625
 71
     0
 72
     0
 73
     0
 74
     0
 75
     0
 76
     0
 77
     1
 78
     8
170
     0
171
     3
172
     1
173
     0
174
     0
175
     0
176
     0
177
     0
178
     0
270
     2
271
     2
272
     2
273
     2
274
     3
340
11
275
     0
280
     0
281
     0
282
     0
283
     0
284
     8
285
     0
286
     0
287
     3
288
     0
  0
ENDTAB
  0
TABLE
  2
BLOCK_RECORD
  5
1
330
0
100
AcDbSymbolTable
 70
     1
  0
BLOCK_RECORD
  5
1F
330
1
100
AcDbSymbolTableRecord
100
AcDbBlockTableRecord
  2
*MODEL_SPACE
  0
BLOCK_RECORD
  5
1B
330
1
100
AcDbSymbolTableRecord
100
AcDbBlockTableRecord
  2
*PAPER_SPACE
  0
ENDTAB
  0
ENDSEC
  0
SECTION
  2
BLOCKS
  0
BLOCK
  5
20
330
1F
100
AcDbEntity
  8
0
100
AcDbBlockBegin
  2
*MODEL_SPACE
 70
     0
 10
0.0
 20
0.0
 30
0.0
  3
*MODEL_SPACE
  1

  0
ENDBLK
  5
21
330
1F
100
AcDbEntity
  8
0
100
AcDbBlockEnd
  0
BLOCK
  5
1C
330
1B
100
AcDbEntity
 67
     1
  8
0
100
AcDbBlockBegin
  2
*PAPER_SPACE
  1

  0
ENDBLK
  5
1D
330
1B
100
AcDbEntity
 67
     1
  8
0
100
AcDbBlockEnd
  0
ENDSEC
  0
SECTION
  2
ENTITIES
  0
LWPOLYLINE
  5
100
100
AcDbEntity
  8
Layer_1
 62
7
100
AcDbPolyline
 90
32
 70
1
 10
52.404763
 20
238.350730
 30
0.0
 10
52.382403
 20
238.585210
 30
0.0
 10
52.319023
 20
238.788425
 30
0.0
 10
52.220463
 20
238.960377
 30
0.0
 10
52.092596
 20
239.101065
 30
0.0
 10
51.941278
 20
239.210488
 30
0.0
 10
51.772367
 20
239.288648
 30
0.0
 10
51.591723
 20
239.335548
 30
0.0
 10
51.405207
 20
239.351178
 30
0.0
 10
51.218677
 20
239.335548
 30
0.0
 10
51.037992
 20
239.288648
 30
0.0
 10
50.869012
 20
239.210488
 30
0.0
 10
50.717596
 20
239.101066
 30
0.0
 10
50.589603
 20
238.960377
 30
0.0
 10
50.490893
 20
238.788426
 30
0.0
 10
50.427323
 20
238.585211
 30
0.0
 10
50.404763
 20
238.350731
 30
0.0
 10
50.427123
 20
238.116251
 30
0.0
 10
50.490503
 20
237.913036
 30
0.0
 10
50.589063
 20
237.741084
 30
0.0
 10
50.716930
 20
237.600396
 30
0.0
 10
50.868248
 20
237.490973
 30
0.0
 10
51.037159
 20
237.412813
 30
0.0
 10
51.217803
 20
237.365913
 30
0.0
 10
51.404319
 20
237.350283
 30
0.0
 10
51.590849
 20
237.365913
 30
0.0
 10
51.771534
 20
237.412813
 30
0.0
 10
51.940514
 20
237.490973
 30
0.0
 10
52.091930
 20
237.600395
 30
0.0
 10
52.219923
 20
237.741084
 30
0.0
 10
52.318633
 20
237.913035
 30
0.0
 10
52.382203
 20
238.116250
 30
0.0
  0
LWPOLYLINE
  5
101
100
AcDbEntity
  8
Layer_1
 62
7
100
AcDbPolyline
 90
32
 70
1
 10
55.065893
 20
240.284154
 30
0.0
 10
55.043533
 20
240.518634
 30
0.0
 10
54.980153
 20
240.721849
 30
0.0
 10
54.881593
 20
240.893801
 30
0.0
 10
54.753726
 20
241.034489
 30
0.0
 10
54.602408
 20
241.143912
 30
0.0
 10
54.433497
 20
241.222072
 30
0.0
 10
54.252853
 20
241.268972
 30
0.0
 10
54.066337
 20
241.284602
 30
0.0
 10
53.879807
 20
241.268972
 30
0.0
 10
53.699122
 20
241.222072
 30
0.0
 10
53.530142
 20
241.143912
 30
0.0
 10
53.378726
 20
241.034490
 30
0.0
 10
53.250733
 20
240.893801
 30
0.0
 10
53.152023
 20
240.721850
 30
0.0
 10
53.088453
 20
240.518635
 30
0.0
 10
53.065893
 20
240.284155
 30
0.0
 10
53.088253
 20
240.049675
 30
0.0
 10
53.151633
 20
239.846460
 30
0.0
 10
53.250193
 20
239.674508
 30
0.0
 10
53.378060
 20
239.533820
 30
0.0
 10
53.529378
 20
239.424397
 30
0.0
 10
53.698289
 20
239.346237
 30
0.0
 10
53.878933
 20
239.299337
 30
0.0
 10
54.065449
 20
239.283707
 30
0.0
 10
54.251979
 20
239.299337
 30
0.0
 10
54.432664
 20
239.346237
 30
0.0
 10
54.601644
 20
239.424397
 30
0.0
 10
54.753060
 20
239.533819
 30
0.0
 10
54.881053
 20
239.674508
 30
0.0
 10
54.979763
 20
239.846459
 30
0.0
 10
55.043333
 20
240.049674
 30
0.0
  0
LWPOLYLINE
  5
102
100
AcDbEntity
  8
Layer_1
 62
7
100
AcDbPolyline
 90
32
 70
1
 10
54.049433
 20
243.412503
 30
0.0
 10
54.027193
 20
243.647134
 30
0.0
 10
53.963853
 20
243.850482
 30
0.0
 10
53.865273
 20
244.022544
 30
0.0
 10
53.737338
 20
244.163325
 30
0.0
 10
53.585915
 20
244.272818
 30
0.0
 10
53.416872
 20
244.351028
 30
0.0
 10
53.236086
 20
244.397958
 30
0.0
 10
53.049427
 20
244.413598
 30
0.0
 10
52.862769
 20
244.397958
 30
0.0
 10
52.681982
 20
244.351028
 30
0.0
 10
52.512941
 20
244.272818
 30
0.0
 10
52.361516
 20
244.163323
 30
0.0
 10
52.233581
 20
244.022545
 30
0.0
 10
52.135001
 20
243.850480
 30
0.0
 10
52.071661
 20
243.647132
 30
0.0
 10
52.049421
 20
243.412501
 30
0.0
 10
52.071651
 20
243.177869
 30
0.0
 10
52.134991
 20
242.974522
 30
0.0
 10
52.233571
 20
242.802460
 30
0.0
 10
52.361506
 20
242.661679
 30
0.0
 10
52.512929
 20
242.552186
 30
0.0
 10
52.681972
 20
242.473976
 30
0.0
 10
52.862758
 20
242.427046
 30
0.0
 10
53.049417
 20
242.411406
 30
0.0
 10
53.236075
 20
242.427046
 30
0.0
 10
53.416862
 20
242.473976
 30
0.0
 10
53.585903
 20
242.552186
 30
0.0
 10
53.737328
 20
242.661681
 30
0.0
 10
53.865263
 20
242.802459
 30
0.0
 10
53.963843
 20
242.974524
 30
0.0
 10
54.027183
 20
243.177871
 30
0.0
  0
LWPOLYLINE
  5
103
100
AcDbEntity
  8
Layer_1
 62
7
100
AcDbPolyline
 90
32
 70
1
 10
50.760093
 20
243.412503
 30
0.0
 10
50.737923
 20
243.647209
 30
0.0
 10
50.674623
 20
243.850622
 30
0.0
 10
50.576063
 20
244.022742
 30
0.0
 10
50.448123
 20
244.163564
 30
0.0
 10
50.296681
 20
244.273094
 30
0.0
 10
50.127611
 20
244.351324
 30
0.0
 10
49.946789
 20
244.398264
 30
0.0
 10
49.760092
 20
244.413914
 30
0.0
 10
49.573394
 20
244.398264
 30
0.0
 10
49.392573
 20
244.351324
 30
0.0
 10
49.223504
 20
244.273084
 30
0.0
 10
49.072061
 20
244.163556
 30
0.0
 10
48.944123
 20
244.022732
 30
0.0
 10
48.845563
 20
243.850614
 30
0.0
 10
48.782263
 20
243.647201
 30
0.0
 10
48.760093
 20
243.412495
 30
0.0
 10
48.782263
 20
243.177789
 30
0.0
 10
48.845563
 20
242.974376
 30
0.0
 10
48.944123
 20
242.802256
 30
0.0
 10
49.072063
 20
242.661434
 30
0.0
 10
49.223505
 20
242.551904
 30
0.0
 10
49.392575
 20
242.473674
 30
0.0
 10
49.573397
 20
242.426734
 30
0.0
 10
49.760094
 20
242.411084
 30
0.0
 10
49.946792
 20
242.426734
 30
0.0
 10
50.127613
 20
242.473674
 30
0.0
 10
50.296682
 20
242.551914
 30
0.0
 10
50.448125
 20
242.661442
 30
0.0
 10
50.576063
 20
242.802266
 30
0.0
 10
50.674623
 20
242.974384
 30
0.0
 10
50.737923
 20
243.177797
 30
0.0
  0
LWPOLYLINE
  5
104
100
AcDbEntity
  8
Layer_1
 62
7
100
AcDbPolyline
 90
32
 70
1
 10
49.743633
 20
240.284154
 30
0.0
 10
49.721273
 20
240.518634
 30
0.0
 10
49.657893
 20
240.721849
 30
0.0
 10
49.559333
 20
240.893801
 30
0.0
 10
49.431466
 20
241.034489
 30
0.0
 10
49.280148
 20
241.143912
 30
0.0
 10
49.111237
 20
241.222072
 30
0.0
 10
48.930593
 20
241.268972
 30
0.0
 10
48.744077
 20
241.284602
 30
0.0
 10
48.557547
 20
241.268972
 30
0.0
 10
48.376862
 20
241.222072
 30
0.0
 10
48.207882
 20
241.143912
 30
0.0
 10
48.056466
 20
241.034490
 30
0.0
 10
47.928473
 20
240.893801
 30
0.0
 10
47.829763
 20
240.721850
 30
0.0
 10
47.766193
 20
240.518635
 30
0.0
 10
47.743633
 20
240.284155
 30
0.0
 10
47.765993
 20
240.049675
 30
0.0
 10
47.829373
 20
239.846460
 30
0.0
 10
47.927933
 20
239.674508
 30
0.0
 10
48.055800
 20
239.533820
 30
0.0
 10
48.207118
 20
239.424397
 30
0.0
 10
48.376029
 20
239.346237
 30
0.0
 10
48.556673
 20
239.299337
 30
0.0
 10
48.743189
 20
239.283707
 30
0.0
 10
48.929719
 20
239.299337
 30
0.0
 10
49.110404
 20
239.346237
 30
0.0
 10
49.279384
 20
239.424397
 30
0.0
 10
49.430800
 20
239.533819
 30
0.0
 10
49.558793
 20
239.674508
 30
0.0
 10
49.657503
 20
239.846459
 30
0.0
 10
49.721073
 20
240.049674
 30
0.0
  0
LWPOLYLINE
  5
105
100
AcDbEntity
  8
Layer_1
 62
7
100
AcDbPolyline
 90
17
 70
0
 10
50.404763
 20
244.148809
 30
0.0
 10
50.529763
 20
244.148809
 30
0.0
 10
50.654763
 20
244.148809
 30
0.0
 10
50.779763
 20
244.148809
 30
0.0
 10
50.904763
 20
244.148809
 30
0.0
 10
51.029763
 20
244.148809
 30
0.0
 10
51.154763
 20
244.148809
 30
0.0
 10
51.279763
 20
244.148809
 30
0.0
 10
51.404763
 20
244.148809
 30
0.0
 10
51.529763
 20
244.148809
 30
0.0
 10
51.654763
 20
244.148809
 30
0.0
 10
51.779763
 20
244.148809
 30
0.0
 10
51.904763
 20
244.148809
 30
0.0
 10
52.029763
 20
244.148809
 30
0.0
 10
52.154763
 20
244.148809
 30
0.0
 10
52.279763
 20
244.148809
 30
0.0
 10
52.404763
 20
244.148809
 30
0.0
  0
LWPOLYLINE
  5
106
100
AcDbEntity
  8
Layer_1
 62
7
100
AcDbPolyline
 90
33
 70
0
 10
50.404763
 20
244.148809
 30
0.0
 10
50.404763
 20
244.211309
 30
0.0
 10
50.404763
 20
244.273809
 30
0.0
 10
50.404763
 20
244.336309
 30
0.0
 10
50.404763
 20
244.398809
 30
0.0
 10
50.404763
 20
244.461309
 30
0.0
 10
50.404763
 20
244.523809
 30
0.0
 10
50.404763
 20
244.586309
 30
0.0
 10
50.404763
 20
244.648809
 30
0.0
 10
50.404763
 20
244.711309
 30
0.0
 10
50.404763
 20
244.773809
 30
0.0
 10
50.404763
 20
244.836309
 30
0.0
 10
50.404763
 20
244.898809
 30
0.0
 10
50.404763
 20
244.961309
 30
0.0
 10
50.404763
 20
245.023809
 30
0.0
 10
50.404763
 20
245.086309
 30
0.0
 10
50.404763
 20
245.148809
 30
0.0
 10
50.529763
 20
245.148807
 30
0.0
 10
50.654763
 20
245.148807
 30
0.0
 10
50.779763
 20
245.148807
 30
0.0
 10
50.904763
 20
245.148807
 30
0.0
 10
51.029763
 20
245.148807
 30
0.0
 10
51.154763
 20
245.148807
 30
0.0
 10
51.279763
 20
245.148807
 30
0.0
 10
51.404763
 20
245.148807
 30
0.0
 10
51.529763
 20
245.148807
 30
0.0
 10
51.654763
 20
245.148807
 30
0.0
 10
51.779763
 20
245.148807
 30
0.0
 10
51.904763
 20
245.148807
 30
0.0
 10
52.029763
 20
245.148807
 30
0.0
 10
52.154763
 20
245.148807
 30
0.0
 10
52.279763
 20
245.148807
 30
0.0
 10
52.404763
 20
245.148807
 30
0.0
  0
LWPOLYLINE
  5
107
100
AcDbEntity
  8
Layer_1
 62
7
100
AcDbPolyline
 90
17
 70
0
 10
52.404763
 20
244.148809
 30
0.0
 10
52.404763
 20
244.211309
 30
0.0
 10
52.404763
 20
244.273809
 30
0.0
 10
52.404763
 20
244.336309
 30
0.0
 10
52.404763
 20
244.398809
 30
0.0
 10
52.404763
 20
244.461309
 30
0.0
 10
52.404763
 20
244.523809
 30
0.0
 10
52.404763
 20
244.586309
 30
0.0
 10
52.404763
 20
244.648809
 30
0.0
 10
52.404763
 20
244.711309
 30
0.0
 10
52.404763
 20
244.773809
 30
0.0
 10
52.404763
 20
244.836309
 30
0.0
 10
52.404763
 20
244.898809
 30
0.0
 10
52.404763
 20
244.961309
 30
0.0
 10
52.404763
 20
245.023809
 30
0.0
 10
52.404763
 20
245.086309
 30
0.0
 10
52.404763
 20
245.148809
 30
0.0
  0
LWPOLYLINE
  5
108
100
AcDbEntity
  8
Layer_1
 62
7
100
AcDbPolyline
 90
32
 70
1
 10
52.554763
 20
241.148807
 30
0.0
 10
52.529043
 20
241.418450
 30
0.0
 10
52.456143
 20
241.652142
 30
0.0
 10
52.342798
 20
241.849880
 30
0.0
 10
52.195746
 20
242.011666
 30
0.0
 10
52.021727
 20
242.137499
 30
0.0
 10
51.827476
 20
242.227379
 30
0.0
 10
51.619735
 20
242.281309
 30
0.0
 10
51.405241
 20
242.299289
 30
0.0
 10
51.190732
 20
242.281309
 30
0.0
 10
50.982945
 20
242.227379
 30
0.0
 10
50.788621
 20
242.137499
 30
0.0
 10
50.614496
 20
242.011667
 30
0.0
 10
50.467310
 20
241.849881
 30
0.0
 10
50.353799
 20
241.652143
 30
0.0
 10
50.280699
 20
241.418452
 30
0.0
 10
50.254759
 20
241.148808
 30
0.0
 10
50.280479
 20
240.879165
 30
0.0
 10
50.353379
 20
240.645473
 30
0.0
 10
50.466724
 20
240.447735
 30
0.0
 10
50.613776
 20
240.285949
 30
0.0
 10
50.787795
 20
240.160116
 30
0.0
 10
50.982046
 20
240.070236
 30
0.0
 10
51.189787
 20
240.016306
 30
0.0
 10
51.404281
 20
239.998326
 30
0.0
 10
51.618790
 20
240.016306
 30
0.0
 10
51.826577
 20
240.070236
 30
0.0
 10
52.020901
 20
240.160116
 30
0.0
 10
52.195026
 20
240.285948
 30
0.0
 10
52.342212
 20
240.447734
 30
0.0
 10
52.455723
 20
240.645472
 30
0.0
 10
52.528823
 20
240.879163
 30
0.0
  0
LWPOLYLINE
  5
109
100
AcDbEntity
  8
Layer_1
 62
7
100
AcDbPolyline
 90
33
 70
0
 10
52.004193
 20
255.074981
 30
0.0
 10
52.014273
 20
254.844225
 30
0.0
 10
52.024353
 20
254.613469
 30
0.0
 10
52.034433
 20
254.382714
 30
0.0
 10
52.044513
 20
254.151958
 30
0.0
 10
52.054593
 20
253.921202
 30
0.0
 10
52.064663
 20
253.690446
 30
0.0
 10
52.074743
 20
253.459690
 30
0.0
 10
52.084823
 20
253.228935
 30
0.0
 10
52.094903
 20
252.998179
 30
0.0
 10
52.104983
 20
252.767423
 30
0.0
 10
52.115063
 20
252.536667
 30
0.0
 10
52.125143
 20
252.305911
 30
0.0
 10
52.135223
 20
252.075155
 30
0.0
 10
52.145303
 20
251.844400
 30
0.0
 10
52.155383
 20
251.613644
 30
0.0
 10
52.165463
 20
251.382888
 30
0.0
 10
52.170193
 20
251.329018
 30
0.0
 10
52.179593
 20
251.276568
 30
0.0
 10
52.193453
 20
251.225748
 30
0.0
 10
52.211543
 20
251.176788
 30
0.0
 10
52.233673
 20
251.129908
 30
0.0
 10
52.259643
 20
251.085318
 30
0.0
 10
52.289243
 20
251.043248
 30
0.0
 10
52.322283
 20
251.003918
 30
0.0
 10
52.358553
 20
250.967538
 30
0.0
 10
52.397853
 20
250.934348
 30
0.0
 10
52.439983
 20
250.904548
 30
0.0
 10
52.484733
 20
250.878378
 30
0.0
 10
52.531913
 20
250.856038
 30
0.0
 10
52.581313
 20
250.837768
 30
0.0
 10
52.632733
 20
250.823768
 30
0.0
 10
52.685973
 20
250.814268
 30
0.0
  0
LWPOLYLINE
  5
10a
100
AcDbEntity
  8
Layer_1
 62
7
100
AcDbPolyline
 90
17
 70
0
 10
53.173043
 20
250.737119
 30
0.0
 10
53.142723
 20
250.742619
 30
0.0
 10
53.112383
 20
250.748119
 30
0.0
 10
53.082023
 20
250.753419
 30
0.0
 10
53.051653
 20
250.758719
 30
0.0
 10
53.021263
 20
250.763919
 30
0.0
 10
52.990863
 20
250.768919
 30
0.0
 10
52.960443
 20
250.773819
 30
0.0
 10
52.930003
 20
250.778719
 30
0.0
 10
52.899553
 20
250.783519
 30
0.0
 10
52.869083
 20
250.788219
 30
0.0
 10
52.838603
 20
250.792819
 30
0.0
 10
52.808103
 20
250.797319
 30
0.0
 10
52.777593
 20
250.801719
 30
0.0
 10
52.747073
 20
250.806019
 30
0.0
 10
52.716533
 20
250.810219
 30
0.0
 10
52.685983
 20
250.814319
 30
0.0
  0
LWPOLYLINE
  5
10b
100
AcDbEntity
  8
Layer_1
 62
7
100
AcDbPolyline
 90
17
 70
0
 10
53.173043
 20
250.737119
 30
0.0
 10
53.226613
 20
250.729719
 30
0.0
 10
53.279843
 20
250.727119
 30
0.0
 10
53.332473
 20
250.729319
 30
0.0
 10
53.384243
 20
250.736019
 30
0.0
 10
53.434893
 20
250.747079
 30
0.0
 10
53.484173
 20
250.762399
 30
0.0
 10
53.531803
 20
250.781819
 30
0.0
 10
53.577543
 20
250.805209
 30
0.0
 10
53.621123
 20
250.832409
 30
0.0
 10
53.662273
 20
250.863269
 30
0.0
 10
53.700753
 20
250.897649
 30
0.0
 10
53.736293
 20
250.935399
 30
0.0
 10
53.768633
 20
250.976369
 30
0.0
 10
53.797513
 20
251.020429
 30
0.0
 10
53.822673
 20
251.067409
 30
0.0
 10
53.843863
 20
251.117169
 30
0.0
  0
LWPOLYLINE
  5
10c
100
AcDbEntity
  8
Layer_1
 62
7
100
AcDbPolyline
 90
17
 70
0
 10
53.843863
 20
251.117042
 30
0.0
 10
53.924753
 20
251.333390
 30
0.0
 10
54.005643
 20
251.549739
 30
0.0
 10
54.086533
 20
251.766087
 30
0.0
 10
54.167423
 20
251.982436
 30
0.0
 10
54.248313
 20
252.198784
 30
0.0
 10
54.329203
 20
252.415133
 30
0.0
 10
54.410093
 20
252.631481
 30
0.0
 10
54.490983
 20
252.847830
 30
0.0
 10
54.571873
 20
253.064178
 30
0.0
 10
54.652763
 20
253.280527
 30
0.0
 10
54.733653
 20
253.496875
 30
0.0
 10
54.814543
 20
253.713224
 30
0.0
 10
54.895433
 20
253.929572
 30
0.0
 10
54.976323
 20
254.145921
 30
0.0
 10
55.057213
 20
254.362269
 30
0.0
 10
55.138103
 20
254.578618
 30
0.0
  0
LWPOLYLINE
  5
10d
100
AcDbEntity
  8
Layer_1
 62
7
100
AcDbPolyline
 90
17
 70
0
 10
56.278283
 20
254.208151
 30
0.0
 10
56.302173
 20
254.341823
 30
0.0
 10
56.299073
 20
254.465401
 30
0.0
 10
56.272073
 20
254.577892
 30
0.0
 10
56.224223
 20
254.678301
 30
0.0
 10
56.158583
 20
254.765631
 30
0.0
 10
56.078213
 20
254.838891
 30
0.0
 10
55.986173
 20
254.897081
 30
0.0
 10
55.885530
 20
254.939211
 30
0.0
 10
55.779346
 20
254.964281
 30
0.0
 10
55.670681
 20
254.971281
 30
0.0
 10
55.562598
 20
254.959251
 30
0.0
 10
55.458160
 20
254.927181
 30
0.0
 10
55.360430
 20
254.874071
 30
0.0
 10
55.272470
 20
254.798931
 30
0.0
 10
55.197330
 20
254.700771
 30
0.0
 10
55.138090
 20
254.578587
 30
0.0
  0
LWPOLYLINE
  5
10e
100
AcDbEntity
  8
Layer_1
 62
7
100
AcDbPolyline
 90
33
 70
0
 10
56.278283
 20
254.208151
 30
0.0
 10
56.216553
 20
253.985576
 30
0.0
 10
56.154823
 20
253.763001
 30
0.0
 10
56.093093
 20
253.540426
 30
0.0
 10
56.031363
 20
253.317850
 30
0.0
 10
55.969643
 20
253.095275
 30
0.0
 10
55.907913
 20
252.872700
 30
0.0
 10
55.846183
 20
252.650125
 30
0.0
 10
55.784453
 20
252.427550
 30
0.0
 10
55.722723
 20
252.204975
 30
0.0
 10
55.660993
 20
251.982400
 30
0.0
 10
55.599263
 20
251.759825
 30
0.0
 10
55.537543
 20
251.537249
 30
0.0
 10
55.475813
 20
251.314674
 30
0.0
 10
55.414083
 20
251.092099
 30
0.0
 10
55.352353
 20
250.869524
 30
0.0
 10
55.290623
 20
250.646949
 30
0.0
 10
55.278573
 20
250.594239
 30
0.0
 10
55.271273
 20
250.541439
 30
0.0
 10
55.268773
 20
250.488829
 30
0.0
 10
55.270873
 20
250.436669
 30
0.0
 10
55.277473
 20
250.385239
 30
0.0
 10
55.288393
 20
250.334809
 30
0.0
 10
55.303543
 20
250.285649
 30
0.0
 10
55.322813
 20
250.238029
 30
0.0
 10
55.346073
 20
250.192229
 30
0.0
 10
55.373193
 20
250.148509
 30
0.0
 10
55.404053
 20
250.107149
 30
0.0
 10
55.438523
 20
250.068429
 30
0.0
 10
55.476493
 20
250.032609
 30
0.0
 10
55.517823
 20
249.999959
 30
0.0
 10
55.562403
 20
249.970759
 30
0.0
 10
55.610103
 20
249.945279
 30
0.0
  0
LWPOLYLINE
  5
10f
100
AcDbEntity
  8
Layer_1
 62
7
100
AcDbPolyline
 90
17
 70
0
 10
56.049453
 20
249.721402
 30
0.0
 10
56.022323
 20
249.736052
 30
0.0
 10
55.995153
 20
249.750612
 30
0.0
 10
55.967933
 20
249.765082
 30
0.0
 10
55.940673
 20
249.779462
 30
0.0
 10
55.913363
 20
249.793762
 30
0.0
 10
55.886013
 20
249.807972
 30
0.0
 10
55.858623
 20
249.822092
 30
0.0
 10
55.831173
 20
249.836132
 30
0.0
 10
55.803693
 20
249.850082
 30
0.0
 10
55.776153
 20
249.863942
 30
0.0
 10
55.748583
 20
249.877712
 30
0.0
 10
55.720963
 20
249.891402
 30
0.0
 10
55.693303
 20
249.905002
 30
0.0
 10
55.665593
 20
249.918522
 30
0.0
 10
55.637843
 20
249.931952
 30
0.0
 10
55.610053
 20
249.945292
 30
0.0
  0
LWPOLYLINE
  5
110
100
AcDbEntity
  8
Layer_1
 62
7
100
AcDbPolyline
 90
33
 70
0
 10
56.049453
 20
249.721402
 30
0.0
 10
56.098113
 20
249.697792
 30
0.0
 10
56.147933
 20
249.678892
 30
0.0
 10
56.198643
 20
249.664642
 30
0.0
 10
56.249933
 20
249.654942
 30
0.0
 10
56.301523
 20
249.649842
 30
0.0
 10
56.353123
 20
249.649162
 30
0.0
 10
56.404423
 20
249.652862
 30
0.0
 10
56.455153
 20
249.660962
 30
0.0
 10
56.505003
 20
249.673372
 30
0.0
 10
56.553683
 20
249.689992
 30
0.0
 10
56.600903
 20
249.710802
 30
0.0
 10
56.646363
 20
249.735722
 30
0.0
 10
56.689783
 20
249.764702
 30
0.0
 10
56.730863
 20
249.797672
 30
0.0
 10
56.769313
 20
249.834572
 30
0.0
 10
56.804833
 20
249.875352
 30
0.0
 10
56.948629
 20
250.056200
 30
0.0
 10
57.092415
 20
250.236964
 30
0.0
 10
57.236201
 20
250.417727
 30
0.0
 10
57.379986
 20
250.598491
 30
0.0
 10
57.523772
 20
250.779254
 30
0.0
 10
57.667558
 20
250.960018
 30
0.0
 10
57.811344
 20
251.140781
 30
0.0
 10
57.955130
 20
251.321545
 30
0.0
 10
58.098916
 20
251.502308
 30
0.0
 10
58.242702
 20
251.683072
 30
0.0
 10
58.386488
 20
251.863835
 30
0.0
 10
58.530273
 20
252.044599
 30
0.0
 10
58.674059
 20
252.225362
 30
0.0
 10
58.817845
 20
252.406126
 30
0.0
 10
58.961631
 20
252.586889
 30
0.0
 10
59.105417
 20
252.767653
 30
0.0
  0
LWPOLYLINE
  5
111
100
AcDbEntity
  8
Layer_1
 62
7
100
AcDbPolyline
 90
17
 70
0
 10
60.075317
 20
252.062983
 30
0.0
 10
60.139327
 20
252.182725
 30
0.0
 10
60.174567
 20
252.301202
 30
0.0
 10
60.183667
 20
252.416523
 30
0.0
 10
60.169197
 20
252.526798
 30
0.0
 10
60.133757
 20
252.630132
 30
0.0
 10
60.079957
 20
252.724632
 30
0.0
 10
60.010407
 20
252.808412
 30
0.0
 10
59.927717
 20
252.879572
 30
0.0
 10
59.834487
 20
252.936222
 30
0.0
 10
59.733318
 20
252.976472
 30
0.0
 10
59.626817
 20
252.998432
 30
0.0
 10
59.517587
 20
253.000232
 30
0.0
 10
59.408232
 20
252.979932
 30
0.0
 10
59.301359
 20
252.935662
 30
0.0
 10
59.199573
 20
252.865532
 30
0.0
 10
59.105473
 20
252.767652
 30
0.0
  0
LWPOLYLINE
  5
112
100
AcDbEntity
  8
Layer_1
 62
7
100
AcDbPolyline
 90
33
 70
0
 10
60.075317
 20
252.062983
 30
0.0
 10
59.947833
 20
251.870376
 30
0.0
 10
59.820348
 20
251.677768
 30
0.0
 10
59.692864
 20
251.485161
 30
0.0
 10
59.565380
 20
251.292553
 30
0.0
 10
59.437895
 20
251.099946
 30
0.0
 10
59.310411
 20
250.907339
 30
0.0
 10
59.182926
 20
250.714731
 30
0.0
 10
59.055442
 20
250.522124
 30
0.0
 10
58.927958
 20
250.329517
 30
0.0
 10
58.800473
 20
250.136909
 30
0.0
 10
58.672989
 20
249.944302
 30
0.0
 10
58.545504
 20
249.751694
 30
0.0
 10
58.418020
 20
249.559087
 30
0.0
 10
58.290536
 20
249.366480
 30
0.0
 10
58.163051
 20
249.173872
 30
0.0
 10
58.035567
 20
248.981265
 30
0.0
 10
58.007757
 20
248.934885
 30
0.0
 10
57.984537
 20
248.886915
 30
0.0
 10
57.965867
 20
248.837655
 30
0.0
 10
57.951727
 20
248.787415
 30
0.0
 10
57.942027
 20
248.736475
 30
0.0
 10
57.936827
 20
248.685135
 30
0.0
 10
57.936056
 20
248.633695
 30
0.0
 10
57.939656
 20
248.582455
 30
0.0
 10
57.947556
 20
248.531705
 30
0.0
 10
57.959856
 20
248.481755
 30
0.0
 10
57.976426
 20
248.432885
 30
0.0
 10
57.997246
 20
248.385405
 30
0.0
 10
58.022286
 20
248.339595
 30
0.0
 10
58.051506
 20
248.295775
 30
0.0
 10
58.084886
 20
248.254225
 30
0.0
 10
58.122376
 20
248.215245
 30
0.0
  0
LWPOLYLINE
  5
113
100
AcDbEntity
  8
Layer_1
 62
7
100
AcDbPolyline
 90
17
 70
0
 10
58.471207
 20
247.866544
 30
0.0
 10
58.449927
 20
247.888854
 30
0.0
 10
58.428587
 20
247.911094
 30
0.0
 10
58.407177
 20
247.933264
 30
0.0
 10
58.385687
 20
247.955374
 30
0.0
 10
58.364137
 20
247.977414
 30
0.0
 10
58.342507
 20
247.999374
 30
0.0
 10
58.320817
 20
248.021274
 30
0.0
 10
58.299057
 20
248.043104
 30
0.0
 10
58.277227
 20
248.064864
 30
0.0
 10
58.255327
 20
248.086554
 30
0.0
 10
58.233357
 20
248.108174
 30
0.0
 10
58.211327
 20
248.129734
 30
0.0
 10
58.189227
 20
248.151224
 30
0.0
 10
58.167057
 20
248.172634
 30
0.0
 10
58.144817
 20
248.193974
 30
0.0
 10
58.122507
 20
248.215254
 30
0.0
  0
LWPOLYLINE
  5
114
100
AcDbEntity
  8
Layer_1
 62
7
100
AcDbPolyline
 90
33
 70
0
 10
58.471207
 20
247.866544
 30
0.0
 10
58.510177
 20
247.829054
 30
0.0
 10
58.551727
 20
247.795674
 30
0.0
 10
58.595547
 20
247.766454
 30
0.0
 10
58.641347
 20
247.741404
 30
0.0
 10
58.688827
 20
247.720574
 30
0.0
 10
58.737697
 20
247.704014
 30
0.0
 10
58.787647
 20
247.691734
 30
0.0
 10
58.838397
 20
247.683734
 30
0.0
 10
58.889637
 20
247.680134
 30
0.0
 10
58.941067
 20
247.680935
 30
0.0
 10
58.992407
 20
247.686135
 30
0.0
 10
59.043347
 20
247.695835
 30
0.0
 10
59.093587
 20
247.709985
 30
0.0
 10
59.142857
 20
247.728635
 30
0.0
 10
59.190827
 20
247.751845
 30
0.0
 10
59.237217
 20
247.779655
 30
0.0
 10
59.429834
 20
247.907096
 30
0.0
 10
59.622441
 20
248.034580
 30
0.0
 10
59.815048
 20
248.162064
 30
0.0
 10
60.007654
 20
248.289547
 30
0.0
 10
60.200261
 20
248.417031
 30
0.0
 10
60.392868
 20
248.544515
 30
0.0
 10
60.585475
 20
248.671999
 30
0.0
 10
60.778082
 20
248.799483
 30
0.0
 10
60.970689
 20
248.926967
 30
0.0
 10
61.163296
 20
249.054451
 30
0.0
 10
61.355903
 20
249.181935
 30
0.0
 10
61.548510
 20
249.309418
 30
0.0
 10
61.741116
 20
249.436902
 30
0.0
 10
61.933723
 20
249.564386
 30
0.0
 10
62.126330
 20
249.691870
 30
0.0
 10
62.318937
 20
249.819354
 30
0.0
  0
LWPOLYLINE
  5
115
100
AcDbEntity
  8
Layer_1
 62
7
100
AcDbPolyline
 90
17
 70
0
 10
63.023617
 20
248.849457
 30
0.0
 10
63.121507
 20
248.943557
 30
0.0
 10
63.191647
 20
249.045348
 30
0.0
 10
63.235917
 20
249.152227
 30
0.0
 10
63.256217
 20
249.261583
 30
0.0
 10
63.254417
 20
249.370817
 30
0.0
 10
63.232457
 20
249.477323
 30
0.0
 10
63.192207
 20
249.578499
 30
0.0
 10
63.135547
 20
249.671729
 30
0.0
 10
63.064387
 20
249.754429
 30
0.0
 10
62.980607
 20
249.823979
 30
0.0
 10
62.886097
 20
249.877779
 30
0.0
 10
62.782759
 20
249.913219
 30
0.0
 10
62.672479
 20
249.927699
 30
0.0
 10
62.557153
 20
249.918599
 30
0.0
 10
62.438671
 20
249.883349
 30
0.0
 10
62.318928
 20
249.819329
 30
0.0
  0
LWPOLYLINE
  5
116
100
AcDbEntity
  8
Layer_1
 62
7
100
AcDbPolyline
 90
33
 70
0
 10
63.023617
 20
248.849457
 30
0.0
 10
62.842853
 20
248.705671
 30
0.0
 10
62.662089
 20
248.561886
 30
0.0
 10
62.481326
 20
248.418100
 30
0.0
 10
62.300562
 20
248.274314
 30
0.0
 10
62.119798
 20
248.130529
 30
0.0
 10
61.939035
 20
247.986743
 30
0.0
 10
61.758271
 20
247.842958
 30
0.0
 10
61.577507
 20
247.699172
 30
0.0
 10
61.396743
 20
247.555386
 30
0.0
 10
61.215980
 20
247.411601
 30
0.0
 10
61.035216
 20
247.267815
 30
0.0
 10
60.854452
 20
247.124029
 30
0.0
 10
60.673688
 20
246.980244
 30
0.0
 10
60.492924
 20
246.836458
 30
0.0
 10
60.312161
 20
246.692673
 30
0.0
 10
60.131397
 20
246.548887
 30
0.0
 10
60.090617
 20
246.513367
 30
0.0
 10
60.053707
 20
246.474917
 30
0.0
 10
60.020737
 20
246.433837
 30
0.0
 10
59.991757
 20
246.390417
 30
0.0
 10
59.966837
 20
246.344947
 30
0.0
 10
59.946027
 20
246.297727
 30
0.0
 10
59.929387
 20
246.249047
 30
0.0
 10
59.916987
 20
246.199197
 30
0.0
 10
59.908887
 20
246.148477
 30
0.0
 10
59.905087
 20
246.097167
 30
0.0
 10
59.905746
 20
246.045577
 30
0.0
 10
59.910846
 20
245.993977
 30
0.0
 10
59.920546
 20
245.942687
 30
0.0
 10
59.934786
 20
245.891977
 30
0.0
 10
59.953686
 20
245.842147
 30
0.0
 10
59.977306
 20
245.793497
 30
0.0
  0
LWPOLYLINE
  5
117
100
AcDbEntity
  8
Layer_1
 62
7
100
AcDbPolyline
 90
17
 70
0
 10
60.201247
 20
245.354105
 30
0.0
 10
60.187887
 20
245.381895
 30
0.0
 10
60.174477
 20
245.409645
 30
0.0
 10
60.160957
 20
245.437355
 30
0.0
 10
60.147357
 20
245.465015
 30
0.0
 10
60.133667
 20
245.492635
 30
0.0
 10
60.119887
 20
245.520205
 30
0.0
 10
60.106027
 20
245.547735
 30
0.0
 10
60.092077
 20
245.575225
 30
0.0
 10
60.078037
 20
245.602665
 30
0.0
 10
60.063917
 20
245.630065
 30
0.0
 10
60.049707
 20
245.657415
 30
0.0
 10
60.035407
 20
245.684725
 30
0.0
 10
60.021017
 20
245.711995
 30
0.0
 10
60.006557
 20
245.739205
 30
0.0
 10
59.991997
 20
245.766385
 30
0.0
 10
59.977357
 20
245.793505
 30
0.0
  0
LWPOLYLINE
  5
118
100
AcDbEntity
  8
Layer_1
 62
7
100
AcDbPolyline
 90
17
 70
0
 10
60.201247
 20
245.354105
 30
0.0
 10
60.226727
 20
245.306405
 30
0.0
 10
60.255927
 20
245.261825
 30
0.0
 10
60.288577
 20
245.220485
 30
0.0
 10
60.324397
 20
245.182525
 30
0.0
 10
60.363117
 20
245.148055
 30
0.0
 10
60.404477
 20
245.117195
 30
0.0
 10
60.448197
 20
245.090075
 30
0.0
 10
60.493997
 20
245.066815
 30
0.0
 10
60.541617
 20
245.047545
 30
0.0
 10
60.590777
 20
245.032395
 30
0.0
 10
60.641207
 20
245.021475
 30
0.0
 10
60.692637
 20
245.014875
 30
0.0
 10
60.744797
 20
245.012775
 30
0.0
 10
60.797407
 20
245.015275
 30
0.0
 10
60.850207
 20
245.022475
 30
0.0
 10
60.902917
 20
245.034605
 30
0.0
  0
LWPOLYLINE
  5
119
100
AcDbEntity
  8
Layer_1
 62
7
100
AcDbPolyline
 90
17
 70
0
 10
60.902907
 20
245.034713
 30
0.0
 10
61.125482
 20
245.096443
 30
0.0
 10
61.348057
 20
245.158173
 30
0.0
 10
61.570632
 20
245.219903
 30
0.0
 10
61.793207
 20
245.281633
 30
0.0
 10
62.015782
 20
245.343363
 30
0.0
 10
62.238357
 20
245.405093
 30
0.0
 10
62.460932
 20
245.466823
 30
0.0
 10
62.683507
 20
245.528543
 30
0.0
 10
62.906082
 20
245.590273
 30
0.0
 10
63.128657
 20
245.652003
 30
0.0
 10
63.351232
 20
245.713733
 30
0.0
 10
63.573807
 20
245.775463
 30
0.0
 10
63.796382
 20
245.837193
 30
0.0
 10
64.018957
 20
245.898923
 30
0.0
 10
64.241532
 20
245.960643
 30
0.0
 10
64.464107
 20
246.022373
 30
0.0
  0
LWPOLYLINE
  5
11a
100
AcDbEntity
  8
Layer_1
 62
7
100
AcDbPolyline
 90
17
 70
0
 10
64.834577
 20
244.882141
 30
0.0
 10
64.956743
 20
244.941391
 30
0.0
 10
65.054893
 20
245.016531
 30
0.0
 10
65.130023
 20
245.104491
 30
0.0
 10
65.183113
 20
245.202221
 30
0.0
 10
65.215173
 20
245.306655
 30
0.0
 10
65.227193
 20
245.414729
 30
0.0
 10
65.220193
 20
245.523385
 30
0.0
 10
65.195133
 20
245.629563
 30
0.0
 10
65.153013
 20
245.730201
 30
0.0
 10
65.094823
 20
245.822231
 30
0.0
 10
65.021573
 20
245.902601
 30
0.0
 10
64.934253
 20
245.968241
 30
0.0
 10
64.833852
 20
246.016101
 30
0.0
 10
64.721372
 20
246.043101
 30
0.0
 10
64.597805
 20
246.046201
 30
0.0
 10
64.464143
 20
246.022331
 30
0.0
  0
LWPOLYLINE
  5
11b
100
AcDbEntity
  8
Layer_1
 62
7
100
AcDbPolyline
 90
33
 70
0
 10
64.834577
 20
244.882141
 30
0.0
 10
64.618228
 20
244.801251
 30
0.0
 10
64.401880
 20
244.720361
 30
0.0
 10
64.185531
 20
244.639471
 30
0.0
 10
63.969182
 20
244.558581
 30
0.0
 10
63.752833
 20
244.477691
 30
0.0
 10
63.536484
 20
244.396801
 30
0.0
 10
63.320136
 20
244.315911
 30
0.0
 10
63.103787
 20
244.235021
 30
0.0
 10
62.887438
 20
244.154131
 30
0.0
 10
62.671089
 20
244.073241
 30
0.0
 10
62.454741
 20
243.992351
 30
0.0
 10
62.238392
 20
243.911461
 30
0.0
 10
62.022043
 20
243.830571
 30
0.0
 10
61.805695
 20
243.749681
 30
0.0
 10
61.589346
 20
243.668791
 30
0.0
 10
61.372997
 20
243.587901
 30
0.0
 10
61.323237
 20
243.566731
 30
0.0
 10
61.276257
 20
243.541571
 30
0.0
 10
61.232207
 20
243.512691
 30
0.0
 10
61.191227
 20
243.480351
 30
0.0
 10
61.153477
 20
243.444811
 30
0.0
 10
61.119097
 20
243.406331
 30
0.0
 10
61.088237
 20
243.365171
 30
0.0
 10
61.061037
 20
243.321601
 30
0.0
 10
61.037657
 20
243.275861
 30
0.0
 10
61.018237
 20
243.228231
 30
0.0
 10
61.002917
 20
243.178951
 30
0.0
 10
60.991857
 20
243.128301
 30
0.0
 10
60.985157
 20
243.076531
 30
0.0
 10
60.983057
 20
243.023901
 30
0.0
 10
60.985657
 20
242.970671
 30
0.0
 10
60.993057
 20
242.917101
 30
0.0
  0
LWPOLYLINE
  5
11c
100
AcDbEntity
  8
Layer_1
 62
7
100
AcDbPolyline
 90
17
 70
0
 10
61.070217
 20
242.430023
 30
0.0
 10
61.066117
 20
242.460573
 30
0.0
 10
61.061917
 20
242.491113
 30
0.0
 10
61.057617
 20
242.521633
 30
0.0
 10
61.053217
 20
242.552143
 30
0.0
 10
61.048717
 20
242.582643
 30
0.0
 10
61.044117
 20
242.613123
 30
0.0
 10
61.039417
 20
242.643593
 30
0.0
 10
61.034717
 20
242.674043
 30
0.0
 10
61.029817
 20
242.704483
 30
0.0
 10
61.024917
 20
242.734903
 30
0.0
 10
61.019917
 20
242.765303
 30
0.0
 10
61.014717
 20
242.795693
 30
0.0
 10
61.009417
 20
242.826063
 30
0.0
 10
61.004117
 20
242.856423
 30
0.0
 10
60.998617
 20
242.886763
 30
0.0
 10
60.993117
 20
242.917083
 30
0.0
  0
LWPOLYLINE
  5
11d
100
AcDbEntity
  8
Layer_1
 62
7
100
AcDbPolyline
 90
33
 70
0
 10
61.070217
 20
242.430023
 30
0.0
 10
61.079717
 20
242.376773
 30
0.0
 10
61.093707
 20
242.325353
 30
0.0
 10
61.111987
 20
242.275953
 30
0.0
 10
61.134317
 20
242.228773
 30
0.0
 10
61.160487
 20
242.184013
 30
0.0
 10
61.190287
 20
242.141883
 30
0.0
 10
61.223477
 20
242.102583
 30
0.0
 10
61.259857
 20
242.066313
 30
0.0
 10
61.299187
 20
242.033273
 30
0.0
 10
61.341257
 20
242.003663
 30
0.0
 10
61.385847
 20
241.977693
 30
0.0
 10
61.432727
 20
241.955563
 30
0.0
 10
61.481687
 20
241.937463
 30
0.0
 10
61.532507
 20
241.923613
 30
0.0
 10
61.584967
 20
241.914213
 30
0.0
 10
61.638837
 20
241.909413
 30
0.0
 10
61.869603
 20
241.899367
 30
0.0
 10
62.100358
 20
241.889287
 30
0.0
 10
62.331114
 20
241.879207
 30
0.0
 10
62.561869
 20
241.869127
 30
0.0
 10
62.792625
 20
241.859047
 30
0.0
 10
63.023381
 20
241.848967
 30
0.0
 10
63.254136
 20
241.838887
 30
0.0
 10
63.484892
 20
241.828807
 30
0.0
 10
63.715648
 20
241.818727
 30
0.0
 10
63.946403
 20
241.808647
 30
0.0
 10
64.177159
 20
241.798567
 30
0.0
 10
64.407914
 20
241.788487
 30
0.0
 10
64.638670
 20
241.778407
 30
0.0
 10
64.869426
 20
241.768327
 30
0.0
 10
65.100181
 20
241.758247
 30
0.0
 10
65.330937
 20
241.748167
 30
0.0
  0
LWPOLYLINE
  5
11e
100
AcDbEntity
  8
Layer_1
 62
7
100
AcDbPolyline
 90
17
 70
0
 10
65.330937
 20
240.549380
 30
0.0
 10
65.465421
 20
240.567990
 30
0.0
 10
65.581976
 20
240.609120
 30
0.0
 10
65.680596
 20
240.669570
 30
0.0
 10
65.761286
 20
240.746110
 30
0.0
 10
65.824046
 20
240.835520
 30
0.0
 10
65.868876
 20
240.934590
 30
0.0
 10
65.895776
 20
241.040094
 30
0.0
 10
65.904776
 20
241.148815
 30
0.0
 10
65.895776
 20
241.257537
 30
0.0
 10
65.868876
 20
241.363040
 30
0.0
 10
65.824046
 20
241.462110
 30
0.0
 10
65.761286
 20
241.551520
 30
0.0
 10
65.680596
 20
241.628060
 30
0.0
 10
65.581976
 20
241.688510
 30
0.0
 10
65.465420
 20
241.729650
 30
0.0
 10
65.330937
 20
241.748250
 30
0.0
  0
LWPOLYLINE
  5
11f
100
AcDbEntity
  8
Layer_1
 62
7
100
AcDbPolyline
 90
33
 70
0
 10
65.330937
 20
240.549380
 30
0.0
 10
65.100181
 20
240.539300
 30
0.0
 10
64.869426
 20
240.529220
 30
0.0
 10
64.638670
 20
240.519140
 30
0.0
 10
64.407915
 20
240.509060
 30
0.0
 10
64.177159
 20
240.498980
 30
0.0
 10
63.946403
 20
240.488910
 30
0.0
 10
63.715648
 20
240.478830
 30
0.0
 10
63.484892
 20
240.468750
 30
0.0
 10
63.254136
 20
240.458670
 30
0.0
 10
63.023381
 20
240.448590
 30
0.0
 10
62.792625
 20
240.438510
 30
0.0
 10
62.561869
 20
240.428430
 30
0.0
 10
62.331114
 20
240.418350
 30
0.0
 10
62.100358
 20
240.408270
 30
0.0
 10
61.869603
 20
240.398190
 30
0.0
 10
61.638847
 20
240.388110
 30
0.0
 10
61.584977
 20
240.383380
 30
0.0
 10
61.532527
 20
240.373980
 30
0.0
 10
61.481707
 20
240.360120
 30
0.0
 10
61.432747
 20
240.342030
 30
0.0
 10
61.385867
 20
240.319900
 30
0.0
 10
61.341277
 20
240.293930
 30
0.0
 10
61.299207
 20
240.264320
 30
0.0
 10
61.259877
 20
240.231270
 30
0.0
 10
61.223507
 20
240.195000
 30
0.0
 10
61.190317
 20
240.155700
 30
0.0
 10
61.160517
 20
240.113570
 30
0.0
 10
61.134347
 20
240.068810
 30
0.0
 10
61.112017
 20
240.021630
 30
0.0
 10
61.093737
 20
239.972230
 30
0.0
 10
61.079737
 20
239.920810
 30
0.0
 10
61.070237
 20
239.867570
 30
0.0
  0
LWPOLYLINE
  5
120
100
AcDbEntity
  8
Layer_1
 62
7
100
AcDbPolyline
 90
17
 70
0
 10
60.993077
 20
239.380525
 30
0.0
 10
60.998577
 20
239.410845
 30
0.0
 10
61.003977
 20
239.441185
 30
0.0
 10
61.009277
 20
239.471545
 30
0.0
 10
61.014577
 20
239.501915
 30
0.0
 10
61.019777
 20
239.532305
 30
0.0
 10
61.024777
 20
239.562705
 30
0.0
 10
61.029677
 20
239.593125
 30
0.0
 10
61.034577
 20
239.623565
 30
0.0
 10
61.039377
 20
239.654015
 30
0.0
 10
61.043977
 20
239.684485
 30
0.0
 10
61.048577
 20
239.714975
 30
0.0
 10
61.053077
 20
239.745465
 30
0.0
 10
61.057477
 20
239.775975
 30
0.0
 10
61.061777
 20
239.806495
 30
0.0
 10
61.065977
 20
239.837035
 30
0.0
 10
61.070077
 20
239.867585
 30
0.0
  0
LWPOLYLINE
  5
121
100
AcDbEntity
  8
Layer_1
 62
7
100
AcDbPolyline
 90
17
 70
0
 10
60.993077
 20
239.380525
 30
0.0
 10
60.985677
 20
239.326955
 30
0.0
 10
60.983077
 20
239.273725
 30
0.0
 10
60.985277
 20
239.221095
 30
0.0
 10
60.991977
 20
239.169325
 30
0.0
 10
61.003037
 20
239.118675
 30
0.0
 10
61.018357
 20
239.069395
 30
0.0
 10
61.037777
 20
239.021765
 30
0.0
 10
61.061167
 20
238.976025
 30
0.0
 10
61.088367
 20
238.932445
 30
0.0
 10
61.119227
 20
238.891295
 30
0.0
 10
61.153607
 20
238.852815
 30
0.0
 10
61.191357
 20
238.817275
 30
0.0
 10
61.232327
 20
238.784935
 30
0.0
 10
61.276387
 20
238.756055
 30
0.0
 10
61.323367
 20
238.730895
 30
0.0
 10
61.373127
 20
238.709705
 30
0.0
  0
LWPOLYLINE
  5
122
100
AcDbEntity
  8
Layer_1
 62
7
100
AcDbPolyline
 90
17
 70
0
 10
61.372997
 20
238.709706
 30
0.0
 10
61.589346
 20
238.628816
 30
0.0
 10
61.805695
 20
238.547926
 30
0.0
 10
62.022043
 20
238.467036
 30
0.0
 10
62.238392
 20
238.386146
 30
0.0
 10
62.454741
 20
238.305256
 30
0.0
 10
62.671089
 20
238.224366
 30
0.0
 10
62.887438
 20
238.143476
 30
0.0
 10
63.103787
 20
238.062586
 30
0.0
 10
63.320136
 20
237.981696
 30
0.0
 10
63.536484
 20
237.900806
 30
0.0
 10
63.752833
 20
237.819916
 30
0.0
 10
63.969182
 20
237.739026
 30
0.0
 10
64.185531
 20
237.658136
 30
0.0
 10
64.401880
 20
237.577246
 30
0.0
 10
64.618228
 20
237.496356
 30
0.0
 10
64.834577
 20
237.415466
 30
0.0
  0
LWPOLYLINE
  5
123
100
AcDbEntity
  8
Layer_1
 62
7
100
AcDbPolyline
 90
17
 70
0
 10
64.464107
 20
236.275293
 30
0.0
 10
64.597766
 20
236.251423
 30
0.0
 10
64.721332
 20
236.254523
 30
0.0
 10
64.833811
 20
236.281533
 30
0.0
 10
64.934210
 20
236.329383
 30
0.0
 10
65.021530
 20
236.395023
 30
0.0
 10
65.094780
 20
236.475393
 30
0.0
 10
65.152960
 20
236.567423
 30
0.0
 10
65.195090
 20
236.668056
 30
0.0
 10
65.220160
 20
236.774232
 30
0.0
 10
65.227160
 20
236.882887
 30
0.0
 10
65.215140
 20
236.990960
 30
0.0
 10
65.183080
 20
237.095393
 30
0.0
 10
65.129990
 20
237.193123
 30
0.0
 10
65.054870
 20
237.281083
 30
0.0
 10
64.956720
 20
237.356223
 30
0.0
 10
64.834559
 20
237.415473
 30
0.0
  0
LWPOLYLINE
  5
124
100
AcDbEntity
  8
Layer_1
 62
7
100
AcDbPolyline
 90
33
 70
0
 10
64.464107
 20
236.275293
 30
0.0
 10
64.241532
 20
236.337023
 30
0.0
 10
64.018957
 20
236.398753
 30
0.0
 10
63.796382
 20
236.460483
 30
0.0
 10
63.573807
 20
236.522213
 30
0.0
 10
63.351232
 20
236.583943
 30
0.0
 10
63.128657
 20
236.645673
 30
0.0
 10
62.906082
 20
236.707403
 30
0.0
 10
62.683507
 20
236.769133
 30
0.0
 10
62.460932
 20
236.830863
 30
0.0
 10
62.238357
 20
236.892593
 30
0.0
 10
62.015782
 20
236.954323
 30
0.0
 10
61.793207
 20
237.016043
 30
0.0
 10
61.570632
 20
237.077773
 30
0.0
 10
61.348057
 20
237.139503
 30
0.0
 10
61.125482
 20
237.201233
 30
0.0
 10
60.902907
 20
237.262963
 30
0.0
 10
60.850197
 20
237.275003
 30
0.0
 10
60.797397
 20
237.282303
 30
0.0
 10
60.744787
 20
237.284803
 30
0.0
 10
60.692627
 20
237.282703
 30
0.0
 10
60.641197
 20
237.276103
 30
0.0
 10
60.590767
 20
237.265173
 30
0.0
 10
60.541607
 20
237.250023
 30
0.0
 10
60.493987
 20
237.230753
 30
0.0
 10
60.448187
 20
237.207503
 30
0.0
 10
60.404467
 20
237.180383
 30
0.0
 10
60.363107
 20
237.149523
 30
0.0
 10
60.324387
 20
237.115053
 30
0.0
 10
60.288567
 20
237.077083
 30
0.0
 10
60.255917
 20
237.035743
 30
0.0
 10
60.226717
 20
236.991163
 30
0.0
 10
60.201237
 20
236.943463
 30
0.0
  0
LWPOLYLINE
  5
125
100
AcDbEntity
  8
Layer_1
 62
7
100
AcDbPolyline
 90
17
 70
0
 10
59.977357
 20
236.504121
 30
0.0
 10
59.992007
 20
236.531251
 30
0.0
 10
60.006567
 20
236.558421
 30
0.0
 10
60.021037
 20
236.585641
 30
0.0
 10
60.035417
 20
236.612901
 30
0.0
 10
60.049717
 20
236.640211
 30
0.0
 10
60.063927
 20
236.667561
 30
0.0
 10
60.078047
 20
236.694951
 30
0.0
 10
60.092087
 20
236.722401
 30
0.0
 10
60.106037
 20
236.749881
 30
0.0
 10
60.119897
 20
236.777421
 30
0.0
 10
60.133677
 20
236.805001
 30
0.0
 10
60.147367
 20
236.832611
 30
0.0
 10
60.160977
 20
236.860271
 30
0.0
 10
60.174487
 20
236.887981
 30
0.0
 10
60.187917
 20
236.915731
 30
0.0
 10
60.201257
 20
236.943521
 30
0.0
  0
LWPOLYLINE
  5
126
100
AcDbEntity
  8
Layer_1
 62
7
100
AcDbPolyline
 90
33
 70
0
 10
59.977357
 20
236.504121
 30
0.0
 10
59.953747
 20
236.455471
 30
0.0
 10
59.934847
 20
236.405651
 30
0.0
 10
59.920597
 20
236.354941
 30
0.0
 10
59.910897
 20
236.303651
 30
0.0
 10
59.905797
 20
236.252061
 30
0.0
 10
59.905117
 20
236.200461
 30
0.0
 10
59.908817
 20
236.149161
 30
0.0
 10
59.916917
 20
236.098431
 30
0.0
 10
59.929327
 20
236.048581
 30
0.0
 10
59.945957
 20
235.999901
 30
0.0
 10
59.966767
 20
235.952681
 30
0.0
 10
59.991687
 20
235.907221
 30
0.0
 10
60.020667
 20
235.863801
 30
0.0
 10
60.053637
 20
235.822721
 30
0.0
 10
60.090547
 20
235.784271
 30
0.0
 10
60.131327
 20
235.748751
 30
0.0
 10
60.312161
 20
235.604944
 30
0.0
 10
60.492924
 20
235.461159
 30
0.0
 10
60.673688
 20
235.317373
 30
0.0
 10
60.854452
 20
235.173587
 30
0.0
 10
61.035216
 20
235.029802
 30
0.0
 10
61.215980
 20
234.886016
 30
0.0
 10
61.396743
 20
234.742230
 30
0.0
 10
61.577507
 20
234.598444
 30
0.0
 10
61.758271
 20
234.454659
 30
0.0
 10
61.939035
 20
234.310873
 30
0.0
 10
62.119798
 20
234.167087
 30
0.0
 10
62.300562
 20
234.023302
 30
0.0
 10
62.481326
 20
233.879516
 30
0.0
 10
62.662089
 20
233.735730
 30
0.0
 10
62.842853
 20
233.591945
 30
0.0
 10
63.023617
 20
233.448159
 30
0.0
  0
LWPOLYLINE
  5
127
100
AcDbEntity
  8
Layer_1
 62
7
100
AcDbPolyline
 90
17
 70
0
 10
62.318937
 20
232.478263
 30
0.0
 10
62.438681
 20
232.414243
 30
0.0
 10
62.557161
 20
232.378993
 30
0.0
 10
62.672484
 20
232.369893
 30
0.0
 10
62.782764
 20
232.384373
 30
0.0
 10
62.886103
 20
232.419813
 30
0.0
 10
62.980603
 20
232.473613
 30
0.0
 10
63.064383
 20
232.543163
 30
0.0
 10
63.135553
 20
232.625863
 30
0.0
 10
63.192203
 20
232.719093
 30
0.0
 10
63.232463
 20
232.820267
 30
0.0
 10
63.254423
 20
232.926774
 30
0.0
 10
63.256223
 20
233.036005
 30
0.0
 10
63.235923
 20
233.145362
 30
0.0
 10
63.191653
 20
233.252238
 30
0.0
 10
63.121523
 20
233.354027
 30
0.0
 10
63.023633
 20
233.448127
 30
0.0
  0
LWPOLYLINE
  5
128
100
AcDbEntity
  8
Layer_1
 62
7
100
AcDbPolyline
 90
33
 70
0
 10
62.318937
 20
232.478263
 30
0.0
 10
62.126330
 20
232.605747
 30
0.0
 10
61.933723
 20
232.733231
 30
0.0
 10
61.741116
 20
232.860715
 30
0.0
 10
61.548510
 20
232.988198
 30
0.0
 10
61.355903
 20
233.115682
 30
0.0
 10
61.163296
 20
233.243166
 30
0.0
 10
60.970689
 20
233.370650
 30
0.0
 10
60.778082
 20
233.498134
 30
0.0
 10
60.585475
 20
233.625618
 30
0.0
 10
60.392868
 20
233.753102
 30
0.0
 10
60.200261
 20
233.880586
 30
0.0
 10
60.007654
 20
234.008069
 30
0.0
 10
59.815048
 20
234.135553
 30
0.0
 10
59.622441
 20
234.263037
 30
0.0
 10
59.429834
 20
234.390521
 30
0.0
 10
59.237227
 20
234.518005
 30
0.0
 10
59.190847
 20
234.545815
 30
0.0
 10
59.142867
 20
234.569035
 30
0.0
 10
59.093607
 20
234.587695
 30
0.0
 10
59.043357
 20
234.601835
 30
0.0
 10
58.992417
 20
234.611435
 30
0.0
 10
58.941077
 20
234.616635
 30
0.0
 10
58.889637
 20
234.617406
 30
0.0
 10
58.838397
 20
234.613806
 30
0.0
 10
58.787647
 20
234.605906
 30
0.0
 10
58.737697
 20
234.593596
 30
0.0
 10
58.688837
 20
234.577026
 30
0.0
 10
58.641347
 20
234.556206
 30
0.0
 10
58.595547
 20
234.531166
 30
0.0
 10
58.551727
 20
234.501936
 30
0.0
 10
58.510187
 20
234.468556
 30
0.0
 10
58.471207
 20
234.431066
 30
0.0
  0
LWPOLYLINE
  5
129
100
AcDbEntity
  8
Layer_1
 62
7
100
AcDbPolyline
 90
17
 70
0
 10
58.122507
 20
234.082371
 30
0.0
 10
58.144817
 20
234.103651
 30
0.0
 10
58.167057
 20
234.124991
 30
0.0
 10
58.189227
 20
234.146401
 30
0.0
 10
58.211327
 20
234.167891
 30
0.0
 10
58.233357
 20
234.189441
 30
0.0
 10
58.255327
 20
234.211071
 30
0.0
 10
58.277227
 20
234.232761
 30
0.0
 10
58.299057
 20
234.254521
 30
0.0
 10
58.320817
 20
234.276351
 30
0.0
 10
58.342507
 20
234.298251
 30
0.0
 10
58.364127
 20
234.320221
 30
0.0
 10
58.385687
 20
234.342251
 30
0.0
 10
58.407167
 20
234.364351
 30
0.0
 10
58.428587
 20
234.386531
 30
0.0
 10
58.449927
 20
234.408771
 30
0.0
 10
58.471207
 20
234.431081
 30
0.0
  0
LWPOLYLINE
  5
12a
100
AcDbEntity
  8
Layer_1
 62
7
100
AcDbPolyline
 90
33
 70
0
 10
58.122507
 20
234.082371
 30
0.0
 10
58.085017
 20
234.043391
 30
0.0
 10
58.051637
 20
234.001841
 30
0.0
 10
58.022417
 20
233.958021
 30
0.0
 10
57.997377
 20
233.912211
 30
0.0
 10
57.976557
 20
233.864721
 30
0.0
 10
57.959987
 20
233.815861
 30
0.0
 10
57.947707
 20
233.765911
 30
0.0
 10
57.939707
 20
233.715161
 30
0.0
 10
57.936107
 20
233.663921
 30
0.0
 10
57.936905
 20
233.612491
 30
0.0
 10
57.942105
 20
233.561151
 30
0.0
 10
57.951805
 20
233.510211
 30
0.0
 10
57.965955
 20
233.459971
 30
0.0
 10
57.984615
 20
233.410711
 30
0.0
 10
58.007835
 20
233.362741
 30
0.0
 10
58.035645
 20
233.316361
 30
0.0
 10
58.163051
 20
233.123745
 30
0.0
 10
58.290536
 20
232.931137
 30
0.0
 10
58.418020
 20
232.738530
 30
0.0
 10
58.545504
 20
232.545922
 30
0.0
 10
58.672989
 20
232.353315
 30
0.0
 10
58.800473
 20
232.160707
 30
0.0
 10
58.927958
 20
231.968100
 30
0.0
 10
59.055442
 20
231.775492
 30
0.0
 10
59.182926
 20
231.582885
 30
0.0
 10
59.310411
 20
231.390278
 30
0.0
 10
59.437895
 20
231.197670
 30
0.0
 10
59.565380
 20
231.005063
 30
0.0
 10
59.692864
 20
230.812455
 30
0.0
 10
59.820348
 20
230.619848
 30
0.0
 10
59.947833
 20
230.427240
 30
0.0
 10
60.075317
 20
230.234633
 30
0.0
  0
LWPOLYLINE
  5
12b
100
AcDbEntity
  8
Layer_1
 62
7
100
AcDbPolyline
 90
17
 70
0
 10
59.105417
 20
229.529963
 30
0.0
 10
59.199517
 20
229.432083
 30
0.0
 10
59.301306
 20
229.361953
 30
0.0
 10
59.408178
 20
229.317683
 30
0.0
 10
59.517534
 20
229.297383
 30
0.0
 10
59.626764
 20
229.299183
 30
0.0
 10
59.733265
 20
229.321143
 30
0.0
 10
59.834435
 20
229.361393
 30
0.0
 10
59.927665
 20
229.418053
 30
0.0
 10
60.010355
 20
229.489213
 30
0.0
 10
60.079905
 20
229.572993
 30
0.0
 10
60.133705
 20
229.667493
 30
0.0
 10
60.169145
 20
229.770827
 30
0.0
 10
60.183635
 20
229.881100
 30
0.0
 10
60.174535
 20
229.996423
 30
0.0
 10
60.139285
 20
230.114898
 30
0.0
 10
60.075285
 20
230.234642
 30
0.0
  0
LWPOLYLINE
  5
12c
100
AcDbEntity
  8
Layer_1
 62
7
100
AcDbPolyline
 90
33
 70
0
 10
59.105417
 20
229.529963
 30
0.0
 10
58.961631
 20
229.710726
 30
0.0
 10
58.817845
 20
229.891490
 30
0.0
 10
58.674059
 20
230.072253
 30
0.0
 10
58.530273
 20
230.253017
 30
0.0
 10
58.386488
 20
230.433780
 30
0.0
 10
58.242702
 20
230.614544
 30
0.0
 10
58.098916
 20
230.795307
 30
0.0
 10
57.955130
 20
230.976071
 30
0.0
 10
57.811344
 20
231.156834
 30
0.0
 10
57.667558
 20
231.337598
 30
0.0
 10
57.523772
 20
231.518361
 30
0.0
 10
57.379986
 20
231.699125
 30
0.0
 10
57.236201
 20
231.879888
 30
0.0
 10
57.092415
 20
232.060652
 30
0.0
 10
56.948629
 20
232.241415
 30
0.0
 10
56.804843
 20
232.422179
 30
0.0
 10
56.769323
 20
232.462959
 30
0.0
 10
56.730873
 20
232.499859
 30
0.0
 10
56.689793
 20
232.532829
 30
0.0
 10
56.646373
 20
232.561799
 30
0.0
 10
56.600913
 20
232.586719
 30
0.0
 10
56.553693
 20
232.607529
 30
0.0
 10
56.505013
 20
232.624159
 30
0.0
 10
56.455163
 20
232.636559
 30
0.0
 10
56.404443
 20
232.644659
 30
0.0
 10
56.353133
 20
232.648459
 30
0.0
 10
56.301543
 20
232.647800
 30
0.0
 10
56.249953
 20
232.642700
 30
0.0
 10
56.198653
 20
232.633000
 30
0.0
 10
56.147943
 20
232.618760
 30
0.0
 10
56.098123
 20
232.599860
 30
0.0
 10
56.049463
 20
232.576240
 30
0.0
  0
LWPOLYLINE
  5
12d
100
AcDbEntity
  8
Layer_1
 62
7
100
AcDbPolyline
 90
17
 70
0
 10
55.610063
 20
232.352332
 30
0.0
 10
55.637853
 20
232.365682
 30
0.0
 10
55.665603
 20
232.379102
 30
0.0
 10
55.693313
 20
232.392612
 30
0.0
 10
55.720973
 20
232.406212
 30
0.0
 10
55.748593
 20
232.419902
 30
0.0
 10
55.776163
 20
232.433682
 30
0.0
 10
55.803693
 20
232.447542
 30
0.0
 10
55.831183
 20
232.461492
 30
0.0
 10
55.858623
 20
232.475532
 30
0.0
 10
55.886023
 20
232.489652
 30
0.0
 10
55.913373
 20
232.503862
 30
0.0
 10
55.940683
 20
232.518162
 30
0.0
 10
55.967953
 20
232.532552
 30
0.0
 10
55.995163
 20
232.547012
 30
0.0
 10
56.022343
 20
232.561572
 30
0.0
 10
56.049463
 20
232.576212
 30
0.0
  0
LWPOLYLINE
  5
12e
100
AcDbEntity
  8
Layer_1
 62
7
100
AcDbPolyline
 90
17
 70
0
 10
55.610063
 20
232.352332
 30
0.0
 10
55.562363
 20
232.326852
 30
0.0
 10
55.517783
 20
232.297652
 30
0.0
 10
55.476443
 20
232.265002
 30
0.0
 10
55.438483
 20
232.229182
 30
0.0
 10
55.404013
 20
232.190462
 30
0.0
 10
55.373153
 20
232.149102
 30
0.0
 10
55.346033
 20
232.105382
 30
0.0
 10
55.322773
 20
232.059582
 30
0.0
 10
55.303503
 20
232.011962
 30
0.0
 10
55.288353
 20
231.962802
 30
0.0
 10
55.277433
 20
231.912372
 30
0.0
 10
55.270833
 20
231.860942
 30
0.0
 10
55.268733
 20
231.808782
 30
0.0
 10
55.271233
 20
231.756162
 30
0.0
 10
55.278433
 20
231.703362
 30
0.0
 10
55.290563
 20
231.650652
 30
0.0
  0
LWPOLYLINE
  5
12f
100
AcDbEntity
  8
Layer_1
 62
7
100
AcDbPolyline
 90
17
 70
0
 10
55.290673
 20
231.650668
 30
0.0
 10
55.352403
 20
231.428093
 30
0.0
 10
55.414133
 20
231.205518
 30
0.0
 10
55.475863
 20
230.982943
 30
0.0
 10
55.537593
 20
230.760367
 30
0.0
 10
55.599313
 20
230.537792
 30
0.0
 10
55.661043
 20
230.315217
 30
0.0
 10
55.722773
 20
230.092642
 30
0.0
 10
55.784503
 20
229.870067
 30
0.0
 10
55.846233
 20
229.647492
 30
0.0
 10
55.907963
 20
229.424917
 30
0.0
 10
55.969693
 20
229.202342
 30
0.0
 10
56.031413
 20
228.979766
 30
0.0
 10
56.093143
 20
228.757191
 30
0.0
 10
56.154873
 20
228.534616
 30
0.0
 10
56.216603
 20
228.312041
 30
0.0
 10
56.278333
 20
228.089466
 30
0.0
  0
LWPOLYLINE
  5
130
100
AcDbEntity
  8
Layer_1
 62
7
100
AcDbPolyline
 90
17
 70
0
 10
55.138093
 20
227.718998
 30
0.0
 10
55.197333
 20
227.596811
 30
0.0
 10
55.272463
 20
227.498651
 30
0.0
 10
55.360423
 20
227.423511
 30
0.0
 10
55.458153
 20
227.370411
 30
0.0
 10
55.562591
 20
227.338341
 30
0.0
 10
55.670675
 20
227.326311
 30
0.0
 10
55.779340
 20
227.333311
 30
0.0
 10
55.885525
 20
227.358371
 30
0.0
 10
55.986169
 20
227.400491
 30
0.0
 10
56.078209
 20
227.458691
 30
0.0
 10
56.158579
 20
227.531951
 30
0.0
 10
56.224219
 20
227.619281
 30
0.0
 10
56.272069
 20
227.719690
 30
0.0
 10
56.299069
 20
227.832182
 30
0.0
 10
56.302169
 20
227.955761
 30
0.0
 10
56.278269
 20
228.089433
 30
0.0
  0
LWPOLYLINE
  5
131
100
AcDbEntity
  8
Layer_1
 62
7
100
AcDbPolyline
 90
33
 70
0
 10
55.138093
 20
227.718998
 30
0.0
 10
55.057203
 20
227.935346
 30
0.0
 10
54.976313
 20
228.151695
 30
0.0
 10
54.895423
 20
228.368043
 30
0.0
 10
54.814533
 20
228.584392
 30
0.0
 10
54.733643
 20
228.800740
 30
0.0
 10
54.652753
 20
229.017089
 30
0.0
 10
54.571863
 20
229.233437
 30
0.0
 10
54.490973
 20
229.449786
 30
0.0
 10
54.410083
 20
229.666134
 30
0.0
 10
54.329193
 20
229.882483
 30
0.0
 10
54.248303
 20
230.098831
 30
0.0
 10
54.167413
 20
230.315180
 30
0.0
 10
54.086523
 20
230.531528
 30
0.0
 10
54.005633
 20
230.747877
 30
0.0
 10
53.924743
 20
230.964225
 30
0.0
 10
53.843853
 20
231.180574
 30
0.0
 10
53.822683
 20
231.230334
 30
0.0
 10
53.797513
 20
231.277314
 30
0.0
 10
53.768633
 20
231.321364
 30
0.0
 10
53.736293
 20
231.362344
 30
0.0
 10
53.700753
 20
231.400094
 30
0.0
 10
53.662273
 20
231.434474
 30
0.0
 10
53.621113
 20
231.465334
 30
0.0
 10
53.577543
 20
231.492534
 30
0.0
 10
53.531803
 20
231.515924
 30
0.0
 10
53.484173
 20
231.535344
 30
0.0
 10
53.434893
 20
231.550664
 30
0.0
 10
53.384243
 20
231.561724
 30
0.0
 10
53.332473
 20
231.568424
 30
0.0
 10
53.279843
 20
231.570524
 30
0.0
 10
53.226613
 20
231.567924
 30
0.0
 10
53.173043
 20
231.560524
 30
0.0
  0
LWPOLYLINE
  5
132
100
AcDbEntity
  8
Layer_1
 62
7
100
AcDbPolyline
 90
17
 70
0
 10
52.685973
 20
231.483356
 30
0.0
 10
52.716523
 20
231.487456
 30
0.0
 10
52.747063
 20
231.491656
 30
0.0
 10
52.777583
 20
231.495956
 30
0.0
 10
52.808093
 20
231.500356
 30
0.0
 10
52.838593
 20
231.504856
 30
0.0
 10
52.869073
 20
231.509456
 30
0.0
 10
52.899543
 20
231.514156
 30
0.0
 10
52.929993
 20
231.518956
 30
0.0
 10
52.960423
 20
231.523856
 30
0.0
 10
52.990853
 20
231.528756
 30
0.0
 10
53.021253
 20
231.533756
 30
0.0
 10
53.051643
 20
231.538956
 30
0.0
 10
53.082013
 20
231.544256
 30
0.0
 10
53.112373
 20
231.549556
 30
0.0
 10
53.142713
 20
231.555056
 30
0.0
 10
53.173033
 20
231.560556
 30
0.0
  0
LWPOLYLINE
  5
133
100
AcDbEntity
  8
Layer_1
 62
7
100
AcDbPolyline
 90
33
 70
0
 10
52.685973
 20
231.483356
 30
0.0
 10
52.632733
 20
231.473856
 30
0.0
 10
52.581313
 20
231.459866
 30
0.0
 10
52.531913
 20
231.441586
 30
0.0
 10
52.484733
 20
231.419256
 30
0.0
 10
52.439973
 20
231.393076
 30
0.0
 10
52.397853
 20
231.363286
 30
0.0
 10
52.358553
 20
231.330086
 30
0.0
 10
52.322283
 20
231.293716
 30
0.0
 10
52.289243
 20
231.254386
 30
0.0
 10
52.259643
 20
231.212316
 30
0.0
 10
52.233673
 20
231.167726
 30
0.0
 10
52.211543
 20
231.120846
 30
0.0
 10
52.193453
 20
231.071886
 30
0.0
 10
52.179593
 20
231.021066
 30
0.0
 10
52.170193
 20
230.968606
 30
0.0
 10
52.165393
 20
230.914736
 30
0.0
 10
52.155313
 20
230.683973
 30
0.0
 10
52.145233
 20
230.453218
 30
0.0
 10
52.135153
 20
230.222462
 30
0.0
 10
52.125073
 20
229.991706
 30
0.0
 10
52.114993
 20
229.760951
 30
0.0
 10
52.104913
 20
229.530195
 30
0.0
 10
52.094833
 20
229.299439
 30
0.0
 10
52.084753
 20
229.068683
 30
0.0
 10
52.074673
 20
228.837928
 30
0.0
 10
52.064593
 20
228.607172
 30
0.0
 10
52.054523
 20
228.376416
 30
0.0
 10
52.044443
 20
228.145661
 30
0.0
 10
52.034363
 20
227.914905
 30
0.0
 10
52.024283
 20
227.684149
 30
0.0
 10
52.014203
 20
227.453394
 30
0.0
 10
52.004123
 20
227.222638
 30
0.0
  0
LWPOLYLINE
  5
134
100
AcDbEntity
  8
Layer_1
 62
7
100
AcDbPolyline
 90
17
 70
0
 10
50.805333
 20
227.222638
 30
0.0
 10
50.823943
 20
227.088143
 30
0.0
 10
50.865063
 20
226.971579
 30
0.0
 10
50.925513
 20
226.872949
 30
0.0
 10
51.002053
 20
226.792249
 30
0.0
 10
51.091463
 20
226.729479
 30
0.0
 10
51.190533
 20
226.684649
 30
0.0
 10
51.296042
 20
226.657749
 30
0.0
 10
51.404769
 20
226.648749
 30
0.0
 10
51.513495
 20
226.657749
 30
0.0
 10
51.619005
 20
226.684649
 30
0.0
 10
51.718075
 20
226.729479
 30
0.0
 10
51.807485
 20
226.792239
 30
0.0
 10
51.884025
 20
226.872939
 30
0.0
 10
51.944465
 20
226.971569
 30
0.0
 10
51.985595
 20
227.088132
 30
0.0
 10
52.004195
 20
227.222628
 30
0.0
  0
LWPOLYLINE
  5
135
100
AcDbEntity
  8
Layer_1
 62
7
100
AcDbPolyline
 90
33
 70
0
 10
50.805333
 20
227.222638
 30
0.0
 10
50.795253
 20
227.453394
 30
0.0
 10
50.785183
 20
227.684149
 30
0.0
 10
50.775103
 20
227.914905
 30
0.0
 10
50.765023
 20
228.145661
 30
0.0
 10
50.754943
 20
228.376416
 30
0.0
 10
50.744863
 20
228.607172
 30
0.0
 10
50.734783
 20
228.837928
 30
0.0
 10
50.724703
 20
229.068683
 30
0.0
 10
50.714623
 20
229.299439
 30
0.0
 10
50.704543
 20
229.530195
 30
0.0
 10
50.694463
 20
229.760951
 30
0.0
 10
50.684383
 20
229.991706
 30
0.0
 10
50.674303
 20
230.222462
 30
0.0
 10
50.664223
 20
230.453218
 30
0.0
 10
50.654143
 20
230.683973
 30
0.0
 10
50.644063
 20
230.914729
 30
0.0
 10
50.639333
 20
230.968599
 30
0.0
 10
50.629933
 20
231.021049
 30
0.0
 10
50.616073
 20
231.071869
 30
0.0
 10
50.597983
 20
231.120829
 30
0.0
 10
50.575853
 20
231.167709
 30
0.0
 10
50.549883
 20
231.212299
 30
0.0
 10
50.520283
 20
231.254369
 30
0.0
 10
50.487243
 20
231.293699
 30
0.0
 10
50.450973
 20
231.330079
 30
0.0
 10
50.411673
 20
231.363269
 30
0.0
 10
50.369543
 20
231.393069
 30
0.0
 10
50.324793
 20
231.419239
 30
0.0
 10
50.277613
 20
231.441579
 30
0.0
 10
50.228213
 20
231.459849
 30
0.0
 10
50.176793
 20
231.473839
 30
0.0
 10
50.123553
 20
231.483339
 30
0.0
  0
LWPOLYLINE
  5
136
100
AcDbEntity
  8
Layer_1
 62
7
100
AcDbPolyline
 90
17
 70
0
 10
49.636483
 20
231.560498
 30
0.0
 10
49.666803
 20
231.554998
 30
0.0
 10
49.697143
 20
231.549498
 30
0.0
 10
49.727503
 20
231.544198
 30
0.0
 10
49.757873
 20
231.538898
 30
0.0
 10
49.788263
 20
231.533698
 30
0.0
 10
49.818663
 20
231.528698
 30
0.0
 10
49.849083
 20
231.523798
 30
0.0
 10
49.879523
 20
231.518898
 30
0.0
 10
49.909973
 20
231.514098
 30
0.0
 10
49.940443
 20
231.509398
 30
0.0
 10
49.970923
 20
231.504798
 30
0.0
 10
50.001423
 20
231.500298
 30
0.0
 10
50.031933
 20
231.495898
 30
0.0
 10
50.062453
 20
231.491598
 30
0.0
 10
50.092993
 20
231.487398
 30
0.0
 10
50.123543
 20
231.483298
 30
0.0
  0
LWPOLYLINE
  5
137
100
AcDbEntity
  8
Layer_1
 62
7
100
AcDbPolyline
 90
33
 70
0
 10
49.636483
 20
231.560498
 30
0.0
 10
49.582913
 20
231.567898
 30
0.0
 10
49.529683
 20
231.570498
 30
0.0
 10
49.477053
 20
231.568398
 30
0.0
 10
49.425283
 20
231.561698
 30
0.0
 10
49.374633
 20
231.550638
 30
0.0
 10
49.325353
 20
231.535318
 30
0.0
 10
49.277723
 20
231.515898
 30
0.0
 10
49.231983
 20
231.492508
 30
0.0
 10
49.188403
 20
231.465308
 30
0.0
 10
49.147253
 20
231.434448
 30
0.0
 10
49.108773
 20
231.400068
 30
0.0
 10
49.073233
 20
231.362318
 30
0.0
 10
49.040893
 20
231.321348
 30
0.0
 10
49.012013
 20
231.277288
 30
0.0
 10
48.986853
 20
231.230308
 30
0.0
 10
48.965663
 20
231.180548
 30
0.0
 10
48.884773
 20
230.964225
 30
0.0
 10
48.803883
 20
230.747877
 30
0.0
 10
48.722993
 20
230.531528
 30
0.0
 10
48.642103
 20
230.315180
 30
0.0
 10
48.561213
 20
230.098831
 30
0.0
 10
48.480323
 20
229.882483
 30
0.0
 10
48.399433
 20
229.666134
 30
0.0
 10
48.318543
 20
229.449786
 30
0.0
 10
48.237653
 20
229.233437
 30
0.0
 10
48.156763
 20
229.017089
 30
0.0
 10
48.075873
 20
228.800740
 30
0.0
 10
47.994983
 20
228.584392
 30
0.0
 10
47.914093
 20
228.368043
 30
0.0
 10
47.833203
 20
228.151695
 30
0.0
 10
47.752313
 20
227.935346
 30
0.0
 10
47.671423
 20
227.718998
 30
0.0
  0
LWPOLYLINE
  5
138
100
AcDbEntity
  8
Layer_1
 62
7
100
AcDbPolyline
 90
17
 70
0
 10
46.531243
 20
228.089466
 30
0.0
 10
46.507353
 20
227.955793
 30
0.0
 10
46.510453
 20
227.832215
 30
0.0
 10
46.537453
 20
227.719723
 30
0.0
 10
46.585303
 20
227.619314
 30
0.0
 10
46.650943
 20
227.531984
 30
0.0
 10
46.731313
 20
227.458724
 30
0.0
 10
46.823353
 20
227.400534
 30
0.0
 10
46.923996
 20
227.358404
 30
0.0
 10
47.030180
 20
227.333334
 30
0.0
 10
47.138846
 20
227.326334
 30
0.0
 10
47.246929
 20
227.338364
 30
0.0
 10
47.351368
 20
227.370434
 30
0.0
 10
47.449098
 20
227.423544
 30
0.0
 10
47.537058
 20
227.498684
 30
0.0
 10
47.612198
 20
227.596844
 30
0.0
 10
47.671438
 20
227.719029
 30
0.0
  0
LWPOLYLINE
  5
139
100
AcDbEntity
  8
Layer_1
 62
7
100
AcDbPolyline
 90
33
 70
0
 10
46.531243
 20
228.089466
 30
0.0
 10
46.592973
 20
228.312041
 30
0.0
 10
46.654703
 20
228.534616
 30
0.0
 10
46.716433
 20
228.757191
 30
0.0
 10
46.778163
 20
228.979766
 30
0.0
 10
46.839893
 20
229.202342
 30
0.0
 10
46.901623
 20
229.424917
 30
0.0
 10
46.963353
 20
229.647492
 30
0.0
 10
47.025083
 20
229.870067
 30
0.0
 10
47.086813
 20
230.092642
 30
0.0
 10
47.148543
 20
230.315217
 30
0.0
 10
47.210273
 20
230.537792
 30
0.0
 10
47.272003
 20
230.760367
 30
0.0
 10
47.333733
 20
230.982943
 30
0.0
 10
47.395463
 20
231.205518
 30
0.0
 10
47.457193
 20
231.428093
 30
0.0
 10
47.518923
 20
231.650668
 30
0.0
 10
47.530963
 20
231.703378
 30
0.0
 10
47.538263
 20
231.756178
 30
0.0
 10
47.540763
 20
231.808788
 30
0.0
 10
47.538663
 20
231.860948
 30
0.0
 10
47.532063
 20
231.912378
 30
0.0
 10
47.521133
 20
231.962808
 30
0.0
 10
47.505983
 20
232.011968
 30
0.0
 10
47.486713
 20
232.059588
 30
0.0
 10
47.463453
 20
232.105388
 30
0.0
 10
47.436333
 20
232.149108
 30
0.0
 10
47.405473
 20
232.190468
 30
0.0
 10
47.370993
 20
232.229188
 30
0.0
 10
47.333023
 20
232.265008
 30
0.0
 10
47.291683
 20
232.297658
 30
0.0
 10
47.247103
 20
232.326858
 30
0.0
 10
47.199393
 20
232.352338
 30
0.0
  0
LWPOLYLINE
  5
13a
100
AcDbEntity
  8
Layer_1
 62
7
100
AcDbPolyline
 90
17
 70
0
 10
46.760073
 20
232.576214
 30
0.0
 10
46.787203
 20
232.561574
 30
0.0
 10
46.814373
 20
232.547014
 30
0.0
 10
46.841593
 20
232.532544
 30
0.0
 10
46.868853
 20
232.518164
 30
0.0
 10
46.896163
 20
232.503864
 30
0.0
 10
46.923513
 20
232.489654
 30
0.0
 10
46.950903
 20
232.475534
 30
0.0
 10
46.978353
 20
232.461494
 30
0.0
 10
47.005833
 20
232.447544
 30
0.0
 10
47.033373
 20
232.433684
 30
0.0
 10
47.060953
 20
232.419914
 30
0.0
 10
47.088563
 20
232.406224
 30
0.0
 10
47.116223
 20
232.392614
 30
0.0
 10
47.143933
 20
232.379104
 30
0.0
 10
47.171683
 20
232.365674
 30
0.0
 10
47.199473
 20
232.352334
 30
0.0
  0
LWPOLYLINE
  5
13b
100
AcDbEntity
  8
Layer_1
 62
7
100
AcDbPolyline
 90
17
 70
0
 10
46.760073
 20
232.576214
 30
0.0
 10
46.711423
 20
232.599834
 30
0.0
 10
46.661603
 20
232.618744
 30
0.0
 10
46.610893
 20
232.632994
 30
0.0
 10
46.559603
 20
232.642694
 30
0.0
 10
46.508013
 20
232.647794
 30
0.0
 10
46.456413
 20
232.648474
 30
0.0
 10
46.405113
 20
232.644774
 30
0.0
 10
46.354383
 20
232.636674
 30
0.0
 10
46.304533
 20
232.624264
 30
0.0
 10
46.255853
 20
232.607644
 30
0.0
 10
46.208633
 20
232.586834
 30
0.0
 10
46.163173
 20
232.561914
 30
0.0
 10
46.119753
 20
232.532934
 30
0.0
 10
46.078673
 20
232.499964
 30
0.0
 10
46.040223
 20
232.463064
 30
0.0
 10
46.004703
 20
232.422284
 30
0.0
  0
LWPOLYLINE
  5
13c
100
AcDbEntity
  8
Layer_1
 62
7
100
AcDbPolyline
 90
17
 70
0
 10
46.004683
 20
232.422179
 30
0.0
 10
45.860897
 20
232.241415
 30
0.0
 10
45.717112
 20
232.060652
 30
0.0
 10
45.573326
 20
231.879888
 30
0.0
 10
45.429541
 20
231.699125
 30
0.0
 10
45.285755
 20
231.518361
 30
0.0
 10
45.141969
 20
231.337598
 30
0.0
 10
44.998184
 20
231.156834
 30
0.0
 10
44.854398
 20
230.976071
 30
0.0
 10
44.710612
 20
230.795307
 30
0.0
 10
44.566827
 20
230.614544
 30
0.0
 10
44.423041
 20
230.433780
 30
0.0
 10
44.279255
 20
230.253017
 30
0.0
 10
44.135470
 20
230.072253
 30
0.0
 10
43.991684
 20
229.891490
 30
0.0
 10
43.847899
 20
229.710726
 30
0.0
 10
43.704113
 20
229.529963
 30
0.0
  0
LWPOLYLINE
  5
13d
100
AcDbEntity
  8
Layer_1
 62
7
100
AcDbPolyline
 90
17
 70
0
 10
42.734213
 20
230.234633
 30
0.0
 10
42.670203
 20
230.114891
 30
0.0
 10
42.634963
 20
229.996414
 30
0.0
 10
42.625863
 20
229.881093
 30
0.0
 10
42.640333
 20
229.770818
 30
0.0
 10
42.675773
 20
229.667484
 30
0.0
 10
42.729573
 20
229.572984
 30
0.0
 10
42.799123
 20
229.489204
 30
0.0
 10
42.881813
 20
229.418044
 30
0.0
 10
42.975043
 20
229.361384
 30
0.0
 10
43.076212
 20
229.321124
 30
0.0
 10
43.182713
 20
229.299164
 30
0.0
 10
43.291943
 20
229.297364
 30
0.0
 10
43.401298
 20
229.317664
 30
0.0
 10
43.508171
 20
229.361934
 30
0.0
 10
43.609957
 20
229.432064
 30
0.0
 10
43.704057
 20
229.529944
 30
0.0
  0
LWPOLYLINE
  5
13e
100
AcDbEntity
  8
Layer_1
 62
7
100
AcDbPolyline
 90
33
 70
0
 10
42.734213
 20
230.234633
 30
0.0
 10
42.861697
 20
230.427240
 30
0.0
 10
42.989182
 20
230.619848
 30
0.0
 10
43.116666
 20
230.812455
 30
0.0
 10
43.244151
 20
231.005063
 30
0.0
 10
43.371635
 20
231.197670
 30
0.0
 10
43.499119
 20
231.390278
 30
0.0
 10
43.626604
 20
231.582885
 30
0.0
 10
43.754088
 20
231.775492
 30
0.0
 10
43.881572
 20
231.968100
 30
0.0
 10
44.009057
 20
232.160707
 30
0.0
 10
44.136541
 20
232.353315
 30
0.0
 10
44.264025
 20
232.545922
 30
0.0
 10
44.391510
 20
232.738530
 30
0.0
 10
44.518994
 20
232.931137
 30
0.0
 10
44.646479
 20
233.123745
 30
0.0
 10
44.773963
 20
233.316352
 30
0.0
 10
44.801773
 20
233.362732
 30
0.0
 10
44.824993
 20
233.410702
 30
0.0
 10
44.843663
 20
233.459962
 30
0.0
 10
44.857803
 20
233.510202
 30
0.0
 10
44.867503
 20
233.561142
 30
0.0
 10
44.872703
 20
233.612482
 30
0.0
 10
44.873474
 20
233.663922
 30
0.0
 10
44.869874
 20
233.715162
 30
0.0
 10
44.861974
 20
233.765912
 30
0.0
 10
44.849674
 20
233.815862
 30
0.0
 10
44.833104
 20
233.864732
 30
0.0
 10
44.812284
 20
233.912212
 30
0.0
 10
44.787244
 20
233.958022
 30
0.0
 10
44.758024
 20
234.001842
 30
0.0
 10
44.724644
 20
234.043392
 30
0.0
 10
44.687154
 20
234.082372
 30
0.0
  0
LWPOLYLINE
  5
13f
100
AcDbEntity
  8
Layer_1
 62
7
100
AcDbPolyline
 90
17
 70
0
 10
44.338323
 20
234.431073
 30
0.0
 10
44.359603
 20
234.408773
 30
0.0
 10
44.380943
 20
234.386523
 30
0.0
 10
44.402353
 20
234.364353
 30
0.0
 10
44.423843
 20
234.342243
 30
0.0
 10
44.445393
 20
234.320203
 30
0.0
 10
44.467023
 20
234.298243
 30
0.0
 10
44.488713
 20
234.276343
 30
0.0
 10
44.510473
 20
234.254513
 30
0.0
 10
44.532303
 20
234.232753
 30
0.0
 10
44.554203
 20
234.211063
 30
0.0
 10
44.576173
 20
234.189443
 30
0.0
 10
44.598203
 20
234.167883
 30
0.0
 10
44.620303
 20
234.146393
 30
0.0
 10
44.642473
 20
234.124983
 30
0.0
 10
44.664713
 20
234.103643
 30
0.0
 10
44.687023
 20
234.082363
 30
0.0
  0
LWPOLYLINE
  5
140
100
AcDbEntity
  8
Layer_1
 62
7
100
AcDbPolyline
 90
33
 70
0
 10
44.338323
 20
234.431073
 30
0.0
 10
44.299353
 20
234.468563
 30
0.0
 10
44.257803
 20
234.501943
 30
0.0
 10
44.213973
 20
234.531163
 30
0.0
 10
44.168173
 20
234.556213
 30
0.0
 10
44.120693
 20
234.577033
 30
0.0
 10
44.071823
 20
234.593603
 30
0.0
 10
44.021873
 20
234.605883
 30
0.0
 10
43.971123
 20
234.613883
 30
0.0
 10
43.919883
 20
234.617483
 30
0.0
 10
43.868453
 20
234.616682
 30
0.0
 10
43.817113
 20
234.611482
 30
0.0
 10
43.766173
 20
234.601782
 30
0.0
 10
43.715933
 20
234.587632
 30
0.0
 10
43.666663
 20
234.568982
 30
0.0
 10
43.618693
 20
234.545772
 30
0.0
 10
43.572303
 20
234.517962
 30
0.0
 10
43.379696
 20
234.390521
 30
0.0
 10
43.187089
 20
234.263037
 30
0.0
 10
42.994482
 20
234.135553
 30
0.0
 10
42.801876
 20
234.008069
 30
0.0
 10
42.609269
 20
233.880586
 30
0.0
 10
42.416662
 20
233.753102
 30
0.0
 10
42.224055
 20
233.625618
 30
0.0
 10
42.031448
 20
233.498134
 30
0.0
 10
41.838841
 20
233.370650
 30
0.0
 10
41.646234
 20
233.243166
 30
0.0
 10
41.453627
 20
233.115682
 30
0.0
 10
41.261020
 20
232.988198
 30
0.0
 10
41.068414
 20
232.860715
 30
0.0
 10
40.875807
 20
232.733231
 30
0.0
 10
40.683200
 20
232.605747
 30
0.0
 10
40.490593
 20
232.478263
 30
0.0
  0
LWPOLYLINE
  5
141
100
AcDbEntity
  8
Layer_1
 62
7
100
AcDbPolyline
 90
17
 70
0
 10
39.785923
 20
233.448159
 30
0.0
 10
39.688053
 20
233.354059
 30
0.0
 10
39.617933
 20
233.252270
 30
0.0
 10
39.573673
 20
233.145399
 30
0.0
 10
39.553383
 20
233.036048
 30
0.0
 10
39.555183
 20
232.926820
 30
0.0
 10
39.577143
 20
232.820325
 30
0.0
 10
39.617393
 20
232.719159
 30
0.0
 10
39.674043
 20
232.625929
 30
0.0
 10
39.745203
 20
232.543239
 30
0.0
 10
39.828983
 20
232.473689
 30
0.0
 10
39.923483
 20
232.419889
 30
0.0
 10
40.026812
 20
232.384449
 30
0.0
 10
40.137083
 20
232.369959
 30
0.0
 10
40.252400
 20
232.379059
 30
0.0
 10
40.370872
 20
232.414299
 30
0.0
 10
40.490612
 20
232.478289
 30
0.0
  0
LWPOLYLINE
  5
142
100
AcDbEntity
  8
Layer_1
 62
7
100
AcDbPolyline
 90
33
 70
0
 10
39.785923
 20
233.448159
 30
0.0
 10
39.966686
 20
233.591945
 30
0.0
 10
40.147449
 20
233.735730
 30
0.0
 10
40.328212
 20
233.879516
 30
0.0
 10
40.508975
 20
234.023302
 30
0.0
 10
40.689739
 20
234.167087
 30
0.0
 10
40.870502
 20
234.310873
 30
0.0
 10
41.051265
 20
234.454659
 30
0.0
 10
41.232028
 20
234.598444
 30
0.0
 10
41.412791
 20
234.742230
 30
0.0
 10
41.593554
 20
234.886016
 30
0.0
 10
41.774317
 20
235.029802
 30
0.0
 10
41.955080
 20
235.173587
 30
0.0
 10
42.135844
 20
235.317373
 30
0.0
 10
42.316607
 20
235.461159
 30
0.0
 10
42.497370
 20
235.604944
 30
0.0
 10
42.678133
 20
235.748730
 30
0.0
 10
42.718913
 20
235.784250
 30
0.0
 10
42.755813
 20
235.822700
 30
0.0
 10
42.788783
 20
235.863780
 30
0.0
 10
42.817763
 20
235.907200
 30
0.0
 10
42.842683
 20
235.952670
 30
0.0
 10
42.863493
 20
235.999880
 30
0.0
 10
42.880133
 20
236.048560
 30
0.0
 10
42.892533
 20
236.098410
 30
0.0
 10
42.900633
 20
236.149130
 30
0.0
 10
42.904433
 20
236.200440
 30
0.0
 10
42.903774
 20
236.252030
 30
0.0
 10
42.898674
 20
236.303620
 30
0.0
 10
42.888974
 20
236.354920
 30
0.0
 10
42.874734
 20
236.405630
 30
0.0
 10
42.855834
 20
236.455450
 30
0.0
 10
42.832214
 20
236.504110
 30
0.0
  0
LWPOLYLINE
  5
143
100
AcDbEntity
  8
Layer_1
 62
7
100
AcDbPolyline
 90
17
 70
0
 10
42.608283
 20
236.943512
 30
0.0
 10
42.621633
 20
236.915722
 30
0.0
 10
42.635053
 20
236.887972
 30
0.0
 10
42.648563
 20
236.860262
 30
0.0
 10
42.662173
 20
236.832602
 30
0.0
 10
42.675863
 20
236.804982
 30
0.0
 10
42.689643
 20
236.777412
 30
0.0
 10
42.703503
 20
236.749882
 30
0.0
 10
42.717453
 20
236.722392
 30
0.0
 10
42.731493
 20
236.694952
 30
0.0
 10
42.745613
 20
236.667552
 30
0.0
 10
42.759823
 20
236.640202
 30
0.0
 10
42.774123
 20
236.612892
 30
0.0
 10
42.788513
 20
236.585622
 30
0.0
 10
42.802973
 20
236.558412
 30
0.0
 10
42.817533
 20
236.531232
 30
0.0
 10
42.832173
 20
236.504112
 30
0.0
  0
LWPOLYLINE
  5
144
100
AcDbEntity
  8
Layer_1
 62
7
100
AcDbPolyline
 90
17
 70
0
 10
42.608283
 20
236.943512
 30
0.0
 10
42.582803
 20
236.991212
 30
0.0
 10
42.553603
 20
237.035792
 30
0.0
 10
42.520953
 20
237.077132
 30
0.0
 10
42.485133
 20
237.115102
 30
0.0
 10
42.446413
 20
237.149572
 30
0.0
 10
42.405053
 20
237.180432
 30
0.0
 10
42.361333
 20
237.207552
 30
0.0
 10
42.315533
 20
237.230802
 30
0.0
 10
42.267913
 20
237.250072
 30
0.0
 10
42.218753
 20
237.265222
 30
0.0
 10
42.168323
 20
237.276142
 30
0.0
 10
42.116893
 20
237.282742
 30
0.0
 10
42.064733
 20
237.284842
 30
0.0
 10
42.012123
 20
237.282342
 30
0.0
 10
41.959323
 20
237.275142
 30
0.0
 10
41.906613
 20
237.263012
 30
0.0
  0
LWPOLYLINE
  5
145
100
AcDbEntity
  8
Layer_1
 62
7
100
AcDbPolyline
 90
17
 70
0
 10
41.906623
 20
237.262903
 30
0.0
 10
41.684048
 20
237.201173
 30
0.0
 10
41.461473
 20
237.139443
 30
0.0
 10
41.238898
 20
237.077713
 30
0.0
 10
41.016323
 20
237.015983
 30
0.0
 10
40.793748
 20
236.954263
 30
0.0
 10
40.571173
 20
236.892533
 30
0.0
 10
40.348598
 20
236.830803
 30
0.0
 10
40.126023
 20
236.769073
 30
0.0
 10
39.903448
 20
236.707343
 30
0.0
 10
39.680873
 20
236.645613
 30
0.0
 10
39.458298
 20
236.583883
 30
0.0
 10
39.235723
 20
236.522153
 30
0.0
 10
39.013148
 20
236.460423
 30
0.0
 10
38.790573
 20
236.398693
 30
0.0
 10
38.567998
 20
236.336963
 30
0.0
 10
38.345423
 20
236.275233
 30
0.0
  0
LWPOLYLINE
  5
146
100
AcDbEntity
  8
Layer_1
 62
7
100
AcDbPolyline
 90
17
 70
0
 10
37.974953
 20
237.415475
 30
0.0
 10
37.852789
 20
237.356225
 30
0.0
 10
37.754639
 20
237.281085
 30
0.0
 10
37.679519
 20
237.193125
 30
0.0
 10
37.626429
 20
237.095395
 30
0.0
 10
37.594369
 20
236.990962
 30
0.0
 10
37.582349
 20
236.882889
 30
0.0
 10
37.589349
 20
236.774234
 30
0.0
 10
37.614409
 20
236.668058
 30
0.0
 10
37.656529
 20
236.567421
 30
0.0
 10
37.714719
 20
236.475391
 30
0.0
 10
37.787969
 20
236.395021
 30
0.0
 10
37.875289
 20
236.329381
 30
0.0
 10
37.975685
 20
236.281531
 30
0.0
 10
38.088167
 20
236.254521
 30
0.0
 10
38.211733
 20
236.251421
 30
0.0
 10
38.345392
 20
236.275281
 30
0.0
  0
LWPOLYLINE
  5
147
100
AcDbEntity
  8
Layer_1
 62
7
100
AcDbPolyline
 90
33
 70
0
 10
37.974953
 20
237.415475
 30
0.0
 10
38.191302
 20
237.496365
 30
0.0
 10
38.407650
 20
237.577255
 30
0.0
 10
38.623999
 20
237.658145
 30
0.0
 10
38.840348
 20
237.739035
 30
0.0
 10
39.056697
 20
237.819925
 30
0.0
 10
39.273046
 20
237.900815
 30
0.0
 10
39.489394
 20
237.981705
 30
0.0
 10
39.705743
 20
238.062595
 30
0.0
 10
39.922092
 20
238.143485
 30
0.0
 10
40.138441
 20
238.224375
 30
0.0
 10
40.354789
 20
238.305265
 30
0.0
 10
40.571138
 20
238.386155
 30
0.0
 10
40.787487
 20
238.467045
 30
0.0
 10
41.003835
 20
238.547935
 30
0.0
 10
41.220184
 20
238.628825
 30
0.0
 10
41.436533
 20
238.709715
 30
0.0
 10
41.486293
 20
238.730886
 30
0.0
 10
41.533273
 20
238.756056
 30
0.0
 10
41.577323
 20
238.784936
 30
0.0
 10
41.618303
 20
238.817276
 30
0.0
 10
41.656053
 20
238.852816
 30
0.0
 10
41.690433
 20
238.891296
 30
0.0
 10
41.721293
 20
238.932456
 30
0.0
 10
41.748493
 20
238.976026
 30
0.0
 10
41.771873
 20
239.021766
 30
0.0
 10
41.791293
 20
239.069396
 30
0.0
 10
41.806613
 20
239.118676
 30
0.0
 10
41.817673
 20
239.169326
 30
0.0
 10
41.824373
 20
239.221096
 30
0.0
 10
41.826473
 20
239.273726
 30
0.0
 10
41.823873
 20
239.326956
 30
0.0
 10
41.816473
 20
239.380526
 30
0.0
  0
LWPOLYLINE
  5
148
100
AcDbEntity
  8
Layer_1
 62
7
100
AcDbPolyline
 90
17
 70
0
 10
41.739313
 20
239.867594
 30
0.0
 10
41.743413
 20
239.837044
 30
0.0
 10
41.747613
 20
239.806504
 30
0.0
 10
41.751913
 20
239.775984
 30
0.0
 10
41.756313
 20
239.745474
 30
0.0
 10
41.760813
 20
239.714974
 30
0.0
 10
41.765413
 20
239.684494
 30
0.0
 10
41.770113
 20
239.654024
 30
0.0
 10
41.774813
 20
239.623574
 30
0.0
 10
41.779713
 20
239.593134
 30
0.0
 10
41.784613
 20
239.562714
 30
0.0
 10
41.789613
 20
239.532314
 30
0.0
 10
41.794813
 20
239.501924
 30
0.0
 10
41.800113
 20
239.471554
 30
0.0
 10
41.805413
 20
239.441194
 30
0.0
 10
41.810913
 20
239.410854
 30
0.0
 10
41.816413
 20
239.380534
 30
0.0
  0
LWPOLYLINE
  5
149
100
AcDbEntity
  8
Layer_1
 62
7
100
AcDbPolyline
 90
33
 70
0
 10
41.739313
 20
239.867594
 30
0.0
 10
41.729813
 20
239.920844
 30
0.0
 10
41.715823
 20
239.972264
 30
0.0
 10
41.697543
 20
240.021664
 30
0.0
 10
41.675213
 20
240.068844
 30
0.0
 10
41.649033
 20
240.113604
 30
0.0
 10
41.619233
 20
240.155734
 30
0.0
 10
41.586043
 20
240.195034
 30
0.0
 10
41.549673
 20
240.231304
 30
0.0
 10
41.510343
 20
240.264344
 30
0.0
 10
41.468273
 20
240.293954
 30
0.0
 10
41.423683
 20
240.319924
 30
0.0
 10
41.376803
 20
240.342054
 30
0.0
 10
41.327843
 20
240.360144
 30
0.0
 10
41.277023
 20
240.374004
 30
0.0
 10
41.224563
 20
240.383404
 30
0.0
 10
41.170693
 20
240.388204
 30
0.0
 10
40.939927
 20
240.398260
 30
0.0
 10
40.709172
 20
240.408340
 30
0.0
 10
40.478416
 20
240.418420
 30
0.0
 10
40.247660
 20
240.428500
 30
0.0
 10
40.016905
 20
240.438580
 30
0.0
 10
39.786149
 20
240.448660
 30
0.0
 10
39.555394
 20
240.458740
 30
0.0
 10
39.324638
 20
240.468820
 30
0.0
 10
39.093882
 20
240.478900
 30
0.0
 10
38.863127
 20
240.488980
 30
0.0
 10
38.632371
 20
240.499050
 30
0.0
 10
38.401615
 20
240.509130
 30
0.0
 10
38.170860
 20
240.519210
 30
0.0
 10
37.940104
 20
240.529290
 30
0.0
 10
37.709349
 20
240.539370
 30
0.0
 10
37.478593
 20
240.549450
 30
0.0
  0
LWPOLYLINE
  5
14a
100
AcDbEntity
  8
Layer_1
 62
7
100
AcDbPolyline
 90
17
 70
0
 10
37.478593
 20
241.748236
 30
0.0
 10
37.344109
 20
241.729626
 30
0.0
 10
37.227554
 20
241.688496
 30
0.0
 10
37.128934
 20
241.628046
 30
0.0
 10
37.048244
 20
241.551506
 30
0.0
 10
36.985484
 20
241.462096
 30
0.0
 10
36.940654
 20
241.363026
 30
0.0
 10
36.913754
 20
241.257522
 30
0.0
 10
36.904754
 20
241.148801
 30
0.0
 10
36.913754
 20
241.040079
 30
0.0
 10
36.940654
 20
240.934576
 30
0.0
 10
36.985484
 20
240.835506
 30
0.0
 10
37.048244
 20
240.746096
 30
0.0
 10
37.128934
 20
240.669556
 30
0.0
 10
37.227554
 20
240.609106
 30
0.0
 10
37.344110
 20
240.567976
 30
0.0
 10
37.478593
 20
240.549366
 30
0.0
  0
LWPOLYLINE
  5
14b
100
AcDbEntity
  8
Layer_1
 62
7
100
AcDbPolyline
 90
33
 70
0
 10
37.478593
 20
241.748236
 30
0.0
 10
37.709349
 20
241.758316
 30
0.0
 10
37.940104
 20
241.768396
 30
0.0
 10
38.170860
 20
241.778476
 30
0.0
 10
38.401615
 20
241.788556
 30
0.0
 10
38.632371
 20
241.798636
 30
0.0
 10
38.863127
 20
241.808716
 30
0.0
 10
39.093882
 20
241.818796
 30
0.0
 10
39.324638
 20
241.828876
 30
0.0
 10
39.555394
 20
241.838956
 30
0.0
 10
39.786149
 20
241.849036
 30
0.0
 10
40.016905
 20
241.859116
 30
0.0
 10
40.247660
 20
241.869196
 30
0.0
 10
40.478416
 20
241.879276
 30
0.0
 10
40.709172
 20
241.889356
 30
0.0
 10
40.939927
 20
241.899436
 30
0.0
 10
41.170683
 20
241.909506
 30
0.0
 10
41.224553
 20
241.914237
 30
0.0
 10
41.277013
 20
241.923637
 30
0.0
 10
41.327833
 20
241.937497
 30
0.0
 10
41.376793
 20
241.955587
 30
0.0
 10
41.423673
 20
241.977717
 30
0.0
 10
41.468263
 20
242.003687
 30
0.0
 10
41.510333
 20
242.033287
 30
0.0
 10
41.549663
 20
242.066337
 30
0.0
 10
41.586033
 20
242.102607
 30
0.0
 10
41.619223
 20
242.141907
 30
0.0
 10
41.649023
 20
242.184037
 30
0.0
 10
41.675193
 20
242.228797
 30
0.0
 10
41.697523
 20
242.275977
 30
0.0
 10
41.715803
 20
242.325377
 30
0.0
 10
41.729803
 20
242.376797
 30
0.0
 10
41.739303
 20
242.430037
 30
0.0
  0
LWPOLYLINE
  5
14c
100
AcDbEntity
  8
Layer_1
 62
7
100
AcDbPolyline
 90
17
 70
0
 10
41.816453
 20
242.917092
 30
0.0
 10
41.810953
 20
242.886772
 30
0.0
 10
41.805553
 20
242.856432
 30
0.0
 10
41.800253
 20
242.826072
 30
0.0
 10
41.794953
 20
242.795702
 30
0.0
 10
41.789753
 20
242.765312
 30
0.0
 10
41.784753
 20
242.734912
 30
0.0
 10
41.779853
 20
242.704492
 30
0.0
 10
41.774953
 20
242.674052
 30
0.0
 10
41.770153
 20
242.643602
 30
0.0
 10
41.765553
 20
242.613132
 30
0.0
 10
41.760953
 20
242.582642
 30
0.0
 10
41.756453
 20
242.552152
 30
0.0
 10
41.752053
 20
242.521642
 30
0.0
 10
41.747753
 20
242.491122
 30
0.0
 10
41.743553
 20
242.460582
 30
0.0
 10
41.739453
 20
242.430032
 30
0.0
  0
LWPOLYLINE
  5
14d
100
AcDbEntity
  8
Layer_1
 62
7
100
AcDbPolyline
 90
17
 70
0
 10
41.816453
 20
242.917092
 30
0.0
 10
41.823853
 20
242.970662
 30
0.0
 10
41.826453
 20
243.023892
 30
0.0
 10
41.824253
 20
243.076522
 30
0.0
 10
41.817553
 20
243.128292
 30
0.0
 10
41.806493
 20
243.178942
 30
0.0
 10
41.791173
 20
243.228222
 30
0.0
 10
41.771753
 20
243.275852
 30
0.0
 10
41.748363
 20
243.321592
 30
0.0
 10
41.721163
 20
243.365172
 30
0.0
 10
41.690303
 20
243.406322
 30
0.0
 10
41.655923
 20
243.444802
 30
0.0
 10
41.618173
 20
243.480342
 30
0.0
 10
41.577203
 20
243.512682
 30
0.0
 10
41.533143
 20
243.541562
 30
0.0
 10
41.486163
 20
243.566722
 30
0.0
 10
41.436403
 20
243.587902
 30
0.0
  0
LWPOLYLINE
  5
14e
100
AcDbEntity
  8
Layer_1
 62
7
100
AcDbPolyline
 90
17
 70
0
 10
41.436533
 20
243.587911
 30
0.0
 10
41.220184
 20
243.668801
 30
0.0
 10
41.003835
 20
243.749691
 30
0.0
 10
40.787487
 20
243.830581
 30
0.0
 10
40.571138
 20
243.911471
 30
0.0
 10
40.354789
 20
243.992361
 30
0.0
 10
40.138441
 20
244.073251
 30
0.0
 10
39.922092
 20
244.154141
 30
0.0
 10
39.705743
 20
244.235031
 30
0.0
 10
39.489394
 20
244.315921
 30
0.0
 10
39.273046
 20
244.396811
 30
0.0
 10
39.056697
 20
244.477701
 30
0.0
 10
38.840348
 20
244.558591
 30
0.0
 10
38.623999
 20
244.639481
 30
0.0
 10
38.407650
 20
244.720371
 30
0.0
 10
38.191302
 20
244.801261
 30
0.0
 10
37.974953
 20
244.882151
 30
0.0
  0
LWPOLYLINE
  5
14f
100
AcDbEntity
  8
Layer_1
 62
7
100
AcDbPolyline
 90
17
 70
0
 10
38.345423
 20
246.022324
 30
0.0
 10
38.211762
 20
246.046204
 30
0.0
 10
38.088194
 20
246.043104
 30
0.0
 10
37.975714
 20
246.016094
 30
0.0
 10
37.875313
 20
245.968244
 30
0.0
 10
37.787993
 20
245.902604
 30
0.0
 10
37.714743
 20
245.822234
 30
0.0
 10
37.656563
 20
245.730204
 30
0.0
 10
37.614433
 20
245.629570
 30
0.0
 10
37.589363
 20
245.523393
 30
0.0
 10
37.582363
 20
245.414736
 30
0.0
 10
37.594383
 20
245.306662
 30
0.0
 10
37.626443
 20
245.202228
 30
0.0
 10
37.679533
 20
245.104498
 30
0.0
 10
37.754663
 20
245.016538
 30
0.0
 10
37.852813
 20
244.941398
 30
0.0
 10
37.974978
 20
244.882148
 30
0.0
  0
LWPOLYLINE
  5
150
100
AcDbEntity
  8
Layer_1
 62
7
100
AcDbPolyline
 90
33
 70
0
 10
38.345423
 20
246.022324
 30
0.0
 10
38.567998
 20
245.960594
 30
0.0
 10
38.790573
 20
245.898874
 30
0.0
 10
39.013148
 20
245.837144
 30
0.0
 10
39.235723
 20
245.775414
 30
0.0
 10
39.458298
 20
245.713684
 30
0.0
 10
39.680873
 20
245.651954
 30
0.0
 10
39.903448
 20
245.590224
 30
0.0
 10
40.126023
 20
245.528494
 30
0.0
 10
40.348598
 20
245.466774
 30
0.0
 10
40.571173
 20
245.405044
 30
0.0
 10
40.793748
 20
245.343314
 30
0.0
 10
41.016323
 20
245.281584
 30
0.0
 10
41.238898
 20
245.219854
 30
0.0
 10
41.461473
 20
245.158124
 30
0.0
 10
41.684048
 20
245.096394
 30
0.0
 10
41.906623
 20
245.034664
 30
0.0
 10
41.959333
 20
245.022613
 30
0.0
 10
42.012133
 20
245.015313
 30
0.0
 10
42.064743
 20
245.012813
 30
0.0
 10
42.116903
 20
245.014913
 30
0.0
 10
42.168333
 20
245.021513
 30
0.0
 10
42.218763
 20
245.032443
 30
0.0
 10
42.267923
 20
245.047593
 30
0.0
 10
42.315543
 20
245.066863
 30
0.0
 10
42.361343
 20
245.090123
 30
0.0
 10
42.405063
 20
245.117243
 30
0.0
 10
42.446423
 20
245.148103
 30
0.0
 10
42.485143
 20
245.182573
 30
0.0
 10
42.520963
 20
245.220543
 30
0.0
 10
42.553613
 20
245.261873
 30
0.0
 10
42.582813
 20
245.306453
 30
0.0
 10
42.608293
 20
245.354153
 30
0.0
  0
LWPOLYLINE
  5
151
100
AcDbEntity
  8
Layer_1
 62
7
100
AcDbPolyline
 90
17
 70
0
 10
42.832173
 20
245.793496
 30
0.0
 10
42.817533
 20
245.766366
 30
0.0
 10
42.802973
 20
245.739196
 30
0.0
 10
42.788503
 20
245.711976
 30
0.0
 10
42.774123
 20
245.684716
 30
0.0
 10
42.759823
 20
245.657406
 30
0.0
 10
42.745613
 20
245.630056
 30
0.0
 10
42.731493
 20
245.602666
 30
0.0
 10
42.717453
 20
245.575216
 30
0.0
 10
42.703503
 20
245.547736
 30
0.0
 10
42.689643
 20
245.520196
 30
0.0
 10
42.675873
 20
245.492626
 30
0.0
 10
42.662183
 20
245.465016
 30
0.0
 10
42.648573
 20
245.437356
 30
0.0
 10
42.635063
 20
245.409646
 30
0.0
 10
42.621633
 20
245.381896
 30
0.0
 10
42.608293
 20
245.354106
 30
0.0
  0
LWPOLYLINE
  5
152
100
AcDbEntity
  8
Layer_1
 62
7
100
AcDbPolyline
 90
33
 70
0
 10
42.832173
 20
245.793496
 30
0.0
 10
42.855783
 20
245.842156
 30
0.0
 10
42.874693
 20
245.891976
 30
0.0
 10
42.888943
 20
245.942686
 30
0.0
 10
42.898643
 20
245.993986
 30
0.0
 10
42.903743
 20
246.045576
 30
0.0
 10
42.904423
 20
246.097176
 30
0.0
 10
42.900723
 20
246.148476
 30
0.0
 10
42.892623
 20
246.199206
 30
0.0
 10
42.880213
 20
246.249056
 30
0.0
 10
42.863583
 20
246.297736
 30
0.0
 10
42.842773
 20
246.344956
 30
0.0
 10
42.817853
 20
246.390416
 30
0.0
 10
42.788873
 20
246.433836
 30
0.0
 10
42.755903
 20
246.474916
 30
0.0
 10
42.719003
 20
246.513366
 30
0.0
 10
42.678223
 20
246.548886
 30
0.0
 10
42.497370
 20
246.692673
 30
0.0
 10
42.316607
 20
246.836458
 30
0.0
 10
42.135844
 20
246.980244
 30
0.0
 10
41.955081
 20
247.124029
 30
0.0
 10
41.774317
 20
247.267815
 30
0.0
 10
41.593554
 20
247.411601
 30
0.0
 10
41.412791
 20
247.555386
 30
0.0
 10
41.232028
 20
247.699172
 30
0.0
 10
41.051265
 20
247.842958
 30
0.0
 10
40.870502
 20
247.986743
 30
0.0
 10
40.689739
 20
248.130529
 30
0.0
 10
40.508976
 20
248.274314
 30
0.0
 10
40.328212
 20
248.418100
 30
0.0
 10
40.147449
 20
248.561886
 30
0.0
 10
39.966686
 20
248.705671
 30
0.0
 10
39.785923
 20
248.849457
 30
0.0
  0
LWPOLYLINE
  5
153
100
AcDbEntity
  8
Layer_1
 62
7
100
AcDbPolyline
 90
17
 70
0
 10
40.490593
 20
249.819354
 30
0.0
 10
40.370853
 20
249.883364
 30
0.0
 10
40.252379
 20
249.918604
 30
0.0
 10
40.137061
 20
249.927704
 30
0.0
 10
40.026790
 20
249.913224
 30
0.0
 10
39.923458
 20
249.877784
 30
0.0
 10
39.828958
 20
249.823984
 30
0.0
 10
39.745178
 20
249.754434
 30
0.0
 10
39.674018
 20
249.671744
 30
0.0
 10
39.617358
 20
249.578514
 30
0.0
 10
39.577108
 20
249.477349
 30
0.0
 10
39.555148
 20
249.370851
 30
0.0
 10
39.553348
 20
249.261623
 30
0.0
 10
39.573648
 20
249.152270
 30
0.0
 10
39.617908
 20
249.045400
 30
0.0
 10
39.688028
 20
248.943613
 30
0.0
 10
39.785898
 20
248.849513
 30
0.0
  0
LWPOLYLINE
  5
154
100
AcDbEntity
  8
Layer_1
 62
7
100
AcDbPolyline
 90
33
 70
0
 10
40.490593
 20
249.819354
 30
0.0
 10
40.683200
 20
249.691870
 30
0.0
 10
40.875807
 20
249.564386
 30
0.0
 10
41.068414
 20
249.436902
 30
0.0
 10
41.261020
 20
249.309418
 30
0.0
 10
41.453627
 20
249.181935
 30
0.0
 10
41.646234
 20
249.054451
 30
0.0
 10
41.838841
 20
248.926967
 30
0.0
 10
42.031448
 20
248.799483
 30
0.0
 10
42.224055
 20
248.671999
 30
0.0
 10
42.416662
 20
248.544515
 30
0.0
 10
42.609269
 20
248.417031
 30
0.0
 10
42.801876
 20
248.289547
 30
0.0
 10
42.994482
 20
248.162064
 30
0.0
 10
43.187089
 20
248.034580
 30
0.0
 10
43.379696
 20
247.907096
 30
0.0
 10
43.572303
 20
247.779612
 30
0.0
 10
43.618693
 20
247.751802
 30
0.0
 10
43.666673
 20
247.728582
 30
0.0
 10
43.715933
 20
247.709922
 30
0.0
 10
43.766183
 20
247.695782
 30
0.0
 10
43.817123
 20
247.686182
 30
0.0
 10
43.868463
 20
247.680982
 30
0.0
 10
43.919903
 20
247.680211
 30
0.0
 10
43.971143
 20
247.683811
 30
0.0
 10
44.021893
 20
247.691711
 30
0.0
 10
44.071843
 20
247.704021
 30
0.0
 10
44.120703
 20
247.720591
 30
0.0
 10
44.168193
 20
247.741411
 30
0.0
 10
44.214003
 20
247.766451
 30
0.0
 10
44.257823
 20
247.795681
 30
0.0
 10
44.299363
 20
247.829061
 30
0.0
 10
44.338343
 20
247.866551
 30
0.0
  0
LWPOLYLINE
  5
155
100
AcDbEntity
  8
Layer_1
 62
7
100
AcDbPolyline
 90
17
 70
0
 10
44.687023
 20
248.215246
 30
0.0
 10
44.664713
 20
248.193966
 30
0.0
 10
44.642473
 20
248.172626
 30
0.0
 10
44.620303
 20
248.151216
 30
0.0
 10
44.598203
 20
248.129726
 30
0.0
 10
44.576173
 20
248.108176
 30
0.0
 10
44.554203
 20
248.086546
 30
0.0
 10
44.532303
 20
248.064856
 30
0.0
 10
44.510473
 20
248.043096
 30
0.0
 10
44.488713
 20
248.021266
 30
0.0
 10
44.467023
 20
247.999366
 30
0.0
 10
44.445403
 20
247.977396
 30
0.0
 10
44.423843
 20
247.955366
 30
0.0
 10
44.402353
 20
247.933266
 30
0.0
 10
44.380943
 20
247.911086
 30
0.0
 10
44.359603
 20
247.888846
 30
0.0
 10
44.338323
 20
247.866536
 30
0.0
  0
LWPOLYLINE
  5
156
100
AcDbEntity
  8
Layer_1
 62
7
100
AcDbPolyline
 90
35
 70
0
 10
44.687023
 20
248.215246
 30
0.0
 10
44.724513
 20
248.254226
 30
0.0
 10
44.757893
 20
248.295776
 30
0.0
 10
44.787113
 20
248.339606
 30
0.0
 10
44.812153
 20
248.385406
 30
0.0
 10
44.832973
 20
248.432886
 30
0.0
 10
44.849543
 20
248.481746
 30
0.0
 10
44.861823
 20
248.531696
 30
0.0
 10
44.869823
 20
248.582446
 30
0.0
 10
44.873423
 20
248.633686
 30
0.0
 10
44.872625
 20
248.685116
 30
0.0
 10
44.867425
 20
248.736456
 30
0.0
 10
44.857725
 20
248.787396
 30
0.0
 10
44.843575
 20
248.837636
 30
0.0
 10
44.824915
 20
248.886896
 30
0.0
 10
44.801695
 20
248.934866
 30
0.0
 10
44.773885
 20
248.981246
 30
0.0
 10
44.646479
 20
249.173872
 30
0.0
 10
44.518994
 20
249.366480
 30
0.0
 10
44.391510
 20
249.559087
 30
0.0
 10
44.264026
 20
249.751694
 30
0.0
 10
44.136541
 20
249.944302
 30
0.0
 10
44.009057
 20
250.136909
 30
0.0
 10
43.881572
 20
250.329517
 30
0.0
 10
43.754088
 20
250.522124
 30
0.0
 10
43.626604
 20
250.714731
 30
0.0
 10
43.499119
 20
250.907339
 30
0.0
 10
43.371635
 20
251.099946
 30
0.0
 10
43.244151
 20
251.292553
 30
0.0
 10
43.116666
 20
251.485161
 30
0.0
 10
42.989182
 20
251.677768
 30
0.0
 10
42.925442
 20
251.774068
 30
0.0
 10
42.861702
 20
251.870368
 30
0.0
 10
42.797962
 20
251.966668
 30
0.0
 10
42.734222
 20
252.062968
 30
0.0
  0
LWPOLYLINE
  5
157
100
AcDbEntity
  8
Layer_1
 62
7
100
AcDbPolyline
 90
17
 70
0
 10
43.704113
 20
252.767653
 30
0.0
 10
43.610013
 20
252.865533
 30
0.0
 10
43.508224
 20
252.935663
 30
0.0
 10
43.401352
 20
252.979933
 30
0.0
 10
43.291996
 20
253.000233
 30
0.0
 10
43.182766
 20
252.998433
 30
0.0
 10
43.076265
 20
252.976473
 30
0.0
 10
42.975095
 20
252.936223
 30
0.0
 10
42.881865
 20
252.879563
 30
0.0
 10
42.799175
 20
252.808403
 30
0.0
 10
42.729625
 20
252.724623
 30
0.0
 10
42.675825
 20
252.630123
 30
0.0
 10
42.640385
 20
252.526789
 30
0.0
 10
42.623315
 20
252.417262
 30
0.0
 10
42.634985
 20
252.301193
 30
0.0
 10
42.670235
 20
252.182718
 30
0.0
 10
42.734235
 20
252.062974
 30
0.0
  0
LWPOLYLINE
  5
158
100
AcDbEntity
  8
Layer_1
 62
7
100
AcDbPolyline
 90
33
 70
0
 10
43.704113
 20
252.767653
 30
0.0
 10
43.847899
 20
252.586889
 30
0.0
 10
43.991684
 20
252.406126
 30
0.0
 10
44.135470
 20
252.225362
 30
0.0
 10
44.279255
 20
252.044599
 30
0.0
 10
44.423041
 20
251.863835
 30
0.0
 10
44.566827
 20
251.683072
 30
0.0
 10
44.710612
 20
251.502308
 30
0.0
 10
44.854398
 20
251.321545
 30
0.0
 10
44.998184
 20
251.140781
 30
0.0
 10
45.141969
 20
250.960018
 30
0.0
 10
45.285755
 20
250.779254
 30
0.0
 10
45.429541
 20
250.598491
 30
0.0
 10
45.573326
 20
250.417727
 30
0.0
 10
45.717112
 20
250.236964
 30
0.0
 10
45.860897
 20
250.056200
 30
0.0
 10
46.004683
 20
249.875437
 30
0.0
 10
46.040203
 20
249.834657
 30
0.0
 10
46.078653
 20
249.797757
 30
0.0
 10
46.119733
 20
249.764787
 30
0.0
 10
46.163153
 20
249.735807
 30
0.0
 10
46.208613
 20
249.710887
 30
0.0
 10
46.255833
 20
249.690077
 30
0.0
 10
46.304513
 20
249.673447
 30
0.0
 10
46.354363
 20
249.661047
 30
0.0
 10
46.405083
 20
249.652947
 30
0.0
 10
46.456393
 20
249.649147
 30
0.0
 10
46.507983
 20
249.649806
 30
0.0
 10
46.559583
 20
249.654906
 30
0.0
 10
46.610873
 20
249.664606
 30
0.0
 10
46.661583
 20
249.678846
 30
0.0
 10
46.711413
 20
249.697746
 30
0.0
 10
46.760063
 20
249.721366
 30
0.0
  0
LWPOLYLINE
  5
159
100
AcDbEntity
  8
Layer_1
 62
7
100
AcDbPolyline
 90
17
 70
0
 10
47.199463
 20
249.945285
 30
0.0
 10
47.171673
 20
249.931935
 30
0.0
 10
47.143923
 20
249.918515
 30
0.0
 10
47.116213
 20
249.905005
 30
0.0
 10
47.088553
 20
249.891405
 30
0.0
 10
47.060933
 20
249.877715
 30
0.0
 10
47.033363
 20
249.863945
 30
0.0
 10
47.005833
 20
249.850085
 30
0.0
 10
46.978343
 20
249.836135
 30
0.0
 10
46.950903
 20
249.822105
 30
0.0
 10
46.923503
 20
249.807975
 30
0.0
 10
46.896153
 20
249.793765
 30
0.0
 10
46.868843
 20
249.779465
 30
0.0
 10
46.841573
 20
249.765075
 30
0.0
 10
46.814363
 20
249.750615
 30
0.0
 10
46.787183
 20
249.736055
 30
0.0
 10
46.760063
 20
249.721415
 30
0.0
  0
LWPOLYLINE
  5
15a
100
AcDbEntity
  8
Layer_1
 62
7
100
AcDbPolyline
 90
17
 70
0
 10
47.199463
 20
249.945285
 30
0.0
 10
47.247163
 20
249.970765
 30
0.0
 10
47.291753
 20
249.999965
 30
0.0
 10
47.333093
 20
250.032605
 30
0.0
 10
47.371063
 20
250.068435
 30
0.0
 10
47.405543
 20
250.107155
 30
0.0
 10
47.436403
 20
250.148515
 30
0.0
 10
47.463523
 20
250.192235
 30
0.0
 10
47.486783
 20
250.238035
 30
0.0
 10
47.506053
 20
250.285655
 30
0.0
 10
47.521203
 20
250.334815
 30
0.0
 10
47.532123
 20
250.385245
 30
0.0
 10
47.538723
 20
250.436675
 30
0.0
 10
47.540823
 20
250.488835
 30
0.0
 10
47.538323
 20
250.541445
 30
0.0
 10
47.531123
 20
250.594245
 30
0.0
 10
47.518993
 20
250.646955
 30
0.0
  0
LWPOLYLINE
  5
15b
100
AcDbEntity
  8
Layer_1
 62
7
100
AcDbPolyline
 90
17
 70
0
 10
47.518863
 20
250.646949
 30
0.0
 10
47.457133
 20
250.869524
 30
0.0
 10
47.395403
 20
251.092099
 30
0.0
 10
47.333673
 20
251.314674
 30
0.0
 10
47.271943
 20
251.537249
 30
0.0
 10
47.210213
 20
251.759825
 30
0.0
 10
47.148483
 20
251.982400
 30
0.0
 10
47.086753
 20
252.204975
 30
0.0
 10
47.025023
 20
252.427550
 30
0.0
 10
46.963293
 20
252.650125
 30
0.0
 10
46.901563
 20
252.872700
 30
0.0
 10
46.839833
 20
253.095275
 30
0.0
 10
46.778103
 20
253.317850
 30
0.0
 10
46.716373
 20
253.540426
 30
0.0
 10
46.654643
 20
253.763001
 30
0.0
 10
46.592913
 20
253.985576
 30
0.0
 10
46.531183
 20
254.208151
 30
0.0
  0
LWPOLYLINE
  5
15c
100
AcDbEntity
  8
Layer_1
 62
7
100
AcDbPolyline
 90
17
 70
0
 10
47.671433
 20
254.578618
 30
0.0
 10
47.612193
 20
254.700805
 30
0.0
 10
47.537063
 20
254.798965
 30
0.0
 10
47.449093
 20
254.874105
 30
0.0
 10
47.351363
 20
254.927205
 30
0.0
 10
47.246925
 20
254.959275
 30
0.0
 10
47.138842
 20
254.971305
 30
0.0
 10
47.030177
 20
254.964305
 30
0.0
 10
46.923993
 20
254.939245
 30
0.0
 10
46.823349
 20
254.897125
 30
0.0
 10
46.731309
 20
254.838925
 30
0.0
 10
46.650939
 20
254.765665
 30
0.0
 10
46.585299
 20
254.678335
 30
0.0
 10
46.537449
 20
254.577927
 30
0.0
 10
46.510449
 20
254.465435
 30
0.0
 10
46.507349
 20
254.341856
 30
0.0
 10
46.531239
 20
254.208185
 30
0.0
  0
LWPOLYLINE
  5
15d
100
AcDbEntity
  8
Layer_1
 62
7
100
AcDbPolyline
 90
33
 70
0
 10
47.671433
 20
254.578618
 30
0.0
 10
47.752323
 20
254.362269
 30
0.0
 10
47.833213
 20
254.145921
 30
0.0
 10
47.914103
 20
253.929572
 30
0.0
 10
47.994993
 20
253.713224
 30
0.0
 10
48.075883
 20
253.496875
 30
0.0
 10
48.156773
 20
253.280527
 30
0.0
 10
48.237663
 20
253.064178
 30
0.0
 10
48.318553
 20
252.847830
 30
0.0
 10
48.399443
 20
252.631481
 30
0.0
 10
48.480333
 20
252.415133
 30
0.0
 10
48.561223
 20
252.198784
 30
0.0
 10
48.642113
 20
251.982436
 30
0.0
 10
48.723003
 20
251.766087
 30
0.0
 10
48.803893
 20
251.549739
 30
0.0
 10
48.884783
 20
251.333390
 30
0.0
 10
48.965673
 20
251.117042
 30
0.0
 10
48.986843
 20
251.067282
 30
0.0
 10
49.012013
 20
251.020302
 30
0.0
 10
49.040893
 20
250.976252
 30
0.0
 10
49.073233
 20
250.935272
 30
0.0
 10
49.108773
 20
250.897522
 30
0.0
 10
49.147253
 20
250.863142
 30
0.0
 10
49.188413
 20
250.832282
 30
0.0
 10
49.231983
 20
250.805082
 30
0.0
 10
49.277723
 20
250.781702
 30
0.0
 10
49.325353
 20
250.762282
 30
0.0
 10
49.374633
 20
250.746962
 30
0.0
 10
49.425283
 20
250.735902
 30
0.0
 10
49.477053
 20
250.729202
 30
0.0
 10
49.529683
 20
250.727102
 30
0.0
 10
49.582913
 20
250.729702
 30
0.0
 10
49.636483
 20
250.737102
 30
0.0
  0
LWPOLYLINE
  5
15e
100
AcDbEntity
  8
Layer_1
 62
7
100
AcDbPolyline
 90
17
 70
0
 10
50.123553
 20
250.814261
 30
0.0
 10
50.093003
 20
250.810161
 30
0.0
 10
50.062463
 20
250.805961
 30
0.0
 10
50.031943
 20
250.801661
 30
0.0
 10
50.001433
 20
250.797261
 30
0.0
 10
49.970933
 20
250.792761
 30
0.0
 10
49.940453
 20
250.788161
 30
0.0
 10
49.909983
 20
250.783461
 30
0.0
 10
49.879533
 20
250.778661
 30
0.0
 10
49.849103
 20
250.773761
 30
0.0
 10
49.818673
 20
250.768861
 30
0.0
 10
49.788273
 20
250.763861
 30
0.0
 10
49.757883
 20
250.758661
 30
0.0
 10
49.727513
 20
250.753361
 30
0.0
 10
49.697153
 20
250.748061
 30
0.0
 10
49.666813
 20
250.742561
 30
0.0
 10
49.636493
 20
250.737061
 30
0.0
  0
LWPOLYLINE
  5
15f
100
AcDbEntity
  8
Layer_1
 62
7
100
AcDbPolyline
 90
33
 70
0
 10
50.123553
 20
250.814261
 30
0.0
 10
50.176793
 20
250.823761
 30
0.0
 10
50.228213
 20
250.837751
 30
0.0
 10
50.277613
 20
250.856031
 30
0.0
 10
50.324793
 20
250.878361
 30
0.0
 10
50.369553
 20
250.904531
 30
0.0
 10
50.411673
 20
250.934331
 30
0.0
 10
50.450973
 20
250.967531
 30
0.0
 10
50.487243
 20
251.003901
 30
0.0
 10
50.520283
 20
251.043231
 30
0.0
 10
50.549883
 20
251.085301
 30
0.0
 10
50.575853
 20
251.129891
 30
0.0
 10
50.597983
 20
251.176771
 30
0.0
 10
50.616073
 20
251.225731
 30
0.0
 10
50.629933
 20
251.276551
 30
0.0
 10
50.639333
 20
251.329011
 30
0.0
 10
50.644133
 20
251.382881
 30
0.0
 10
50.654213
 20
251.613644
 30
0.0
 10
50.664293
 20
251.844400
 30
0.0
 10
50.674373
 20
252.075155
 30
0.0
 10
50.684453
 20
252.305911
 30
0.0
 10
50.694533
 20
252.536667
 30
0.0
 10
50.704613
 20
252.767423
 30
0.0
 10
50.714693
 20
252.998179
 30
0.0
 10
50.724773
 20
253.228935
 30
0.0
 10
50.734853
 20
253.459690
 30
0.0
 10
50.744933
 20
253.690446
 30
0.0
 10
50.755013
 20
253.921202
 30
0.0
 10
50.765093
 20
254.151958
 30
0.0
 10
50.775173
 20
254.382714
 30
0.0
 10
50.785253
 20
254.613469
 30
0.0
 10
50.795323
 20
254.844225
 30
0.0
 10
50.805403
 20
255.074981
 30
0.0
  0
LWPOLYLINE
  5
160
100
AcDbEntity
  8
Layer_1
 62
7
100
AcDbPolyline
 90
17
 70
0
 10
52.004193
 20
255.074981
 30
0.0
 10
51.985583
 20
255.209476
 30
0.0
 10
51.944463
 20
255.326040
 30
0.0
 10
51.884013
 20
255.424670
 30
0.0
 10
51.807473
 20
255.505370
 30
0.0
 10
51.718063
 20
255.568140
 30
0.0
 10
51.618993
 20
255.612970
 30
0.0
 10
51.513484
 20
255.639870
 30
0.0
 10
51.404757
 20
255.648870
 30
0.0
 10
51.296031
 20
255.639870
 30
0.0
 10
51.190521
 20
255.612970
 30
0.0
 10
51.091451
 20
255.568140
 30
0.0
 10
51.002041
 20
255.505380
 30
0.0
 10
50.925501
 20
255.424680
 30
0.0
 10
50.865061
 20
255.326050
 30
0.0
 10
50.823931
 20
255.209487
 30
0.0
 10
50.805331
 20
255.074991
 30
0.0
  0
ENDSEC
  0
SECTION
  2
OBJECTS
  0
DICTIONARY
  5
C
330
0
100
AcDbDictionary
  3
ACAD_GROUP
350
D
  3
ACAD_MLINESTYLE
350
17
  0
DICTIONARY
  5
D
330
C
100
AcDbDictionary
  0
DICTIONARY
  5
1A
330
C
100
AcDbDictionary
  0
DICTIONARY
  5
17
330
C
100
AcDbDictionary
  3
STANDARD
350
18
  0
DICTIONARY
  5
19
330
C
100
AcDbDictionary
  0
ENDSEC
  0
EOF
