  0
SECTION
  2
HEADER
  9
$ACADVER
  1
AC1014
  9
$HANDSEED
  5
FFFF
  9
$MEASUREMENT
 70
     1
  0
ENDSEC
  0
SECTION
  2
TABLES
  0
TABLE
  2
VPORT
  5
8
330
0
100
AcDbSymbolTable
 70
     4
  0
VPORT
  5
2E
330
8
100
AcDbSymbolTableRecord
100
AcDbViewportTableRecord
  2
*ACTIVE
 70
     0
 10
0.0
 20
0.0
 11
1.0
 21
1.0
 12
210.0
 22
148.5
 13
0.0
 23
0.0
 14
10.0
 24
10.0
 15
10.0
 25
10.0
 16
0.0
 26
0.0
 36
1.0
 17
0.0
 27
0.0
 37
0.0
 40
341.0
 41
1.24
 42
50.0
 43
0.0
 44
0.0
 50
0.0
 51
0.0
 71
     0
 72
   100
 73
     1
 74
     3
 75
     0
 76
     0
 77
     0
 78
     0
  0
ENDTAB
  0
TABLE
  2
LTYPE
  5
5
330
0
100
AcDbSymbolTable
 70
     1
  0
LTYPE
  5
14
330
5
100
AcDbSymbolTableRecord
100
AcDbLinetypeTableRecord
  2
BYBLOCK
 70
     0
  3

 72
    65
 73
     0
 40
0.0
  0
LTYPE
  5
15
330
5
100
AcDbSymbolTableRecord
100
AcDbLinetypeTableRecord
  2
BYLAYER
 70
     0
  3

 72
    65
 73
     0
 40
0.0
  0
LTYPE
  5
16
330
5
100
AcDbSymbolTableRecord
100
AcDbLinetypeTableRecord
  2
CONTINUOUS
 70
     0
  3
Solid line
 72
    65
 73
     0
 40
0.0
  0
ENDTAB
  0
TABLE
  2
LAYER
  5
2
100
AcDbSymbolTable
 70
2
  0
LAYER
  5
50
100
AcDbSymbolTableRecord
100
AcDbLayerTableRecord
  2
0
 70
0
  6
CONTINUOUS
  0
LAYER
  5
51
100
AcDbSymbolTableRecord
100
AcDbLayerTableRecord
  2
Layer_1
 70
0
  6
CONTINUOUS
  0
ENDTAB
  0
TABLE
  2
STYLE
  5
3
330
0
100
AcDbSymbolTable
 70
     1
  0
STYLE
  5
11
330
3
100
AcDbSymbolTableRecord
100
AcDbTextStyleTableRecord
  2
STANDARD
 70
     0
 40
0.0
 41
1.0
 50
0.0
 71
     0
 42
2.5
  3
txt
  4

  0
ENDTAB
  0
TABLE
  2
VIEW
  5
6
330
0
100
AcDbSymbolTable
 70
     0
  0
ENDTAB
  0
TABLE
  2
UCS
  5
7
330
0
100
AcDbSymbolTable
 70
     0
  0
ENDTAB
  0
TABLE
  2
APPID
  5
9
330
0
100
AcDbSymbolTable
 70
     2
  0
APPID
  5
12
330
9
100
AcDbSymbolTableRecord
100
AcDbRegAppTableRecord
  2
ACAD
 70
     0
  0
ENDTAB
  0
TABLE
  2
DIMSTYLE
  5
A
330
0
100
AcDbSymbolTable
 70
     1
  0
DIMSTYLE
105
27
330
A
100
AcDbSymbolTableRecord
100
AcDbDimStyleTableRecord
  2
ISO-25
 70
     0
  3

  4

  5

  6

  7

 40
1.0
 41
2.5
 42
0.625
 43
3.75
 44
1.25
 45
0.0
 46
0.0
 47
0.0
 48
0.0
140
2.5
141
2.5
142
0.0
143
0.03937007874016
144
1.0
145
0.0
146
1.0
147
0.625
 71
     0
 72
     0
 73
     0
 74
     0
 75
     0
 76
     0
 77
     1
 78
     8
170
     0
171
     3
172
     1
173
     0
174
     0
175
     0
176
     0
177
     0
178
     0
270
     2
271
     2
272
     2
273
     2
274
     3
340
11
275
     0
280
     0
281
     0
282
     0
283
     0
284
     8
285
     0
286
     0
287
     3
288
     0
  0
ENDTAB
  0
TABLE
  2
BLOCK_RECORD
  5
1
330
0
100
AcDbSymbolTable
 70
     1
  0
BLOCK_RECORD
  5
1F
330
1
100
AcDbSymbolTableRecord
100
AcDbBlockTableRecord
  2
*MODEL_SPACE
  0
BLOCK_RECORD
  5
1B
330
1
100
AcDbSymbolTableRecord
100
AcDbBlockTableRecord
  2
*PAPER_SPACE
  0
ENDTAB
  0
ENDSEC
  0
SECTION
  2
BLOCKS
  0
BLOCK
  5
20
330
1F
100
AcDbEntity
  8
0
100
AcDbBlockBegin
  2
*MODEL_SPACE
 70
     0
 10
0.0
 20
0.0
 30
0.0
  3
*MODEL_SPACE
  1

  0
ENDBLK
  5
21
330
1F
100
AcDbEntity
  8
0
100
AcDbBlockEnd
  0
BLOCK
  5
1C
330
1B
100
AcDbEntity
 67
     1
  8
0
100
AcDbBlockBegin
  2
*PAPER_SPACE
  1

  0
ENDBLK
  5
1D
330
1B
100
AcDbEntity
 67
     1
  8
0
100
AcDbBlockEnd
  0
ENDSEC
  0
SECTION
  2
ENTITIES
  0
LWPOLYLINE
  5
100
100
AcDbEntity
  8
Layer_1
 62
7
100
AcDbPolyline
 90
65
 70
1
 10
71.268258
 20
201.463188
 30
0.0
 10
71.243738
 20
200.977528
 30
0.0
 10
71.171758
 20
200.505898
 30
0.0
 10
71.054711
 20
200.050684
 30
0.0
 10
70.894983
 20
199.614274
 30
0.0
 10
70.694962
 20
199.199057
 30
0.0
 10
70.457036
 20
198.807419
 30
0.0
 10
70.183592
 20
198.441748
 30
0.0
 10
69.877018
 20
198.104432
 30
0.0
 10
69.539702
 20
197.797858
 30
0.0
 10
69.174031
 20
197.524415
 30
0.0
 10
68.782393
 20
197.286489
 30
0.0
 10
68.367175
 20
197.086468
 30
0.0
 10
67.930765
 20
196.926740
 30
0.0
 10
67.475552
 20
196.809690
 30
0.0
 10
67.003921
 20
196.737690
 30
0.0
 10
66.518261
 20
196.713190
 30
0.0
 10
66.032601
 20
196.737690
 30
0.0
 10
65.560971
 20
196.809690
 30
0.0
 10
65.105757
 20
196.926740
 30
0.0
 10
64.669347
 20
197.086468
 30
0.0
 10
64.254130
 20
197.286489
 30
0.0
 10
63.862492
 20
197.524415
 30
0.0
 10
63.496821
 20
197.797859
 30
0.0
 10
63.159505
 20
198.104432
 30
0.0
 10
62.852931
 20
198.441748
 30
0.0
 10
62.579487
 20
198.807419
 30
0.0
 10
62.341561
 20
199.199057
 30
0.0
 10
62.141540
 20
199.614274
 30
0.0
 10
61.981812
 20
200.050684
 30
0.0
 10
61.864765
 20
200.505898
 30
0.0
 10
61.792785
 20
200.977528
 30
0.0
 10
61.768265
 20
201.463188
 30
0.0
 10
61.792785
 20
201.948848
 30
0.0
 10
61.864765
 20
202.420479
 30
0.0
 10
61.981812
 20
202.875693
 30
0.0
 10
62.141540
 20
203.312103
 30
0.0
 10
62.341561
 20
203.727320
 30
0.0
 10
62.579487
 20
204.118959
 30
0.0
 10
62.852930
 20
204.484630
 30
0.0
 10
63.159504
 20
204.821946
 30
0.0
 10
63.496820
 20
205.128519
 30
0.0
 10
63.862491
 20
205.401963
 30
0.0
 10
64.254130
 20
205.639889
 30
0.0
 10
64.669347
 20
205.839910
 30
0.0
 10
65.105757
 20
205.999638
 30
0.0
 10
65.560971
 20
206.116686
 30
0.0
 10
66.032602
 20
206.188666
 30
0.0
 10
66.518262
 20
206.213186
 30
0.0
 10
67.003922
 20
206.188666
 30
0.0
 10
67.475553
 20
206.116686
 30
0.0
 10
67.930767
 20
205.999638
 30
0.0
 10
68.367177
 20
205.839911
 30
0.0
 10
68.782395
 20
205.639890
 30
0.0
 10
69.174033
 20
205.401964
 30
0.0
 10
69.539704
 20
205.128520
 30
0.0
 10
69.877020
 20
204.821946
 30
0.0
 10
70.183594
 20
204.484630
 30
0.0
 10
70.457038
 20
204.118959
 30
0.0
 10
70.694964
 20
203.727321
 30
0.0
 10
70.894985
 20
203.312103
 30
0.0
 10
71.054713
 20
202.875693
 30
0.0
 10
71.171760
 20
202.420479
 30
0.0
 10
71.243740
 20
201.948848
 30
0.0
 10
71.268260
 20
201.463188
 30
0.0
  0
LWPOLYLINE
  5
101
100
AcDbEntity
  8
Layer_1
 62
7
100
AcDbPolyline
 90
65
 70
1
 10
75.668257
 20
201.463188
 30
0.0
 10
75.621017
 20
200.527654
 30
0.0
 10
75.482362
 20
199.619144
 30
0.0
 10
75.256892
 20
198.742258
 30
0.0
 10
74.949205
 20
197.901596
 30
0.0
 10
74.563902
 20
197.101755
 30
0.0
 10
74.105581
 20
196.347340
 30
0.0
 10
73.578842
 20
195.642940
 30
0.0
 10
72.988284
 20
194.993160
 30
0.0
 10
72.338507
 20
194.402600
 30
0.0
 10
71.634109
 20
193.875870
 30
0.0
 10
70.879691
 20
193.417550
 30
0.0
 10
70.079851
 20
193.032240
 30
0.0
 10
69.239188
 20
192.724560
 30
0.0
 10
68.362302
 20
192.499090
 30
0.0
 10
67.453792
 20
192.360430
 30
0.0
 10
66.518258
 20
192.313230
 30
0.0
 10
65.582724
 20
192.360430
 30
0.0
 10
64.674214
 20
192.499090
 30
0.0
 10
63.797328
 20
192.724560
 30
0.0
 10
62.956666
 20
193.032240
 30
0.0
 10
62.156826
 20
193.417550
 30
0.0
 10
61.402407
 20
193.875870
 30
0.0
 10
60.698009
 20
194.402600
 30
0.0
 10
60.048232
 20
194.993160
 30
0.0
 10
59.457674
 20
195.642940
 30
0.0
 10
58.930936
 20
196.347340
 30
0.0
 10
58.472615
 20
197.101756
 30
0.0
 10
58.087312
 20
197.901596
 30
0.0
 10
57.779625
 20
198.742259
 30
0.0
 10
57.554155
 20
199.619144
 30
0.0
 10
57.415500
 20
200.527654
 30
0.0
 10
57.368260
 20
201.463188
 30
0.0
 10
57.415500
 20
202.398722
 30
0.0
 10
57.554155
 20
203.307232
 30
0.0
 10
57.779625
 20
204.184118
 30
0.0
 10
58.087312
 20
205.024781
 30
0.0
 10
58.472615
 20
205.824621
 30
0.0
 10
58.930936
 20
206.579040
 30
0.0
 10
59.457675
 20
207.283437
 30
0.0
 10
60.048232
 20
207.933215
 30
0.0
 10
60.698010
 20
208.523773
 30
0.0
 10
61.402407
 20
209.050511
 30
0.0
 10
62.156826
 20
209.508832
 30
0.0
 10
62.956666
 20
209.894135
 30
0.0
 10
63.797329
 20
210.201822
 30
0.0
 10
64.674215
 20
210.427292
 30
0.0
 10
65.582725
 20
210.565948
 30
0.0
 10
66.518259
 20
210.613188
 30
0.0
 10
67.453793
 20
210.565948
 30
0.0
 10
68.362303
 20
210.427293
 30
0.0
 10
69.239189
 20
210.201822
 30
0.0
 10
70.079852
 20
209.894136
 30
0.0
 10
70.879693
 20
209.508833
 30
0.0
 10
71.634111
 20
209.050512
 30
0.0
 10
72.338509
 20
208.523773
 30
0.0
 10
72.988286
 20
207.933215
 30
0.0
 10
73.578844
 20
207.283438
 30
0.0
 10
74.105583
 20
206.579040
 30
0.0
 10
74.563904
 20
205.824621
 30
0.0
 10
74.949207
 20
205.024781
 30
0.0
 10
75.256893
 20
204.184118
 30
0.0
 10
75.482364
 20
203.307232
 30
0.0
 10
75.621019
 20
202.398722
 30
0.0
 10
75.668259
 20
201.463188
 30
0.0
  0
LWPOLYLINE
  5
102
100
AcDbEntity
  8
Layer_1
 62
7
100
AcDbPolyline
 90
65
 70
1
 10
75.182317
 20
201.465225
 30
0.0
 10
75.137597
 20
200.579582
 30
0.0
 10
75.006337
 20
199.719523
 30
0.0
 10
74.792891
 20
198.889401
 30
0.0
 10
74.501614
 20
198.093570
 30
0.0
 10
74.136859
 20
197.336385
 30
0.0
 10
73.702981
 20
196.622200
 30
0.0
 10
73.204333
 20
195.955370
 30
0.0
 10
72.645270
 20
195.340240
 30
0.0
 10
72.030145
 20
194.781180
 30
0.0
 10
71.363313
 20
194.282530
 30
0.0
 10
70.649127
 20
193.848650
 30
0.0
 10
69.891942
 20
193.483900
 30
0.0
 10
69.096112
 20
193.192620
 30
0.0
 10
68.265990
 20
192.979170
 30
0.0
 10
67.405931
 20
192.847910
 30
0.0
 10
66.520288
 20
192.803210
 30
0.0
 10
65.634645
 20
192.847910
 30
0.0
 10
64.774586
 20
192.979170
 30
0.0
 10
63.944464
 20
193.192620
 30
0.0
 10
63.148634
 20
193.483900
 30
0.0
 10
62.391448
 20
193.848650
 30
0.0
 10
61.677263
 20
194.282530
 30
0.0
 10
61.010430
 20
194.781180
 30
0.0
 10
60.395305
 20
195.340240
 30
0.0
 10
59.836242
 20
195.955370
 30
0.0
 10
59.337594
 20
196.622200
 30
0.0
 10
58.903716
 20
197.336385
 30
0.0
 10
58.538961
 20
198.093570
 30
0.0
 10
58.247684
 20
198.889401
 30
0.0
 10
58.034238
 20
199.719523
 30
0.0
 10
57.902978
 20
200.579582
 30
0.0
 10
57.858258
 20
201.465225
 30
0.0
 10
57.902978
 20
202.350867
 30
0.0
 10
58.034238
 20
203.210926
 30
0.0
 10
58.247685
 20
204.041048
 30
0.0
 10
58.538962
 20
204.836878
 30
0.0
 10
58.903718
 20
205.594063
 30
0.0
 10
59.337596
 20
206.308249
 30
0.0
 10
59.836244
 20
206.975081
 30
0.0
 10
60.395307
 20
207.590205
 30
0.0
 10
61.010432
 20
208.149269
 30
0.0
 10
61.677264
 20
208.647917
 30
0.0
 10
62.391449
 20
209.081795
 30
0.0
 10
63.148634
 20
209.446550
 30
0.0
 10
63.944464
 20
209.737827
 30
0.0
 10
64.774586
 20
209.951273
 30
0.0
 10
65.634645
 20
210.082534
 30
0.0
 10
66.520287
 20
210.127254
 30
0.0
 10
67.405929
 20
210.082534
 30
0.0
 10
68.265988
 20
209.951273
 30
0.0
 10
69.096110
 20
209.737827
 30
0.0
 10
69.891940
 20
209.446550
 30
0.0
 10
70.649124
 20
209.081795
 30
0.0
 10
71.363310
 20
208.647916
 30
0.0
 10
72.030142
 20
208.149268
 30
0.0
 10
72.645266
 20
207.590205
 30
0.0
 10
73.204329
 20
206.975080
 30
0.0
 10
73.702977
 20
206.308248
 30
0.0
 10
74.136856
 20
205.594063
 30
0.0
 10
74.501611
 20
204.836878
 30
0.0
 10
74.792888
 20
204.041048
 30
0.0
 10
75.006335
 20
203.210926
 30
0.0
 10
75.137595
 20
202.350867
 30
0.0
 10
75.182315
 20
201.465225
 30
0.0
  0
LWPOLYLINE
  5
103
100
AcDbEntity
  8
Layer_1
 62
7
100
AcDbPolyline
 90
65
 70
1
 10
74.692257
 20
201.463188
 30
0.0
 10
74.650057
 20
200.627444
 30
0.0
 10
74.526192
 20
199.815842
 30
0.0
 10
74.324772
 20
199.032491
 30
0.0
 10
74.049905
 20
198.281499
 30
0.0
 10
73.705701
 20
197.566975
 30
0.0
 10
73.296268
 20
196.893030
 30
0.0
 10
72.825714
 20
196.263770
 30
0.0
 10
72.298149
 20
195.683300
 30
0.0
 10
71.717681
 20
195.155730
 30
0.0
 10
71.088420
 20
194.685180
 30
0.0
 10
70.414472
 20
194.275750
 30
0.0
 10
69.699948
 20
193.931540
 30
0.0
 10
68.948956
 20
193.656680
 30
0.0
 10
68.165605
 20
193.455260
 30
0.0
 10
67.354003
 20
193.331390
 30
0.0
 10
66.518259
 20
193.289190
 30
0.0
 10
65.682515
 20
193.331390
 30
0.0
 10
64.870913
 20
193.455260
 30
0.0
 10
64.087562
 20
193.656680
 30
0.0
 10
63.336570
 20
193.931540
 30
0.0
 10
62.622046
 20
194.275750
 30
0.0
 10
61.948098
 20
194.685180
 30
0.0
 10
61.318837
 20
195.155730
 30
0.0
 10
60.738369
 20
195.683300
 30
0.0
 10
60.210804
 20
196.263770
 30
0.0
 10
59.740250
 20
196.893030
 30
0.0
 10
59.330817
 20
197.566975
 30
0.0
 10
58.986613
 20
198.281499
 30
0.0
 10
58.711746
 20
199.032491
 30
0.0
 10
58.510326
 20
199.815842
 30
0.0
 10
58.386461
 20
200.627444
 30
0.0
 10
58.344261
 20
201.463188
 30
0.0
 10
58.386461
 20
202.298932
 30
0.0
 10
58.510326
 20
203.110534
 30
0.0
 10
58.711746
 20
203.893886
 30
0.0
 10
58.986613
 20
204.644878
 30
0.0
 10
59.330817
 20
205.359402
 30
0.0
 10
59.740250
 20
206.033349
 30
0.0
 10
60.210804
 20
206.662611
 30
0.0
 10
60.738369
 20
207.243079
 30
0.0
 10
61.318837
 20
207.770644
 30
0.0
 10
61.948099
 20
208.241197
 30
0.0
 10
62.622046
 20
208.650630
 30
0.0
 10
63.336570
 20
208.994835
 30
0.0
 10
64.087562
 20
209.269701
 30
0.0
 10
64.870914
 20
209.471121
 30
0.0
 10
65.682516
 20
209.594987
 30
0.0
 10
66.518260
 20
209.637187
 30
0.0
 10
67.354004
 20
209.594987
 30
0.0
 10
68.165606
 20
209.471121
 30
0.0
 10
68.948958
 20
209.269701
 30
0.0
 10
69.699950
 20
208.994835
 30
0.0
 10
70.414474
 20
208.650630
 30
0.0
 10
71.088421
 20
208.241197
 30
0.0
 10
71.717683
 20
207.770644
 30
0.0
 10
72.298151
 20
207.243079
 30
0.0
 10
72.825716
 20
206.662611
 30
0.0
 10
73.296270
 20
206.033349
 30
0.0
 10
73.705703
 20
205.359402
 30
0.0
 10
74.049907
 20
204.644878
 30
0.0
 10
74.324774
 20
203.893886
 30
0.0
 10
74.526194
 20
203.110534
 30
0.0
 10
74.650059
 20
202.298932
 30
0.0
 10
74.692259
 20
201.463188
 30
0.0
  0
LWPOLYLINE
  5
104
100
AcDbEntity
  8
Layer_1
 62
7
100
AcDbPolyline
 90
64
 70
1
 10
74.204257
 20
201.463188
 30
0.0
 10
74.164577
 20
200.677339
 30
0.0
 10
74.048106
 20
199.914191
 30
0.0
 10
73.858711
 20
199.177607
 30
0.0
 10
73.600254
 20
198.471451
 30
0.0
 10
73.276600
 20
197.799585
 30
0.0
 10
72.891610
 20
197.165873
 30
0.0
 10
72.449150
 20
196.574180
 30
0.0
 10
71.953081
 20
196.028370
 30
0.0
 10
71.407268
 20
195.532300
 30
0.0
 10
70.815574
 20
195.089840
 30
0.0
 10
70.181862
 20
194.704850
 30
0.0
 10
69.509997
 20
194.381190
 30
0.0
 10
68.803840
 20
194.122740
 30
0.0
 10
68.067256
 20
193.933340
 30
0.0
 10
67.304108
 20
193.816870
 30
0.0
 10
66.518259
 20
193.777170
 30
0.0
 10
65.732410
 20
193.816870
 30
0.0
 10
64.969262
 20
193.933340
 30
0.0
 10
64.232678
 20
194.122740
 30
0.0
 10
63.526521
 20
194.381190
 30
0.0
 10
62.854656
 20
194.704850
 30
0.0
 10
62.220944
 20
195.089840
 30
0.0
 10
61.629250
 20
195.532300
 30
0.0
 10
61.083437
 20
196.028370
 30
0.0
 10
60.587368
 20
196.574180
 30
0.0
 10
60.144908
 20
197.165873
 30
0.0
 10
59.759918
 20
197.799585
 30
0.0
 10
59.436264
 20
198.471451
 30
0.0
 10
59.177807
 20
199.177607
 30
0.0
 10
58.988412
 20
199.914191
 30
0.0
 10
58.871941
 20
200.677339
 30
0.0
 10
58.832261
 20
201.463188
 30
0.0
 10
58.871941
 20
202.249037
 30
0.0
 10
58.988411
 20
203.012185
 30
0.0
 10
59.177806
 20
203.748769
 30
0.0
 10
59.436263
 20
204.454926
 30
0.0
 10
59.759917
 20
205.126792
 30
0.0
 10
60.144907
 20
205.760504
 30
0.0
 10
60.587367
 20
206.352198
 30
0.0
 10
61.083436
 20
206.898011
 30
0.0
 10
61.629249
 20
207.394079
 30
0.0
 10
62.220943
 20
207.836540
 30
0.0
 10
62.854655
 20
208.221529
 30
0.0
 10
63.526521
 20
208.545184
 30
0.0
 10
64.232678
 20
208.803641
 30
0.0
 10
64.969262
 20
208.993036
 30
0.0
 10
65.732410
 20
209.109506
 30
0.0
 10
66.518259
 20
209.149186
 30
0.0
 10
67.304108
 20
209.109506
 30
0.0
 10
68.067256
 20
208.993036
 30
0.0
 10
68.803840
 20
208.803641
 30
0.0
 10
69.509997
 20
208.545184
 30
0.0
 10
70.181863
 20
208.221529
 30
0.0
 10
70.815575
 20
207.836540
 30
0.0
 10
71.407269
 20
207.394079
 30
0.0
 10
71.953082
 20
206.898011
 30
0.0
 10
72.449151
 20
206.352198
 30
0.0
 10
72.891611
 20
205.760504
 30
0.0
 10
73.276601
 20
205.126792
 30
0.0
 10
73.600255
 20
204.454926
 30
0.0
 10
73.858712
 20
203.748769
 30
0.0
 10
74.048107
 20
203.012185
 30
0.0
 10
74.164577
 20
202.249037
 30
0.0
  0
LWPOLYLINE
  5
105
100
AcDbEntity
  8
Layer_1
 62
7
100
AcDbPolyline
 90
65
 70
1
 10
73.228411
 20
201.463188
 30
0.0
 10
73.193771
 20
200.777113
 30
0.0
 10
73.092088
 20
200.110857
 30
0.0
 10
72.926740
 20
199.467793
 30
0.0
 10
72.701098
 20
198.851292
 30
0.0
 10
72.418536
 20
198.264729
 30
0.0
 10
72.082426
 20
197.711475
 30
0.0
 10
71.696142
 20
197.194905
 30
0.0
 10
71.263057
 20
196.718390
 30
0.0
 10
70.786542
 20
196.285300
 30
0.0
 10
70.269972
 20
195.899020
 30
0.0
 10
69.716719
 20
195.562910
 30
0.0
 10
69.130156
 20
195.280350
 30
0.0
 10
68.513655
 20
195.054710
 30
0.0
 10
67.870591
 20
194.889360
 30
0.0
 10
67.204335
 20
194.787670
 30
0.0
 10
66.518260
 20
194.753070
 30
0.0
 10
65.832185
 20
194.787670
 30
0.0
 10
65.165929
 20
194.889360
 30
0.0
 10
64.522865
 20
195.054710
 30
0.0
 10
63.906364
 20
195.280350
 30
0.0
 10
63.319801
 20
195.562910
 30
0.0
 10
62.766548
 20
195.899020
 30
0.0
 10
62.249978
 20
196.285300
 30
0.0
 10
61.773463
 20
196.718390
 30
0.0
 10
61.340378
 20
197.194905
 30
0.0
 10
60.954094
 20
197.711475
 30
0.0
 10
60.617984
 20
198.264729
 30
0.0
 10
60.335422
 20
198.851292
 30
0.0
 10
60.109780
 20
199.467793
 30
0.0
 10
59.944432
 20
200.110857
 30
0.0
 10
59.842749
 20
200.777113
 30
0.0
 10
59.808109
 20
201.463188
 30
0.0
 10
59.842749
 20
202.149262
 30
0.0
 10
59.944432
 20
202.815518
 30
0.0
 10
60.109781
 20
203.458583
 30
0.0
 10
60.335423
 20
204.075083
 30
0.0
 10
60.617985
 20
204.661646
 30
0.0
 10
60.954095
 20
205.214899
 30
0.0
 10
61.340379
 20
205.731469
 30
0.0
 10
61.773464
 20
206.207983
 30
0.0
 10
62.249979
 20
206.641069
 30
0.0
 10
62.766549
 20
207.027353
 30
0.0
 10
63.319802
 20
207.363463
 30
0.0
 10
63.906365
 20
207.646025
 30
0.0
 10
64.522865
 20
207.871667
 30
0.0
 10
65.165929
 20
208.037016
 30
0.0
 10
65.832185
 20
208.138698
 30
0.0
 10
66.518259
 20
208.173338
 30
0.0
 10
67.204333
 20
208.138698
 30
0.0
 10
67.870589
 20
208.037016
 30
0.0
 10
68.513653
 20
207.871667
 30
0.0
 10
69.130153
 20
207.646025
 30
0.0
 10
69.716716
 20
207.363463
 30
0.0
 10
70.269969
 20
207.027353
 30
0.0
 10
70.786539
 20
206.641069
 30
0.0
 10
71.263054
 20
206.207983
 30
0.0
 10
71.696139
 20
205.731469
 30
0.0
 10
72.082423
 20
205.214899
 30
0.0
 10
72.418533
 20
204.661646
 30
0.0
 10
72.701095
 20
204.075083
 30
0.0
 10
72.926737
 20
203.458583
 30
0.0
 10
73.092086
 20
202.815518
 30
0.0
 10
73.193769
 20
202.149262
 30
0.0
 10
73.228409
 20
201.463188
 30
0.0
  0
LWPOLYLINE
  5
106
100
AcDbEntity
  8
Layer_1
 62
7
100
AcDbPolyline
 90
65
 70
1
 10
73.716381
 20
201.463188
 30
0.0
 10
73.679221
 20
200.727221
 30
0.0
 10
73.570144
 20
200.012514
 30
0.0
 10
73.392772
 20
199.322685
 30
0.0
 10
73.150721
 20
198.661352
 30
0.0
 10
72.847611
 20
198.032133
 30
0.0
 10
72.487059
 20
197.438646
 30
0.0
 10
72.072684
 20
196.884510
 30
0.0
 10
71.608104
 20
196.373340
 30
0.0
 10
71.096937
 20
195.908760
 30
0.0
 10
70.542801
 20
195.494390
 30
0.0
 10
69.949315
 20
195.133840
 30
0.0
 10
69.320096
 20
194.830720
 30
0.0
 10
68.658763
 20
194.588670
 30
0.0
 10
67.968934
 20
194.411300
 30
0.0
 10
67.254227
 20
194.302220
 30
0.0
 10
66.518260
 20
194.265020
 30
0.0
 10
65.782293
 20
194.302220
 30
0.0
 10
65.067587
 20
194.411300
 30
0.0
 10
64.377758
 20
194.588670
 30
0.0
 10
63.716425
 20
194.830720
 30
0.0
 10
63.087206
 20
195.133840
 30
0.0
 10
62.493720
 20
195.494390
 30
0.0
 10
61.939584
 20
195.908760
 30
0.0
 10
61.428417
 20
196.373340
 30
0.0
 10
60.963837
 20
196.884510
 30
0.0
 10
60.549462
 20
197.438647
 30
0.0
 10
60.188910
 20
198.032133
 30
0.0
 10
59.885800
 20
198.661352
 30
0.0
 10
59.643749
 20
199.322685
 30
0.0
 10
59.466376
 20
200.012514
 30
0.0
 10
59.357300
 20
200.727221
 30
0.0
 10
59.320140
 20
201.463188
 30
0.0
 10
59.357300
 20
202.199154
 30
0.0
 10
59.466377
 20
202.913861
 30
0.0
 10
59.643750
 20
203.603690
 30
0.0
 10
59.885801
 20
204.265023
 30
0.0
 10
60.188912
 20
204.894241
 30
0.0
 10
60.549463
 20
205.487727
 30
0.0
 10
60.963838
 20
206.041863
 30
0.0
 10
61.428418
 20
206.553030
 30
0.0
 10
61.939585
 20
207.017610
 30
0.0
 10
62.493721
 20
207.431985
 30
0.0
 10
63.087207
 20
207.792537
 30
0.0
 10
63.716425
 20
208.095648
 30
0.0
 10
64.377758
 20
208.337698
 30
0.0
 10
65.067586
 20
208.515072
 30
0.0
 10
65.782293
 20
208.624149
 30
0.0
 10
66.518259
 20
208.661309
 30
0.0
 10
67.254225
 20
208.624149
 30
0.0
 10
67.968932
 20
208.515072
 30
0.0
 10
68.658761
 20
208.337699
 30
0.0
 10
69.320093
 20
208.095648
 30
0.0
 10
69.949312
 20
207.792537
 30
0.0
 10
70.542798
 20
207.431986
 30
0.0
 10
71.096934
 20
207.017611
 30
0.0
 10
71.608100
 20
206.553030
 30
0.0
 10
72.072680
 20
206.041863
 30
0.0
 10
72.487055
 20
205.487728
 30
0.0
 10
72.847607
 20
204.894241
 30
0.0
 10
73.150718
 20
204.265023
 30
0.0
 10
73.392769
 20
203.603690
 30
0.0
 10
73.570142
 20
202.913861
 30
0.0
 10
73.679219
 20
202.199154
 30
0.0
 10
73.716379
 20
201.463188
 30
0.0
  0
LWPOLYLINE
  5
107
100
AcDbEntity
  8
Layer_1
 62
7
100
AcDbPolyline
 90
65
 70
1
 10
72.740442
 20
201.463188
 30
0.0
 10
72.708322
 20
200.827006
 30
0.0
 10
72.614032
 20
200.209200
 30
0.0
 10
72.460708
 20
199.612900
 30
0.0
 10
72.251475
 20
199.041232
 30
0.0
 10
71.989461
 20
198.497324
 30
0.0
 10
71.677794
 20
197.984304
 30
0.0
 10
71.319600
 20
197.505299
 30
0.0
 10
70.918009
 20
197.063437
 30
0.0
 10
70.476147
 20
196.661850
 30
0.0
 10
69.997143
 20
196.303650
 30
0.0
 10
69.484123
 20
195.991980
 30
0.0
 10
68.940215
 20
195.729970
 30
0.0
 10
68.368547
 20
195.520740
 30
0.0
 10
67.772247
 20
195.367410
 30
0.0
 10
67.154441
 20
195.273110
 30
0.0
 10
66.518259
 20
195.241010
 30
0.0
 10
65.882077
 20
195.273110
 30
0.0
 10
65.264271
 20
195.367410
 30
0.0
 10
64.667971
 20
195.520740
 30
0.0
 10
64.096303
 20
195.729970
 30
0.0
 10
63.552395
 20
195.991980
 30
0.0
 10
63.039375
 20
196.303650
 30
0.0
 10
62.560371
 20
196.661850
 30
0.0
 10
62.118509
 20
197.063437
 30
0.0
 10
61.716918
 20
197.505299
 30
0.0
 10
61.358724
 20
197.984304
 30
0.0
 10
61.047057
 20
198.497324
 30
0.0
 10
60.785043
 20
199.041232
 30
0.0
 10
60.575810
 20
199.612900
 30
0.0
 10
60.422486
 20
200.209200
 30
0.0
 10
60.328196
 20
200.827006
 30
0.0
 10
60.296076
 20
201.463188
 30
0.0
 10
60.328206
 20
202.099370
 30
0.0
 10
60.422496
 20
202.717175
 30
0.0
 10
60.575821
 20
203.313475
 30
0.0
 10
60.785054
 20
203.885143
 30
0.0
 10
61.047068
 20
204.429051
 30
0.0
 10
61.358735
 20
204.942071
 30
0.0
 10
61.716928
 20
205.421075
 30
0.0
 10
62.118519
 20
205.862937
 30
0.0
 10
62.560381
 20
206.264528
 30
0.0
 10
63.039386
 20
206.622721
 30
0.0
 10
63.552405
 20
206.934389
 30
0.0
 10
64.096313
 20
207.196403
 30
0.0
 10
64.667981
 20
207.405636
 30
0.0
 10
65.264281
 20
207.558960
 30
0.0
 10
65.882086
 20
207.653250
 30
0.0
 10
66.518268
 20
207.685370
 30
0.0
 10
67.154450
 20
207.653250
 30
0.0
 10
67.772255
 20
207.558960
 30
0.0
 10
68.368555
 20
207.405636
 30
0.0
 10
68.940223
 20
207.196403
 30
0.0
 10
69.484131
 20
206.934389
 30
0.0
 10
69.997150
 20
206.622722
 30
0.0
 10
70.476155
 20
206.264528
 30
0.0
 10
70.918017
 20
205.862937
 30
0.0
 10
71.319608
 20
205.421075
 30
0.0
 10
71.677801
 20
204.942071
 30
0.0
 10
71.989468
 20
204.429051
 30
0.0
 10
72.251482
 20
203.885143
 30
0.0
 10
72.460715
 20
203.313475
 30
0.0
 10
72.614040
 20
202.717175
 30
0.0
 10
72.708330
 20
202.099370
 30
0.0
 10
72.740460
 20
201.463188
 30
0.0
  0
LWPOLYLINE
  5
108
100
AcDbEntity
  8
Layer_1
 62
7
100
AcDbPolyline
 90
65
 70
1
 10
72.252473
 20
201.463188
 30
0.0
 10
72.222873
 20
200.876898
 30
0.0
 10
72.135983
 20
200.307543
 30
0.0
 10
71.994683
 20
199.758007
 30
0.0
 10
71.801859
 20
199.231172
 30
0.0
 10
71.560393
 20
198.729919
 30
0.0
 10
71.273168
 20
198.257132
 30
0.0
 10
70.943066
 20
197.815693
 30
0.0
 10
70.572969
 20
197.408484
 30
0.0
 10
70.165760
 20
197.038387
 30
0.0
 10
69.724320
 20
196.708280
 30
0.0
 10
69.251533
 20
196.421060
 30
0.0
 10
68.750281
 20
196.179590
 30
0.0
 10
68.223446
 20
195.986770
 30
0.0
 10
67.673910
 20
195.845470
 30
0.0
 10
67.104555
 20
195.758570
 30
0.0
 10
66.518265
 20
195.728970
 30
0.0
 10
65.931975
 20
195.758570
 30
0.0
 10
65.362620
 20
195.845470
 30
0.0
 10
64.813084
 20
195.986770
 30
0.0
 10
64.286249
 20
196.179590
 30
0.0
 10
63.784997
 20
196.421060
 30
0.0
 10
63.312210
 20
196.708280
 30
0.0
 10
62.870770
 20
197.038387
 30
0.0
 10
62.463561
 20
197.408484
 30
0.0
 10
62.093464
 20
197.815693
 30
0.0
 10
61.763362
 20
198.257132
 30
0.0
 10
61.476137
 20
198.729919
 30
0.0
 10
61.234671
 20
199.231172
 30
0.0
 10
61.041847
 20
199.758007
 30
0.0
 10
60.900547
 20
200.307543
 30
0.0
 10
60.813657
 20
200.876898
 30
0.0
 10
60.784057
 20
201.463188
 30
0.0
 10
60.813657
 20
202.049478
 30
0.0
 10
60.900547
 20
202.618833
 30
0.0
 10
61.041847
 20
203.168368
 30
0.0
 10
61.234672
 20
203.695204
 30
0.0
 10
61.476137
 20
204.196456
 30
0.0
 10
61.763363
 20
204.669243
 30
0.0
 10
62.093465
 20
205.110682
 30
0.0
 10
62.463561
 20
205.517891
 30
0.0
 10
62.870771
 20
205.887988
 30
0.0
 10
63.312210
 20
206.218090
 30
0.0
 10
63.784996
 20
206.505315
 30
0.0
 10
64.286249
 20
206.746781
 30
0.0
 10
64.813084
 20
206.939605
 30
0.0
 10
65.362620
 20
207.080905
 30
0.0
 10
65.931974
 20
207.167795
 30
0.0
 10
66.518264
 20
207.197405
 30
0.0
 10
67.104554
 20
207.167795
 30
0.0
 10
67.673908
 20
207.080905
 30
0.0
 10
68.223444
 20
206.939605
 30
0.0
 10
68.750279
 20
206.746781
 30
0.0
 10
69.251532
 20
206.505315
 30
0.0
 10
69.724318
 20
206.218090
 30
0.0
 10
70.165757
 20
205.887988
 30
0.0
 10
70.572967
 20
205.517891
 30
0.0
 10
70.943063
 20
205.110682
 30
0.0
 10
71.273165
 20
204.669243
 30
0.0
 10
71.560391
 20
204.196456
 30
0.0
 10
71.801856
 20
203.695204
 30
0.0
 10
71.994681
 20
203.168368
 30
0.0
 10
72.135981
 20
202.618833
 30
0.0
 10
72.222871
 20
202.049478
 30
0.0
 10
72.252471
 20
201.463188
 30
0.0
  0
LWPOLYLINE
  5
109
100
AcDbEntity
  8
Layer_1
 62
7
100
AcDbPolyline
 90
64
 70
1
 10
71.764504
 20
201.463188
 30
0.0
 10
71.737414
 20
200.926790
 30
0.0
 10
71.657914
 20
200.405886
 30
0.0
 10
71.528638
 20
199.903114
 30
0.0
 10
71.352223
 20
199.421112
 30
0.0
 10
71.131306
 20
198.962515
 30
0.0
 10
70.868523
 20
198.529961
 30
0.0
 10
70.566512
 20
198.126087
 30
0.0
 10
70.227909
 20
197.753530
 30
0.0
 10
69.855353
 20
197.414928
 30
0.0
 10
69.451479
 20
197.112917
 30
0.0
 10
69.018925
 20
196.850130
 30
0.0
 10
68.560328
 20
196.629220
 30
0.0
 10
68.078326
 20
196.452800
 30
0.0
 10
67.575554
 20
196.323530
 30
0.0
 10
67.054650
 20
196.244030
 30
0.0
 10
66.518252
 20
196.216930
 30
0.0
 10
65.981854
 20
196.244030
 30
0.0
 10
65.460950
 20
196.323530
 30
0.0
 10
64.958178
 20
196.452800
 30
0.0
 10
64.476176
 20
196.629220
 30
0.0
 10
64.017579
 20
196.850130
 30
0.0
 10
63.585025
 20
197.112917
 30
0.0
 10
63.181151
 20
197.414928
 30
0.0
 10
62.808595
 20
197.753531
 30
0.0
 10
62.469992
 20
198.126087
 30
0.0
 10
62.167981
 20
198.529961
 30
0.0
 10
61.905198
 20
198.962515
 30
0.0
 10
61.684281
 20
199.421112
 30
0.0
 10
61.507866
 20
199.903114
 30
0.0
 10
61.378590
 20
200.405886
 30
0.0
 10
61.299090
 20
200.926790
 30
0.0
 10
61.272000
 20
201.463188
 30
0.0
 10
61.299090
 20
201.999586
 30
0.0
 10
61.378590
 20
202.520490
 30
0.0
 10
61.507866
 20
203.023261
 30
0.0
 10
61.684281
 20
203.505264
 30
0.0
 10
61.905199
 20
203.963861
 30
0.0
 10
62.167982
 20
204.396415
 30
0.0
 10
62.469993
 20
204.800288
 30
0.0
 10
62.808595
 20
205.172845
 30
0.0
 10
63.181152
 20
205.511447
 30
0.0
 10
63.585026
 20
205.813458
 30
0.0
 10
64.017579
 20
206.076241
 30
0.0
 10
64.476176
 20
206.297159
 30
0.0
 10
64.958179
 20
206.473574
 30
0.0
 10
65.460950
 20
206.602850
 30
0.0
 10
65.981854
 20
206.682350
 30
0.0
 10
66.518252
 20
206.709440
 30
0.0
 10
67.054650
 20
206.682350
 30
0.0
 10
67.575554
 20
206.602850
 30
0.0
 10
68.078325
 20
206.473574
 30
0.0
 10
68.560328
 20
206.297159
 30
0.0
 10
69.018925
 20
206.076241
 30
0.0
 10
69.451478
 20
205.813458
 30
0.0
 10
69.855352
 20
205.511447
 30
0.0
 10
70.227909
 20
205.172845
 30
0.0
 10
70.566511
 20
204.800288
 30
0.0
 10
70.868522
 20
204.396415
 30
0.0
 10
71.131305
 20
203.963861
 30
0.0
 10
71.352223
 20
203.505264
 30
0.0
 10
71.528638
 20
203.023261
 30
0.0
 10
71.657914
 20
202.520490
 30
0.0
 10
71.737414
 20
201.999586
 30
0.0
  0
LWPOLYLINE
  5
10a
100
AcDbEntity
  8
Layer_1
 62
7
100
AcDbPolyline
 90
2
 70
0
 10
61.129143
 20
194.027200
 30
0.0
 10
64.322820
 20
198.422919
 30
0.0
  0
LWPOLYLINE
  5
10b
100
AcDbEntity
  8
Layer_1
 62
7
100
AcDbPolyline
 90
2
 70
0
 10
60.734343
 20
194.314040
 30
0.0
 10
63.928020
 20
198.709758
 30
0.0
  0
LWPOLYLINE
  5
10c
100
AcDbEntity
  8
Layer_1
 62
7
100
AcDbPolyline
 90
2
 70
0
 10
61.523944
 20
193.740360
 30
0.0
 10
64.717620
 20
198.136079
 30
0.0
  0
ENDSEC
  0
SECTION
  2
OBJECTS
  0
DICTIONARY
  5
C
330
0
100
AcDbDictionary
  3
ACAD_GROUP
350
D
  3
ACAD_MLINESTYLE
350
17
  0
DICTIONARY
  5
D
330
C
100
AcDbDictionary
  0
DICTIONARY
  5
1A
330
C
100
AcDbDictionary
  0
DICTIONARY
  5
17
330
C
100
AcDbDictionary
  3
STANDARD
350
18
  0
DICTIONARY
  5
19
330
C
100
AcDbDictionary
  0
ENDSEC
  0
EOF
