<?xml version="1.0" standalone="no"?>
 <!DOCTYPE svg PUBLIC "-//W3C//DTD SVG 1.1//EN" 
 "http://www.w3.org/Graphics/SVG/1.1/DTD/svg11.dtd"> 
<svg xmlns="http://www.w3.org/2000/svg" version="1.1" 
    width="29.7002cm" height="21.0007cm" viewBox="0 0 116930 82680 ">
<title>SVG Picture created as OpenAPD-brd.svg date 2017/08/17 16:09:51 </title>
  <desc>Picture generated by PCBNEW </desc>
<g style="fill:#000000; fill-opacity:1;stroke:#000000; stroke-opacity:1;
stroke-linecap:round; stroke-linejoin:round; "
 transform="translate(0 0) scale(1 1)">
</g>
<g style="fill:#000000; fill-opacity:0.0; 
stroke:#000000; stroke-width:-0.000393701; stroke-opacity:1; 
stroke-linecap:round; stroke-linejoin:round;">
</g>
<g style="fill:#000000; fill-opacity:0.0; 
stroke:#000000; stroke-width:39.3701; stroke-opacity:1; 
stroke-linecap:round; stroke-linejoin:round;">
</g>
<g style="fill:#000000; fill-opacity:0.0; 
stroke:#000000; stroke-width:59.0551; stroke-opacity:1; 
stroke-linecap:round; stroke-linejoin:round;">
<rect x="69685.9" y="65357.2" width="42519.7" height="12598.4" rx="0" />
</g>
<g style="fill:#000000; fill-opacity:0.0; 
stroke:#000000; stroke-width:39.3701; stroke-opacity:1; 
stroke-linecap:round; stroke-linejoin:round;">
</g>
<g style="fill:#000000; fill-opacity:0.0; 
stroke:#000000; stroke-width:59.0551; stroke-opacity:1; 
stroke-linecap:round; stroke-linejoin:round;">
<rect x="3937.01" y="3937.01" width="109056" height="74806" rx="0" />
</g>
<g style="fill:#000000; fill-opacity:0.0; 
stroke:#000000; stroke-width:39.3701; stroke-opacity:1; 
stroke-linecap:round; stroke-linejoin:round;">
</g>
<g style="fill:#000000; fill-opacity:0.0; 
stroke:#000000; stroke-width:59.0551; stroke-opacity:1; 
stroke-linecap:round; stroke-linejoin:round;">
<rect x="4724.41" y="4724.41" width="107481" height="73231.2" rx="0" />
</g>
<g style="fill:#000000; fill-opacity:0.0; 
stroke:#000000; stroke-width:39.3701; stroke-opacity:1; 
stroke-linecap:round; stroke-linejoin:round;">
</g>
<g style="fill:#000000; fill-opacity:0.0; 
stroke:#000000; stroke-width:59.0551; stroke-opacity:1; 
stroke-linecap:round; stroke-linejoin:round;">
<path d="M23622 4724
L23622 3937
" />
</g>
<g style="fill:#000000; fill-opacity:0.0; 
stroke:#000000; stroke-width:39.3701; stroke-opacity:1; 
stroke-linecap:round; stroke-linejoin:round;">
</g>
<g style="fill:#000000; fill-opacity:0.0; 
stroke:#000000; stroke-width:59.0551; stroke-opacity:1; 
stroke-linecap:round; stroke-linejoin:round;">
<path d="M43307 4724
L43307 3937
" />
</g>
<g style="fill:#000000; fill-opacity:0.0; 
stroke:#000000; stroke-width:39.3701; stroke-opacity:1; 
stroke-linecap:round; stroke-linejoin:round;">
</g>
<g style="fill:#000000; fill-opacity:0.0; 
stroke:#000000; stroke-width:59.0551; stroke-opacity:1; 
stroke-linecap:round; stroke-linejoin:round;">
<path d="M62992 4724
L62992 3937
" />
</g>
<g style="fill:#000000; fill-opacity:0.0; 
stroke:#000000; stroke-width:39.3701; stroke-opacity:1; 
stroke-linecap:round; stroke-linejoin:round;">
</g>
<g style="fill:#000000; fill-opacity:0.0; 
stroke:#000000; stroke-width:59.0551; stroke-opacity:1; 
stroke-linecap:round; stroke-linejoin:round;">
<path d="M82677 4724
L82677 3937
" />
</g>
<g style="fill:#000000; fill-opacity:0.0; 
stroke:#000000; stroke-width:39.3701; stroke-opacity:1; 
stroke-linecap:round; stroke-linejoin:round;">
</g>
<g style="fill:#000000; fill-opacity:0.0; 
stroke:#000000; stroke-width:59.0551; stroke-opacity:1; 
stroke-linecap:round; stroke-linejoin:round;">
<path d="M102362 4724
L102362 3937
" />
</g>
<g style="fill:#000000; fill-opacity:0.0; 
stroke:#000000; stroke-width:39.3701; stroke-opacity:1; 
stroke-linecap:round; stroke-linejoin:round;">
</g>
<g style="fill:#000000; fill-opacity:0.0; 
stroke:#000000; stroke-width:59.0551; stroke-opacity:1; 
stroke-linecap:round; stroke-linejoin:round;">
<path d="M14199 4562
L13906 4562
" />
<path d="M14052 4562
L14052 4050
L14004 4123
L13955 4172
L13906 4196
" />
</g>
<g style="fill:#000000; fill-opacity:0.0; 
stroke:#000000; stroke-width:39.3701; stroke-opacity:1; 
stroke-linecap:round; stroke-linejoin:round;">
</g>
<g style="fill:#000000; fill-opacity:0.0; 
stroke:#000000; stroke-width:59.0551; stroke-opacity:1; 
stroke-linecap:round; stroke-linejoin:round;">
<path d="M33591 4099
L33615 4074
L33664 4050
L33786 4050
L33835 4074
L33859 4099
L33884 4147
L33884 4196
L33859 4269
L33567 4562
L33884 4562
" />
</g>
<g style="fill:#000000; fill-opacity:0.0; 
stroke:#000000; stroke-width:39.3701; stroke-opacity:1; 
stroke-linecap:round; stroke-linejoin:round;">
</g>
<g style="fill:#000000; fill-opacity:0.0; 
stroke:#000000; stroke-width:59.0551; stroke-opacity:1; 
stroke-linecap:round; stroke-linejoin:round;">
<path d="M53252 4050
L53569 4050
L53398 4245
L53471 4245
L53520 4269
L53544 4294
L53569 4342
L53569 4464
L53544 4513
L53520 4537
L53471 4562
L53325 4562
L53276 4537
L53252 4513
" />
</g>
<g style="fill:#000000; fill-opacity:0.0; 
stroke:#000000; stroke-width:39.3701; stroke-opacity:1; 
stroke-linecap:round; stroke-linejoin:round;">
</g>
<g style="fill:#000000; fill-opacity:0.0; 
stroke:#000000; stroke-width:59.0551; stroke-opacity:1; 
stroke-linecap:round; stroke-linejoin:round;">
<path d="M73205 4221
L73205 4562
" />
<path d="M73083 4026
L72961 4391
L73278 4391
" />
</g>
<g style="fill:#000000; fill-opacity:0.0; 
stroke:#000000; stroke-width:39.3701; stroke-opacity:1; 
stroke-linecap:round; stroke-linejoin:round;">
</g>
<g style="fill:#000000; fill-opacity:0.0; 
stroke:#000000; stroke-width:59.0551; stroke-opacity:1; 
stroke-linecap:round; stroke-linejoin:round;">
<path d="M92914 4050
L92671 4050
L92646 4294
L92671 4269
L92719 4245
L92841 4245
L92890 4269
L92914 4294
L92939 4342
L92939 4464
L92914 4513
L92890 4537
L92841 4562
L92719 4562
L92671 4537
L92646 4513
" />
</g>
<g style="fill:#000000; fill-opacity:0.0; 
stroke:#000000; stroke-width:39.3701; stroke-opacity:1; 
stroke-linecap:round; stroke-linejoin:round;">
</g>
<g style="fill:#000000; fill-opacity:0.0; 
stroke:#000000; stroke-width:59.0551; stroke-opacity:1; 
stroke-linecap:round; stroke-linejoin:round;">
<path d="M112575 4050
L112477 4050
L112429 4074
L112404 4099
L112356 4172
L112331 4269
L112331 4464
L112356 4513
L112380 4537
L112429 4562
L112526 4562
L112575 4537
L112599 4513
L112624 4464
L112624 4342
L112599 4294
L112575 4269
L112526 4245
L112429 4245
L112380 4269
L112356 4294
L112331 4342
" />
</g>
<g style="fill:#000000; fill-opacity:0.0; 
stroke:#000000; stroke-width:39.3701; stroke-opacity:1; 
stroke-linecap:round; stroke-linejoin:round;">
</g>
<g style="fill:#000000; fill-opacity:0.0; 
stroke:#000000; stroke-width:59.0551; stroke-opacity:1; 
stroke-linecap:round; stroke-linejoin:round;">
<path d="M23622 77955
L23622 78742
" />
</g>
<g style="fill:#000000; fill-opacity:0.0; 
stroke:#000000; stroke-width:39.3701; stroke-opacity:1; 
stroke-linecap:round; stroke-linejoin:round;">
</g>
<g style="fill:#000000; fill-opacity:0.0; 
stroke:#000000; stroke-width:59.0551; stroke-opacity:1; 
stroke-linecap:round; stroke-linejoin:round;">
<path d="M43307 77955
L43307 78742
" />
</g>
<g style="fill:#000000; fill-opacity:0.0; 
stroke:#000000; stroke-width:39.3701; stroke-opacity:1; 
stroke-linecap:round; stroke-linejoin:round;">
</g>
<g style="fill:#000000; fill-opacity:0.0; 
stroke:#000000; stroke-width:59.0551; stroke-opacity:1; 
stroke-linecap:round; stroke-linejoin:round;">
<path d="M62992 77955
L62992 78742
" />
</g>
<g style="fill:#000000; fill-opacity:0.0; 
stroke:#000000; stroke-width:39.3701; stroke-opacity:1; 
stroke-linecap:round; stroke-linejoin:round;">
</g>
<g style="fill:#000000; fill-opacity:0.0; 
stroke:#000000; stroke-width:59.0551; stroke-opacity:1; 
stroke-linecap:round; stroke-linejoin:round;">
<path d="M82677 77955
L82677 78742
" />
</g>
<g style="fill:#000000; fill-opacity:0.0; 
stroke:#000000; stroke-width:39.3701; stroke-opacity:1; 
stroke-linecap:round; stroke-linejoin:round;">
</g>
<g style="fill:#000000; fill-opacity:0.0; 
stroke:#000000; stroke-width:59.0551; stroke-opacity:1; 
stroke-linecap:round; stroke-linejoin:round;">
<path d="M102362 77955
L102362 78742
" />
</g>
<g style="fill:#000000; fill-opacity:0.0; 
stroke:#000000; stroke-width:39.3701; stroke-opacity:1; 
stroke-linecap:round; stroke-linejoin:round;">
</g>
<g style="fill:#000000; fill-opacity:0.0; 
stroke:#000000; stroke-width:59.0551; stroke-opacity:1; 
stroke-linecap:round; stroke-linejoin:round;">
<path d="M14199 78580
L13906 78580
" />
<path d="M14052 78580
L14052 78069
L14004 78142
L13955 78190
L13906 78215
" />
</g>
<g style="fill:#000000; fill-opacity:0.0; 
stroke:#000000; stroke-width:39.3701; stroke-opacity:1; 
stroke-linecap:round; stroke-linejoin:round;">
</g>
<g style="fill:#000000; fill-opacity:0.0; 
stroke:#000000; stroke-width:59.0551; stroke-opacity:1; 
stroke-linecap:round; stroke-linejoin:round;">
<path d="M33591 78117
L33615 78093
L33664 78069
L33786 78069
L33835 78093
L33859 78117
L33884 78166
L33884 78215
L33859 78288
L33567 78580
L33884 78580
" />
</g>
<g style="fill:#000000; fill-opacity:0.0; 
stroke:#000000; stroke-width:39.3701; stroke-opacity:1; 
stroke-linecap:round; stroke-linejoin:round;">
</g>
<g style="fill:#000000; fill-opacity:0.0; 
stroke:#000000; stroke-width:59.0551; stroke-opacity:1; 
stroke-linecap:round; stroke-linejoin:round;">
<path d="M53252 78069
L53569 78069
L53398 78263
L53471 78263
L53520 78288
L53544 78312
L53569 78361
L53569 78483
L53544 78532
L53520 78556
L53471 78580
L53325 78580
L53276 78556
L53252 78532
" />
</g>
<g style="fill:#000000; fill-opacity:0.0; 
stroke:#000000; stroke-width:39.3701; stroke-opacity:1; 
stroke-linecap:round; stroke-linejoin:round;">
</g>
<g style="fill:#000000; fill-opacity:0.0; 
stroke:#000000; stroke-width:59.0551; stroke-opacity:1; 
stroke-linecap:round; stroke-linejoin:round;">
<path d="M73205 78239
L73205 78580
" />
<path d="M73083 78044
L72961 78410
L73278 78410
" />
</g>
<g style="fill:#000000; fill-opacity:0.0; 
stroke:#000000; stroke-width:39.3701; stroke-opacity:1; 
stroke-linecap:round; stroke-linejoin:round;">
</g>
<g style="fill:#000000; fill-opacity:0.0; 
stroke:#000000; stroke-width:59.0551; stroke-opacity:1; 
stroke-linecap:round; stroke-linejoin:round;">
<path d="M92914 78069
L92671 78069
L92646 78312
L92671 78288
L92719 78263
L92841 78263
L92890 78288
L92914 78312
L92939 78361
L92939 78483
L92914 78532
L92890 78556
L92841 78580
L92719 78580
L92671 78556
L92646 78532
" />
</g>
<g style="fill:#000000; fill-opacity:0.0; 
stroke:#000000; stroke-width:39.3701; stroke-opacity:1; 
stroke-linecap:round; stroke-linejoin:round;">
</g>
<g style="fill:#000000; fill-opacity:0.0; 
stroke:#000000; stroke-width:59.0551; stroke-opacity:1; 
stroke-linecap:round; stroke-linejoin:round;">
<path d="M112575 78069
L112477 78069
L112429 78093
L112404 78117
L112356 78190
L112331 78288
L112331 78483
L112356 78532
L112380 78556
L112429 78580
L112526 78580
L112575 78556
L112599 78532
L112624 78483
L112624 78361
L112599 78312
L112575 78288
L112526 78263
L112429 78263
L112380 78288
L112356 78312
L112331 78361
" />
</g>
<g style="fill:#000000; fill-opacity:0.0; 
stroke:#000000; stroke-width:39.3701; stroke-opacity:1; 
stroke-linecap:round; stroke-linejoin:round;">
</g>
<g style="fill:#000000; fill-opacity:0.0; 
stroke:#000000; stroke-width:59.0551; stroke-opacity:1; 
stroke-linecap:round; stroke-linejoin:round;">
<path d="M3937 23622
L4724 23622
" />
</g>
<g style="fill:#000000; fill-opacity:0.0; 
stroke:#000000; stroke-width:39.3701; stroke-opacity:1; 
stroke-linecap:round; stroke-linejoin:round;">
</g>
<g style="fill:#000000; fill-opacity:0.0; 
stroke:#000000; stroke-width:59.0551; stroke-opacity:1; 
stroke-linecap:round; stroke-linejoin:round;">
<path d="M3937 43307
L4724 43307
" />
</g>
<g style="fill:#000000; fill-opacity:0.0; 
stroke:#000000; stroke-width:39.3701; stroke-opacity:1; 
stroke-linecap:round; stroke-linejoin:round;">
</g>
<g style="fill:#000000; fill-opacity:0.0; 
stroke:#000000; stroke-width:59.0551; stroke-opacity:1; 
stroke-linecap:round; stroke-linejoin:round;">
<path d="M3937 62992
L4724 62992
" />
</g>
<g style="fill:#000000; fill-opacity:0.0; 
stroke:#000000; stroke-width:39.3701; stroke-opacity:1; 
stroke-linecap:round; stroke-linejoin:round;">
</g>
<g style="fill:#000000; fill-opacity:0.0; 
stroke:#000000; stroke-width:59.0551; stroke-opacity:1; 
stroke-linecap:round; stroke-linejoin:round;">
<path d="M4208 13864
L4452 13864
" />
<path d="M4160 14011
L4330 13499
L4501 14011
" />
</g>
<g style="fill:#000000; fill-opacity:0.0; 
stroke:#000000; stroke-width:39.3701; stroke-opacity:1; 
stroke-linecap:round; stroke-linejoin:round;">
</g>
<g style="fill:#000000; fill-opacity:0.0; 
stroke:#000000; stroke-width:59.0551; stroke-opacity:1; 
stroke-linecap:round; stroke-linejoin:round;">
<path d="M4367 33428
L4440 33452
L4464 33476
L4489 33525
L4489 33598
L4464 33647
L4440 33671
L4391 33696
L4196 33696
L4196 33184
L4367 33184
L4416 33208
L4440 33233
L4464 33281
L4464 33330
L4440 33379
L4416 33403
L4367 33428
L4196 33428
" />
</g>
<g style="fill:#000000; fill-opacity:0.0; 
stroke:#000000; stroke-width:39.3701; stroke-opacity:1; 
stroke-linecap:round; stroke-linejoin:round;">
</g>
<g style="fill:#000000; fill-opacity:0.0; 
stroke:#000000; stroke-width:59.0551; stroke-opacity:1; 
stroke-linecap:round; stroke-linejoin:round;">
<path d="M4489 53332
L4464 53356
L4391 53381
L4342 53381
L4269 53356
L4221 53308
L4196 53259
L4172 53161
L4172 53088
L4196 52991
L4221 52942
L4269 52893
L4342 52869
L4391 52869
L4464 52893
L4489 52918
" />
</g>
<g style="fill:#000000; fill-opacity:0.0; 
stroke:#000000; stroke-width:39.3701; stroke-opacity:1; 
stroke-linecap:round; stroke-linejoin:round;">
</g>
<g style="fill:#000000; fill-opacity:0.0; 
stroke:#000000; stroke-width:59.0551; stroke-opacity:1; 
stroke-linecap:round; stroke-linejoin:round;">
<path d="M4196 73066
L4196 72554
L4318 72554
L4391 72578
L4440 72627
L4464 72676
L4489 72773
L4489 72846
L4464 72944
L4440 72993
L4391 73041
L4318 73066
L4196 73066
" />
</g>
<g style="fill:#000000; fill-opacity:0.0; 
stroke:#000000; stroke-width:39.3701; stroke-opacity:1; 
stroke-linecap:round; stroke-linejoin:round;">
</g>
<g style="fill:#000000; fill-opacity:0.0; 
stroke:#000000; stroke-width:59.0551; stroke-opacity:1; 
stroke-linecap:round; stroke-linejoin:round;">
<path d="M112992 23622
L112205 23622
" />
</g>
<g style="fill:#000000; fill-opacity:0.0; 
stroke:#000000; stroke-width:39.3701; stroke-opacity:1; 
stroke-linecap:round; stroke-linejoin:round;">
</g>
<g style="fill:#000000; fill-opacity:0.0; 
stroke:#000000; stroke-width:59.0551; stroke-opacity:1; 
stroke-linecap:round; stroke-linejoin:round;">
<path d="M112992 43307
L112205 43307
" />
</g>
<g style="fill:#000000; fill-opacity:0.0; 
stroke:#000000; stroke-width:39.3701; stroke-opacity:1; 
stroke-linecap:round; stroke-linejoin:round;">
</g>
<g style="fill:#000000; fill-opacity:0.0; 
stroke:#000000; stroke-width:59.0551; stroke-opacity:1; 
stroke-linecap:round; stroke-linejoin:round;">
<path d="M112992 62992
L112205 62992
" />
</g>
<g style="fill:#000000; fill-opacity:0.0; 
stroke:#000000; stroke-width:39.3701; stroke-opacity:1; 
stroke-linecap:round; stroke-linejoin:round;">
</g>
<g style="fill:#000000; fill-opacity:0.0; 
stroke:#000000; stroke-width:59.0551; stroke-opacity:1; 
stroke-linecap:round; stroke-linejoin:round;">
<path d="M112477 13864
L112721 13864
" />
<path d="M112428 14011
L112599 13499
L112769 14011
" />
</g>
<g style="fill:#000000; fill-opacity:0.0; 
stroke:#000000; stroke-width:39.3701; stroke-opacity:1; 
stroke-linecap:round; stroke-linejoin:round;">
</g>
<g style="fill:#000000; fill-opacity:0.0; 
stroke:#000000; stroke-width:59.0551; stroke-opacity:1; 
stroke-linecap:round; stroke-linejoin:round;">
<path d="M112635 33428
L112708 33452
L112733 33476
L112757 33525
L112757 33598
L112733 33647
L112708 33671
L112660 33696
L112465 33696
L112465 33184
L112635 33184
L112684 33208
L112708 33233
L112733 33281
L112733 33330
L112708 33379
L112684 33403
L112635 33428
L112465 33428
" />
</g>
<g style="fill:#000000; fill-opacity:0.0; 
stroke:#000000; stroke-width:39.3701; stroke-opacity:1; 
stroke-linecap:round; stroke-linejoin:round;">
</g>
<g style="fill:#000000; fill-opacity:0.0; 
stroke:#000000; stroke-width:59.0551; stroke-opacity:1; 
stroke-linecap:round; stroke-linejoin:round;">
<path d="M112757 53332
L112733 53356
L112660 53381
L112611 53381
L112538 53356
L112489 53308
L112465 53259
L112440 53161
L112440 53088
L112465 52991
L112489 52942
L112538 52893
L112611 52869
L112660 52869
L112733 52893
L112757 52918
" />
</g>
<g style="fill:#000000; fill-opacity:0.0; 
stroke:#000000; stroke-width:39.3701; stroke-opacity:1; 
stroke-linecap:round; stroke-linejoin:round;">
</g>
<g style="fill:#000000; fill-opacity:0.0; 
stroke:#000000; stroke-width:59.0551; stroke-opacity:1; 
stroke-linecap:round; stroke-linejoin:round;">
<path d="M112465 73066
L112465 72554
L112587 72554
L112660 72578
L112708 72627
L112733 72676
L112757 72773
L112757 72846
L112733 72944
L112708 72993
L112660 73041
L112587 73066
L112465 73066
" />
</g>
<g style="fill:#000000; fill-opacity:0.0; 
stroke:#000000; stroke-width:39.3701; stroke-opacity:1; 
stroke-linecap:round; stroke-linejoin:round;">
</g>
<g style="fill:#000000; fill-opacity:0.0; 
stroke:#000000; stroke-width:59.0551; stroke-opacity:1; 
stroke-linecap:round; stroke-linejoin:round;">
<path d="M78911 76293
L78911 75703
L79051 75703
L79136 75731
L79192 75787
L79220 75843
L79248 75956
L79248 76040
L79220 76153
L79192 76209
L79136 76265
L79051 76293
L78911 76293
" />
<path d="M79754 76293
L79754 75984
L79726 75928
L79670 75899
L79557 75899
L79501 75928
" />
<path d="M79754 76265
L79698 76293
L79557 76293
L79501 76265
L79473 76209
L79473 76153
L79501 76096
L79557 76068
L79698 76068
L79754 76040
" />
<path d="M79951 75899
L80176 75899
" />
<path d="M80036 75703
L80036 76209
L80064 76265
L80120 76293
L80176 76293
" />
<path d="M80598 76265
L80542 76293
L80429 76293
L80373 76265
L80345 76209
L80345 75984
L80373 75928
L80429 75899
L80542 75899
L80598 75928
L80626 75984
L80626 76040
L80345 76096
" />
<path d="M80879 76237
L80907 76265
L80879 76293
L80851 76265
L80879 76237
L80879 76293
" />
<path d="M80879 75928
L80907 75956
L80879 75984
L80851 75956
L80879 75928
L80879 75984
" />
</g>
<g style="fill:#000000; fill-opacity:0.0; 
stroke:#000000; stroke-width:39.3701; stroke-opacity:1; 
stroke-linecap:round; stroke-linejoin:round;">
</g>
<g style="fill:#000000; fill-opacity:0.0; 
stroke:#000000; stroke-width:59.0551; stroke-opacity:1; 
stroke-linecap:round; stroke-linejoin:round;">
<path d="M69685 76577
L112205 76577
" />
</g>
<g style="fill:#000000; fill-opacity:0.0; 
stroke:#000000; stroke-width:39.3701; stroke-opacity:1; 
stroke-linecap:round; stroke-linejoin:round;">
</g>
<g style="fill:#000000; fill-opacity:0.0; 
stroke:#000000; stroke-width:59.0551; stroke-opacity:1; 
stroke-linecap:round; stroke-linejoin:round;">
<path d="M70249 77395
L70249 76805
" />
<path d="M70587 77395
L70334 77058
" />
<path d="M70587 76805
L70249 77142
" />
<path d="M70840 77395
L70840 77002
" />
<path d="M70840 76805
L70812 76833
L70840 76861
L70868 76833
L70840 76805
L70840 76861
" />
<path d="M71458 77339
L71430 77367
L71346 77395
L71290 77395
L71205 77367
L71149 77311
L71121 77255
L71093 77142
L71093 77058
L71121 76946
L71149 76889
L71205 76833
L71290 76805
L71346 76805
L71430 76833
L71458 76861
" />
<path d="M71965 77395
L71965 77086
L71937 77030
L71880 77002
L71768 77002
L71712 77030
" />
<path d="M71965 77367
L71908 77395
L71768 77395
L71712 77367
L71683 77311
L71683 77255
L71712 77199
L71768 77171
L71908 77171
L71965 77142
" />
<path d="M72499 77395
L72499 76805
" />
<path d="M72499 77367
L72443 77395
L72330 77395
L72274 77367
L72246 77339
L72218 77283
L72218 77114
L72246 77058
L72274 77030
L72330 77002
L72443 77002
L72499 77030
" />
<path d="M73230 77086
L73427 77086
" />
<path d="M73511 77395
L73230 77395
L73230 76805
L73511 76805
" />
<path d="M73764 77339
L73793 77367
L73764 77395
L73736 77367
L73764 77339
L73764 77395
" />
<path d="M74046 77395
L74046 76805
L74186 76805
L74271 76833
L74327 76889
L74355 76946
L74383 77058
L74383 77142
L74355 77255
L74327 77311
L74271 77367
L74186 77395
L74046 77395
" />
<path d="M74636 77339
L74664 77367
L74636 77395
L74608 77367
L74636 77339
L74636 77395
" />
<path d="M74889 77227
L75171 77227
" />
<path d="M74833 77395
L75030 76805
L75227 77395
" />
<path d="M75424 77339
L75452 77367
L75424 77395
L75395 77367
L75424 77339
L75424 77395
" />
<path d="M76605 77395
L76605 76805
" />
<path d="M76661 77171
L76830 77395
" />
<path d="M76830 77002
L76605 77227
" />
<path d="M77083 77395
L77083 77002
" />
<path d="M77083 76805
L77055 76833
L77083 76861
L77111 76833
L77083 76805
L77083 76861
" />
<path d="M77617 77367
L77561 77395
L77448 77395
L77392 77367
L77364 77339
L77336 77283
L77336 77114
L77364 77058
L77392 77030
L77448 77002
L77561 77002
L77617 77030
" />
<path d="M78123 77395
L78123 77086
L78095 77030
L78039 77002
L77926 77002
L77870 77030
" />
<path d="M78123 77367
L78067 77395
L77926 77395
L77870 77367
L77842 77311
L77842 77255
L77870 77199
L77926 77171
L78067 77171
L78123 77142
" />
<path d="M78658 77395
L78658 76805
" />
<path d="M78658 77367
L78601 77395
L78489 77395
L78433 77367
L78404 77339
L78376 77283
L78376 77114
L78404 77058
L78433 77030
L78489 77002
L78601 77002
L78658 77030
" />
<path d="M79389 77002
L79389 77395
" />
<path d="M79389 77058
L79417 77030
L79473 77002
L79557 77002
L79614 77030
L79642 77086
L79642 77395
" />
<path d="M80007 77395
L79951 77367
L79923 77339
L79895 77283
L79895 77114
L79923 77058
L79951 77030
L80007 77002
L80092 77002
L80148 77030
L80176 77058
L80204 77114
L80204 77283
L80176 77339
L80148 77367
L80092 77395
L80007 77395
" />
<path d="M80457 77171
L80907 77171
" />
<path d="M81132 77002
L81273 77395
L81413 77002
" />
<path d="M81892 77367
L81835 77395
L81723 77395
L81667 77367
L81638 77339
L81610 77283
L81610 77114
L81638 77058
L81667 77030
L81723 77002
L81835 77002
L81892 77030
" />
<path d="M82117 77367
L82173 77395
L82285 77395
L82341 77367
L82370 77311
L82370 77283
L82341 77227
L82285 77199
L82201 77199
L82145 77171
L82117 77114
L82117 77086
L82145 77030
L82201 77002
L82285 77002
L82341 77030
" />
<path d="M82623 77171
L83073 77171
" />
<path d="M83269 77002
L83494 77002
" />
<path d="M83354 77395
L83354 76889
L83382 76833
L83438 76805
L83494 76805
" />
<path d="M83776 77395
L83719 77367
L83691 77339
L83663 77283
L83663 77114
L83691 77058
L83719 77030
L83776 77002
L83860 77002
L83916 77030
L83944 77058
L83973 77114
L83973 77283
L83944 77339
L83916 77367
L83860 77395
L83776 77395
" />
<path d="M84479 77002
L84479 77395
" />
<path d="M84226 77002
L84226 77311
L84254 77367
L84310 77395
L84394 77395
L84451 77367
L84479 77339
" />
<path d="M84760 77002
L84760 77395
" />
<path d="M84760 77058
L84788 77030
L84844 77002
L84929 77002
L84985 77030
L85013 77086
L85013 77395
" />
<path d="M85547 77395
L85547 76805
" />
<path d="M85547 77367
L85491 77395
L85379 77395
L85322 77367
L85294 77339
L85266 77283
L85266 77114
L85294 77058
L85322 77030
L85379 77002
L85491 77002
L85547 77030
" />
<path d="M85829 77171
L86278 77171
" />
<path d="M86588 77395
L86700 77395
L86757 77367
L86785 77339
L86841 77255
L86869 77142
L86869 76917
L86841 76861
L86813 76833
L86757 76805
L86644 76805
L86588 76833
L86560 76861
L86532 76917
L86532 77058
L86560 77114
L86588 77142
L86644 77171
L86757 77171
L86813 77142
L86841 77114
L86869 77058
" />
<path d="M87375 77002
L87375 77395
" />
<path d="M87235 76777
L87094 77199
L87460 77199
" />
<path d="M87938 77002
L87938 77395
" />
<path d="M87797 76777
L87656 77199
L88022 77199
" />
<path d="M88191 76805
L88584 76805
L88331 77395
" />
<path d="M89119 77395
L88781 77395
" />
<path d="M88950 77395
L88950 76805
L88894 76889
L88838 76946
L88781 76974
" />
<path d="M89456 77058
L89400 77030
L89372 77002
L89344 76946
L89344 76917
L89372 76861
L89400 76833
L89456 76805
L89569 76805
L89625 76833
L89653 76861
L89681 76917
L89681 76946
L89653 77002
L89625 77030
L89569 77058
L89456 77058
L89400 77086
L89372 77114
L89344 77171
L89344 77283
L89372 77339
L89400 77367
L89456 77395
L89569 77395
L89625 77367
L89653 77339
L89681 77283
L89681 77171
L89653 77114
L89625 77086
L89569 77058
" />
<path d="M90244 77395
L89906 77395
" />
<path d="M90075 77395
L90075 76805
L90019 76889
L89962 76946
L89906 76974
" />
<path d="M90454 76644
L90919 76644
" />
<path d="M90778 76805
L90497 76805
L90469 77086
L90497 77058
L90553 77030
L90694 77030
L90750 77058
L90778 77086
L90806 77142
L90806 77283
L90778 77339
L90750 77367
L90694 77395
L90553 77395
L90497 77367
L90469 77339
" />
<path d="M90919 76644
L91481 76644
" />
<path d="M91087 77395
L91200 77395
L91256 77367
L91284 77339
L91340 77255
L91368 77142
L91368 76917
L91340 76861
L91312 76833
L91256 76805
L91144 76805
L91087 76833
L91059 76861
L91031 76917
L91031 77058
L91059 77114
L91087 77142
L91144 77171
L91256 77171
L91312 77142
L91340 77114
L91368 77058
" />
<path d="M91875 77002
L91875 77395
" />
<path d="M91622 77002
L91622 77311
L91650 77367
L91706 77395
L91790 77395
L91847 77367
L91875 77339
" />
<path d="M92156 77395
L92156 76805
" />
<path d="M92156 77030
L92212 77002
L92325 77002
L92381 77030
L92409 77058
L92437 77114
L92437 77283
L92409 77339
L92381 77367
L92325 77395
L92212 77395
L92156 77367
" />
<path d="M92943 77002
L92943 77395
" />
<path d="M92690 77002
L92690 77311
L92718 77367
L92775 77395
L92859 77395
L92915 77367
L92943 77339
" />
<path d="M93224 77002
L93224 77395
" />
<path d="M93224 77058
L93253 77030
L93309 77002
L93393 77002
L93449 77030
L93478 77086
L93478 77395
" />
<path d="M93674 77002
L93899 77002
" />
<path d="M93759 76805
L93759 77311
L93787 77367
L93843 77395
L93899 77395
" />
<path d="M94349 77002
L94349 77395
" />
<path d="M94096 77002
L94096 77311
L94124 77367
L94181 77395
L94265 77395
L94321 77367
L94349 77339
" />
<path d="M94940 77395
L94602 77395
" />
<path d="M94771 77395
L94771 76805
L94715 76889
L94659 76946
L94602 76974
" />
<path d="M95446 77002
L95446 77395
" />
<path d="M95305 76777
L95165 77199
L95530 77199
" />
<path d="M95755 77339
L95784 77367
L95755 77395
L95727 77367
L95755 77339
L95755 77395
" />
<path d="M96149 76805
L96205 76805
L96262 76833
L96290 76861
L96318 76917
L96346 77030
L96346 77171
L96318 77283
L96290 77339
L96262 77367
L96205 77395
L96149 77395
L96093 77367
L96065 77339
L96037 77283
L96009 77171
L96009 77030
L96037 76917
L96065 76861
L96093 76833
L96149 76805
" />
<path d="M96852 77002
L96852 77395
" />
<path d="M96712 76777
L96571 77199
L96937 77199
" />
<path d="M97162 77339
L97190 77367
L97162 77395
L97133 77367
L97162 77339
L97162 77395
" />
<path d="M97752 77395
L97415 77395
" />
<path d="M97583 77395
L97583 76805
L97527 76889
L97471 76946
L97415 76974
" />
</g>
<g style="fill:#000000; fill-opacity:0.0; 
stroke:#000000; stroke-width:39.3701; stroke-opacity:1; 
stroke-linecap:round; stroke-linejoin:round;">
</g>
<g style="fill:#000000; fill-opacity:0.0; 
stroke:#000000; stroke-width:59.0551; stroke-opacity:1; 
stroke-linecap:round; stroke-linejoin:round;">
<path d="M69685 75396
L112205 75396
" />
</g>
<g style="fill:#000000; fill-opacity:0.0; 
stroke:#000000; stroke-width:39.3701; stroke-opacity:1; 
stroke-linecap:round; stroke-linejoin:round;">
</g>
<g style="fill:#000000; fill-opacity:0.0; 
stroke:#000000; stroke-width:118.11; stroke-opacity:1; 
stroke-linecap:round; stroke-linejoin:round;">
<path d="M104099 76293
L103902 76012
" />
<path d="M103761 76293
L103761 75703
L103986 75703
L104042 75731
L104070 75759
L104099 75815
L104099 75899
L104070 75956
L104042 75984
L103986 76012
L103761 76012
" />
<path d="M104577 76265
L104520 76293
L104408 76293
L104352 76265
L104323 76209
L104323 75984
L104352 75928
L104408 75899
L104520 75899
L104577 75928
L104605 75984
L104605 76040
L104323 76096
" />
<path d="M104802 75899
L104942 76293
L105083 75899
" />
<path d="M105308 76237
L105336 76265
L105308 76293
L105280 76265
L105308 76237
L105308 76293
" />
<path d="M105308 75928
L105336 75956
L105308 75984
L105280 75956
L105308 75928
L105308 75984
" />
</g>
<g style="fill:#000000; fill-opacity:0.0; 
stroke:#000000; stroke-width:39.3701; stroke-opacity:1; 
stroke-linecap:round; stroke-linejoin:round;">
</g>
<g style="fill:#000000; fill-opacity:0.0; 
stroke:#000000; stroke-width:59.0551; stroke-opacity:1; 
stroke-linecap:round; stroke-linejoin:round;">
<path d="M70221 76265
L70305 76293
L70446 76293
L70502 76265
L70530 76237
L70559 76181
L70559 76124
L70530 76068
L70502 76040
L70446 76012
L70334 75984
L70277 75956
L70249 75928
L70221 75871
L70221 75815
L70249 75759
L70277 75731
L70334 75703
L70474 75703
L70559 75731
" />
<path d="M70812 76293
L70812 75899
" />
<path d="M70812 75703
L70784 75731
L70812 75759
L70840 75731
L70812 75703
L70812 75759
" />
<path d="M71037 75899
L71346 75899
L71037 76293
L71346 76293
" />
<path d="M71796 76265
L71740 76293
L71627 76293
L71571 76265
L71543 76209
L71543 75984
L71571 75928
L71627 75899
L71740 75899
L71796 75928
L71824 75984
L71824 76040
L71543 76096
" />
<path d="M72077 76237
L72105 76265
L72077 76293
L72049 76265
L72077 76237
L72077 76293
" />
<path d="M72077 75928
L72105 75956
L72077 75984
L72049 75956
L72077 75928
L72077 75984
" />
<path d="M72780 76124
L73061 76124
" />
<path d="M72724 76293
L72921 75703
L73118 76293
" />
<path d="M73568 75899
L73568 76293
" />
<path d="M73427 75674
L73286 76096
L73652 76096
" />
</g>
<g style="fill:#000000; fill-opacity:0.0; 
stroke:#000000; stroke-width:39.3701; stroke-opacity:1; 
stroke-linecap:round; stroke-linejoin:round;">
</g>
<g style="fill:#000000; fill-opacity:0.0; 
stroke:#000000; stroke-width:59.0551; stroke-opacity:1; 
stroke-linecap:round; stroke-linejoin:round;">
<path d="M103714 77395
L103714 76805
" />
<path d="M104248 77395
L104248 76805
" />
<path d="M104248 77367
L104192 77395
L104079 77395
L104023 77367
L103995 77339
L103967 77283
L103967 77114
L103995 77058
L104023 77030
L104079 77002
L104192 77002
L104248 77030
" />
<path d="M104529 77339
L104557 77367
L104529 77395
L104501 77367
L104529 77339
L104529 77395
" />
<path d="M104529 77030
L104557 77058
L104529 77086
L104501 77058
L104529 77030
L104529 77086
" />
<path d="M105570 77395
L105232 77395
" />
<path d="M105401 77395
L105401 76805
L105345 76889
L105289 76946
L105232 76974
" />
<path d="M106245 76777
L105739 77536
" />
<path d="M106751 77395
L106413 77395
" />
<path d="M106582 77395
L106582 76805
L106526 76889
L106470 76946
L106413 76974
" />
</g>
<g style="fill:#000000; fill-opacity:0.0; 
stroke:#000000; stroke-width:39.3701; stroke-opacity:1; 
stroke-linecap:round; stroke-linejoin:round;">
</g>
<g style="fill:#000000; fill-opacity:0.0; 
stroke:#000000; stroke-width:59.0551; stroke-opacity:1; 
stroke-linecap:round; stroke-linejoin:round;">
<path d="M69685 73821
L112205 73821
" />
</g>
<g style="fill:#000000; fill-opacity:0.0; 
stroke:#000000; stroke-width:39.3701; stroke-opacity:1; 
stroke-linecap:round; stroke-linejoin:round;">
</g>
<g style="fill:#000000; fill-opacity:0.0; 
stroke:#000000; stroke-width:157.48; stroke-opacity:1; 
stroke-linecap:round; stroke-linejoin:round;">
<path d="M70360 74099
L70810 74099
" />
<path d="M70486 74886
L70585 74099
" />
<path d="M70974 74886
L71039 74361
" />
<path d="M71072 74099
L71030 74136
L71063 74174
L71105 74136
L71072 74099
L71063 74174
" />
<path d="M71302 74361
L71602 74361
" />
<path d="M71447 74099
L71363 74774
L71391 74849
L71461 74886
L71536 74886
" />
<path d="M71911 74886
L71841 74849
L71813 74774
L71897 74099
" />
<path d="M72516 74849
L72436 74886
L72286 74886
L72216 74849
L72187 74774
L72225 74474
L72272 74399
L72352 74361
L72501 74361
L72572 74399
L72600 74474
L72591 74549
L72206 74624
" />
<path d="M72895 74811
L72928 74849
L72886 74886
L72853 74849
L72895 74811
L72886 74886
" />
<path d="M72947 74399
L72980 74436
L72937 74474
L72905 74436
L72947 74399
L72937 74474
" />
</g>
<g style="fill:#000000; fill-opacity:0.0; 
stroke:#000000; stroke-width:39.3701; stroke-opacity:1; 
stroke-linecap:round; stroke-linejoin:round;">
</g>
<g style="fill:#000000; fill-opacity:0.0; 
stroke:#000000; stroke-width:59.0551; stroke-opacity:1; 
stroke-linecap:round; stroke-linejoin:round;">
<path d="M70446 73070
L70249 73070
" />
<path d="M70249 73380
L70249 72789
L70530 72789
" />
<path d="M70755 73380
L70755 72986
" />
<path d="M70755 72789
L70727 72817
L70755 72845
L70784 72817
L70755 72789
L70755 72845
" />
<path d="M71121 73380
L71065 73352
L71037 73295
L71037 72789
" />
<path d="M71571 73352
L71515 73380
L71402 73380
L71346 73352
L71318 73295
L71318 73070
L71346 73014
L71402 72986
L71515 72986
L71571 73014
L71599 73070
L71599 73127
L71318 73183
" />
<path d="M71852 73323
L71880 73352
L71852 73380
L71824 73352
L71852 73323
L71852 73380
" />
<path d="M71852 73014
L71880 73042
L71852 73070
L71824 73042
L71852 73014
L71852 73070
" />
<path d="M72696 72789
L72808 72789
L72865 72817
L72921 72874
L72949 72986
L72949 73183
L72921 73295
L72865 73352
L72808 73380
L72696 73380
L72640 73352
L72583 73295
L72555 73183
L72555 72986
L72583 72874
L72640 72817
L72696 72789
" />
<path d="M73202 72986
L73202 73577
" />
<path d="M73202 73014
L73258 72986
L73371 72986
L73427 73014
L73455 73042
L73483 73099
L73483 73267
L73455 73323
L73427 73352
L73371 73380
L73258 73380
L73202 73352
" />
<path d="M73961 73352
L73905 73380
L73793 73380
L73736 73352
L73708 73295
L73708 73070
L73736 73014
L73793 72986
L73905 72986
L73961 73014
L73989 73070
L73989 73127
L73708 73183
" />
<path d="M74242 72986
L74242 73380
" />
<path d="M74242 73042
L74271 73014
L74327 72986
L74411 72986
L74467 73014
L74496 73070
L74496 73380
" />
<path d="M74749 73211
L75030 73211
" />
<path d="M74692 73380
L74889 72789
L75086 73380
" />
<path d="M75283 73380
L75283 72789
L75508 72789
L75564 72817
L75592 72845
L75620 72902
L75620 72986
L75592 73042
L75564 73070
L75508 73099
L75283 73099
" />
<path d="M75874 73380
L75874 72789
L76014 72789
L76099 72817
L76155 72874
L76183 72930
L76211 73042
L76211 73127
L76183 73239
L76155 73295
L76099 73352
L76014 73380
L75874 73380
" />
<path d="M76464 73323
L76492 73352
L76464 73380
L76436 73352
L76464 73323
L76464 73380
" />
<path d="M76745 73380
L76745 72789
" />
<path d="M76802 73155
L76970 73380
" />
<path d="M76970 72986
L76745 73211
" />
<path d="M77223 73380
L77223 72986
" />
<path d="M77223 72789
L77195 72817
L77223 72845
L77251 72817
L77223 72789
L77223 72845
" />
<path d="M77758 73352
L77701 73380
L77589 73380
L77533 73352
L77505 73323
L77476 73267
L77476 73099
L77505 73042
L77533 73014
L77589 72986
L77701 72986
L77758 73014
" />
<path d="M78264 73380
L78264 73070
L78236 73014
L78180 72986
L78067 72986
L78011 73014
" />
<path d="M78264 73352
L78208 73380
L78067 73380
L78011 73352
L77983 73295
L77983 73239
L78011 73183
L78067 73155
L78208 73155
L78264 73127
" />
<path d="M78798 73380
L78798 72789
" />
<path d="M78798 73352
L78742 73380
L78629 73380
L78573 73352
L78545 73323
L78517 73267
L78517 73099
L78545 73042
L78573 73014
L78629 72986
L78742 72986
L78798 73014
" />
<path d="M78939 73436
L79389 73436
" />
<path d="M79529 72986
L79529 73577
" />
<path d="M79529 73014
L79586 72986
L79698 72986
L79754 73014
L79782 73042
L79811 73099
L79811 73267
L79782 73323
L79754 73352
L79698 73380
L79586 73380
L79529 73352
" />
<path d="M80317 73352
L80260 73380
L80148 73380
L80092 73352
L80064 73323
L80036 73267
L80036 73099
L80064 73042
L80092 73014
L80148 72986
L80260 72986
L80317 73014
" />
<path d="M80570 73380
L80570 72789
" />
<path d="M80570 73014
L80626 72986
L80739 72986
L80795 73014
L80823 73042
L80851 73099
L80851 73267
L80823 73323
L80795 73352
L80739 73380
L80626 73380
L80570 73352
" />
</g>
<g style="fill:#000000; fill-opacity:0.0; 
stroke:#000000; stroke-width:39.3701; stroke-opacity:1; 
stroke-linecap:round; stroke-linejoin:round;">
</g>
<g style="fill:#000000; fill-opacity:0.0; 
stroke:#000000; stroke-width:59.0551; stroke-opacity:1; 
stroke-linecap:round; stroke-linejoin:round;">
<path d="M69685 71459
L112205 71459
" />
</g>
<g style="fill:#000000; fill-opacity:0.0; 
stroke:#000000; stroke-width:39.3701; stroke-opacity:1; 
stroke-linecap:round; stroke-linejoin:round;">
</g>
<g style="fill:#000000; fill-opacity:0.0; 
stroke:#000000; stroke-width:59.0551; stroke-opacity:1; 
stroke-linecap:round; stroke-linejoin:round;">
<path d="M70221 72289
L70305 72317
L70446 72317
L70502 72289
L70530 72260
L70559 72204
L70559 72148
L70530 72092
L70502 72064
L70446 72036
L70334 72007
L70277 71979
L70249 71951
L70221 71895
L70221 71839
L70249 71782
L70277 71754
L70334 71726
L70474 71726
L70559 71754
" />
<path d="M70812 72317
L70812 71726
" />
<path d="M71065 72317
L71065 72007
L71037 71951
L70980 71923
L70896 71923
L70840 71951
L70812 71979
" />
<path d="M71571 72289
L71515 72317
L71402 72317
L71346 72289
L71318 72232
L71318 72007
L71346 71951
L71402 71923
L71515 71923
L71571 71951
L71599 72007
L71599 72064
L71318 72120
" />
<path d="M72077 72289
L72021 72317
L71908 72317
L71852 72289
L71824 72232
L71824 72007
L71852 71951
L71908 71923
L72021 71923
L72077 71951
L72105 72007
L72105 72064
L71824 72120
" />
<path d="M72274 71923
L72499 71923
" />
<path d="M72358 71726
L72358 72232
L72386 72289
L72443 72317
L72499 72317
" />
<path d="M72696 72260
L72724 72289
L72696 72317
L72668 72289
L72696 72260
L72696 72317
" />
<path d="M72696 71951
L72724 71979
L72696 72007
L72668 71979
L72696 71951
L72696 72007
" />
</g>
<g style="fill:#000000; fill-opacity:0.0; 
stroke:#000000; stroke-width:39.3701; stroke-opacity:1; 
stroke-linecap:round; stroke-linejoin:round;">
</g>
<g style="fill:#000000; fill-opacity:0.0; 
stroke:#000000; stroke-width:59.0551; stroke-opacity:1; 
stroke-linecap:round; stroke-linejoin:round;">
<path d="M77559 75396
L77559 76577
" />
</g>
<g style="fill:#000000; fill-opacity:0.0; 
stroke:#000000; stroke-width:39.3701; stroke-opacity:1; 
stroke-linecap:round; stroke-linejoin:round;">
</g>
<g style="fill:#000000; fill-opacity:0.0; 
stroke:#000000; stroke-width:59.0551; stroke-opacity:1; 
stroke-linecap:round; stroke-linejoin:round;">
<path d="M102756 75396
L102756 77955
" />
</g>
<g style="fill:#000000; fill-opacity:0.0; 
stroke:#000000; stroke-width:0; stroke-opacity:1; 
stroke-linecap:round; stroke-linejoin:round;">
</g>
<g style="fill:#000000; fill-opacity:1.0; 
stroke:#000000; stroke-width:0; stroke-opacity:1; 
stroke-linecap:round; stroke-linejoin:round;">
<polyline style="fill-rule:evenodd;"
points="39133,28021
39133,27234
39606,27234
39606,28021
39133,28021
" /> 
<polyline style="fill-rule:evenodd;"
points="38633,29458
38633,28671
39106,28671
39106,29458
38633,29458
" /> 
<polyline style="fill-rule:evenodd;"
points="39633,29458
39633,28671
40106,28671
40106,29458
39633,29458
" /> 
<polyline style="fill-rule:evenodd;"
points="36318,50442
36318,49950
36909,49950
36909,50442
36318,50442
" /> 
<polyline style="fill-rule:evenodd;"
points="37303,50442
37303,49950
37893,49950
37893,50442
37303,50442
" /> 
<polyline style="fill-rule:evenodd;"
points="38296,45746
38296,45253
38887,45253
38887,45746
38296,45746
" /> 
<polyline style="fill-rule:evenodd;"
points="37312,45746
37312,45253
37903,45253
37903,45746
37312,45746
" /> 
<polyline style="fill-rule:evenodd;"
points="41978,29133
41486,29133
41486,28543
41978,28543
41978,29133
" /> 
<polyline style="fill-rule:evenodd;"
points="41978,28149
41486,28149
41486,27559
41978,27559
41978,28149
" /> 
<polyline style="fill-rule:evenodd;"
points="40203,48353
40203,48846
39612,48846
39612,48353
40203,48353
" /> 
<polyline style="fill-rule:evenodd;"
points="41187,48353
41187,48846
40596,48846
40596,48353
41187,48353
" /> 
<polyline style="fill-rule:evenodd;"
points="33603,52453
33603,52946
33012,52946
33012,52453
33603,52453
" /> 
<polyline style="fill-rule:evenodd;"
points="34587,52453
34587,52946
33996,52946
33996,52453
34587,52453
" /> 
<polyline style="fill-rule:evenodd;"
points="43159,37598
42667,37598
42667,37007
43159,37007
43159,37598
" /> 
<polyline style="fill-rule:evenodd;"
points="43159,36614
42667,36614
42667,36023
43159,36023
43159,36614
" /> 
<polyline style="fill-rule:evenodd;"
points="36644,42973
37155,42973
37155,43563
36644,43563
36644,42973
" /> 
<polyline style="fill-rule:evenodd;"
points="36644,44036
37155,44036
37155,44626
36644,44626
36644,44036
" /> 
<polyline style="fill-rule:evenodd;"
points="41863,51644
41863,52155
41273,52155
41273,51644
41863,51644
" /> 
<polyline style="fill-rule:evenodd;"
points="42926,51644
42926,52155
42336,52155
42336,51644
42926,51644
" /> 
<polyline style="fill-rule:evenodd;"
points="41863,50744
41863,51255
41273,51255
41273,50744
41863,50744
" /> 
<polyline style="fill-rule:evenodd;"
points="42926,50744
42926,51255
42336,51255
42336,50744
42926,50744
" /> 
<polyline style="fill-rule:evenodd;"
points="38248,56141
37736,56141
37736,55551
38248,55551
38248,56141
" /> 
<polyline style="fill-rule:evenodd;"
points="38248,55078
37736,55078
37736,54488
38248,54488
38248,55078
" /> 
<polyline style="fill-rule:evenodd;"
points="41926,47244
41926,47755
41336,47755
41336,47244
41926,47244
" /> 
<polyline style="fill-rule:evenodd;"
points="40863,47244
40863,47755
40273,47755
40273,47244
40863,47244
" /> 
<polyline style="fill-rule:evenodd;"
points="43955,50126
43444,50126
43444,49536
43955,49536
43955,50126
" /> 
<polyline style="fill-rule:evenodd;"
points="43955,49063
43444,49063
43444,48473
43955,48473
43955,49063
" /> 
<polyline style="fill-rule:evenodd;"
points="41844,49336
42355,49336
42355,49926
41844,49926
41844,49336
" /> 
<polyline style="fill-rule:evenodd;"
points="41844,48273
42355,48273
42355,48863
41844,48863
41844,48273
" /> 
<polyline style="fill-rule:evenodd;"
points="42963,47244
42963,47755
42373,47755
42373,47244
42963,47244
" /> 
<polyline style="fill-rule:evenodd;"
points="44026,47244
44026,47755
43436,47755
43436,47244
44026,47244
" /> 
<polyline style="fill-rule:evenodd;"
points="34655,55026
34144,55026
34144,54436
34655,54436
34655,55026
" /> 
<polyline style="fill-rule:evenodd;"
points="34655,53963
34144,53963
34144,53373
34655,53373
34655,53963
" /> 
<polyline style="fill-rule:evenodd;"
points="33044,54436
33555,54436
33555,55026
33044,55026
33044,54436
" /> 
<polyline style="fill-rule:evenodd;"
points="33044,53373
33555,53373
33555,53963
33044,53963
33044,53373
" /> 
<polyline style="fill-rule:evenodd;"
points="39763,51327
38976,51327
38976,50540
39763,50540
39763,51327
" /> 
<polyline style="fill-rule:evenodd;"
points="39753,50396
39616,50396
39616,50022
39753,50022
39753,50396
" /> 
<polyline style="fill-rule:evenodd;"
points="39438,50396
39301,50396
39301,50022
39438,50022
39438,50396
" /> 
<polyline style="fill-rule:evenodd;"
points="39124,50396
38986,50396
38986,50022
39124,50022
39124,50396
" /> 
<polyline style="fill-rule:evenodd;"
points="40281,50687
39907,50687
39907,50550
40281,50550
40281,50687
" /> 
<polyline style="fill-rule:evenodd;"
points="40281,51002
39907,51002
39907,50864
40281,50864
40281,51002
" /> 
<polyline style="fill-rule:evenodd;"
points="40281,51317
39907,51317
39907,51179
40281,51179
40281,51317
" /> 
<polyline style="fill-rule:evenodd;"
points="38832,51317
38458,51317
38458,51179
38832,51179
38832,51317
" /> 
<polyline style="fill-rule:evenodd;"
points="38832,50687
38458,50687
38458,50550
38832,50550
38832,50687
" /> 
<polyline style="fill-rule:evenodd;"
points="38832,51002
38458,51002
38458,50864
38832,50864
38832,51002
" /> 
<polyline style="fill-rule:evenodd;"
points="39753,51845
39616,51845
39616,51471
39753,51471
39753,51845
" /> 
<polyline style="fill-rule:evenodd;"
points="39124,51845
38986,51845
38986,51471
39124,51471
39124,51845
" /> 
<polyline style="fill-rule:evenodd;"
points="39438,51845
39301,51845
39301,51471
39438,51471
39438,51845
" /> 
<polyline style="fill-rule:evenodd;"
points="32677,55905
31496,55905
31496,54724
32677,54724
32677,55905
" /> 
<polyline style="fill-rule:evenodd;"
points="33950,56790
33950,56410
34450,56410
34450,56790
33950,56790
" /> 
<polyline style="fill-rule:evenodd;"
points="33950,56290
33950,55910
34450,55910
34450,56290
33950,56290
" /> 
<polyline style="fill-rule:evenodd;"
points="33950,55790
33950,55410
34450,55410
34450,55790
33950,55790
" /> 
<polyline style="fill-rule:evenodd;"
points="34353,42607
35259,42607
35259,43985
34353,43985
34353,42607
" /> 
<polyline style="fill-rule:evenodd;"
points="34353,44733
35259,44733
35259,46111
34353,46111
34353,44733
" /> 
<polyline style="fill-rule:evenodd;"
points="37322,55629
37322,56417
36299,56417
36299,55629
37322,55629
" /> 
<polyline style="fill-rule:evenodd;"
points="37322,54212
37322,55000
36299,55000
36299,54212
37322,54212
" /> 
<polyline style="fill-rule:evenodd;"
points="34074,48464
34074,47598
34665,47598
34665,48464
34074,48464
" /> 
<polyline style="fill-rule:evenodd;"
points="36594,48464
36594,47598
37185,47598
37185,48464
36594,48464
" /> 
<polyline style="fill-rule:evenodd;"
points="41476,35984
41988,35984
41988,36574
41476,36574
41476,35984
" /> 
<polyline style="fill-rule:evenodd;"
points="41476,37047
41988,37047
41988,37637
41476,37637
41476,37047
" /> 
<polyline style="fill-rule:evenodd;"
points="44271,54704
44271,54153
45098,54153
45098,54704
44271,54704
" /> 
<polyline style="fill-rule:evenodd;"
points="44271,56476
44271,55925
45098,55925
45098,56476
44271,56476
" /> 
<polyline style="fill-rule:evenodd;"
points="40334,54704
40334,54153
41161,54153
41161,54704
40334,54704
" /> 
<polyline style="fill-rule:evenodd;"
points="40334,56476
40334,55925
41161,55925
41161,56476
40334,56476
" /> 
<polyline style="fill-rule:evenodd;"
points="38750,37817
38750,38617
38490,38617
38490,37817
38750,37817
" /> 
<polyline style="fill-rule:evenodd;"
points="39250,37817
39250,38617
38990,38617
38990,37817
39250,37817
" /> 
<polyline style="fill-rule:evenodd;"
points="39750,37817
39750,38617
39490,38617
39490,37817
39750,37817
" /> 
<polyline style="fill-rule:evenodd;"
points="40250,37817
40250,38617
39990,38617
39990,37817
40250,37817
" /> 
<polyline style="fill-rule:evenodd;"
points="40250,35397
40250,36197
39990,36197
39990,35397
40250,35397
" /> 
<polyline style="fill-rule:evenodd;"
points="39750,35397
39750,36197
39490,36197
39490,35397
39750,35397
" /> 
<polyline style="fill-rule:evenodd;"
points="39250,35397
39250,36197
38990,36197
38990,35397
39250,35397
" /> 
<polyline style="fill-rule:evenodd;"
points="38750,35397
38750,36197
38490,36197
38490,35397
38750,35397
" /> 
<polyline style="fill-rule:evenodd;"
points="37401,39173
36220,39173
36220,37992
37401,37992
37401,39173
" /> 
<polyline style="fill-rule:evenodd;"
points="46062,39173
44881,39173
44881,37992
46062,37992
46062,39173
" /> 
<polyline style="fill-rule:evenodd;"
points="37956,48453
37641,48453
37641,48138
37956,48138
37956,48453
" /> 
<polyline style="fill-rule:evenodd;"
points="38743,48079
38428,48079
38428,47764
38743,47764
38743,48079
" /> 
<polyline style="fill-rule:evenodd;"
points="38743,48827
38428,48827
38428,48512
38743,48512
38743,48827
" /> 
<polyline style="fill-rule:evenodd;"
points="38743,47331
38428,47331
38428,47016
38743,47016
38743,47331
" /> 
<polyline style="fill-rule:evenodd;"
points="38743,46583
38428,46583
38428,46268
38743,46268
38743,46583
" /> 
<polyline style="fill-rule:evenodd;"
points="37956,46957
37641,46957
37641,46642
37956,46642
37956,46957
" /> 
<polyline style="fill-rule:evenodd;"
points="42952,39311
42952,39822
42362,39822
42362,39311
42952,39311
" /> 
<polyline style="fill-rule:evenodd;"
points="41889,39311
41889,39822
41299,39822
41299,39311
41889,39311
" /> 
<polyline style="fill-rule:evenodd;"
points="37263,29173
36751,29173
36751,28582
37263,28582
37263,29173
" /> 
<polyline style="fill-rule:evenodd;"
points="37263,28110
36751,28110
36751,27519
37263,27519
37263,28110
" /> 
<polyline style="fill-rule:evenodd;"
points="37159,40959
37159,41339
36659,41339
36659,40959
37159,40959
" /> 
<polyline style="fill-rule:evenodd;"
points="37159,40459
37159,40839
36659,40839
36659,40459
37159,40459
" /> 
<polyline style="fill-rule:evenodd;"
points="37159,39959
37159,40339
36659,40339
36659,39959
37159,39959
" /> 
</g>
<g style="fill:#000000; fill-opacity:0.0; 
stroke:#000000; stroke-width:39.3701; stroke-opacity:1; 
stroke-linecap:round; stroke-linejoin:round;">
<path d="M40551.2 32283.5 A787.402 787.402 0.0 0 0 39763.8 33070.9 " />
<path d="M43307.1 31940 A1377.95 1377.95 0.0 0 0 42963.7 32283.5 " />
<path d="M42963.7 24409.4 A1377.95 1377.95 0.0 0 0 43307.1 24752.9 " />
<path d="M41929.1 24252 A157.48 157.48 0.0 0 0 42086.6 24409.4 " />
<path d="M42086.6 23818.9 A157.48 157.48 0.0 0 0 41929.1 23976.4 " />
<path d="M43244.9 23966.4 A236.22 236.22 0.0 0 0 43026 23818.9 " />
<path d="M43244.9 23966.4 A916.704 916.704 0.0 0 0 43750.1 24471.6 " />
<path d="M43897.6 24690.5 A236.22 236.22 0.0 0 0 43750.1 24471.6 " />
<path d="M43750.1 32221.3 A236.221 236.221 0.0 0 0 43897.6 32002.4 " />
<path d="M43750.1 32221.3 A916.704 916.704 0.0 0 0 43244.9 32726.5 " />
<path d="M43026 32874 A236.22 236.22 0.0 0 0 43244.9 32726.5 " />
<path d="M40748 32874 A393.701 393.701 0.0 0 0 40354.3 33267.7 " />
<path d="M40196.9 33661.4 A157.48 157.48 0.0 0 0 40354.3 33503.9 " />
<path d="M39763.8 33503.9 A157.48 157.48 0.0 0 0 39921.3 33661.4 " />
<path d="M30511.8 58267.7 A787.402 787.402 0.0 0 0 31299.2 59055.1 " />
<path d="M47440.9 59055.1 A787.402 787.402 0.0 0 0 48228.3 58267.7 " />
<path d="M48228.3 20472.4 A787.402 787.402 0.0 0 0 47440.9 19685 " />
<path d="M31299.2 19685 A787.402 787.402 0.0 0 0 30511.8 20472.4 " />
<path d="M35776.5 32283.5 A1377.95 1377.95 0.0 0 0 35433.1 31940 " />
<path d="M38976.4 33070.9 A787.402 787.402 0.0 0 0 38189 32283.5 " />
<path d="M38818.9 33661.4 A157.48 157.48 0.0 0 0 38976.4 33503.9 " />
<path d="M38385.8 33503.9 A157.48 157.48 0.0 0 0 38543.3 33661.4 " />
<path d="M38385.8 33267.7 A393.701 393.701 0.0 0 0 37992.1 32874 " />
<path d="M35495.2 32726.5 A236.22 236.22 0.0 0 0 35714.2 32874 " />
<path d="M35495.2 32726.5 A916.704 916.704 0.0 0 0 34990 32221.3 " />
<path d="M34842.5 32002.4 A236.22 236.22 0.0 0 0 34990 32221.3 " />
<path d="M34990 24471.6 A236.221 236.221 0.0 0 0 34842.5 24690.5 " />
<path d="M34990 24471.6 A916.704 916.704 0.0 0 0 35495.2 23966.4 " />
<path d="M35714.2 23818.9 A236.22 236.22 0.0 0 0 35495.2 23966.4 " />
<path d="M36811 23976.4 A157.48 157.48 0.0 0 0 36653.5 23818.9 " />
<path d="M36653.5 24409.4 A157.48 157.48 0.0 0 0 36811 24252 " />
<path d="M35433.1 24752.9 A1377.95 1377.95 0.0 0 0 35776.5 24409.4 " />
<path d="M41614.2 23976.4 A157.48 157.48 0.0 0 0 41456.7 23818.9 " />
<path d="M41456.7 24409.4 A157.48 157.48 0.0 0 0 41614.2 24252 " />
<path d="M37126 24252 A157.48 157.48 0.0 0 0 37283.5 24409.4 " />
<path d="M37283.5 23818.9 A157.48 157.48 0.0 0 0 37126 23976.4 " />
<path d="M39763 33070
L39763 33503
" />
<path d="M42963 32283
L40551 32283
" />
<path d="M43307 24752
L43307 31940
" />
<path d="M42086 24409
L42963 24409
" />
<path d="M41929 23976
L41929 24251
" />
<path d="M43025 23818
L42086 23818
" />
<path d="M43897 32002
L43897 24690
" />
<path d="M40748 32874
L43025 32874
" />
<path d="M40354 33503
L40354 33267
" />
<path d="M39921 33661
L40196 33661
" />
<path d="M31299 59055
L47440 59055
" />
<path d="M48228 58267
L48228 20472
" />
<path d="M47440 19685
L31299 19685
" />
<path d="M30511 20472
L30511 58267
" />
<path d="M35433 31940
L35433 24752
" />
<path d="M38188 32283
L35776 32283
" />
<path d="M38976 33503
L38976 33070
" />
<path d="M38543 33661
L38818 33661
" />
<path d="M38385 33267
L38385 33503
" />
<path d="M35714 32874
L37992 32874
" />
<path d="M34842 24690
L34842 32002
" />
<path d="M36653 23818
L35714 23818
" />
<path d="M36811 24251
L36811 23976
" />
<path d="M35776 24409
L36653 24409
" />
<path d="M41456 23818
L37283 23818
" />
<path d="M41614 24251
L41614 23976
" />
<path d="M37283 24409
L41456 24409
" />
<path d="M37125 23976
L37125 24251
" />
<circle cx="46653.5" cy="35433.1" r="629.921" /> 
<circle cx="32086.6" cy="57480.3" r="629.921" /> 
<circle cx="46653.5" cy="21259.8" r="629.921" /> 
<circle cx="44094.5" cy="33070.9" r="590.551" /> 
<circle cx="34645.7" cy="23622" r="590.551" /> 
<circle cx="34645.7" cy="33070.9" r="590.551" /> 
<circle cx="44094.5" cy="23622" r="590.551" /> 
<circle cx="32086.6" cy="21259.8" r="629.921" /> 
<circle cx="46653.5" cy="57480.3" r="629.921" /> 
<circle cx="32086.6" cy="35433.1" r="629.921" /> 
</g> 
</svg>
